/* XPM */
static char * path_xpm[] = {
"64 64 42 1",
" 	c None",
".	c #70C8A0",
"+	c #70C8A2",
"@	c #6EC9A0",
"#	c #71C9A1",
"$	c #70C89E",
"%	c #71C7A0",
"&	c #6EC8A2",
"*	c #6FC7A1",
"=	c #70C7A4",
"-	c #70C69F",
";	c #6DC89F",
">	c #70C99D",
",	c #6FC79F",
"'	c #72C99F",
")	c #40B186",
"!	c #3EB188",
"~	c #71C7A2",
"{	c #6EC8A4",
"]	c #41AF88",
"^	c #3FAF87",
"/	c #3FAF89",
"(	c #71C9A3",
"_	c #71C89E",
":	c #40B088",
"<	c #41B189",
"[	c #72C8A1",
"}	c #72C79E",
"|	c #3EB18A",
"1	c #3DAF8B",
"2	c #42B089",
"3	c #40B08A",
"4	c #41AF8A",
"5	c #41B086",
"6	c #71C99F",
"7	c #A0DFC0",
"8	c #A1E0C1",
"9	c #9FDEBF",
"0	c #A2DFC0",
"a	c #9FE0C0",
"b	c #A0E1C1",
"c	c #A1DEBF",
"................................................................",
"................................................................",
"................................................................",
"................................................................",
"................................................................",
"................................................................",
"................................................................",
"................................................................",
"................................................................",
"................................................................",
"................................................................",
"................................................................",
"................................................................",
"................................................................",
"................................................................",
"................................................................",
"........+.@......#...#..$...%.%....+#%+.........................",
"...........#.+.$@.&#*.+...@...+.=.#.-;..........................",
"...........+>$$...%,'))!@&+@%.$.$.....,.........................",
"........~...{.&%....,]^/*...@.{+&$.%-...........................",
"........~..(_$'...&;%:<:.$#.[,}__...%...........................",
"........,.@.|:1...,%,2:3..,..#:^!..,............................",
".........$..:::%..#,.:::......]::..#,...........................",
"............::3.+..%@:::@....#::4.@+...+........................",
"........+...+@.3::#....@%..3:)#+................................",
"...........,#..::]......%..::5.$................................",
"............,..!^:#..,....+|/:#.................................",
"...........%...__},[.#$....[__..................................",
"...........-%.$&+{.@...*..++=&..................................",
".........,.....$.$.%@+&@.%..6.@$................................",
".........%;-.#.=.+...@...#.%+..,................................",
".........+%#+....%.%...$..#...@.................................",
"............................#...%.,.%.............,#%%.[........",
"........................#@..,....................@.%@.%.........",
"........................,............@..@.........-@-..,........",
"...........................#.%,,%..#.%.-.,#..@..-,.%@...........",
"..............................,@#......778........%#%..%........",
".........................%.,...,....,#.977......%.%,#...........",
".............................#..,......777.......##..,..........",
"..............................778..#-.,777......070.%...........",
"...........................;..707......707#%#,..778.,...........",
"...........................%#.8a7%%#.@.770.#....877@...@........",
"...........................@.....7aa@.#@.....bba..@..%..........",
"...........................#..#..0c0..@%[...%009.#%.............",
"..............................,,.ab7#,.-,,.%@8a7,@,%@...........",
"..........................,.,.%%..-#.[.%..,...%.%#%.%...........",
"..........................#.......#-...,,..%.,..,..@.#..........",
".........................#%%.........#......%......@%...........",
"................................................................",
"................................................................",
"................................................................",
"................................................................",
"................................................................",
"................................................................",
"................................................................",
"................................................................",
"................................................................",
"................................................................",
"................................................................",
"................................................................",
"................................................................",
"................................................................",
"................................................................",
"................................................................"};
