/* XPM */
static char * wall_xpm[] = {
"64 64 210 2",
"  	c None",
". 	c #70C8A0",
"+ 	c #71C7A0",
"@ 	c #6FC79F",
"# 	c #70C8A2",
"$ 	c #6EC8A2",
"% 	c #6EC99E",
"& 	c #6EC9A0",
"* 	c #71C7A2",
"= 	c #70C89E",
"- 	c #71C9A1",
"; 	c #394831",
"> 	c #384730",
", 	c #78C841",
"' 	c #7AC841",
") 	c #6DC89F",
"! 	c #384732",
"~ 	c #87E048",
"{ 	c #71C9A3",
"] 	c #485742",
"^ 	c #364830",
"/ 	c #7AC840",
"( 	c #7BC942",
"_ 	c #38482E",
": 	c #485740",
"< 	c #48583E",
"[ 	c #57A82F",
"} 	c #394730",
"| 	c #87E04A",
"1 	c #87E046",
"2 	c #86E148",
"3 	c #518837",
"4 	c #465840",
"5 	c #46583E",
"6 	c #6CC79E",
"7 	c #4A5841",
"8 	c #495841",
"9 	c #58A730",
"0 	c #76C83F",
"a 	c #89DF46",
"b 	c #88E149",
"c 	c #89DF48",
"d 	c #78C940",
"e 	c #495740",
"f 	c #518634",
"g 	c #495642",
"h 	c #72C99F",
"i 	c #72C8A1",
"j 	c #47563F",
"k 	c #58A732",
"l 	c #78C843",
"m 	c #528938",
"n 	c #71C89E",
"o 	c #495843",
"p 	c #528735",
"q 	c #518739",
"r 	c #50703F",
"s 	c #6FCAA1",
"t 	c #528737",
"u 	c #77C941",
"v 	c #526F3F",
"w 	c #4F8837",
"x 	c #57A830",
"y 	c #79C942",
"z 	c #508736",
"A 	c #507041",
"B 	c #4F713F",
"C 	c #517140",
"D 	c #59A72F",
"E 	c #59A833",
"F 	c #58A82F",
"G 	c #518835",
"H 	c #57A62F",
"I 	c #528739",
"J 	c #56A72F",
"K 	c #77C940",
"L 	c #5AA831",
"M 	c #57A72E",
"N 	c #59A730",
"O 	c #59A831",
"P 	c #4E8834",
"Q 	c #58A930",
"R 	c #77C740",
"S 	c #4F8839",
"T 	c #4E8736",
"U 	c #58A931",
"V 	c #538838",
"W 	c #537040",
"X 	c #4E703E",
"Y 	c #48563F",
"Z 	c #57A734",
"` 	c #58A82D",
" .	c #4F6F3E",
"..	c #4F8935",
"+.	c #49593F",
"@.	c #4F6F40",
"#.	c #3A4733",
"$.	c #508938",
"%.	c #517142",
"&.	c #51713F",
"*.	c #37462F",
"=.	c #475641",
"-.	c #50703E",
";.	c #507142",
">.	c #4F6F3D",
",.	c #52883A",
"'.	c #4F7041",
").	c #6FC79D",
"!.	c #374631",
"~.	c #364832",
"{.	c #49553D",
"].	c #516F3D",
"^.	c #516E40",
"/.	c #516E3E",
"(.	c #526F41",
"_.	c #528936",
":.	c #465842",
"<.	c #53713F",
"[.	c #49573E",
"}.	c #508638",
"|.	c #52703E",
"1.	c #47573D",
"2.	c #475941",
"3.	c #6DC89D",
"4.	c #2D301F",
"5.	c #71C99F",
"6.	c #312F20",
"7.	c #485541",
"8.	c #2F3221",
"9.	c #2F3020",
"0.	c #2E2F1F",
"a.	c #2F3022",
"b.	c #419878",
"c.	c #409777",
"d.	c #2D301D",
"e.	c #41977A",
"f.	c #429778",
"g.	c #307F69",
"h.	c #386058",
"i.	c #39472E",
"j.	c #2F321F",
"k.	c #2E2F1D",
"l.	c #322F20",
"m.	c #419876",
"n.	c #3F9878",
"o.	c #308067",
"p.	c #39625A",
"q.	c #303123",
"r.	c #31301E",
"s.	c #2E3022",
"t.	c #907A49",
"u.	c #39492F",
"v.	c #303121",
"w.	c #376058",
"x.	c #318168",
"y.	c #395E57",
"z.	c #3A5F58",
"A.	c #686137",
"B.	c #90784A",
"C.	c #927847",
"D.	c #927748",
"E.	c #907848",
"F.	c #2F301E",
"G.	c #3A5F57",
"H.	c #42987B",
"I.	c #686039",
"J.	c #7F6940",
"K.	c #8F7948",
"L.	c #8F7747",
"M.	c #917A48",
"N.	c #696039",
"O.	c #409979",
"P.	c #675F38",
"Q.	c #8E7847",
"R.	c #907947",
"S.	c #806940",
"T.	c #69613A",
"U.	c #409775",
"V.	c #2E8167",
"W.	c #386057",
"X.	c #504831",
"Y.	c #917949",
"Z.	c #429977",
"`.	c #514932",
" +	c #80693F",
".+	c #396159",
"++	c #2E2F21",
"@+	c #2D2F21",
"#+	c #439877",
"$+	c #2D7F68",
"%+	c #3A5E5A",
"&+	c #385F5A",
"*+	c #3B6059",
"=+	c #30311F",
"-+	c #396158",
";+	c #2D8064",
">+	c #308065",
",+	c #375E59",
"'+	c #365F59",
")+	c #365F57",
"!+	c #409679",
"~+	c #317F67",
"{+	c #2F7F66",
"]+	c #308367",
"^+	c #40967B",
"/+	c #429776",
"(+	c #2F7E68",
"_+	c #3F9976",
":+	c #6FC7A1",
"<+	c #6FC6A3",
". . . . . . . . . . . . . . . . . . . . . . . . . + . @ # . . . . . . # @ . + . . . . . . . . . . . . . . . . . . . . . . . . . ",
". . . . . . . . . . . . . . . . . . . . . . . . + . . . . . . . . . . . . . . + . . . . . . . . . . . . . . . . . . . . . . . . ",
". . . . . . . . . . . . . . . . . . . . . . . . . . . . . . . . . . . . . . . . . . . . . . . . . . . . . . . . . . . . . . . . ",
". . . . . . . . . . . . . . . . . . . . . . . . # . . $ . . . % % . . . $ . . # . . . . . . . . . . . . . . . . . . . . . . . . ",
". . . . . . . . . . . . . . . . . . . . . . . . . . & & # . . * * . . # & & . . . . . . . . . . . . . . . . . . . . . . . . . . ",
". . . . . . . . . . . . . . . . . . . . . . . . . . . . . @ . # # . @ . . . . . . . . . . . . . . . . . . . . . . . . . . . . . ",
". . . . . . . . . . . . . . . . . . . . . . . . . . . = . . . = = . . . = . . . . . . . . . . . . . . . . . . . . . . . . . . . ",
". . . . . . . . . . . . . . . . . . . . . . . . . + . . - # = ; ; = # - . . + . . . . . . . . . . . . . . . . . . . . . . . . . ",
". . . . . . . . . . . . . . . . . = . . . . . - . . . & . . > , ' > @ . . . . . . & . . ) ) . = . . . . . . . . . . . . . . . . ",
". . . . . . . . . . . . . . . . . . - . @ . @ - . - & + & + ! ~ ~ ! + - . @ . . . . $ . . . . . . . . . . . . . . . . . . . . . ",
". . . . . . . . . . . . . . . . . . = - & . - { . - + % ] ^ / ~ ~ ( _ : . + @ . & . - - . . . + . . . . . . . . . . . . . . . . ",
". . . . . . . . . . . . . . . . . & + . @ ) @ ) : < . : [ } | 1 ~ 2 } 3 4 & : 5 & 6 @ & = . + & . . . . . . . . . . . . . . . . ",
". . . . . . . . . . . . . . . . . . = * - - { 7 8 4 7 9 8 0 a 2 b c d e f : : g e h + i . . $ + . . . . . . . . . . . . . . . . ",
". . . . . . . . . . . . . . . . . . . . @ . : j k 9 9 k > l 2 1 ~ 2 , > 3 3 m 3 4 5 . # # . n & . . . . . . . . . . . . . . . . ",
". . . . . . . . . . . . . . . . . . . . o 7 4 : 3 k 9 3 , , c | ~ | , ' p 3 m q r e : : . s . & . . . . . . . . . . . . . . . . ",
". . . . . . . . . . . . . . . . * . . : 3 3 3 t : 9 3 9 , , , 1 ~ , , u 9 t 3 ] r r r v : . . . . . . . . . . . . . . . . . . . ",
". . . . . . . . . . . . . . . . . . # g w t 3 m ] x 9 9 , y , , l , ' l 9 3 z : : A B C : . . # . . . . . . . . . . . . . . . . ",
". . . . . . . . . . . . . . . . = . : 8 3 t 3 8 y , 9 9 D , , k E , , F 9 G k H 9 g r v 8 : . - . . . . . . . . . . . . . . . . ",
". . . . . . . . . . . . . . . . # : 3 I x J : d K d H L M D k l , 9 9 9 N G 9 O 9 : G 3 r r : - . . . . . . . . . . . . . . . . ",
". . . . . . . . . . . . . . . . . : P Q 9 3 g , , 9 w x F 9 R l , d 9 9 w S G x 4 C v t t v e + . . . . . . . . . . . . . . . . ",
". . . . . . . . . . . . . . . . # = g I T G G < 3 z ( , 9 N y , u , J z N U 3 V W r B X r 4 & . . . . . . . . . . . . . . . . . ",
". . . . . . . . . . . . . . . . . j w w 3 H H 3 Y , , , N 9 9 ( u H 3 G F Z ` : r 3 3 v B r : + . . . . . . . . . . . . . . . . ",
". . . . . . . . . . . . . . . . ] 3 3 q 9 9 9 3 : u ' 9 w 9 O F H m t 3 I O H : r m 3 3 r  .r : . . . . . . . . . . . . . . . . ",
". . . . . . . . . . . . . . . . 4 z 3 3 9 9 t 3 3 : : ..9 k 9 N 9 3 G 3 m j j  .r A 3 3 v A r : . . . . . . . . . . . . . . . . ",
". . . . . . . . + . - . @ @ . # : < > 3 3 3 z w 3 3 3 +.9 O x : : w t 3 e r @.r r r r v r > : : > @ + . & . = . . . . . . . . . ",
". . . . . . . . . + { . . $ . > e #.q 3 G t G 3 $.3 w e x 9 ] %.C 8 q w j r B r r r @.&.A r } > > . . # . + . . . . . . . . . . ",
". . . . . . . . . . - = - . # *.; T 3 z : G w  .3 w z r < 8 r r r B : =.r r 3 3 r r -.C v v r > . + . . # . @ . . . . . . . . . ",
". . . . . . . . . . . # = # . > > 3 w ;.>.r A q m ,.'.r B z q &.W C B C r r 3 q 3 r @.>.r r r ! > . . . # = . . . . . . . . . . ",
". . . . . . . . . ).. . . . !.A C ~._ {.,.3 < z f 4 ].A 3 3 G X  . .^./.(.C ] 3 3 : _.w C } > r C > . i . . . . . . . . . . . . ",
". . . . . . . . . . & . = > 5 v v : > $...w r ] :.C r <.w 3 r r v -.-.r r r -.: [.r }.3 3 > j v v : & @ s . % . . . . . . . . . ",
". . . . . . . . - . . = . . > : ] : ! I 3 -.r r -.r r r C r r r r  .r r r r >.r r A W t 3 ; : : < > { - @ . . - . . . . . . . . ",
". . . . . . . . . . i . . . . > A |.: > } > :  .A (.r ;.A r @.r B r r r B r r A v : > > } : r &.*.& # . . . . . . . . . . . . . ",
". . . . . . . . . . & . . @ > 3 _. .1.] : : > A C (.r r q G A r r A G q r r (.C A > : : ] 1. ._.3 > @ . . & . . . . . . . . . . ",
". . . . . . . . . . % . $ ; 4 3 3 : 2.: :.8 > r r j ] G q 3 /.A A /.3 q G ] j r r > 8 :.: 2.: 3 3 4 ; $ . % . . . . . . . . . . ",
". . . . . . . . . + - 3.+ 4.< : +.: Y ] e : +._ > : > 3 m 3 < 3 3 < 3 m 3 > : > _ +.: e ] Y : +.: < 4.+ 3.- + . . . . . . . . . ",
". . . . . . . . . 5.) . @ + 6.6.Y j 4 B r e 7.: j j *.p 3 > : 3 3 : > 3 p *.j j : 7.e r B 4 j Y 6.6.+ @ . ) 5.. . . . . . . . . ",
". . . . . . . . - + . = . & . # 8.8 t T r : &.: : 8 : ! > : _ 3 3 _ : > ! : 8 : : &.: r T t 8 8.# . & . = . + - . . . . . . . . ",
". . . . . . . . + + - . & . + . !.: G z 8 r v j 4 : 1.: 8 4 : } } : 4 8 : 1.: 4 j v r 8 z G : !.. + . & . - + + . . . . . . . . ",
". . . . . . . . . . - . - . + 9.: Y 7 < : r : : : 8 8 : 4 +.: 4 4 : +.4 : 8 8 : : : r : < 7 Y : 9.+ . - . - . . . . . . . . . . ",
". . . . . . . . . . . . . @ . 0.] 4 2.] 8 : 8 : ] : : : : < : : : : < : : : : ] : 8 : 8 ] 2.4 ] 0.. @ . . . . . . . . . . . . . ",
". . . . . . . . . . . . . . . . 9.9.> _ : : : : : r -.: : : j : : j : : : -.r : : ] : : > 6.a.9.. . . . . . . . . . . . . . . . ",
". . . . . . . . . . . . . . . . = . b.9.: : < 4 ,.3 r e e 7 : : : : 7 e e r 3 ,.: 4 : : 9.c.. . . . . . . . . . . . . . . . . . ",
". . . . . . . . . . . . . . . . . . b.d.e : 9.: 4 : 8 : 4 > : < < : > 4 : 8 : 4 8 9.: 5 9.b.@ # . . . . . . . . . . . . . . . . ",
". . . . . . . . . . . . . . . . @ e.f.g.6.6.h.4.] 4 :.i.a.j.e =.=.e j.a.i.:.4 ] k.h.6.l.g.b.e.= . . . . . . . . . . . . . . . . ",
". . . . . . . . . . . . . . . . . m.n.o.p.h.h.q.: e r.s.t.0.u.: : u.0.t.s.r.e : v.h.h.w.x.b.m.- . . . . . . . . . . . . . . . . ",
". . . . . . . . . . . . . . . . . e.b.g.y.z.0.A.9.v.B.C.D.E.a.4 4 a.E.D.C.B.v.9.A.F.G.z.g.b.H.= . . . . . . . . . . . . . . . . ",
". . . . . . . . . . . . . . . . . b.b.o.h.6.I.I.I.J.E.K.E.L.M.a.a.M.L.E.K.E.J.I.I.N.9.h.o.b.c.# . . . . . . . . . . . . . . . . ",
". . . . . . . . . . . . . . . . . b.O.o.h.9.P.I.I.I.E.Q.R.E.B.S.S.B.E.R.Q.E.I.I.T.I.a.h.o.b.b.s . . . . . . . . . . . . . . . . ",
". . . . . . . . . . . . . . . . + U.b.V.o.W.9.9.9.I.X.Y.L.D.S.S.S.S.D.L.Y.X.I.9.9.9.W.o.V.b.c.+ . . . . . . . . . . . . . . . . ",
". . . . . . . . . . . . . . . . . . Z.e.o.w.h.h.h.9.`. +S.S.S.I.I.S.S.S. +`.9.h.h.W.w.g.e.Z.. . . . . . . . . . . . . . . . . . ",
". . . . . . . . . . . . . . . . . . e.b.o.o..+W..+4. +S.++0.h.w.w.h.0.@+S. +4..+h..+o.o.b.e.. . . . . . . . . . . . . . . . . . ",
". . . . . . . . . . . . . . . . . . = c.#+$+o.%+&+*+0.=+-+.+W.h.h.W..+-+=+0.*+&+%+o.$+#+c.= . . . . . . . . . . . . . . . . . . ",
". . . . . . . . . . . . . . . . + @ . b.n.f.o.;+>+h.W.,+w.'+&+)+)+&+'+w.,+G.h.>+;+o.f.n.b.. @ + . . . . . . . . . . . . . . . . ",
". . . . . . . . . . . . . . . . . + = . m.!+m.~+{+x.o.]+~+x.{+o.o.{+x.~+]+o.x.{+~+m.^+m.. = + . . . . . . . . . . . . . . . . . ",
". . . . . . . . . . . . . . . . . # @ . . /+b.m.b.o.o.g.o.(+x.V.V.x.$+o.g.o.o.b.b.b./+# . @ # . . . . . . . . . . . . . . . . . ",
". . . . . . . . . . . . . . . . . @ + @ . . b.b./+b.f._+b.n.b.b.b.b.n.b._+f.b./+b.b.. . @ + @ . . . . . . . . . . . . . . . . . ",
". . . . . . . . . . . . . . . . . . . . . . . . . m.e.b.b.b.b.b.b.b.b.b.b.e.m.. . . . . . . . . . . . . . . . . . . . . . . . . ",
". . . . . . . . . . . . . . . . . . . . . . . . = - . . = . . . . . . = . . - = . . . . . . . . . . . . . . . . . . . . . . . . ",
". . . . . . . . . . . . . . . . . . . . . . . . :+@ . @ . . . . . . . . @ . @ :+. . . . . . . . . . . . . . . . . . . . . . . . ",
". . . . . . . . . . . . . . . . . . . . . . . . . 5.. - = = - - - - = = - . 5.. . . . . . . . . . . . . . . . . . . . . . . . . ",
". . . . . . . . . . . . . . . . . . . . . . . . . # # :+{ # . # # . # { <+# # . . . . . . . . . . . . . . . . . . . . . . . . . ",
". . . . . . . . . . . . . . . . . . . . . . . . . . . . . - . . . . - . . . . . . . . . . . . . . . . . . . . . . . . . . . . . ",
". . . . . . . . . . . . . . . . . . . . . . . . . . . . # @ . . . . @ # . . . . . . . . . . . . . . . . . . . . . . . . . . . . ",
". . . . . . . . . . . . . . . . . . . . . . . . . @ . . . . . . # . . . # . @ . . . . . . . . . . . . . . . . . . . . . . . . . "};
