/* XPM */
static char * oak_xpm[] = {
"64 64 189 2",
"  	c None",
". 	c #70C8A0",
"+ 	c #70C8A2",
"@ 	c #71C99F",
"# 	c #6EC8A2",
"$ 	c #6FC79F",
"% 	c #70C89E",
"& 	c #6FC7A1",
"* 	c #71C89E",
"= 	c #6EC9A0",
"- 	c #71C9A1",
"; 	c #71C7A0",
"> 	c #6FC9A3",
", 	c #70C79D",
"' 	c #71C9A3",
") 	c #000000",
"! 	c #000201",
"~ 	c #000002",
"{ 	c #000100",
"] 	c #010101",
"^ 	c #010000",
"/ 	c #6EC99E",
"( 	c #71C7A2",
"_ 	c #010103",
": 	c #72C8A1",
"< 	c #6FCAA1",
"[ 	c #B0B0A8",
"} 	c #AFAFA7",
"| 	c #B2AFA8",
"1 	c #707068",
"2 	c #706F6A",
"3 	c #70C99D",
"4 	c #B1B1A9",
"5 	c #6F6F67",
"6 	c #70C6A1",
"7 	c #707066",
"8 	c #B0B0A6",
"9 	c #B2B2A8",
"0 	c #AFAFA5",
"a 	c #AEAFA7",
"b 	c #AEB0A5",
"c 	c #000004",
"d 	c #020003",
"e 	c #B0AFAA",
"f 	c #AFAEA9",
"g 	c #B3B0A9",
"h 	c #AFB0A8",
"i 	c #B3B0AB",
"j 	c #010005",
"k 	c #020001",
"l 	c #AFB1A6",
"m 	c #B2AFA6",
"n 	c #AFB0AA",
"o 	c #B1B0AB",
"p 	c #8F9080",
"q 	c #909181",
"r 	c #B2AFAA",
"s 	c #B1B1A7",
"t 	c #8E8F7F",
"u 	c #8F9082",
"v 	c #726F68",
"w 	c #8F907E",
"x 	c #929083",
"y 	c #B1AEA7",
"z 	c #F8D0B7",
"A 	c #F9CFB7",
"B 	c #716E65",
"C 	c #716E67",
"D 	c #8E9180",
"E 	c #918F80",
"F 	c #707169",
"G 	c #6F7068",
"H 	c #B0B1A9",
"I 	c #F9D1B8",
"J 	c #70716B",
"K 	c #717169",
"L 	c #F7CFB6",
"M 	c #6E6E64",
"N 	c #90917F",
"O 	c #8D907F",
"P 	c #F8CFB9",
"Q 	c #F8D0B6",
"R 	c #614142",
"S 	c #624041",
"T 	c #D7A079",
"U 	c #D99F79",
"V 	c #604041",
"W 	c #604242",
"X 	c #F6D1B7",
"Y 	c #D79F7A",
"Z 	c #D7A077",
"` 	c #010100",
" .	c #604043",
"..	c #D69F78",
"+.	c #614144",
"@.	c #604244",
"#.	c #F5CFB8",
"$.	c #5F3F42",
"%.	c #F5D0B6",
"&.	c #D6A179",
"*.	c #D8A17A",
"=.	c #D8A178",
"-.	c #A07950",
";.	c #E9E8F8",
">.	c #A0764E",
",.	c #9F784F",
"'.	c #E9E8F6",
").	c #70C69F",
"!.	c #D5A078",
"~.	c #F9CFB9",
"{.	c #D59F79",
"].	c #6DC9A0",
"^.	c #5F4141",
"/.	c #D7A27A",
"(.	c #F8CEB6",
"_.	c #F9CFB6",
":.	c #D99F7A",
"<.	c #020100",
"[.	c #60413F",
"}.	c #5E4040",
"|.	c #F6D0B9",
"1.	c #FBCEB7",
"2.	c #D89E79",
"3.	c #6FC79D",
"4.	c #CFC6D9",
"5.	c #CEC7D7",
"6.	c #D0C7D8",
"7.	c #D2C7D7",
"8.	c #634142",
"9.	c #CFC6D7",
"0.	c #D3C8D9",
"a.	c #D1C8D9",
"b.	c #A0794E",
"c.	c #A1774F",
"d.	c #9691B1",
"e.	c #9790AF",
"f.	c #D0C8D7",
"g.	c #9790B1",
"h.	c #9690B2",
"i.	c #623F43",
"j.	c #9790B2",
"k.	c #EAE9F9",
"l.	c #EBE8F9",
"m.	c #E8E5F8",
"n.	c #E8E7F9",
"o.	c #E7E9F8",
"p.	c #8F5F87",
"q.	c #90608A",
"r.	c #906088",
"s.	c #E8EAF9",
"t.	c #998FB1",
"u.	c #EAE8F6",
"v.	c #EAE7F8",
"w.	c #916189",
"x.	c #906086",
"y.	c #D0C7DA",
"z.	c #726F66",
"A.	c #737069",
"B.	c #915E87",
"C.	c #D2C7D8",
"D.	c #6F6F65",
"E.	c #EBE8FB",
"F.	c #E6E8F7",
"G.	c #8F6188",
"H.	c #906289",
"I.	c #9891B3",
"J.	c #EAE9FB",
"K.	c #B888B8",
"L.	c #B987B8",
"M.	c #998FB2",
"N.	c #B789B8",
"O.	c #B789BA",
"P.	c #B888BA",
"Q.	c #925F88",
"R.	c #80583F",
"S.	c #815842",
"T.	c #010002",
"U.	c #B989B9",
"V.	c #815940",
"W.	c #7F573E",
"X.	c #B987BA",
"Y.	c #B787B7",
"Z.	c #7E5841",
"`.	c #7E593F",
" +	c #7F5A40",
".+	c #7F573D",
"++	c #825840",
"@+	c #7F5640",
"#+	c #72C8A3",
". . . . . . . . . . . . . . . . . . + @ # . . $ . $ % & * . . = . . . . . . . . . . . . . . . . . . . . . . . . . . . . . . . . ",
". . . . . . . . . . . . . . . . . . . - ; . . . . . - $ = . . . . . . . . . . . . . . . . . . . . . . . . . . . . . . . . . . . ",
". . . . . . . . . . . . . . . . . . . . = $ . . . . % % ; - . . . . . . . . . . . . . . . . . . . . . . . . . . . . . . . . . . ",
". . . . . . . . . . . . . . . . . > . . % = . $ . , . . . ; . ' . . . . . . . . . . . . . . . . . . . . . . . . . . . . . . . . ",
". . . . . . . . . . . . . . . . . . . ; - . ' . . . . = ; . % % . . . . . . . . . . . . . . . . . . . . . . . . . . . . . . . . ",
". . . . . . . . . . . . . . . . . . . . + % & . . . . . % . - . . . . . . . . . . . . . . . . . . . . . . . . . . . . . . . . . ",
". . . . . . . . . . . . . . . . . # . . . + - + + . . - + . . . . . . . . . . . . . . . . . . . . . . . . . . . . . . . . . . . ",
". . . . . . . . . . . . . . . . . + & . = ) ! ~ ~ { ] ) ^ + ; . . . . . . . . . . . . . . . . . . . . . . . . . . . . . . . . . ",
". . . . . . . . . % + $ . . = % . # . / ( ) ^ ^ ) ) ) _ ) # + . . ; + + . . - . . . = . . . $ : . . . . . . . . . . . . . . . . ",
". . . . . . . . . . . < - . . + % $ . ) ] [ [ [ } } | 1 2 ) ) ) ] ] ) ] ) . $ . . $ $ . ( - - = . . . . . . . . . . . . . . . . ",
". . . . . . . . . $ ; # - . . $ 3 - ; ) ) 4 | [ [ [ | 2 5 ~ ^ ) ~ ) ) ] ) ' : : + - - 6 % ; $ . . . . . . . . . . . . . . . . . ",
". . . . . . . . @ : . . . . $ . . ) ) ) ) 7 7 8 8 8 [ 8 9 0 [ 8 a } b 8 0 ) ] ] ] ] ] % + / % < . . . . . . . . . . . . . . . . ",
". . . . . . . . = $ . # . < . < . _ c d _ 1 1 [ 4 | e | f g [ e h 4 i [ i _ _ d d j k # / ' + . . . . . . . . . . . . . . . . . ",
". . . . . . . . @ . = . . . . ) ) l 8 [ 8 | 8 | 8 [ m 4 g } 8 [ | 8 [ | 4 e b a a 0 a ) ~ . . - . . . . . . . . . . . . . . . . ",
". . . . . . . . . . . + . . . { ) | [ [ [ [ 4 e [ [ e [ n 8 [ [ [ e 4 [ [ [ [ [ } 4 e ] ) : . - . . . . . . . . . . . . . . . . ",
". . . . . . . . . . . . $ . . ) ) 1 1 [ 8 | [ 4 [ e h h [ [ [ [ o g h [ } | [ } e [ e p q ) ) . . . . . . . . . . . . . . . . . ",
". . . . . . . . . . . . $ . . ) ) 1 1 r s [ [ [ | [ } [ [ 4 [ [ [ [ [ | [ [ [ | [ [ [ p t ) ] . . . . . . . . . . . . . . . . . ",
". . . . . . . . . . . + . . . { ) p p 1 5 4 | [ [ 8 [ [ 4 } e [ 8 [ [ [ 8 [ [ [ h p p q u ) ) $ . . . . . . . . . . . . . . . . ",
". . . . . . . . @ . = . . . . ) ) t p v 2 | [ [ e [ [ [ [ [ [ [ 4 [ [ 4 [ e [ [ o u p u w ] ) . . . . . . . . . . . . . . . . . ",
". . . . . . . . = $ . # . < . < . _ ) x p [ 8 v 1 5 5 y [ z A y y [ [ 1 B 1 5 1 C w D E q ) ) - . . . . . . . . . . . . . . . . ",
". . . . . . . . @ : . . . . $ . ; ] ] t p } [ F G F 1 H e I z 4 4 [ 4 5 J K K 1 K u E D t ] ) . . . . . . . . . . . . . . . . . ",
". . . . . . . . . $ ; # - . . $ . ) ) E p 1 1 L L z z L z [ [ L z } } z L z z z z M 7 p N ~ ) . . . . . . . . . . . . . . . . . ",
". . . . . . . . . . . < - . . + - ) ~ O D 5 G z z z L z z [ [ P z 8 s Q L z z z z 1 1 p u ) ) . . . . . . . . . . . . . . . . . ",
". . . . . . . . . % + $ . . = % $ R S ) ] T T z z z z I L z z z A z L z z z L z z T U ] ) V V . . . . . . . . . . . . . . . . . ",
". . . . . . . . . . . % . . . - . V W ) ) T T z z z z z z z L z z L X z z z z z z T T ) ) W V . - . . . % . . . . . . . . . . . ",
". . . . . . . . . . . ; ; . . ) ] T T ) ^ T T S R z z z I Q I I I I Q I z z z R S T Y ^ ) Z T ] ) . . ; ; . . . . . . . . . . . ",
". . . . . . . . . . . - . . . ` ) T U ! ! T T  .S L z P L P L z z L P L P z L S  .T T ! ! U T ) ` . . . - . . . . . . . . . . . ",
". . . . . . . . - . . = : $ . ) ~ T ..R V K v +.R V @.A #.Z T z z T Z #.A @.V R +.v K V R ..T ~ ) . $ : = . . - . . . . . . . . ",
". . . . . . . . . . . 6 < . . ) ) T U V $.v 2  .S V S %.z &.*.z z *.&.z %.S V S  .2 v $.V U T ) ) . . < 6 . . . . . . . . . . . ",
". . . . . . . . . - $ # . = . . . ) ~ V V &.=.-.-.;.;.) ~ T T A z T T ~ ) ;.;.-.-.=.&.V V ) ) . . . = . # $ - . . . . . . . . . ",
". . . . . . . . ; . . . + . . - % ) ~ R S T ..>.,.;.'.~ ) U T z z T U ) ~ '.;.,.>...T S R ~ ) % - . . + . . . ; . . . . . . . . ",
". . . . . . . . ).. ; . ; $ . . . . . V V !.T U T z ~.Q P z z z z z z P Q ~.z T U T {.V V . . . . . $ ; . ; . ).. . . . . . . . ",
". . . . . . . . ; $ . . . . - $ = - - V V T T T Y z z z z X z z z z X z z z z Y T T T V V - . = $ - . = . . $ ; . . . . . . . . ",
". . . . . . . . $ . . . . = . . @ - - $ ].R V T *.z X A L z A z z z z %.A X z *.T V R ].$ - - @ . . = . . . . $ . . . . . . . . ",
". . . . . . . . . . $ . . . - . 6 $ + . . V ^././.(.%.Q z Q z X X z Q z _.%.L /.&.^.V . . + $ ( . - . . . $ . . . . . . . . . . ",
". . . . . . . . . . . # - . . . . ; . c ] $.S U :.=.=.P X z Q T T Q A X P =.=.:.U S $.] c . ; . . . . - + . . . . . . . . . . . ",
". . . . . . . . . . . - . . + . . = $ <.) [.}.Z &...Y z A X |.T T |.X 1.X Y 2.&.Z }.[.) <.$ = . . + . . - . . = . . . . . . . . ",
". . . . . . . . . = . . . . . 3.. ) ] 4.5.6.7.V R V 8.,.-.U T T T T T -.,.8.V 8.V 7.9.5.4.] ) . 3.. . . . . = . . . . . . . . . ",
". . . . . . . . - . - . + . . ' . ) ] 0.6.6.a.[.V V $.b.c.T T T T U T ,.b.$.V V [.6.6.6.0.] ) - ' . . + . - . - . . . . . . . . ",
". . . . . . . . $ . . . . $ - ) ) d.e.6.f.6.6.d.g.;.;.g.h.V ^.i.i.^.V h.g.;.;.g.d.6.6.f.6.e.d.) ) - $ . . . . $ . . . . . . . . ",
". . . . . . . . . . = ' . - . ~ ) g.g.6.4.6.6.j.g.k.l.g.g.$.[.V V [.$.g.g.l.k.g.j.6.6.4.6.g.g.) ~ . - . - = . . . . . . . . . . ",
". . . . . . . . . . . ).$ . . ) ^ ;.;.k.m.1 1 j.e.;.n.o.k.p.q.r.r.q.p.k.o.n.;.e.j.1 1 m.k.;.;.^ ) . . $ ).. . . . . . . . . . . ",
". . . . . . . . . . = * $ $ . ] ) ;.l.s.o.1 F g.t.'.u.v.;.w.r.x.x.r.w.;.v.u.'.t.g.F 1 o.s.l.;.) ] . $ $ * = . . . . . . . . . . ",
". . . . . . . . $ $ + + . . - ) ) a.y.7 1 z.A.o.;.g.g.k.l.B.p.B.B.p.B.l.k.g.g.;.o.A.z.1 7 y.a.) ) - . . + + $ $ . . . . . . . . ",
". . . . . . . . ; . . ; = ; . ^ ^ 6.C.K v 1 D.v.E.g.e.F.o.G.G.H.H.G.G.o.F.e.g.E.v.D.1 v K C.6.^ ^ . ( = ; . . ; . . . . . . . . ",
". . . . . . . . . . ' . ; . . + . k ) 1 5 e.e.;.;.I.t.k.J.K.K.L.L.K.K.J.k.t.I.;.;.e.e.5 1 ) k . + . . ; . ' . . . . . . . . . . ",
". . . . . . . . . . . . . . . ; . ) ] 1 v M.t.;.k.g.g.;.;.N.O.P.P.O.N.;.;.g.g.k.;.t.M.v 1 ] ) . ; . . . . . . . . . . . . . . . ",
". . . . . . . . . . . + - . . . . $ . ] ) ^ ) ;.o.;.;.Q.r.K.L.K.K.L.K.r.Q.;.;.o.;.) ^ ) ] . $ . . . . - + . . . . . . . . . . . ",
". . . . . . . . . . . . . . . . + . . ] ) ) ) ;.;.;.;.r.r.K.K.K.K.K.K.r.r.;.;.;.;.) ) ) ] . . + . . . . . . . . . . . . . . . . ",
". . . . . . . . . . . . . . . . $ . = ) { R.S.T.] ) ) N.K.U.P.P.P.P.U.K.N.) ) ] T.V.R.{ ) = . $ . . . . . . . . . . . . . . . . ",
". . . . . . . . . . . . . . . . ; + . ~ ) R.W.^ ) k ) X.N.K.Y.K.K.Y.K.N.X.) k ) ^ W.R.) ) . + ; . . . . . . . . . . . . . . . . ",
". . . . . . . . . . . . . . . . . - = . = R V Z.`.`.`. +.+) ) ) ) ) ) .+ +`.`.`.Z.V R = % = - . . . . . . . . . . . . . . . . . ",
". . . . . . . . . . . . . . . . . . . . ; V [.++++R.++@+R.~ ] ] ] ] ~ R.@+++R.++++[.V ; . . . . . . . . . . . . . . . . . . . . ",
". . . . . . . . . . . . . . . . . . . . . ) ] g.g.d.I.) ) - $ . . $ - ) ) I.d.g.g.] ) . . . . . . . . . . . . . . . . . . . . . ",
". . . . . . . . . . . . . . . . . = $ < : ] ) j.g.t.g._ ] . . . . . . ] _ g.t.g.j.) ] #+< $ = . . . . . . . . . . . . . . . . . ",
". . . . . . . . . . . . . . . . ; . % . ' % . ) ~ ) ) . + . + . . + . + . ) ) ~ ) % % ' . % . ; . . . . . . . . . . . . . . . . ",
". . . . . . . . . . . . . . . . $ . . . . $ - ) ~ ! ) = . & + . . + & . = ) ! ~ ) - $ . . . . $ . . . . . . . . . . . . . . . . ",
". . . . . . . . . . . . . . . . - . - . + . . ' + - + . . . # . . # . . . + - + ' . . + . - . - . . . . . . . . . . . . . . . . ",
". . . . . . . . . . . . . . . . . = . . . . . 3.. & % + . . . . . . . . + % & . 3.. . . . . = . . . . . . . . . . . . . . . . . ",
". . . . . . . . . . . . . . . . . . . - . . + . . ' . - ; . . . . . . ; - . ' . . + . . - . . = . . . . . . . . . . . . . . . . ",
". . . . . . . . . . . . . . . . . . . # - . . . $ . = % . . > . . > . . % = . $ . . . - + . . . . . . . . . . . . . . . . . . . ",
". . . . . . . . . . . . . . . . . . $ . . . - . . . $ = . . . . . . . . = $ . . . - . . . $ . . . . . . . . . . . . . . . . . . ",
". . . . . . . . . . . . . . . . $ . . . . = . . . . . ; - . . . . . . - ; . . . . . = . . . . $ . . . . . . . . . . . . . . . . ",
". . . . . . . . . . . . . . . . ; $ . . . . - $ $ . . # @ + . . . . + @ # . . $ $ - . = . . $ ; . . . . . . . . . . . . . . . . "};
