/* XPM */
static char * trf_sx_xpm[] = {
"64 64 164 2",
"  	c None",
". 	c #70C8A0",
"+ 	c #70C8A2",
"@ 	c #71C9A1",
"# 	c #70C89E",
"$ 	c #6DC89F",
"% 	c #6FC7A1",
"& 	c #71C7A0",
"* 	c #6FC79D",
"= 	c #6FC79F",
"- 	c #6EC9A0",
"; 	c #71C99F",
"> 	c #6FCA9F",
", 	c #6EC8A2",
"' 	c #2F2F37",
") 	c #303038",
"! 	c #30303A",
"~ 	c #2F2F39",
"{ 	c #2E3138",
"] 	c #72C8A3",
"^ 	c #484850",
"/ 	c #606068",
"( 	c #5F5F67",
"_ 	c #5E6168",
": 	c #616068",
"< 	c #48474F",
"[ 	c #6DC89D",
"} 	c #72CAA2",
"| 	c #313139",
"1 	c #47474F",
"2 	c #616169",
"3 	c #313038",
"4 	c #000000",
"5 	c #010101",
"6 	c #47484D",
"7 	c #5F5F69",
"8 	c #494951",
"9 	c #606166",
"0 	c #5F6065",
"a 	c #6FCAA1",
"b 	c #010103",
"c 	c #484852",
"d 	c #62606B",
"e 	c #60606A",
"f 	c #5F6269",
"g 	c #464950",
"h 	c #5E616A",
"i 	c #61616B",
"j 	c #000002",
"k 	c #71C9A3",
"l 	c #70C99D",
"m 	c #605F67",
"n 	c #313036",
"o 	c #010000",
"p 	c #303136",
"q 	c #000100",
"r 	c #2E3136",
"s 	c #31313B",
"t 	c #6EC99E",
"u 	c #302F37",
"v 	c #615F6A",
"w 	c #2F3035",
"x 	c #62626A",
"y 	c #494850",
"z 	c #71C89E",
"A 	c #312F3A",
"B 	c #2D3037",
"C 	c #5E6166",
"D 	c #48494E",
"E 	c #313237",
"F 	c #5C5F66",
"G 	c #474A53",
"H 	c #6FC9A3",
"I 	c #000201",
"J 	c #784041",
"K 	c #9088B9",
"L 	c #9088BB",
"M 	c #602150",
"N 	c #7A3F41",
"O 	c #784043",
"P 	c #F8D0B7",
"Q 	c #E9E8F8",
"R 	c #EAE9F9",
"S 	c #D89970",
"T 	c #D89872",
"U 	c #B34199",
"V 	c #B24098",
"W 	c #B14098",
"X 	c #B24199",
"Y 	c #B24298",
"Z 	c #B1409A",
"` 	c #60214E",
" .	c #622050",
"..	c #7A403F",
"+.	c #F9CFB7",
"@.	c #E8EAF9",
"#.	c #E6E8F7",
"$.	c #D8996E",
"%.	c #773F3E",
"&.	c #77413F",
"*.	c #B03F99",
"=.	c #B14197",
"-.	c #5F2150",
";.	c #F7D2B8",
">.	c #F9D1B8",
",.	c #F6D1B7",
"'.	c #FAD0BA",
").	c #F8CFB9",
"!.	c #7A3F43",
"~.	c #913A81",
"{.	c #903980",
"].	c #B23F9A",
"^.	c #DA9A6E",
"/.	c #F8D0B6",
"(.	c #F7CFB6",
"_.	c #F9CFB9",
":.	c #F8CEB6",
"<.	c #F7CFB5",
"[.	c #8F387F",
"}.	c #B13E99",
"|.	c #90397E",
"1.	c #8E387F",
"2.	c #B03F97",
"3.	c #72C8A1",
"4.	c #70C69F",
"5.	c #754143",
"6.	c #FAD0B8",
"7.	c #D6986F",
"8.	c #D99870",
"9.	c #5F204F",
"0.	c #903882",
"a.	c #8F3980",
"b.	c #B2419B",
"c.	c #AF4198",
"d.	c #F9D1B7",
"e.	c #D7986F",
"f.	c #6EC8A4",
"g.	c #773F40",
"h.	c #5F2152",
"i.	c #78403F",
"j.	c #612251",
"k.	c #611F4F",
"l.	c #774141",
"m.	c #D8580F",
"n.	c #494953",
"o.	c #D85811",
"p.	c #474751",
"q.	c #323137",
"r.	c #9189BA",
"s.	c #9187B9",
"t.	c #C0B8CF",
"u.	c #C0B8D0",
"v.	c #C1B7D0",
"w.	c #8F87B8",
"x.	c #C0B7D2",
"y.	c #BFB7CF",
"z.	c #8F89B9",
"A.	c #000200",
"B.	c #474A51",
"C.	c #D79970",
"D.	c #DB9772",
"E.	c #9088B7",
"F.	c #8F87B6",
"G.	c #71C7A2",
". . . . . . . . . . . . . . . . . . . . . . . . + + + . @ @ @ . . . # . # . . # . . . . . . . . . . . . . . . . . . . . . . . . ",
". . . . . . . . . . . . . . . . . . . . . . . . . . . . . . . . # . . $ . % . & . . . . . . . . . . . . . . . . . . . . . . . . ",
". . . . . . . . . . . . . . . . . . . . . . . . + . . . + . . . + . * . = . . . . . . . . . . . . . . . . . . . . . . . . . . . ",
". . . . . . . . . . . . . . . . . . . . . . . . # . & . # - . . @ ; ; # > * - . . . . . . . . . . . . . . . . . . . . . . . . . ",
". . . . . . . . . . . . . . . . . . . . . . . . . . + & , . . + . + + . + + & . . . . . . . . . . . . . . . . . . . . . . . . . ",
". . . . . . . . . . . . . . . . . . . . . . . . . . . . . . . . & & . & - . . . . . . . . . . . . . . . . . . . . . . . . . . . ",
". . . . . . . . . . . . . . . . . . . . . . . . . . . . . = . . - . + . . - . = . . . . . . . . . . . . . . . . . . . . . . . . ",
". . . . . . . . . . . . . . . . . . . . . . . . . . . . ' ) ) ) ) ! ) ! ) ~ @ + . . . . . . . . . . . . . . . . . . . . . . . . ",
". . . . . . . . . . . . . . . . . . - . . . = . . . = . ) ) ) ) ) ! ) ) { ) $ . . = @ . . . + . . . . . . . . . . . . . . . . . ",
". . . . . . . . . . . . . . . . . - . = ] . . - ) ) ^ ^ / ( / / _ / : ( : / ^ < ! ) . [ @ . @ . . . . . . . . . . . . . . . . . ",
". . . . . . . . . . . . . . . . . . # . # = @ } | ) 1 ^ / 2 2 / / 2 _ : _ / ^ ^ ) 3 . @ . . . . . . . . . . . . . . . . . . . . ",
". . . . . . . . . . . . . . . . . . + & % . 4 5 6 ^ / : _ ( / 7 ( ( ( / ^ 8 9 / 9 0 4 4 . . . . . . . . . . . . . . . . . . . . ",
". . . . . . . . . . . . . . . . . . . + a - b b 8 c d e 2 f / e / : 2 2 g ^ h e e i 4 j . k . . . . . . . . . . . . . . . . . . ",
". . . . . . . . . . . . . . . . . . . l 4 4 ) ) / / / 9 / ( / / / _ / / 1 ^ ( / _ 0 / m 5 4 # * . . . . . . . . . . . . . . . . ",
". . . . . . . . . . . . . . . . = . . + 4 4 ) ) 2 / / / / / / / / / / / 1 ^ / : / / / 2 4 4 + k . . . . . . . . . . . . . . . . ",
". . . . . . . . . . . . . . . . . . - . 4 4 ^ ^ / / / / / / / / : / / / ^ ^ / 9 / 2 / / n ) 4 4 . . . . . . . . . . . . . . . . ",
". . . . . . . . # @ . . . . . @ . - . . 4 o ^ ^ / / / / / / / / / / / / ^ ^ ( / e / / / | p j q . @ + . . @ . . . . . . . . . . ",
". . . . . . . . . . - . . . . . $ . p ) ) ) / / / / / / / / / / / / ^ ^ / / / / / / / / ) ) ) ) . . @ * . . # . . . . . . . . . ",
". . . . . . . . . . . . . . # # . . ) ! ) p / / / / / / / / ( / / / ^ ^ / / / / / / / / ) ) ) ) $ . . . & . . . . . . . . . . . ",
". . . . . . . . . + . , # . @ . { r ( 9 ! ! ^ 1 / / / / / / / / / ( ^ ^ / / 2 / 9 / 2 / ) ) ! ! 4 4 . . . . . . . . . . . . . . ",
". . . . . . . . @ . . . . . ; . ) s 2 : r p ^ c / / ( / / / / / / / ^ ^ / / / / 9 2 / / ) | ' ) j 4 # . . . . t . . . . . . . . ",
". . . . . . . . . . . . = . u 3 / / / / ) ) p ) ^ ^ / / / / / / / / ^ ^ / / / / e / 8 ^ ) ) ! ) 4 4 . . . - . + . . . . . . . . ",
". . . . . . . . . . , . . & ! ) v / : f ) p ) ) ^ ^ / / / / / / / / ^ ^ / / / / 9 / 1 ^ ) | w ) 4 4 . & . . . . . . . . . . . . ",
". . . . . . . . - . . . . . 5 j / / f / | ) ) { ) ) ^ ^ ^ ^ 2 / / / ^ ^ / / / / ^ 1 ) ) ) ) ) ) 4 4 . # - . . . . . . . . . . . ",
". . . . . . . . . . . . . # 4 4 / / _ / ! ) ) ) ) ) ^ ^ ^ ^ / / / / ^ 8 / / / / ^ c ) ) ) ! ) ) 4 4 . # - . . . . . . . . . . . ",
". . . . . . . . = . . . . & 4 4 e / : x y ^ ) w ! ) ) | w ) ) ) | ) ) ) ) ' ) ) n ) ' p w ) n ) 4 4 . & . . . . . . . . . . . . ",
". . . . . . . . . z . . . k 4 4 / ( / 9 c ^ A A ! ! ! ) ) ) ) ! ) ) ) ) ' ) ) ) { ) ! B | ' ! ! 4 4 . . . - . + . . . . . . . . ",
". . . . . . . . . = . . . . @ . b b / 2 _ C ^ D B { ' ) w ) E | r r ) | ) | r r n p ) E p { p p j 4 # . . . . t . . . . . . . . ",
". . . . . . . . . . . . . . & . 5 4 ( F v 7 G ^ ! ) ! ) ! | ! ! ! ! ) ) ' ) ! ! ) ) ) | ) s A ! 4 4 . . . . . . . . . . . . . . ",
". . . . . . . . t . & @ % . * . + & 5 5 4 4 4 4 4 4 ) ! p | ) ) ) ) ) ) ) | | ) | ) | ) ) ) 4 4 $ . . . & . . . . . . . . . . . ",
". . . . . . . . . . @ . . - . H - $ 4 4 j 4 b 5 q I ) ) ) ) ) p ) ) ) ) ) ) ) ) ) ) ) ) { ) 4 4 . . @ * . . # . . . . . . . . . ",
". . . . . . . . . . . . . . . . . . . . J J / 2 / e K L 4 5 4 5 4 5 ) ) ) ) 4 5 4 4 4 o 4 o M M . @ + . . @ . . . . . . . . . . ",
". . . . . . . . . . . . . . . . @ . . = N J / 2 / : K K 4 4 4 4 4 4 ) ) ' ) 4 4 4 5 j 4 4 4 M M . . . . . . . . . . . . . . . . ",
". . . . . . . . . . . . . . . . . . . & O N P P 4 4 Q R S T J O U V W V W W X X W W Y Z `  .M M . . . . . . . . . . . . . . . . ",
". . . . . . . . . . . . . . . . . + # $ ..J +.P 4 4 @.#.S $.%.&.*.W W Z =.W W W W X Z W M -.` ` . . . . . . . . . . . . . . . . ",
". . . . . . . . . . . . . . . . . . . = T T ;.>.,.>.P '.P ).O !.~.{.Z W ~.~.X ].W W {.{.M -.# . . . . . . . . . . . . . . . . . ",
". . . . . . . . . . . . . . . . . = @ - ^.$./.(._.:.P <.P /.%.%.[.{.V }.|.1.2.2.W W ~.{. .M @ 3.. . . . . . . . . . . . . . . . ",
". . . . . . . . . . . . . . . . . . 4.@ % - 5.J P P ).6.7.8.S S M 9.0.a.b.U c.W W X 4 j . + . . . . . . . . . . . . . . . . . . ",
". . . . . . . . . . . . . . . . = . . = a . %.J d.P +.(.8.S e.e.M M {.{.W 2.W W Z W 4 o - . . . . . . . . . . . . . . . . . . . ",
". . . . . . . . . . . . . . . . - . - . f.. @ . g.J J J J g.) )  .M b.W W W 9.h.4 4 ; . - + . . . . . . . . . . . . . . . . . . ",
". . . . . . . . . . . . . . . . . . . . . . . . J i.J J J !.) | M j.W W W W M M 4 5 . . . . . . . . . . . . . . . . . . . . . . ",
". . . . . . . . . . . . . . . . . . . . . . . . @ a ) ! ^ c / / E | M h.4 4 I 4 . . . . . . . . . . . . . . . . . . . . . . . . ",
". . . . . . . . . . . . . . . . . . . . . . . . . . ) ) ^ ^ / / ) ) 9.k.q 4 4 4 . . . . . . . . . . . . . . . . . . . . . . . . ",
". . . . . . . . . . . . . . . . . . . . . . . . J l.m.m.2 / ) ) n.^ / / 4 4 ! ! . . . . + . . . . . . . . . . . . . . . . . . . ",
". . . . . . . . . . . . . . . . . . . . . . . . J !.o.m._ 9 ) ) 1 p.( : j 4 q.E . . . . + . . . . . . . . . . . . . . . . . . . ",
". . . . . . . . . . . . . . . . . . . . . . . . j 4 9 / D p.) ) / : f : I 5 ~ ! . . . . . . . . . . . . . . . . . . . . . . . . ",
". . . . . . . . . . . . . . . . . . . . . . . . 4 4 / 9 ^ 6 ) ) / / / / 4 4 p ) . . . . . . . . . . . . . . . . . . . . . . . . ",
". . . . . . . . . . . . . . . . . . . . . . . . 4 4 r.s.2 / ) ) t.u.v.u.4 5 ^ c 4 5 . . . . . . . . . . . . . . . . . . . . . . ",
". . . . . . . . . . . . . . . . . . . . . . . . j 4 K w.2 ( 3 ! x.u.y.y.4 4 ^ ^ 4 4 # . . . . . . . . . . . . . . . . . . . . . ",
". . . . . . . . . . . . . . . . . . . . . . . . 4 4 ) ) ) | { ) K K r.z.4 4 g ^ 4 4 & . . . . = . . . . . . . . . . . . . . . . ",
". . . . . . . . . . . . . . . . . . . . . . . . 4 4 ! 3 ' ) 3 | w.K w.K 4 5 ^ ^ 4 4 k . . . z . . . . . . . . . . . . . . . . . ",
". . . . . . . . . . . . . . . . . . . . . . . . . . A.5 8 B.C.$.5 4 4 4 K K 4 j . @ . . . . = . . . . . . . . . . . . . . . . . ",
". . . . . . . . . . . . . . . . . . . . . . . . + 4.j j 1 1 D.D.4 4 j 4 K E.4 5 . & . . . . . . . . . . . . . . . . . . . . . . ",
". . . . . . . . . . . . . . . . . . . . . . . . # * t @ 4 4 z.K F.K K K j 4 . . . * . % @ & . t . . . . . . . . . . . . . . . . ",
". . . . . . . . . . . . . . . . . . . . . . . . @ @ = + 4 4 w.K z.K z.z.4 5 . . H . - . . @ . . . . . . . . . . . . . . . . . . ",
". . . . . . . . . . . . . . . . . . . . . . . . ; = . . . . 4 j 4 4 4 4 . . = . . . . . . . . . . . . . . . . . . . . . . . . . ",
". . . . . . . . . . . . . . . . . . . . . . . . . @ & @ . t 4 4 4 4 4 4 . . . . . . . . . . . . . . . . . . . . . . . . . . . . ",
". . . . . . . . . . . . . . . . . . . . . . . . . . - . t # + . . . . . . . + . . . . . . . . . . . . . . . . . . . . . . . . . ",
". . . . . . . . . . . . . . . . . . . . . . . . . . & - & . . & . . # . . + . . . . . . . . . . . . . . . . . . . . . . . . . . ",
". . . . . . . . . . . . . . . . . . . . . . . . . . . . @ . # @ & G.+ @ G.3.. + . . . . . . . . . . . . . . . . . . . . . . . . ",
". . . . . . . . . . . . . . . . . . . . . . . . # . . + . - z . . . . # + . . . . . . . . . . . . . . . . . . . . . . . . . . . ",
". . . . . . . . . . . . . . . . . . . . . . . . # & . . = + = . . . = . . . . . . . . . . . . . . . . . . . . . . . . . . . . . ",
". . . . . . . . . . . . . . . . . . . . . . . . . . . # @ . @ . . . . . . = . . . . . . . . . . . . . . . . . . . . . . . . . . ",
". . . . . . . . . . . . . . . . . . . . . . . . . . - . . . . + . . . . . @ . @ . . . . . . . . . . . . . . . . . . . . . . . . "};
