/* XPM */
static char * trf_sx_sx_xpm[] = {
"64 64 167 2",
"  	c None",
". 	c #70C8A0",
"+ 	c #70C8A2",
"@ 	c #71C9A1",
"# 	c #71C7A0",
"$ 	c #6EC9A0",
"% 	c #70C89E",
"& 	c #6FC79F",
"* 	c #6EC99E",
"= 	c #313038",
"- 	c #2F2F39",
"; 	c #303038",
"> 	c #302F37",
", 	c #312F3A",
"' 	c #30303A",
") 	c #2F2F37",
"! 	c #47474F",
"~ 	c #484850",
"{ 	c #606068",
"] 	c #71C7A2",
"^ 	c #6FCAA1",
"/ 	c #2E3138",
"( 	c #6ECAA1",
"_ 	c #6EC8A2",
": 	c #000000",
"< 	c #000002",
"[ 	c #5F5F67",
"} 	c #616169",
"| 	c #70C69F",
"1 	c #010101",
"2 	c #494951",
"3 	c #5F6269",
"4 	c #000201",
"5 	c #000100",
"6 	c #6FCA9F",
"7 	c #71C9A3",
"8 	c #616068",
"9 	c #6FC79D",
"0 	c #303136",
"a 	c #2F3035",
"b 	c #606166",
"c 	c #010100",
"d 	c #494752",
"e 	c #62606B",
"f 	c #302E39",
"g 	c #60606A",
"h 	c #71C99F",
"i 	c #313139",
"j 	c #31313B",
"k 	c #464950",
"l 	c #010103",
"m 	c #323139",
"n 	c #616267",
"o 	c #5E6168",
"p 	c #2D3037",
"q 	c #72C8A1",
"r 	c #5E616A",
"s 	c #615F6A",
"t 	c #625F68",
"u 	c #605F67",
"v 	c #48494E",
"w 	c #2E2E36",
"x 	c #2D3238",
"y 	c #010000",
"z 	c #2F323B",
"A 	c #7A403F",
"B 	c #784041",
"C 	c #9088B9",
"D 	c #622050",
"E 	c #773F3E",
"F 	c #602150",
"G 	c #F8D0B7",
"H 	c #E9E8F8",
"I 	c #D89970",
"J 	c #B14098",
"K 	c #AF4198",
"L 	c #B03F97",
"M 	c #B1409A",
"N 	c #784043",
"O 	c #773F40",
"P 	c #F7CFB6",
"Q 	c #E9E8F6",
"R 	c #EAE9F9",
"S 	c #D7986F",
"T 	c #D89872",
"U 	c #794142",
"V 	c #B24097",
"W 	c #B24098",
"X 	c #B13F97",
"Y 	c #B03F99",
"Z 	c #B24199",
"` 	c #5F204F",
" .	c #71C89E",
"..	c #D99A71",
"+.	c #F9D1B8",
"@.	c #F8D0B6",
"#.	c #FAD2B9",
"$.	c #F8CEB6",
"%.	c #903980",
"&.	c #8F3980",
"*.	c #903A81",
"=.	c #91377F",
"-.	c #602251",
";.	c #D59A70",
">.	c #D79A6E",
",.	c #F9CFB6",
"'.	c #F8CFB9",
").	c #774141",
"!.	c #AE4096",
"~.	c #AE4097",
"{.	c #903882",
"].	c #5F2152",
"^.	c #70C6A1",
"/.	c #774043",
"(.	c #F9CFB7",
"_.	c #F7CEB8",
":.	c #D99870",
"<.	c #D9986E",
"[.	c #5F2150",
"}.	c #933981",
"|.	c #923880",
"1.	c #B14197",
"2.	c #B43F98",
"3.	c #72C8A3",
"4.	c #7A3F41",
"5.	c #D79972",
"6.	c #D79970",
"7.	c #AE4099",
"8.	c #B04299",
"9.	c #6DC7A1",
"0.	c #763E3F",
"a.	c #B23F9A",
"b.	c #70C99D",
"c.	c #612251",
"d.	c #484852",
"e.	c #60214E",
"f.	c #602052",
"g.	c #D95910",
"h.	c #D75710",
"i.	c #5E6166",
"j.	c #616066",
"k.	c #454851",
"l.	c #D8580F",
"m.	c #D8580D",
"n.	c #5F5F69",
"o.	c #494850",
"p.	c #020001",
"q.	c #8F87B8",
"r.	c #9088BB",
"s.	c #61616B",
"t.	c #C1B9D1",
"u.	c #BEB9D0",
"v.	c #C0B7D2",
"w.	c #C0B8D0",
"x.	c #9088B7",
"y.	c #9189BA",
"z.	c #8F89B9",
"A.	c #8F87B6",
"B.	c #2E3136",
"C.	c #9288BC",
"D.	c #313036",
"E.	c #2F3239",
"F.	c #9187BB",
"G.	c #9187B9",
"H.	c #6FC7A1",
"I.	c #6EC69E",
"J.	c #6FC89C",
". . . . . . . . . . . . . . . . . . . . . . . . . . . . . . . . . . + @ . . . . . . . . . . . . . . . . . . . . . . . . . . . . ",
". . . . . . . . . . . . . . . . . . . . . . . . . . . . . # # . # . # . . . # . . . . . . . . . . . . . . . . . . . . . . . . . ",
". . . . . . . . . . . . . . . . . . . . . . . . . . . . . . + . $ . + . . . $ . . . . . . . . . . . . . . . . . . . . . . . . . ",
". . . . . . . . . . . . . . . . . . . . . . . . . . $ . . % $ % . . . & * % . . . . . . . . . . . . . . . . . . . . . . . . . . ",
". . . . . . . . . . . . . . . . . . . . . . . . . . # + + % # + . + # . + . . . . . . . . . . . . . . . . . . . . . . . . . . . ",
". . . . . . . . . . . . . . . . . . . . . . . . . # . . $ % $ * $ $ % . % * . . . . . . . . . . . . . . . . . . . . . . . . . . ",
". . . . . . . . . . . . . . . . . . . . . . . . . + @ . = - ; > , = ; ; ' , . . . . . . . . . . . . . . . . . . . . . . . . . . ",
". . . . . . . . . . . . . . . . . . . . . . . . @ . . % ; ; ; ) ; ; ; ; ; ; $ . . . . . . . . . . . . . . . . . . . . . . . . . ",
". . . . . . . . . . . . . . . . . . . # . . . . ; ; ! ~ { { { { { { { { { { ~ ~ ; ; . . ] . . . . . . . . . . . . . . . . . . . ",
". . . . . . . . . . . . . . . . . + . . ^ @ $ @ ; ; ~ ~ { { { { { { { { { { ~ ~ / ; ^ . ( . . $ . . . . . . . . . . . . . . . . ",
". . . . . . . . . . . . . . . . # . . _ . . : < ~ ~ [ } { { { { { { { [ ~ ~ { { { { : : | . & . . . . . . . . . . . . . . . . . ",
". . . . . . . . . . . . . . . . . . . . ^ . : 1 ~ ~ { [ { { { { { { } { 2 ~ { { } 3 4 5 ^ 6 + 7 . . . . . . . . . . . . . . . . ",
". . . . . . . . . . . . . . . . . . # @ : : ; ; { { { } { { { { { { [ [ ! ~ { } { [ 8 [ : : 9 & . . . . . . . . . . . . . . . . ",
". . . . . . . . . . . . . . . . . . . # : : 0 a { { { [ { { { { { { } { ~ ~ { { b { } 8 4 c @ 7 . . . . . . . . . . . . . . . . ",
". . . . . . . . . . . . . . . . . $ . @ : : d 2 { { { { { { { { [ { { { ~ ! } } { { e { f ) : : . . . . . . . . . . . . . . . . ",
". . . . . . . . . . . . . . . . . + . + : : ~ ~ { { { { { { { { { { { { ~ ~ { { { { { g ; 0 : : . . . . . . . . . . . . . . . . ",
". . . . . . . . . . @ % . . . $ . $ ; ; ; ; g { } { { { { { { { { { ~ ~ { { { { { } { { ; ; ; ; + . . . . . & % . . . . . . . . ",
". . . . . . . . . . . h + @ . . $ $ ' i ; / b [ { { { { { { { { { { ~ ~ { { { { } } { { ; ; ; ; . . . & . $ # . . . . . . . . . ",
". . . . . . . . . . . . % % . $ ' j { b ' i ~ k } { { { [ { { { { { ~ ~ { { { { { { { { ; ; ; ; : : . . . . . . . . . . . . . . ",
". . . . . . . . . . % . . . @ . ; 0 } } ; ) ~ ~ { { { { { } { { { { ~ ~ { { { { } { { { ; i ; ; 1 l . & $ . . . . . . . . . . . ",
". . . . . . . . + . . . . . = ; { { [ { ; i ) ' ~ ~ { { [ [ { { { { ~ ~ { { { { { { ~ ~ ; ) ; ; : : $ . . . . . . . . . . . . . ",
". . . . . . . . $ . . # . . m ' { { n { ; ' ; ; ~ ! { { { { { { { { ~ ~ { { { { { { ~ ~ ; ; ; ; l l . . . . . . . . . . . . . . ",
". . . . . . . . . . . . . . : : { { o { ) ; p ; ; ; ~ ~ ~ ~ { { { { ~ ~ { { { { ~ ~ ; ; ; ; ; ; : : . + . . . + . . . . . . . . ",
". . . . . . . . . . . . . . 1 : { { { { ; ' ; ; ; ; ~ ~ ~ ~ { { { { ~ ~ { { { { ~ ~ ; ; ; ; ; ; : : + q . . @ $ . . . . . . . . ",
". . . . . . . . . . . . . . : : r } [ b k ~ ; = ; ; ; ; ; ; ; ; = ; ; ; ; ; ; = ; ; / ; ; i ; ; : : . . . . . . . . . . . . . . ",
". . . . . . . . . . # . @ . 1 : s s { 8 ~ ~ ; ; ; ; ; ; ; ; ; 0 0 ; ; ; ; ; ; 0 0 ; ; ; ; / ; ; : : . . . . . . . . . . . . . . ",
". . . . . . . . . . . . . . 7 . 1 1 t o u { ~ ~ ; ; ; ; ' ; j j ' ; ; ; ; ; ; ' ; ; ' , ; , = ; : : . . . . + * . . . . . . . . ",
". . . . . . . . . . & + @ . % & : : [ u o [ ~ v ) ; ; ; ) ) ) ; ; a ; ; ; ; a ; 0 > = w > ) / x : : . . . . . . . . . . . . . . ",
". . . . . . . . . . . . . # @ 7 $ $ : 5 y : 1 : : < ; ; z / j ' i j ; ; ; ; j i ; j ' j i i : : . . . . . . . . . . . . . . . . ",
". . . . . . . . . . . . . + & 9 . # : : 1 1 : : : : = ; ) a 0 > ) ) ; ; ; ; ) ) 0 / ; ; = a : < . . . . . . % + . . . . . . . . ",
". . . . . . . . . # . + . . . . . $ % + A B 8 { { 8 C C 1 : : < : : ; ; ; ; : : : 1 : : y < D D . . . . % . . . . . . . . . . . ",
". . . . . . . . # & . . . . @ . . . . . B E { { { { C C : 5 : : : : ; ; ; ; : : : < : 5 : : F F . . . . . . . . . . . . . . . . ",
". . . . . . . . . . . . . . . . . . # h B B G G : : H H I I B B J J J J J J K K J L J M F F F F . . . . . . . . . . . . . . . . ",
". . . . . . . . . . . . . . . . . $ @ . N O G P : : Q R S T B U V L J L W X J J M Y J Z ` F D F . . . . . . . . . . . . . . . . ",
". . . . . . . . . . . . . . . . .  .. . I ..G +.@.@.G P #.$.B B %.%.W J &.*.J J J J %.=.-.D . ] . . . . . . . . . . . . . . . . ",
". . . . . . . . . . . . . . . . . . @ % ;.>.P ,.'.'.@.#.P '.).N %.=.!.~.{.%.M J K K &.&.F ].% . . . . . . . . . . . . . . . . . ",
". . . . . . . . . . . . . . . . . . . . | ^.N /.(.@.G _.I I :.<.F [.}.|.K K 1.J 2.W < : 7  .3.+ . . . . . . . . . . . . . . . . ",
". . . . . . . . . . . . . . . . . . . . _ . B 4.'.'.+.G S I 5.6.F F %.%.M 7.J J 8.J 1 1 & 9.$ $ . . . . . . . . . . . . . . . . ",
". . . . . . . . . . . . . . . . . . % + % . $ $ B ).B 0.B B ; ; F F J J J a.F F : : . . @ % @ q . . . . . . . . . . . . . . . . ",
". . . . . . . . . . . . . . . . # . . . . . . . B B B B B B ; ; F F K J J J F F : c # . . & 9 b.. . . . . . . . . . . . . . . . ",
". . . . . . . . . . . . . . . . . . . . . . . . . . i ' { { 2 ~ ; ; c.F : : : : . @ . . . . + . . . . . . . . . . . . . . . . . ",
". . . . . . . . . . . . . . . . . . . . . . . . + @ ; ; g { d.~ ; ' e.f.: : : : . . | . . . # . . . . . . . . . . . . . . . . . ",
". . . . . . . . . . . . . . . . . . . . . . . . B B g.h.{ i.= ; { { { j.k.~ ; ; + 7 + . . % . . . . . . . . . . . . . . . . . . ",
". . . . . . . . . . . . . . . . . . . . . . . . U B l.m.n.{ ; ) { { j.[ v 2 ; = . . . & @ . . % . . . . . . . . . . . . . . . . ",
". . . . . . . . . . . . . . . . . . . . . . . . : : { n.~ k m i { { r { < < ; ; . + . . & . . + . . . . . . . . . . . . . . . . ",
". . . . . . . . . . . . . . . . . . . . . . . . : : b b ~ o.; ; { { 8 n.p.: ; ) % % . + . + . # . . . . . . . . . . . . . . . . ",
". . . . . . . . . . . . . . . . . . . . . . . . : : q.r.{ s.{ g ) ; t.u.v.w.< : = = . . . # + . . . . . . . . . . . . . . . . . ",
". . . . . . . . . . . . . . . . . . . . . . . . : : C C { { 8 { ; ; w.w.w.w.: : ; = . . . . . . . . . . . . . . . . . . . . . . ",
". . . . . . . . . . . . . . . . @ . . % . . . $ : : ; i ! 2 ~ 2 ; ; x.y.C C 5 : ; ; . . . . # . . . . . . . . . . . . . . . . . ",
". . . . . . . . . . . . . . . . . . . % 7 & . . : : ; 0 ~ ~ ~ ~ ; ; C C z.A.: : ; ; . @ . . . # . . . . . . . . . . . . . . . . ",
". . . . . . . . . . . . . . . . . . . . % h & $ ; i ; ; ; ; ~ d.~ ~ : 1 : : ; ; ; m : : 7 # + . . . . . . . . . . . . . . . . . ",
". . . . . . . . . . . . . . . . @ . % . . . . . ' ) ; / 0 / ~ ! o.~ < 1 : : - ' / B.l 1 # $ . & . . . . . . . . . . . . . . . . ",
". . . . . . . . . . . . . . . . + . . . . . o.~ x.C :.:.T :.j j 0 ; ) = i i ; ; r.C.: : + ] . . . . . . . . . . . . . . . . . . ",
". . . . . . . . . . . . . . . . $ @ . # . . o.d.r.C ..I 6.I ) = D.= ; ; - ; ; E.C z.1 l . + # ] . . . . . . . . . . . . . . . . ",
". . . . . . . . . . . . . . . . . . . . . . : : v ~ F.C G.C : < 5 : . . : < C C C C < 5 _ . . H.. . . . . . . . . . . . . . . . ",
". . . . . . . . . . . . . . . . . . . . . . : : ~ ~ C C y.C 4 : : : . . : : z.C C C 1 : @ # . . . . . . . . . . . . . . . . . . ",
". . . . . . . . . . . . . . . . . . . . . . . . : : : : : : . + . . . . . . : : : : . . . . . . . . . . . . . . . . . . . . . . ",
". . . . . . . . . . . . . . . . . . . . . . . . : : : : : : & . . . # . @ . 1 : : 1 . @ . # . @ . . . . . . . . . . . . . . . . ",
". . . . . . . . . . . . . . . . . . . . . . . . + 7 7 % @ 7 . . . . . . . . 7 . . 7 . . . . . . . . . . . . . . . . . . . . . . ",
". . . . . . . . . . . . . . . . . . . . . . . . . I.& J.& 9 & + . . & + @ . % & & % . @ + & . . . . . . . . . . . . . . . . . . ",
". . . . . . . . . . . . . . . . . . . . . . . . @ ^ 7 7 7 ^ + # . . . . . # @ 7 7 @ # . . . . . . . . . . . . . . . . . . . . . ",
". . . . . . . . . . . . . . . . . . . . . . . . % 9 & & . 9 . . . . . . . + & 9 9 & + . . . . @ . . . . . . . . . . . . . . . . ",
". . . . . . . . . . . . . . . . . . . . . . . . . . q % + . # . . # . + . . . . . . . . + . # . . . . . . . . . . . . . . . . . ",
". . . . . . . . . . . . . . . . . . . . . . . . . @ . # q . . . # & . . . . @ . . @ . . . . & # . . . . . . . . . . . . . . . . "};
