/* XPM */
static char * trf_rx_xpm[] = {
"64 64 166 2",
"  	c None",
". 	c #70C8A0",
"+ 	c #70C89E",
"@ 	c #71C9A1",
"# 	c #70C8A2",
"$ 	c #71C7A0",
"% 	c #6FC7A1",
"& 	c #6DC89F",
"* 	c #6FC79F",
"= 	c #6FC79D",
"- 	c #6EC9A0",
"; 	c #6FCA9F",
"> 	c #71C99F",
", 	c #6EC8A2",
"' 	c #2F2F39",
") 	c #303038",
"! 	c #30303A",
"~ 	c #2F2F37",
"{ 	c #2E3138",
"] 	c #6DC89D",
"^ 	c #48474F",
"/ 	c #484850",
"( 	c #606068",
"_ 	c #616068",
": 	c #5F5F67",
"< 	c #5E6168",
"[ 	c #72C8A3",
"} 	c #313038",
"| 	c #616169",
"1 	c #47474F",
"2 	c #313139",
"3 	c #72CAA2",
"4 	c #000000",
"5 	c #5F6065",
"6 	c #606166",
"7 	c #494951",
"8 	c #5F5F69",
"9 	c #47484D",
"0 	c #010101",
"a 	c #71C9A3",
"b 	c #000002",
"c 	c #61616B",
"d 	c #60606A",
"e 	c #5E616A",
"f 	c #464950",
"g 	c #5F6269",
"h 	c #62606B",
"i 	c #484852",
"j 	c #010103",
"k 	c #6FCAA1",
"l 	c #605F67",
"m 	c #70C99D",
"n 	c #313036",
"o 	c #000100",
"p 	c #303136",
"q 	c #2E3136",
"r 	c #6EC99E",
"s 	c #31313B",
"t 	c #302F37",
"u 	c #2F3035",
"v 	c #615F6A",
"w 	c #49484E",
"x 	c #62626A",
"y 	c #2D3037",
"z 	c #312F3A",
"A 	c #71C89E",
"B 	c #313237",
"C 	c #48494E",
"D 	c #5E6166",
"E 	c #474A53",
"F 	c #5C5F68",
"G 	c #000201",
"H 	c #6FC9A3",
"I 	c #602150",
"J 	c #010000",
"K 	c #9088BB",
"L 	c #9088B9",
"M 	c #784041",
"N 	c #626169",
"O 	c #7A3F41",
"P 	c #622050",
"Q 	c #60214E",
"R 	c #B1409A",
"S 	c #B24298",
"T 	c #B14098",
"U 	c #B24199",
"V 	c #B14197",
"W 	c #B24098",
"X 	c #B34199",
"Y 	c #784043",
"Z 	c #D89872",
"` 	c #D89970",
" .	c #EAE9F9",
"..	c #E9E8F8",
"+.	c #F8D0B7",
"@.	c #5F2150",
"#.	c #B03F99",
"$.	c #77413F",
"%.	c #773F3E",
"&.	c #D8996E",
"*.	c #E7E9F8",
"=.	c #E8EAF9",
"-.	c #F9CFB7",
";.	c #7A403F",
">.	c #903980",
",.	c #B23F9A",
"'.	c #913A81",
").	c #7B4044",
"!.	c #F8CFB9",
"~.	c #FAD0BA",
"{.	c #F9D1B8",
"].	c #F6D1B7",
"^.	c #F7D2B8",
"/.	c #72C8A1",
"(.	c #B03F97",
"_.	c #8E387F",
":.	c #90397E",
"<.	c #B13E99",
"[.	c #8F387F",
"}.	c #793F3E",
"|.	c #F8D0B6",
"1.	c #F7CFB5",
"2.	c #F8CEB6",
"3.	c #F9CFB9",
"4.	c #F7CFB6",
"5.	c #DA9A6E",
"6.	c #AF4198",
"7.	c #B2419B",
"8.	c #8F3980",
"9.	c #903882",
"0.	c #5F204F",
"a.	c #D99870",
"b.	c #D6986F",
"c.	c #FAD0B8",
"d.	c #754143",
"e.	c #70C69F",
"f.	c #D7986F",
"g.	c #F9D1B7",
"h.	c #5F2152",
"i.	c #773F40",
"j.	c #6EC8A4",
"k.	c #612251",
"l.	c #7A3F43",
"m.	c #78403F",
"n.	c #611F4F",
"o.	c #494953",
"p.	c #D8580F",
"q.	c #774141",
"r.	c #323137",
"s.	c #474751",
"t.	c #D85811",
"u.	c #C0B8D0",
"v.	c #C1B7D0",
"w.	c #C0B8CF",
"x.	c #9187B9",
"y.	c #9189BA",
"z.	c #BFB7CF",
"A.	c #C0B7D2",
"B.	c #8F87B8",
"C.	c #8F89B9",
"D.	c #474A51",
"E.	c #000200",
"F.	c #9088B7",
"G.	c #DB9772",
"H.	c #8F87B6",
"I.	c #71C7A2",
". . . . . . . . . . . . . . . . . . . . . . . . + . . + . + . . . @ @ @ . # # # . . . . . . . . . . . . . . . . . . . . . . . . ",
". . . . . . . . . . . . . . . . . . . . . . . . $ . % . & . . + . . . . . . . . . . . . . . . . . . . . . . . . . . . . . . . . ",
". . . . . . . . . . . . . . . . . . . . . . . . . . . * . = . # . . . # . . . # . . . . . . . . . . . . . . . . . . . . . . . . ",
". . . . . . . . . . . . . . . . . . . . . . . . . - = ; + > > @ . . - + . $ . + . . . . . . . . . . . . . . . . . . . . . . . . ",
". . . . . . . . . . . . . . . . . . . . . . . . . $ # # . # # . # . . , $ # . . . . . . . . . . . . . . . . . . . . . . . . . . ",
". . . . . . . . . . . . . . . . . . . . . . . . . . . - $ . $ $ . . . . . . . . . . . . . . . . . . . . . . . . . . . . . . . . ",
". . . . . . . . . . . . . . . . . . . . . . . . * . - . . # . - . . * . . . . . . . . . . . . . . . . . . . . . . . . . . . . . ",
". . . . . . . . . . . . . . . . . . . . . . . . # @ ' ) ! ) ! ) ) ) ) ~ . . . . . . . . . . . . . . . . . . . . . . . . . . . . ",
". . . . . . . . . . . . . . . . . # . . . @ * . . & ) { ) ) ! ) ) ) ) ) . * . . . * . . . - . . . . . . . . . . . . . . . . . . ",
". . . . . . . . . . . . . . . . . @ . @ ] . ) ! ^ / ( _ : _ ( < ( ( : ( / / ) ) - . . [ * . - . . . . . . . . . . . . . . . . . ",
". . . . . . . . . . . . . . . . . . . . @ . } ) / / ( < _ < | ( ( | | ( / 1 ) 2 3 @ * + . + . . . . . . . . . . . . . . . . . . ",
". . . . . . . . . . . . . . . . . . . . 4 4 5 6 ( 6 7 / ( : : : 8 ( : < _ ( / 9 0 4 . % $ # . . . . . . . . . . . . . . . . . . ",
". . . . . . . . . . . . . . . . . . a . b 4 c d d e / f | | _ ( d ( g | d h i 7 j j - k # . . . . . . . . . . . . . . . . . . . ",
". . . . . . . . . . . . . . . . = + 4 0 l ( 5 < ( : / 1 ( ( < ( ( ( : ( 6 ( ( ( ) ) 4 4 m . . . . . . . . . . . . . . . . . . . ",
". . . . . . . . . . . . . . . . a # 4 4 | ( ( ( _ ( / 1 ( ( ( ( ( ( ( ( ( ( ( | ) ) 4 4 # . . * . . . . . . . . . . . . . . . . ",
". . . . . . . . . . . . . . . . 4 4 ) n ( ( | ( 6 ( / / ( ( ( _ ( ( ( ( ( ( ( ( / / 4 4 . - . . . . . . . . . . . . . . . . . . ",
". . . . . . . . . . @ . . # @ . o b p 2 ( ( ( d ( : / / ( ( ( ( ( ( ( ( ( ( ( ( / / 4 4 . . - . @ . . . . . @ + . . . . . . . . ",
". . . . . . . . . + . . = @ . . ) ) ) ) ( ( ( ( ( ( ( ( / / ( ( ( ( ( ( ( ( ( ( ( ( ) ) ) p . & . . . . . - . . . . . . . . . . ",
". . . . . . . . . . . $ . . . & ) ) ) ) ( ( ( | ( ( ( ( / / ( ( ( : ( ( ( ( ( ( ( ( p ) ! } . . + + . . . . . . . . . . . . . . ",
". . . . . . . . . . . . . . 4 4 ! ! ) ) ( | ( 6 ( | ( ( / / : ( ( ( ( ( ( ( ( ( 1 / ! ! 6 : q { @ . . + , . # . . . . . . . . . ",
". . . . . . . . r . . . . + 4 b ) ~ 2 ) ( ( | 6 ( ( ( ( / / ( ( ( ( ( ( ( : ( ( i / p q _ | s ) . > . . . . . @ . . . . . . . . ",
". . . . . . . . # . - . . . 4 4 ) s ) ) / / ( d ( ( ( ( / / ( ( ( ( ( ( ( ( / / ) p ) ) ( ( ( ( } t . * . . . . . . . . . . . . ",
". . . . . . . . . . . . $ . 4 4 ) u 2 ) / 1 ( 6 ( ( ( ( / / ( ( ( ( ( ( ( ( / / ) ) p ) g _ ( v ) ! $ . . , . . . . . . . . . . ",
". . . . . . . . . . . - + . 4 4 ) ) ) ) ) ) 1 / ( ( ( ( / / ( ( ( | / / / / ) ) { ) ) 2 ( g ( ( b 4 . . . . . - . . . . . . . . ",
". . . . . . . . . . . - + . 4 4 ) ) ! ) ) ) i / ( ( ( ( 7 / ( ( ( ( / / / / ) ) ) ) ) ! ( < ( ( 4 4 + . . . . . . . . . . . . . ",
". . . . . . . . . . . . $ . 4 4 ) n ) u n ~ ) n ) ) ~ ) ) ) ) 2 ) ) ) u 2 ) ) ! u p / w x _ ( d 4 4 $ . . . . * . . . . . . . . ",
". . . . . . . . # . - . . . 4 4 ! ! ~ 2 y ! ) { ) ) ) ~ ) ) ) ) ! ) ) ) ) ! ! ! z z / i ( ( : ( 4 4 a . . . A . . . . . . . . . ",
". . . . . . . . r . . . . + 4 b p p { p B ) p p q q 2 ) 2 ) q q 2 B ) u ) ~ { y C / D < | ( j j . @ . . . . * . . . . . . . . . ",
". . . . . . . . . . . . . . 4 4 ! z s ) 2 ) ) ) ! ! ) ~ ) ) ! ! ! ! 2 ! ) ! ) ! / E 8 v F : 4 0 . $ . . . . . . . . . . . . . . ",
". . . . . . . . . . . $ . . . & 4 4 ) ) ) 2 ) 2 ) 2 2 ) ) ) ) ) ) ) 2 p ! ) 4 4 4 4 4 4 0 0 $ # . = . % @ $ . r . . . . . . . . ",
". . . . . . . . . + . . = @ . . 4 4 ) { ) ) ) ) ) ) ) ) ) ) ) ) p ) ) ) ) ) G o 0 j 4 b 4 4 & - H . - . . @ . . . . . . . . . . ",
". . . . . . . . . . @ . . # @ . I I 4 4 J J 4 4 0 4 ) ) ) ) 0 4 0 4 0 4 K L d ( | ( M M . . . . . . . . . . . . . . . . . . . . ",
". . . . . . . . . . . . . . . . I I 4 4 4 b 0 4 4 4 ) ~ ) ) 4 4 4 4 4 4 L L N ( | ( M O * . . @ . . . . . . . . . . . . . . . . ",
". . . . . . . . . . . . . . . . I I P Q R S T T U U V T W T W X Y M Z `  ...4 4 +.+.O Y $ . . . . . . . . . . . . . . . . . . . ",
". . . . . . . . . . . . . . . . Q Q @.I T R U T T T T V R T T #.$.%.&.` *.=.4 4 +.-.M ;.& + # . . . . . . . . . . . . . . . . . ",
". . . . . . . . . . . . . . . . . + @.I >.>.T T ,.U '.'.T R >.'.).Y !.+.~.+.{.].{.^.Z Z . . . - . . . . . . . . . . . . . . . . ",
". . . . . . . . . . . . . . . . /.@ I P >.'.T T (.(._.:.<.W >.[.}.%.|.+.1.+.2.3.4.|.&.5.- . * . . . . . . . . . . . . . . . . . ",
". . . . . . . . . . . . . . . . . . # . b 4 U T T 6.X 7.8.9.0.I ` ` a.b.c.!.+.+.M d.- % @ e.. . . . . . . . . . . . . . . . . . ",
". . . . . . . . . . . . . . . . . . . - J 4 T R T T (.T >.>.I I f.b.` a.4.-.+.g.M %.. k * . . . . . . . . . . . . . . . . . . . ",
". . . . . . . . . . . . . . . . . . # - . > 4 4 h.0.T T R 7.I P ) ) i.M M M M i.. . . j.. - . - . . . . . . . . . . . . . . . . ",
". . . . . . . . . . . . . . . . . . . . . . 0 4 I I T T T T k.I 2 ) l.M M M m.M . . . . . . . . . . . . . . . . . . . . . . . . ",
". . . . . . . . . . . . . . . . . . . . . . . . 4 G 4 4 h.I 2 B ( ( i / ! ) k @ . . . . . . . . . . . . . . . . . . . . . . . . ",
". . . . . . . . . . . . . . . . . . . . . . . . 4 4 4 o n.0.) ) ( ( / / ) ) . . . . . . . . . . . . . . . . . . . . . . . . . . ",
". . . . . . . . . . . . . . . . . . . # . . . . ! ! 4 4 ( ( / o.) ) ( | p.p.q.M . . . . . . . . . . . . . . . . . . . . . . . . ",
". . . . . . . . . . . . . . . . . . . # . . . . B r.4 b _ : s.1 ) ) 6 < p.t.l.M . . . . . . . . . . . . . . . . . . . . . . . . ",
". . . . . . . . . . . . . . . . . . . . . . . . ! ' 0 G _ g _ ( ) ) s.C ( 6 4 b . . . . . . . . . . . . . . . . . . . . . . . . ",
". . . . . . . . . . . . . . . . . . . . . . . . ) p 4 4 ( ( ( ( ) ) 9 / 6 ( 4 4 . . . . . . . . . . . . . . . . . . . . . . . . ",
". . . . . . . . . . . . . . . . . . . . . . 0 4 i / 0 4 u.v.u.w.) ) ( | x.y.4 4 . . . . . . . . . . . . . . . . . . . . . . . . ",
". . . . . . . . . . . . . . . . . . . . . + 4 4 / / 4 4 z.z.u.A.! } ( | B.L 4 b . . . . . . . . . . . . . . . . . . . . . . . . ",
". . . . . . . . . . . . . . . . * . . . . $ 4 4 / f 4 4 C.y.L L ) { 2 ) ) ) 4 4 . . . . . . . . . . . . . . . . . . . . . . . . ",
". . . . . . . . . . . . . . . . . A . . . a 4 4 / / 0 4 L B.L B.2 } ) ~ } ! 4 4 . . . . . . . . . . . . . . . . . . . . . . . . ",
". . . . . . . . . . . . . . . . . * . . . . @ . b 4 L L 4 4 4 0 &.b.D.7 0 E.. . . . . . . . . . . . . . . . . . . . . . . . . . ",
". . . . . . . . . . . . . . . . . . . . . . $ . 0 4 F.L 4 b 4 4 G.G.1 1 b b e.# . . . . . . . . . . . . . . . . . . . . . . . . ",
". . . . . . . . . . . . . . . . r . $ @ % . = . . . 4 b L L L H.L C.4 4 @ r = + . . . . . . . . . . . . . . . . . . . . . . . . ",
". . . . . . . . . . . . . . . . . . @ . . - . H . . 0 4 C.C.L C.L B.4 4 # * @ @ . . . . . . . . . . . . . . . . . . . . . . . . ",
". . . . . . . . . . . . . . . . . . . . . . . . . * . . 4 4 4 4 b 4 . . . . * + . . . . . . . . . . . . . . . . . . . . . . . . ",
". . . . . . . . . . . . . . . . . . . . . . . . . . . . 4 4 4 4 4 4 r . @ $ @ . . . . . . . . . . . . . . . . . . . . . . . . . ",
". . . . . . . . . . . . . . . . . . . . . . . . . # . . . . . . . # + r . - . . . . . . . . . . . . . . . . . . . . . . . . . . ",
". . . . . . . . . . . . . . . . . . . . . . . . . . # . . + . . $ . . $ - $ . . . . . . . . . . . . . . . . . . . . . . . . . . ",
". . . . . . . . . . . . . . . . . . . . . . . . # . /.I.@ # I.$ @ + . @ . . . . . . . . . . . . . . . . . . . . . . . . . . . . ",
". . . . . . . . . . . . . . . . . . . . . . . . . . . # + . . . . A - . # . . + . . . . . . . . . . . . . . . . . . . . . . . . ",
". . . . . . . . . . . . . . . . . . . . . . . . . . . . . * . . . * # * . . $ + . . . . . . . . . . . . . . . . . . . . . . . . ",
". . . . . . . . . . . . . . . . . . . . . . . . . . * . . . . . . @ . @ + . . . . . . . . . . . . . . . . . . . . . . . . . . . ",
". . . . . . . . . . . . . . . . . . . . . . . . @ . @ . . . . . # . . . . - . . . . . . . . . . . . . . . . . . . . . . . . . . "};
