/* XPM */
static char * trf_rx_sx_xpm[] = {
"64 64 161 2",
"  	c None",
". 	c #70C8A0",
"+ 	c #71C9A1",
"@ 	c #70C8A2",
"# 	c #71C7A0",
"$ 	c #6EC9A0",
"% 	c #70C89E",
"& 	c #6EC99E",
"* 	c #6FC79F",
"= 	c #312F3A",
"- 	c #30303A",
"; 	c #303038",
"> 	c #313038",
", 	c #302F37",
"' 	c #2F2F39",
") 	c #2F2F37",
"! 	c #71C7A2",
"~ 	c #484850",
"{ 	c #606068",
"] 	c #47474F",
"^ 	c #6ECAA1",
"/ 	c #6FCAA1",
"( 	c #2E3138",
"_ 	c #70C69F",
": 	c #000000",
"< 	c #5F5F67",
"[ 	c #616169",
"} 	c #000002",
"| 	c #6EC8A2",
"1 	c #71C9A3",
"2 	c #6FCA9F",
"3 	c #000100",
"4 	c #000201",
"5 	c #5F6269",
"6 	c #494951",
"7 	c #010101",
"8 	c #6FC79D",
"9 	c #616068",
"0 	c #010100",
"a 	c #606166",
"b 	c #2F3035",
"c 	c #303136",
"d 	c #302E39",
"e 	c #62606B",
"f 	c #494752",
"g 	c #60606A",
"h 	c #313139",
"i 	c #71C99F",
"j 	c #464950",
"k 	c #31313B",
"l 	c #010103",
"m 	c #616267",
"n 	c #2D3037",
"o 	c #5E6168",
"p 	c #72C8A1",
"q 	c #5E616A",
"r 	c #615F6A",
"s 	c #605F67",
"t 	c #625F68",
"u 	c #2D3238",
"v 	c #2E2E36",
"w 	c #48494E",
"x 	c #2F323B",
"y 	c #010000",
"z 	c #622050",
"A 	c #9088B9",
"B 	c #784041",
"C 	c #7A403F",
"D 	c #602150",
"E 	c #773F3E",
"F 	c #B1409A",
"G 	c #B14098",
"H 	c #B03F97",
"I 	c #AF4198",
"J 	c #D89970",
"K 	c #E9E8F8",
"L 	c #F8D0B7",
"M 	c #5F204F",
"N 	c #B24199",
"O 	c #B03F99",
"P 	c #B13F97",
"Q 	c #B24098",
"R 	c #B24097",
"S 	c #794142",
"T 	c #D89872",
"U 	c #D8976F",
"V 	c #EAE9F9",
"W 	c #E9E8F6",
"X 	c #F7CFB6",
"Y 	c #773F40",
"Z 	c #784043",
"` 	c #602251",
" .	c #91377F",
"..	c #903980",
"+.	c #903A81",
"@.	c #8F3980",
"#.	c #F8CEB6",
"$.	c #FBD1B9",
"%.	c #F8D0B6",
"&.	c #F9D1B8",
"*.	c #D99A71",
"=.	c #71C89E",
"-.	c #5F2152",
";.	c #903882",
">.	c #AE4097",
",.	c #AE4096",
"'.	c #774141",
").	c #F8CFB9",
"!.	c #FAD2B9",
"~.	c #F6D0B9",
"{.	c #F9CFB6",
"].	c #D79A6E",
"^.	c #D59A70",
"/.	c #72C8A3",
"(.	c #B43F98",
"_.	c #B14197",
":.	c #923880",
"<.	c #933981",
"[.	c #5F2150",
"}.	c #D9986E",
"|.	c #D99870",
"1.	c #F7CEB8",
"2.	c #F9CFB7",
"3.	c #774043",
"4.	c #70C6A1",
"5.	c #6DC7A1",
"6.	c #B04299",
"7.	c #AE4099",
"8.	c #D79970",
"9.	c #D79972",
"0.	c #D7986F",
"a.	c #7A3F41",
"b.	c #B23F9A",
"c.	c #763E3F",
"d.	c #70C99D",
"e.	c #464952",
"f.	c #61616B",
"g.	c #6FC7A1",
"h.	c #605F65",
"i.	c #D85811",
"j.	c #D8580D",
"k.	c #D7570E",
"l.	c #47484D",
"m.	c #313036",
"n.	c #494850",
"o.	c #484852",
"p.	c #C1B7D0",
"q.	c #C0B8D0",
"r.	c #4A494F",
"s.	c #9189BA",
"t.	c #48474F",
"u.	c #9187B9",
"v.	c #2E3136",
"w.	c #32303B",
"x.	c #46464E",
"y.	c #9187BB",
"z.	c #DA9971",
"A.	c #9288BC",
"B.	c #9088BB",
"C.	c #9088B7",
"D.	c #8F89B9",
". . . . . . . . . . . . . . . . . . . . . . . . . . . . + @ . . . . . . . . . . . . . . . . . . . . . . . . . . . . . . . . . . ",
". . . . . . . . . . . . . . . . . . . . . . . . . # . . . # . # . # # . . . . . . . . . . . . . . . . . . . . . . . . . . . . . ",
". . . . . . . . . . . . . . . . . . . . . . . . . $ . . . @ . $ . @ . . . . . . . . . . . . . . . . . . . . . . . . . . . . . . ",
". . . . . . . . . . . . . . . . . . . . . . . . . . % & * . . . % $ % . . $ . . . . . . . . . . . . . . . . . . . . . . . . . . ",
". . . . . . . . . . . . . . . . . . . . . . . . . . . @ . # @ . @ # % @ @ # . . . . . . . . . . . . . . . . . . . . . . . . . . ",
". . . . . . . . . . . . . . . . . . . . . . . . . . & % . % $ $ & $ % $ . . # . . . . . . . . . . . . . . . . . . . . . . . . . ",
". . . . . . . . . . . . . . . . . . . . . . . . . . = - ; ; > = , ; ' > . + @ . . . . . . . . . . . . . . . . . . . . . . . . . ",
". . . . . . . . . . . . . . . . . . . . . . . . . $ ; ; ; ; ; ; ) ; ; ; % . . + . . . . . . . . . . . . . . . . . . . . . . . . ",
". . . . . . . . . . . . . . . . . . . ! . . ; ; ~ ~ { { { { { { { { { { ~ ] ; ; . . . . # . . . . . . . . . . . . . . . . . . . ",
". . . . . . . . . . . . . . . . $ . . ^ . / ; ( ~ ~ { { { { { { { { { { ~ ~ ; ; + $ + / . . @ . . . . . . . . . . . . . . . . . ",
". . . . . . . . . . . . . . . . . * . _ : : { { { { ~ ~ < { { { { { { { [ < ~ ~ } : . . | . . # . . . . . . . . . . . . . . . . ",
". . . . . . . . . . . . . . . . 1 @ 2 / 3 4 5 [ { { ~ 6 { [ { { { { { { < { ~ ~ 7 : . / . . . . . . . . . . . . . . . . . . . . ",
". . . . . . . . . . . . . . . . * 8 : : < 9 < { [ { ~ ] < < { { { { { { [ { { { ; ; : : + # . . . . . . . . . . . . . . . . . . ",
". . . . . . . . . . . . . . . . 1 + 0 4 9 [ { a { { ~ ~ { [ { { { { { { < { { { b c : : # . . . . . . . . . . . . . . . . . . . ",
". . . . . . . . . . . . . . . . : : ) d { e { { [ [ ] ~ { { { < { { { { { { { { 6 f : : + . $ . . . . . . . . . . . . . . . . . ",
". . . . . . . . . . . . . . . . : : c ; g { { { { { ~ ~ { { { { { { { { { { { { ~ ~ : : @ . @ . . . . . . . . . . . . . . . . . ",
". . . . . . . . % * . . . . . @ ; ; ; ; { { [ { { { { { ~ ~ { { { { { { { { { { { { ; ; ; ; $ . $ . . . % . . . . . . . . . . . ",
". . . . . . . . . # $ . * . . . ; ; ; ; { { [ [ { { { { ~ ~ { { { { { { { { { { < { ( ; h - $ $ . . . @ i . . . . . . . . . . . ",
". . . . . . . . . . . . . . : : ; ; ; ; { { { { { { { { ~ ~ { { { { { { { { { [ j ~ h - a { k - . . % % . . . . . . . . . . . . ",
". . . . . . . . . . . $ * . l 7 ; ; h ; { { { [ { { { { ~ ~ { { { { [ { { { { { ~ ~ ) ; [ [ c ; . + . . . % . . . . . . . . . . ",
". . . . . . . . . . . . . $ : : ; ; ) ; ~ ~ { { { { { { ~ ~ { { { { < < { < ~ ~ - ) h ; { < { { ; ; . . . . . @ . . . . . . . . ",
". . . . . . . . . . . . . . l l ; ; ; ; ~ ~ { { { { { { ~ ~ { { { { { { { { ] ~ ; ; - ; { m { { - h . . # . . $ . . . . . . . . ",
". . . . . . . . @ . . . @ . : : ; ; ; ; ; ; ~ ~ { { { { ~ ~ { { { { ~ 6 ] ~ ; ; ; n ; ) { o { { : : . . . $ . . . . . . . . . . ",
". . . . . . . . $ + . . p @ : : ; ; ; ; ; ; ~ ~ { { { { ~ ~ { { { { ~ ~ ~ ~ ; ; ; ; - ; { { { { : 7 . . . * . . . . . . . . . . ",
". . . . . . . . . . . . . . : : ; ; h ; ; ( ; ; > ; ; ; ; ; ; > ; ; ; ; ; ; ; ; > ; ~ j a < [ q : : . . . . . . . . . . . . . . ",
". . . . . . . . . . . . . . : : ; ; ( ; ; ; ; c c ; ; ; ; ; ; c c ; ; ; ; ; ; ; ; ; ~ ~ 9 { r r : 7 . + . # . + . . . . . . . . ",
". . . . . . . . & @ . . . . : : ; > = ; = - ; ; - ; ; ; ; ; ; - k k ; - ; ; ; ; ~ ~ { s o t 7 7 . 1 . . . . . . . . . . . . . . ",
". . . . . . . . . . . . . . : : u ( ) , v > , c ; b ; ; ; ; b ; ; ) ) ) ; ; ; ) w ~ < o s < : : * % . + @ * . . . . . . . . . . ",
". . . . . . . . . . . . . . . . : : h h k - k ; h k ; ; ; ; k h - k ( x ; ; } : : 7 : y 3 : $ $ 1 + # . . . . . . . . . . . . . ",
". . . . . . . . @ % . . . . . . } : b > ; ; ( c ) ) ; ; ; ; ) ) , c b ) ; > : : : : 7 7 : : # . 8 * @ . . . . + . . . . . . . . ",
". . . . . . . . . . . % . . . . z z } y : : 7 : : : ; ; ; ; : : } : : 7 A A 9 { { 9 B C @ % $ . . . . . @ . # . . . . . . . . . ",
". . . . . . . . . . . . . . . . D D : : 3 : } : : : ; ; ; ; : : : : 3 : A A { { { { E B . . . . . + . . . . * # . . . . . . . . ",
". . . . . . . . . . . . . . . . D D D D F G H G I I G G G G G G B B J J K K : : L L B B % # . . . . . . . . . . . . . . . . . . ",
". . . . . . . . . . . . . . . . D z D M N G O F G G P Q H G H R S B T U V W : : X L Y Z . + $ . . . . . . . . . . . . . . . . . ",
". . . . . . . . . . . . . . . . ! . z `  ...G G G G +.@.G Q ....B B #.$.X L %.%.&.L *.J . . =.. . . . . . . . . . . . . . . . . ",
". . . . . . . . . . . . . . . . . % -.D @.@.I I G F ..;.>.,. ...Z '.).X !.%.).~.{.X ].^.% + . . . . . . . . . . . . . . . . . . ",
". . . . . . . . . . . . . . . . @ /.=.1 : } Q (.G _.I I :.<.[.D }.|.J J 1.L %.2.3.Z 4._ . . . . . . . . . . . . . . . . . . . . ",
". . . . . . . . . . . . . . . . $ $ 5.* 7 7 G 6.G G 7.F ....D D 8.9.J 0.L &.).).a.B . | . . . . . . . . . . . . . . . . . . . . ",
". . . . . . . . . . . . . . . . p + % + . . : : D D b.G G G D D ; ; B B c.B '.B $ $ . % @ % . . . . . . . . . . . . . . . . . . ",
". . . . . . . . . . . . . . . . d.8 * . . # 0 : D D G G G I D D ; ; B B B B B B . . . . . . . # . . . . . . . . . . . . . . . . ",
". . . . . . . . . . . . . . . . # * . . . . + . 3 : : : M D ; c ~ ~ { { ; ; + + . . . . . . . . . . . . . . . . . . . . . . . . ",
". . . . . . . . . . . . . . . . . # . @ . . . . : : 7 7 D D ; ) j e.a f.; - + g.. . . . . . . . . . . . . . . . . . . . . . . . ",
". . . . . . . . . . . . . . . . . . . . . @ * 8 c c b ) [ { { { ~ w g h.i.j.B B . . . . . . . . . . . . . . . . . . . . . . . . ",
". . . . . . . . . . . . . . . . . . . . . # + 1 - ; k h [ [ { { j j { f.k.i.S S . . . . . . . . . . . . . . . . . . . . . . . . ",
". . . . . . . . . . . . . . . . . . * @ + . % * - ; l.] y : { g 9 9 h m.[ a : : . . . . . . . . . . . . . . . . . . . . . . . . ",
". . . . . . . . . . . . . . . . . . . . . . 1 . - ; n.o.: 7 a a { { ; ) { { : : . . . . . . . . . . . . . . . . . . . . . . . . ",
". . . . . . . . . . . . . . . . . . # . + . 7 : ~ ~ { a l } A A p.q.q.q.; > : : . . . . . . . . . . . . . . . . . . . . . . . . ",
". . . . . . . . . . . . . . . . . . . . . . : : r.~ { a : : s.A p.q.q.q.( ; : : . . . . . . . . . . . . . . . . . . . . . . . . ",
". . . . . . . . . . . . . . . . . @ . . . @ : : n.~ t.n.~ ~ : } A A A A ) ; : : : : . . . . . . . . . . . . . . . . . . . . . . ",
". . . . . . . . . . . . . . . . . . . . . + 7 7 j j 6 w o.o.: : u.A A A v.c : : : : . . . . . . . . . . . . . . . . . . . . . . ",
". . . . . . . . . . . . . . . . . . . . . . ; ; : : : l 6 ~ ~ n.} : : 7 ; k ~ ] : : . . . . @ & . . . . . . . . . . . . . . . . ",
". . . . . . . . . . . . . . . . + . . % . % w.h 7 7 l : x.o.~ ~ : } 0 : c b n.t.: : . . . . . . . . . . . . . . . . . . . . . . ",
". . . . . . . . . . . . . . . . . . @ @ : : u.y.|.0.z.U l 0 y 7 : : ~ 6 o.6 } 7 . . . . . . . . . . . . . . . . . . . . . . . . ",
". . . . . . . . . . . . . . . . . . . . 7 : A.y.J 9.0.J : : y : : : ~ n.~ w l : . . . . . . % @ . . . . . . . . . . . . . . . . ",
". . . . . . . . . . . . . . . . . . . . : : B.C.D.u.: : . . $ + . . : } : : @ . . . . . % . . . . . . . . . . . . . . . . . . . ",
". . . . . . . . . . . . . . . . . . . % : : A A A A : : . . . . . . : : : : . . . . . . . . . . . . . . . . . . . . . . . . . . ",
". . . . . . . . . . . . . . . . . . . . . . : : : : . . . . . . . . . . . . . . . . . . . . . . . . . . . . . . . . . . . . . . ",
". . . . . . . . . . . . . . . . . . # . + . 7 : : 7 . + . # . + . . . . . . . . . . . . . . . . . . . . . . . . . . . . . . . . ",
". . . . . . . . . . . . . . . . . . . . . . 1 . . 1 . . . . . . . . . . . . . . . . . . . . . . . . . . . . . . . . . . . . . . ",
". . . . . . . . . . . . . . . . . . * @ + . % * * % . + @ * . . . . . . . . . . . . . . . . . . . . . . . . . . . . . . . . . . ",
". . . . . . . . . . . . . . . . . . . . . # + 1 1 + # . . . . . . . . . . . . . . . . . . . . . . . . . . . . . . . . . . . . . ",
". . . . . . . . . . . . . . . . . . . . . @ * 8 8 * @ . . . . + . . . . . . . . . . . . . . . . . . . . . . . . . . . . . . . . ",
". . . . . . . . . . . . . . . . . # . @ . . . . . . . . @ . # . . . . . . . . . . . . . . . . . . . . . . . . . . . . . . . . . ",
". . . . . . . . . . . . . . . . # * . . . . + . . + . . . . * # . . . . . . . . . . . . . . . . . . . . . . . . . . . . . . . . "};
