/* XPM */
static char * trf_front_xpm[] = {
"64 64 154 2",
"  	c None",
". 	c #70C8A0",
"+ 	c #71C9A1",
"@ 	c #6FC79F",
"# 	c #6DC89F",
"$ 	c #70C89E",
"% 	c #70C8A2",
"& 	c #71C9A3",
"* 	c #6EC8A2",
"= 	c #6FC79D",
"- 	c #71C89E",
"; 	c #71C99F",
"> 	c #71C7A0",
", 	c #6EC9A0",
"' 	c #494752",
") 	c #484850",
"! 	c #303038",
"~ 	c #303136",
"{ 	c #30303A",
"] 	c #312F3A",
"^ 	c #606068",
"/ 	c #5F5F67",
"( 	c #47474F",
"_ 	c #48494E",
": 	c #5F6065",
"< 	c #000000",
"[ 	c #010101",
"} 	c #2F3035",
"| 	c #2E3136",
"1 	c #606166",
"2 	c #616267",
"3 	c #616169",
"4 	c #6FCAA1",
"5 	c #000002",
"6 	c #010103",
"7 	c #31313B",
"8 	c #615F6A",
"9 	c #626169",
"0 	c #302F35",
"a 	c #5E6168",
"b 	c #313139",
"c 	c #2F2F37",
"d 	c #60606C",
"e 	c #60606A",
"f 	c #616068",
"g 	c #494951",
"h 	c #464952",
"i 	c #2D3039",
"j 	c #000100",
"k 	c #2E3138",
"l 	c #72C8A1",
"m 	c #313036",
"n 	c #474A51",
"o 	c #313038",
"p 	c #32303B",
"q 	c #2D3037",
"r 	c #484854",
"s 	c #010000",
"t 	c #2F2F39",
"u 	c #313237",
"v 	c #2F3237",
"w 	c #303135",
"x 	c #602150",
"y 	c #5F204F",
"z 	c #622050",
"A 	c #612251",
"B 	c #B14098",
"C 	c #9189B8",
"D 	c #9088BB",
"E 	c #9088B9",
"F 	c #8F87B8",
"G 	c #61224F",
"H 	c #602052",
"I 	c #D99870",
"J 	c #D89970",
"K 	c #EAE9F9",
"L 	c #EAE9FB",
"M 	c #000201",
"N 	c #D7986F",
"O 	c #D79970",
"P 	c #60214E",
"Q 	c #B04299",
"R 	c #B14197",
"S 	c #D99872",
"T 	c #D89872",
"U 	c #EAE7F8",
"V 	c #E9E8F8",
"W 	c #62204E",
"X 	c #F9CFB9",
"Y 	c #F8D0B7",
"Z 	c #FBD1BB",
"` 	c #FAD1BB",
" .	c #F6D1B7",
"..	c #F9D0BA",
"+.	c #D99A71",
"@.	c #D8996E",
"#.	c #F8D0B6",
"$.	c #F9CFB7",
"%.	c #F7CFB6",
"&.	c #71C7A2",
"*.	c #6CC6A0",
"=.	c #773F40",
"-.	c #784041",
";.	c #F9D1B8",
">.	c #D89A71",
",.	c #7A3F41",
"'.	c #F7D2B8",
").	c #D99973",
"!.	c #5D6268",
"~.	c #47484D",
"{.	c #6FC7A1",
"].	c #61616B",
"^.	c #302F37",
"/.	c #6EC99E",
"(.	c #C0B8D0",
"_.	c #5D6065",
":.	c #464950",
"<.	c #D8580F",
"[.	c #D95910",
"}.	c #D7590D",
"|.	c #D7590F",
"1.	c #2F3239",
"2.	c #BFB7CE",
"3.	c #62606B",
"4.	c #494850",
"5.	c #D7570E",
"6.	c #DA5711",
"7.	c #9189BC",
"8.	c #8F89B9",
"9.	c #9187B9",
"0.	c #D8580D",
"a.	c #9088B7",
"b.	c #9086B8",
"c.	c #DA570F",
"d.	c #D85811",
"e.	c #9189BA",
"f.	c #8F87BA",
"g.	c #000103",
"h.	c #D6996D",
"i.	c #5D6067",
"j.	c #454A50",
"k.	c #474A4F",
"l.	c #46494E",
"m.	c #5F6269",
"n.	c #72C79E",
"o.	c #48474F",
"p.	c #474751",
"q.	c #DA9973",
"r.	c #8E88B6",
"s.	c #8F89B7",
"t.	c #9187BB",
"u.	c #010100",
"v.	c #6FCA9F",
"w.	c #6FC9A3",
". . . . . . . . . . . . . . . . . . . . . . . . + + @ . . . . . . . . . . @ + + . . . . . . . . . . . . . . . . . . . . . . . . ",
". . . . . . . . . . . . . . . . . . . . . . . . . # $ . . $ @ . . @ $ . . $ # . . . . . . . . . . . . . . . . . . . . . . . . . ",
". . . . . . . . . . . . . . . . . . . . . . . . . . % @ & @ + * * + @ & @ % . . . . . . . . . . . . . . . . . . . . . . . . . . ",
". . . . . . . . . . . . . . . . . . . . . . . . . $ = $ - . @ . . # . - $ = $ . . . . . . . . . . . . . . . . . . . . . . . . . ",
". . . . . . . . . . . . . . . . . . . . . . . . . & . . . % % % % % % . . . & . . . . . . . . . . . . . . . . . . . . . . . . . ",
". . . . . . . . . . . . . . . . . . . . . . . . . $ @ ; @ + > . . > + @ ; @ $ . . . . . . . . . . . . . . . . . . . . . . . . . ",
". . . . . . . . . . . . . . . . . . . . . . . . . + . . . . . . . . . . . . + . . . . . . . . . . . . . . . . . . . . . . . . . ",
". . . . . . . . . . . . . . . . . . . . . . . . , ' ) ! ! ~ { ! ! { ~ ! ! ) ' , . . . . . . . . . . . . . . . . . . . . . . . . ",
". . . . . . . . . . . . . . . . . . + . , . . . , ) ) ! { ~ { ! ! { ~ { ! ) ) , . . . , . + . . . . . . . . . . . . . . . . . . ",
". . . . . . . . . . . . . . . . , . $ . + ! ] ! ! ) ) ^ / ^ ^ ^ ^ ^ ^ / ^ ) ) ! ! ] ! + . $ . , . . . . . . . . . . . . . . . . ",
". . . . . . . . . . . . . . . . . $ . . % ! ! ! ! ( _ : ^ ^ ^ ^ ^ ^ ^ ^ : _ ( ! ! ! ! % . . $ . . . . . . . . . . . . . . . . . ",
". . . . . . . . . . . . . . . . + > . < [ } | : ^ ^ 1 2 / 3 ^ ^ ^ ^ 3 / 2 1 ^ ^ : | } [ < . > + . . . . . . . . . . . . . . . . ",
". . . . . . . . . . . . . . . . , 4 @ 5 6 7 ! 8 ^ ^ ^ ^ 9 ^ ^ ^ ^ ^ ^ 9 ^ ^ ^ ^ 8 ! 7 6 5 @ 4 , . . . . . . . . . . . . . . . . ",
". . . . . . . . . . . . . . . . . < < 0 { / 1 ^ 1 ^ ^ 3 ^ ^ 3 a a 3 ^ ^ 3 ^ ^ 1 ^ 1 / { 0 < < . . . . . . . . . . . . . . . . . ",
". . . . . . . . . . . . . . . . . < < b c 3 d ^ e ^ ^ ^ ^ ^ / ^ ^ / ^ ^ ^ ^ ^ e ^ d 3 c b < < . . . . . . . . . . . . . . . . . ",
". . . . . . . . . . . . . . . . > < [ ! ! f a ) g ( ) ) ) g ) h h ) g ) ) ) ( g ) a f ! ! [ < > . . . . . . . . . . . . . . . . ",
". . . . . . . . + . . . + + . . . < < 0 ! ^ 3 ) ) ) ) ) ) ) ) ) ) ) ) ) ) ) ) ) ) 3 ^ ! 0 < < . . . + . . . . + . . . . . . . . ",
". . . . . . . . . . . . $ . % < < { ! i ~ ) ) ^ ^ ^ ^ ^ ^ ^ ^ ^ ^ ^ ^ ^ ^ ^ ^ ^ ^ ) ) ~ i ! { < < % + $ . . . . . . . . . . . . ",
". . . . . . . . . . . . . . + 6 j b ! b ! ) ) ^ ^ ^ ^ ^ ^ ^ ^ ^ ^ ^ ^ ^ ^ ^ ^ ^ ^ ) ) ! b ! b j 6 + . . . . . . . . . . . . . . ",
". . . . . . . . . . . @ . . $ < < ! 7 c k b k 1 ^ ^ / ^ ^ ^ ^ ^ ^ ^ ^ ^ ^ / ^ ^ 1 k b k c 7 ! < < $ . . @ . . . . . . . . . . . ",
". . . . . . . . . . % - @ . . < < ~ ~ ! c ! ~ ^ ^ ^ ^ ^ 3 ^ ^ ^ ^ ^ ^ 3 ^ ^ ^ ^ ^ ~ ! c ! ~ ~ < < . . @ - % . . . . . . . . . . ",
". . . . . . . . . . l . . , . < < ! { c ! m ! n ) 3 ^ 3 / ^ ^ ^ ^ ^ ^ / 3 ^ 3 ) n ! m ! c { ! < < . , . . > . . . . . . . . . . ",
". . . . . . . . . . . . . . . < < ! o ! c b ! ) ) ^ ^ ^ ^ / ^ ^ ^ ^ / ^ ^ ^ ^ ) ) ! b c ! o ! < < . . . . . . . . . . . . . . . ",
". . . . . . . . , % . . . . . < < ! c } ! ! p k ! ) ) ) ) ) ) ) ) ) ) ) ) ) ) ! k p ! ! } c ! < [ @ . . . . % , . . . . . . . . ",
". . . . . . . . . . . . @ . . < 5 ! q ! ! ! { c ! _ ( _ r ) ) ( ( ) ) r _ ( _ ! c { ! ! ! q ! 5 < . . @ . . . . . . . . . . . . ",
". . . . . . . . . . . % . . . j < c ~ ! c ~ c ! ! ! ! ! ! ! ~ ! ! ~ ! ! ! ! ! ! ! c ~ c ! ~ c < j . . . % . . . . . . . . . . . ",
". . . . . . . . ; . , . . . . < s b b t u { b o ! c { ! ~ ! { { { { ! ~ ! { c ! o b { u t b b s < . . . . , . ; . . . . . . . . ",
". . . . . . . . , @ . * . 4 . 4 , < [ v { ~ c ! c u ! ! b } u ~ ~ u } b ! ! u c ! c ~ { v [ < , 4 . 4 . * . @ , . . . . . . . . ",
". . . . . . . . ; l . . . . @ . > 6 < ! u { b ! ! ! ! w ! ! t c c t ! ! w ! ! ! ! b { u ! < 6 > . @ . . . . l ; . . . . . . . . ",
". . . . . . . . . @ > * + . . @ . x x y z ! k f ^ ^ 3 ^ ^ 3 ^ ^ ^ ^ 3 ^ ^ 3 ^ ^ f k ! z y x x . @ . . + * > @ . . . . . . . . . ",
". . . . . . . . . . . 4 + . . % & A x x x ! ! a ^ ^ ^ ^ e ^ / ^ ^ / ^ e ^ ^ ^ ^ a ! ! x x x A & % . . + 4 . . . . . . . . . . . ",
". . . . . . . . . $ % @ . . , $ . x x B B < < ! o C D f 8 < < < < < < 8 f D C o ! < < B B x x . $ , . . @ % $ . . . . . . . . . ",
". . . . . . . . . . . . . . . . . y x B B < < o { E E f f < j < < j < f f E F { o < < B B x y . . . . . . . . . . . . . . . . . ",
". . . . . . . . . . . . . . . . . G x B B x H I J K L [ M J N O O N J M [ L K J I H x B B x G . . . . . . . . . . . . . . . . . ",
". . . . . . . . . . . . . . . . + P G Q R x P S T U V < < O J N N J O < < V U T S P x R Q G P + . . . . . . . . . . . . . . . . ",
". . . . . . . . . . . . . . . . % . # W y o { J J X Y Z `  .Y ....Y  .` Z Y X J J { o y W # . % . . . . . . . . . . . . . . . . ",
". . . . . . . . . . . . . . . . . . ; x A u ~ +.@.Y #.$.%.Y Y $.$.Y Y %.$.#.Y @.+.~ u A x ; . . . . . . . . . . . . . . . . . . ",
". . . . . . . . . . . . . . . . + , @ &.*.5 5 =.-.@.J %.Y Y ;.>.>.;.Y Y %.J @.-.=.5 5 *.&.@ , + . . . . . . . . . . . . . . . . ",
". . . . . . . . . . . . . . . . @ . . . + < < ,.-.J J '.Y $.Y J J Y $.Y '.J J -.,.< < + . . . @ . . . . . . . . . . . . . . . . ",
". . . . . . . . . . . . . . . . . . . 5 < ^ ^ ^ ^ ! 7 c b @.+.+.+.+.@.b c 7 ! ^ ^ ^ ^ < 5 . . . . . . . . . . . . . . . . . . . ",
". . . . . . . . % . . . . . . @ + @ , < s ^ ^ ^ e ! ! { ! T J J I J ).! ! ! ! ^ 3 ^ ^ s < , @ . @ . . . . . . % . . . . . . . . ",
". . . . . . . . . . . . % . . , . [ [ f ^ / !.! b ^ ^ ~.) ! ! { ! ! ! ^ : ^ 1 ! ! !./ ^ f [ < . , . . % . . . . . . . . . . . . ",
". . . . . . . . . . % {.> + $ . , < < ^ a / ].b ! ^ 3 ) ) { c c o ^.t ^ 3 ^ e ~ b ]./ a ^ < < , . $ + > {.% . . . . . . . . . . ",
". . . . . . . . . @ $ /.> % + ! ! (.(.7 ! a _.[ < ) :.1 3 <.[.^ e }.|.a ^ :.) [ [ _.a ! 7 (.(.! ! + % > /.$ @ . . . . . . . . . ",
". . . . . . . . % . . . . > . 1.! 2.(.0 b 8 3.< < _ 4.^ ^ 5.<.e / <.6.3 3 _ ) < < 3.8 b 0 (.2.! 1.. > . . . . % . . . . . . . . ",
". . . . . . . . . . . , . . . ] o 7.E 8.9.M < k ! F E 4.) 0.<.<.<.) ) ) ) E 9.! k [ M 9.8.E 7.o ] . . . , . . . . . . . . . . . ",
". . . . . . . . . . . . . . . ! ! 8.a.E E < < ! { b.E ) _ c.0.<.d.4.( ) ) e.8.! ! < < E E a.8.c ! . . . . . . . . . . . . . . . ",
". . . . . . . . . % . . . . $ + . ! ! b ! < 5 ! ! ! ! E F E f.E E <.<.D E ! t ! ! 5 < ! b ! ! . + $ . . . . % . . . . . . . . . ",
". . . . . . . . . . . . . . . . . ! ! ! ! < < ! ! ~ ! e.E E E E E <.<.E E k ! ! ! < < ! ! ! ! . . . . . . . . . . . . . . . . . ",
". . . . . . . . . . . . . . . . $ . = . @ < < _ ~.c ! c ! ! ! k ! ! k o ! ! ! ) _ < < @ . = . $ . . . . . . . . . . . . . . . . ",
". . . . . . . . . . . . . . . . . . . > > < < g ) ! ! o c ! 1.! ! ! ! ! o o b 4.g < < > > . . . . . . . . . . . . . . . . . . . ",
". . . . . . . . . . . . . . . . . {.@ @ * g.< h.h.a i.j.k.) g g ) g ) l.n a m.h.h.< g.* @ @ {.. . . . . . . . . . . . . . . . . ",
". . . . . . . . . . . . . . . . . $ $ /.n.< < S I 8 8 o.p.) ( ) ) ) ) ( ' 8 f q.S < < n./.$ $ . . . . . . . . . . . . . . . . . ",
". . . . . . . . . . . . . . . . 4 . . > . 5 < E 8.E r.M < ! c ) ) ! ! < < s.E F E < 5 . > . . 4 . . . . . . . . . . . . . . . . ",
". . . . . . . . . . . . . . . . . , . * $ < [ t.E 9.7.< M ! { _ ) ! ! u.< E E e.t.[ < $ * . , . . . . . . . . . . . . . . . . . ",
". . . . . . . . . . . . . . . . , . . . . v.. < < < < . . . $ . . . . l . s < < < . v.. . . . , . . . . . . . . . . . . . . . . ",
". . . . . . . . . . . . . . . . @ . . . . @ + < 5 M < , . {.% . . % {.. , < M 5 < + @ . . . . @ . . . . . . . . . . . . . . . . ",
". . . . . . . . . . . . . . . . + . + . % . . & % + % . . . * . . * . . . % + % & . . % . + . + . . . . . . . . . . . . . . . . ",
". . . . . . . . . . . . . . . . . , . . . . . = . {.$ % . . . . . . . . % $ {.. = . . . . . , . . . . . . . . . . . . . . . . . ",
". . . . . . . . . . . . . . . . . . . + . . % . . & . + > . . . . . . > + . & . . % . . + . . , . . . . . . . . . . . . . . . . ",
". . . . . . . . . . . . . . . . . . . * + . . . @ . , $ . . w.. . w.. . $ , . @ . . . + % . . . . . . . . . . . . . . . . . . . ",
". . . . . . . . . . . . . . . . . . @ . . . + . . . @ , . . . . . . . . , @ . . . + . . . @ . . . . . . . . . . . . . . . . . . ",
". . . . . . . . . . . . . . . . @ . . . . , . . . . . > + . . . . . . + > . . . . . , . . . . @ . . . . . . . . . . . . . . . . ",
". . . . . . . . . . . . . . . . > @ . . . . + @ @ . . * ; % . . . . % ; * . . @ @ + . , . . @ > . . . . . . . . . . . . . . . . "};
