/* XPM */
static char * trf_front_rx_xpm[] = {
"64 64 168 2",
"  	c None",
". 	c #70C8A0",
"+ 	c #6EC9A0",
"@ 	c #70C8A2",
"# 	c #71C9A1",
"$ 	c #70C89E",
"% 	c #71C7A0",
"& 	c #71C9A3",
"* 	c #71C89E",
"= 	c #6DC89F",
"- 	c #6FC79F",
"; 	c #71C7A2",
"> 	c #6EC8A2",
", 	c #484850",
"' 	c #47474F",
") 	c #303038",
"! 	c #302F37",
"~ 	c #313038",
"{ 	c #2F2F37",
"] 	c #484852",
"^ 	c #30303A",
"/ 	c #313139",
"( 	c #494951",
"_ 	c #5F5F67",
": 	c #5F5F69",
"< 	c #606166",
"[ 	c #606068",
"} 	c #303136",
"| 	c #6FCAA1",
"1 	c #000000",
"2 	c #000100",
"3 	c #2F3035",
"4 	c #616169",
"5 	c #70C69F",
"6 	c #2F2F39",
"7 	c #616068",
"8 	c #2E3138",
"9 	c #61616B",
"0 	c #6EC99E",
"a 	c #010101",
"b 	c #000002",
"c 	c #5E616A",
"d 	c #494850",
"e 	c #010000",
"f 	c #2F3239",
"g 	c #313237",
"h 	c #2E2E36",
"i 	c #323139",
"j 	c #31313B",
"k 	c #2E313A",
"l 	c #62204E",
"m 	c #631F4E",
"n 	c #5F2150",
"o 	c #602150",
"p 	c #2E3136",
"q 	c #5F6065",
"r 	c #60606A",
"s 	c #5E6168",
"t 	c #2F3237",
"u 	c #622050",
"v 	c #60214E",
"w 	c #5F2152",
"x 	c #5F204D",
"y 	c #626169",
"z 	c #616066",
"A 	c #312F3A",
"B 	c #602052",
"C 	c #631F50",
"D 	c #B14098",
"E 	c #8F87B8",
"F 	c #9088B9",
"G 	c #010100",
"H 	c #612251",
"I 	c #AE4097",
"J 	c #010103",
"K 	c #9088B7",
"L 	c #B13F97",
"M 	c #B03F97",
"N 	c #B24199",
"O 	c #B24098",
"P 	c #D89970",
"Q 	c #E9E8F8",
"R 	c #D99870",
"S 	c #D7986F",
"T 	c #E9E8F6",
"U 	c #E7E9F8",
"V 	c #D99A71",
"W 	c #E9E8FA",
"X 	c #602251",
"Y 	c #F8D0B7",
"Z 	c #F6D0B9",
"` 	c #F9D1B8",
" .	c #F6D1B7",
"..	c #F8D0B6",
"+.	c #D79970",
"@.	c #6DC89D",
"#.	c #5E1F4E",
"$.	c #F9CFB9",
"%.	c #F9CFB7",
"&.	c #F8CFB9",
"*.	c #F7CFB6",
"=.	c #F9CFB6",
"-.	c #764040",
";.	c #78403F",
">.	c #D89872",
",.	c #F6D1B6",
"'.	c #D8996E",
").	c #F6D0BB",
"!.	c #D6986F",
"~.	c #774141",
"{.	c #784041",
"].	c #71C99F",
"^.	c #6FCA9F",
"/.	c #7A3F41",
"(.	c #D79771",
"_.	c #D99872",
":.	c #F9D0B4",
"<.	c #784043",
"[.	c #484651",
"}.	c #302E39",
"|.	c #616267",
"1.	c #D89A71",
"2.	c #5E6166",
"3.	c #D8976F",
"4.	c #464950",
"5.	c #9187B9",
"6.	c #9188B7",
"7.	c #9189BA",
"8.	c #615F6A",
"9.	c #48494E",
"0.	c #D8580F",
"a.	c #9088BB",
"b.	c #9189BC",
"c.	c #D8580D",
"d.	c #313036",
"e.	c #D95912",
"f.	c #D7590F",
"g.	c #8F89B7",
"h.	c #000200",
"i.	c #BFB7CF",
"j.	c #BDBACF",
"k.	c #C1B7D0",
"l.	c #BFBAD1",
"m.	c #020001",
"n.	c #C1B7D2",
"o.	c #C3B6D0",
"p.	c #BEB8D2",
"q.	c #010002",
"r.	c #6FC7A1",
"s.	c #6FC79D",
"t.	c #8F89B9",
"u.	c #6FC9A3",
"v.	c #8F87BA",
"w.	c #9189B8",
"x.	c #020100",
"y.	c #72CAA2",
"z.	c #47484D",
"A.	c #72C8A1",
"B.	c #4A494F",
"C.	c #4A4951",
"D.	c #4A4A52",
"E.	c #494752",
"F.	c #D79A6E",
"G.	c #DA9973",
"H.	c #32303B",
"I.	c #8C89B8",
"J.	c #9187BB",
"K.	c #72C8A3",
". . . . . . . . . . . . . . . . + . . . . . . @ . . . . . . . . . . . . . . . # . # # # . @ @ @ . . . . . . . . . . . . . . . . ",
". . . . . . . . . . . . . . . . . . . # . # . + $ $ $ . $ . $ $ $ $ $ $ $ $ $ $ . . . . . . . . . . . . . . . . . . . . . . . . ",
". . . . . . . . . . . . . . . . . % # . # . . . . . @ . & @ . @ . # . . # . # . . . . @ . . . @ . . . . . . . . . . . . . . . . ",
". . . . . . . . . . . . . . . . . + . # % # * $ . $ + . = . + $ # - - - - . . . . . + $ . % . $ . . . . . . . . . . . . . . . . ",
". . . . . . . . . . . . . . . . . . . . . . @ . . @ ; # ; & % @ . . # # # . . . @ . . > % @ . . . . . . . . . . . . . . . . . . ",
". . . . . . . . . . . . . . . . . . % + % . . . . . , ' ) ! ) ~ ) ) ) ) { { , , . . . . . . . . . . . . . . . . . . . . . . . . ",
". . . . . . . . . . . . . . . . % . + . + . . + . . ] , ) ^ ) ^ ) ) / { ) ) , ( . . - . . . . . . . . . . . . . . . . . . . . . ",
". . . . . . . . . . . . . . . . . $ . . % # ~ ) ) ) , , _ : < [ [ [ [ [ [ [ , , ) ) ) { . . . . . . . . . . . . . . . . . . . . ",
". . . . . . . . . . . . . . . . . % . $ % . } } { ) , , [ [ [ [ [ [ [ [ [ [ , , ^ ) ) ) . . . . @ . . . . + . . . . . . . . . . ",
". . . . . . . . . . . . . . . . . # . | 1 2 3 ) [ [ [ [ [ [ [ [ [ [ [ [ [ [ [ [ < [ ) ) 1 1 . + . # . # $ . . . . . . . . . . . ",
". . . . . . . . . . . . . . . . . . . . 1 1 ) { [ [ [ [ [ [ [ [ [ [ [ [ 4 [ [ [ [ [ ) ) 1 1 % 5 . - @ - . . % $ . . . . . . . . ",
". . . . . . . . . . . . . . . . . $ 1 1 6 ) _ [ [ [ [ _ [ [ 4 [ [ [ _ [ [ [ [ _ 7 4 < < ) ) 1 1 . * + . @ . . $ . . . . . . . . ",
". . . . . . . . . . . . . . . . . # 1 1 8 ) [ [ [ [ [ 4 [ 4 [ [ [ 4 [ [ 4 4 [ [ [ 4 [ 9 } ) 1 1 # $ . # . . . . . . . . . . . . ",
". . . . . . . . . . . . . . . . . 0 a b ) ^ [ c , , , ' , , , , , , , , ' , , , , d 9 [ ^ ) 1 1 % . . % + % . . . . . . . . . . ",
". . . . . . . . . . . . . . . . @ . 1 1 ~ ) 7 [ , , , , ' , , ( , ' , , , , , , , , [ [ ~ ~ 1 1 . @ $ 0 . + . . . . . . . . . . ",
". . . . . . . . . . . . . . . . 1 1 } ~ 8 { ( , [ [ [ _ [ _ [ [ [ [ [ [ [ [ [ [ [ [ , , ) ) ) ) 1 1 0 . # % # . . . . . . . . . ",
". . . . . . . . . . . . . . . . 1 1 ) ) ) ) , , [ [ [ [ [ [ [ 4 [ [ [ [ [ [ [ [ [ [ , , ) ) ) ) 1 1 . . . . . . . . . . . . . . ",
". . . . . . . . . . . . . . . . 1 1 ) ) ) ) ) ) [ [ [ [ [ [ _ [ [ [ [ [ [ [ [ [ [ [ ) ) ) ) ) / 1 1 . . . . . . . . . . . . . . ",
". . . . . . . . . . . . . . . . 1 1 ) ) ) ) ) ) [ 4 [ 4 [ [ [ [ [ [ [ [ [ [ [ [ [ 4 ) / ) ) ) ) 1 1 . . . . . . . . . . . . . . ",
". . . . . . . . . . . . . . . . 1 1 ) ) ) ) ) ) , , 4 [ 4 [ 4 [ [ [ [ [ [ [ [ [ , , ) ) ) ) ) ) 1 1 . . . . . . . . . . . . . . ",
". . . . . . . . . . . . . . . . 1 1 ) ) { { ) ) , , [ [ _ [ _ _ [ [ [ [ [ [ [ [ , , ) ) ) ) ) ) 1 1 . . . . . . . . . . . . . . ",
". . . . . . . . . . . . . . . . 1 1 ) ) ) ) ) ) ) ) , , , , ( , , , , , , , , , ) ) ) ) ) ) ) ) 1 1 . . . . . . . . . . . . . . ",
". . . . . . . . . . . . . . . . 1 a ) ) / ) ) ) ) ) , , , , , , , , , , , , , , / ) { / { ) ) ) 1 1 . . . . . . . . . . . . . . ",
". . . . . . . . . . . . . . . . 1 1 ) ) / ) ) ) ) ) { ) ) ) ) ) ) ) ) ) ) ) ) ) ) ) ) ) ) ) ) ) 1 1 . . . . . . . . . . . . . . ",
". . . . . . . . . . . . . . . . e 1 / } { ) ~ ) 8 ) ) ) ) ) ) ) ) ) / 6 ) ) ~ ) ) ~ ) ) ) ) ) ) 1 1 0 . # % # . . . . . . . . . ",
". . . . . . . . . . . . . . . . . . 1 1 8 ) ) ) ) ) ^ ) ) 3 ) ) ) / ) ) ) 3 ! } f ^ ) g h ) 1 1 . @ $ 0 . + . . . . . . . . . . ",
". . . . . . . . . . . . . . . . . $ 1 a i ) ^ ) ^ ) } ) ) / ^ ) ^ 8 j { ) ) g ) ) ) k ^ ) ^ 1 b % . . % + % . . . . . . . . . . ",
". . . . . . . . . . . . . . . . . . l m n o } p [ [ c c < q [ 4 4 r 4 4 4 < s [ r [ g t u o u v # $ . # . . . . . . . . . . . . ",
". . . . . . . . . . . . . . . . . . w w x v ^ ^ < [ < [ 9 9 [ [ [ [ 4 _ y r z [ 7 [ 6 A o o B B . * + . @ . . $ . . . . . . . . ",
". . . . . . . . . . . . . . . . . . C u D D a a ^ ^ E F [ [ 1 1 1 1 1 1 [ [ F F 6 / 1 G D D u H . - @ - . . % $ . . . . . . . . ",
". . . . . . . . . . . . . . . . . # n H I D 1 J ) ) F F [ 7 1 1 1 1 1 a [ r K F } / 1 1 L M o o . # . # $ . . . . . . . . . . . ",
". . . . . . . . . . . . . . . . % . B o N O o o P P Q Q 1 1 P R P P S P 1 1 T Q P S H o D N o o @ . . . . + . . . . . . . . . . ",
". . . . . . . . . . + . . . . @ . . o u D D n o P P U T b 1 P P P V P P 1 b W Q P P o o D D o o . . . . . . . . . . . . . . . . ",
". . . . . . . . . . . $ # . # . . . + * w X o o P P Y Y Y Z ` Y Y `  .` Y Y ..Y P +.i ) o v . @ . . . . . . . . . . . . . . . . ",
". . . . . . . . $ % . . - @ - . $ 0 # @.B #.o o P P $.Y %...Y Y Y &.Y *.=...Y %.V P ) ) o u $ $ . . . . . . . . . . . . . . . . ",
". . . . . . . . $ . . @ . + * . - % ; ; / / { ) -.;.+.>. .&.,...P '. ...).&.!.!.~.{.j ^ + + & # . . . . . . . . . . . . . . . . ",
". . . . . . . . . . . . # . $ # ].^.].0 ) ) p p {./.R V =...Y %.(._.$.&.:...P P {.<.} ) ; 5 . - . . . . . . . . . . . . . . . . ",
". . . . . . . . . . % + % . . % , [.) }.} ) [ r |.[ ) 8 ) ^ S P P '.1.P k ) ) { [ [ ) ) + + . . . . . . . . . . . . . . . . . . ",
". . . . . . . . . . + . 0 $ @ . , , ) / 3 i |.4 2.[ ) ) ) ) P P P P 3.P { f ) ) [ 7 ) } . @ . $ . . . . . . . . . . . . . . . . ",
". . . . . . . . . # % # . 0 1 1 F F , , [ 7 [ [ r [ ( 4.4 _ ) ) ) / ^ ) [ [ , , [ [ [ r 1 1 # . . . . . . . . . . . . . . . . . ",
". . . . . . . . . . . . . $ 1 1 F 5.' ' [ [ s r [ 7 , , s r ~ j ^ ) ^ ) [ [ ' ] 7 [ r [ 1 e # . . . . . . . . . . . . . . . . . ",
". . . . . . . . - . . . . % 1 1 F 6.7.F _ 8.1 1 ) / 9.] , d 0.0.7 7 0.0., , 4., p ) [ < ) / 1 1 . . . . . . . . . . . . . . . . ",
". . . . . . . . . * . . . & 1 1 a.b.F F _ [ 1 b ^ ) , , ( , c.c.[ 4 0.0., ] , , ~ ^ 4 8./ ~ 1 1 . . . . . . . . . . . . . . . . ",
". . . . . . . . . - . . . . # . 1 1 1 J 1 J d.} / / 7.7.( d e.0.0.f., , ( ( F g.h.a i.j.k.l.1 b . . . . . . . . . . . . . . . . ",
". . . . . . . . . . . . . . % . b J b 1 1 a ^ }.) ) F F ' d 0.0.0.0., , , , a.a.m.J n.o.p.k.1 q.. . . . . . . . . . . . . . . . ",
". . . . . . . . 0 . % # r.. s.. . . . . ].- a 1 ) ^ p { 7.E t.a.F F 0.0.F F } ) 2 a E t.E F 1 1 . . . . . . . . . . . . . . . . ",
". . . . . . . . . . # . . + . u.. - + . + $ 1 1 { ) f ) 5.F F F v.F 0.0.w.E / ) 1 1 a.F F F 1 1 . . . . . . . . . . . . . . . . ",
". . . . . . . . . . . . . . . . # . . - . - 1 1 ) ) ~ ) ) 8 { ^ 8 8 ) ) 8 ) 1 1 x.1 2 1 1 1 y.. . . . . . . . . . . . . . . . . ",
". . . . . . . . . . . . . . . . . # % # . 0 1 1 ) ) ) ) ) } ) 8 ) ) j ) ) 8 1 1 1 1 a a 1 1 % $ . . . . . . . . . . . . . . . . ",
". . . . . . . . . . . . . . . . . . + . 0 $ @ . 1 a / ) 9., z., , 4.1 1 1 1 | | . . A.$ ; @ . @ . . . . . . . . . . . . . . . . ",
". . . . . . . . . . . . . . . . . . % + % . . % 1 b ) ^ B.C.D.( , E.1 1 1 J - . $ . . % . $ . $ . . . . . . . . . . . . . . . . ",
". . . . . . . . . . . . . . . . . . . . # . $ # 1 1 +.F.8 t 8 p a G % @ % . . . . @ . # @ . . . . . . . . . . . . . . . . . . . ",
". . . . . . . . . . . . . . . . $ . . @ . + * . a a G._.~ H.~ i J J | $ + + . 0 . . . s.. $ + . . . . . . . . . . . . . . . . . ",
". . . . . . . . . . . . . . . . $ % . . - @ - . . . e a F I.F F e 1 % . % . . . . . . . % % # . . . . . . . . . . . . . . . . . ",
". . . . . . . . . . . . . . . . . . . $ # . # . . . 1 b K 7.J.5.1 b + . + # . . # # . u.. . . . . . . . . . . . . . . . . . . . ",
". . . . . . . . . . . . . . . . . . + . . . . @ . % 1 1 F w.F 5.1 1 . # . # . @ # . . . . . . + . . . . . . . . . . . . . . . . ",
". . . . . . . . . . . . . . . . . . . . . . . . # . 1 2 F F F F 1 1 0 . # % # . . . . . . . . . . . . . . . . . . . . . . . . . ",
". . . . . . . . . . . . . . . . . . . . . . . . . $ + & 1 J 1 1 . @ $ 0 . + . . . . . . . . . . . . . . . . . . . . . . . . . . ",
". . . . . . . . . . . . . . . . . . . . . . . . @ . $ 0 1 1 b 1 % . . % + % . . . . . . . . . . . . . . . . . . . . . . . . . . ",
". . . . . . . . . . . . . . . . . . . . . . . . . . . K.# ].| ].# $ . # . . . . . . . . . . . . . . . . . . . . . . . . . . . . ",
". . . . . . . . . . . . . . . . . . . . . . . . - . . . r.5 5 . . * + . @ . . $ . . . . . . . . . . . . . . . . . . . . . . . . ",
". . . . . . . . . . . . . . . . . . . . . . . . @ @ . . $ . | . . - @ - . . % $ . . . . . . . . . . . . . . . . . . . . . . . . ",
". . . . . . . . . . . . . . . . . . . . . . . . . % + 0 r.- . . . # . # $ . . . . . . . . . . . . . . . . . . . . . . . . . . . ",
". . . . . . . . . . . . . . . . . . . . . . . . . r.- . . . . - @ . . . . + . . . . . . . . . . . . . . . . . . . . . . . . . . "};
