/* XPM */
static char * trf_front_sx_xpm[] = {
"64 64 175 2",
"  	c None",
". 	c #70C8A0",
"+ 	c #70C8A2",
"@ 	c #71C9A1",
"# 	c #6EC9A0",
"$ 	c #70C89E",
"% 	c #71C9A3",
"& 	c #71C7A0",
"* 	c #6FC79F",
"= 	c #6DC89F",
"- 	c #71C89E",
"; 	c #6EC8A2",
"> 	c #71C7A2",
", 	c #484850",
"' 	c #2F2F37",
") 	c #303038",
"! 	c #313038",
"~ 	c #302F37",
"{ 	c #47474F",
"] 	c #494951",
"^ 	c #313139",
"/ 	c #30303A",
"( 	c #484852",
"_ 	c #606068",
": 	c #606166",
"< 	c #5F5F69",
"[ 	c #5F5F67",
"} 	c #303136",
"| 	c #000000",
"1 	c #2F3035",
"2 	c #000100",
"3 	c #6FCAA1",
"4 	c #70C69F",
"5 	c #616169",
"6 	c #616068",
"7 	c #2F2F39",
"8 	c #61616B",
"9 	c #2E3138",
"0 	c #494850",
"a 	c #5E616A",
"b 	c #000002",
"c 	c #010101",
"d 	c #6EC99E",
"e 	c #010000",
"f 	c #2E2E36",
"g 	c #313237",
"h 	c #2F3239",
"i 	c #302E39",
"j 	c #2E313A",
"k 	c #31313B",
"l 	c #323139",
"m 	c #60214E",
"n 	c #622050",
"o 	c #602150",
"p 	c #2F3237",
"q 	c #60606A",
"r 	c #5E6168",
"s 	c #5F6065",
"t 	c #2E3136",
"u 	c #5F2150",
"v 	c #631F4E",
"w 	c #62204E",
"x 	c #602052",
"y 	c #312F3A",
"z 	c #616066",
"A 	c #626169",
"B 	c #5F204D",
"C 	c #5F2152",
"D 	c #612251",
"E 	c #B14098",
"F 	c #010100",
"G 	c #9088B9",
"H 	c #8F87B8",
"I 	c #631F50",
"J 	c #B03F97",
"K 	c #B13F97",
"L 	c #9088B7",
"M 	c #010103",
"N 	c #AE4097",
"O 	c #B24199",
"P 	c #D7986F",
"Q 	c #D89970",
"R 	c #E9E8F8",
"S 	c #D99870",
"T 	c #B24098",
"U 	c #E9E8FA",
"V 	c #D99A71",
"W 	c #E9E8F6",
"X 	c #E7E9F8",
"Y 	c #D79970",
"Z 	c #F8D0B7",
"` 	c #F8D0B6",
" .	c #F9D1B8",
"..	c #F6D1B7",
"+.	c #F6D0B9",
"@.	c #602251",
"#.	c #632151",
"$.	c #F9CFB7",
"%.	c #F9CFB6",
"&.	c #F7CFB6",
"*.	c #F8CFB9",
"=.	c #D89872",
"-.	c #5E1F4E",
";.	c #6DC89D",
">.	c #784041",
",.	c #774141",
"'.	c #D6986F",
").	c #F6D0BB",
"!.	c #D8996E",
"~.	c #F6D1B6",
"{.	c #78403F",
"].	c #764040",
"^.	c #784043",
"/.	c #F9D0B4",
"(.	c #F9CFB9",
"_.	c #D99872",
":.	c #D79771",
"<.	c #7A3F41",
"[.	c #71C99F",
"}.	c #6FCA9F",
"|.	c #D89A71",
"1.	c #616267",
"2.	c #484651",
"3.	c #D8976F",
"4.	c #5E6166",
"5.	c #464950",
"6.	c #48494E",
"7.	c #9187B9",
"8.	c #49484E",
"9.	c #D8580F",
"0.	c #D7590F",
"a.	c #615F6A",
"b.	c #9189BA",
"c.	c #9188B7",
"d.	c #D8580D",
"e.	c #48474D",
"f.	c #494953",
"g.	c #9189BC",
"h.	c #9088BB",
"i.	c #BFBAD1",
"j.	c #C1B7D0",
"k.	c #BDBACF",
"l.	c #BFB7CF",
"m.	c #000200",
"n.	c #46494E",
"o.	c #313036",
"p.	c #010002",
"q.	c #BEB8D2",
"r.	c #C3B6D0",
"s.	c #C1B7D2",
"t.	c #020001",
"u.	c #8F87BA",
"v.	c #48474F",
"w.	c #DA570F",
"x.	c #DA580D",
"y.	c #8F89B9",
"z.	c #D85811",
"A.	c #6FC79D",
"B.	c #6FC7A1",
"C.	c #D7570E",
"D.	c #908ABA",
"E.	c #6FC9A3",
"F.	c #72CAA2",
"G.	c #020100",
"H.	c #72C8A1",
"I.	c #47484D",
"J.	c #494752",
"K.	c #4A4A52",
"L.	c #4A4951",
"M.	c #4A494F",
"N.	c #D79A6E",
"O.	c #32303B",
"P.	c #DA9973",
"Q.	c #8C89B8",
"R.	c #72C8A3",
". . . . . . . . . . . . . . . . + + + . @ @ @ . @ . . . . . . . . . . . . . . . + . . . . . . # . . . . . . . . . . . . . . . . ",
". . . . . . . . . . . . . . . . . . . . . . . . $ $ $ $ $ $ $ $ $ $ . $ . $ $ $ # . @ . @ . . . . . . . . . . . . . . . . . . . ",
". . . . . . . . . . . . . . . . + . . . + . . . . @ . @ . . @ . + . + % . + . . . . . @ . @ & . . . . . . . . . . . . . . . . . ",
". . . . . . . . . . . . . . . . $ . & . $ # . . . . . * * * * @ $ # . = . # $ . $ - @ & @ . # . . . . . . . . . . . . . . . . . ",
". . . . . . . . . . . . . . . . . . + & ; . . + . . . @ @ @ . . + & % > @ > + . . + . . . . . . . . . . . . . . . . . . . . . . ",
". . . . . . . . . . . . . . . . . . . . . . . . , , ' ' ) ) ) ) ! ) ~ ) { , . . . . . & # & . . . . . . . . . . . . . . . . . . ",
". . . . . . . . . . . . . . . . . . . . . * . . ] , ) ) ' ^ ) ) / ) / ) , ( . . # . . # . # . & . . . . . . . . . . . . . . . . ",
". . . . . . . . . . . . . . . . . . . . ' ) ) ) , , _ _ _ _ _ _ _ : < [ , , ) ) ) ! @ & . . $ . . . . . . . . . . . . . . . . . ",
". . . . . . . . . . # . . . . + . . . . ) ) ) / , , _ _ _ _ _ _ _ _ _ _ , , ) ' } } . & $ . & . . . . . . . . . . . . . . . . . ",
". . . . . . . . . . . $ @ . @ . # . | | ) ) _ : _ _ _ _ _ _ _ _ _ _ _ _ _ _ _ _ ) 1 2 | 3 . @ . . . . . . . . . . . . . . . . . ",
". . . . . . . . $ & . . * + * . 4 & | | ) ) _ _ _ _ _ 5 _ _ _ _ _ _ _ _ _ _ _ _ ' ) | | . . . . . . . . . . . . . . . . . . . . ",
". . . . . . . . $ . . + . # - . | | ) ) : : 5 6 [ _ _ _ _ [ _ _ _ 5 _ _ [ _ _ _ _ [ ) 7 | | $ . . . . . . . . . . . . . . . . . ",
". . . . . . . . . . . . @ . $ @ | | ) } 8 _ 5 _ _ _ 5 5 _ _ 5 _ _ _ 5 _ 5 _ _ _ _ _ ) 9 | | @ . . . . . . . . . . . . . . . . . ",
". . . . . . . . . . & # & . . & | | ) / _ 8 0 , , , , { , , , , , , , , { , , , a _ / ) b c d . . . . . . . . . . . . . . . . . ",
". . . . . . . . . . # . d $ + . | | ! ! _ _ , , , , , , , , { , ] , , { , , , , _ 6 ) ! | | . + . . . . . . . . . . . . . . . . ",
". . . . . . . . . @ & @ . d | | ) ) ) ) , , _ _ _ _ _ _ _ _ _ _ _ _ [ _ [ _ _ _ , ] ' 9 ! } | | . . . . . . . . . . . . . . . . ",
". . . . . . . . . . . . . . | | ) ) ) ) , , _ _ _ _ _ _ _ _ _ _ 5 _ _ _ _ _ _ _ , , ) ) ) ) | | . . . . . . . . . . . . . . . . ",
". . . . . . . . . . . . . . | | ^ ) ) ) ) ) _ _ _ _ _ _ _ _ _ _ _ [ _ _ _ _ _ _ ) ) ) ) ) ) | | . . . . . . . . . . . . . . . . ",
". . . . . . . . . . . . . . | | ) ) ) ) ^ ) 5 _ _ _ _ _ _ _ _ _ _ _ _ _ 5 _ 5 _ ) ) ) ) ) ) | | . . . . . . . . . . . . . . . . ",
". . . . . . . . . . . . . . | | ) ) ) ) ) ) , , _ _ _ _ _ _ _ _ _ 5 _ 5 _ 5 , , ) ) ) ) ) ) | | . . . . . . . . . . . . . . . . ",
". . . . . . . . . . . . . . | | ) ) ) ) ) ) , , _ _ _ _ _ _ _ _ [ [ _ [ _ _ , , ) ) ' ' ) ) | | . . . . . . . . . . . . . . . . ",
". . . . . . . . . . . . . . | | ) ) ) ) ) ) ) ) , , , , , , , , , ] , , , , ) ) ) ) ) ) ) ) | | . . . . . . . . . . . . . . . . ",
". . . . . . . . . . . . . . | | ) ) ) ' ^ ' ) ^ , , , , , , , , , , , , , , ) ) ) ) ) ^ ) ) c | . . . . . . . . . . . . . . . . ",
". . . . . . . . . . . . . . | | ) ) ) ) ) ) ) ) ) ) ) ) ) ) ) ) ) ) ) ) ) ' ) ) ) ) ) ^ ) ) | | . . . . . . . . . . . . . . . . ",
". . . . . . . . . @ & @ . d | | ) ) ) ) ) ) ! ) ) ! ) ) 7 ^ ) ) ) ) ) ) ) ) ) 9 ) ! ) ' } ^ | e . . . . . . . . . . . . . . . . ",
". . . . . . . . . . # . d $ + . | | ) f g ) / h } i 1 ) ) ) ^ ) ) ) 1 ) ) / ) ) ) ) ) 9 | | . . . . . . . . . . . . . . . . . . ",
". . . . . . . . . . & # & . . & b | / ) / j ) ) ) ^ ) ) ' k 9 / ) / ^ ) ) } ) / ) / ) l c | $ . . . . . . . . . . . . . . . . . ",
". . . . . . . . . . . . @ . $ @ m n o n p g _ q _ r : 5 5 5 q 5 5 _ s : a a _ _ t } o u v w . . . . . . . . . . . . . . . . . . ",
". . . . . . . . $ . . + . # - . x x o o y 7 _ 6 _ z q A [ 5 _ _ _ _ 8 8 _ : _ : / / m B C C . . . . . . . . . . . . . . . . . . ",
". . . . . . . . $ & . . * + * . D n E E F | ^ 7 G G _ _ | | | | | | _ _ G H / / c c E E n I . . . . . . . . . . . . . . . . . . ",
". . . . . . . . . . . $ @ . @ . o o J K | | ^ } G L q _ c | | | | | 6 _ G G ) ) M | E N D u @ . . . . . . . . . . . . . . . . . ",
". . . . . . . . . . # . . . . + o o O E o D P Q R R | | Q P Q Q S Q | | R R Q Q o o T O o x . & . . . . . . . . . . . . . . . . ",
". . . . . . . . . . . . . . . . o o E E o o Q Q R U b | Q Q V Q Q Q | b W X Q Q o u E E n o . . + . . . . # . . . . . . . . . . ",
". . . . . . . . . . . . . . . . + . m o ^ l Y Q Z ` Z Z  ... .Z Z  .+.Z Z ` Q Q o o @.C - # . . . @ . @ $ . . . . . . . . . . . ",
". . . . . . . . . . . . . . . . $ $ #.o ) ) Q V $.Z ` %.&.Z *.Z Z Z ` $.Z $.Q =.o o -.x ;.@ d $ . * + * . . & $ . . . . . . . . ",
". . . . . . . . . . . . . . . . @ + # # / k >.,.'.'.*.).` ..!.Q Z ~.*...=.Y {.].) ' ^ ^ > > & * . - # . + . . $ . . . . . . . . ",
". . . . . . . . . . . . . . . . * . 4 > ) } ^.>.Q Q ` /.*.(._.:.$.Z ` %.V S <.>.t t ) ) d [.}.[.@ $ . @ . . . . . . . . . . . . ",
". . . . . . . . . . . . . . . . . . # # ) ' 5 _ ' ) ) j Q |.!.Q Q P / ) 9 ) _ 1.q _ ) } i ) 2., & . . & # & . . . . . . . . . . ",
". . . . . . . . . . . . . . . . $ . + . } ) 6 _ ) ) h ' Q 3.Q Q Q Q ) ) ) ) _ 4.5 1.l 1 ^ ) , , . + $ d . # . . . . . . . . . . ",
". . . . . . . . . . . . . . . . . @ | | 8 _ _ _ , , _ _ ) / ^ ) / ) [ 5 5.] _ q _ _ 6 _ , , G G | | d . @ & @ . . . . . . . . . ",
". . . . . . . . . . . . . . . . . @ e | _ q _ 6 , { _ _ / ) ) ) ) ) [ _ , 6._ _ q r _ _ { { 7.G | | $ . . . . . . . . . . . . . ",
". . . . . . . . . . . . . . . . | | ^ ) : _ ) t 6., 8.0 9.0.a._ 9.9.] , , , ) ^ | | a.[ G b.c.G | | & . . . . * . . . . . . . . ",
". . . . . . . . . . . . . . . . | | ! ^ a.5 / ! , , , , d.9.r _ 9.9.0 e.f.6.) ) b | _ [ G G g.h.| | % . . . - . . . . . . . . . ",
". . . . . . . . . . . . . . . . b | i.j.k.l.c m.G L , n.9.0.9.9.] , , ( L G ) ^ } o.M | M | | | . @ . . . . * . . . . . . . . . ",
". . . . . . . . . . . . . . . . p.| j.q.r.s.M t.G u.0 v.w.x.9.9., , , 6.G L ' ' i / c | | b M b . & . . . . . . . . . . . . . . ",
". . . . . . . . . . . . . . . . | | G H y.H c 2 ) ) 7.L g.G G G z.9.G G ) 7 ' ) | c * [.. . . . . A.. B.@ & . d . . . . . . . . ",
". . . . . . . . . . . . . . . . | | G G G h.| | ) ) G G G G G H 9.C.D.y.) ) ) ) | | $ # . # * . E.. # . . @ . . . . . . . . . . ",
". . . . . . . . . . . . . . . . . F.| | | 2 | G.| | ) ) ) ) ) ! ) ) / / ) ' ) ) | | * . * . . @ . . . . . . . . . . . . . . . . ",
". . . . . . . . . . . . . . . . $ & | | | c | | | b 9 ) ) ^ ) ) 9 ) } ) ^ ) ) ) | | d . @ & @ . . . . . . . . . . . . . . . . . ",
". . . . . . . . . . . . . . . . + . + > $ H.. . 3 3 | | | | 5., , I., 6.) ) | | . + $ d . # . . . . . . . . . . . . . . . . . . ",
". . . . . . . . . . . . . . . . $ . $ . & . . $ . * M | | | J., f.K.L.M./ ) b | & . . & # & . . . . . . . . . . . . . . . . . . ",
". . . . . . . . . . . . . . . . . . . + . . + . . . . & . & F c t 9 t j N.Y | | @ $ . @ . . . . . . . . . . . . . . . . . . . . ",
". . . . . . . . . . . . . . . . @ # $ . A.. . . # . # # $ 3 M M l ! O.! _.P.c c . - # . + . . $ . . . . . . . . . . . . . . . . ",
". . . . . . . . . . . . . . . . . @ & & . . . . + . . & . & | e G G Q.G F e . . . * + * . . & $ . . . . . . . . . . . . . . . . ",
". . . . . . . . . . . . . . . . . . . . E.. @ @ . . @ # . # b | 7.7.b.G b | . . . @ . @ $ . . . . . . . . . . . . . . . . . . . ",
". . . . . . . . . . . . . . . . # . . . . . . @ + . @ . @ . | | 7.L L G | | & . + . . . . # . . . . . . . . . . . . . . . . . . ",
". . . . . . . . . . . . . . . . . . . . . . . . . @ & @ . d | | G G G G 2 | . @ . . . . . . . . . . . . . . . . . . . . . . . . ",
". . . . . . . . . . . . . . . . . . . . . . . . . . # . d $ + . | | M | % # $ . . . . . . . . . . . . . . . . . . . . . . . . . ",
". . . . . . . . . . . . . . . . . . . . . . . . . . & # & . . & | b | | d $ . + . . . . . . . . . . . . . . . . . . . . . . . . ",
". . . . . . . . . . . . . . . . . . . . . . . . . . . . @ . $ @ [.3 [.@ R.. . . . . . . . . . . . . . . . . . . . . . . . . . . ",
". . . . . . . . . . . . . . . . . . . . . . . . $ . . + . # - . . 4 4 B.. . . * . . . . . . . . . . . . . . . . . . . . . . . . ",
". . . . . . . . . . . . . . . . . . . . . . . . $ & . . * + * . . 3 . $ . . + + . . . . . . . . . . . . . . . . . . . . . . . . ",
". . . . . . . . . . . . . . . . . . . . . . . . . . . $ @ . @ . . . * B.d # & . . . . . . . . . . . . . . . . . . . . . . . . . ",
". . . . . . . . . . . . . . . . . . . . . . . . . . # . . . . + * . . . . * B.. . . . . . . . . . . . . . . . . . . . . . . . . "};
