/* XPM */
static char * trf_back_xpm[] = {
"64 64 132 2",
"  	c None",
". 	c #70C8A0",
"+ 	c #71C9A1",
"@ 	c #6FC79F",
"# 	c #6DC89F",
"$ 	c #70C89E",
"% 	c #70C8A2",
"& 	c #71C9A3",
"* 	c #6EC8A2",
"= 	c #6FC79D",
"- 	c #71C89E",
"; 	c #71C99F",
"> 	c #71C7A0",
", 	c #6EC9A0",
"' 	c #494752",
") 	c #484850",
"! 	c #303038",
"~ 	c #303136",
"{ 	c #30303A",
"] 	c #312F3A",
"^ 	c #606068",
"/ 	c #5F5F67",
"( 	c #47474F",
"_ 	c #48494E",
": 	c #5F6065",
"< 	c #000000",
"[ 	c #010101",
"} 	c #2F3035",
"| 	c #2E3136",
"1 	c #606166",
"2 	c #616267",
"3 	c #616169",
"4 	c #6FCAA1",
"5 	c #000002",
"6 	c #010103",
"7 	c #31313B",
"8 	c #615F6A",
"9 	c #626169",
"0 	c #302F35",
"a 	c #5E6168",
"b 	c #313139",
"c 	c #2F2F37",
"d 	c #60606C",
"e 	c #60606A",
"f 	c #616068",
"g 	c #494951",
"h 	c #464952",
"i 	c #2D3039",
"j 	c #000100",
"k 	c #2E3138",
"l 	c #72C8A1",
"m 	c #313036",
"n 	c #474A51",
"o 	c #313038",
"p 	c #32303B",
"q 	c #494953",
"r 	c #2F2F39",
"s 	c #313237",
"t 	c #010100",
"u 	c #5F2150",
"v 	c #5F1F51",
"w 	c #602150",
"x 	c #5F204F",
"y 	c #B14098",
"z 	c #903980",
"A 	c #B24298",
"B 	c #B03F99",
"C 	c #622050",
"D 	c #60214E",
"E 	c #8F387F",
"F 	c #B24098",
"G 	c #B34199",
"H 	c #000201",
"I 	c #010000",
"J 	c #B03F97",
"K 	c #B14197",
"L 	c #AF4197",
"M 	c #B24097",
"N 	c #B04299",
"O 	c #AF4198",
"P 	c #B2419B",
"Q 	c #AF419A",
"R 	c #B0429B",
"S 	c #B04096",
"T 	c #B24199",
"U 	c #612251",
"V 	c #90397E",
"W 	c #8F3980",
"X 	c #5E1F4E",
"Y 	c #923880",
"Z 	c #621F52",
"` 	c #92387E",
" .	c #612153",
"..	c #484852",
"+.	c #49484E",
"@.	c #6FC7A1",
"#.	c #6EC99E",
"$.	c #C1B9D1",
"%.	c #2F323B",
"&.	c #464950",
"*.	c #45484D",
"=.	c #000103",
"-.	c #474751",
";.	c #47484D",
">.	c #46494E",
",.	c #2F3239",
"'.	c #C0B8D0",
").	c #4A494F",
"!.	c #9288BA",
"~.	c #9088B9",
"{.	c #9189BA",
"].	c #8F87B8",
"^.	c #494850",
"/.	c #45484F",
"(.	c #8F89B9",
"_.	c #9187B9",
":.	c #616066",
"<.	c #9088BB",
"[.	c #D6996D",
"}.	c #D79A6E",
"|.	c #5D6067",
"1.	c #4A4951",
"2.	c #72C79E",
"3.	c #D99872",
"4.	c #DA9971",
"5.	c #62606B",
"6.	c #9088B7",
"7.	c #2D3037",
"8.	c #9187BB",
"9.	c #2E313A",
"0.	c #6FCA9F",
"a.	c #6FC9A3",
". . . . . . . . . . . . . . . . . . . . . . . . + + @ . . . . . . . . . . @ + + . . . . . . . . . . . . . . . . . . . . . . . . ",
". . . . . . . . . . . . . . . . . . . . . . . . . # $ . . $ @ . . @ $ . . $ # . . . . . . . . . . . . . . . . . . . . . . . . . ",
". . . . . . . . . . . . . . . . . . . . . . . . . . % @ & @ + * * + @ & @ % . . . . . . . . . . . . . . . . . . . . . . . . . . ",
". . . . . . . . . . . . . . . . . . . . . . . . . $ = $ - . @ . . # . - $ = $ . . . . . . . . . . . . . . . . . . . . . . . . . ",
". . . . . . . . . . . . . . . . . . . . . . . . . & . . . % % % % % % . . . & . . . . . . . . . . . . . . . . . . . . . . . . . ",
". . . . . . . . . . . . . . . . . . . . . . . . . $ @ ; @ + > . . > + @ ; @ $ . . . . . . . . . . . . . . . . . . . . . . . . . ",
". . . . . . . . . . . . . . . . . . . . . . . . . + . . . . . . . . . . . . + . . . . . . . . . . . . . . . . . . . . . . . . . ",
". . . . . . . . . . . . . . . . . . . . . . . . , ' ) ! ! ~ { ! ! { ~ ! ! ) ' , . . . . . . . . . . . . . . . . . . . . . . . . ",
". . . . . . . . . . . . . . . . . . + . , . . . , ) ) ! { ~ { ! ! { ~ { ! ) ) , . . . , . + . . . . . . . . . . . . . . . . . . ",
". . . . . . . . . . . . . . . . , . $ . + ! ] ! ! ) ) ^ / ^ ^ ^ ^ ^ ^ / ^ ) ) ! ! ] ! + . $ . , . . . . . . . . . . . . . . . . ",
". . . . . . . . . . . . . . . . . $ . . % ! ! ! ! ( _ : ^ ^ ^ ^ ^ ^ ^ ^ : _ ( ! ! ! ! % . . $ . . . . . . . . . . . . . . . . . ",
". . . . . . . . . . . . . . . . + > . < [ } | : ^ ^ 1 2 / 3 ^ ^ ^ ^ 3 / 2 1 ^ ^ : | } [ < . > + . . . . . . . . . . . . . . . . ",
". . . . . . . . . . . . . . . . , 4 @ 5 6 7 ! 8 ^ ^ ^ ^ 9 ^ ^ ^ ^ ^ ^ 9 ^ ^ ^ ^ 8 ! 7 6 5 @ 4 , . . . . . . . . . . . . . . . . ",
". . . . . . . . . . . . . . . . . < < 0 { / 1 ^ 1 ^ ^ 3 ^ ^ 3 a a 3 ^ ^ 3 ^ ^ 1 ^ 1 / { 0 < < . . . . . . . . . . . . . . . . . ",
". . . . . . . . . . . . . . . . . < < b c 3 d ^ e ^ ^ ^ ^ ^ / ^ ^ / ^ ^ ^ ^ ^ e ^ d 3 c b < < . . . . . . . . . . . . . . . . . ",
". . . . . . . . . . . . . . . . > < [ ! ! f a ) g ( ) ) ) g ) h h ) g ) ) ) ( g ) a f ! ! [ < > . . . . . . . . . . . . . . . . ",
". . . . . . . . + . . . + + . . . < < 0 ! ^ 3 ) ) ) ) ) ) ) ) ) ) ) ) ) ) ) ) ) ) 3 ^ ! 0 < < . . . + . . . . + . . . . . . . . ",
". . . . . . . . . . . . $ . % < < { ! i ~ ) ) ^ ^ ^ ^ ^ ^ ^ / ^ ^ / ^ ^ ^ ^ ^ ^ ^ ) ) ~ i ! { < < % + $ . . . . . . . . . . . . ",
". . . . . . . . . . . . . . + 6 j b ! b ! ) ) ^ ^ ^ ^ ^ ^ ^ ^ ^ ^ ^ ^ ^ ^ ^ ^ ^ ^ ) ) ! b ! b j 6 + . . . . . . . . . . . . . . ",
". . . . . . . . . . . @ . . $ < < ! 7 c k b k 1 ^ ^ ^ ^ ^ ^ ^ ^ ^ ^ ^ ^ ^ ^ ^ ^ 1 k b k c 7 ! < < $ . . @ . . . . . . . . . . . ",
". . . . . . . . . . % - @ . . < < ~ ~ ! c ! ~ ^ ^ ^ 3 ^ ^ ^ ^ ^ ^ ^ ^ ^ ^ 3 ^ ^ ^ ~ ! c ! ~ ~ < < . . @ - % . . . . . . . . . . ",
". . . . . . . . . . l . . , . < < ! { c ! m ! n ) 3 ^ 3 / ^ / ^ ^ / ^ / 3 ^ 3 ) n ! m ! c { ! < < . , . . > . . . . . . . . . . ",
". . . . . . . . . . . . . . . < < ! o ! c b ! ) ( ^ 3 ^ ^ ^ ^ ^ ^ ^ ^ ^ ^ 3 ^ ( ) ! b c ! o ! < < . . . . . . . . . . . . . . . ",
". . . . . . . . , % . . . . . < < ! c } ! ! p k ! ! ! ) ( ) ( ) ) ( ) ( ) ! ! ! k p ! ! } c ! < [ @ . . . . % , . . . . . . . . ",
". . . . . . . . . . . . @ . . < < ! ! ! ! ! ! ! c ! ! q ) ) ) g g ) ) ) q ! ! c ! ! ! ! ! ! ! < < . . @ . . . . . . . . . . . . ",
". . . . . . . . . . . % . . . j < ! ! ! ! ! ~ ! c ! ! ! ! c ! ! ! ! c ! ! ! ! c ! ~ ! ! ! ! ! < j . . . % . . . . . . . . . . . ",
". . . . . . . . ; . , . . . . < < c r ! s ! ! ! ! ! ! ! ! ! ! ! ! ! ! ! ! ! ! ! ! ! ! s ! r c < < . . . . , . ; . . . . . . . . ",
". . . . . . . . , @ . * . 4 . 4 $ t < b c ! ~ m ~ ! ! ! { ! ! { { ! ! { ! ! ! ~ m ~ ! c b < t $ 4 . 4 . * . @ , . . . . . . . . ",
". . . . . . . . ; l . . . . @ . + 5 5 ~ ~ ! 7 7 { c ! { ! b ! b b ! b ! { ! c { 7 7 ! ~ ~ 5 5 + . @ . . . . l ; . . . . . . . . ",
". . . . . . . . . @ > * + . . @ $ < < u v ! ! o { ! ! ! ! ! ! ! ! ! ! ! ! ! ! { o ! ! v u < < $ @ . . + * > @ . . . . . . . . . ",
". . . . . . . . . . . 4 + . . % . < [ w u ! ! b ~ ! ! ! s ! ! ! ! ! ! s ! ! ! ~ b ! ! u w [ < . % . . + 4 . . . . . . . . . . . ",
". . . . . . . . . $ % @ . . , $ ; w x y y < < < j ~ 7 ! ! ! ! ! ! ! ! ! ! 7 ~ j < < < y y x w ; $ , . . @ % $ . . . . . . . . . ",
". . . . . . . . . . . . . . . . . w w y y < < < [ b ! ! ! ! ! ! ! ! ! ! ! ! b [ < < < y y w w . . . . . . . . . . . . . . . . . ",
". . . . . . . . . . . . . . . . . w w z z A y y B < < [ < < 5 < < 5 < < [ < < B y y A z z C w . . . . . . . . . . . . . . . . . ",
". . . . . . . . . . . . . . . . . D w z E F y G y H 6 < 5 I < < < < I 5 < 6 H y G y F E z C D . . . . . . . . . . . . . . . . . ",
". . . . . . . . . . . . . . . . . , . [ [ J F y K y L A M N y O O y N M A L y K y F J [ [ . , , . . . . . . . . . . . . . . . . ",
". . . . . . . . . . . . . . . . . > $ 6 5 O K F P y y Q R S T J J T S R Q y y P F K O 5 6 $ > . . . . . . . . . . . . . . . . . ",
". . . . . . . . . . . . . . . . @ # @ w U 5 < V W T K U w y T y y T y w U K T W V < 5 U w @ # @ . . . . . . . . . . . . . . . . ",
". . . . . . . . . . . . . . . . . . . U X < [ Y Y K y u Z y T A A T y Z u y K Y Y [ < X U . . . . . . . . . . . . . . . . . . . ",
". . . . . . . . . . . . . . . . . . . I < k ! < < j I w U ` z z z z ` U w I j < < ! ! < I . . . . . . . . . . . . . . . . . . . ",
". . . . . . . . % . . . . . . @ . . . < 5 { { < < < < w  .z z z z z z  .w < < < < { ! < < . . . @ . . . . . . % . . . . . . . . ",
". . . . . . . . . . . . % . . , . [ I ..+.( ) ! ! ! c 6 j < < [ [ < < j 6 c ! ! ! ) ( +...I [ . , . . % . . . . . . . . . . . . ",
". . . . . . . . . . % @.> + $ . , < < ) q ' ..c ! ! b < < < < < < < < < < b ! ! c ..' q ) < < #.. $ + > @.% . . . . . . . . . . ",
". . . . . . . . . @ $ #.> % + ! ! $.$.%.! &.*.=.5 -.( ' -.;.) ) ) ) ;.-.' ( -.5 =.*.>.! %.$.$.! ! + % > #.$ @ . . . . . . . . . ",
". . . . . . . . % . . . . > . ,.k '.'.} ~ ' ' < < _ ).&.g g ) ) ) ) g g &.)._ < < ' ' ~ } '.'.k ,.. > . . . . % . . . . . . . . ",
". . . . . . . . . . . , . . . ] o !.~.~.~.[ [ ) ..{.].^./.^ ^ e e ^ ^ /.^.].{...) [ t ~.~.~.!.o ] . . . , . . . . . . . . . . . ",
". . . . . . . . . . . . . . . ! ! (.~.~.(.< < /...(._.&.^.^ :.2 2 :.^ ^.&._.(.../.< < (.~.~.(.! ! . . . . . . . . . . . . . . . ",
". . . . . . . . . % . . . . $ + . ! ! c k < < b ! ) ) ~.(.<.~.~.~._.<.(.~.) &.! b < < k c ! ! . + $ . . . . % . . . . . . . . . ",
". . . . . . . . . . . . . . . . . ! ! ! ! < < ! c _ ) ~.<.~.].~.{.~.~.<.~.) _ c ! < < ! ! ! ! . . . . . . . . . . . . . . . . . ",
". . . . . . . . . . . . . . . . $ . = . @ < < _ ) ! ! ! ! ! ! ! ! ! ! ! ! ! ! ) _ < < @ . = . $ . . . . . . . . . . . . . . . . ",
". . . . . . . . . . . . . . . . . . . > > < < g ).b ! b ! ! k ! ! k ! ! b ! b ).g < < > > . . . . . . . . . . . . . . . . . . . ",
". . . . . . . . . . . . . . . . . @.@ @ * =.< [.}.a |.h ) ) ) 1.1.) ) ) h |.a }.[.< =.* @ @ @.. . . . . . . . . . . . . . . . . ",
". . . . . . . . . . . . . . . . . $ $ #.2.< < 3.4.8 5.;.) _ ) ) ) ) _ ) ;.5.8 4.3.< < 2.#.$ $ . . . . . . . . . . . . . . . . . ",
". . . . . . . . . . . . . . . . 4 . . > . 5 < ~.~.(.6.b o ! k o o 7.! o b 6.(.~.~.< 5 . > . . 4 . . . . . . . . . . . . . . . . ",
". . . . . . . . . . . . . . . . . , . * $ < [ 8.<._.<.~ 9.o ! ~ ~ ! o 9.~ <._.<.8.[ < $ * . , . . . . . . . . . . . . . . . . . ",
". . . . . . . . . . . . . . . . , . . . . 0.. < < [ < . . % . . % . % . . < < < < . 0.. . . . , . . . . . . . . . . . . . . . . ",
". . . . . . . . . . . . . . . . @ . . . . @ + < 5 H < , . @.% . . % @.. , < H 5 < + @ . . . . @ . . . . . . . . . . . . . . . . ",
". . . . . . . . . . . . . . . . + . + . % . . & % + % . . . * . . * . . . % + % & . . % . + . + . . . . . . . . . . . . . . . . ",
". . . . . . . . . . . . . . . . . , . . . . . = . @.$ % . . . . . . . . % $ @.. = . . . . . , . . . . . . . . . . . . . . . . . ",
". . . . . . . . . . . . . . . . . . . + . . % . . & . + > . . . . . . > + . & . . % . . + . . , . . . . . . . . . . . . . . . . ",
". . . . . . . . . . . . . . . . . . . * + . . . @ . , $ . . a.. . a.. . $ , . @ . . . + % . . . . . . . . . . . . . . . . . . . ",
". . . . . . . . . . . . . . . . . . @ . . . + . . . @ , . . . . . . . . , @ . . . + . . . @ . . . . . . . . . . . . . . . . . . ",
". . . . . . . . . . . . . . . . @ . . . . , . . . . . > + . . . . . . + > . . . . . , . . . . @ . . . . . . . . . . . . . . . . ",
". . . . . . . . . . . . . . . . > @ . . . . + @ @ . . * ; % . . . . % ; * . . @ @ + . , . . @ > . . . . . . . . . . . . . . . . "};
