/* XPM */
static char * trf_back_rx_xpm[] = {
"64 64 155 2",
"  	c None",
". 	c #70C8A0",
"+ 	c #6EC99E",
"@ 	c #70C8A2",
"# 	c #6FC79F",
"$ 	c #71C9A1",
"% 	c #70C89E",
"& 	c #6EC9A0",
"* 	c #71C7A0",
"= 	c #6FC79D",
"- 	c #6FC7A1",
"; 	c #6FC9A3",
"> 	c #70C7A4",
", 	c #6DC89D",
"' 	c #71C9A3",
") 	c #71C7A2",
"! 	c #71C99F",
"~ 	c #484850",
"{ 	c #303038",
"] 	c #30303A",
"^ 	c #313038",
"/ 	c #484852",
"( 	c #2F2F37",
"_ 	c #303136",
": 	c #606068",
"< 	c #6DC89F",
"[ 	c #47474F",
"} 	c #000000",
"| 	c #010100",
"1 	c #2E3138",
"2 	c #5E6168",
"3 	c #5F5F67",
"4 	c #616169",
"5 	c #6EC8A2",
"6 	c #010101",
"7 	c #302F37",
"8 	c #313139",
"9 	c #4A4951",
"0 	c #494951",
"a 	c #464950",
"b 	c #302E39",
"c 	c #72C8A3",
"d 	c #313036",
"e 	c #2F3035",
"f 	c #010000",
"g 	c #2F3239",
"h 	c #000002",
"i 	c #602052",
"j 	c #611E51",
"k 	c #2E313A",
"l 	c #2D3037",
"m 	c #602251",
"n 	c #60234F",
"o 	c #31313B",
"p 	c #312F3A",
"q 	c #60214E",
"r 	c #5F224E",
"s 	c #B14098",
"t 	c #B1409A",
"u 	c #602150",
"v 	c #5F204F",
"w 	c #B14197",
"x 	c #000201",
"y 	c #903980",
"z 	c #8F3980",
"A 	c #5F2150",
"B 	c #612153",
"C 	c #B23F9A",
"D 	c #AF4198",
"E 	c #AE4097",
"F 	c #B24199",
"G 	c #B24298",
"H 	c #70C69F",
"I 	c #B24098",
"J 	c #B13F96",
"K 	c #B2419B",
"L 	c #B34199",
"M 	c #B24097",
"N 	c #B03F97",
"O 	c #91377F",
"P 	c #612251",
"Q 	c #913781",
"R 	c #72C8A1",
"S 	c #913A7F",
"T 	c #913A81",
"U 	c #611F4F",
"V 	c #622050",
"W 	c #8F89B7",
"X 	c #9086B8",
"Y 	c #48494E",
"Z 	c #8F3A7E",
"` 	c #903A81",
" .	c #9088BB",
"..	c #9088B9",
"+.	c #903882",
"@.	c #923880",
"#.	c #913983",
"$.	c #5E204F",
"%.	c #9187B9",
"&.	c #9288BA",
"*.	c #000100",
"=.	c #5E616A",
"-.	c #908ABA",
";.	c #46494E",
">.	c #47484D",
",.	c #48474F",
"'.	c #494752",
").	c #494850",
"!.	c #494953",
"~.	c #615F6A",
"{.	c #616068",
"].	c #6ECAA1",
"^.	c #6FCAA1",
"/.	c #484651",
"(.	c #474751",
"_.	c #000200",
":.	c #BEB9CF",
"<.	c #BEB9D0",
"[.	c #C1B8D3",
"}.	c #C0B7D2",
"|.	c #010103",
"1.	c #494A4F",
"2.	c #49484E",
"3.	c #4A494F",
"4.	c #494A4E",
"5.	c #020003",
"6.	c #C1B7D0",
"7.	c #C0B8D0",
"8.	c #8F87B8",
"9.	c #8F87BA",
"0.	c #8F89B9",
"a.	c #9189BA",
"b.	c #8E88B8",
"c.	c #908AB8",
"d.	c #9189BC",
"e.	c #71C89E",
"f.	c #606166",
"g.	c #5F6269",
"h.	c #5D6067",
"i.	c #484854",
"j.	c #45484F",
"k.	c #323137",
"l.	c #2F2F39",
"m.	c #D79970",
"n.	c #D79A6D",
"o.	c #8C89B8",
"p.	c #D99872",
"q.	c #9187BB",
"r.	c #6DC7A1",
"s.	c #70C79D",
"t.	c #8F87B6",
"u.	c #9088B7",
"v.	c #72C99F",
"w.	c #8F88BB",
"x.	c #72C7A0",
". . . . . . . . . . . . . . . . . + . . @ . . # # . . . . $ . . . . $ . . . . # # . . @ . . + . . . . . . . . . . . . . . . . . ",
". . . . . . . . . . . . . . . . . % . & * % . . * % . % & = + . . + = & % . % * . . % * & . % . . . . . . . . . . . . . . . . . ",
". . . . . . . . . . . . . . . . . . . @ & . @ . - ; > $ . . . @ @ . . . $ > ; - . @ . & @ . . . . . . . . . . . . . . . . . . . ",
". . . . . . . . . . . . . . . . * & # & . . * % % = + = & . = , , = . & = + = % % * . . & # & * . . . . . . . . . . . . . . . . ",
". . . . . . . . . . . . . . . . . # @ # @ ' . . @ @ ) ' * $ @ ) ) @ $ * ' ) @ @ . . ' @ # @ # . . . . . . . . . . . . . . . . . ",
". . . . . . . . . . . . . . . . . ' @ . . $ & $ ! ~ ~ { ] { { ^ ^ { { ] { ~ ~ ! $ & $ . . @ ' . . . . . . . . . . . . . . . . . ",
". . . . . . . . . . . . . . . . . . % . . @ . . . / ~ ( { ( { { { { ( { ( ~ / . . . @ . . % . . . . . . . . . . . . . . . . . . ",
". . . . . . . . . . . . . . . . . . . % @ ^ _ { { ~ ~ : : : : : : : : : : ~ ~ { { _ ^ @ % . . . . . . . . . . . . . . . . . . . ",
". . . . . . . . * # . . . . $ # $ . . . < { { ( { [ ~ : : : : : : : : : : ~ [ { ( { { < . . . $ # $ . & . . # * . . . . . . . . ",
". . . . . . . . # . . . . & . . . . $ } | 1 ^ 2 : 3 : : : : : : : : : : : : 3 : 2 ^ 1 | } $ . $ . . & . . . . # . . . . . . . . ",
". . . . . . . . . . # . . . $ . . . # } } ] { : : : : 4 3 : : : : : : 3 4 : : : : { ] } } # . $ . $ . . . # . . . . . . . . . . ",
". . . . . . . . . . . 5 $ . . . . 6 } ^ 7 : : : : : : : : : : 3 3 : : : : : : : : : : 7 ^ } 6 . . . . $ @ . . . . . . . . . . . ",
". . . . . . . . . . . $ . . @ . $ } } 8 { : 4 : : : : 4 : 4 : : : : 4 : 4 : : : : 4 : { 8 } } $ . @ . . $ . . & . . . . . . . . ",
". . . . . . . . . & . . . . . = . 6 } { _ : : 9 ~ ~ ~ [ 0 ~ ~ ~ ~ ~ ~ 0 [ ~ ~ ~ 9 : : _ { } 6 . = . . . . . & . . . . . . . . . ",
". . . . . . . . $ . $ . @ . . ' @ } } ] ( 4 : ~ ~ ~ ~ ~ ~ ~ ~ ~ ~ ~ ~ ~ ~ ~ ~ ~ ~ : 4 ( ] } } @ ' . . @ . $ . $ . . . . . . . . ",
". . . . . . . . # . . . . # $ } } { { ] 7 ~ a : : : : : : : : : : : : : : : : : : a ~ ^ ] { { } } $ # . . . . # . . . . . . . . ",
". . . . . . . . . . . . . . . } } { { ( 8 ~ ~ : : : : : : : : : : : : : : : : : : ~ ~ 8 ( { { } } . . . . . . . . . . . . . . . ",
". . . . . . . . . . . . . . . } } { { { { ( { : : 4 : : : : : : : : : : : : 4 : : { ( { { { { } } . . . . . . . . . . . . . . . ",
". . . . . . . . . . . . . . . } } { { { { 8 ( : 4 : : : : : : : : : : : : : : 4 : ( 8 { { { { } } . . . . . . . . . . . . . . . ",
". . . . . . . . . . . . . . . } } { { { { ( { ~ ~ : : 3 : 4 : : : : 4 : 3 : : ~ ~ { ( { { { { } } . . . . . . . . . . . . . . . ",
". . . . . . . . . . . . . . . } } { { { { { { ~ ~ : : : 3 : 3 3 3 3 : 3 : : : ~ ~ { { { { { { } } . . . . . . . . . . . . . . . ",
". . . . . . . . . . . . . . . } } { { { { ( { { ( ( { ~ ~ ~ ~ ~ ~ ~ ~ ~ ~ { ( ( { { ( { { { { } } . . . . . . . . . . . . . . . ",
". . . . . . . . . . . . . . . } } { { { { { 8 ( { { { ~ ~ ~ ~ ~ ~ ~ ~ ~ ~ { { { ( 8 { { { { { } } . . . . . . . . . . . . . . . ",
". . . . . . . . . . . . . . . } } { { { { { { { { { { { { { ( { { ( { { { { { { { { { { { { { } } . . . . . . . . . . . . . . . ",
". . . . . . . . # . . . . # $ } } { { b { { { { { ] { 1 ] { ( _ _ ( { ] 1 { ] { { { { { b { { } } $ # . . . . # . . . . . . . . ",
". . . . . . . . $ . $ . @ . . ' c } } d { { { { { { { _ e ( { ( ( { ( e _ { { { { { { { d } } ) ' . . @ . $ . $ . . . . . . . . ",
". . . . . . . . . & . . . . . = @ f } g 1 ^ { 7 ^ { ^ 8 ( { ] ] ] ] { ( 8 ^ { ^ 7 { ^ 1 g h f - = . . . . . & . . . . . . . . . ",
". . . . . . . . . . . $ . . @ . $ } } i j 8 g k g _ e l _ _ _ _ _ _ _ _ l e _ g k g 8 j i } } $ . @ . . $ . . & . . . . . . . . ",
". . . . . . . . . . . 5 $ . . . . h h m n 7 d 7 7 o ] 8 p ] ] 8 8 ] ] p 8 ] o 7 7 d 7 n m h h . . . . $ @ . . . . . . . . . . . ",
". . . . . . . . . . # . . . $ . @ q r s t } } } } _ 8 _ { ^ { l l { ^ { _ 8 _ } } } } t s r q @ . $ . . . # . . . . . . . . . . ",
". . . . . . . . # . . . . & . . & u v s w } } } x { ( { { { ] { { ] { { { ( { x } } } w s v u + . . & . . . . # . . . . . . . . ",
". . . . . . . . * # . . . . $ # . u u y z s t s s } } } } } } | | } } } } } } s s s s z y u u . # $ . & . . # * . . . . . . . . ",
". . . . . . . . # . . * . . . * . A i y z s s s t h } f } } } } } } } } f } h t s s s y y u B . . . . . . . . . . . . . . . . . ",
". . . . . . . . . . . + . @ . & & & @ } } C s D E F w t t w s s s s w t t G s E D C s } } . . @ . . . . . . . . . . . . . . . . ",
". . . . . . . . . . . & . . . . . H . } 6 I s F w D I s J K L F s I K M s I D w w N N } } # . % . . . . . . . . . . . . . . . . ",
". . . . . . . . $ . . . & @ . + . 1 ( { { } } O y t t P A E D w w D D A u t t y Q } } . < $ $ . . . . . . . . . . . . . . . . . ",
". . . . . . . . . . . 5 R . * @ . { _ ^ { } } S T D w U V s C I I C s U U w D y T } h . . # & # . . . . . . . . . . . . . . . . ",
". . . . . . . . . @ * * @ $ . p { W X { ( ~ Y } } } } m i Z Z z ` Z Z B A } } } } { { # % @ . . . . . . . . . . . . . . . . . . ",
". . . . . . . . . * @ . . . . ^ {  ...] { 0 ~ } } } } A q +.@.y y @.#.q $.} } } h { ] . ) $ * . . . . . . . . . . . . . . . . . ",
". . . . . . . . # . . . & . # { { %.&.( ( ~ ~ ( { { 8 } } } *.} } *.} } } { { : =.2 : } } . . . . . . . . . . . . . . . . . . . ",
". . . . . . . . # % @ % . . . ^ { -...{ ^ ;.~ ( { { d } } } } } 6 } h } } { { : : : : } h . $ . . . . . . . . . . . . . . . . . ",
". . . . . . . . . . . . . # . . . { { { { 8 { } } ~ a ~ ~ >.a [ ,./ ,.'.).} 6 : 2 : 3 f } . % . . . . . . . . . . . . . . . . . ",
". . . . . . . . . . . . @ @ # . $ ( { { 7 ] ^ } } ,.~ ~ 0 0 0 ~ 0 !.0 ~ ~ } 6 ~.~.{.4 } } . . . . . . . . . . . . . . . . . . . ",
". . . . . . . . $ # $ $ @ @ . . . ].^.. & } 6 ~ ~ ..X ~ / ~ /./ '.(.(./ / : {._.} :.<.[.}.{ { . . . . . . . . . . . . . . . . . ",
". . . . . . . . $ . . & . . . . + @ - % + |.|.Y 1.....2.>.0 Y 1.3.).4.a Y : : 5.|.6.[.7.:.{ { . . . . . . . . . . . . . . . . . ",
". . . . . . . . * # . . . . . @ . ! $ . @ 6 } ] ] [ ~ 8. .8.8.8.....9...0.~ / } } a.b.-.%.{ ( . . . . . . . . . . . . . . . . . ",
". . . . . . . . . . # . . . . = % ' . # & 6 } { { ~ ~ c.8.a.....a.a...0.9.[ ,.} } %.d...a.{ { . . . . . . . . . . . . . . . . . ",
". . . . . . . . e.. . $ . . . . . $ & R % } } _ ^ ^ { ~ ~ : : f.: : : 0 Y } } } } } } |.} . @ $ . . . . . . . . . . . . . . . . ",
". . . . . . . . . . . . . . . . . $ & . . } } { 1 8 { 0 ~ : {.g.: {.h.~ / } } } h *.6 } f @ * . . . . . . . . . . . . . . . . . ",
". . . . . . . . . . . . . . . . @ . . . # - @ } } i.~ j.Y ( { { { } } } } . - $ @ . . $ @ . . . . . . . . . . . . . . . . . . . ",
". . . . . . . . . . . . . . . . . @ . % * % % 6 } ~ !.9 ~ k._ ( l.} 6 h 6 . % < . . . . % . $ . . . . . . . . . . . . . . . . . ",
". . . . . . . . . . . . . . . . * . . & . $ . } } m.n.o.W b..._._.$ c $ ) . $ * . . . & * . % % . . . . . . . . . . . . . . . . ",
". . . . . . . . . . . . . . . . . . . . & . . } 6 p.p.&.q.&...|.|.= . . % . r.. . s.. . . * . ' . . . . . . . . . . . . . . . . ",
". . . . . . . . . . . . . . . . . . $ @ . # . . c 6 *.t.u.t...6 } . . v.. . . . . . % % * $ . . . . . . . . . . . . . . . . . . ",
". . . . . . . . . . . . . . . . $ @ H . & . $ & ^.} } d.w...0.} f . r.. % # . . . . $ # & . . . . . . . . . . . . . . . . . . . ",
". . . . . . . . . . . . . . . . @ . . . * . * % . } } ..&.....} } . . . . . . * . # % - e.. . & . . . . . . . . . . . . . . . . ",
". . . . . . . . . . . . . . . . . . . . . . . . . } } .. . ...} } $ # . . . . # . . . . . . . . . . . . . . . . . . . . . . . . ",
". . . . . . . . . . . . . . . . . . . . . . . . . . ' } } *.h . ' . . @ . $ . $ . . . . . . . . . . . . . . . . . . . . . . . . ",
". . . . . . . . . . . . . . . . . . . . . . . . . . = } } } } = = . . . . . & . . . . . . . . . . . . . . . . . . . . . . . . . ",
". . . . . . . . . . . . . . . . . . . . . . . . . $ . ^.$ ^.$ . . @ . . $ . . & . . . . . . . . . . . . . . . . . . . . . . . . ",
". . . . . . . . . . . . . . . . . . . . . . . . . . # H H * - # . . . $ @ . . . . . . . . . . . . . . . . . . . . . . . . . . . ",
". . . . . . . . . . . . . . . . . . . . . . . . . . . & $ . . . . $ . . . # . . . . . . . . . . . . . . . . . . . . . . . . . . ",
". . . . . . . . . . . . . . . . . . . . . . . . % . . # x.. 5 @ . . & . . . . # . . . . . . . . . . . . . . . . . . . . . . . . ",
". . . . . . . . . . . . . . . . . . . . . . . . . . . . . . . . # $ . & . . # * . . . . . . . . . . . . . . . . . . . . . . . . "};
