/* XPM */
static char * trf_back_sx_xpm[] = {
"64 64 156 2",
"  	c None",
". 	c #70C8A0",
"+ 	c #6EC99E",
"@ 	c #70C8A2",
"# 	c #6FC79F",
"$ 	c #71C9A1",
"% 	c #70C89E",
"& 	c #6EC9A0",
"* 	c #71C7A0",
"= 	c #6FC79D",
"- 	c #6FC7A1",
"; 	c #6FC9A3",
"> 	c #70C7A4",
", 	c #6DC89D",
"' 	c #71C9A3",
") 	c #71C7A2",
"! 	c #71C99F",
"~ 	c #484850",
"{ 	c #303038",
"] 	c #30303A",
"^ 	c #313038",
"/ 	c #484852",
"( 	c #2F2F37",
"_ 	c #303136",
": 	c #606068",
"< 	c #6DC89F",
"[ 	c #47474F",
"} 	c #000000",
"| 	c #010100",
"1 	c #2E3138",
"2 	c #5E6168",
"3 	c #5F5F67",
"4 	c #616169",
"5 	c #6EC8A2",
"6 	c #010101",
"7 	c #302F37",
"8 	c #313139",
"9 	c #4A4951",
"0 	c #494951",
"a 	c #464950",
"b 	c #302E39",
"c 	c #72C8A3",
"d 	c #313036",
"e 	c #2F3035",
"f 	c #010000",
"g 	c #2F3239",
"h 	c #000002",
"i 	c #602052",
"j 	c #611E51",
"k 	c #2E313A",
"l 	c #2D3037",
"m 	c #602251",
"n 	c #60234F",
"o 	c #31313B",
"p 	c #312F3A",
"q 	c #60214E",
"r 	c #5F224E",
"s 	c #B14098",
"t 	c #B1409A",
"u 	c #602150",
"v 	c #5F204F",
"w 	c #B14197",
"x 	c #000201",
"y 	c #903980",
"z 	c #8F3980",
"A 	c #612153",
"B 	c #5F2150",
"C 	c #B23F9A",
"D 	c #AF4198",
"E 	c #AE4097",
"F 	c #B24298",
"G 	c #B24199",
"H 	c #B03F97",
"I 	c #B24098",
"J 	c #B24097",
"K 	c #B2419B",
"L 	c #B34199",
"M 	c #B13F96",
"N 	c #70C69F",
"O 	c #913781",
"P 	c #612251",
"Q 	c #91377F",
"R 	c #913A81",
"S 	c #611F4F",
"T 	c #622050",
"U 	c #913A7F",
"V 	c #72C8A1",
"W 	c #8F3A7E",
"X 	c #903A81",
"Y 	c #48494E",
"Z 	c #9086B8",
"` 	c #8F89B7",
" .	c #5E204F",
"..	c #913983",
"+.	c #923880",
"@.	c #903882",
"#.	c #9088B9",
"$.	c #9088BB",
"%.	c #5E616A",
"&.	c #000100",
"*.	c #9288BA",
"=.	c #9187B9",
"-.	c #46494E",
";.	c #908ABA",
">.	c #494850",
",.	c #494752",
"'.	c #48474F",
").	c #47484D",
"!.	c #616068",
"~.	c #615F6A",
"{.	c #494953",
"].	c #C0B7D2",
"^.	c #C1B8D3",
"/.	c #BEB9D0",
"(.	c #BEB9CF",
"_.	c #000200",
":.	c #474751",
"<.	c #484651",
"[.	c #6FCAA1",
"}.	c #6ECAA1",
"|.	c #C0B8D0",
"1.	c #C1B7D0",
"2.	c #010103",
"3.	c #020003",
"4.	c #494A4E",
"5.	c #4A494F",
"6.	c #494A4F",
"7.	c #49484E",
"8.	c #8E88B8",
"9.	c #9189BA",
"0.	c #8F89B9",
"a.	c #8F87BA",
"b.	c #8F87B8",
"c.	c #9189BC",
"d.	c #908AB8",
"e.	c #606166",
"f.	c #71C89E",
"g.	c #5D6067",
"h.	c #605F67",
"i.	c #5F6269",
"j.	c #45484F",
"k.	c #484854",
"l.	c #2F2F39",
"m.	c #323137",
"n.	c #8C89B8",
"o.	c #D79A6D",
"p.	c #D79970",
"q.	c #70C79D",
"r.	c #9187BB",
"s.	c #D99872",
"t.	c #72C99F",
"u.	c #8F87B6",
"v.	c #9088B7",
"w.	c #6DC7A1",
"x.	c #8F88BB",
"y.	c #72C7A0",
". . . . . . . . . . . . . . . . . + . . @ . . # # . . . . $ . . . . $ . . . . # # . . @ . . + . . . . . . . . . . . . . . . . . ",
". . . . . . . . . . . . . . . . . % . & * % . . * % . % & = + . . + = & % . % * . . % * & . % . . . . . . . . . . . . . . . . . ",
". . . . . . . . . . . . . . . . . . . @ & . @ . - ; > $ . . . @ @ . . . $ > ; - . @ . & @ . . . . . . . . . . . . . . . . . . . ",
". . . . . . . . . . . . . . . . * & # & . . * % % = + = & . = , , = . & = + = % % * . . & # & * . . . . . . . . . . . . . . . . ",
". . . . . . . . . . . . . . . . . # @ # @ ' . . @ @ ) ' * $ @ ) ) @ $ * ' ) @ @ . . ' @ # @ # . . . . . . . . . . . . . . . . . ",
". . . . . . . . . . . . . . . . . ' @ . . $ & $ ! ~ ~ { ] { { ^ ^ { { ] { ~ ~ ! $ & $ . . @ ' . . . . . . . . . . . . . . . . . ",
". . . . . . . . . . . . . . . . . . % . . @ . . . / ~ ( { ( { { { { ( { ( ~ / . . . @ . . % . . . . . . . . . . . . . . . . . . ",
". . . . . . . . . . . . . . . . . . . % @ ^ _ { { ~ ~ : : : : : : : : : : ~ ~ { { _ ^ @ % . . . . . . . . . . . . . . . . . . . ",
". . . . . . . . * # . . . . $ # $ . . . < { { ( { [ ~ : : : : : : : : : : ~ [ { ( { { < . . . $ # $ . & . . # * . . . . . . . . ",
". . . . . . . . # . . . . & . . . . $ } | 1 ^ 2 : 3 : : : : : : : : : : : : 3 : 2 ^ 1 | } $ . $ . . & . . . . # . . . . . . . . ",
". . . . . . . . . . # . . . $ . . . # } } ] { : : : : 4 3 : : : : : : 3 4 : : : : { ] } } # . $ . $ . . . # . . . . . . . . . . ",
". . . . . . . . . . . 5 $ . . . . 6 } ^ 7 : : : : : : : : : : 3 3 : : : : : : : : : : 7 ^ } 6 . . . . $ @ . . . . . . . . . . . ",
". . . . . . . . . . . $ . . @ . $ } } 8 { : 4 : : : : 4 : 4 : : : : 4 : 4 : : : : 4 : { 8 } } $ . @ . . $ . . & . . . . . . . . ",
". . . . . . . . . & . . . . . = . 6 } { _ : : 9 ~ ~ ~ [ 0 ~ ~ ~ ~ ~ ~ 0 [ ~ ~ ~ 9 : : _ { } 6 . = . . . . . & . . . . . . . . . ",
". . . . . . . . $ . $ . @ . . ' @ } } ] ( 4 : ~ ~ ~ ~ ~ ~ ~ ~ ~ ~ ~ ~ ~ ~ ~ ~ ~ ~ : 4 ( ] } } @ ' . . @ . $ . $ . . . . . . . . ",
". . . . . . . . # . . . . # $ } } { { ] 7 ~ a : : : : : : : : : : : : : : : : : : a ~ ^ ] { { } } $ # . . . . # . . . . . . . . ",
". . . . . . . . . . . . . . . } } { { ( 8 ~ ~ : : : : : : : : : : : : : : : : : : ~ ~ 8 ( { { } } . . . . . . . . . . . . . . . ",
". . . . . . . . . . . . . . . } } { { { { ( { : : 4 : : : : : : : : : : : : 4 : : { ( { { { { } } . . . . . . . . . . . . . . . ",
". . . . . . . . . . . . . . . } } { { { { 8 ( : 4 : : : : : : : : : : : : : : 4 : ( 8 { { { { } } . . . . . . . . . . . . . . . ",
". . . . . . . . . . . . . . . } } { { { { ( { ~ ~ : : 3 : 4 : : : : 4 : 3 : : ~ ~ { ( { { { { } } . . . . . . . . . . . . . . . ",
". . . . . . . . . . . . . . . } } { { { { { { ~ ~ : : : 3 : 3 3 3 3 : 3 : : : ~ ~ { { { { { { } } . . . . . . . . . . . . . . . ",
". . . . . . . . . . . . . . . } } { { { { ( { { ( ( { ~ ~ ~ ~ ~ ~ ~ ~ ~ ~ { ( ( { { ( { { { { } } . . . . . . . . . . . . . . . ",
". . . . . . . . . . . . . . . } } { { { { { 8 ( { { { ~ ~ ~ ~ ~ ~ ~ ~ ~ ~ { { { ( 8 { { { { { } } . . . . . . . . . . . . . . . ",
". . . . . . . . . . . . . . . } } { { { { { { { { { { { { { ( { { ( { { { { { { { { { { { { { } } . . . . . . . . . . . . . . . ",
". . . . . . . . # . . . . # $ } } { { b { { { { { ] { 1 ] { ( _ _ ( { ] 1 { ] { { { { { b { { } } $ # . . . . # . . . . . . . . ",
". . . . . . . . $ . $ . @ . . ' c } } d { { { { { { { _ e ( { ( ( { ( e _ { { { { { { { d } } ) ' . . @ . $ . $ . . . . . . . . ",
". . . . . . . . . & . . . . . = @ f } g 1 ^ { 7 ^ { ^ 8 ( { ] ] ] ] { ( 8 ^ { ^ 7 { ^ 1 g h f - = . . . . . & . . . . . . . . . ",
". . . . . . . . . . . $ . . @ . $ } } i j 8 g k g _ e l _ _ _ _ _ _ _ _ l e _ g k g 8 j i } } $ . @ . . $ . . & . . . . . . . . ",
". . . . . . . . . . . 5 $ . . . . h h m n 7 d 7 7 o ] 8 p ] ] 8 8 ] ] p 8 ] o 7 7 d 7 n m h h . . . . $ @ . . . . . . . . . . . ",
". . . . . . . . . . # . . . $ . @ q r s t } } } } _ 8 _ { ^ { l l { ^ { _ 8 _ } } } } t s r q @ . $ . . . # . . . . . . . . . . ",
". . . . . . . . # . . . . & . . & u v s w } } } x { ( { { { ] { { ] { { { ( { x } } } w s v u + . . & . . . . # . . . . . . . . ",
". . . . . . . . * # . . . . $ # . u u y z s t s s } } } } } } | | } } } } } } s s s s z y u u . # $ . & . . # * . . . . . . . . ",
". . . . . . . . . . . . . . . . . A u y y s s s t h } f } } } } } } } } f } h t s s s z y i B . * . . . * . . # . . . . . . . . ",
". . . . . . . . . . . . . . . . @ . . } } s C D E s F t t w s s s s w t t w G E D s C } } @ & & & . @ . + . . . . . . . . . . . ",
". . . . . . . . . . . . . . . . % . # } } H H w w D I s J K I s G L K M s I D w G s I 6 } . N . . . . . & . . . . . . . . . . . ",
". . . . . . . . . . . . . . . . . $ $ < . } } O y t t u B D D w w D E B P t t y Q } } { { ( 1 . + . @ & . . . $ . . . . . . . . ",
". . . . . . . . . . . . . . . . # & # . . h } R y D w S S s C I I C s T S w D R U } } { ^ _ { . @ * . V 5 . . . . . . . . . . . ",
". . . . . . . . . . . . . . . . . . @ % # { { } } } } B A W W X z W W i m } } } } Y ~ ( { Z ` { p . $ @ * * @ . . . . . . . . . ",
". . . . . . . . . . . . . . . . . * $ ) . ] { h } } }  .q ..+.y y +.@.q B } } } } ~ 0 { ] #.$.{ ^ . . . . @ * . . . . . . . . . ",
". . . . . . . . . . . . . . . . . . . } } : 2 %.: { { } } } &.} } &.} } } 8 { { ( ~ ~ ( ( *.=.{ { # . & . . . # . . . . . . . . ",
". . . . . . . . . . . . . . . . . $ . h } : : : : { { } } h } 6 } } } } } d { { ( ~ -.^ { #.;.{ ^ . . . % @ % # . . . . . . . . ",
". . . . . . . . . . . . . . . . . % . } f 3 : 2 : 6 } >.,.'./ '.[ a ).~ ~ a ~ } } { 8 { { { { . . . # . . . . . . . . . . . . . ",
". . . . . . . . . . . . . . . . . . . } } 4 !.~.~.6 } ~ ~ 0 {.0 ~ 0 0 0 ~ ~ '.} } ^ ] 7 { { ( $ . # @ @ . . . . . . . . . . . . ",
". . . . . . . . . . . . . . . . . { { ].^./.(.} _.!.: / / :.:.,./ <.~ / ~ Z #.~ ~ 6 } & . [.}.. . . @ @ $ $ # $ . . . . . . . . ",
". . . . . . . . . . . . . . . . . { { (.|.^.1.2.3.: : Y a 4.>.5.6.Y 0 ).7.#.#.6.Y 2.2.+ % - @ + . . . . & . . $ . . . . . . . . ",
". . . . . . . . . . . . . . . . . ( { =.;.8.9.} } / ~ 0.#.a.#.#.b.b.b.$.b.~ [ ] ] } 6 @ . $ ! . @ . . . . . # * . . . . . . . . ",
". . . . . . . . . . . . . . . . . { { 9.#.c.=.} } '.[ a.0.#.9.9.#.#.9.b.d.~ ~ { { } 6 & # . ' % = . . . . # . . . . . . . . . . ",
". . . . . . . . . . . . . . . . $ @ . } 2.} } } } } } Y 0 : : : e.: : ~ ~ { ^ ^ _ } } % V & $ . . . . . $ . . f.. . . . . . . . ",
". . . . . . . . . . . . . . . . . * @ f } 6 &.h } } } / ~ g.h.: i.!.: ~ 0 { 8 1 { } } . . & $ . . . . . . . . . . . . . . . . . ",
". . . . . . . . . . . . . . . . . . . @ $ . . @ $ - . } } } } { { { ( Y j.~ k.} } @ - # . . . @ . . . . . . . . . . . . . . . . ",
". . . . . . . . . . . . . . . . . $ . % . . . . < % . 6 h 6 } l.( _ m.~ 9 {.~ } 6 % % f.% . @ . . . . . . . . . . . . . . . . . ",
". . . . . . . . . . . . . . . . % % . * & . . . * $ $ ) $ c $ _._.#.8.` n.o.p.} } . $ . & . . * . . . . . . . . . . . . . . . . ",
". . . . . . . . . . . . . . . . ' . * . . . q.. . 5 . % . . = 2.2.#.*.r.*.s.s.6 } . . & . % . % . . . . . . . . . . . . . . . . ",
". . . . . . . . . . . . . . . . . . $ * % % . . . . . . t.. . } 6 #.u.v.u.&.6 c . . # . @ $ . . . . . . . . . . . . . . . . . . ",
". . . . . . . . . . . . . . . . . . . & # $ . . . . # % . w.. f } 0.#.x.c.} } [.& $ . & . N @ $ . . . . . . . . . . . . . . . . ",
". . . . . . . . . . . . . . . . & . . f.- % # . * . . . . . . } } #.#.*.#.} } . % * . * . . . @ . . . . . . . . . . . . . . . . ",
". . . . . . . . . . . . . . . . . . . . . . . . # . . . . # $ } } #.$.$.#.} } . . . . . . . . . . . . . . . . . . . . . . . . . ",
". . . . . . . . . . . . . . . . . . . . . . . . $ . $ . @ . . ' . h x } } ' . . . . . . . . . . . . . . . . . . . . . . . . . . ",
". . . . . . . . . . . . . . . . . . . . . . . . . & . . . . . = = } } } } = . . . . . . . . . . . . . . . . . . . . . . . . . . ",
". . . . . . . . . . . . . . . . . . . . . . . . . . . $ . . @ . . $ [.$ [.. $ . . . . . . . . . . . . . . . . . . . . . . . . . ",
". . . . . . . . . . . . . . . . . . . . . . . . . . . 5 $ . . . # - * N N = . . . . . . . . . . . . . . . . . . . . . . . . . . ",
". . . . . . . . . . . . . . . . . . . . . . . . . . # . . . $ . . . . $ & . . . . . . . . . . . . . . . . . . . . . . . . . . . ",
". . . . . . . . . . . . . . . . . . . . . . . . # . . . . & . . @ 5 . y.# . . % . . . . . . . . . . . . . . . . . . . . . . . . ",
". . . . . . . . . . . . . . . . . . . . . . . . * # . . . . $ # . . . . . . . . . . . . . . . . . . . . . . . . . . . . . . . . "};
