/* XPM */
static char * dawn standing sx_xpm[] = {
"64 64 184 2",
"  	c None",
". 	c #70C8A0",
"+ 	c #6FCAA1",
"@ 	c #71C7A0",
"# 	c #71C9A1",
"$ 	c #70C8A2",
"% 	c #6EC8A2",
"& 	c #A8A0C9",
"* 	c #A9A1CA",
"= 	c #A7A0C9",
"- 	c #A89FCA",
"; 	c #396089",
"> 	c #6FC79F",
", 	c #70C89E",
"' 	c #A79FC8",
") 	c #A89FCC",
"! 	c #3A618A",
"~ 	c #3A5F89",
"{ 	c #71C9A3",
"] 	c #A9A0CB",
"^ 	c #A7A0CA",
"/ 	c #E9E8F8",
"( 	c #EAE9F9",
"_ 	c #E9E8F6",
": 	c #E8EAF9",
"< 	c #E7E9F6",
"[ 	c #E7E9F8",
"} 	c #396087",
"| 	c #72C8A1",
"1 	c #6EC9A0",
"2 	c #A6A0C6",
"3 	c #A79FC6",
"4 	c #A8A0C7",
"5 	c #A59EC7",
"6 	c #E7E8FA",
"7 	c #E8E7F5",
"8 	c #E8E7F7",
"9 	c #E9E8FA",
"0 	c #EAE9FB",
"a 	c #EAE7F8",
"b 	c #385F8A",
"c 	c #AA9FC7",
"d 	c #3A618C",
"e 	c #EBE8F9",
"f 	c #ECE9FC",
"g 	c #EAE8F6",
"h 	c #71C7A2",
"i 	c #385F88",
"j 	c #E8E7F9",
"k 	c #E6E8F7",
"l 	c #C9C8D8",
"m 	c #E9E6F9",
"n 	c #385F86",
"o 	c #376189",
"p 	c #A99EC8",
"q 	c #72C99F",
"r 	c #38628A",
"s 	c #CAC9D9",
"t 	c #AA9FC9",
"u 	c #6DC89F",
"v 	c #39608B",
"w 	c #C8C7D7",
"x 	c #E9E6F7",
"y 	c #C7C9D8",
"z 	c #CAC7D8",
"A 	c #E890C0",
"B 	c #C9C8D6",
"C 	c #C9C8DA",
"D 	c #E98FC2",
"E 	c #E791BE",
"F 	c #C6C8D7",
"G 	c #71C89E",
"H 	c #C06898",
"I 	c #C9C6D7",
"J 	c #CBC8D9",
"K 	c #CAC9D7",
"L 	c #CBC7D8",
"M 	c #3B608A",
"N 	c #3A5F8B",
"O 	c #BE6895",
"P 	c #C7C8DA",
"Q 	c #C8C9DB",
"R 	c #C6C7D9",
"S 	c #010000",
"T 	c #000000",
"U 	c #A99EC6",
"V 	c #383F51",
"W 	c #38404D",
"X 	c #000002",
"Y 	c #010103",
"Z 	c #AA9FCA",
"` 	c #C8C7D9",
" .	c #383F4F",
"..	c #363F50",
"+.	c #010200",
"@.	c #784041",
"#.	c #010101",
"$.	c #393F4F",
"%.	c #D7A079",
"&.	c #D7A077",
"*.	c #C16898",
"=.	c #E990C0",
"-.	c #37404F",
";.	c #000100",
">.	c #3A4050",
",.	c #6EC99E",
"'.	c #773F42",
").	c #D69F78",
"!.	c #D5A078",
"~.	c #E88EC1",
"{.	c #E890C2",
"].	c #3A6188",
"^.	c #373E4E",
"/.	c #773F3E",
"(.	c #793F3E",
"_.	c #F8D0B7",
":.	c #F8CFB9",
"<.	c #394050",
"[.	c #D79F7A",
"}.	c #384150",
"|.	c #794142",
"1.	c #784043",
"2.	c #FAD0B8",
"3.	c #010100",
"4.	c #E8E9FB",
"5.	c #D8A17A",
"6.	c #395E88",
"7.	c #37618B",
"8.	c #366088",
"9.	c #010002",
"0.	c #35414F",
"a.	c #373F4C",
"b.	c #D69F76",
"c.	c #F6D1B7",
"d.	c #F9CFB9",
"e.	c #F9CFB7",
"f.	c #D99F79",
"g.	c #D7A27A",
"h.	c #374051",
"i.	c #39414E",
"j.	c #393E51",
"k.	c #F8D0B6",
"l.	c #F9D1B7",
"m.	c #F9D0BA",
"n.	c #373E50",
"o.	c #774141",
"p.	c #7A3F43",
"q.	c #7A3F41",
"r.	c #78403F",
"s.	c #CAC8D6",
"t.	c #FFFFFF",
"u.	c #70C69F",
"v.	c #C8CAD9",
"w.	c #C7C8DC",
"x.	c #6FC79D",
"y.	c #70C79D",
"z.	c #6DC89D",
"A.	c #A8A1CA",
"B.	c #773F40",
"C.	c #BF3739",
"D.	c #C23835",
"E.	c #6FC7A1",
"F.	c #6FC9A3",
"G.	c #C23838",
"H.	c #C03838",
"I.	c #793E40",
"J.	c #794140",
"K.	c #774043",
"L.	c #000200",
"M.	c #7A403F",
"N.	c #F7CFB6",
"O.	c #F16848",
"P.	c #EAE7FA",
"Q.	c #764040",
"R.	c #020001",
"S.	c #383E4E",
"T.	c #C16999",
"U.	c #BF6799",
"V.	c #BF6797",
"W.	c #394052",
"X.	c #BF6996",
"Y.	c #C06797",
"Z.	c #BF6998",
"`.	c #C26997",
". . . . . . . . . . . . . . . . . . . . . . . . . . . . . . . . . . . . . . . . . . . . . . . . . . . . . . . . . . . . . . . . ",
". . . . . . . . . . . . . . . . . . . . . . . . . . . . . . . . . . . . . . . . . . . . . . . . . . . . . . . . . . . . . . . . ",
". . . . . . . . . . . . . . . . . . . . . . . . . . . . . . . . . . . . . . . . . . . . . . . . . . . . . . . . . . . . . . . . ",
". . . . . . . . . . . . . . . . . . . . . . . . . . . . . . . . . . . . . . . . . . . . . . . . . . . . . . . . . . . . . . . . ",
". . . . . . . . . . . . . . . . . . . . . . . . . . . . . . . . . . . . . . . . . . . . . . . . . . . . . . . . . . . . . . . . ",
". . . . . . . . . . . . . . . . . . . . . . . . . . . . . . . . . . . . . . . . . . . . . . . . . . . . . . . . . . . . . . . . ",
". . . . . . . . . . . . . . . . . . . . . . . . . . . . . . . . . . . . . . . . . . . . . . . . . . . . . . . . . . . . . . . . ",
". . . . . . . . . . . . . . . . . . . . . . . . . . . . . . . . . . . . . . . . . . . . . . . . . . . . . . . . . . . . . . . . ",
". . . . . . . . . . . . . . . . + @ # . . $ . . . . . . % # . # @ & & & * & = - & ; ; ; ; . . . . . . . . . . . . . . . . . . . ",
". . . . . . . . . . . . . . . . > . . , , . + . . . . . . . @ . . - ' - ) - & - - ! ; ; ~ > . . . . . . . . . . . . . . . . . . ",
". . . . . . . . . . . . . . . . . . , { . . @ # . & ] & ^ & - & & / ( _ ( / : ( ( < [ / / } ; | . . . . . . . . . . . . . . . . ",
". . . . . . . . . . . . . . . . . . . @ @ 1 1 . . ' 2 3 ' 4 5 3 3 6 7 [ 8 [ 8 9 8 0 a / ( ; b . . . . . . . . . . . . . . . . . ",
". . . . . . . . . . . . . . . . | $ . # % c ' d ; e a / 0 9 f 0 ( ( / g ( e / e e [ / g / ; ; . . . . . . . . . . . . . . . . . ",
". . . . . . . . . . . . . . . . . . > > h = & i i _ _ / j < k / [ / 8 / 7 / 8 / / 9 a / / ; ; . . . . . . . . . . . . . . . . . ",
". . . . . . . . . . . . . . . . . $ . ; ; l l 9 / m / a / / a / a / a a ( 7 / a / [ / ; ; . . . . . . . . . . . . . . . . . . . ",
". . . . . . . . . . . . . . . . @ . . ; ; l l / / / / a / / / 8 / / a 9 j ( ( / / / / ; n . . , . . . . . . . . . . . . . . . . ",
". . . . . . . . . . . . . . . > . ; ; / / 9 / 8 / / / / / / / / / / / 8 / / / ( / & & @ . . . . . . . . . . . . . . . . . . . . ",
". . . . . . . . . . . 1 . . . > > ; ; / / / / / / / / / / / / / / / / / / / / ( / & & # . . . . . . . . . . . . . . . . . . . . ",
". . . . . . . . , . . @ , . . . $ o ; j / / / / / / / / / / / / / / / / / 8 / l l p = o ! . 1 . . . . . . . . . . . . . . . . . ",
". . . . . . . . . . . 1 . 1 . , q ; r ( : / / / / / / / / / / / / / / / / / / l s & t ~ } . . $ . . . . . . . . . . . . . . . . ",
". . . . . . . . . . . @ u . . v v l w k x / a / / / / / / / / / / / / / / / 8 w w y y r d . . . . . . . . . . . . . . . . . . . ",
". . . . . . . . $ . . . $ . . ; o z l / [ / / a / / / / / / / / / / / / / / / l l z z ; ; . 1 . . . . . . . . . . . . . . . . . ",
". . . . . . . . . . . . 1 . . ! ! l l l l 9 / / / / / / / / / / / / / 8 / l l w s * & v ; . . . . . . . . . . . . . . . . . . . ",
". . . . . . . . . . . . . . . ; ; w l l l / / / / / / / / / / / / / / / / w s l l ' & ; ; . . @ . . . . . . . . . . . . . . . . ",
". . . . . . . . @ . @ @ . . . ; ; A A l B l C s w / / / / / / / / l l l l l l l y & & } ; . . . . . . . . . . . . . . . . . . . ",
". . . . . . . . . . . > $ 1 . ; ; D E B z y s l l / / / / / / / / l l w l F l l B & t ; o G . , . . . . . . . . . . . . . . . . ",
". . . . . . . . . > . @ . # . ; ; ' ' H H z l s z z z z I z z z J z z z z K z - ] L l i M 1 . . . . . . . . . . . . . . . . . . ",
". . . . . . . . . . . . . . . ~ N = = H O P l l P P P Q P P P P P P l R C P P 4 c l w ; i @ . # . . . . . . . . . . . . . . . . ",
". . . . . . . . . . . @ . . . S T w z & ] U * t t t t t t t t t c t & t 4 t t C y l l V W X T . . . . . . . . . . . . . . . . . ",
". . . . . . . . . . . % $ > . Y T l s - 4 - = & - - - ] - - - - - & - ' - Z ] J z C `  ...+.T , . . . . . . . . . . . . . . . . ",
". . . . . . . . . . . { . . . X T @.@.l l B z l l / / l l / / / / l l l w z l l l T T  . .T T . . . . . . . . . . . . . . . . . ",
". . . . . . . . . . . . . . . T T @.@.l z l l l l / 8 l l / / / / l l l z l l l y #.T $. .S T . . . . . . . . . . . . . . . . . ",
". . . . . . . . . . . . . . . . . @.@.%.&.v ; / / H *.A =.; ;  .$.W  . . .-. .; ; T ;.>. .T T $ @ . . ,.. . . . . . . . . . . . ",
". . . . . . . . . . . . . . . . . @.'.).!.! ; ( / *.H ~.{.; ]. .V  .V  .$. .^.; ; T S -. .X S + , . . $ 1 . . $ . . . . . . . . ",
". . . . . . . . . . . . . . . . . /.(._.:.T X / a <.V ].; %.[.; v n } ~ ; ~ ; T T T T $.}. . .T T $ . . . . . . . . . . . . . . ",
". . . . . . . . . . . . . . . . $ |.1.2._.3.#.4./ $. .i b &.5.~ 6.7.d o b o 8.T T T 9.0.V -.a.Y X . . u . . . . . . . . . . . . ",
". . . . . . . . . . . . . . . . > ).b.c.:.d._.e.e.-. .].; f.[.g.5.X T X T X T h. .#.T $.i.j.<.T T , $ $ . . 1 . . . . . . . . . ",
". . . . . . . . . . . . . . . . > [.%.d.k._.l.m._. .-.i ; &.&.f.%.#.#.S X T X V V T T -.n.W  .X T # . 1 @ 1 . . . . . . . . . . ",
". . . . . . . . . . . . . . . . $ | . /.o.:.c.f.f.n. .! ; f.%.@.@.T #. .W  . . .-.S T ; ; ; ~ #.T . . . . . + . . . . . . . . . ",
". . . . . . . . . . . . . . . . . . . @.@._.e.%.%. . .; ; %.%.p.@.T #.<.V  . . . .T T ; ; ! } T T . . . . . . h . . . . . . . . ",
". . . . . . . . . . . . . . . . . . @ . $ q.r.@.|.@.|.T T X T T T T T  . .S T  . .T T T T T T . . . . . . . . . . . . . . . . . ",
". . . . . . . . . . . . . . . . @ . . # . @.@.@.1.q.@.T T T Y T T T T  . .T T  .<.T T T S T T . . . . . . . . . . . . . . . . . ",
". . . . . . . . . . . . . . . . . . . . $ # 1  . .w B C B z s.T T t.t.T T X X T 3.{ # { { . 1 , . . . . . . . . . . . . . . . . ",
". . . . . . . . . . . . . . . . . . > # . @ u.$. .s v.s w.l C T #.t.t.T #.T T T X x.G y.x.z.. , . . . . . . . . . . . . . . . . ",
". . . . . . . . . . . . . . . . . . . , . A.= ( [ '.B.C.D.B.r.& & T T Y ;.$ E.# + { F.# $ { F.. . . . . . . . . . . . . . . . . ",
". . . . . . . . . . . . . . . . . # . . . t ' / / |.|.G.H.@.1.] - T #.T #., > @ . . x.. x.. x.. . . . . . . . . . . . . . . . . ",
". . . . . . . . . . . . . . . . . > . . . & & @.@._._.C C I.(./ / 8 / @.J.T #.. , . # @ . . . . . . . . . . . . . . . . . . . . ",
". . . . . . . . . . . . . . . . . . . > . * & @.q._._.z l @.K./ / / / @.@.L.T > $ # . # , . > . . . . . . . . . . . . . . . . . ",
". . . . . . . . . . . . . . . . . . . . . @.@.@.M._._.N._.@.@.[ / / / O.O.T T . . . . . . . . . . . . . . . . . . . . . . . . . ",
". . . . . . . . . . . . . . . . . . # . $ B.@.@.@.k._._.N.@.@.a P./ a O.O.T T . . . . . . . . . . . . . . . . . . . . . . . . . ",
". . . . . . . . . . . . . . . . , . . h . #.T & * 1.@.p.|.= = c 4 & - T T # $ . . . . . . . . . . . . . . . . . . . . . . . . . ",
". . . . . . . . . . . . . . . . @ . . . # T T & & Q.B.q.B.* * * ] t * R.T > x.@ . . . . . . . . . . . . . . . . . . . . . . . . ",
". . . . . . . . . . . . . . . . @ , @ . .  .S.@.|.*.T.T.H U.V.a. .#.T 1 . { { . . . . . . . . . . . . . . . . . . . . . . . . . ",
". . . . . . . . . . . . . . . . . . . > .  .W.@.o.X.Y.H Z.`.H  .<.T T @ . > x.. . . . . . . . . . . . . . . . . . . . . . . . . ",
". . . . . . . . . . . . . . . . . # . . . G x.# > ;.T T T T T . . 1 . 1 1 . . > . . . . . . . . . . . . . . . . . . . . . . . . ",
". . . . . . . . . . . . . . . . . . . . . . 1 . . T T T T #.T . . . . . . . . . . . . . . . . . . . . . . . . . . . . . . . . . ",
". . . . . . . . . . . . . . . . . . . . . . . . . . . . . . . . . . . . . . . . . . . . . . . . . . . . . . . . . . . . . . . . ",
". . . . . . . . . . . . . . . . . . . . . . . . . . . . . . . . . . . . . . . . . . . . . . . . . . . . . . . . . . . . . . . . ",
". . . . . . . . . . . . . . . . . . . . . . . . . . . . . . . . . . . . . . . . . . . . . . . . . . . . . . . . . . . . . . . . ",
". . . . . . . . . . . . . . . . . . . . . . . . . . . . . . . . . . . . . . . . . . . . . . . . . . . . . . . . . . . . . . . . ",
". . . . . . . . . . . . . . . . . . . . . . . . . . . . . . . . . . . . . . . . . . . . . . . . . . . . . . . . . . . . . . . . ",
". . . . . . . . . . . . . . . . . . . . . . . . . . . . . . . . . . . . . . . . . . . . . . . . . . . . . . . . . . . . . . . . ",
". . . . . . . . . . . . . . . . . . . . . . . . . . . . . . . . . . . . . . . . . . . . . . . . . . . . . . . . . . . . . . . . ",
". . . . . . . . . . . . . . . . . . . . . . . . . . . . . . . . . . . . . . . . . . . . . . . . . . . . . . . . . . . . . . . . "};
