/* XPM */
static char * dawn sx rx_xpm[] = {
"64 64 178 2",
"  	c None",
". 	c #70C8A0",
"+ 	c #70C8A2",
"@ 	c #6FC79F",
"# 	c #A8A0C9",
"$ 	c #6EC9A0",
"% 	c #6EC8A2",
"& 	c #71C7A0",
"* 	c #6EC99E",
"= 	c #70C89E",
"- 	c #71C9A1",
"; 	c #71C89E",
"> 	c #A89FCA",
", 	c #3A618A",
"' 	c #396089",
") 	c #E9E8F8",
"! 	c #39608B",
"~ 	c #71C99F",
"{ 	c #71C7A2",
"] 	c #A8A0C7",
"^ 	c #376189",
"/ 	c #E8E7F7",
"( 	c #396087",
"_ 	c #6FC7A1",
": 	c #C9C8DA",
"< 	c #CAC7DA",
"[ 	c #EAE9F9",
"} 	c #E9E8FA",
"| 	c #EAE9F7",
"1 	c #E7E9F8",
"2 	c #395E8A",
"3 	c #385F88",
"4 	c #C9C8D6",
"5 	c #C7C9D8",
"6 	c #E9E8F6",
"7 	c #376187",
"8 	c #37618B",
"9 	c #EAE7F8",
"0 	c #C9C8D8",
"a 	c #3A5F89",
"b 	c #CAC9D9",
"c 	c #E7E8FA",
"d 	c #C8C7D7",
"e 	c #6FCAA1",
"f 	c #C8C7D9",
"g 	c #E8E7F9",
"h 	c #3A5F8B",
"i 	c #E78FBF",
"j 	c #E890C0",
"k 	c #A9A1CA",
"l 	c #CAC7D8",
"m 	c #C06898",
"n 	c #CAC9D7",
"o 	c #AA9FC9",
"p 	c #395E88",
"q 	c #C2689B",
"r 	c #C6C8D5",
"s 	c #000000",
"t 	c #A79FC8",
"u 	c #A7A0CA",
"v 	c #A9A0CB",
"w 	c #A7A0C9",
"x 	c #A9A1C8",
"y 	c #A8A1CB",
"z 	c #A7A0CC",
"A 	c #C7C9D6",
"B 	c #383F51",
"C 	c #37404F",
"D 	c #000002",
"E 	c #010101",
"F 	c #000004",
"G 	c #CAC9DB",
"H 	c #A8A1CA",
"I 	c #A99EC6",
"J 	c #A79EC9",
"K 	c #A69FC8",
"L 	c #A7A1C7",
"M 	c #C8CAD9",
"N 	c #C7C8DA",
"O 	c #394050",
"P 	c #393F4F",
"Q 	c #010100",
"R 	c #72C8A1",
"S 	c #773F40",
"T 	c #784041",
"U 	c #EBE8FB",
"V 	c #374051",
"W 	c #383D50",
"X 	c #794142",
"Y 	c #EAE8F6",
"Z 	c #C8C7D5",
"` 	c #C9C6D7",
" .	c #E8E7F5",
"..	c #C6C7D9",
"+.	c #383F4F",
"@.	c #6FC79D",
"#.	c #7A3F43",
"$.	c #D79F7A",
"%.	c #D6A179",
"&.	c #BF6998",
"*.	c #E791C0",
"=.	c #3A618C",
"-.	c #394052",
";.	c #393E51",
">.	c #010002",
",.	c #D7A079",
"'.	c #D99F79",
").	c #E990C0",
"!.	c #373E4E",
"~.	c #F8D0B7",
"{.	c #F8D0B6",
"].	c #000100",
"^.	c #38404D",
"/.	c #DAA07A",
"(.	c #3A4050",
"_.	c #3B608C",
":.	c #38628A",
"<.	c #384152",
"[.	c #F6D1B7",
"}.	c #F9D1B8",
"|.	c #F9CFB7",
"1.	c #F9D0BA",
"2.	c #D69F78",
"3.	c #3A3F53",
"4.	c #010103",
"5.	c #D7A27A",
"6.	c #D6A07A",
"7.	c #F7CFB6",
"8.	c #F8CFB9",
"9.	c #D7A175",
"0.	c #D8A17A",
"a.	c #D8A07B",
"b.	c #020001",
"c.	c #37414D",
"d.	c #70C69F",
"e.	c #39414E",
"f.	c #010000",
"g.	c #373E50",
"h.	c #385F8A",
"i.	c #7A3F41",
"j.	c #3B3E4F",
"k.	c #3A424F",
"l.	c #000201",
"m.	c #6FCA9F",
"n.	c #FFFFFF",
"o.	c #794140",
"p.	c #784043",
"q.	c #774141",
"r.	c #C03936",
"s.	c #C23835",
"t.	c #71C9A3",
"u.	c #BE3839",
"v.	c #BF393A",
"w.	c #A79FC6",
"x.	c #72C8A3",
"y.	c #70C79D",
"z.	c #CBC7D6",
"A.	c #CBC9D7",
"B.	c #7B4042",
"C.	c #E6E8F7",
"D.	c #793F3E",
"E.	c #7A403F",
"F.	c #793E40",
"G.	c #78403F",
"H.	c #F7CEB8",
"I.	c #F9CFB6",
"J.	c #F06747",
"K.	c #F1674A",
"L.	c #F16848",
"M.	c #F06949",
"N.	c #AA9FCA",
"O.	c #ABA0C8",
"P.	c #F6D1B6",
"Q.	c #C06996",
"R.	c #794144",
"S.	c #C16898",
"T.	c #C16999",
"U.	c #71C7A4",
". . . . . . . . . . . . . . . . . . . . . . . . . . . . . . . . . . . . . . . . . . . . . . . . . . . . . . . . . . . . . . . . ",
". . . . . . . . . . . . . . . . . . . . . . . . . . . . . . . . . . . . . . . . . . . . . . . . . . . . . . . . . . . . . . . . ",
". . . . . . . . . . . . . . . . . . . . . . . . . . . . . . . . . . . . . . . . . . . . . . . . . . . . . . . . . . . . . . . . ",
". . . . . . . . . . . . . . . . . . . . . . . . . . . . . . . . . . . . . . . . . . . . . . . . . . . . . . . . . . . . . . . . ",
". . . . . . . . . . . . . . . . . . . . . . . . . . . . . . . . . . . . . . . . . . . . . . . . . . . . . . . . . . . . . . . . ",
". . . . . . . . . . . . . . . . . . . . . . . . . . . . . . . . . . . . . . . . . . . . . . . . . . . . . . . . . . . . . . . . ",
". . . . . . . . . . . . . . . . . . . . . . . . . . . . . . . . . . . . . . . . . . . . . . . . . . . . . . . . . . . . . . . . ",
". . . . . . . . . . . . . . . . . . . . . . . . . . . . . . . . . . . . . . . . . . . . . . . . . . . . . . . . . . . . . . . . ",
". . . . . . . . . . . . . . . . . . . . + . @ . # # # # # # # # # # # # # # # # $ . + % . @ . & . . . . . . . . . . . . . . . . ",
". . . . . . . . . . . . . . . . . . . * = . = . # # # # # # # # # # # # # # # # . . - ; . = . . . . . . . . . . . . . . . . . . ",
". . . . . . . . . . . . . . . . . = & - > # , ' ) ) ) ) ) ) ) ) ) ) ) ) ) ) ) ) ' ' ' ! ~ { . . . . . . . . . . . . . . . . . . ",
". . . . . . . . . . . . . . . . . . @ @ ] ] ' ^ / / / / / / / / / / / / / / / / ( ' ' ( + = - = . . . . . . . . . . . . . . . . ",
". . . . . . . . . . . . . . . . _ $ ! , : < [ } | | | | | | | | | | | | | | | | 1 ) ) } ' 2 . . . . . . . . . . . . . . . . . . ",
". . . . . . . . . . . . . . . . . . 3 3 4 5 / ) ) ) ) ) ) ) ) ) ) ) ) ) ) ) ) ) ) ) ) 6 3 7 . . . . . . . . . . . . . . . . . . ",
". . . . . . . . . . . . . . . . ' 8 [ 9 } 9 } } ) ) ) ) ) ) ) ) ) ) ) ) ) ) ) ) 9 ) 9 } ' 3 . . . . . . . . . . . . . . . . . . ",
". . . . . . . . . . . . . . . . ' ' 9 / 9 1 ) [ ) ) ) ) ) ) ) ) ) ) ) ) ) ) ) ) 6 ) [ [ ! ' . . . . . . . . . . . . . . . . . . ",
". . . . . . . . . $ . + . & = $ ^ ' 1 ) ) ) ) 9 ) ) ) ) ) ) ) ) ) ) ) [ ) ) 0 0 ) ) ' ' . . . . . . . . . . . . . . . . . . . . ",
". . . . . . . . . $ . . = . = @ ' ! 1 1 ) [ [ 1 ) ) ) ) ) ) ) ) ) ) ) [ ) ) 0 0 ) [ ' ' . . . . . . . . . . . . . . . . . . . . ",
". . . . . . . . = . . . . . , ^ 0 0 ) ) ) ) ) ) ) ) ) ) ) ) ) ) ) ) / ) / ) 0 0 ' ! ' ! . . . - . . . . . . . . . . . . . . . . ",
". . . . . . . . . . . * . . ( a b 4 9 [ [ c [ [ ) ) ) ) ) ) ) ) [ ) ) [ ) [ d d ^ ^ ' a e . . . . . . . . . . . . . . . . . . . ",
". . . . . . . . . . + . . . 8 ! f d 5 0 1 / / / ) ) ) ) ) ) ) ) / ) ) / b d 0 0 # # 3 ' @ . = { . . . . . . . . . . . . . . . . ",
". . . . . . . . = . + $ + . ' ' b b 4 b / [ g ) ) ) ) ) ) ) ) ) ) ) ) ) 0 0 0 0 # # ' ' . @ . . . . . . . . . . . . . . . . . . ",
". . . . . . . . . . . . . + 3 h i j 0 0 d 0 0 4 ) ) ) ) ) ) ) ) 0 0 0 d b 0 0 0 k # 3 ' @ . . + . . . . . . . . . . . . . . . . ",
". . . . . . . . . = = - . . 3 ' j j l 0 0 0 0 0 ) ) ) ) ) ) ) ) 0 0 0 0 0 0 0 0 # > a ' . @ . . . . . . . . . . . . . . . . . . ",
". . . . . . . . . . . - . . ' ' # # m m 0 5 0 0 0 0 5 n : 0 b 0 0 0 0 b 0 0 o # < 0 p ' + . . . . . . . . . . . . . . . . . . . ",
". . . . . . . . & . . . + . ' ' # > m q r 0 l 0 0 0 4 0 4 0 5 5 0 4 5 4 0 0 o o 0 5 a ' . . . . . . . . . . . . . . . . . . . . ",
". . . . . . . . . . . . . + s s d 0 > t o t u v w # # x v # # v # # k y ] z 5 A l l B C D E . . . . . . . . . . . . . . . . . . ",
". . . . . . . . - . . . . & F s G b ] o H k # o o o I t # J w K K # t w K L 0 l M N O P Q E & R . . . . . . . . . . . . . . . . ",
". . . . . . . . . . . = + . s s S T N N : 0 0 0 1 1 b 0 [ [ } U < 0 l : l l 0 0 s s V C W B s s . . . . . . . . . . . . . . . . ",
". . . . . . . . . . . & . . s s T X A l M 0 l l Y 9 Z `  .) ) / A 0 ..0 d 0 l 0 D D +.+.P +.s E . . . . . . . . . . . . . . . . ",
". . . . . . . . . . . = . = . @.T #.$.%.! ' ) ) m &.j *.=.' -.+.B ;.B +.+.+.( ' >.s +.P +.C s s . . . . . . . . . . . . . . . . ",
". . . . . . . . @ . . + . $ = . T T ,.'.' a ) ) m m ).j ' ' +.+.+.!.+.+.P +.' ' D s +.+.P +.s s . . . . . . . . . . . . . . . . ",
". . . . . . . . . . . . . . . . T T ~.{.s s ) ) ,.,.O B +.+.! ' , ' ' ' ' ' s s s ].+.+.+.^.+.B s s + R . . - $ . . . . . . . . ",
". . . . . . . . . . . . . . . . T T ~.~.s D ) ) /.,.(.+.-.B _.:., ' ' , ' , s s s s +.<.!.O P (.s s . + . . . + . . . . . . . . ",
". . . . . . . . . . . . . . . . '.,.~.[.{.}.|.1.,.$.^.O ' ' 2.,.s s s s D s 3.;.+.+.s s C ^.C +.4.4.. . . . . . . . . . . . . . ",
". . . . . . . . . . . . . . . . 5.6.~.7.8.|.8.~.9.'.;.+., ' 0.a.b.b.s E Q E c.!.+.+.s D ^.O +.+.s s $ . . . . . . . . . . . . . ",
". . . . . . . . . . . . . . . . d.; T X {.}.,.,.,.$.e.+.+.+.S T E f.+.+.g.g.B B +.+.s s h.^ ' ' E 4.. @ $ . . . . . . . . . . . ",
". . . . . . . . . . . . . . . . % $ T i.~.|.,.,.'.,.j.B +.B i.T s D P +.(.k.C +.+.+.s D ( , ( ' s s . . . . . . . . . . . . . . ",
". . . . . . . . . . . . . . . . @.. . . T T S T T T E s s s s s s s C +.E f.+.+.s s . . s ].s D . . . @ . $ & . . . . . . . . . ",
". . . . . . . . . . . . . . . . . . . . T T T T T T s l.s s s s E ].+.+.s s O O s s . - s s s s + . . . . . @ = . . . . . . . . ",
". . . . . . . . . . . . . . . . . . - . m.. T T 0 0 4 0 0 0 D s n.n.s s s s s s . . . . . . . . . . . . . . . . . . . . . . . . ",
". . . . . . . . . . . . . . . . . . . . . . o.T : : 0 : 0 4 s s n.n.l.s D f.E s . . . . . . . . . . . . . . . . . . . . . . . . ",
". . . . . . . . . . . . . . . . . . ; @ b 4 p.q.r.s.p.X u # E s T T s s . . + + . . . . . . . . . . . . . . . . . . . . . . . . ",
". . . . . . . . . . . . . . . . @ . % t.` ` T T u.v.S S o w.b.s T q.s E x.. d.@ . . . . . . . . . . . . . . . . . . . . . . . . ",
". . . . . . . . . . . . . . . . $ @ d.y.T X ~.~.z.A.X B.1 [ C.) ' p S i.E s . - . . . . . . . . . . . . . . . . . . . . . . . . ",
". . . . . . . . . . . . . . . . . . . - D.T |.|.5 N E.F.9 ) 9 ) , ' T G.D s = = . . . . . . . . . . . . . . . . . . . . . . . . ",
". . . . . . . . . . . . . . . . . . s s T T H.~.I.~.T T ) ) ) 6 3 ! J.K.s s . . . . . . . . . . . . . . . . . . . . . . . . . . ",
". . . . . . . . . . . . . . . . . = s E F.T ~.~.~.~.p.S ) / ) ) ' 3 L.M.s s $ . . . . . . . . . . . . . . . . . . . . . . . . . ",
". . . . . . . . . . . . . . . . f.s T T # # T i.T T # # # # # # ! ' s s E s . . . . . . . . . . . . . . . . . . . . . . . . . . ",
". . . . . . . . . . . . . . . . s s T S v N.p.p.i.T t O.# o # v ! 3 s s D E + $ . . . . . . . . . . . . . . . . . . . . . . . . ",
". . . . . . . . . . . . . . . . s s i.T T q.s s l.E s 4.E D s s P.~.~.~.Q.m l.s . . . . . . . . . . . . . . . . . . . . . . . . ",
". . . . . . . . . . . . . . . . s D T X R.B.E s s s s s s E s l.}.|.8.1.S.T.s s . . . . . . . . . . . . . . . . . . . . . . . . ",
". . . . . . . . . . . . . . . . + - b.E s D . . . + _ U._ { . { s s Q.m m m s s . . . . . . . . . . . . . . . . . . . . . . . . ",
". . . . . . . . . . . . . . . . . . E l.E f.e . . . . @ . @ $ = D s T.m m m s s . . . . . . . . . . . . . . . . . . . . . . . . ",
". . . . . . . . . . . . . . . . . . ~ & - . - = = - @ + . . . . . . s s E s . . . . . . . . . . . . . . . . . . . . . . . . . . ",
". . . . . . . . . . . . . . . . . . $ + . . . . . . . . . . . . . . s s s s . . . . . . . . . . . . . . . . . . . . . . . . . . ",
". . . . . . . . . . . . . . . . . . . . . . . . . . . . . . . . . . . . . . . . . . . . . . . . . . . . . . . . . . . . . . . . ",
". . . . . . . . . . . . . . . . . . . . . . . . . . . . . . . . . . . . . . . . . . . . . . . . . . . . . . . . . . . . . . . . ",
". . . . . . . . . . . . . . . . . . . . . . . . . . . . . . . . . . . . . . . . . . . . . . . . . . . . . . . . . . . . . . . . ",
". . . . . . . . . . . . . . . . . . . . . . . . . . . . . . . . . . . . . . . . . . . . . . . . . . . . . . . . . . . . . . . . ",
". . . . . . . . . . . . . . . . . . . . . . . . . . . . . . . . . . . . . . . . . . . . . . . . . . . . . . . . . . . . . . . . ",
". . . . . . . . . . . . . . . . . . . . . . . . . . . . . . . . . . . . . . . . . . . . . . . . . . . . . . . . . . . . . . . . ",
". . . . . . . . . . . . . . . . . . . . . . . . . . . . . . . . . . . . . . . . . . . . . . . . . . . . . . . . . . . . . . . . ",
". . . . . . . . . . . . . . . . . . . . . . . . . . . . . . . . . . . . . . . . . . . . . . . . . . . . . . . . . . . . . . . . "};
