/* XPM */
static char * dawn sx sx_xpm[] = {
"64 64 187 2",
"  	c None",
". 	c #70C8A0",
"+ 	c #70C8A2",
"@ 	c #6EC9A0",
"# 	c #70C89E",
"$ 	c #6EC99E",
"% 	c #6EC8A2",
"& 	c #71C7A0",
"* 	c #71C9A1",
"= 	c #72C8A1",
"- 	c #71C99F",
"; 	c #6FC79F",
"> 	c #A9A1CA",
", 	c #A8A0C9",
"' 	c #AA9FC9",
") 	c #396089",
"! 	c #6FCAA1",
"~ 	c #ABA0CA",
"{ 	c #A79FC8",
"] 	c #A7A0CA",
"^ 	c #A79FC6",
"/ 	c #C9C8D6",
"( 	c #C8C7D7",
"_ 	c #E9E8F8",
": 	c #E8E7F7",
"< 	c #E8EAF9",
"[ 	c #E7E9F8",
"} 	c #3A5F89",
"| 	c #376189",
"1 	c #70C6A1",
"2 	c #6FC7A1",
"3 	c #A89FCA",
"4 	c #A79EC9",
"5 	c #C9C8D8",
"6 	c #E7E8FA",
"7 	c #EAE7F8",
"8 	c #E9E8FA",
"9 	c #386288",
"0 	c #38628A",
"a 	c #A9A1C8",
"b 	c #E9EBF8",
"c 	c #EAE9F7",
"d 	c #E7E9F6",
"e 	c #EBE8F9",
"f 	c #EAE8F6",
"g 	c #EAE9F9",
"h 	c #3B608A",
"i 	c #39608B",
"j 	c #71C7A2",
"k 	c #70C69F",
"l 	c #AA9FCA",
"m 	c #3A5F8B",
"n 	c #EAE9FB",
"o 	c #E8E5F6",
"p 	c #EAE7FA",
"q 	c #E9E6F9",
"r 	c #E9E6F7",
"s 	c #385F88",
"t 	c #E9E8F6",
"u 	c #3A618A",
"v 	c #CAC9D9",
"w 	c #396087",
"x 	c #385F8A",
"y 	c #A7A0C9",
"z 	c #C9C8DA",
"A 	c #3A618C",
"B 	c #CAC7D8",
"C 	c #C8C7D9",
"D 	c #C8CAD9",
"E 	c #A8A0C7",
"F 	c #E890C2",
"G 	c #E791BE",
"H 	c #E890C0",
"I 	c #E990C0",
"J 	c #C7C9D8",
"K 	c #ABA0CB",
"L 	c #C0689A",
"M 	c #C06898",
"N 	c #A8A1CA",
"O 	c #71C9A3",
"P 	c #BF6996",
"Q 	c #010101",
"R 	c #000000",
"S 	c #C6C8D5",
"T 	c #A9A0CB",
"U 	c #ABA0C8",
"V 	c #AA9FC7",
"W 	c #CAC9D7",
"X 	c #383F4F",
"Y 	c #CCC7DB",
"Z 	c #A7A1C7",
"` 	c #A69FC9",
" .	c #A99EC8",
"..	c #38404D",
"+.	c #773F40",
"@.	c #CAC9DB",
"#.	c #000002",
"$.	c #784041",
"%.	c #784043",
"&.	c #363F4E",
"*.	c #7A3F41",
"=.	c #D7A079",
"-.	c #394050",
";.	c #373E4E",
">.	c #373F4C",
",.	c #F8D0B7",
"'.	c #D79F7A",
").	c #784144",
"!.	c #F7CFB6",
"~.	c #F6D1B7",
"{.	c #D8A17A",
"].	c #37618B",
"^.	c #393E51",
"/.	c #373E50",
"(.	c #000100",
"_.	c #D99F79",
":.	c #F6D0B9",
"<.	c #F9D1B8",
"[.	c #DAA07A",
"}.	c #D69F78",
"|.	c #D69F76",
"1.	c #383F51",
"2.	c #37404F",
"3.	c #394052",
"4.	c #010103",
"5.	c #D6A07A",
"6.	c #D6A179",
"7.	c #F9CFB7",
"8.	c #3A6188",
"9.	c #D5A076",
"0.	c #000004",
"a.	c #3A4050",
"b.	c #393F4F",
"c.	c #71C89E",
"d.	c #794144",
"e.	c #FAD0B7",
"f.	c #FAD0B8",
"g.	c #DAA07B",
"h.	c #383F52",
"i.	c #7B4042",
"j.	c #F8CFB9",
"k.	c #D69E79",
"l.	c #794142",
"m.	c #6FC79D",
"n.	c #010000",
"o.	c #374051",
"p.	c #FFFFFD",
"q.	c #FFFFFF",
"r.	c #C8C9DB",
"s.	c #C7C8DA",
"t.	c #FEFEFE",
"u.	c #3A6087",
"v.	c #C03936",
"w.	c #C13737",
"x.	c #77413F",
"y.	c #C23835",
"z.	c #E8EAF7",
"A.	c #C0383A",
"B.	c #C1393B",
"C.	c #BF3737",
"D.	c #BF3739",
"E.	c #010100",
"F.	c #020001",
"G.	c #A69FC8",
"H.	c #EAE8FD",
"I.	c #CBC9D7",
"J.	c #F8D0B6",
"K.	c #794343",
"L.	c #78403F",
"M.	c #E8E7F9",
"N.	c #E7E6F6",
"O.	c #7A3F43",
"P.	c #793E40",
"Q.	c #F16848",
"R.	c #F1674A",
"S.	c #AB9EC9",
"T.	c #7A403F",
"U.	c #784242",
"V.	c #BF6998",
"W.	c #774141",
"X.	c #7C4040",
"Y.	c #37414D",
"Z.	c #000200",
"`.	c #C16898",
" +	c #C1679A",
".+	c #C06996",
"++	c #72C99F",
". . . . . . . . . . . . . . . . . . . . . . . . . . . . . . . . . . . . . . . . . . . . . . . + . . . . . . . . . . . . . . . . ",
". . . . . . . . . . . . . . . . . . . . . . . . . . . . . . . . . . @ . . . # . + . + . . . . . . . . . . . . . . . . . . . . . ",
". . . . . . . . . . . . . . . . . . . . . . . . . . . . . . . . . . . . . . . . # . . . @ . . . . . . . . . . . . . . . . . . . ",
". . . . . . . . . . . . . . . . . . . . . . . . . . . . . . . . # $ + % . . & . * # * @ + . + & . . . . . . . . . . . . . . . . ",
". . . . . . . . . . . . . . . . . . . . . . . . . . . . . . . . . . . & & & . . . . + = @ = . . . . . . . . . . . . . . . . . . ",
". . . . . . . . . . . . . . . . . . . . . . . . . . . . . . . . . . . @ & @ . . . . - . * . . . . . . . . . . . . . . . . . . . ",
". . . . . . . . . . . . . . . . . . . . . . . . . . . . . . . . . . . & . & . . . . ; . ; * . . . . . . . . . . . . . . . . . . ",
". . . . . . . . . . . . . . . . . . . . . . . . . . . . . . . . @ . > , ' , , ' ' ' ) ) # & # # . . . . . . . . . . . . . . . . ",
". . . . . . . . . . . . . . . . & * . & . . . . + @ . . . . . @ ! @ ~ , ' { , ' , , ) ) . . . . . . . . . . . . . . . . . . . . ",
". . . . . . . . . . . . . . . . . + . ; - . . . . @ , ] ^ , , , / ( _ _ : _ _ _ < [ _ _ } | . . . . . . . . . . . . . . . . . . ",
". . . . . . . . . . . . . . . . @ . . . 1 & 2 2 . . 3 { 3 ' 4 3 5 5 _ 6 _ _ 7 _ _ 7 _ 8 9 0 . . . . . . . . . . . . . . . . . . ",
". . . . . . . . . . . . . . . . + ; + ; ! @ a ] ) ) b < c < c d [ _ _ e _ f _ _ _ 7 g _ h i . & . . . . . . . . . . . . . . . . ",
". . . . . . . . . . . . . . . . . . . 2 j k l ' m } n o p q q _ _ _ n 8 _ _ g _ _ _ r _ s 0 . . . . . . . . . . . . . . . . . . ",
". . . . . . . . . . . . . . . . . k $ . | ) 5 5 t _ t g c < t d _ _ _ 7 _ _ : 7 p 7 u ) . ; . . . . . . . . . . . . . . . . . . ",
". . . . . . . . . . . . . . . . . . 2 ; ) i 5 5 _ g _ p t _ 7 _ _ _ _ : _ _ g _ [ [ s } # * . . . . . . . . . . . . . . . . . . ",
". . . . . . . . . . . . . . . . k . ) h _ _ _ _ _ _ 8 7 _ 7 _ 8 _ _ _ _ 7 _ 7 _ _ e , , . . ; . . . . . . . . . . . . . . . . . ",
". . . . . . . . . . . . . . . . . + ) u : _ _ _ _ _ _ : _ _ _ _ g _ _ _ : _ _ _ _ g , , . + . . . . . . . . . . . . . . . . . . ",
". . . . . . . . . . . . . . . . . . u ) < 7 _ _ _ _ _ g _ _ _ : _ _ _ : _ : _ _ 5 v , , u w . . . . . . . . . . . . . . . . . . ",
". . . . . . . . . . . . . . . . . . x ) r _ _ : _ _ _ _ _ _ _ g _ _ : _ : g _ _ 5 ( y , ) m . . . . . . . . . . . . . . . . . . ",
". . . . . . . . . . . . . . . . | s / 5 < g g 8 g g _ _ : _ _ _ _ _ g _ g _ g g 5 5 z 5 u ) . . . . . . . . . . . . . . . . . . ",
". . . . . . . . . . . . . . . . A A 5 z : _ _ _ _ g _ _ _ _ _ _ _ _ _ _ : _ : : B C B z ) ) * . . . . . . . . . . . . . . . . . ",
". . . . . . . . . . . . . . . . s ) 5 / D 5 [ _ g _ _ _ g _ _ _ _ _ _ _ g g v 5 5 5 , E i ) + . . . . . . . . . . . . . . . . . ",
". . . . . . . . . . . . . . . . ) ) 5 z ( 5 _ _ _ _ : _ _ _ _ _ _ _ _ _ : _ ( 5 5 ( E 3 w u @ + . . . . . . . . . . . . . . . . ",
". . . . . . . . . . . . . . . . u u F G 5 5 D 5 5 5 _ _ _ _ _ _ _ _ 5 5 5 5 5 5 5 5 , , ) ) . . . . . . . . . . . . . . . . . . ",
". . . . . . . . . . . . . . . . ) 0 H I 5 5 z v J z _ _ _ [ _ _ _ _ 5 5 5 5 5 5 5 5 K 3 ) | . . . . . . . . . . . . . . . . . . ",
". . . . . . . . . . . . . . . . i ) ] E L M / 5 5 5 ( 5 5 5 5 5 v 5 v 5 5 5 5 5 , N 5 5 ) ) . O . . . . . . . . . . . . . . . . ",
". . . . . . . . . . . . . . . . ) ) E K P M 5 J 5 v v 5 5 5 5 v 5 ( ( 5 5 5 v ( , l v 5 ) ) @ . . . . . . . . . . . . . . . . . ",
". . . . . . . . . . . . . . . . Q R J S T ] U ~ { , { , ~ , > V , , > , > , , > 5 W ( z X X . . . . . . . . . . . . . . . . . . ",
". . . . . . . . . . . . . . . . R R B Y Z , 3 , a , ~ > { , { ` ' ' ' '  . .'  .z z / 5 ..X . # . . . . . . . . . . . . . . . . ",
". . . . . . . . . . . . . . . . R R +.+.@.5 W / v 5 _ _ 5 z _ _ _ _ 5 v 5 5 5 5 ( ( R R X X R R . . . . . . . . . . . . . . . . ",
". . . . . . . . . . . . . . . . #.R $.%./ 5 B ( 5 5 _ _ 5 5 _ _ _ : ( ( 5 5 5 ( 5 5 R R &.X R R . . . . . . . . . . . . . . . . ",
". . . . . . . . . . . . . . . . . . *.$.=.=.} ) _ _ M M H H s ) X X X -.;.X X X ) ) R R X >.R R . . . . . . . . . . . . . . . . ",
". . . . . . . . . . . . . . . . # . $.$.,.,.R #._ _ X X ) ) '.=.) ) ) w ) ) 0 | #.#.X X X X R R . . . . . . . . . . . . . . . . ",
". . . . . . . . . . . . . . . . . . $.).!.~.R R _ _ X X ) ) {.=.u A ) ].) s ) } R R X ^./.^.R (.. . . . . . . . . . . . . . . . ",
". . . . . . . . . . . . . . . . * . =._.:.,.<.,.X X s ) i i [.{.}.|.R R #.R R R Q R 1.2.3.2.R 4.. . . . . . . . . . . . . . . . ",
". . . . . . . . . . . . . . . . . . 5.6.7.!.,.,.-.X 8.) ) i 9.}.{.{.#.0.R R Q Q R R ^.a.X b.R R . . . . . . . . . . . . . . . . ",
". . . . . . . . . . . . . . . . . . c.c.).d.e.f./.X s } '.=.g.{.+.+.R R h.;./.;.X X ) | s s 4.4.. . . . . . . . . . . . . . . . ",
". . . . . . . . . . . . . . . . . . O % i.$.j.j.X -.w ) =.6.k.}.l.$.R 0.X ;.-.-.;.;.) u w ) R R . . . . . . . . . . . . . . . . ",
". . . . . . . . . . . . . . . . . . . m.! . $.$.+.+.$.*.R n.Q R R R R R o.-.R R X X R Q #.R . * . . . . . . . . . . . . . . . . ",
". . . . . . . . . . . . . . . . . . . . . . $.$.$.$.$.$.R Q R R R (.R #.X X R R X b.Q R R R . * . . . . . . . . . . . . . . . . ",
". . . . . . . . . . . . . . . . . . . . . + ; . X X 5 5 5 5 5 5 R (.p.q.R #.R R R R . . . . . . . . . . . . . . . . . . . . . . ",
". . . . . . . . . . . . . . . . . . * + . . . # 2.X 5 J @.r.s.5 R R q.t.R R R R R Q . * . & . * . . . . . . . . . . . . . . . . ",
". . . . . . . . . . . . . . . . . . @ m.3 , 3 T 8 n u.) v.w.x.$.v.y.R R Q R . . . O . . . . . . . . . . . . . . . . . . . . . . ",
". . . . . . . . . . . . . . . . . @ . O V , E E z.[ u ) A.B.+.%.C.D.E.R F.R + & ; # . * + ; . . . . . . . . . . . . . . . . . . ",
". . . . . . . . . . . . . . . . . . G.^ 8 _ H.n %.%.$.+.I.B J.,.K.L.6 M.N.8 R Q O * & . . . . . . . . . . . . . . . . . . . . . ",
". . . . . . . . . . . . . . . . . . y , t 7 d t $.$.%.O.J 5 ,.,.L.P.7 7 _ t #.#.m.; + . . . . * . . . . . . . . . . . . . . . . ",
". . . . . . . . . . . . . . . . . . ; . y , $.$.Q.R.%.$.,.<.J.,.l.l.7 _ _ _ R (.. . . . + . & . . . . . . . . . . . . . . . . . ",
". . . . . . . . . . . . . . . . . . . + y , $.$.Q.Q.$.$.,.,.,.,.$.$._ _ _ g R Q . * . . . . ; & . . . . . . . . . . . . . . . . ",
". . . . . . . . . . . . . . . . . + . & . + R Q *.%., , $.+.$.%.S., , , G., $.$.R R . . . . . . . . . . . . . . . . . . . . . . ",
". . . . . . . . . . . . . . . . . . & @ * . R R T.U., 3 $.O.*.%., , , , T , +.%.R R . . . . . . . . . . . . . . . . . . . . . . ",
". . . . . . . . . . . . . . . . . . +.*.$.*.V.M X 1.+.W.R R R R R R R 4.R R X.$.R R . . . . + $ . . . . . . . . . . . . . . . . ",
". . . . . . . . . . . . . . . . . . l.W.$.$.M M X Y.l.$.Q R Q R R R Z.R Q 4.$.$.R R . . . . . . . . . . . . . . . . . . . . . . ",
". . . . . . . . . . . . . . . . . @ R #.M `.M  +`.M R R . & . & + j j j #.R n.#.. . . . . . . . . . . . . . . . . . . . . . . . ",
". . . . . . . . . . . . . . . . . . E.Q P .+.+`..+M R R . . ; O . - @ ++#.n.R R . . . . . . # + . . . . . . . . . . . . . . . . ",
". . . . . . . . . . . . . . . . . * . . R R #.R #.R . . . . * # ; . # + $ . . . . . . . # . . . . . . . . . . . . . . . . . . . ",
". . . . . . . . . . . . . . . . . . + . R Q R R R R . . * . . . . . . & + . . ! . . . . . . . . . . . . . . . . . . . . . . . . ",
". . . . . . . . . . . . . . . . . . . . . . . . . . . . . . . . . . . . . . . . . . . . . . . . . . . . . . . . . . . . . . . . ",
". . . . . . . . . . . . . . . . . . . . . . . . . . . . . . . . . . . . . . . . . . . . . . . . . . . . . . . . . . . . . . . . ",
". . . . . . . . . . . . . . . . . . . . . . . . . . . . . . . . . . . . . . . . . . . . . . . . . . . . . . . . . . . . . . . . ",
". . . . . . . . . . . . . . . . . . . . . . . . . . . . . . . . . . . . . . . . . . . . . . . . . . . . . . . . . . . . . . . . ",
". . . . . . . . . . . . . . . . . . . . . . . . . . . . . . . . . . . . . . . . . . . . . . . . . . . . . . . . . . . . . . . . ",
". . . . . . . . . . . . . . . . . . . . . . . . . . . . . . . . . . . . . . . . . . . . . . . . . . . . . . . . . . . . . . . . ",
". . . . . . . . . . . . . . . . . . . . . . . . . . . . . . . . . . . . . . . . . . . . . . . . . . . . . . . . . . . . . . . . ",
". . . . . . . . . . . . . . . . . . . . . . . . . . . . . . . . . . . . . . . . . . . . . . . . . . . . . . . . . . . . . . . . "};
