/* XPM */
static char * dawn standing rx_xpm[] = {
"64 64 179 2",
"  	c None",
". 	c #70C8A0",
"+ 	c #396089",
"@ 	c #A8A0C9",
"# 	c #A89FCA",
"$ 	c #A7A0C9",
"% 	c #A9A1CA",
"& 	c #A79FC8",
"* 	c #71C9A1",
"= 	c #6EC8A2",
"- 	c #6EC9A0",
"; 	c #70C8A2",
"> 	c #71C7A0",
", 	c #6FCAA1",
"' 	c #6FC79F",
") 	c #3A5F89",
"! 	c #3A618A",
"~ 	c #A89FCC",
"{ 	c #70C89E",
"] 	c #396087",
"^ 	c #E9E8F8",
"/ 	c #E7E9F8",
"( 	c #E7E9F6",
"_ 	c #EAE9F9",
": 	c #E8EAF9",
"< 	c #E9E8F6",
"[ 	c #A7A0CA",
"} 	c #A9A0CB",
"| 	c #71C9A3",
"1 	c #395E8A",
"2 	c #EAE7F8",
"3 	c #EAE9FB",
"4 	c #E8E7F7",
"5 	c #E9E8FA",
"6 	c #E8E7F5",
"7 	c #E7E8FA",
"8 	c #A79FC6",
"9 	c #A59EC7",
"0 	c #A8A0C7",
"a 	c #A6A0C6",
"b 	c #EAE8F6",
"c 	c #EBE8F9",
"d 	c #ECE9FC",
"e 	c #3A618C",
"f 	c #AA9FC7",
"g 	c #6FC7A1",
"h 	c #E9E6F7",
"i 	c #E6E8F7",
"j 	c #385F88",
"k 	c #71C7A2",
"l 	c #C9C8D8",
"m 	c #385F86",
"n 	c #E8E7F9",
"o 	c #376189",
"p 	c #A99EC8",
"q 	c #AA9FC9",
"r 	c #CAC9D9",
"s 	c #38628A",
"t 	c #72C99F",
"u 	c #C7C9D8",
"v 	c #C8C7D7",
"w 	c #39608B",
"x 	c #6DC89F",
"y 	c #CAC7D8",
"z 	c #C9C8DA",
"A 	c #C9C8D6",
"B 	c #E890C0",
"C 	c #71C89E",
"D 	c #C6C8D7",
"E 	c #E791BE",
"F 	c #E98FC2",
"G 	c #3B608A",
"H 	c #CBC7D8",
"I 	c #CAC9D7",
"J 	c #CBC8D9",
"K 	c #C9C6D7",
"L 	c #C06898",
"M 	c #C7C8DA",
"N 	c #C6C7D9",
"O 	c #C8C9DB",
"P 	c #BE6895",
"Q 	c #3A5F8B",
"R 	c #000000",
"S 	c #000002",
"T 	c #38404D",
"U 	c #383F51",
"V 	c #A99EC6",
"W 	c #010000",
"X 	c #010200",
"Y 	c #363F50",
"Z 	c #383F4F",
"` 	c #C8C7D9",
" .	c #AA9FCA",
"..	c #010103",
"+.	c #784041",
"@.	c #393F4F",
"#.	c #010101",
"$.	c #6EC99E",
"%.	c #3A4050",
"&.	c #37404F",
"*.	c #E990C0",
"=.	c #C16898",
"-.	c #D7A077",
";.	c #D7A079",
">.	c #373E4E",
",.	c #3A6188",
"'.	c #E890C2",
").	c #E88EC1",
"!.	c #D5A078",
"~.	c #D69F78",
"{.	c #773F42",
"].	c #384150",
"^.	c #D79F7A",
"/.	c #394050",
"(.	c #F8CFB9",
"_.	c #F8D0B7",
":.	c #793F3E",
"<.	c #773F3E",
"[.	c #373F4C",
"}.	c #35414F",
"|.	c #010002",
"1.	c #366088",
"2.	c #385F8A",
"3.	c #37618B",
"4.	c #395E88",
"5.	c #D8A17A",
"6.	c #E8E9FB",
"7.	c #010100",
"8.	c #FAD0B8",
"9.	c #784043",
"0.	c #794142",
"a.	c #39414E",
"b.	c #374051",
"c.	c #D7A27A",
"d.	c #D99F79",
"e.	c #F9CFB7",
"f.	c #F9CFB9",
"g.	c #F6D1B7",
"h.	c #D69F76",
"i.	c #373E50",
"j.	c #F9D0BA",
"k.	c #FAD0B7",
"l.	c #F8D0B6",
"m.	c #774141",
"n.	c #72C8A1",
"o.	c #7A3F43",
"p.	c #78403F",
"q.	c #7A3F41",
"r.	c #FFFFFF",
"s.	c #CAC8D6",
"t.	c #6DC89D",
"u.	c #6FC79D",
"v.	c #70C79D",
"w.	c #C8CAD9",
"x.	c #70C69F",
"y.	c #6FC9A3",
"z.	c #000100",
"A.	c #773F40",
"B.	c #C23835",
"C.	c #BF3739",
"D.	c #A8A1CA",
"E.	c #C03838",
"F.	c #C23838",
"G.	c #794140",
"H.	c #793E40",
"I.	c #000200",
"J.	c #774043",
"K.	c #F16848",
"L.	c #F7CFB6",
"M.	c #EAE7FA",
"N.	c #020003",
"O.	c #764040",
"P.	c #BF6797",
"Q.	c #C16999",
"R.	c #383E4E",
"S.	c #C26997",
"T.	c #BF6996",
"U.	c #C06797",
"V.	c #394052",
". . . . . . . . . . . . . . . . . . . . . . . . . . . . . . . . . . . . . . . . . . . . . . . . . . . . . . . . . . . . . . . . ",
". . . . . . . . . . . . . . . . . . . . . . . . . . . . . . . . . . . . . . . . . . . . . . . . . . . . . . . . . . . . . . . . ",
". . . . . . . . . . . . . . . . . . . . . . . . . . . . . . . . . . . . . . . . . . . . . . . . . . . . . . . . . . . . . . . . ",
". . . . . . . . . . . . . . . . . . . . . . . . . . . . . . . . . . . . . . . . . . . . . . . . . . . . . . . . . . . . . . . . ",
". . . . . . . . . . . . . . . . . . . . . . . . . . . . . . . . . . . . . . . . . . . . . . . . . . . . . . . . . . . . . . . . ",
". . . . . . . . . . . . . . . . . . . . . . . . . . . . . . . . . . . . . . . . . . . . . . . . . . . . . . . . . . . . . . . . ",
". . . . . . . . . . . . . . . . . . . . . . . . . . . . . . . . . . . . . . . . . . . . . . . . . . . . . . . . . . . . . . . . ",
". . . . . . . . . . . . . . . . . . . . . . . . . . . . . . . . . . . . . . . . . . . . . . . . . . . . . . . . . . . . . . . . ",
". . . . . . . . . . . . . . . . . . . + + + + @ # $ @ % @ & @ . * . * = . . . - . . ; . . * > , . . . . . . . . . . . . . . . . ",
". . . . . . . . . . . . . . . . . . ' + ) + ! # # @ # ~ # & # . . > . . . . . { . , . { { . . . . . . . . . . . . . . . . . . . ",
". . . . . . . . . . . . . . . . * + ] ^ ^ / ( _ _ : ^ _ < _ ^ @ # # @ [ @ } @ . * > . . | { . . . . . . . . . . . . . . . . . . ",
". . . . . . . . . . . . . . . . . 1 + _ ^ 2 3 4 5 4 / 4 / 6 7 8 8 9 0 & 8 a & . . - - > > . . . . . . . . . . . . . . . . . . . ",
". . . . . . . . . . . . . . . . . + + ^ b ^ / c c ^ c ^ b ^ _ _ 3 d 5 3 5 2 c + e & f = . . g > . . . . . . . . . . . . . . . . ",
". . . . . . . . . . . . . . . . . + + ^ ^ 2 5 ^ ^ h ^ 6 ^ ^ ^ / ^ i ( 4 ^ < < j j @ $ k ' . * . . . . . . . . . . . . . . . . . ",
". . . . . . . . . . . . . . . . . . . + + ^ / ^ 2 ^ 6 _ 2 2 ^ 2 ^ 2 ^ ^ 2 < h ^ 5 l l + + . ; . . . . . . . . . . . . . . . . . ",
". . . . . . . . . . . . . . . . { . . m + ^ ^ ^ ^ _ ^ n 5 2 ^ ^ 4 ^ 5 ^ 2 ^ ^ ^ ^ l l + + . . > . . . . . . . . . . . . . . . . ",
". . . . . . . . . . . . . . . . . . . . > @ @ ^ _ ^ ^ ^ 4 ^ ^ ^ ^ ^ ^ ^ ^ ^ ^ ^ 4 ^ 5 ^ ^ + + . ' . . . . . . . . . . . . . . . ",
". . . . . . . . . . . . . . . . . . . . * @ @ ^ _ ^ ^ ^ ^ ^ ^ ^ ^ ^ ^ ^ ^ ^ ^ ^ ^ ^ ^ ^ ^ + + ' ' . . . - . . . . . . . . . . . ",
". . . . . . . . . . . . . . . . . - . ! o $ p l l ^ 4 ^ ^ ^ ^ ^ ^ ^ ^ ^ ^ ^ ^ ^ ^ ^ ^ ^ n + o ; . . . { > . . { . . . . . . . . ",
". . . . . . . . . . . . . . . . ; . . ] ) q @ r l ^ ^ ^ ^ ^ ^ ^ ^ ^ ^ ^ ^ ^ ^ ^ ^ ^ ^ : _ s + t { . - . - . . . . . . . . . . . ",
". . . . . . . . . . . . . . . . . . . e s u u v v 4 ^ ^ ^ ^ ^ ^ ^ ^ ^ ^ ^ ^ ^ ^ ^ 2 ^ h i v l w w . . x > . . . . . . . . . . . ",
". . . . . . . . . . . . . . . . . - . + + y y l l ^ ^ ^ ^ ^ ^ ^ ^ ^ ^ ^ ^ ^ ^ ^ 2 ^ ^ / ^ l y o + . . ; . . . ; . . . . . . . . ",
". . . . . . . . . . . . . . . . . . . + w @ % r v l l ^ 4 ^ ^ ^ ^ ^ ^ ^ ^ ^ ^ ^ ^ ^ 5 l l l l ! ! . . - . . . . . . . . . . . . ",
". . . . . . . . . . . . . . . . > . . + + @ & l l r v ^ ^ ^ ^ ^ ^ ^ ^ ^ ^ ^ ^ ^ ^ ^ ^ l l l v + + . . . . . . . . . . . . . . . ",
". . . . . . . . . . . . . . . . . . . + ] @ @ u l l l l l l l ^ ^ ^ ^ ^ ^ ^ ^ v r z l A l B B + + . . . > > . > . . . . . . . . ",
". . . . . . . . . . . . . . . . { . C o + q @ A l l D l v l v _ ^ ^ ^ ^ ^ ^ ^ l l r u y A E F + + . - ; ' . . . . . . . . . . . ",
". . . . . . . . . . . . . . . . . . - G j l H } # y I y y y y J y y y K y y y y r l y L L & & + + . * . > . ' . . . . . . . . . ",
". . . . . . . . . . . . . . . . * . > j + v l f 0 M M z N l M M M M M M O M M M l l M P L $ $ Q ) . . . . . . . . . . . . . . . ",
". . . . . . . . . . . . . . . . . R S T U l l u z q q 0 q @ q f q q q q q q q q q % V } @ y v R W . . . > . . . . . . . . . . . ",
". . . . . . . . . . . . . . . . { R X Y Z ` z y J }  .# & # @ # # # # # } # # # @ $ # 0 # r l R ... ' ; = . . . . . . . . . . . ",
". . . . . . . . . . . . . . . . . R R Z Z R R l v l y v l l l ^ ^ ^ ^ l l ^ ^ l l y A l l +.+.R S . . . | . . . . . . . . . . . ",
". . . . . . . . . . . . . . . . . R W Z @.R #.u l l l y l l l ^ ^ ^ ^ l l 4 ^ l l l l y l +.+.R R . . . . . . . . . . . . . . . ",
". . . . . . . . . . . . $.. . > ; R R Z %.R R + + Z &.Z Z Z Z @.Z + + *.B =.L ^ 2 + w -.;.+.+.. . . . . . . . . . . . . . . . . ",
". . . . . . . . ; . . - ; . . { , R S Z Z W R + + >.Z @.Z U Z U Z ,.+ '.).L =.^ _ + ! !.~.{.+.. . . . . . . . . . . . . . . . . ",
". . . . . . . . . . . . . . ; R R Z Z ].@.R R R R ! ) + ) ] m w + ^.;.+ ,.U /.2 ^ S R (._.:.<.. . . . . . . . . . . . . . . . . ",
". . . . . . . . . . . . x . . S ..[.&.U }.|.R R R 1.o 2.o e 3.4.) 5.-.2.j Z @.^ 6.#.7._.8.9.0.; . . . . . . . . . . . . . . . . ",
". . . . . . . . . - . . ; ; { R R /.U a.@.R #.Z b.R S R S R S 5.c.^.d.+ ,.Z &.e.e._.f.(.g.h.~.' . . . . . . . . . . . . . . . . ",
". . . . . . . . . . - > - . * R S Z T i.&.R R U U S R S |.#.#.;.d.-.-.+ j &.Z _.j.k._.l.f.;.^.x . . . . . . . . . . . . . . . . ",
". . . . . . . . . , . . . . . R #.) + + + R W &.Z Z Z T Z #.R +.+.;.d.+ ! Z i.d.d.g.(.m.<.. n.; . . . . . . . . . . . . . . . . ",
". . . . . . . . k . . . . . . R R ] ! + + R R Z Z Z Z i./.#.R +.o.;.;.+ + Z Z ;.;.e._.+.+.. . . . . . . . . . . . . . . . . . . ",
". . . . . . . . . . . . . . . . . R R R R R R Z Z R W Z Z R R R R R S R R 0.+.0.+.p.q.; . > . . . . . . . . . . . . . . . . . . ",
". . . . . . . . . . . . . . . . . R R W R R R /.Z R R Z Z R R R R ..R R R +.q.9.+.+.+.. * . . > . . . . . . . . . . . . . . . . ",
". . . . . . . . . . . . . . . . { - ; | * * | 7.R S S R R r.r.R R s.y A z A v Z Z - * ; . . . . . . . . . . . . . . . . . . . . ",
". . . . . . . . . . . . . . . . { . t.u.v.C u.S R R R #.R r.r.#.R z l M r w.r Z @.x.> . * ' . . . . . . . . . . . . . . . . . . ",
". . . . . . . . . . . . . . . . . y.| ; * y.| , * g ; z...R R @ @ p.A.B.C.A.{./ _ D.D.. { . . . . . . . . . . . . . . . . . . . ",
". . . . . . . . . . . . . . . . . u.. u.. u.. . > ' { #.R #.R # } 9.+.E.F.0.0.^ ^ & q . . . * . . . . . . . . . . . . . . . . . ",
". . . . . . . . . . . . . . . . . . . . > * . { . #.R G.+.^ 4 ^ ^ :.H.z z _._.+.+.@ @ . . . ' . . . . . . . . . . . . . . . . . ",
". . . . . . . . . . . . . . . . . ' . { * . * ; ' R I.+.+.^ ^ ^ ^ J.+.l y _._.q.+.@ % . ' . . . . . . . . . . . . . . . . . . . ",
". . . . . . . . . . . . . . . . . . . . . . . . . R R K.K.^ ^ ^ / +.+._.L._._.p.+.+.+.. . . . . . . . . . . . . . . . . . . . . ",
". . . . . . . . . . . . . . . . . . . . . . . . . R R K.K.2 ^ M.2 +.+.L._._.l.+.+.+.A.; . * . . . . . . . . . . . . . . . . . . ",
". . . . . . . . . . . . . . . . . . . . . . . . . ; * R R # @ @ q $ $ 0.9.+.9.% @ R #.. k . . { . . . . . . . . . . . . . . . . ",
". . . . . . . . . . . . . . . . . . . . . . . . > u.' R N.% q } % % % H.q.A.O.@ @ R R * . . . > . . . . . . . . . . . . . . . . ",
". . . . . . . . . . . . . . . . . . . . . . . . . | | . - R #.Z [.P.P.L Q.Q.=.0.+.R.Z . . > { > . . . . . . . . . . . . . . . . ",
". . . . . . . . . . . . . . . . . . . . . . . . . u.' ; > R R /.Z L S.T.L U.T.m.+.V.Z . ' . . . . . . . . . . . . . . . . . . . ",
". . . . . . . . . . . . . . . . . . . . . . . . ' . . - - . - . . R R R R R R ' * u.C . . . * . . . . . . . . . . . . . . . . . ",
". . . . . . . . . . . . . . . . . . . . . . . . . . . . . . . . ; R #.R R S R . . - . . . . . . . . . . . . . . . . . . . . . . ",
". . . . . . . . . . . . . . . . . . . . . . . . . . . . . . . . . . . . . . . . . . . . . . . . . . . . . . . . . . . . . . . . ",
". . . . . . . . . . . . . . . . . . . . . . . . . . . . . . . . . . . . . . . . . . . . . . . . . . . . . . . . . . . . . . . . ",
". . . . . . . . . . . . . . . . . . . . . . . . . . . . . . . . . . . . . . . . . . . . . . . . . . . . . . . . . . . . . . . . ",
". . . . . . . . . . . . . . . . . . . . . . . . . . . . . . . . . . . . . . . . . . . . . . . . . . . . . . . . . . . . . . . . ",
". . . . . . . . . . . . . . . . . . . . . . . . . . . . . . . . . . . . . . . . . . . . . . . . . . . . . . . . . . . . . . . . ",
". . . . . . . . . . . . . . . . . . . . . . . . . . . . . . . . . . . . . . . . . . . . . . . . . . . . . . . . . . . . . . . . ",
". . . . . . . . . . . . . . . . . . . . . . . . . . . . . . . . . . . . . . . . . . . . . . . . . . . . . . . . . . . . . . . . ",
". . . . . . . . . . . . . . . . . . . . . . . . . . . . . . . . . . . . . . . . . . . . . . . . . . . . . . . . . . . . . . . . "};
