/* XPM */
static char * dawn rx rx_xpm[] = {
"64 64 179 2",
"  	c None",
". 	c #70C8A0",
"+ 	c #70C8A2",
"@ 	c #70C89E",
"# 	c #6EC9A0",
"$ 	c #71C7A0",
"% 	c #71C9A1",
"& 	c #6EC8A2",
"* 	c #6EC99E",
"= 	c #72C8A1",
"- 	c #71C99F",
"; 	c #6FC79F",
"> 	c #396089",
", 	c #AA9FC9",
"' 	c #A8A0C9",
") 	c #A9A1CA",
"! 	c #ABA0CA",
"~ 	c #376189",
"{ 	c #3A5F89",
"] 	c #E9E8F8",
"^ 	c #E7E9F8",
"/ 	c #E8EAF9",
"( 	c #E8E7F7",
"_ 	c #C8C7D7",
": 	c #C9C8D8",
"< 	c #A79FC6",
"[ 	c #A7A0CA",
"} 	c #38628A",
"| 	c #386288",
"1 	c #E9E8FA",
"2 	c #EAE7F8",
"3 	c #E7E8FA",
"4 	c #A89FCA",
"5 	c #A79EC9",
"6 	c #A99EC8",
"7 	c #A79FC8",
"8 	c #6FC7A1",
"9 	c #70C6A1",
"0 	c #39608B",
"a 	c #3B608A",
"b 	c #EAE9F9",
"c 	c #EBE8F9",
"d 	c #E7E9F6",
"e 	c #E9E8F6",
"f 	c #EAE9F7",
"g 	c #E8EAF7",
"h 	c #A9A1C8",
"i 	c #6FCAA1",
"j 	c #385F88",
"k 	c #E9E6F7",
"l 	c #EAE9FB",
"m 	c #E9E6F9",
"n 	c #EAE7FA",
"o 	c #3A5F8B",
"p 	c #AA9FCA",
"q 	c #70C69F",
"r 	c #71C7A2",
"s 	c #3A618A",
"t 	c #396087",
"u 	c #CAC9D9",
"v 	c #A7A0C9",
"w 	c #385F8A",
"x 	c #C9C8DA",
"y 	c #C9C8D6",
"z 	c #CAC7D8",
"A 	c #C8C7D9",
"B 	c #3A618C",
"C 	c #A8A0C7",
"D 	c #C8CAD9",
"E 	c #E791BE",
"F 	c #E890C2",
"G 	c #ABA0CB",
"H 	c #C7C9D8",
"I 	c #E990C0",
"J 	c #E890C0",
"K 	c #71C9A3",
"L 	c #A8A1CA",
"M 	c #C06898",
"N 	c #BF6996",
"O 	c #383F4F",
"P 	c #CAC9D7",
"Q 	c #AA9FC7",
"R 	c #ABA0C8",
"S 	c #A9A0CB",
"T 	c #C6C8D5",
"U 	c #000000",
"V 	c #010101",
"W 	c #38404D",
"X 	c #A69FC9",
"Y 	c #A7A1C7",
"Z 	c #CCC7DB",
"` 	c #CAC9DB",
" .	c #773F40",
"..	c #363F4E",
"+.	c #784043",
"@.	c #784041",
"#.	c #000002",
"$.	c #373F4C",
"%.	c #373E4E",
"&.	c #394050",
"*.	c #D7A079",
"=.	c #7A3F41",
"-.	c #37404F",
";.	c #D79F7A",
">.	c #D99F79",
",.	c #000201",
"'.	c #383F51",
").	c #3A4050",
"!.	c #E8E7F5",
"~.	c #F9D1B8",
"{.	c #F8D0B7",
"].	c #784144",
"^.	c #374051",
"/.	c #3A6087",
"(.	c #F9CFB7",
"_.	c #000100",
":.	c #39414E",
"<.	c #3A404E",
"[.	c #393F4D",
"}.	c #010103",
"|.	c #36404C",
"1.	c #F7D2B8",
"2.	c #D6A07A",
"3.	c #D89E76",
"4.	c #D6A179",
"5.	c #3A3F52",
"6.	c #F7CFB6",
"7.	c #D7A077",
"8.	c #010000",
"9.	c #395E88",
"0.	c #393E51",
"a.	c #794142",
"b.	c #774141",
"c.	c #D69F78",
"d.	c #6DC89F",
"e.	c #78403F",
"f.	c #D8A17A",
"g.	c #393F4F",
"h.	c #F5D0B6",
"i.	c #020202",
"j.	c #FEFEFE",
"k.	c #FFFFFF",
"l.	c #FEFFFF",
"m.	c #000200",
"n.	c #020001",
"o.	c #C2373A",
"p.	c #BE3839",
"q.	c #C03838",
"r.	c #E8E6FB",
"s.	c #BF3936",
"t.	c #C03936",
"u.	c #C23838",
"v.	c #C13939",
"w.	c #71C89E",
"x.	c #EAE8F6",
"y.	c #773F3E",
"z.	c #773F42",
"A.	c #F16848",
"B.	c #F1674A",
"C.	c #F7CFB5",
"D.	c #F36849",
"E.	c #784242",
"F.	c #7B4140",
"G.	c #794140",
"H.	c #6FC6A3",
"I.	c #774043",
"J.	c #010302",
"K.	c #BF6797",
"L.	c #793E40",
"M.	c #7A403F",
"N.	c #7B4042",
"O.	c #C0689A",
"P.	c #000004",
"Q.	c #BF6895",
"R.	c #BF6799",
"S.	c #C1679B",
"T.	c #6FC79D",
"U.	c #C16999",
"V.	c #C16898",
". . . . . . . . . . . . . . . . + . . . . . . . . . . . . . . . . . . . . . . . . . . . . . . . . . . . . . . . . . . . . . . . ",
". . . . . . . . . . . . . . . . . . . . . + . + . @ . . . # . . . . . . . . . . . . . . . . . . . . . . . . . . . . . . . . . . ",
". . . . . . . . . . . . . . . . . . . # . . . @ . . . . . . . . . . . . . . . . . . . . . . . . . . . . . . . . . . . . . . . . ",
". . . . . . . . . . . . . . . . $ + . + # % @ % . $ . . & + * @ . . . . . . . . . . . . . . . . . . . . . . . . . . . . . . . . ",
". . . . . . . . . . . . . . . . . . = # = + . . . . $ $ $ . . . . . . . . . . . . . . . . . . . . . . . . . . . . . . . . . . . ",
". . . . . . . . . . . . . . . . . . . % . - . . . . # $ # . . . . . . . . . . . . . . . . . . . . . . . . . . . . . . . . . . . ",
". . . . . . . . . . . . . . . . . . % ; . ; . . . . $ . $ . . . . . . . . . . . . . . . . . . . . . . . . . . . . . . . . . . . ",
". . . . . . . . . . . . . . . . @ @ $ @ > > , , , ' ' , ' ) . # . . . . . . . . . . . . . . . . . . . . . . . . . . . . . . . . ",
". . . . . . . . . . . . . . . . . . . . > > ' ' , ' ' , ' ! # # # . . . . ; # . . . . . $ . % $ . . . . . . . . . . . . . . . . ",
". . . . . . . . . . . . . . . . . . ~ { ] ] ^ / ] ] ] ( ] ] _ : ' ' ' < [ ' # . . . . - ; . + . . . . . . . . . . . . . . . . . ",
". . . . . . . . . . . . . . . . . . } | 1 ] 2 ] ] 2 ] ] 3 ] : : 4 5 6 4 7 4 . . 8 8 $ 9 . . . # . . . . . . . . . . . . . . . . ",
". . . . . . . . . . . . . . . . $ . 0 a ] b 2 ] ] ] 2 ] c ] ] ^ d e / f / g > > [ h # i ; + ; + . . . . . . . . . . . . . . . . ",
". . . . . . . . . . . . . . . . . . } j ] k ] ] ] b ] ] 1 l ] ] ] m m n k b { o , p q r 8 . . . . . . . . . . . . . . . . . . . ",
". . . . . . . . . . . . . . . . . . ; . > s 2 n 2 ( ] ] 2 ] ] ] d e / f b e ] e : : > ~ . * q . . . . . . . . . . . . . . . . . ",
". . . . . . . . . . . . . . . . . . % @ { j ^ ^ ] b ] ] ( ] ] ] ] 2 ] e 2 ] b ] : : 0 > ; 8 . . . . . . . . . . . . . . . . . . ",
". . . . . . . . . . . . . . . . . ; . . ' ' c ] ] 2 ] 2 ] ] ] ] 1 ] 2 ] 2 1 ] ] ] ] ] ] a > . q . . . . . . . . . . . . . . . . ",
". . . . . . . . . . . . . . . . . . + . ' ' b ] ] ] ] ( ] ] ] b ] ] ] ] ( ] ] ] ] ] ] ( s > + . . . . . . . . . . . . . . . . . ",
". . . . . . . . . . . . . . . . . . t s ' ' u : ] ] ( ] ( ] ] ] ( ] ] ] b ] ] ] ] ] 2 / > s . . . . . . . . . . . . . . . . . . ",
". . . . . . . . . . . . . . . . . . o > ' v _ : ] ] b ( ] ( ] ] b ] ] ] ] ] ] ] ( ] ] k > w . . . . . . . . . . . . . . . . . . ",
". . . . . . . . . . . . . . . . . . > s : x : : b b ] b ] b ] ] ] ] ] ( ] ] b b 1 b b / : y j ~ . . . . . . . . . . . . . . . . ",
". . . . . . . . . . . . . . . . . % > > x z A z ( ( ] ( ] ] ] ] ] ] ] ] ] ] b ] ] ] ] ( x : B B . . . . . . . . . . . . . . . . ",
". . . . . . . . . . . . . . . . . + > 0 C ' : : : u b b ] ] ] ] ] ] ] b ] ] ] b ] ^ : D y : > j . . . . . . . . . . . . . . . . ",
". . . . . . . . . . . . . . . . + # s t 4 C _ : : _ ] ( ] ] ] ] ] ] ] ] ] ( ] ] ] ] : _ x : > > . . . . . . . . . . . . . . . . ",
". . . . . . . . . . . . . . . . . . > > ' ' : : : : : : : : ] ] ] ] ] ] ] ] : : : D : : E F s s . . . . . . . . . . . . . . . . ",
". . . . . . . . . . . . . . . . . . ~ > 4 G : : : : : : : : ] ] ] ] ^ ] ] ] x H u x : : I J } > . . . . . . . . . . . . . . . . ",
". . . . . . . . . . . . . . . . K . > > : : L ' : : : : : u : u : : : : : _ : : : y M M C [ > 0 . . . . . . . . . . . . . . . . ",
". . . . . . . . . . . . . . . . . # > > : u p ' _ u : : : _ _ : u : : : : u u : H : M N G C > > . . . . . . . . . . . . . . . . ",
". . . . . . . . . . . . . . . . . . O O x _ P : ) ' ' ) ' ) ' ' Q ) ' ! ' 7 ' 7 ! R [ S T H U V . . . . . . . . . . . . . . . . ",
". . . . . . . . . . . . . . . . @ . O W : y x x 6 , 6 6 , , , , X 7 ' 7 ) ! ' h ' 4 ' Y Z z U U . . . . . . . . . . . . . . . . ",
". . . . . . . . . . . . . . . . U U O O U U _ _ : : : : u : ] ] ] ] x : ] ] : u y P : `  . .U U . . . . . . . . . . . . . . . . ",
". . . . . . . . . . . . . . . . U U O ..U U : : _ : : : _ _ ( ] ] ] : : ] ] : : _ z : y +.@.U #.. . . . . . . . . . . . . . . . ",
". . . . . . . . . . . . . . . . U U $.O U U > > O O O %.&.O O O > j J J M M ] ] > { *.*.@.=.. . . . . . . . . . . . . . . . . . ",
". . . . . . . . . . . . . . . . U U O W U U s > %.-.O &.-.O O O > > J J M M ] ] > 0 ;.>.@.@.= . . . . . . . . . . . . . . . . . ",
". . . . . . . . . . . . . . . . ,.U %.'.O W U U { t 0 > > s { > *.*.> s O ).2 !.U U ~.{.]. .% . . . . . . . . . . . . . . . . . ",
". . . . . . . . . . . . . . . . U U O -.O ^.V U /.0 t > j { t > >.*.t ~ O -.] ] U U {.(.@.@.. # . . . . . . . . . . . . . . . . ",
". . . . . . . . . . . . . . . . _.#.O :.<.[.}.U #.U #.#.V #.*.*.*.>.0 > s s |.|.(.(.1.1.;.2.= . . . . . . . . . . . . . . . . . ",
". . . . . . . . . . . . . . . . V U O %.'.-.U U U U U U U U 3.*.*.4.> > > w ).5.6.6.(.(.7.7.. ; . . . . . . . . . . . . . . . . ",
". . . . . . . . . . . . . . . . #.8.> 9.j { O 0.O '.-.'.U U a.b.*.c.*.c.s t -...{.{.b.b.d.& . . . . . . . . . . . . . . . . . . ",
". . . . . . . . . . . . . . . . U U > 0 s 0 '.O O -.O %.U U e.@.*.*.c.f.{ 0 &.g.h.{.@.e.# . . . . . . . . . . . . . . . . . . . ",
". . . . . . . . . . . . . . . . . % U U U U O O U U '.O _.U U U U U U #.@.=.b.@.@.@.K + . $ . + . . . . . . . . . . . . . . . . ",
". . . . . . . . . . . . . . . . + + U U U U &.O U #.O 0.i.#.U U U 8.U U @.@.b.@.=.@.. . % . . @ . . . . . . . . . . . . . . . . ",
". . . . . . . . . . . . . . . . . . K q K . U U V U U U j.k.U #.: : H _ : : O O . . . . $ % . . . . . . . . . . . . . . . . . . ",
". . . . . . . . . . . . . . . . % @ . d.@ # U U #.U U #.l.k.m.U : y z P z : -.W & . . . $ # . . . . . . . . . . . . . . . . . . ",
". . . . . . . . . . . . . . . . . % . . . . K K . . U U n.8.o.o.+.@.p.q.> > 1 r.' , C C # # i + . . . . . . . . . . . . . . . . ",
". . . . . . . . . . . . . . . . . . . # . . . ; ; ; U U V #.s.t.@.@.u.v.0 s e g S S ' ' w.$ . . . . . . . . . . . . . . . . . . ",
". . . . . . . . . . . . . . . . . ; K ; $ q $ $ U U ] e b ] a.+.6.{.: : @. .=.+.2 2 n x.v ' # . . . . . . . . . . . . . . . . . ",
". . . . . . . . . . . . . . . . . * . % . . # # U U ] 1 ( ( y.@.{.{.y : @.+.@.b.] b ] ^ ' ' . . . . . . . . . . . . . . . . . . ",
". . . . . . . . . . . . . . . . % . . . $ . % . #.U ] 2 b ] z.b.{.{.{.(.b.@.A.B.@.@.' ' . . . . . . . . . . . . . . . . . . . . ",
". . . . . . . . . . . . . . . . + . i $ . . q . U U ] ] ] ] e.@.{.{.{.C.a. .D.A.@.a.' ' . % . . . . . . . . . . . . . . . . . . ",
". . . . . . . . . . . . . . . . @ . . # . . U U b.b.' ) ' ' ' ' E.=.@.F.4 ' @.+.U U . # . # . . . . . . . . . . . . . . . . . . ",
". . . . . . . . . . . . . . . . + . % r . . U U @.=.v ' L ' ' C G.a.@.=.' ' @.@.U U . @ H.@ . . . . . . . . . . . . . . . . . . ",
". . . . . . . . . . . . . . . . . . . . . % U #.I.b.8.U U 8.U U V J.V V @.+.O O M K.L.+.e.a.+ $ . . . . . . . . . . . . . . . . ",
". . . . . . . . . . . . . . . . . . . . . ; 8._.M.N.V #.,._.U V U U U V @.e.&.O O.M @.e.a.a.+ . . . . . . . . . . . . . . . . . ",
". . . . . . . . . . . . . . . . . . . . . . . . U P.n.V q . . . # & % # U U Q.O.O.M R.S.U V @ . . . . . . . . . . . . . . . . . ",
". . . . . . . . . . . . . . . . . . . $ . . @ . U U U 8.T.. . . . . r T.U U U.V.M O.U.M #.U % . . . . . . . . . . . . . . . . . ",
". . . . . . . . . . . . . . . . . . @ . @ . . . $ . % . . . # # . . . . . # U U #.V U U . % K . . . . . . . . . . . . . . . . . ",
". . . . . . . . . . . . . . . . . . . . . . . . . . . . . . . . . % $ % . * U U U U U U . . . . . . . . . . . . . . . . . . . . ",
". . . . . . . . . . . . . . . . . . . . . . . . . . . . . . . . . . # . * @ + . . . . . . . + . . . . . . . . . . . . . . . . . ",
". . . . . . . . . . . . . . . . . . . . . . . . . . . . . . . . . . $ # $ . . $ . . @ . . + . . . . . . . . . . . . . . . . . . ",
". . . . . . . . . . . . . . . . . . . . . . . . . . . . . . . . . . . . % . @ % $ r + % r = . + . . . . . . . . . . . . . . . . ",
". . . . . . . . . . . . . . . . . . . . . . . . . . . . . . . . @ . . + . # w.. . . . @ + . . . . . . . . . . . . . . . . . . . ",
". . . . . . . . . . . . . . . . . . . . . . . . . . . . . . . . @ $ . . ; + ; . . . ; . . . . . . . . . . . . . . . . . . . . . ",
". . . . . . . . . . . . . . . . . . . . . . . . . . . . . . . . . . . @ % . % . . . . . . ; . . . . . . . . . . . . . . . . . . ",
". . . . . . . . . . . . . . . . . . . . . . . . . . . . . . . . . . # . . . . + . . . . . % . % . . . . . . . . . . . . . . . . "};
