/* XPM */
static char * dawn rx sx_xpm[] = {
"64 64 179 2",
"  	c None",
". 	c #70C8A0",
"+ 	c #71C7A0",
"@ 	c #6FC79F",
"# 	c #6EC8A2",
"$ 	c #70C8A2",
"% 	c #6EC9A0",
"& 	c #A8A0C9",
"* 	c #70C89E",
"= 	c #71C89E",
"- 	c #71C9A1",
"; 	c #6EC99E",
"> 	c #71C7A2",
", 	c #71C99F",
"' 	c #39608B",
") 	c #396089",
"! 	c #E9E8F8",
"~ 	c #3A618A",
"{ 	c #A89FCA",
"] 	c #396087",
"^ 	c #E8E7F7",
"/ 	c #376189",
"( 	c #A8A0C7",
"_ 	c #395E8A",
": 	c #E9E8FA",
"< 	c #E7E9F8",
"[ 	c #EAE9F7",
"} 	c #EAE9F9",
"| 	c #CAC7DA",
"1 	c #C9C8DA",
"2 	c #6FC7A1",
"3 	c #376187",
"4 	c #385F88",
"5 	c #E9E8F6",
"6 	c #C7C9D8",
"7 	c #C9C8D6",
"8 	c #EAE7F8",
"9 	c #37618B",
"0 	c #C9C8D8",
"a 	c #6FCAA1",
"b 	c #3A5F89",
"c 	c #C8C7D7",
"d 	c #E7E8FA",
"e 	c #CAC9D9",
"f 	c #C8C7D9",
"g 	c #E8E7F9",
"h 	c #A9A1CA",
"i 	c #E890C0",
"j 	c #E78FBF",
"k 	c #3A5F8B",
"l 	c #CAC7D8",
"m 	c #395E88",
"n 	c #AA9FC9",
"o 	c #CAC9D7",
"p 	c #C06898",
"q 	c #C6C8D5",
"r 	c #C2689B",
"s 	c #010101",
"t 	c #000002",
"u 	c #37404F",
"v 	c #383F51",
"w 	c #C7C9D6",
"x 	c #A7A0CC",
"y 	c #A8A1CB",
"z 	c #A9A0CB",
"A 	c #A9A1C8",
"B 	c #A7A0C9",
"C 	c #A7A0CA",
"D 	c #A79FC8",
"E 	c #000000",
"F 	c #72C8A1",
"G 	c #010100",
"H 	c #393F4F",
"I 	c #394050",
"J 	c #C7C8DA",
"K 	c #C8CAD9",
"L 	c #A7A1C7",
"M 	c #A69FC8",
"N 	c #A79EC9",
"O 	c #A99EC6",
"P 	c #A8A1CA",
"Q 	c #CAC9DB",
"R 	c #000004",
"S 	c #383D50",
"T 	c #374051",
"U 	c #EBE8FB",
"V 	c #784041",
"W 	c #773F40",
"X 	c #383F4F",
"Y 	c #C6C7D9",
"Z 	c #E8E7F5",
"` 	c #C9C6D7",
" .	c #C8C7D5",
"..	c #EAE8F6",
"+.	c #794142",
"@.	c #010002",
"#.	c #393E51",
"$.	c #394052",
"%.	c #3A618C",
"&.	c #E791C0",
"*.	c #BF6998",
"=.	c #D6A179",
"-.	c #D79F7A",
";.	c #7A3F43",
">.	c #6FC79D",
",.	c #373E4E",
"'.	c #E990C0",
").	c #D99F79",
"!.	c #D7A079",
"~.	c #38404D",
"{.	c #000100",
"].	c #F8D0B6",
"^.	c #F8D0B7",
"/.	c #3A4050",
"(.	c #384152",
"_.	c #38628A",
":.	c #3B608C",
"<.	c #DAA07A",
"[.	c #010103",
"}.	c #3A3F53",
"|.	c #D69F78",
"1.	c #F9D0BA",
"2.	c #F9CFB7",
"3.	c #F9D1B8",
"4.	c #F6D1B7",
"5.	c #37414D",
"6.	c #020001",
"7.	c #D8A07B",
"8.	c #D8A17A",
"9.	c #D7A175",
"0.	c #F8CFB9",
"a.	c #F7CFB6",
"b.	c #D6A07A",
"c.	c #D7A27A",
"d.	c #385F8A",
"e.	c #373E50",
"f.	c #010000",
"g.	c #39414E",
"h.	c #70C69F",
"i.	c #3A424F",
"j.	c #7A3F41",
"k.	c #3B3E4F",
"l.	c #000201",
"m.	c #FFFFFF",
"n.	c #6FCA9F",
"o.	c #794140",
"p.	c #784043",
"q.	c #C23835",
"r.	c #C03936",
"s.	c #774141",
"t.	c #72C8A3",
"u.	c #764040",
"v.	c #A79FC6",
"w.	c #BF393A",
"x.	c #BE3839",
"y.	c #71C9A3",
"z.	c #E6E8F7",
"A.	c #7B4042",
"B.	c #CBC9D7",
"C.	c #CBC7D6",
"D.	c #70C79D",
"E.	c #78403F",
"F.	c #793E40",
"G.	c #7A403F",
"H.	c #793F3E",
"I.	c #F1674A",
"J.	c #F06747",
"K.	c #F9CFB6",
"L.	c #F7CEB8",
"M.	c #EF6848",
"N.	c #F16848",
"O.	c #ABA0C8",
"P.	c #AA9FCA",
"Q.	c #C06996",
"R.	c #F6D1B6",
"S.	c #C16999",
"T.	c #C16898",
"U.	c #794144",
"V.	c #71C7A4",
". . . . . . . . . . . . . . . . . . . . . . . . . . . . . . . . . . . . . . . . . . . . . . . . . . . . . . . . . . . . . . . . ",
". . . . . . . . . . . . . . . . . . . . . . . . . . . . . . . . . . . . . . . . . . . . . . . . . . . . . . . . . . . . . . . . ",
". . . . . . . . . . . . . . . . . . . . . . . . . . . . . . . . . . . . . . . . . . . . . . . . . . . . . . . . . . . . . . . . ",
". . . . . . . . . . . . . . . . . . . . . . . . . . . . . . . . . . . . . . . . . . . . . . . . . . . . . . . . . . . . . . . . ",
". . . . . . . . . . . . . . . . . . . . . . . . . . . . . . . . . . . . . . . . . . . . . . . . . . . . . . . . . . . . . . . . ",
". . . . . . . . . . . . . . . . . . . . . . . . . . . . . . . . . . . . . . . . . . . . . . . . . . . . . . . . . . . . . . . . ",
". . . . . . . . . . . . . . . . . . . . . . . . . . . . . . . . . . . . . . . . . . . . . . . . . . . . . . . . . . . . . . . . ",
". . . . . . . . . . . . . . . . . . . . . . . . . . . . . . . . . . . . . . . . . . . . . . . . . . . . . . . . . . . . . . . . ",
". . . . . . . . . . . . . . . . + . @ . # $ . % & & & & & & & & & & & & & & & & . . . $ . . . . . . . . . . . . . . . . . . . . ",
". . . . . . . . . . . . . . . . . . * . = - . . & & & & & & & & & & & & & & & & . * . * ; . . . . . . . . . . . . . . . . . . . ",
". . . . . . . . . . . . . . . . . . > , ' ) ) ) ! ! ! ! ! ! ! ! ! ! ! ! ! ! ! ! ) ~ & { - + * . . . . . . . . . . . . . . . . . ",
". . . . . . . . . . . . . . . . * - * $ ] ) ) ] ^ ^ ^ ^ ^ ^ ^ ^ ^ ^ ^ ^ ^ ^ ^ ^ / ) ( ( @ @ . . . . . . . . . . . . . . . . . . ",
". . . . . . . . . . . . . . . . . . _ ) : ! ! < [ [ [ [ [ [ [ [ [ [ [ [ [ [ [ [ : } | 1 ~ ' % 2 . . . . . . . . . . . . . . . . ",
". . . . . . . . . . . . . . . . . . 3 4 5 ! ! ! ! ! ! ! ! ! ! ! ! ! ! ! ! ! ! ! ! ^ 6 7 4 4 . . . . . . . . . . . . . . . . . . ",
". . . . . . . . . . . . . . . . . . 4 ) : 8 ! 8 ! ! ! ! ! ! ! ! ! ! ! ! ! ! ! ! : : 8 : 8 } 9 ) . . . . . . . . . . . . . . . . ",
". . . . . . . . . . . . . . . . . . ) ' } } ! 5 ! ! ! ! ! ! ! ! ! ! ! ! ! ! ! ! } ! < 8 ^ 8 4 ) . . . . . . . . . . . . . . . . ",
". . . . . . . . . . . . . . . . . . . . ) ) ! ! 0 0 ! ! } ! ! ^ ! ! ! ! ! ! ! ! 8 ! ! ! ! < ) / % * + . $ . % . . . . . . . . . ",
". . . . . . . . . . . . . . . . . . . . ) ) } ! 0 0 ! ! } ! ! ! ! ! ! ! ! ! ! ! < } } ! < < ' ) @ * . * . . % . . . . . . . . . ",
". . . . . . . . . . . . . . . . - . . . ' ) ' ) 0 0 ! ^ ! ^ ! ! ! ! ! ! ! ! ! ! ! ! ! ! ! ! 0 0 / ~ . . . . . * . . . . . . . . ",
". . . . . . . . . . . . . . . . . . . a b ) / / c c } ! } ! ! ! ! ! ! ! ! ! ! ! } } d } } 8 7 e b ] . . ; . . . . . . . . . . . ",
". . . . . . . . . . . . . . . . > * . @ ) 4 & & 0 0 c e ^ ! ! ^ ! ! ! ! ! ! ! ! ^ ^ ^ < 0 6 c f ' 9 . . . $ . . . . . . . . . . ",
". . . . . . . . . . . . . . . . . . @ . ) ) & & 0 0 0 0 ! ! ! ! ! ! ! ! ! ! ! ! ! g } ^ e 7 e e ) ) . $ % $ . * . . . . . . . . ",
". . . . . . . . . . . . . . . . $ . . @ ) 4 & h 0 0 0 e c 0 0 0 ! ! ! ! ! ! ! ! 7 0 0 c 0 0 i j k 4 $ . . . . . . . . . . . . . ",
". . . . . . . . . . . . . . . . . . @ . ) b { & 0 0 0 0 0 0 0 0 ! ! ! ! ! ! ! ! 0 0 0 0 0 l i i ) 4 . . - * * . . . . . . . . . ",
". . . . . . . . . . . . . . . . . . . $ ) m 0 | & n 0 0 e 0 0 0 0 e 0 1 o 6 0 0 0 0 6 0 p p & & ) ) . . - . . . . . . . . . . . ",
". . . . . . . . . . . . . . . . . . . . ) b 6 0 n n 0 0 7 6 7 0 6 6 0 7 0 7 0 0 0 l 0 q r p { & ) ) . $ . . . + . . . . . . . . ",
". . . . . . . . . . . . . . . . . . s t u v l l w 6 x ( y h & & z & & z A & & B z C D n D { 0 c E E $ . . . . . . . . . . . . . ",
". . . . . . . . . . . . . . . . F + s G H I J K l 0 L M B D & M M B N & D O n n n & h P n ( e Q E R + . . . . - . . . . . . . . ",
". . . . . . . . . . . . . . . . E E v S u T E E 0 0 l l 1 l 0 | U : } } 0 e < < 0 0 0 1 J J V W E E . $ * . . . . . . . . . . . ",
". . . . . . . . . . . . . . . . s E X H X X t t 0 l 0 c 0 Y 0 w ^ ! ! Z `  .8 ..l l 0 K l w +.V E E . . + . . . . . . . . . . . ",
". . . . . . . . . . . . . . . . E E u X H X E @.) ] X X X v #.v X $.) %.&.i *.p ! ! ) ' =.-.;.V >.. * . * . . . . . . . . . . . ",
". . . . . . . . . . . . . . . . E E X H X X E t ) ) X H X X ,.X X X ) ) i '.p p ! ! b ) ).!.V V . * % . $ . . @ . . . . . . . . ",
". . . . . . . . % - . . F $ E E v X ~.X X X {.E E E ) ) ) ) ) ~ ) ' X X v I !.!.! ! E E ].^.V V . . . . . . . . . . . . . . . . ",
". . . . . . . . $ . . . $ . E E /.H X ,.(.X E E E E ~ ) ~ ) ) ~ _.:.v $.X /.!.<.! ! t E ^.^.V V . . . . . . . . . . . . . . . . ",
". . . . . . . . . . . . . . [.[.X u ~.u E E X X #.}.E t E E E E !.|.) ) I ~.-.!.1.2.3.].4.^.!.).. . . . . . . . . . . . . . . . ",
". . . . . . . . . . . . . % E E X X I ~.t E X ,.,.5.6.G s E 6.6.7.8.) ~ X #.).9.^.0.2.0.a.^.b.c.. . . . . . . . . . . . . . . . ",
". . . . . . . . . . . % @ . [.s ) ) / d.E E X X v v e.e.X X f.s V W X X X g.-.!.!.!.3.].+.V = h.. . . . . . . . . . . . . . . . ",
". . . . . . . . . . . . . . E E ~ ] ~ ] [.E X X X u i./.u H t E V j.v X v k.!.).!.!.2.^.j.V % # . . . . . . . . . . . . . . . . ",
". . . . . . . . . + % . @ . . . t E {.E . . E E X X f.s X u E E E E E E E s V V V W V V . . . >.. . . . . . . . . . . . . . . . ",
". . . . . . . . * @ . . . . . $ E E E E - . E E I I E E u X E s E E E E l.E V V V V V V . . . . . . . . . . . . . . . . . . . . ",
". . . . . . . . . . . . . . . . . . . . . . . . E E E E E E m.m.E t 0 0 0 7 0 0 V V . n.. - . . . . . . . . . . . . . . . . . . ",
". . . . . . . . . . . . . . . . . . . . . . . . E E f.t E l.m.m.E E 7 0 1 0 1 1 V o.. . . . . . . . . . . . . . . . . . . . . . ",
". . . . . . . . . . . . . . . . . . . . . . . . $ $ . @ E E V V E s & C +.p.q.r.s.p.7 e @ = . . . . . . . . . . . . . . . . . . ",
". . . . . . . . . . . . . . . . . . . . . . . . @ h.. t.s E u.V E 6.v.n W W w.x.V V ` ` y.# . @ . . . . . . . . . . . . . . . . ",
". . . . . . . . . . . . . . . . . . . . . . . . - - E s j.W b ) ! z.} < A.+.B.C.^.^.+.V D.h.@ % . . . . . . . . . . . . . . . . ",
". . . . . . . . . . . . . . . . . . . . . . . . * >.E [.E.V ) ) ! 8 ! 8 F.G.J 6 2.2.V H.- . . . . . . . . . . . . . . . . . . . ",
". . . . . . . . . . . . . . . . . . . . . . . . . - E E I.J.' ) 5 ! ! ! V V ^.K.^.L.V V E E . . . . . . . . . . . . . . . . . . ",
". . . . . . . . . . . . . . . . . . . . . . . . - % E E M.N.) ) ! ! ^ ! W p.^.^.^.^.V F.s E * . . . . . . . . . . . . . . . . . ",
". . . . . . . . . . . . . . . . . . . . . . . . . . E s E E ) ' & & & & & & V V j.V & & V V E f.. . . . . . . . . . . . . . . . ",
". . . . . . . . . . . . . . . . . . . . . . . . % $ s t E E 4 ' z & n & O.D V j.p.p.P.z W V E E . . . . . . . . . . . . . . . . ",
". . . . . . . . . . . . . . . . . . . . . . . . E l.p Q.^.^.^.R.E E t s [.E s l.E E s.V V j.E E . . . . . . . . . . . . . . . . ",
". . . . . . . . . . . . . . . . . . . . . . . . E E S.T.1.0.2.3.l.E s E E E E E E s A.U.+.V t E . . . . . . . . . . . . . . . . ",
". . . . . . . . . . . . . . . . . . . . . . . . E E p p p Q.E E > . > 2 V.2 $ . . . t E s 6.- $ . . . . . . . . . . . . . . . . ",
". . . . . . . . . . . . . . . . . . . . . . . . E E p p p S.E t * % @ . @ . . . . a f.s l.s . . . . . . . . . . . . . . . . . . ",
". . . . . . . . . . . . . . . . . . . . . . . . . . E s E E . . . . . . $ @ - * * - . - + , . . . . . . . . . . . . . . . . . . ",
". . . . . . . . . . . . . . . . . . . . . . . . . . E E E E . . . . . . . . . . . . . . $ % . . . . . . . . . . . . . . . . . . ",
". . . . . . . . . . . . . . . . . . . . . . . . . . . . . . . . . . . . . . . . . . . . . . . . . . . . . . . . . . . . . . . . ",
". . . . . . . . . . . . . . . . . . . . . . . . . . . . . . . . . . . . . . . . . . . . . . . . . . . . . . . . . . . . . . . . ",
". . . . . . . . . . . . . . . . . . . . . . . . . . . . . . . . . . . . . . . . . . . . . . . . . . . . . . . . . . . . . . . . ",
". . . . . . . . . . . . . . . . . . . . . . . . . . . . . . . . . . . . . . . . . . . . . . . . . . . . . . . . . . . . . . . . ",
". . . . . . . . . . . . . . . . . . . . . . . . . . . . . . . . . . . . . . . . . . . . . . . . . . . . . . . . . . . . . . . . ",
". . . . . . . . . . . . . . . . . . . . . . . . . . . . . . . . . . . . . . . . . . . . . . . . . . . . . . . . . . . . . . . . ",
". . . . . . . . . . . . . . . . . . . . . . . . . . . . . . . . . . . . . . . . . . . . . . . . . . . . . . . . . . . . . . . . ",
". . . . . . . . . . . . . . . . . . . . . . . . . . . . . . . . . . . . . . . . . . . . . . . . . . . . . . . . . . . . . . . . "};
