/* XPM */
static char * dawn standing front_xpm[] = {
"64 64 194 2",
"  	c None",
". 	c #70C8A0",
"+ 	c #6EC9A0",
"@ 	c #71C7A0",
"# 	c #71C9A1",
"$ 	c #A8A0C9",
"% 	c #70C89E",
"& 	c #72C8A1",
"* 	c #6FC79F",
"= 	c #6EC99E",
"- 	c #A89FCA",
"; 	c #A7A0C9",
"> 	c #39608B",
", 	c #396089",
"' 	c #EAE9F9",
") 	c #E9E8F8",
"! 	c #70C69F",
"~ 	c #6FC79D",
"{ 	c #6DC89F",
"] 	c #E9E8FA",
"^ 	c #E7E9F8",
"/ 	c #71C99F",
"( 	c #3A5F89",
"_ 	c #3A618A",
": 	c #AA9FC7",
"< 	c #AA9FC9",
"[ 	c #EAE9FB",
"} 	c #EAE7F8",
"| 	c #6FCAA1",
"1 	c #385F86",
"2 	c #E7E6F6",
"3 	c #E8E7F7",
"4 	c #6FC7A1",
"5 	c #385F88",
"6 	c #EAE7FA",
"7 	c #70C8A2",
"8 	c #010101",
"9 	c #000000",
"0 	c #000002",
"a 	c #CAC7D8",
"b 	c #C9C8D8",
"c 	c #71C9A3",
"d 	c #000200",
"e 	c #72CAA4",
"f 	c #373E50",
"g 	c #383E4E",
"h 	c #38404D",
"i 	c #384150",
"j 	c #CAC9D9",
"k 	c #71C89E",
"l 	c #383F4F",
"m 	c #C9C8DA",
"n 	c #373E4E",
"o 	c #C7C9D8",
"p 	c #E890C0",
"q 	c #E991C1",
"r 	c #A8A0C7",
"s 	c #C8C7D7",
"t 	c #E78FBF",
"u 	c #A79FC8",
"v 	c #383F51",
"w 	c #C1699B",
"x 	c #C16898",
"y 	c #C8CAD9",
"z 	c #393F4F",
"A 	c #A9A1CA",
"B 	c #AA9FCA",
"C 	c #CAC8D6",
"D 	c #C06898",
"E 	c #C9C8D6",
"F 	c #393F4D",
"G 	c #D8A17A",
"H 	c #DAA07A",
"I 	c #CAC9DB",
"J 	c #CAC9D7",
"K 	c #E7E8FA",
"L 	c #D7A079",
"M 	c #D7A17B",
"N 	c #C9C7D5",
"O 	c #C8C7D5",
"P 	c #010000",
"Q 	c #363F4E",
"R 	c #A7A0CA",
"S 	c #A6A1CA",
"T 	c #37404F",
"U 	c #000100",
"V 	c #D7A077",
"W 	c #D79F7A",
"X 	c #71C7A2",
"Y 	c #D69F78",
"Z 	c #376189",
"` 	c #394050",
" .	c #364250",
"..	c #396087",
"+.	c #D6A07A",
"@.	c #E891BE",
"#.	c #000103",
"$.	c #3A6188",
"%.	c #395E88",
"&.	c #F9D1B8",
"*.	c #F8D0B7",
"=.	c #F7D2B7",
"-.	c #F6D1B7",
";.	c #365F8B",
">.	c #D8A07D",
",.	c #E9E8F6",
"'.	c #E8EAF9",
").	c #F9CFB7",
"!.	c #F7CEB8",
"~.	c #D6A179",
"{.	c #376187",
"].	c #020202",
"^.	c #F9CFB9",
"/.	c #F8CEB8",
"(.	c #F7D2B8",
"_.	c #F8D0B6",
":.	c #F7CFB6",
"<.	c #D69F76",
"[.	c #010103",
"}.	c #FAD0B8",
"|.	c #F8CEB6",
"1.	c #F5D0B6",
"2.	c #F8CFB9",
"3.	c #773F40",
"4.	c #784041",
"5.	c #000201",
"6.	c #366088",
"7.	c #6EC8A2",
"8.	c #3A618C",
"9.	c #7A3F41",
"0.	c #C13A37",
"a.	c #C03838",
"b.	c #C23836",
"c.	c #D99F79",
"d.	c #794142",
"e.	c #BF3737",
"f.	c #BF3835",
"g.	c #020001",
"h.	c #E9E6F7",
"i.	c #E6E8F7",
"j.	c #C03936",
"k.	c #BF3938",
"l.	c #F6D0B9",
"m.	c #000004",
"n.	c #D99F77",
"o.	c #A8A1CA",
"p.	c #A9A0CB",
"q.	c #BE3839",
"r.	c #C2373A",
"s.	c #C9CBDA",
"t.	c #C7CADB",
"u.	c #F9CFB6",
"v.	c #F7CDB4",
"w.	c #784242",
"x.	c #A79FC6",
"y.	c #A99EC8",
"z.	c #CBC9D7",
"A.	c #784043",
"B.	c #3B608A",
"C.	c #C13939",
"D.	c #C0383A",
"E.	c #C23838",
"F.	c #F16848",
"G.	c #A99EC9",
"H.	c #AB9EC9",
"I.	c #E690BF",
"J.	c #E890C2",
"K.	c #F06745",
"L.	c #78403F",
"M.	c #010100",
"N.	c #F36A4A",
"O.	c #EF6946",
"P.	c #F16846",
"Q.	c #EF6848",
"R.	c #F06A47",
"S.	c #F26947",
"T.	c #020100",
"U.	c #010002",
"V.	c #F26748",
"W.	c #F36849",
"X.	c #F06747",
"Y.	c #F26949",
"Z.	c #F1674A",
"`.	c #C06A97",
" +	c #BF6996",
".+	c #C0689A",
"++	c #BF6799",
"@+	c #C26A9A",
"#+	c #C1679A",
"$+	c #C06797",
"%+	c #C06699",
"&+	c #BF6797",
"*+	c #BF6998",
"=+	c #C06A99",
". . . . . . . . . . . . . . . . . . . . . . . . . . . . . . . . . . . . . . . . . . . . . . . . . . . . . . . . . . . . . . . . ",
". . . . . . . . . . . . . . . . . . . . . . . . . . . . . . . . . . . . . . . . . . . . . . . . . . . . . . . . . . . . . . . . ",
". . . . . . . . . . . . . . . . . . . . . . . . . . . . . . . . . . . . . . . . . . . . . . . . . . . . . . . . . . . . . . . . ",
". . . . . . . . . . . . . . . . . . . . . . . . . . . . . . . . . . . . . . . . . . . . . . . . . . . . . . . . . . . . . . . . ",
". . . . . . . . . . . . . . . . . . . . . . . . . . . . . . . . . . . . . . . . . . . . . . . . . . . . . . . . . . . . . . . . ",
". . . . . . . . . . . . . . . . . . . . . . . . . . . . . . . . . . . . . . . . . . . . . . . . . . . . . . . . . . . . . . . . ",
". . . . . . . . . . . . . . . . . . . . . . . . . . . . . . . . . . . . . . . . . . . . . . . . . . . . . . . . . . . . . . . . ",
". . . . . . . . . . . . . . . . . . . . . . . . . . . . . . . . . . . . . . . . . . . . . . . . . . . . . . . . . . . . . . . . ",
". . . . . . . . . . . . . . . . . . + . . . . . @ . . . # $ $ $ $ $ $ # . . . @ . . . . . + . . . . . . . . . . . . . . . . . . ",
". . . . . . . . . . . . . . . . . . . % & . . . # * = . # - $ ; ; $ - # . = * # . . . & % . . . . . . . . . . . . . . . . . . . ",
". . . . . . . . . . . . . . . . @ . % # . @ . . . @ . > , ' ) ) ) ) ' , > . @ . . . @ . # . . @ . . . . . . . . . . . . . . . . ",
". . . . . . . . . . . . . . . . * % . @ ! . + ~ . + { , , ] ^ ) ) ^ ] , , { + . ~ + . ! @ * % * . . . . . . . . . . . . . . . . ",
". . . . . . . . . . . . . . . . . . / . . ( ( _ > : < ] [ ' } ' ' } ' [ ] < : > _ ( ( . . / . . . . . . . . . . . . . . . . . . ",
". . . . . . . . . . . . . . . . . . | ~ . , > 1 > $ ; ' 2 ) ) 3 3 ) ) 2 ' ; $ > 1 > , . ~ | . . . . . . . . . . . . . . . . . . ",
". . . . . . . . . . . . . . . . 4 . . , 5 $ $ ) ' ) } ) [ ) ) 6 6 ) ) [ ) } ) ' ) - $ 5 , . . 4 . . . . . . . . . . . . . . . . ",
". . . . . . . . . . . . . . . . . . . , _ $ $ ) ) ) ) ] ) ) ) ) ) ) ) ) ] ) ) ) ) $ $ _ , . . . . . . . . . . . . . . . . . . . ",
". . . . . . . . = . . % . 7 % . . . . 8 9 } ' ) ) ) ) ) ) ) ) ) ) ) ) ) ) ) ) ) ) ' } 9 8 . . . . % 7 . % . . = . . . . . . . . ",
". . . . . . . . . . . . . . . . 7 . . 9 0 ) ) ) ) ) ) ) ) ) ) ) ) ) ) ) ) ) ) ) ) ) ) 0 9 . . 7 . . . . . . . . . . . . . . . . ",
". . . . . . . . . + @ + @ . * . * 0 9 a b } ) ) ) ) ) ) ) ) ) ) ) ) ) ) ) ) ) ) ) ) } b a 9 0 * . * . @ + @ | . . . . . . . . . ",
". . . . . . . . . . * . % . . c # 9 d b b ) ^ ) ) ) ) ) ) ) ) ) ) ) ) ) ) ) ) ) ) ^ ) b b d 9 # e . . % . * . . . . . . . . . . ",
". . . . . . . . . . . . . . . ~ * f g b b ) ] ) ) ) ) ) ) ) ) ) ) ) ) ) ) ) ) ) ) ] ) b b g f * ~ . . . . . . . . . . . . . . . ",
". . . . . . . . . . . . + . . . . h i b j ) ) ) ) ) ) ) ) ) ) ) ) ) ) ) ) ) ) ) ) ) ) j b i h . . . . + . + . . . . . . . . . . ",
". . . . . . . . . . . k + . . 9 9 l l b b b b ) ) ) ) ) ) ) ) ) ) ) ) ) ) ) ) ) ) b b b b l l 9 9 . . + k . . # . . . . . . . . ",
". . . . . . . . . . . . 7 . . 9 9 l l b m b b 3 ) ) ) ) ) ) ) ) ) ) ) ) ) ) ) ) 3 b b m b l l 9 9 . . 7 . . . . . . . . . . . . ",
". . . . . . . . . . . . . . . 9 9 n l - $ o m a b b b ) } p q p p q p } ) b b b b j b $ $ l h 9 9 . . . . . . . . . . . . . . . ",
". . . . . . . . . . . . . . . 9 9 n h r < a s b b b b ) ' t p q q p t ' ) b b b b a b $ u l l 9 9 . . . . . . . . . . . . . . . ",
". . . . . . . . . . . . . . . 9 9 l v - $ b j b b o b w x j a b b a j x w b o b b y a $ - l l 0 9 . . . . . . . . . . . . . . . ",
". . . . . . . . . . . . . . . 9 9 z h A B b s C b b b D D s b j j b s D D b b b E b b u r h F 9 9 . . . . . . . . . . . . . . . ",
". . . . . . . . . . . . . . . 9 9 G H l h I J ] K j m - - A $ $ $ $ A - - m j K ) b m 9 0 L M 9 9 . . . . . . . . . . . . . . . ",
". . . . . . . . . . . . . . . 9 9 L L z l N s ) ) b b r $ ; $ $ $ $ ; $ r b b ) ) s O 9 P L L 9 9 . . . . . . . . . . . . . . . ",
". . . . . . . . . . . . . . . 9 9 L L Q z R $ $ - j b b b ) ^ b b ^ ) b b b j - - A S z T L L U 9 . . . . . . . . . . . . . . . ",
". . . . . . . . . . . . . . . 9 9 V W l l $ u < $ b b E b ^ ) b b ) ^ b E b b $ $ - $ f l L L 9 9 . . . . . . . . . . . . . . . ",
". . . . . . . . X . . . . . . 9 9 l l z l p p l v $ u ( > Y L L G G W , Z $ $ h l p p l l ` n 0 9 . . . . . . X . . . . . . . . ",
". . . . . . . . . | . . . . . 9 9 l l v  .p p l z r $ .., W L L +.L Y Z , < r T l @.p l T l v 9 9 . . . . . | . . . . . . . . . ",
". . . . . . . . . . + @ + . # 9 #.l n $.%.9 8 Y Y K 3 8 9 &.*.*.*.=.-.9 0 ) 3 W L U 9 , , l n 9 9 # . + @ + . . . . . . . . . . ",
". . . . . . . . . + . . 7 7 % 9 9 l ` ;., 9 9 >.L ,.'.9 8 *.).*.*.!.*.8 8 ' ' ~.G 0 0 > {.l l 9 9 % 7 7 . . + . . . . . . . . . ",
". . . . . . . . . . . . { . . 0 ].9 9 %._ 9 9 L V ^.*./.-.*.(.*.-._.*.).!.*.:.W <.9 9 1 ..9 9 [.0 . . { . . . . . . . . . . . . ",
". . . . . . . . . . . . . . 7 9 9 9 9 , ..0 [.G L _.&.-.^.*.).*.}.|.*.&.1.*.&.L V 0 9 , , 0 9 9 9 7 . . . . . . . . . . . . . . ",
". . . . . . . . 7 . . + 7 . . % . 9 P , , 0 8 $ $ W L ^.-.:.-.L G *.&.2.*.L L 3.4.9 5., 6.9 9 7 % . . 7 + . . 7 . . . . . . . . ",
". . . . . . . . . . . . = . . @ 7.P 9 8., 9 8 $ $ L L *.).-.*.L G *.*.*.-.Y L 9.4.9 9 , , 9 9 . @ . . = . . . . . . . . . . . . ",
". . . . . . . . . . . . . . . . . 9 9 9 P 0.a.b a 8 9 4.4.L L L G L L 4.4.8 9 a.b.9 9 8 U . . | . . . . . . . . . . . . . . . . ",
". . . . . . . . . . . . . . . . . 9 9 0 9 a.a.j s U 9 3.4.c.~.~.L G L 4.d.9 8 e.f.9 9 9 g.. . . . . . # * . @ . . . . . . . . . ",
". . . . . . . . . 7 . . . . . 8 0 &.*.*.).9 9 Z Z $ u ,.h.y b b m m o ) i.9 9 a.j.a.k.9 9 U 9 / # * % . # . . @ . . . . . . . . ",
". . . . . . . . . 7 . . . . . 9 9 !.l.!.-.9 8 > > u < ) ) b s a E s E ) ,.9 9 e.b.a.a.9 9 9 m.X @ + * . X . @ . . . . . . . . . ",
". . . . . . . . . 7 . . . . . 9 9 H n.V G > 5 E O , , ) ' o.p.a.q.p.$ ) 3 - $ [.P a.r.s.t.u.v.4.w.. . . . . + . . . . . . . . . ",
". . . . . . . . . 7 . . . . . 8 9 Y ~.L ~., , a m , , } ) - $ j.a.x.y.h.} u A 9 9 a.j.m z.l.*.A.9.# @ . @ * . . . . . . . . . . ",
". . . . . . . . . . . . . . . . . [.9 5.9 ' ) ) ,., B.- A a.C.r.a.D.E.$ $ 9 9 a.E.9 8 &.*.).1.9 9 % . . . . . . . . . . . . . . ",
". . . . . . . . . . . . . . . . # 9 8 9 9 ' ) ) [ _ , $ u D.a.e.a.a.a.$ u 9 9 D.a.9 9 ).*.*.*.9 9 . . c . { . 7 . . . . . . . . ",
". . . . . . . . . . . . . . . . . . . 9 9 $ $ $ $ , > p p a.a.e.a.D.a.p p F.F.4.4.U 9 9 9 9 9 . . . . . . . . . . . . . . . . . ",
". . . . . . . . . . . . . . . . . + . 0 9 $ $ G.H.( _ t p a.a.C.a.a.E.I.J.F.K.L.4.9 9 9 9 9 9 . . . . . . . . . . . . . . . . . ",
". . . . . . . . . . . . . . . . + . . 7 c 9 9 M.5.9 9 N.O.F.F.P.F.Q.F.R.S.5.T.9 8 9 0 c c # # . . . . . . . . . . . . . . . . . ",
". . . . . . . . . . . . . . . . . . . * * U.9 0 9 8 9 V.W.X.F.F.W.F.Y.V.Z.9 9 8 8 9 9 ! * ~ ~ . . . . . . . . . . . . . . . . . ",
". . . . . . . . . . . . . . . . @ . . c . 9 9 `. +.+++5.5.9 9 8 9 8 9 5.9 @+D x D 5.8 c # c + . . . . . . . . . . . . . . . . . ",
". . . . . . . . . . . . . . . . + . . ~ ! P 9 #+$+%+D 0 9 9 9 9 9 9 9 9 9 &+D *+=+9 9 * . ~ . . . . . . . . . . . . . . . . . . ",
". . . . . . . . . . . . . . . . . . . . 7 { . 9 9 9 9 = 7 . 7 . . . # % . 9 9 9 8 . + / . # . * . . . . . . . . . . . . . . . . ",
". . . . . . . . . . . . . . . . @ . . # . . . 9 9 9 9 . * % . . @ 7 . . @ 9 9 P 9 . + . # . . . . . . . . . . . . . . . . . . . ",
". . . . . . . . . . . . . . . . . . . . . . . . . . . . . . . . . . . . . . . . . . . . . . . . . . . . . . . . . . . . . . . . ",
". . . . . . . . . . . . . . . . . . . . . . . . . . . . . . . . . . . . . . . . . . . . . . . . . . . . . . . . . . . . . . . . ",
". . . . . . . . . . . . . . . . . . . . . . . . . . . . . . . . . . . . . . . . . . . . . . . . . . . . . . . . . . . . . . . . ",
". . . . . . . . . . . . . . . . . . . . . . . . . . . . . . . . . . . . . . . . . . . . . . . . . . . . . . . . . . . . . . . . ",
". . . . . . . . . . . . . . . . . . . . . . . . . . . . . . . . . . . . . . . . . . . . . . . . . . . . . . . . . . . . . . . . ",
". . . . . . . . . . . . . . . . . . . . . . . . . . . . . . . . . . . . . . . . . . . . . . . . . . . . . . . . . . . . . . . . ",
". . . . . . . . . . . . . . . . . . . . . . . . . . . . . . . . . . . . . . . . . . . . . . . . . . . . . . . . . . . . . . . . ",
". . . . . . . . . . . . . . . . . . . . . . . . . . . . . . . . . . . . . . . . . . . . . . . . . . . . . . . . . . . . . . . . "};
