/* XPM */
static char * dawn front sx_xpm[] = {
"64 64 193 2",
"  	c None",
". 	c #70C8A0",
"+ 	c #A8A0C9",
"@ 	c #71C7A0",
"# 	c #6FC79F",
"$ 	c #71C9A1",
"% 	c #6EC9A0",
"& 	c #A7A0C9",
"* 	c #E9E8F8",
"= 	c #396089",
"- 	c #70C8A2",
"; 	c #A79EC9",
"> 	c #A69FC8",
", 	c #A89FCA",
"' 	c #E8E7F7",
") 	c #EAE9F9",
"! 	c #385F88",
"~ 	c #70C89E",
"{ 	c #71C9A3",
"] 	c #71C89E",
"^ 	c #6DC89F",
"/ 	c #3A5F89",
"( 	c #A9A0CB",
"_ 	c #E9E8F6",
": 	c #3A618C",
"< 	c #71C99F",
"[ 	c #36608A",
"} 	c #37618B",
"| 	c #396087",
"1 	c #A8A0C7",
"2 	c #A79FC6",
"3 	c #E7E8FA",
"4 	c #E8E7F9",
"5 	c #385F8A",
"6 	c #376189",
"7 	c #6FC79D",
"8 	c #366086",
"9 	c #AA9FC9",
"0 	c #E9E8FA",
"a 	c #EBE8F9",
"b 	c #EAE9FB",
"c 	c #EBE9F7",
"d 	c #EAE7F8",
"e 	c #E9E6F7",
"f 	c #CAC9D9",
"g 	c #CAC9D7",
"h 	c #AA9FC7",
"i 	c #366088",
"j 	c #3A6188",
"k 	c #E8E7F5",
"l 	c #E7E9F8",
"m 	c #C9C8D8",
"n 	c #3A618A",
"o 	c #000002",
"p 	c #000000",
"q 	c #010101",
"r 	c #010000",
"s 	c #CAC7D8",
"t 	c #EAE9F7",
"u 	c #393E51",
"v 	c #393F4F",
"w 	c #39414E",
"x 	c #383F4F",
"y 	c #C9C6D7",
"z 	c #EAE8F6",
"A 	c #E8EAF9",
"B 	c #C8C7D7",
"C 	c #C9C7D5",
"D 	c #363F4E",
"E 	c #394052",
"F 	c #C8C7D9",
"G 	c #CAC9DB",
"H 	c #3A4050",
"I 	c #37404F",
"J 	c #C8C7D5",
"K 	c #394050",
"L 	c #6EC99E",
"M 	c #A9A1CA",
"N 	c #E890C0",
"O 	c #E78FBF",
"P 	c #A8A1CB",
"Q 	c #C7C9D8",
"R 	c #E891BE",
"S 	c #A99EC8",
"T 	c #373E4E",
"U 	c #C06898",
"V 	c #C9C8DA",
"W 	c #C06996",
"X 	c #C0689A",
"Y 	c #38404D",
"Z 	c #D7A079",
"` 	c #A79FC8",
" .	c #CAC7DA",
"..	c #D79F7A",
"+.	c #D8A17A",
"@.	c #D99F77",
"#.	c #393F4D",
"$.	c #C7C9D6",
"%.	c #C9C8D6",
"&.	c #E7E9F6",
"*.	c #383F51",
"=.	c #AA9FCA",
"-.	c #A89FCC",
";.	c #D99F79",
">.	c #383E4E",
",.	c #C6C8D7",
"'.	c #E791C0",
").	c #39608B",
"!.	c #38628A",
"~.	c #E890C2",
"{.	c #E990C0",
"].	c #F8D0B7",
"^.	c #F9D1B8",
"/.	c #F8CFB9",
"(.	c #D7A077",
"_.	c #3A6087",
":.	c #D8A07B",
"<.	c #F6D1B7",
"[.	c #F8D0B6",
"}.	c #F7CFB6",
"|.	c #D69F76",
"1.	c #F9CFB7",
"2.	c #384150",
"3.	c #020001",
"4.	c #F6D0B9",
"5.	c #F9D1B7",
"6.	c #F7D2B7",
"7.	c #F9CFB9",
"8.	c #F5CFB8",
"9.	c #010100",
"0.	c #773F42",
"a.	c #784041",
"b.	c #7A3F41",
"c.	c #F7CEB8",
"d.	c #F8CEB6",
"e.	c #F8CEB8",
"f.	c #F7D2B8",
"g.	c #DAA078",
"h.	c #010103",
"i.	c #78403F",
"j.	c #D6A179",
"k.	c #F6D1B6",
"l.	c #C03838",
"m.	c #C23838",
"n.	c #020100",
"o.	c #794142",
"p.	c #D69F78",
"q.	c #D69E79",
"r.	c #D89E78",
"s.	c #774141",
"t.	c #794140",
"u.	c #C2373A",
"v.	c #C3373A",
"w.	c #C23A3A",
"x.	c #000100",
"y.	c #70CBA2",
"z.	c #D7A17B",
"A.	c #EAE7FA",
"B.	c #BF3938",
"C.	c #CBCADA",
"D.	c #784043",
"E.	c #774043",
"F.	c #CBC8D9",
"G.	c #000201",
"H.	c #E8EAF7",
"I.	c #C0383A",
"J.	c #7A3F43",
"K.	c #773F40",
"L.	c #C33939",
"M.	c #F5D0B6",
"N.	c #C13939",
"O.	c #E78FC1",
"P.	c #F06747",
"Q.	c #F8CEB5",
"R.	c #FBCEB7",
"S.	c #C23836",
"T.	c #7A4243",
"U.	c #F16848",
"V.	c #F26949",
"W.	c #F26748",
"X.	c #EE6747",
"Y.	c #EF6848",
"Z.	c #F16846",
"`.	c #D89E79",
" +	c #70C69F",
".+	c #6EC69E",
"++	c #C16999",
"@+	c #BF6797",
"#+	c #6EC8A2",
"$+	c #6FCAA1",
"%+	c #C06699",
"&+	c #70C6A1",
"*+	c #BF6998",
". . . . . . . . . . . . . . . . . . . . . . . . . . . . . . . . . . . . . . . . . . . . . . . . . . . . . . . . . . . . . . . . ",
". . . . . . . . . . . . . . . . . . . . . . . . . . . . . . . . . . . . . . . . . . . . . . . . . . . . . . . . . . . . . . . . ",
". . . . . . . . . . . . . . . . . . . . . . . . . . . . . . . . . . . . . . . . . . . . . . . . . . . . . . . . . . . . . . . . ",
". . . . . . . . . . . . . . . . . . . . . . . . . . . . . . . . . . . . . . . . . . . . . . . . . . . . . . . . . . . . . . . . ",
". . . . . . . . . . . . . . . . . . . . . . . . . . . . . . . . . . . . . . . . . . . . . . . . . . . . . . . . . . . . . . . . ",
". . . . . . . . . . . . . . . . . . . . . . . . . . . . . . . . . . . . . . . . . . . . . . . . . . . . . . . . . . . . . . . . ",
". . . . . . . . . . . . . . . . . . . . . . . . . . . . . . . . + + + + + + + + . . . . . . . . . . . . . . . . . . . . . . . . ",
". . . . . . . . . . . . . . . . . . . . . . . . . . . . . . . . + + + + + + + + . . . . . . . . . . . . . . . . . . . . . . . . ",
". . . . . . . . . . . . . . . . @ . . # . . $ . . . % . & + + + * * * * * * = = . . . - # . . . . . . . . . . . . . . . . . . . ",
". . . . . . . . . . . . . . . . @ . # % @ $ . . . - . . ; > , , * ' ) * * * ! ! . - @ ~ { . . # . . . . . . . . . . . . . . . . ",
". . . . . . . . . . . . . . . . . ~ . ] % ^ / / = = + ( _ ) * _ * * ' _ * _ = = = = = : ~ . { . . . . . . . . . . . . . . . . . ",
". . . . . . . . . . . . . . . . . # . $ ] < [ } ! | 1 2 3 ' 4 * * * * ) * ) ! 5 = = = 6 @ ] # . . . . . . . . . . . . . . . . . ",
". . . . . . . . . . . . . . . . . . - 7 } 8 9 9 * 0 a b c * c d * e * ' * * f g b * h 9 i [ $ . . . . . . . . . . . . . . . . . ",
". . . . . . . . . . . . . . . . . . . . | j & & _ k l k * d * * * * * 0 * * m m * _ , & = n # ~ . . . . . . . . . . . . . . . . ",
". . . . . . . . . . . . . . . . . . . . o o * d 0 * d * * * * * * * * * * * ) * d 0 d * p p . . . . . . . . . . . . . . . . . . ",
". . . . . . . . . . . . . . . . . . . $ p q * d * * * * * * l * * * * * * * * * ' _ * ) p p . . . . . . . . . . . . . . . . . . ",
". . . . . . . . . . . . . . . . . - p p m m ) 0 d ) * * * * * * * l * * * ) * * * * ) * m m r p . . . . . . . . . . . . . . . . ",
". . . . . . . . . . . . . . . . . . p p s m * * * d * ) * * * * * * * * ) * ) * * t * ) s f p p . . . . ~ . . . . . . . . . . . ",
". . . . . . . . . . . . . . . . . - u u m m ' 4 * * * * ) * * * ' * * * * * ' l * * * ' f m v u . . . . . . ~ - . . . . . . . . ",
". . . . . . . . . . . . . . . . . . w x m y * z * ) * * * e * ) ) A * ) * l ) * * A t ) B C D x . . . . . . . . . . . . . . . . ",
". . . . . . . . . . . . . . . . p p E x f f B F * ' * ' ) * * 4 ' e ' ' * d * * * ' m m f G H u p p . . . . . . . . . . . . . . ",
". . . . . . . . . . . . . . . . p p x I J m m m * * * ' * * 0 0 * * * ) * * * * * * m m B J x K p p . . . . - L . . . . . . . . ",
". . . . . . . . . . . . . . . . p p x x ( M s m B m s m * * N N N O O N * ) m m m m m m P M x x p p . . . . . . . . . . . . . . ",
". . . . . . . . . . . . . . . . p p x x + 9 m Q m m m m * * N N N N N R ) * m m m m m m S + T x p p . . . . . . . . . . . . . . ",
". . . . . . . . . . . . . . . . p p x x + + Q m m m m s U U m V m m V m U W m m m f m m , , x K p p . . . . . . . . . . . . . . ",
". . . . . . . . . . . . . . . . p p x x + + m m m m s s W U m f m m m m U X m m Q B m m + 9 x Y p p . . . . . . . . . . . . . . ",
". . . . . . . . . . . . . . . . p o Z Z x E s V l a m s + + + + ( + + h + ` m m 0 )  .B o p ..Z p p . . . . . . . . . . . . . . ",
". . . . . . . . . . . . . . . . o p +.@.D #.$.%._ &.J y + + + + + + & + + ( C B &._ %.%.p p Z Z p p . . . . . . . . . . . . . . ",
". . . . . . . . . . . . . . . . p p Z Z *.K , , + =.f G m m _ * m f z d f y G f -., , , u *.Z +.p p . . . . . . . . . . . . . . ",
". . . . . . . . . . . . . . . . p p ;.;.>.x 1 + 2 2 ,.B g f * * m m * * m g B $.2 + & + x x Z Z p p . . . . . . . . . . . . . . ",
". . . . . . . . . . . . . . . . q p x I x x '.N v *.M ( ! ).;.Z Z Z Z Z !.= M M u *.~.N x T Y x p p . . . . . . . . . . . . . . ",
". . . . . . . . . . . . . . . . q q x x x x {.N T x + + = = Z Z Z Z ;.Z = = + + v x N N x *.x x p p . . . . . . . . . . . . . . ",
". . . . . . . . . . . . . . p p *.x = = = / p p Z Z * * p p ].^.]./.].].q q 0 * Z (.T x ).= p p p p . . . . . . . . . . . . . . ",
". . . . . . . . . . . . . . p p x x _.: | : p p ..:.* d p o <.].^.].[.}.q q * ' Z Z T K = : p q p q . $ . @ . $ . . . . . . . . ",
". . . . . . . . L - . . . . p p = = = = !.| q p Z |.1./.].^.].1./.^.].1.].^.].1.K 2.n | = ! 3.p . { . . . . . . . . . . . . . . ",
". . . . . . . . . . . . . . p p = ).n } = ).p p +.+.4.}.4.}.5.6.].].].<.7.4.].8.Y Y = n / / q q # ~ . $ - # . . . . . . . . . . ",
". . . . . . . . . . . . . . . . p p = ! o 9.0.a.b.a.@.+.].^.c.d.+.Z }.e.f.5.(.g.h.p | | q p v v { $ @ . . . . . . . . . . . . . ",
". . . . . . . . - ~ . . . . . . p p = = p p a.i.a.a.j.;./.d.^.[.Z Z 1.k.7.].Z Z q p ).).p o x x 7 # - . . . . $ . . . . . . . . ",
". . . . . . . . . . . ~ . . . . . . p p p p l.m.+ + n.p a.o.p...Z Z q.r.s.t.h.p u.v.q p p p . ~ . . . . - . @ . . . . . . . . . ",
". . . . . . . . . . . . . . . . - . p p p o l.l.+ + o p s.a...;...Z Z (.b.b.o p w.m.p p x.x.. . . $ . . . . # @ . . . . . . . . ",
". . . . . . . . . . . . . . . . p p ].].p o p p = = + + m m + + ` + * * + + p p l.l.p r . % - . . . . . . . . . . . . . . . . . ",
". . . . . . . . . . . . . . . . p p ^.].x.p p p ! = + + s m + + + ( * * + & o q l.l.o o y.# $ . . . . . . . . . . . . . . . . . ",
". . . . . . . . . . . . . . . . p p z.:.= = * 0 , ; 0 * + ` m.u.m B * * a.a.x x i.a.f m p q . . . . . . . . . . . . . . . . . . ",
". . . . . . . . . . . . . . . . p p ;.r.= = A.* + & d * M + B.B.C.f ) z a.a.v K D.E.f F.G.o $ { . . . . . . . . . . . . . . . . ",
". . . . . . . . . . . . . . . . . . q q ! = ' * =.+ 0 H.I.l.m.m.e * J.K.L.m.q q p r }.M.1.[.p p . . . . . . . . . . . . . . . . ",
". . . . . . . . . . . . . . . . # . p p = | a * + ` * 0 N.l.l.l.* _ a.i.I.l.q p p o ].1.4./.p p . . . . . . . . . . . . . . . . ",
". . . . . . . . . . . . . . . . . . . { p p + > + M = | O.N l.l.1 + b.a.N N P.P.p 9.Q.].R.].p p . . . . . . . . . . . . . . . . ",
". . . . . . . . . . . . . . . . $ - $ . p p M + + + = = N {.l.S.` 9 a.T.~.N U.U.p p ].].].1.p p . . . . . . . . . . . . . . . . ",
". . . . . . . . . . . . . . . . . . . . . . p p p p b.K.V.U.U.W.X.P.W.P.U.Y.x.o . . p p p p . . . . . . . . . . . . . . . . . . ",
". . . . . . . . . . . . . . . . . . . . . . p p p p a.K.U.P.V.U.U.U.W.P.U.Z.p o . . p p p p . . . . . . . . . . . . . . . . . . ",
". . . . . . . . . . . . . . . . L - . . . . p p ].].Z (.p o p 3.3.9.p 9.p 9.$ { . . $ $ $ $ . . . . . . . . . . . . . . . . . . ",
". . . . . . . . . . . . . . . . . . . . . . p p [.]...`.o o p h.p p p h.p p  +.+. . 7 7 7 7 . . . . . . . . . . . . . . . . . . ",
". . . . . . . . . . . . . . . . . . . . . . . . o o ++W U @+q p $ ~ #+% $+$+$+{ . . { { { { . . . . . . . . . . . . . . . . . . ",
". . . . . . . . . . . . . . . . - ~ . . . . . . x.p U %+++U p p . @ @ . &+. 7 ~ . . . . . . . . . . . . . . . . . . . . . . . . ",
". . . . . . . . . . . . . . . . . . . ~ . . . . q p U *+U ++p p . 7 % . . % . % . . . $ $ . . . . . . . . . . . . . . . . . . . ",
". . . . . . . . . . . . . . . . . . . . . . . . p p U X U U q p . . . { # % . $+. . . . . . . . . . . . . . . . . . . . . . . . ",
". . . . . . . . . . . . . . . . . . . . . . . . . . p p p p . . . . . . . . . . . . . . . . . . . . . . . . . . . . . . . . . . ",
". . . . . . . . . . . . . . . . . . . . . . . . . . p p p p . . . . . . . . . . . . . . . . . . . . . . . . . . . . . . . . . . ",
". . . . . . . . . . . . . . . . . . . . . . . . . . $ $ $ $ . . . . . . . . . . . . . . . . . . . . . . . . . . . . . . . . . . ",
". . . . . . . . . . . . . . . . . . . . . . . . . . 7 7 7 7 . . . . . . . . . . . . . . . . . . . . . . . . . . . . . . . . . . ",
". . . . . . . . . . . . . . . . . . . . . . . . . . { { { { . . . . . . . . . . . . . . . . . . . . . . . . . . . . . . . . . . ",
". . . . . . . . . . . . . . . . . . . . . . . . . . . . . . . . . . . . . . . . . . . . . . . . . . . . . . . . . . . . . . . . ",
". . . . . . . . . . . . . . . . . . . . . . . . . . . $ $ . . . . . . . . . . . . . . . . . . . . . . . . . . . . . . . . . . . ",
". . . . . . . . . . . . . . . . . . . . . . . . . . . . . . . . . . . . . . . . . . . . . . . . . . . . . . . . . . . . . . . . "};
