/* XPM */
static char * dawn standing front rx_xpm[] = {
"64 64 187 2",
"  	c None",
". 	c #70C8A0",
"+ 	c #A8A0C9",
"@ 	c #6FC79F",
"# 	c #70C8A2",
"$ 	c #396089",
"% 	c #E9E8F8",
"& 	c #A7A0C9",
"* 	c #6EC9A0",
"= 	c #71C9A1",
"- 	c #71C7A0",
"; 	c #71C9A3",
"> 	c #70C89E",
", 	c #385F88",
"' 	c #EAE9F9",
") 	c #E8E7F7",
"! 	c #A89FCA",
"~ 	c #A69FC8",
"{ 	c #3A618C",
"] 	c #E9E8F6",
"^ 	c #A9A0CB",
"/ 	c #3A5F89",
"( 	c #6DC89F",
"_ 	c #71C89E",
": 	c #376189",
"< 	c #385F8A",
"[ 	c #E8E7F9",
"} 	c #E7E8FA",
"| 	c #A79FC6",
"1 	c #A8A0C7",
"2 	c #396087",
"3 	c #37618B",
"4 	c #36608A",
"5 	c #71C99F",
"6 	c #366088",
"7 	c #AA9FC9",
"8 	c #AA9FC7",
"9 	c #EAE9FB",
"0 	c #CAC9D7",
"a 	c #CAC9D9",
"b 	c #E9E6F7",
"c 	c #EAE7F8",
"d 	c #EBE9F7",
"e 	c #EBE8F9",
"f 	c #E9E8FA",
"g 	c #366086",
"h 	c #6FC79D",
"i 	c #3A618A",
"j 	c #C9C8D8",
"k 	c #E8E7F5",
"l 	c #E7E9F8",
"m 	c #3A6188",
"n 	c #000000",
"o 	c #000002",
"p 	c #010101",
"q 	c #CAC7D8",
"r 	c #EAE9F7",
"s 	c #393E51",
"t 	c #393F4F",
"u 	c #383F4F",
"v 	c #363F4E",
"w 	c #C9C7D5",
"x 	c #C8C7D7",
"y 	c #E8EAF9",
"z 	c #EAE8F6",
"A 	c #C9C6D7",
"B 	c #39414E",
"C 	c #3A4050",
"D 	c #CAC9DB",
"E 	c #C8C7D9",
"F 	c #394052",
"G 	c #6EC99E",
"H 	c #394050",
"I 	c #C8C7D5",
"J 	c #37404F",
"K 	c #A9A1CA",
"L 	c #E890C0",
"M 	c #E78FBF",
"N 	c #373E4E",
"O 	c #A99EC8",
"P 	c #E891BE",
"Q 	c #C7C9D8",
"R 	c #C06996",
"S 	c #C06898",
"T 	c #C9C8DA",
"U 	c #38404D",
"V 	c #C0689A",
"W 	c #D7A079",
"X 	c #D79F7A",
"Y 	c #CAC7DA",
"Z 	c #A79FC8",
"` 	c #C9C8D6",
" .	c #E7E9F6",
"..	c #C7C9D6",
"+.	c #393F4D",
"@.	c #D99F77",
"#.	c #D8A17A",
"$.	c #383F51",
"%.	c #A89FCC",
"&.	c #AA9FCA",
"*.	c #C6C8D7",
"=.	c #383E4E",
"-.	c #D99F79",
";.	c #E890C2",
">.	c #38628A",
",.	c #39608B",
"'.	c #E791C0",
").	c #E990C0",
"!.	c #F8D0B7",
"~.	c #F8CFB9",
"{.	c #010000",
"].	c #D7A27A",
"^.	c #D5A078",
"/.	c #F7CFB6",
"(.	c #F8D0B6",
"_.	c #F9D1B8",
":.	c #3A5F8C",
"<.	c #F9CFB7",
"[.	c #F7CFB5",
"}.	c #010002",
"|.	c #3B608A",
"1.	c #F5CFB8",
"2.	c #F6D0B9",
"3.	c #F9CFB9",
"4.	c #F6D1B7",
"5.	c #F7D2B8",
"6.	c #D7A077",
"7.	c #3A5F8B",
"8.	c #385F86",
"9.	c #DAA078",
"0.	c #F9D1B7",
"a.	c #F8CEB8",
"b.	c #784043",
"c.	c #010100",
"d.	c #F6D1B6",
"e.	c #D69F78",
"f.	c #784041",
"g.	c #794142",
"h.	c #000100",
"i.	c #010103",
"j.	c #C2373A",
"k.	c #C03838",
"l.	c #794140",
"m.	c #774141",
"n.	c #D89E78",
"o.	c #D69E79",
"p.	c #D6A179",
"q.	c #BF3737",
"r.	c #7A3F41",
"s.	c #FAD0B8",
"t.	c #ABA0CA",
"u.	c #773F40",
"v.	c #C23838",
"w.	c #FFFFFF",
"x.	c #395E88",
"y.	c #BF3938",
"z.	c #376187",
"A.	c #793E40",
"B.	c #E6E8F7",
"C.	c #BF3739",
"D.	c #C0383A",
"E.	c #E8E9FB",
"F.	c #71C7A2",
"G.	c #6FC9A5",
"H.	c #020001",
"I.	c #794144",
"J.	c #010005",
"K.	c #AAA2C9",
"L.	c #A79EC9",
"M.	c #E991C1",
"N.	c #EB8FC0",
"O.	c #C03936",
"P.	c #F16848",
"Q.	c #F1674A",
"R.	c #F26949",
"S.	c #F06747",
"T.	c #F06649",
"U.	c #000200",
"V.	c #70C79D",
"W.	c #76403E",
"X.	c #020204",
"Y.	c #6FC9A3",
"Z.	c #6FCAA1",
"`.	c #BF6996",
" +	c #C16896",
".+	c #BF6799",
"++	c #BF6797",
". . . . . . . . . . . . . . . . . . . . . . . . . . . . . . . . . . . . . . . . . . . . . . . . . . . . . . . . . . . . . . . . ",
". . . . . . . . . . . . . . . . . . . . . . . . . . . . . . . . . . . . . . . . . . . . . . . . . . . . . . . . . . . . . . . . ",
". . . . . . . . . . . . . . . . . . . . . . . . . . . . . . . . . . . . . . . . . . . . . . . . . . . . . . . . . . . . . . . . ",
". . . . . . . . . . . . . . . . . . . . . . . . . . . . . . . . . . . . . . . . . . . . . . . . . . . . . . . . . . . . . . . . ",
". . . . . . . . . . . . . . . . . . . . . . . . . . . . . . . . . . . . . . . . . . . . . . . . . . . . . . . . . . . . . . . . ",
". . . . . . . . . . . . . . . . . . . . . . . . . . . . . . . . . . . . . . . . . . . . . . . . . . . . . . . . . . . . . . . . ",
". . . . . . . . . . . . . . . . . . . . . . . . + + + + + + + + . . . . . . . . . . . . . . . . . . . . . . . . . . . . . . . . ",
". . . . . . . . . . . . . . . . . . . . . . . . + + + + + + + + . . . . . . . . . . . . . . . . . . . . . . . . . . . . . . . . ",
". . . . . . . . . . . . . . . . . . . @ # . . . $ $ % % % % % % + + + & . * . . . = . . @ . . - . . . . . . . . . . . . . . . . ",
". . . . . . . . . . . . . . . . @ . . ; > - # . , , % % % ' ) % ! ! ~ ! . . # . . . = - * @ . . . . . . . . . . . . . . . . . . ",
". . . . . . . . . . . . . . . . . ; . > { $ $ $ $ $ ] % ] ) % % ] % ' ] ^ + $ $ / / ( * _ . > . . . . . . . . . . . . . . . . . ",
". . . . . . . . . . . . . . . . . @ _ - : $ $ $ < , ' % ' % % % % [ ) } | 1 2 , 3 4 5 _ = . @ . . . . . . . . . . . . . . . . . ",
". . . . . . . . . . . . . . . . . = 4 6 7 8 % 9 0 a % % ) % b % c d % d 9 e f % 7 7 g 3 h # . . . . . . . . . . . . . . . . . . ",
". . . . . . . . . . . . . . . . > @ i $ & ! ] % j j % % f % % % % % c % k l k ] & & m 2 . . . . . . . . . . . . . . . . . . . . ",
". . . . . . . . . . . . . . . . . . n n % c f c % ' % % % % % % % % % % % c % f c % o o . . . . . . . . . . . . . . . . . . . . ",
". . . . . . . . . . . . . . . . . . n n ' % ] ) % % % % % % % % % l % % % % % % c % p n = . . . . . . . . . . . . . . . . . . . ",
". . . . . . . . . . . . . . . . n n j j % ' % % % % ' % % % l % % % % % % % ' c f ' j j n n # . . . . . . . . . . . . . . . . . ",
". . . . . . . . . . . > . . . . n n a q ' % r % % ' % ' % % % % % % % % ' % c % % % j q n n . . . . . . . . . . . . . . . . . . ",
". . . . . . . . # > . . . . . . s t j a ) % % % l ) % % % % % ) % % % ' % % % % [ ) j j s s # . . . . . . . . . . . . . . . . . ",
". . . . . . . . . . . . . . . . u v w x ' r y % % ' l % ' % y ' ' % b % % % ' % z % A j u B . . . . . . . . . . . . . . . . . . ",
". . . . . . . . . . . . . . n n s C D a j j ) % % % c % ) ) b ) [ % % ' ) % ) % E x a a u F n n . . . . . . . . . . . . . . . . ",
". . . . . . . . G # . . . . n n H u I x j j % % % % % % ' % % % f f % % ) % % % j j j I J u n n . . . . . . . . . . . . . . . . ",
". . . . . . . . . . . . . . n n u u K ^ j j j j j j ' % L M M L L L % % j q j x j q K ^ u u n n . . . . . . . . . . . . . . . . ",
". . . . . . . . . . . . . . n n u N + O j j j j j j % ' P L L L L L % % j j j j Q j 7 + u u n n . . . . . . . . . . . . . . . . ",
". . . . . . . . . . . . . . n n H u ! ! j j a j a j R S j T j x T j S S q j j j j Q + + u u n n . . . . . . . . . . . . . . . . ",
". . . . . . . . . . . . . . n n U u 7 + j j x Q j j V S j j j x a j S R q q j j j j + + u u n n . . . . . . . . . . . . . . . . ",
". . . . . . . . . . . . . . n n W X n o x Y ' f j j Z + 8 + + ! + + + + q j e l T q F u W W o n . . . . . . . . . . . . . . . . ",
". . . . . . . . . . . . . . n n W W n n ` ` ]  .x w ^ + + & + + + + + + A I  .] ` ..+.v @.#.n o . . . . . . . . . . . . . . . . ",
". . . . . . . . . . . . . . n n #.W $.s ! ! ! %.a D q a c z a j % ] j j D a &.+ ! ! H $.W W n n . . . . . . . . . . . . . . . . ",
". . . . . . . . . . . . . . n n W W u u + & + | ..x 0 j % % j j % % a 0 x *.| | + 1 u =.-.-.n n . . . . . . . . . . . . . . . . ",
". . . . . . . . . . . . . . n n u U N u L ;.$.s K K $ >.W W W W W -.,., ^ K $.t L '.u u J u n p . . . . . . . . . . . . . . . . ",
". . . . . . . . . . . . . . n n u u $.u L L u t + + $ $ W -.W W W W $ $ + + u N L ).u u u u p p . . . . . . . . . . . . . . . . ",
". . . . . . . . . . . . . . n n n n $ ,.u u W W % f p p !.!.~.!.!.!.o n % ] W W n n i i $ $ t u {.n . @ . . > = . . . . . . . . ",
". . . . . . . . . . - . = . p n n n $ { U u ].^.) % p p /.(.!._.!.!.n p f % W W n n : :./ / u $.p p . . > - . . . . . . . . . . ",
". . . . . . . . . . . . . . ; . n n i , >.: C u <.!._.!.<.!._.~.<.<.(.!.[.~.W X n n $ 2 3 : ,.$ n }.. . . = . . . . . . . . . . ",
". . . . . . . . . . @ # = . > @ n n ,./ ,.|.N N 1.!.2.3.4.!.!.!.5.!.~./.~.!.6.6.n n $ 7.i / $ $ n n . . . . - . . . . . . . . . ",
". . . . . . . . . . . . . - = ; $.u n n 8.: o o 9.6.0.5.a./.W #./.3.0.0.W 6.b.b.n n n p , : n n # . . - . . . . . . . . . . . . ",
". . . . . . . . . . . . . # @ h u u p n ,./ c.n W W !.3.d.<.W W 5.5.<.!.e.W f.g.h.o o i.: $ n n . . . . # . . . . . . . . . . . ",
". . . . . . . . . - . # . . . . n n n n n p j.k.n i.l.m.n.o.W W p.e.g.f.p n k.k.k.q.n }.n n o.W {.n = . ; . - = . . . . . . . . ",
". . . . . . . . - @ . . . . = . n n h.n n n q.k.n o r.r.6.W W X W W f.m.n n k.k.k.k.o n n n W p.n o * . . . . . . . . . . . . . ",
". . . . . . . . . . . . . . . . n n s.!._.!.n o + + $ $ % % + K + + a j j j f.r.n n + ! W X W W n n . . . . . . . . . . . . . . ",
". . . . . . . . . . . . . . . . n n (._.!._.p n K ! $ $ % % + + + + q E q q f.f.n n t.+ W W 6.6.n p . = . - . = . . . . . . . . ",
". . . . . . . . . . . . . . . . n n p.e.W #.+ + 2 $ u.f.[ b j j v.k.K K f % ! & w.w.n p n o n n . ; . . . . . . . . . . . . . . ",
". . . . . . . . . . . . . . . . n n W #.#.-.& & / x.f.r.' l a a k.y.+ Z ) b 7 8 w.w.n n n n p p @ > . = # @ . . . . . . . . . . ",
". . . . . . . . . . . . . . . . = - h.o c.o ' % z.,.k.k.f.A.B.) v.v.C.D.% 9 E.} n n F.G.- ; ; ; ; = - . . . . . . . . . . . . . ",
". . . . . . . . . . . . . . . . . . n H.n n % % $ $ k.k.I.l.e ' k.k.y.k.B.% % z n n . - ( . G > h @ # . . . . = . . . . . . . . ",
". . . . . . . . . . . . . . . . . . n J.K.O L.+ $ 3 M.N.f.f.+ + O.k.L M ! + f.f.n {.* * - - . . . . . . # . - . . . . . . . . . ",
". . . . . . . . . . . . . . . . . . p n + + + + i $ L L b.f.+ + k.k.M.L + + f.f.n n . # > . . . . = . . . . @ - . . . . . . . . ",
". . . . . . . . . . . . . . . . . . . # n n n n n n P.P.P.P.P.P.P.P.Q.P.g.f.o n n n . . . . . . . . . . . . . . . . . . . . . . ",
". . . . . . . . . . . . . . . . . > . . n n n n n n R.P.P.P.P.P.P.S.P.T.r.f.n p n n . . . . . . . . . . . . . . . . . . . . . . ",
". . . . . . . . . . . . . . . . > . . . ; . = = r.f.f.f.p p n p p U.n n #.W W #.n n . . . . # G . . . . . . . . . . . . . . . . ",
". . . . . . . . . . . . . . . . . . - . h @ V.h f.W.r.b.i.i.}.n n X.n n W X W X n n . . . . . . . . . . . . . . . . . . . . . . ",
". . . . . . . . . . . . . . . . . . * . ; ; Y.= # . . - Z.. 5 * p p S `. +`.n n . . . . . . . . . . . . . . . . . . . . . . . . ",
". . . . . . . . . . . . . . . . * . . . . . . @ . G . > F.F.. . n i.S S S .+n i.. . . . . . > # . . . . . . . . . . . . . . . . ",
". . . . . . . . . . . . . . . . . . . # . . . . . . # # * @ Z.= p n ++V R R n n . . . . > . . . . . . . . . . . . . . . . . . . ",
". . . . . . . . . . . . . . . . . . . . # . * . - . - > . . . . n n S S S S n n . . . . . . . . . . . . . . . . . . . . . . . . ",
". . . . . . . . . . . . . . . . . . . . . . . . . . . . . . . . . . n n n n . . . . . . . . . . . . . . . . . . . . . . . . . . ",
". . . . . . . . . . . . . . . . . . . . . . . . . . . . . . . . . . n n n n . . . . . . . . . . . . . . . . . . . . . . . . . . ",
". . . . . . . . . . . . . . . . . . . . . . . . . . . . . . . . . . = = = = . . . . . . . . . . . . . . . . . . . . . . . . . . ",
". . . . . . . . . . . . . . . . . . . . . . . . . . . . . . . . . . h h h h . . . . . . . . . . . . . . . . . . . . . . . . . . ",
". . . . . . . . . . . . . . . . . . . . . . . . . . . . . . . . . . ; ; ; ; . . . . . . . . . . . . . . . . . . . . . . . . . . ",
". . . . . . . . . . . . . . . . . . . . . . . . . . . . . . . . . . . . . . . . . . . . . . . . . . . . . . . . . . . . . . . . ",
". . . . . . . . . . . . . . . . . . . . . . . . . . . . . . . . . . . = = . . . . . . . . . . . . . . . . . . . . . . . . . . . ",
". . . . . . . . . . . . . . . . . . . . . . . . . . . . . . . . . . . . . . . . . . . . . . . . . . . . . . . . . . . . . . . . "};
