/* XPM */
static char * dawn standing back_xpm[] = {
"64 64 160 2",
"  	c None",
". 	c #70C8A0",
"+ 	c #6FC79F",
"@ 	c #71C89E",
"# 	c #70C89E",
"$ 	c #70C69F",
"% 	c #6EC9A0",
"& 	c #71C7A2",
"* 	c #6FC79D",
"= 	c #71C9A1",
"- 	c #39608B",
"; 	c #396089",
"> 	c #71C7A0",
", 	c #70C8A2",
"' 	c #6DC89D",
") 	c #3A5F89",
"! 	c #6EC99E",
"~ 	c #38628A",
"{ 	c #A8A0C9",
"] 	c #A8A0C7",
"^ 	c #E9E8F8",
"/ 	c #E9E8F6",
"( 	c #EAE9F7",
"_ 	c #EAE9F9",
": 	c #376189",
"< 	c #72C8A1",
"[ 	c #395E88",
"} 	c #EAE8F6",
"| 	c #E6E8F7",
"1 	c #E9E6F9",
"2 	c #E9E6F7",
"3 	c #3A6087",
"4 	c #396087",
"5 	c #E7E9F8",
"6 	c #3A618C",
"7 	c #366086",
"8 	c #E8E7F7",
"9 	c #EAE7F8",
"0 	c #E9E8FA",
"a 	c #3B608C",
"b 	c #000000",
"c 	c #6FCAA1",
"d 	c #C9C8D8",
"e 	c #6EC8A2",
"f 	c #010101",
"g 	c #C9C8DA",
"h 	c #71C99F",
"i 	c #373F4C",
"j 	c #383F4F",
"k 	c #3A4050",
"l 	c #394050",
"m 	c #CAC7D8",
"n 	c #E8E7F9",
"o 	c #000002",
"p 	c #373E4E",
"q 	c #C7C9D8",
"r 	c #CAC9D7",
"s 	c #000100",
"t 	c #393F4F",
"u 	c #C8C7D7",
"v 	c #CAC9D9",
"w 	c #38404D",
"x 	c #A7A0C9",
"y 	c #AA9FC9",
"z 	c #393E51",
"A 	c #373E50",
"B 	c #C7C8DA",
"C 	c #C9C8D6",
"D 	c #C7C9D6",
"E 	c #A9A0CB",
"F 	c #A89FCA",
"G 	c #010103",
"H 	c #37404F",
"I 	c #CAC8D6",
"J 	c #CBC7D8",
"K 	c #C8CAD9",
"L 	c #EAE9FB",
"M 	c #EBE7F6",
"N 	c #393F4D",
"O 	c #E8EAF9",
"P 	c #3A618A",
"Q 	c #383F51",
"R 	c #AA9FCA",
"S 	c #A79FC8",
"T 	c #374051",
"U 	c #A8A1CA",
"V 	c #010000",
"W 	c #385F88",
"X 	c #A9A1CA",
"Y 	c #AA9FC7",
"Z 	c #37618B",
"` 	c #71C9A3",
" .	c #383E4E",
"..	c #39414E",
"+.	c #3A3F52",
"@.	c #363F4E",
"#.	c #000200",
"$.	c #3A6188",
"%.	c #3B608A",
"&.	c #366088",
"*.	c #383F52",
"=.	c #376187",
"-.	c #C6C8D5",
";.	c #010002",
">.	c #7A3F43",
",.	c #794142",
"'.	c #CAC9DB",
").	c #020100",
"!.	c #784240",
"~.	c #7A3F41",
"{.	c #773F40",
"].	c #784041",
"^.	c #F8D0B6",
"/.	c #F8D0B7",
"(.	c #C0383A",
"_.	c #C23A3A",
":.	c #C03838",
"<.	c #BF3737",
"[.	c #384150",
"}.	c #000201",
"|.	c #A69FC9",
"1.	c #F8CEB6",
"2.	c #F9CFB6",
"3.	c #70C6A1",
"4.	c #F9D0BA",
"5.	c #BF3835",
"6.	c #BF3938",
"7.	c #000004",
"8.	c #C13939",
"9.	c #FAD2B9",
"0.	c #73C9A2",
"a.	c #F6D0B9",
"b.	c #F7CFB6",
"c.	c #F9CFB7",
"d.	c #C23838",
"e.	c #C03936",
"f.	c #020001",
"g.	c #010100",
"h.	c #F9D1B8",
"i.	c #C33939",
"j.	c #C2373A",
"k.	c #F6D1B7",
"l.	c #F16848",
"m.	c #F16846",
"n.	c #F1674A",
"o.	c #EF6848",
"p.	c #F26949",
"q.	c #EE6747",
"r.	c #F06745",
"s.	c #F26748",
"t.	c #EF684A",
"u.	c #72C8A3",
"v.	c #C16999",
"w.	c #BF6998",
"x.	c #C0689A",
"y.	c #020003",
"z.	c #C06898",
"A.	c #C1679A",
"B.	c #C16898",
"C.	c #C06797",
". . . . . . . . . . . . . . . . . . . . . . . . . . . . . . . . . . . . . . . . . . . . . . . . . . . . . . . . . . . . . . . . ",
". . . . . . . . . . . . . . . . . . . . . . . . . . . . . . . . . . . . . . . . . . . . . . . . . . . . . . . . . . . . . . . . ",
". . . . . . . . . . . . . . . . . . . . . . . . . . . . . . . . . . . . . . . . . . . . . . . . . . . . . . . . . . . . . . . . ",
". . . . . . . . . . . . . . . . . . . . . . . . . . . . . . . . . . . . . . . . . . . . . . . . . . . . . . . . . . . . . . . . ",
". . . . . . . . . . . . . . . . . . . . . . . . . . . . . . . . . . . . . . . . . . . . . . . . . . . . . . . . . . . . . . . . ",
". . . . . . . . . . . . . . . . . . . . . . . . . . . . . . . . . . . . . . . . . . . . . . . . . . . . . . . . . . . . . . . . ",
". . . . . . . . . . . . . . . . . . . . . . . . . . . . . . . . . . . . . . . . . . . . . . . . . . . . . . . . . . . . . . . . ",
". . . . . . . . . . . . . . . . . . . . . . . . . . . . . . . . . . . . . . . . . . . . . . . . . . . . . . . . . . . . . . . . ",
". . . . . . . . . . . . . . . . . + . @ . . . . . + . # $ + . . . . + $ # . + . . . . . @ . % . . . . . . . . . . . . . . . . . ",
". . . . . . . . . . . . . . . . . & * & + . = . . # % - ; ; - ; ; - ; ; - % # . . . + . > # , . . . . . . . . . . . . . . . . . ",
". . . . . . . . . . . . . . . . # . . ' & + $ = . , % ; ; ) ; ; ; ; ) ; ; % , . . > % , + . ! # . . . . . . . . . . . . . . . . ",
". . . . . . . . . . . . . . . . . . % + . ; ~ ; ; { ] ^ ^ / ( _ _ ( / ^ ^ ] { ; ; : - + . # . + . . . . . . . . . . . . . . . . ",
". . . . . . . . . . . . . . . . . > & * < [ ) ) ; { { } | ^ 1 2 2 1 ^ | } { { ; ) 3 ; < . , # . . . . . . . . . . . . . . . . . ",
". . . . . . . . . . . . . . . . % . . ; ; 4 ; ^ / ^ ^ 5 ( ^ _ 5 5 _ ^ ( 5 ^ ^ / 5 { { 4 ; . . . . . . . . . . . . . . . . . . . ",
". . . . . . . . . . . . . . . . . . . ; 6 ; 7 / 8 9 ^ 9 0 ^ 9 ^ ^ 9 ^ 0 9 ^ 9 8 ^ ] { ; a . + . . . . . . . . . . . . . . . . . ",
". . . . . . . . . . . . . . . . % . , b b ^ ( ^ / ^ ^ ^ ^ ^ ^ ^ ^ ^ ^ ^ ^ ^ ^ / 5 9 5 b b . . . . . . . . . . . . . . . . . . . ",
". . . . . . . . . # , + . . % # . . . b b ^ ^ ^ ^ ^ ^ ^ ^ ^ ^ ^ ^ ^ ^ ^ ^ ^ ^ ^ ^ ^ ^ b b . . . # % . . + , # . . . . . . . . . ",
". . . . . . . . . . . c = . . , , b b d d _ ^ 8 ^ ^ ^ ^ ^ ^ ^ ^ ^ ^ ^ ^ ^ ^ ^ ^ 8 ^ _ d d b b , , . . = c . . . . . . . . . . . ",
". . . . . . . . . + > e = . . + . f f g d 9 0 ^ ^ ^ ^ ^ ^ ^ ^ ^ ^ ^ ^ ^ ^ ^ ^ ^ ^ ^ 9 d g f f . + . . = e > + . . . . . . . . . ",
". . . . . . . . h < . . . . + . > i j d d / _ ^ ^ ^ ^ ^ ^ ^ ^ ^ ^ ^ ^ ^ ^ ^ ^ ^ ^ _ / d d j i > . + . . . . < h . . . . . . . . ",
". . . . . . . . % + . e . c . c % k l m d 8 0 ^ ^ ^ ^ ^ ^ ^ ^ ^ ^ ^ ^ ^ ^ ^ ^ ^ ^ 0 n d m l k % c . c . e . + % . . . . . . . . ",
". . . . . . . . h . % . . . . b o p j d d q r ^ ^ ^ ^ ^ ^ ^ ^ ^ ^ ^ ^ ^ ^ ^ ^ ^ ^ r q d d j p o b . . . . % . h . . . . . . . . ",
". . . . . . . . . . . , . . . s b j t d q d u ^ ^ ^ ^ ^ ^ ^ ^ ^ ^ ^ ^ ^ ^ ^ ^ ^ ^ u d q d t j b s . . . , . . . . . . . . . . . ",
". . . . . . . . . . . . + . . b b j j { { d v 5 ^ ^ ^ ^ ^ ^ ^ ^ ^ ^ ^ ^ ^ ^ ^ ^ 5 v d { { j j b b . . + . . . . . . . . . . . . ",
". . . . . . . . . . . . . . . b b j w x y d d 9 0 ^ ^ ^ ^ ^ ^ / / ^ ^ ^ ^ ^ ^ 0 _ d d y { p l b b . . . . . . . . . . . . . . . ",
". . . . . . . . . . . . . . . b b z A { { d q B q d B ^ ^ ^ ^ ^ ^ ^ ^ ^ ^ B d q C D u E F p t b b . . . . . . . . . . . . . . . ",
". . . . . . . . . . . . . . . b G j H ] { u I d I d m 9 ^ 0 ^ ^ ^ ^ 0 ^ 9 m d I d C d x ] j j b b . . . . . . . . . . . . . . . ",
". . . . . . . . . . . . . . . b b w k b b I J K K d d 0 } L ^ ^ 9 ^ L M 0 d d K K d d j N w j b b . . . . . . . . . . . . . . . ",
". . . . . . . . . . . . . . . b b j H b b u d u m C d ^ O ^ ^ 2 2 ^ ^ O ^ d C m m D d l H H j b b . . . . . . . . . . . . . . . ",
". . . . . . . . . . . . . . . b b P ; k Q F R ^ _ d d S { ^ ^ ^ ^ ^ ^ { S d d _ ^ F E T j ; P b b . . . . . . . . . . . . . . . ",
". . . . . . . . . . . . . . . b b ; ; H j ] x 0 ^ u d U { ^ _ / / _ ^ { U d u ^ ^ x ] w j ; ) b b . . . . . . . . . . . . . . . ",
". . . . . . . . . . . . . . . b o V b ~ : W ; j l X { { Y ^ ^ ^ ^ ^ ^ Y { { X l j Z W ; ; b b b b . . . . . . . . . . . . . . . ",
". . . . . . . . . . % ` . = . o b b b 4 : : ; j j F { { X 0 ^ ^ ^ ^ 0 X { { F j j ; : : 4 b b b o . = . = % . . . . . . . . . . ",
". . . . . . . . . . . $ + . . b b  ...b f b b 4 4 W ; j t { y ^ ^ y { t j ; W 4 4 b b f b .. .b b . . + $ . . . . . . . . . . . ",
". . . . . . . . . . % @ + + . f b j +.b V b b ) ) ) ; w @.S x ^ ^ x S @.w ; ) ) ) b b V b +.j b f . + + @ % . . . . . . . . . . ",
". . . . . . . . + + , , . . = b b f #.Q j j j b o b b o b $.; %.%.; $.b o b b o o j j j Q #.f b b = . . , , + + . . . . . . . . ",
". . . . . . . . > . . > % > . V b b G w j w Q b b b f f V W ; &.&.; W b f f b b b t w j w G b b V . & % > . . > . . . . . . . . ",
". . . . . . . . . . ` . > . . , = f b *.j t j H p @.j o s =.; ; ; ; 4 s o j @.p H H t j *.b f = , . . > . ` . . . . . . . . . . ",
". . . . . . . . . . . . . . . > > b b w t j t j H j k f b ; ; ) ) ; ; b f k j H j j j t w b b > > . . . . . . . . . . . . . . . ",
". . . . . . . . . . . , = . . . > . . b b j j b b w H o b ; - ; ; - ; b o H w b b j j b b . . > . . . = , . . . . . . . . . . . ",
". . . . . . . . . . . + < > . + , . . b b p j f b w j b b ; ; ; ; ; ; b b Q N b b j j f b + . . . . + > . > . $ . . . . . . . . ",
". . . . . . . . . . . . e . . c . b b -.u b b b b o ;.b b p t ; P j j o b b b b b b b >.,.b V . = . . , . . . > . . . . . . . . ",
". . . . . . . . * . + % . % = > . b b r '.b b o b f b b o j j ) ; Q @.f b ).V o b o o !.~.b b . . . % . e + = . . . . . . . . . ",
". . . . . . . . + . # & = . . {.].^./.d m (._.b b :.<.b s j p o b j [.f }.|.U ^ ^ ^ / :.:.1.2.b b . . c 3.. . . . . . . . . . . ",
". . . . . . . . . . . % > . . ~.>./.4.d K :.5.b o :.6.b 7.j H f f H @.G o Y Y ^ ^ 9 ^ :.8.9./.o b . + < % . . = . . . . . . . . ",
". . . . . . . . 0.. . @ . . . b f a.b.c.b.f f d.e.:.(.e.:.b f.o o g.V :.e.F U _ ^ 5 ^ b b b.b.f g.. . . = . . . . . . . . . . . ",
". . . . . . . . . . . = . . . b V h.h.b.h.b b i.:.:.e.:.e.b b f b b f j.:.X { ^ ^ ^ ^ }.b k.h.b b . . > > . . . . . . . . . . . ",
". . . . . . . . # . . # . . . = . b }.b b b b :.6.l.l.:.6.:.:.:.e.<.6.e.:.l.m.X x { { o b b b . = . . . # . . . . . . . . . . . ",
". . . . . . . . . . . . . . . . e V b o b b b d.:.l.n.:.:.e.:.:.e.8.:.<.:.l.l.{ F S { b b b b . . . . . . . . . . . . . . . . . ",
". . . . . . . . . . . . . . . . . , . . = b b b b b b o.p.l.q.l.l.l.r.s.l.b b b b b b , . . = . . . . . . . . . . . . . . . . . ",
". . . . . . . . . . . . . . . . . * # . . b f b b b o l.n.l.l.l.l.n.l.t.l.G b f b b G ! + + . % . . . . . . . . . . . . . . . . ",
". . . . . . . . . . . . . . . . . . = = u.f b v.w.x.w.o f b f y.b f b f o z.z.z.z.G f , = . . . . . . . . . . . . . . . . . . . ",
". . . . . . . . . . . . . . . . . . . = . f b A.x.z.v.b ;.b b f b b b b b B.C.z.z.b b @ , . . . . . . . . . . . . . . . . . . . ",
". . . . . . . . . . . . . . . . + . . + . % ` f b b o < . = % . # = . @ . b b o b # . . + . . . . . . . . . . . . . . . . . . . ",
". . . . . . . . . . . . . . . . . . . c . . . b b b b = & . . + . . . % . b b b b @ < + . . . . . . . . . . . . . . . . . . . . ",
". . . . . . . . . . . . . . . . . . . . . > . = . = . . . e . . . = % . % = . > . + + % . = . . . . . . . . . . . . . . . . . . ",
". . . . . . . . . . . . . . . . . . . . . . . . . . . . . . . . . . . . . . . . . . . . . . . . . . . . . . . . . . . . . . . . ",
". . . . . . . . . . . . . . . . . . . . . . . . . . . . . . . . . . . . . . . . . . . . . . . . . . . . . . . . . . . . . . . . ",
". . . . . . . . . . . . . . . . . . . . . . . . . . . . . . . . . . . . . . . . . . . . . . . . . . . . . . . . . . . . . . . . ",
". . . . . . . . . . . . . . . . . . . . . . . . . . . . . . . . . . . . . . . . . . . . . . . . . . . . . . . . . . . . . . . . ",
". . . . . . . . . . . . . . . . . . . . . . . . . . . . . . . . . . . . . . . . . . . . . . . . . . . . . . . . . . . . . . . . ",
". . . . . . . . . . . . . . . . . . . . . . . . . . . . . . . . . . . . . . . . . . . . . . . . . . . . . . . . . . . . . . . . ",
". . . . . . . . . . . . . . . . . . . . . . . . . . . . . . . . . . . . . . . . . . . . . . . . . . . . . . . . . . . . . . . . ",
". . . . . . . . . . . . . . . . . . . . . . . . . . . . . . . . . . . . . . . . . . . . . . . . . . . . . . . . . . . . . . . . "};
