/* XPM */
static char * dawn back rx_xpm[] = {
"64 64 184 2",
"  	c None",
". 	c #70C8A0",
"+ 	c #71C9A1",
"@ 	c #70C89E",
"# 	c #70C8A2",
"$ 	c #71C7A0",
"% 	c #6EC9A0",
"& 	c #6FC79F",
"* 	c #71C7A2",
"= 	c #72C8A3",
"- 	c #6FCAA1",
"; 	c #70C69F",
"> 	c #396089",
", 	c #395E88",
"' 	c #3A5F89",
") 	c #39608B",
"! 	c #376189",
"~ 	c #385F88",
"{ 	c #71C9A3",
"] 	c #38628A",
"^ 	c #37618B",
"/ 	c #A8A0C7",
"( 	c #AA9FC9",
"_ 	c #E8E7F7",
": 	c #E9E8F8",
"< 	c #E7E9F8",
"[ 	c #A9A1CA",
"} 	c #A7A0C9",
"| 	c #376187",
"1 	c #396087",
"2 	c #A89FCA",
"3 	c #A79FC8",
"4 	c #EAE7F8",
"5 	c #EAE9F9",
"6 	c #AA9FCA",
"7 	c #6DC89D",
"8 	c #3A618A",
"9 	c #A8A0C9",
"0 	c #E8EAF7",
"a 	c #EAE9FB",
"b 	c #E9E8FA",
"c 	c #E8EAF9",
"d 	c #3A6188",
"e 	c #395E8A",
"f 	c #E8E7F9",
"g 	c #E9E6F7",
"h 	c #E9E6F9",
"i 	c #EBE8F9",
"j 	c #EAE9F7",
"k 	c #EAE7FA",
"l 	c #010101",
"m 	c #000000",
"n 	c #E9E8F6",
"o 	c #E7E9F6",
"p 	c #E7E8FA",
"q 	c #EAE8F6",
"r 	c #E8E7F5",
"s 	c #000002",
"t 	c #C9C8D8",
"u 	c #C8C7D7",
"v 	c #C8C7D5",
"w 	c #C9C8D6",
"x 	c #383F4F",
"y 	c #393E51",
"z 	c #6FC79D",
"A 	c #71C99F",
"B 	c #383F51",
"C 	c #C8C8D4",
"D 	c #C7C9D8",
"E 	c #373E4E",
"F 	c #37404F",
"G 	c #6DC89F",
"H 	c #38404D",
"I 	c #393F4F",
"J 	c #CAC9D9",
"K 	c #C8CAD9",
"L 	c #CCC8D9",
"M 	c #393F4D",
"N 	c #39414E",
"O 	c #000201",
"P 	c #C6C7D9",
"Q 	c #C9C6D7",
"R 	c #C6C8D5",
"S 	c #C7C8DA",
"T 	c #6EC99E",
"U 	c #ABA0CA",
"V 	c #CAC7D8",
"W 	c #394050",
"X 	c #C9C8DA",
"Y 	c #C8C9DB",
"Z 	c #A9A0CB",
"` 	c #010103",
" .	c #ABA0C8",
"..	c #C8C7D9",
"+.	c #A8A1CB",
"@.	c #A79EC9",
"#.	c #CBCADC",
"$.	c #363F50",
"%.	c #000100",
"&.	c #3B608C",
"*.	c #37414D",
"=.	c #374051",
"-.	c #AA9FC7",
";.	c #A99EC6",
">.	c #A99EC8",
",.	c #38404B",
"'.	c #3A6087",
").	c #CAC9D7",
"!.	c #373E50",
"~.	c #010000",
"{.	c #385F8A",
"].	c #71C89E",
"^.	c #3A5F8B",
"/.	c #3A4050",
"(.	c #363F4E",
"_.	c #384150",
":.	c #394052",
"<.	c #020001",
"[.	c #3A424F",
"}.	c #6EC8A2",
"|.	c #C03838",
"1.	c #C13939",
"2.	c #78403F",
"3.	c #784041",
"4.	c #BF393A",
"5.	c #BF3938",
"6.	c #020202",
"7.	c #C23836",
"8.	c #38424E",
"9.	c #773F40",
"0.	c #C33939",
"a.	c #C23838",
"b.	c #BF3835",
"c.	c #773F42",
"d.	c #794142",
"e.	c #000103",
"f.	c #C0383A",
"g.	c #784242",
"h.	c #FBCEB9",
"i.	c #F9D1B8",
"j.	c #7A3F43",
"k.	c #7A3F41",
"l.	c #373F52",
"m.	c #C2373A",
"n.	c #F8D0B7",
"o.	c #F26949",
"p.	c #F06747",
"q.	c #BE3839",
"r.	c #BF3737",
"s.	c #BE3837",
"t.	c #BE3835",
"u.	c #F46948",
"v.	c #F06949",
"w.	c #C13735",
"x.	c #FAD0B8",
"y.	c #F16848",
"z.	c #F1674A",
"A.	c #010100",
"B.	c #EE6747",
"C.	c #F16846",
"D.	c #D7A079",
"E.	c #D79F7A",
"F.	c #D6A07A",
"G.	c #72C8A1",
"H.	c #D7A077",
"I.	c #D99F79",
"J.	c #D89E76",
"K.	c #D69F78",
"L.	c #000200",
"M.	c #7B4044",
"N.	c #7B4042",
"O.	c #C0689A",
"P.	c #C16999",
"Q.	c #C16898",
"R.	c #BF6998",
"S.	c #793F3E",
"T.	c #7A403F",
"U.	c #C06898",
"V.	c #6FC7A1",
"W.	c #C36798",
"X.	c #C06996",
"Y.	c #6FC9A3",
"Z.	c #BF6797",
"`.	c #BE6897",
". . . . . . . . . . . . . . . . . . . . . . . . . . + @ # . . . $ . . . . # . . . . . . . . . . . . . . . . . . . . . . . . . . ",
". . . . . . . . . . . . . . . . . . . . . . . . + # . . . # + . . . . + # . . . . . . . . . . . . . . . . . . . . . . . . . . . ",
". . . . . . . . . . . . . . . . . . . . . . . . . . + $ + $ . . . . . . . . . . . . . . . . . . . . . . . . . . . . . . . . . . ",
". . . . . . . . . . . . . . . . . . . . . . . . . . $ % $ % . . . @ . @ . @ . . . . . . . . . . . . . . . . . . . . . . . . . . ",
". . . . . . . . . . . . . . . . . . . . . . . . . & . . . . + . * + & = . + # . . . . . . . . . . . . . . . . . . . . . . . . . ",
". . . . . . . . . . . . . . . . . . . . . . . . . . $ . . - % . % @ @ % @ . . . . . . . . . . . . . . . . . . . . . . . . . . . ",
". . . . . . . . . . . . . . . . . . . . . . . . . . % . . ; . . # # # & . $ . % . . . . . . . . . . . . . . . . . . . . . . . . ",
". . . . . . . . . . . . . . . . . . . . . . . . . . + . > > > > , > , > ' > . . . . . . . . . . . . . . . . . . . . . . . . . . ",
". . . . . . . . . . . . . . . . . + ; . . % . # # . % . ) > ' > ! ' > > ' ~ . # + . . { @ + + . . . . . . . . . . . . . . . . . ",
". . . . . . . . . . . . . . . . . . . . . . > ] > ^ / ( _ : < : : : : : _ : [ } > | > 1 - $ . . . . . . . . . . . . . . . . . . ",
". . . . . . . . . . . . . . . . . # . . @ . > > > ) 2 3 : 4 4 : 5 4 : : : : 3 6 > ~ > , + # & . . . . . . . . . . . . . . . . . ",
". . . . . . . . . . . . . . . . . . $ 7 8 > 9 9 < : < 0 _ : : : : a b : < : 5 c 5 5 8 d > 1 . . . . . . . . . . . . . . . . . . ",
". . . . . . . . . . . . . . . . . . . . e > 3 9 _ f g h : 4 4 4 : i 4 4 i j b k : 4 > , > ) + # . . . . . . . . . . . . . . . . ",
". . . . . . . . . . . . . . . . . . @ . l m : : : < n o 5 c 5 5 : 5 p : < q : 0 5 : < 5 l l . @ . . . . . . . . . . . . . . . . ",
". . . . . . . . . . . . . . . . . . & * m m : : 4 4 : 4 < q : _ r 4 : _ : : g b : : : 4 m s . # . . . . . . . . . . . . . . . . ",
". . . . . . . . . . . . . . . . . . m m t u 5 : : o 5 : 5 _ c : : : : : : : : : : : : : t t s m . . . . . . . . . . . . . . . . ",
". . . . . . . . . . . . . . . . . . m m v w : : : : b _ : _ 5 : : : : : _ : : : : 5 _ 4 t t m m . + # . . + . . . . . . . . . . ",
". . . . . . . . . . . . . . . . . + x y w u 5 : : b : : : : : : _ : : : 5 : : : : : : : t u x x . . + z . . @ . . . . . . . . . ",
". . . . . . . . . . . . . . . . . A B x t w f _ : n : : : : : : 5 : : : : : : : : : r b C D E F G . . . $ . . . . . . . . . . . ",
". . . . . . . . . . . . . . . . m m H I w J J K : : : : _ : : b : : : _ : : 5 5 : 5 K t J L M N m m . . . . . . . . . . . . . . ",
". . . . . . . . . . . . . . . . m O B N P D t D : b : 4 j : : : : : : : : : 5 : : g u Q R S x B s m @ . . . . T . . . . . . . . ",
". . . . . . . . . . . . . . . . m s M E U 9 t t : : : : : : 5 : : : : 5 : : : 5 5 : V t 6 U x W m m . . . % . # . . . . . . . . ",
". . . . . . . . . . . . . . . . m m x E 9 9 t X : : : : : : : : : : : : : _ : : : : t X 9 2 x x m m . $ . . . . . . . . . . . . ",
". . . . . . . . . . . . . . . . m m x x 9 9 t t 6 9 i : : _ n : : : : : : : t t t X t t 9 / x x m m . @ % . . . . . . . . . . . ",
". . . . . . . . . . + . . # + . m m x x } 9 t t 9 9 : _ < : : : : b : : 5 5 t D t t J w 9 9 x I m m & . . . . . . . . . . . . . ",
". . . . . . . . . @ . . z + . . m m x x B x Y t Z 9 : 5 : b < < 5 : n : j : t t t w D J m ` E x m m . @ # & A . . . . . . . . . ",
". . . . . . . . . . . $ . . . G m m W B F x t w 9  .n r : : : 4 _ : : 5 b : t D V X V ..m m x x m l . . . # % # . . . . . . . . ",
". . . . . . . . . . . . . . m m I I > ! I I +.} 9 9 f : : : < _ : _ _ _ 9 @.#.J r : 2 U $.W > > m %.$ . . . . # . . . . . . . . ",
". . . . . . . . T . . . . @ m s B x > &.*.=.-.;./ / : < 4 : : : b : j 5 2 2 u Q b b -.>.,.x ' '.m m @ & . . . . . . . . . . . . ",
". . . . . . . . # . % . . . m m F x m m 1 1 ^ > 9 9 : : : : : : t t @.@.).J [ 9 B x ) > ! ! m m s m . % $ . . . . . . . . . . . ",
". . . . . . . . . . . . $ . m m E x m ` d ) > > ( 9 : : : : _ : t t 9 9 t t 3 9 x x > ~ 1 > l m m m + $ . $ @ . . . . . . . . . ",
". . . . . . . . . . . % @ . m m m m x x m m m m > ^ / 9 9 9 ( 9 m l l m m m m s > > m m m m I x . $ $ % . . . # . . . . . . . . ",
". . . . . . . . . + $ + . T m m m m I !.l l m m 1 > 9 9 9 [ ( 9 s m m m m m s m > ! m m m m x x . . . . . . . . . . . . . . . . ",
". . . . . . . . . . % . T @ # . s m x W B x x H m m x W m m ) > 8 8 > > m l ~.m m l x !.F x m m . . . . . . . . . . . . . . . . ",
". . . . . . . . . . $ % $ . . $ m m x !.x W x x m m F x m m 1 > ) > ! 1 m %.m m m s E x B x m m . . . . . . . . . . . . . . . . ",
". . . . . . . . . . . . + . @ + . . ` l x *.x W E E m m 8 > > ! > ' ' {.m ~.x I H x W F F E l ` . . . . . . . . . . . . . . . . ",
". . . . . . . . @ . . # . % ].. $ ; l m x I E x x x m ~.> ^.1 ' > ) ! 8 s ` x x x x /.B /.B m m . . . . . . . . . . . . . . . . ",
". . . . . . . . @ $ . . & # & . . + m m F x x x m O I (.8 ! > > > 1 m m x !.x x l %.x I l m . $ . . . . . . . . . . . . . . . . ",
". . . . . . . . . . . @ + . + . . * s O I F x x m m x B > ' > > > > m m x _.B x s l E x m m . & . . . . . . . . . . . . . . . . ",
". . . . . . . . . . % . . . . # . . . . m m m m m m x x :.H > > x B m <.x x m m m m m m m m . . . . . . . . . . . . . . . . . . ",
". . . . . . . . . . . . . . . . . . @ . m s m m m m [.F W x > > x x %.m x B s l m m ` m m m }.@ . . . . . . . . . . . . . . . . ",
". . . . . . . . . . . . . . . . . . & . m m |.1.l m m m x N x B m m m l m s t D 2.3.4.5.|.|.m 6.. . . . . . . . . . . . . . . . ",
". . . . . . . . . . . . . . . . . . . . m m 7.|.l m m m 8.x F M m m m m m l v v 9.9.0.a.b.|.m m . . . . . . . . . . . . . . . . ",
". . . . . . . . . . . . . . . . + . . @ # @ s m c.d.!.x e.e.m ` f.|.5.5.>.9 k 5 : 5 c.g.h.i.m m . . . . . . . . . . . . . . . . ",
". . . . . . . . . . . . . . . . . . . $ @ . m m j.k.l.x m m m m |.|.a.m.9 6 r : : : k.k.n.n.m m . . . . . . . . . . . . . . . . ",
". . . . . . . . . . . . . . . . . . & . . @ s m 2.3.o.p.q.f.|.|.r.s.t.|.|.|.Z Z 9 9 9.3.n.n.m m . . . . . . . . . . . . . . . . ",
". . . . . . . . . . . . . . . . . @ . . + . m m k.3.u.v.w.b.|.r.|.7.|.|.1.1.( / ( 9 d.9.n.x.m m . . . . . . . . . . . . . . . . ",
". . . . . . . . . . . . . . . . . . . - . . m l ~.m 3.3.y.y.z.p.y.y.p.z.o.y.m A.l m m m m %.. . . . . . . . . . . . . . . . . . ",
". . . . . . . . . . . . . . . . . . . . . @ m m m m 3.3.B.y.C.y.y.y.p.y.y.y.m m m m l l m m $ @ . . . . . . . . . . . . . . . . ",
". . . . . . . . . . . . . . . . & . . . . $ m m D.E.D.F.m m m l m m m m 2.3.2.2.. . G.@ * # . # . . . . . . . . . . . . . . . . ",
". . . . . . . . . . . . . . . . . ].. . . { m m H.I.J.K.L.l m m m m m m M.N.k.3.@ . . $ . @ . @ . . . . . . . . . . . . . . . . ",
". . . . . . . . . . . . . . . . . & . . . . + . d.d.O.P.Q.R.m m . . - + % % % G . # . + # . . . . . . . . . . . . . . . . . . . ",
". . . . . . . . . . . . . . . . . . . . . . $ . S.T.U.Q.R.U.m <.$ . & . $ G.$ . . . . z . @ % . . . . . . . . . . . . . . . . . ",
". . . . . . . . . . . . . . . . T . $ + V.. z . l m W.U.X.U.m m . . @ @ % . % . . . . . $ $ + . . . . . . . . . . . . . . . . . ",
". . . . . . . . . . . . . . . . . . + . . % . Y.m m U.P.Z.`.m m . . . & . . . . + + . Y.. . . . . . . . . . . . . . . . . . . . ",
". . . . . . . . . . . . . . . . . . . . . . . . . . m m m m % . . . . . - . - & + . . . . . . % . . . . . . . . . . . . . . . . ",
". . . . . . . . . . . . . . . . . . . . . . . . . . m m m m . . . . . . . . . . . . . . . . . . . . . . . . . . . . . . . . . . ",
". . . . . . . . . . . . . . . . . . . . . . . . . . . . . . . . . . . . . . . . . . . . . . . . . . . . . . . . . . . . . . . . ",
". . . . . . . . . . . . . . . . . . . . . . . . . . . . . . . . . . . . . . . . . . . . . . . . . . . . . . . . . . . . . . . . ",
". . . . . . . . . . . . . . . . . . . . . . . . # . + + + + . # . . . . . . . . . . . . . . . . . . . . . . . . . . . . . . . . ",
". . . . . . . . . . . . . . . . . . . . . . . . . . . . . . . . . . . . . . . . . . . . . . . . . . . . . . . . . . . . . . . . ",
". . . . . . . . . . . . . . . . . . . . . . . . . . . . . . . . . . . . . . . . . . . . . . . . . . . . . . . . . . . . . . . . ",
". . . . . . . . . . . . . . . . . . . . . . . . . . . . . . . . . . . . . . . . . . . . . . . . . . . . . . . . . . . . . . . . ",
". . . . . . . . . . . . . . . . . . . . . . . . . . . . . . . . . . . . . . . . . . . . . . . . . . . . . . . . . . . . . . . . "};
