/* XPM */
static char * dawn back sx_xpm[] = {
"64 64 178 2",
"  	c None",
". 	c #70C8A0",
"+ 	c #70C8A2",
"@ 	c #71C7A0",
"# 	c #70C89E",
"$ 	c #71C9A1",
"% 	c #6EC9A0",
"& 	c #72C8A3",
"* 	c #6FC79F",
"= 	c #71C7A2",
"- 	c #6FCAA1",
"; 	c #6FC7A1",
"> 	c #70C69F",
", 	c #396089",
"' 	c #3A5F89",
") 	c #395E88",
"! 	c #71C9A3",
"~ 	c #385F88",
"{ 	c #376189",
"] 	c #39608B",
"^ 	c #396087",
"/ 	c #376187",
"( 	c #A7A0C9",
"_ 	c #A9A1CA",
": 	c #E9E8F8",
"< 	c #E8E7F7",
"[ 	c #E7E9F8",
"} 	c #AA9FC9",
"| 	c #A8A0C7",
"1 	c #37618B",
"2 	c #38628A",
"3 	c #AA9FCA",
"4 	c #A79FC8",
"5 	c #EAE7F8",
"6 	c #EAE9F9",
"7 	c #A89FCA",
"8 	c #3A6188",
"9 	c #3A618A",
"0 	c #E8EAF9",
"a 	c #E9E8FA",
"b 	c #EAE9FB",
"c 	c #E8EAF7",
"d 	c #A8A0C9",
"e 	c #6DC89D",
"f 	c #EAE7FA",
"g 	c #EAE9F7",
"h 	c #EBE8F9",
"i 	c #E9E6F9",
"j 	c #E9E6F7",
"k 	c #E8E7F9",
"l 	c #395E8A",
"m 	c #010101",
"n 	c #EAE8F6",
"o 	c #E7E8FA",
"p 	c #E7E9F6",
"q 	c #E9E8F6",
"r 	c #000000",
"s 	c #000002",
"t 	c #E8E7F5",
"u 	c #C9C8D8",
"v 	c #C8C7D7",
"w 	c #C9C8D6",
"x 	c #C8C7D5",
"y 	c #6FC79D",
"z 	c #383F4F",
"A 	c #393E51",
"B 	c #6DC89F",
"C 	c #37404F",
"D 	c #373E4E",
"E 	c #C7C9D8",
"F 	c #C8C8D4",
"G 	c #383F51",
"H 	c #71C99F",
"I 	c #39414E",
"J 	c #393F4D",
"K 	c #CCC8D9",
"L 	c #CAC9D9",
"M 	c #C8CAD9",
"N 	c #393F4F",
"O 	c #38404D",
"P 	c #6EC99E",
"Q 	c #C7C8DA",
"R 	c #C6C8D5",
"S 	c #C9C6D7",
"T 	c #C6C7D9",
"U 	c #000201",
"V 	c #394050",
"W 	c #ABA0CA",
"X 	c #CAC7D8",
"Y 	c #C9C8DA",
"Z 	c #010103",
"` 	c #A9A0CB",
" .	c #C8C9DB",
"..	c #C8C7D9",
"+.	c #ABA0C8",
"@.	c #000100",
"#.	c #363F50",
"$.	c #CBCADC",
"%.	c #A79EC9",
"&.	c #A8A1CB",
"*.	c #3A6087",
"=.	c #38404B",
"-.	c #A99EC8",
";.	c #AA9FC7",
">.	c #A99EC6",
",.	c #374051",
"'.	c #37414D",
").	c #3B608C",
"!.	c #CAC9D7",
"~.	c #010000",
"{.	c #384150",
"].	c #010100",
"^.	c #3A5F8B",
"/.	c #000005",
"(.	c #71C89E",
"_.	c #363F4E",
":.	c #764040",
"<.	c #784041",
"[.	c #394052",
"}.	c #D7A079",
"|.	c #784043",
"1.	c #000103",
"2.	c #C13A37",
"3.	c #C03838",
"4.	c #D6A179",
"5.	c #774043",
"6.	c #C0383A",
"7.	c #D99F7A",
"8.	c #D69F78",
"9.	c #F6D1B7",
"0.	c #F8D0B6",
"a.	c #F8CFB9",
"b.	c #F8D0B7",
"c.	c #C23836",
"d.	c #BF3938",
"e.	c #000200",
"f.	c #F8CFBB",
"g.	c #F9D1B8",
"h.	c #C03A39",
"i.	c #C2373A",
"j.	c #C03936",
"k.	c #C13939",
"l.	c #F7CFB5",
"m.	c #773F40",
"n.	c #F06747",
"o.	c #F16848",
"p.	c #C23838",
"q.	c #BF3936",
"r.	c #BF3737",
"s.	c #C1393B",
"t.	c #F06745",
"u.	c #EF6848",
"v.	c #F9D0BA",
"w.	c #F9CFB9",
"x.	c #774141",
"y.	c #78403F",
"z.	c #F26748",
"A.	c #C13639",
"B.	c #F2674A",
"C.	c #F26949",
"D.	c #F26947",
"E.	c #794144",
"F.	c #794142",
"G.	c #72C8A1",
"H.	c #7A3F41",
"I.	c #7B4042",
"J.	c #7B4044",
"K.	c #D7A077",
"L.	c #C06797",
"M.	c #C16898",
"N.	c #C06898",
"O.	c #C06A99",
"P.	c #C16A97",
"Q.	c #C16896",
"R.	c #6FC9A3",
"S.	c #BF6998",
"T.	c #C0689A",
"U.	c #BF6797",
". . . . . . . . . . . . . . . . . . . . . . . . . . + . . . . @ . . . + # $ . . . . . . . . . . . . . . . . . . . . . . . . . . ",
". . . . . . . . . . . . . . . . . . . . . . . . . . . + $ . . . . $ + . . . + $ . . . . . . . . . . . . . . . . . . . . . . . . ",
". . . . . . . . . . . . . . . . . . . . . . . . . . . . . . . . . . @ $ @ $ . . . . . . . . . . . . . . . . . . . . . . . . . . ",
". . . . . . . . . . . . . . . . . . . . . . . . . . # . # . # . . . % @ % @ . . . . . . . . . . . . . . . . . . . . . . . . . . ",
". . . . . . . . . . . . . . . . . . . . . . . . . + $ . & * $ = . $ . . . . * . . . . . . . . . . . . . . . . . . . . . . . . . ",
". . . . . . . . . . . . . . . . . . . . . . . . . . . # % # # % . % - . . @ . . . . . . . . . . . . . . . . . . . . . . . . . . ",
". . . . . . . . . . . . . . . . . . . . . . . . % . @ . . ; + + . . > . . % . . . . . . . . . . . . . . . . . . . . . . . . . . ",
". . . . . . . . . . . . . . . . . . . . . . . . . . , ' , ) , ) , , , , . $ . . . . . . . . . . . . . . . . . . . . . . . . . . ",
". . . . . . . . . . . . . . . . . $ $ # ! . . $ + . ~ ' , , ' { , ' , ] . % . + + . % . . > $ . . . . . . . . . . . . . . . . . ",
". . . . . . . . . . . . . . . . . . @ - ^ , / , ( _ : < : : : : : [ : < } | 1 , 2 , . . . . . . . . . . . . . . . . . . . . . . ",
". . . . . . . . . . . . . . . . . * + $ ) , ~ , 3 4 : : : : 5 6 : 5 5 : 4 7 ] , , , . # . . + . . . . . . . . . . . . . . . . . ",
". . . . . . . . . . . . . . . . . . ^ , 8 9 6 6 0 6 : [ : a b : : : : < c [ : [ d d , 9 e @ . . . . . . . . . . . . . . . . . . ",
". . . . . . . . . . . . . . . . + $ ] , ) , 5 : f a g h 5 5 h : 5 5 5 : i j k < d 4 , l . . . . . . . . . . . . . . . . . . . . ",
". . . . . . . . . . . . . . . . # . m m 6 [ : 6 c : n [ : o 6 : 6 6 0 6 p q [ : : : r m . # . . . . . . . . . . . . . . . . . . ",
". . . . . . . . . . . . . . . . + . s r 5 : : : a j : : < : 5 t < : n [ 5 : 5 5 : : r r = * . . . . . . . . . . . . . . . . . . ",
". . . . . . . . . . . . . . . . r s u u : : : : : : : : : : : : : 0 < 6 : 6 p : : 6 v u r r . . . . . . . . . . . . . . . . . . ",
". . . . . . . . . . $ . . + $ . r r u u 5 < 6 : : : : < : : : : : 6 < : < a : : : : w x r r . . . . . . . . . . . . . . . . . . ",
". . . . . . . . . # . . y $ . . z z v u : : : : : : : 6 : : : < : : : : : : a : : 6 v w A z $ . . . . . . . . . . . . . . . . . ",
". . . . . . . . . . . @ . . . B C D E F a t : : : : : : : : : 6 : : : : : : q : < k w u z G H . . . . . . . . . . . . . . . . . ",
". . . . . . . . . . . . . . r r I J K L u M 6 : 6 6 : : < : : : a : : < : : : : M L L w N O r r . . . . . . . . . . . . . . . . ",
". . . . . . . . P . . . . # r s G z Q R S v j : : 6 : : : : : : : : : g 5 : a : E u E T I G U r . . . . . . . . . . . . . . . . ",
". . . . . . . . + . % . . . r r V z W 3 u X : 6 6 : : : 6 : : : : 6 : : : : : : u u d W D J s r . . . . . . . . . . . . . . . . ",
". . . . . . . . . . . . @ . r r z z 7 d Y u : : : : < : : : : : : : : : : : : : Y u d d D z r r . . . . . . . . . . . . . . . . ",
". . . . . . . . . . . % # . r r z z | d u u Y u u u : : : : : : : q < : : h d 3 u u d d z z r r . . . . . . . . . . . . . . . . ",
". . . . . . . . . . . . . * r r N z d d w L u u E u 6 6 : : a : : : : [ < : d d u u d ( z z r r . $ + . . $ . . . . . . . . . . ",
". . . . . . . . . H * + # . r r z D Z r L E w u u u : g : q : 6 [ [ a : 6 : d ` u  .z G z z r r . . $ y . . # . . . . . . . . . ",
". . . . . . . . + % + . . . m r z z r r ..X Y X E u : a 6 : : < 5 : : : t q +.d w u z C G V r r B . . . @ . . . . . . . . . . . ",
". . . . . . . . + . . . . @ @.r , , V #.W 7 : t L $.%.d < < < : < [ : : : k d d ( &.N N { , N N r r . . . . . . . . . . . . . . ",
". . . . . . . . . . . . * # r r *.' z =.-.;.a a S v 7 7 6 g : a : : : 5 [ : | | >.;.,.'.)., z G s r # . . . . P . . . . . . . . ",
". . . . . . . . . . . @ % . r s r r { { , ] z G d _ L !.%.%.u u : : : : : : d d , 1 ^ ^ r r z C r r . . . % . + . . . . . . . . ",
". . . . . . . . . # @ . @ $ r r r m , ^ ~ , z z d 4 u u d d u u : < : : : : d } , , ] 8 Z r z D r r . @ . . . . . . . . . . . . ",
". . . . . . . . + . . . % @ @ . z N r r r r , , s r r r r m m r d } d d d | 1 , r r r r z z r r r r . # % . . . . . . . . . . . ",
". . . . . . . . . . . . . . . . z z r r r r , , r r r ~.r r r r d } _ d d d , ^ r r r r N z r r r r P . $ @ $ . . . . . . . . . ",
". . . . . . . . . . . . . . . . s r D N z V r r r r r r , , { , , ] r r V z r r N '.z z I z r r . + # P . % . . . . . . . . . . ",
". . . . . . . . . . . . . . . . r m V z C z r r m r r r , / , , , ^ r r z C r r N z z D A A r m @ . . @ % @ . . . . . . . . . . ",
". . . . . . . . . . . . . . . . Z m N G z {.z N N z r r ~ ' ^ , { , , 9 r r D D z V D D ].r + . $ # . $ . . . . . . . . . . . . ",
". . . . . . . . . . . . . . . . r ~.'.V z N z C C C r @./ 2 ] ] ' ^ ^., ~.r z z z G C z r /.. % . (.% . + . . # . . . . . . . . ",
". . . . . . . . . . . . . . . . . % r s A z r r N z z z m r ' *., , { 9 _.N U r z G z D ].r . . . * + * . . @ # . . . . . . . . ",
". . . . . . . . . . . . . . . . . . m m V O r r z z G z m r ] , , , ' , G z r r z z z z s r . % . $ . $ # . . . . . . . . . . . ",
". . . . . . . . . . . . . . . . # . :.<.r @.r r r r r r r r z z , , O [.z z r r r Z r r }.}.r r + . . . . % . . . . . . . . . . ",
". . . . . . . . . . . . . . . . . . |.<.1.r r r r r r r r r z z , , z N G z r r ~.r r s }.}.r r . . . . . . . . . . . . . . . . ",
". . . . . . . . . . . . . . . . % % r r L u 7 7 z G <.<.2.3.r r z N D z r r m r [ : [ : 4.}.m s . . . . . . . . . . . . . . . . ",
". . . . . . . . . . . . . . . . @ . r U u L d d z z 5.:.6.3.m r z z z O m m r r : j 5 < 7.8.r r . . . . . . . . . . . . . . . . ",
". . . . . . . . . . . . . . . . m r 9.0.a.b.r r ~.r c.3.2.6.3.3.r s m s N z d.3.a a : : @.e.% . . . . . . . . . . . . . . . . . ",
". . . . . . . . . . . . . . . . r ~.a.f.9.g.r r r m 6.h.i.j.k.j.~.r r m G C 3.3.q : q 5 r r . $ . . . . . . . . . . . . . . . . ",
". . . . . . . . . . . . . . . . r r g.l.a.l.m.<.n.o.j.p.q.j.r.3.3.3.s.6.t.n.u.u.7 _ 7 d $ $ y % . . . . . . . . . . . . . . . . ",
". . . . . . . . . . . . . . . . r r b.v.a.w.x.y.z.o.A.3.p.k.p.3.3.d.3.3.o.o.B.o.d d d d $ @ $ . . . . . . . . . . . . . . . . . ",
". . . . . . . . . . . . . . . . . . r r r r r r @.r o.o.o.o.C.o.o.D.o.o.E.F.r r r m . . . . . . . . . . . . . . . . . . . . . . ",
". . . . . . . . . . . . . . . . # @ r r r m r r r r o.o.o.n.o.o.n.o.z.o.<.y.s r r r # . . . . . . . . . . . . . . . . . . . . . ",
". . . . . . . . . . . . . . . . + . + = # G.. . y.y.<.y.r r r r s m r r }.}.b.b.r r @ . . . . * . . . . . . . . . . . . . . . . ",
". . . . . . . . . . . . . . . . # . # . @ . . # <.H.I.J.r r r r r r m r 4.K.b.b.r r ! . . . (.. . . . . . . . . . . . . . . . . ",
". . . . . . . . . . . . . . . . . . . + . . + . B % % % $ - . . @.r L.M.L.N.<.<.. $ . . . . * . . . . . . . . . . . . . . . . . ",
". . . . . . . . . . . . . . . . $ % # . y . . . . @ G.@ . * . @ r r O.N.N.N.H.<.. @ . . . . . . . . . . . . . . . . . . . . . . ",
". . . . . . . . . . . . . . . . . $ @ @ . . . . . % . % # # . . s ~.M.P.M.Q.s r . y . ; $ @ . P . . . . . . . . . . . . . . . . ",
". . . . . . . . . . . . . . . . . . . . R.. $ $ . . . . * . . . r r S.T.U.U.s r R.. % . . $ . . . . . . . . . . . . . . . . . . ",
". . . . . . . . . . . . . . . . % . . . . . . $ * - . - . . . . . . r r r r . . . . . . . . . . . . . . . . . . . . . . . . . . ",
". . . . . . . . . . . . . . . . . . . . . . . . . . . . . . . . . . r r r r . . . . . . . . . . . . . . . . . . . . . . . . . . ",
". . . . . . . . . . . . . . . . . . . . . . . . . . . . . . . . . . . . . . . . . . . . . . . . . . . . . . . . . . . . . . . . ",
". . . . . . . . . . . . . . . . . . . . . . . . . . . . . . . . . . . . . . . . . . . . . . . . . . . . . . . . . . . . . . . . ",
". . . . . . . . . . . . . . . . . . . . . . . . . . . . . . . . + . $ $ $ $ . + . . . . . . . . . . . . . . . . . . . . . . . . ",
". . . . . . . . . . . . . . . . . . . . . . . . . . . . . . . . . . . . . . . . . . . . . . . . . . . . . . . . . . . . . . . . ",
". . . . . . . . . . . . . . . . . . . . . . . . . . . . . . . . . . . . . . . . . . . . . . . . . . . . . . . . . . . . . . . . ",
". . . . . . . . . . . . . . . . . . . . . . . . . . . . . . . . . . . . . . . . . . . . . . . . . . . . . . . . . . . . . . . . ",
". . . . . . . . . . . . . . . . . . . . . . . . . . . . . . . . . . . . . . . . . . . . . . . . . . . . . . . . . . . . . . . . "};
