/* XPM */
static char * espeon_rx_xpm[] = {
"64 64 131 2",
"  	c None",
". 	c #70C8A0",
"+ 	c #70C8A2",
"@ 	c #71C9A1",
"# 	c #71C7A0",
"$ 	c #6FC79D",
"% 	c #6EC9A0",
"& 	c #70C89E",
"* 	c #6DC89F",
"= 	c #6FC79F",
"- 	c #6FC7A1",
"; 	c #4E2776",
"> 	c #512877",
", 	c #4F2877",
"' 	c #4F2976",
") 	c #F0C9E8",
"! 	c #F1CAE9",
"~ 	c #EFC8E7",
"{ 	c #E0B0D8",
"] 	c #4F2879",
"^ 	c #F0C8EA",
"/ 	c #F0C7E7",
"( 	c #E3B0D9",
"_ 	c #F0C9E6",
": 	c #A869A0",
"< 	c #A968A0",
"[ 	c #A66AA0",
"} 	c #A96AA1",
"| 	c #4E2977",
"1 	c #A869A2",
"2 	c #502978",
"3 	c #A8699E",
"4 	c #EEC9E8",
"5 	c #000000",
"6 	c #010000",
"7 	c #4D2876",
"8 	c #EDC8E7",
"9 	c #A8679F",
"0 	c #EFCAEB",
"a 	c #EFC7E9",
"b 	c #6EC99E",
"c 	c #F1C8EA",
"d 	c #020001",
"e 	c #F1C9EB",
"f 	c #000002",
"g 	c #DFAFD7",
"h 	c #C890D1",
"i 	c #CA8FD3",
"j 	c #71C7A2",
"k 	c #52287A",
"l 	c #F1C8E8",
"m 	c #E2AFD8",
"n 	c #E0B0DA",
"o 	c #502776",
"p 	c #6EC8A2",
"q 	c #71C9A3",
"r 	c #DFB1D8",
"s 	c #DFB1D6",
"t 	c #70C69F",
"u 	c #71C89E",
"v 	c #010103",
"w 	c #512876",
"x 	c #522977",
"y 	c #010101",
"z 	c #72C99F",
"A 	c #502A77",
"B 	c #4E2778",
"C 	c #4E287B",
"D 	c #000100",
"E 	c #DFB0DA",
"F 	c #F0C7E9",
"G 	c #EEC9EA",
"H 	c #4F2A78",
"I 	c #3971AE",
"J 	c #3970B0",
"K 	c #E2B0D6",
"L 	c #3771B0",
"M 	c #3A71B1",
"N 	c #6DC7A1",
"O 	c #3A70B0",
"P 	c #3671AD",
"Q 	c #C991D2",
"R 	c #C890CF",
"S 	c #C68FD0",
"T 	c #EFC8E5",
"U 	c #70C79D",
"V 	c #3B71B1",
"W 	c #C78ED2",
"X 	c #EECAE6",
"Y 	c #3672AE",
"Z 	c #6FCAA1",
"` 	c #72C8A1",
" .	c #E887B0",
"..	c #C83830",
"+.	c #71C99F",
"@.	c #C7372F",
"#.	c #CA8FD1",
"$.	c #C8382F",
"%.	c #E9E8F8",
"&.	c #4E2976",
"*.	c #F3CAEC",
"=.	c #C93930",
"-.	c #E9E8F6",
";.	c #EFCAE9",
">.	c #C88FD3",
",.	c #302078",
"'.	c #31217A",
").	c #C790D1",
"!.	c #E786B1",
"~.	c #E887B2",
"{.	c #EA88B1",
"].	c #E786AF",
"^.	c #CB90D2",
"/.	c #312179",
"(.	c #E7E8FA",
"_.	c #E1B1D9",
":.	c #EAE7F8",
"<.	c #2F1F77",
"[.	c #A7689F",
"}.	c #E0B0D6",
"|.	c #C991D0",
"1.	c #522978",
"2.	c #C98ECE",
"3.	c #4E2875",
"4.	c #A76BA1",
"5.	c #50297A",
"6.	c #512A79",
"7.	c #A76AA3",
"8.	c #C98ED0",
"9.	c #C78FD0",
"0.	c #6FC9A3",
". . . . . . . . . . . . . . . . . . . . . . . . . . . . . . . . + . . . . . @ + . . . + + # . . . . . . . . . . . . . . . . . . ",
". . . . . . . . . . . . . . . . . . . . . . . . . . . . . . . . + . . . . . $ . . . . . . . . . . . . . . . . . . . . . . . . . ",
". . . . . . . . . . . . . . . . . . . . . . . . . . . . . . . . @ . . # . . % . # + & . # % . . . . . . . . . . . . . . . . . . ",
". . . . . . . . . . . . . . . . . . . . . . . . . . . . . . . . . . . . + . * . . @ . . + $ . . . . . . . . . . . . . . . . . . ",
". . . . . . . . . . . . . . . . . . . . . . . . . . . . . . . . . . . . # @ . . # . . . = % . # . . . . . . . . . . . . . . . . ",
". . . . . . . . . . . . . . . . . . . . . . . . . . . . . . . . = . . . + @ + . . . + . - . . . . . . . . . . . . . . . . . . . ",
". . . . . . . . . . . . . . . . . . . . . . . . . . . . . . . . . . . ; > , , , , . . @ . & . . . . . . . . . . . . . . . . . . ",
". . . . . . . . . . . . . . . . . . . . . . . . . . . . . . . . . . . , , , , , , . = . . . . . . . . . . . . . . . . . . . . . ",
". . . . . . . . . . . . . . . . . . . . . . . . . . . . . . . # . , ' ) ) ! ~ { { , , . . . + . . . . . . . . . . . . . . . . . ",
". . . . . . . . . . . . . . . . . . . . . . . . . . % . # . % . . ] , ^ ) ) / { ( , , . % . . . . . . . . . . . . . . . . . . . ",
". . . . . . . . . . . . . . . . . . . . . . . . . + . % @ . . , , _ _ : < [ } , , , , . = . + . . . . . . . . . . . . . . . . . ",
". . . . . . . . . . . . . . . . . . . . . . . . . . . . = % . , | ^ ) : [ < 1 2 2 ; | % % . . . . . . . . . . . . . . . . . . . ",
". . . . . . . . . . . . . . . . . . . . . . . . . . . @ # > , ^ ^ 3 : _ _ 4 ) 5 6 . . . = . + . . . . . . . . . . . . . . . . . ",
". . . . . . . . . . . . . . . . . . . . . . . . . & @ @ + 7 , 4 8 9 1 ) 0 ) a 5 5 . % . % . . . . . . . . . . . . . . . . . . . ",
". . . . . . . . . . . . . . . . . . . . . . . . . . . . b , , c ! 4 ) 5 5 d 5 { { 5 5 % . . + . . . . . . . . . . . . . . . . . ",
". . . . . . . . . . . . . . . . . . . . . . . . . . = @ . , , e ) 8 ^ 5 f 5 5 { g 5 5 = % . . . . . . . . . . . . . . . . . . . ",
". . . . . . . . . . . . . . . . . . . . . . . . # = . 2 ; ) 4 h i > , j . . . 5 5 , 2 . . . . . . . . . . . . . . . . . . . . . ",
". . . . . . . . . . . . . . . . . . . . . . . . . + . , , ) ~ h h , , . $ . . 5 5 , , . . . % . . . . . . . . . . . . . . . . . ",
". . . . . . . . . . . . . . . . . . . . . . . . # . . 5 5 ) ! k , j = . . . . @ @ . . . @ + . . . . . . . . . . . . . . . . . . ",
". . . . . . . . . . . . . . . . . . . . . . . . . . % 5 5 l _ , ] . . . . . . & $ # . @ $ # . . . . . . . . . . . . . . . . . . ",
". . . . . . . . . . . . . . . . . . . . . . . . . # . 5 5 m n o , . . . p . . q @ . % & . = . + . . . . . . . . . . . . . . . . ",
". . . . . . . . . . . . . . . . . . . . . . . . & = . 5 5 r s ; ] % t + # . . & = @ # . b # = . . . . . . . . . . . . . . . . . ",
". . . . . . . . . . . . . . . . . . . . . . . . . . . . = > ] { { , , @ + . . @ . . + . . . . + . . . . . . . . . . . . . . . . ",
". . . . . . . . . . . . . . . . . . . . . . . . . . & . # | 2 { { , , . . = . . @ . . . . % & % . . . . . . . . . . . . . . . . ",
". . . . . . . . . . . , ; , , . # . . . . . . . . @ . . . , , h h , , . . . @ . . . . . . . . # . , , ; , . . . . . . . . . . . ",
". . . . . . . . . . + , ] , , j . @ . % . . . . % . u & + 2 , h h , 2 + & u . % . . . . % . @ . j , , ] , + . . . . . . . . . . ",
". . . . . . . . . . . v 6 ) ) w x 5 5 y 5 + . z & . . > A n { n n { n A > . . & z . + 5 y 5 5 x w ) ) 6 v . . . . . . . . . . . ",
". . . . . . . . % & . 5 5 _ ) B C y y D 5 & % @ . . = | ; { { E E { { ; | t . . @ % & 5 D y y C B ) _ 5 5 . & % . . . . . . . . ",
". . . . . . . . . . = f 6 ) ) _ _ ~ ) c F y d , B , 2 m ( { { m m { { ( m 2 , B , d y F c ) ~ _ _ ) ) 6 f = . . . . . . . . . . ",
". . . . . . . . . . . 5 5 ) ^ G ) G ) ) ) 5 5 H , ' 7 r n m { n n { m n r ; ' , H 5 5 ) ) ) G ) G ^ ) 5 5 . . . . . . . . . . . ",
". . . . . . . . % @ = . . , , I J h h l ) ) ) ) ) 6 5 { K 7 , , , , 7 K { 5 6 ) ) ) ) ) l h h J I , , . . = @ % . . . . . . . . ",
". . . . . . . . . @ . + . , , J J h h ) ) ) ) _ ) 5 5 { { , , , , , , { { 5 5 ) _ ) ) ) ) h h J J , , . + . @ . . . . . . . . . ",
". . . . . . . . . . . . . 5 y J J J J J L ) ) ) l ^ ) , , ) ) _ _ ) ) , , ) ^ l ) ) ) L J J J J J 5 5 . . . . . . . . . . . . . ",
". . . . . . . . @ + . + @ 5 5 M J J M J J ) ) ) ) l ) 2 k ) ! ! ! ! ) k 2 ) l ) ) ) ) J J M J J M 5 5 . + . - @ . . . . . . . . ",
". . . . . . . . . . . & + q N 6 5 O P J L Q R ) ) S h T 4 ) ) ) ) ) ) 4 T h S ) ) R Q L J P O 5 6 p q + & . . . . . . . . . . . ",
". . . . . . . . # . . . & = U 5 5 V O J O W i ) ) h h ! ^ X ) l l ) X ^ ! h h ) ) i W O J O V 5 5 U = & . . . # . . . . . . . . ",
". . . . . . . . . . % # % @ @ . # | , I L M Y ) ) ) ! 8 ) c ) 4 4 ) c ) 8 ! ) ) ) Y M L I , | # . @ @ Z # % . . . . . . . . . . ",
". . . . . . . . # % . . . $ & . . , 2 I J J O ) l ) ) ! ) _ ) ) ) ) _ ) ! ~ ) l ) O J J I 2 , . . & $ . . . % # . . . . . . . . ",
". . . . . . . . # . . . Z ` . . . $ . , , , , l ! ~ ) ) )  . ..... . .) ) ) ~ ) l , , , , . $ . . . ` Z . . . # . . . . . . . . ",
". . . . . . . . . . . . . . +.. = . . , , , , ) ! ) ) l )  . .@... . .) l ) ) ! ) , , , , . . = . +.. . . . . . . . . . . . . . ",
". . . . . . . . . . & # & . + . . 2 , ) l #.h ) ) X ) 8 ) ..$.%.%.$...) 8 ) X ) ) h #.l ) , 2 . . + . & # & . . . . . . . . . . ",
". . . . . . . . @ . & t = . + # @ 2 &.*.) h R ) ~ ) ) _ ) $.=.-.-.=.$.) _ ) ) ~ ) R h ) *.&.2 @ # + . = t & . @ . . . . . . . . ",
". . . . . . . . + . . @ @ . . ] , 4 ) 4 ;.>.#.,.'.).h ^ ) !.~.....~.!.) ^ h ).'.,.#.>.;.4 ) 4 , ] . . @ @ . . + . . . . . . . . ",
". . . . . . . . . = @ & . . = | , ) ! c a Q Q ,.,.#.#.l l {.].$.$.].{.l l #.^.,.,.Q Q a c ! ) , | = . . & @ = . . . . . . . . . ",
". . . . . . . . % . . q . . . 5 y ) l y 5 >.h /.,.%.(.s _.4 ^ ^ ^ ^ 4 _.s (.%.,./.h >.5 y l ) y 5 . . . q . . % . . . . . . . . ",
". . . . . . . . . . . . . . . 5 5 _ ) 5 5 h h ,.,.:.%.m { l ) ) ) ) l { m %.:.,.,.h h 5 5 ) _ 5 5 . . . . . . . . . . . . . . . ",
". . . . . . . . . . . . & . . 5 5 2 , . . 6 5 Q h <.,.: [.) l ^ ^ l ) [.: ,.<.h Q 5 6 . . , 2 5 5 . . & . . . . . . . . . . . . ",
". . . . . . . . q . % & . . . y 5 , ; q + f 5 h h ,.<.[ } ) l ) ) l ) : [ ,.,.h h 5 f + q ; , 5 y . . . & % . q . . . . . . . . ",
". . . . . . . . . . . . . . . . @ . . . . , , 5 6 h h h h { { : : { r h h h h 5 5 , , . . . . . . . . . . . . . . . . . . . . . ",
". . . . . . . . . . . . . . . . . = % . . , | 5 5 R >.h #.}.{ : 3 { { |.h ).#.5 5 , , . . . . . . . . . . . . . . . . . . . . . ",
". . . . . . . . . . . . . . . . . % . . = . . , , 5 5 5 D h >.).>.h h f 5 5 5 1.2 . . = ` % . . . . . . . . . . . . . . . . . . ",
". . . . . . . . . . . . . . . . . % . . . . . , A y 6 y 5 Q h #.2.Q >.5 5 5 5 ' 3.# # + . q . . . . . . . . . . . . . . . . . . ",
". . . . . . . . . . . . . . . . . . . . . . % B ] < : [.: 5 6 y y 5 6 4.: R h 5.6.. . = . . . . . . . . . . . . . . . . . . . . ",
". . . . . . . . . . . . . . . . . @ . @ . . u , > 4.[ 7.[.y 5 5 5 5 5 : 1 h ).' ' . # . = . . . . . . . . . . . . . . . . . . . ",
". . . . . . . . . . . . . . . . . . . t @ = p , , 8.).; 5.. % . . . & 5 D 5 f . . . + % . % . . . . . . . . . . . . . . . . . . ",
". . . . . . . . . . . . . . . . = . . & # % . 2 , 9.h , ] . @ . @ . . 5 5 5 5 . . + = % . % & . . . . . . . . . . . . . . . . . ",
". . . . . . . . . . . . . . . . . . . . . . . . @ 5 5 5 5 . . . . . . . . . . . . . . . . . . . . . . . . . . . . . . . . . . . ",
". . . . . . . . . . . . . . . . . . . . . . . . # 5 5 5 5 . . . . . . . . . . . . . . . . . . . . . . . . . . . . . . . . . . . ",
". . . . . . . . . . . . . . . . . . . . . . . . . @ @ q . . . . . . . . . . . . . . . . . . . . . . . . . . . . . . . . . . . . ",
". . . . . . . . . . . . . . . . . . . . . . . . . U . $ $ # . . . . . . . . . . . . . . . . . . . . . . . . . . . . . . . . . . ",
". . . . . . . . . . . . . . . . . . . . . . . . . 0.@ @ . % . . . . . . . . . . . . . . . . . . . . . . . . . . . . . . . . . . ",
". . . . . . . . . . . . . . . . . . . . . . . . % = +.= . . . . . . . . . . . . . . . . . . . . . . . . . . . . . . . . . . . . ",
". . . . . . . . . . . . . . . . . . . . . . . . . . . @ @ + . . . . . . . . . . . . . . . . . . . . . . . . . . . . . . . . . . ",
". . . . . . . . . . . . . . . . . . . . . . . . + % . . @ . . . . . . . . . . . . . . . . . . . . . . . . . . . . . . . . . . . "};
