/* XPM */
static char * espeon_sx_xpm[] = {
"64 64 141 2",
"  	c None",
". 	c #70C8A0",
"+ 	c #71C7A0",
"@ 	c #70C8A2",
"# 	c #71C9A1",
"$ 	c #6FC79D",
"% 	c #6EC9A0",
"& 	c #70C89E",
"* 	c #6DC89F",
"= 	c #6FC79F",
"- 	c #6FC7A1",
"; 	c #71C9A3",
"> 	c #4F2877",
", 	c #512877",
"' 	c #4E2776",
") 	c #F0C9E8",
"! 	c #F0C8EA",
"~ 	c #E0B0D6",
"{ 	c #E0B0D8",
"] 	c #512779",
"^ 	c #EFC7E9",
"/ 	c #E1B1D9",
"( 	c #71C99F",
"_ 	c #502978",
": 	c #EECAE6",
"< 	c #A869A0",
"[ 	c #4E2977",
"} 	c #4F2879",
"| 	c #A7689F",
"1 	c #71C7A2",
"2 	c #F1CAE9",
"3 	c #A96AA1",
"4 	c #F0C9E6",
"5 	c #000000",
"6 	c #6FCAA1",
"7 	c #EEC9EA",
"8 	c #EFC8E7",
"9 	c #EEC9E8",
"0 	c #010101",
"a 	c #F1C8E8",
"b 	c #E2AFD8",
"c 	c #E3B0D9",
"d 	c #000002",
"e 	c #70C69F",
"f 	c #000100",
"g 	c #72C7A0",
"h 	c #DEB0D7",
"i 	c #DDAEDA",
"j 	c #502775",
"k 	c #4F2976",
"l 	c #CB90D4",
"m 	c #CB90D0",
"n 	c #E0B1DB",
"o 	c #E0B2D9",
"p 	c #72CAA2",
"q 	c #6FC9A3",
"r 	c #C78FCE",
"s 	c #C88FD4",
"t 	c #E1AFD5",
"u 	c #71C89E",
"v 	c #C88FD3",
"w 	c #C790D1",
"x 	c #C890D1",
"y 	c #4E2976",
"z 	c #010103",
"A 	c #010000",
"B 	c #512876",
"C 	c #522977",
"D 	c #72C99F",
"E 	c #71C89D",
"F 	c #4D2B77",
"G 	c #E0B0DA",
"H 	c #4E2778",
"I 	c #4E287B",
"J 	c #DFB0DA",
"K 	c #50297A",
"L 	c #F1C8EA",
"M 	c #F0C7E9",
"N 	c #020001",
"O 	c #DFB1D8",
"P 	c #E2B0D6",
"Q 	c #DFAFD7",
"R 	c #4F2A78",
"S 	c #4D2876",
"T 	c #3971AE",
"U 	c #3970B0",
"V 	c #C790D3",
"W 	c #C890CF",
"X 	c #C991D2",
"Y 	c #3771B0",
"Z 	c #3A71B1",
"` 	c #52287A",
" .	c #6DC7A1",
"..	c #3A70B0",
"+.	c #3671AD",
"@.	c #C68FD0",
"#.	c #EFC8E5",
"$.	c #6EC8A2",
"%.	c #70C79D",
"&.	c #3B71B1",
"*.	c #C78ED2",
"=.	c #CA8FD3",
"-.	c #3672AE",
";.	c #EDC8E7",
">.	c #72C8A1",
",.	c #E887B0",
"'.	c #C83830",
").	c #C7372F",
"!.	c #CA8FD1",
"~.	c #C8382F",
"{.	c #E9E8F8",
"].	c #F3CAEC",
"^.	c #C93930",
"/.	c #E9E8F6",
"(.	c #EFCAE9",
"_.	c #302078",
":.	c #31217A",
"<.	c #E786B1",
"[.	c #E887B2",
"}.	c #EA88B1",
"|.	c #E786AF",
"1.	c #CB90D2",
"2.	c #312179",
"3.	c #E7E8FA",
"4.	c #DFB1D6",
"5.	c #EAE7F8",
"6.	c #2F1F77",
"7.	c #A66AA0",
"8.	c #C991D0",
"9.	c #A8699E",
"0.	c #522978",
"a.	c #4E2875",
"b.	c #C98ECE",
"c.	c #502A77",
"d.	c #512A79",
"e.	c #A76BA1",
"f.	c #A968A0",
"g.	c #A869A2",
"h.	c #A76AA3",
"i.	c #C98ED0",
"j.	c #C78FD0",
". . . . . . . . . . . . . . . . . . . . . . . . . . + @ @ . . . @ # . . . . . @ . . . . . . . . . . . . . . . . . . . . . . . . ",
". . . . . . . . . . . . . . . . . . . . . . . . . . . . . . . . . $ . . . . . @ . . . . . . . . . . . . . . . . . . . . . . . . ",
". . . . . . . . . . . . . . . . . . . . . . . . . . % + . & @ + . % . . + . . # . . . . . . . . . . . . . . . . . . . . . . . . ",
". . . . . . . . . . . . . . . . . . . . . . . . . . $ @ . . # . . * . @ . . . . . . . . . . . . . . . . . . . . . . . . . . . . ",
". . . . . . . . . . . . . . . . . . . . . . . . + . % = . . . + . . # + . . . . . . . . . . . . . . . . . . . . . . . . . . . . ",
". . . . . . . . . . . . . . . . . . . . . . . . . . . - . @ . . . ; # @ . . . = . . . . . . . . . . . . . . . . . . . . . . . . ",
". . . . . . . . . . . . . . . . . . . . . . . . . . & . # . . > > > > , ' . . . . . . . . . . . . . . . . . . . . . . . . . . . ",
". . . . . . . . . . . . . . . . . . . . . . . . . . . . . = . > > ' > > > . . . . . . . . . . . . . . . . . . . . . . . . . . . ",
". . . . . . . . . . . . . . . . . . . . . . . . % & . . . > > ) ) ) ! ~ { > > & . . . . . . . . . . . . . . . . . . . . . . . . ",
". . . . . . . . . . . . . . . . . . . . . . . . @ . . % . > ] ) ! ) ^ ~ / > > . . . . . . . . . . . . . . . . . . . . . . . . . ",
". . . . . . . . . . . . . . . . . . . . . . . . . ( + _ ' ) : < < < < > > _ [ @ . . . . . . . . . . . . . . . . . . . . . . . . ",
". . . . . . . . . . . . . . . . . . . . . . . . . . = } ' ^ ) < | < < > > ' > + . . . . . . . . . . . . . . . . . . . . . . . . ",
". . . . . . . . . . . . . . . . . . . . . . . . 1 _ _ ) 2 < 3 ) 2 ) 4 5 5 . . 6 . . . . . . . . . . . . . . . . . . . . . . . . ",
". . . . . . . . . . . . . . . . . . . . . . . . . [ > 7 8 < < ) ) ) 9 5 0 = + = . . . . . . . . . . . . . . . . . . . . . . . . ",
". . . . . . . . . . . . . . . . . . . . . . . . . > ' a a ) ) 5 5 5 5 { b 5 5 & . . . . . . . . . . . . . . . . . . . . . . . . ",
". . . . . . . . . . . . . . . . . . . . . . . . . > > ) ) a ) 5 5 0 5 b c 5 5 . . . . . . . . . . . . . . . . . . . . . . . . . ",
". . . . . . . . . . . . . . . . . . . . . . . . . 5 5 ) ) > > # . . . 5 d , > . . . . . . . . . . . . . . . . . . . . . . . . . ",
". . . . . . . . . . . . . . . . . . . . . . . . @ 5 5 ! 9 , > . . . e 5 5 > > + . . . . . . . . . . . . . . . . . . . . . . . . ",
". . . . . . . . . . . . . . . . . . . . . . . . . 5 f / b [ > . # . . # ; . . . . . . . . . . . . . . . . . . . . . . . . . . . ",
". . . . . . . . . . . . . . . . . . . . . . . . g d 5 h i j j @ . . & = $ # + . . . . . . . . . . . . . . . . . . . . . . . . . ",
". . . . . . . . . . . . . . . . . . . . . . . . . k > l m n o > > . - p q % . 1 . . . . . . . . . . . . . . . . . . . . . . . . ",
". . . . . . . . . . . . . . . . . . . . . . . . . > } r s t b } > @ . & e . . . . . . . . . . . . . . . . . . . . . . . . . . . ",
". . . . . . . . . . . . . . . . . . . . . . . . u . . 5 5 v w > } . . . # . % . . . . . . . . . . . . . . . . . . . . . . . . . ",
". . . . . . . . . . . . . . . . . . . . . . . . . . . 5 5 x x > > . = . . . . . . . . . . . . . . . . . . . . . . . . . . . . . ",
". . . . . . . . . . . > ' > > . + . . . . . . . # . . y > > > x x > > . . . . . . . . . . . . + . > > ' > . . . . . . . . . . . ",
". . . . . . . . . . @ > } > > 1 . # . % . . . . . = . k > [ > x x > > ; # . & . . . . . % . # . 1 > > } > @ . . . . . . . . . . ",
". . . . . . . . . . . z A ) ) B C 5 5 0 5 @ . D E & # [ F G { G { { { > H . @ u D . @ 5 0 5 5 C B ) ) A z . . . . . . . . . . . ",
". . . . . . . . % & . 5 5 4 ) H I 0 0 f 5 & % # # + . k j { { G J { { ] K = . D # % & 5 f 0 0 I H ) 4 5 5 . & % . . . . . . . . ",
". . . . . . . . . . = d A ) ) 4 4 8 ) L M 0 N > ' > K n / b O P { { Q ~ h _ > > > N 0 M L ) 8 4 4 ) ) A d = . . . . . . . . . . ",
". . . . . . . . . . . 5 5 ) ! 7 ) 7 ) ) ) 5 5 R > > S ~ Q { G { O / c b { [ > > R 5 5 ) ) ) 7 ) 7 ! ) 5 5 . . . . . . . . . . . ",
". . . . . . . . % # = . . > > T U x x a ) ) ) ) L 5 5 V x S > > } > S W w 5 5 2 ) ) ) ) a x x U T > > . . = # % . . . . . . . . ",
". . . . . . . . . # . @ . > > U U x x ) ) ) ) 4 ) 5 5 x X > > > > > > x x 5 5 ) 4 ) ) ) ) x x U U > > . @ . # . . . . . . . . . ",
". . . . . . . . . . . . . 5 0 U U U U U Y ) ) ) a ! ) > > ) ) 4 4 ) ) > > ) ! a ) ) ) Y U U U U U 5 5 . . . . . . . . . . . . . ",
". . . . . . . . # @ . @ # 5 5 Z U U Z U U ) ) ) ) a ) _ ` ) 2 2 2 2 ) ` _ ) a ) ) ) ) U U Z U U Z 5 5 . @ . - # . . . . . . . . ",
". . . . . . . . . . . & @ ;  .A 5 ..+.U Y X W ) ) @.x #.9 ) ) ) ) ) ) 9 #.x @.) ) W X Y U +...5 A $.; @ & . . . . . . . . . . . ",
". . . . . . . . + . . . & = %.5 5 &...U ..*.=.) ) x x 2 ! : ) a a ) : ! 2 x x ) ) =.*...U ..&.5 5 %.= & . . . + . . . . . . . . ",
". . . . . . . . . . % + % # # . + [ > T Y Z -.) ) ) 2 ;.) L ) 9 9 ) L ) ;.2 ) ) ) -.Z Y T > [ + . # # 6 + % . . . . . . . . . . ",
". . . . . . . . + % . . . $ & . . > _ T U U ..) a ) ) 2 ) 4 ) ) ) ) 4 ) 2 8 ) a ) ..U U T _ > . . & $ . . . % + . . . . . . . . ",
". . . . . . . . + . . . 6 >.. . . $ . > > > > a 2 8 ) ) ) ,.,.'.'.,.,.) ) ) 8 ) a > > > > . $ . . . >.6 . . . + . . . . . . . . ",
". . . . . . . . . . . . . . ( . = . . > > > > ) 2 ) ) a ) ,.,.).'.,.,.) a ) ) 2 ) > > > > . . = . ( . . . . . . . . . . . . . . ",
". . . . . . . . . . & + & . @ . . _ > ) a !.x ) ) : ) ;.) '.~.{.{.~.'.) ;.) : ) ) x !.a ) > _ . . @ . & + & . . . . . . . . . . ",
". . . . . . . . # . & e = . @ + # _ y ].) x W ) 8 ) ) 4 ) ~.^././.^.~.) 4 ) ) 8 ) W x ) ].y _ # + @ . = e & . # . . . . . . . . ",
". . . . . . . . @ . . # # . . } > 9 ) 9 (.v !._.:.w x ! ) <.[.'.'.[.<.) ! x w :._.!.v (.9 ) 9 > } . . # # . . @ . . . . . . . . ",
". . . . . . . . . = # & . . = [ > ) 2 L ^ X X _._.!.!.a a }.|.~.~.|.}.a a !.1._._.X X ^ L 2 ) > [ = . . & # = . . . . . . . . . ",
". . . . . . . . % . . ; . . . 5 0 ) a 0 5 v x 2._.{.3.4./ 9 ! ! ! ! 9 / 4.3.{._.2.x v 5 0 a ) 0 5 . . . ; . . % . . . . . . . . ",
". . . . . . . . . . . . . . . 5 5 4 ) 5 5 x x _._.5.{.b { a ) ) ) ) a { b {.5._._.x x 5 5 ) 4 5 5 . . . . . . . . . . . . . . . ",
". . . . . . . . . . . . & . . 5 5 _ > . . A 5 X x 6._.< | ) a ! ! a ) | < _.6.x X 5 A . . > _ 5 5 . . & . . . . . . . . . . . . ",
". . . . . . . . ; . % & . . . 0 5 > ' ; @ d 5 x x _.6.7.3 ) a ) ) a ) < 7._._.x x 5 d @ ; ' > 5 0 . . . & % . ; . . . . . . . . ",
". . . . . . . . . . . . . . . . . . . . . > > 5 5 x x x x O { < < { { x x x x A 5 > > . . . . # . . . . . . . . . . . . . . . . ",
". . . . . . . . . . . . . . . . . . . . . > > 5 5 !.x x 8.{ { 9.< { ~ !.x v W 5 5 [ > . . % = . . . . . . . . . . . . . . . . . ",
". . . . . . . . . . . . . . . . . . % >.. % . _ 0.5 A 5 d x x v w v x f 5 5 5 > > . . = . . . . . . . . . . . . . . . . . . . . ",
". . . . . . . . . . . . . . . . . . ; . @ + + a.k 5 5 5 5 v X b.!.x X 5 0 A 0 c.> . . . . . % . . . . . . . . . . . . . . . . . ",
". . . . . . . . . . . . . . . . # . . . = # . d.K x W < e.A 5 0 0 A 5 < | < f.} H % . . . . . . . . . . . . . . . . . . . . . . ",
". . . . . . . . . . . . . . . . . . . = . + . k k w x g.< 5 5 A 5 5 0 | h.7.e., > u . . # . # . . . . . . . . . . . . . . . . . ",
". . . . . . . . . . . . . . . . . . . . % @ . . . d 5 5 5 & . . . % . K ' w i.> , $.= # e . . . . . . . . . . . . . . . . . . . ",
". . . . . . . . . . . . . . . . . & % . % = @ . . 5 5 5 5 . . # . # . } > x j.> _ . % + & . . = . . . . . . . . . . . . . . . . ",
". . . . . . . . . . . . . . . . . . . . . . . . . . . . . . . . . . . 5 5 5 5 # . . . . . . . . . . . . . . . . . . . . . . . . ",
". . . . . . . . . . . . . . . . . . . . . . . . . . . . . . . . . . . 5 5 5 5 + . . . . . . . . . . . . . . . . . . . . . . . . ",
". . . . . . . . . . . . . . . . . . . . . . . . . . . . . . . . . . . . ; # # . . . . . . . . . . . . . . . . . . . . . . . . . ",
". . . . . . . . . . . . . . . . . . . . . . . . . . . . . . . . . . + $ $ . %.. . . . . . . . . . . . . . . . . . . . . . . . . ",
". . . . . . . . . . . . . . . . . . . . . . . . . . . . . . . . . . % . # # q . . . . . . . . . . . . . . . . . . . . . . . . . ",
". . . . . . . . . . . . . . . . . . . . . . . . . . . . . . . . . . . . = ( = % . . . . . . . . . . . . . . . . . . . . . . . . ",
". . . . . . . . . . . . . . . . . . . . . . . . . . . . . . . . . . @ # # . . . . . . . . . . . . . . . . . . . . . . . . . . . ",
". . . . . . . . . . . . . . . . . . . . . . . . . . . . . . . . . . . # . . % @ . . . . . . . . . . . . . . . . . . . . . . . . "};
