/* XPM */
static char * eevee_rx_xpm[] = {
"64 64 120 2",
"  	c None",
". 	c #70C8A0",
"+ 	c #71C7A0",
"@ 	c #70C69F",
"# 	c #6EC9A0",
"$ 	c #71C9A1",
"% 	c #6EC8A2",
"& 	c #3F3117",
"* 	c #403017",
"= 	c #000002",
"- 	c #000000",
"; 	c #6FC7A1",
"> 	c #6EC99E",
", 	c #71C99F",
"' 	c #6FCAA1",
") 	c #6FC79F",
"! 	c #70C89E",
"~ 	c #3F2F16",
"{ 	c #71C9A3",
"] 	c #413118",
"^ 	c #403016",
"/ 	c #010101",
"( 	c #70C8A2",
"_ 	c #403019",
": 	c #C0904E",
"< 	c #BE914E",
"[ 	c #6FC79D",
"} 	c #010103",
"| 	c #40311A",
"1 	c #403218",
"2 	c #C19151",
"3 	c #C09050",
"4 	c #000201",
"5 	c #A67F3E",
"6 	c #A88140",
"7 	c #BE9150",
"8 	c #020003",
"9 	c #402F15",
"0 	c #3F2F15",
"a 	c #A7803F",
"b 	c #402E16",
"c 	c #A88042",
"d 	c #C18F52",
"e 	c #010100",
"f 	c #BF8F51",
"g 	c #A9823F",
"h 	c #A8813E",
"i 	c #71C89E",
"j 	c #A78140",
"k 	c #A98241",
"l 	c #C18F50",
"m 	c #BF8F4F",
"n 	c #A98040",
"o 	c #C29053",
"p 	c #010000",
"q 	c #C09052",
"r 	c #020001",
"s 	c #C1914F",
"t 	c #413117",
"u 	c #3F3019",
"v 	c #BF9251",
"w 	c #BE9052",
"x 	c #412F17",
"y 	c #70C79D",
"z 	c #432E1B",
"A 	c #412F19",
"B 	c #403217",
"C 	c #C08F4D",
"D 	c #BF9153",
"E 	c #815F32",
"F 	c #A88241",
"G 	c #A98143",
"H 	c #BF8F4D",
"I 	c #72CAA4",
"J 	c #7F6031",
"K 	c #816130",
"L 	c #A98042",
"M 	c #EAE8F6",
"N 	c #E9E8F8",
"O 	c #72C8A1",
"P 	c #E8E7F7",
"Q 	c #EAE9F9",
"R 	c #000100",
"S 	c #AA8342",
"T 	c #B89F5F",
"U 	c #B79F5F",
"V 	c #614039",
"W 	c #B8A060",
"X 	c #B9A161",
"Y 	c #603F38",
"Z 	c #423117",
"` 	c #B7A05D",
" .	c #DFD0A7",
"..	c #815F31",
"+.	c #806031",
"@.	c #41311A",
"#.	c #816132",
"$.	c #775E3F",
"%.	c #785F40",
"&.	c #E0D1A8",
"*.	c #B8A062",
"=.	c #796041",
"-.	c #776040",
";.	c #B9A163",
">.	c #E1CFA7",
",.	c #DFD0A5",
"'.	c #B9A060",
").	c #B8A15E",
"!.	c #DFD0A9",
"~.	c #E1CFA9",
"{.	c #E0D1A6",
"].	c #3F3116",
"^.	c #79613F",
"/.	c #B7A261",
"(.	c #423018",
"_.	c #3F2F18",
":.	c #B6A15E",
"<.	c #7B6042",
"[.	c #413016",
"}.	c #816033",
". . . . . . . . . . . . . . . . . . . . . . . . . . . . . . . . . . . . . . . . . . . . . . . . . . . . . . . . . . . . . . . . ",
". . . . . . . . . . . . . . . . . . . . . . . . . . . . . . . . . . . . . . . . . . . . . . . . . . . . . . . . . . . . . . . . ",
". . . . . . . . . . . . . . . . . . . . . . . . . . . . . . . . . . . . . . . . . . . . . . . . . . . . . . . . . . . . . . . . ",
". . . . . . . . . . . . . . . . . . . . . . . . . . . . . . . . . . . . . . . . . . . . . . . . . . . . . . . . . . . . . . . . ",
". . . . . . . . . . . . . . . . . . . . . . . . . . . . . . . . . . . . . . . . . . . . . . . . . . . . . . . . . . . . . . . . ",
". . . . . . . . . . . . . . . . . . . . . . . . . . . . . . . . . . . . . . . . . . . . . . . . . . . . . . . . . . . . . . . . ",
". . . . . . . . . . . . . . . . . . . . . . . . . . . . . . . . . . . . . . . . . . . . . . . . . . . . . . . . . . . . . . . . ",
". . . . . . . . . . . . . . . . . . . . . . . . . . . . . . . . . . . . . . . . . . . . . . . . . . . . . . . . . . . . . . . . ",
". . . . . . . . . . . . . . . . . . . . . . . . . . . . . . . . . . . . . . . . . . . . . . . . . . . . . . . . . . . . . . . . ",
". . . . . . . . . . . . . . . . . . . . . . . . . . . . . . . . . . . . . . . . . . . . . . . . . . . . . . . . . . . . . . . . ",
". . . . . . . . . . . . . . . . . . . . . . . . . . . . . . . . . . . . . . . . . . . . . . . . . . . . . . . . . . . . . . . . ",
". . . . . . . . . . . . . . . . . . . . . . . . . . . . . . . . . . . . . . . . . . . . . . . . . . . . . . . . . . . . . . . . ",
". . . . . . . . . . . . . . . . . . . . . . . . . . . . . . . . . . . . . . . . . . . . . . . . . . . . . . . . . . . . . . . . ",
". . . . . . . . . . . . . . . . . . . . . . . . . . . . . . . . . . . . . . . . . . . . . . . . . . . . . . . . . . . . . . . . ",
". . . . . . . . . . . . . . . . . . . . . . . . . . . . . . . . . . . . . . . . . . . . . . . . . . . . . . . . . . . . . . . . ",
". . . . . . . . . . . . . . . . . . . . . . . . . . . . . . . . . . . . . . . . . . . . . . . . . . . . . . . . . . . . . . . . ",
". . . . . . . . . . . . . . . . . + . . @ . . . # . . . $ % . & * = - ; > . . . . . . @ . . + . . . . . . . . . . . . . . . . . ",
". . . . . . . . , . . % . ' . ) . $ ! . # . . ! ! . ' + . . + * ~ - - . { > $ $ ! . . . . ! ' . ) . ' . % . . , . . . . . . . . ",
". . . . . . . . . $ ) { . . . ] ^ * * / / # ( ) ( ~ ~ - - . # _ ] : < - - ( . . ) ( # / / * & ^ ] . . . { ) $ . . . . . . . . . ",
". . . . . . . . . . . . [ . . _ * _ ^ } - + . # , | 1 - } + @ ^ ^ 2 3 / 4 ! , ' . . + - } ^ _ * _ . . [ . . . . . . . . . . . . ",
". . . . . . . . ! . . ( . # . - - 5 6 < 7 * 1 - 8 9 0 2 : 1 ] 6 6 3 3 a a _ b - - 1 & 7 < 6 5 - - . # . ( . . ! . . . . . . . . ",
". . . . . . . . . + . # . . . = / c 6 d 3 b 0 / e & _ : f ^ b g h 3 3 6 h * ] / / 0 b 3 d 6 c / = . . . # . + . . . . . . . . . ",
". . . . . . . . . ) . i @ $ . . . - - * * : 3 3 3 - - j k l 3 3 3 m 3 a n - - o 3 3 : * * - - . . . $ @ i . ) . . . . . . . . . ",
". . . . . . . . . . . . ( . . . . - p ^ * l 3 3 2 - - n 6 3 3 3 q 3 3 6 6 - r s 3 3 3 * ^ p - . . . . ( . . . . . . . . . . . . ",
". . . . . . . . . . . . . . . . . - - * t * | q 3 3 3 2 3 3 7 3 3 7 3 3 2 3 3 3 q u * t * - - . . . . . . . . . . . . . . . . . ",
". . . . . . . . . . . . . . . . . - p * 1 & * 3 3 3 l v l w 2 3 3 2 w l v l 3 3 3 * & 1 * p - . . . . . . . . . . . . . . . . . ",
". . . . . . . . . . . . . . . . ( ' $ - - * ^ x x 7 3 3 7 : 3 3 3 3 : 7 3 3 7 x x ^ * - - $ ' ( . . . . . . . . . . . . . . . . ",
". . . . . . . . . . . . . . . . . y . - / z A B ^ l C D l 2 3 3 3 3 2 l D C l ^ B A z / - . y . . . . . . . . . . . . . . . . . ",
". . . . . . . . . . . . . . . . . { { $ + / - E E F G H 3 3 m : : m 3 3 H G F E E - / + . { I . . . . . . . . . . . . . . . . . ",
". . . . . . . . . . . . . . . . . ) ) . ( - = J K n n 3 3 3 3 : : 3 3 3 3 n n K J = - ( . ) ) . . . . . . . . . . . . . . . . . ",
". . . . . . . . . . . . . . . . . . . + . _ * L c * ~ M N 3 m 3 3 m 3 N M ~ & c L * _ . + . . . . . . . . . . . . . . . . . . . ",
". . . . . . . . . . . . . . . . O . . . . * * 6 6 * * P Q 7 m q q m 7 Q P * * 6 6 * * . . . . + . . . . . . . . . . . . . . . . ",
". . . . . . . . . . . . . . . . . $ . . . - - 6 6 b * 4 R c 6 6 6 6 c R 4 * b 6 6 - - . . . $ . . . . . . . . . . . . . . . . . ",
". . . . . . . . . . . . . . . . ( . . . $ - = 6 6 * * / - 6 S 6 6 S 6 - / * * 6 6 = - $ . . . ( . . . . . . . . . . . . . . . . ",
". . . . . . . . . . . . . . . . . # . _ _ T U = - V V * * 6 6 6 6 6 6 * * V V - = U T _ _ . # . . . . . . . . . . . . . . . . . ",
". . . . . . . . . . . . . . . . $ , . ] * W X - - Y V * Z 6 k j j k 6 Z * V Y - - X W * ] . , $ . . . . . . . . . . . . . . . . ",
". . . . . . . . . . . . . . . . . . . = - ` T  . .- - / / ..+.@.@.+.../ / - -  . .T ` - = . . . . . . . . . . . . . . . . . . . ",
". . . . . . . . . . . . . . . . O . . - - X X  . .- - - - +.#.* * #.+.- - - -  . .X X - - . . O . . . . . . . . . . . . . . . . ",
". . . . . . . . . . . . . . . . . ' $ - - $.%. . . .&.*.X = - - - - = X *.&. . . .%.$.- - $ ' . . . . . . . . . . . . . . . . . ",
". . . . . . . . . . . . . . . . . . . / = =.-. . .&. .W W - - / / - - W W  .&. . .-.=.= / . . . . . . . . . . . . . . . . . . . ",
". . . . . . . . . . . . . . . . ) # . ! ! - = X ;.U W >. . . . . .>. . .,.W W W X = - ! ! . # ) . . . . . . . . . . . . . . . . ",
". . . . . . . . . . . . . . . . . . . $ ! - - '.).W ). .!. . . .~.{. .,.>.U W '.'.- - ! $ . . . . . . . . . . . . . . . . . . . ",
". . . . . . . . . . . . . . . . . . . # . $ ( & & * ].*.).X W ^.=.W /.'.W * * * & ( $ . # . . . . . . . . . . . . . . . . . . . ",
". . . . . . . . . . . . . . . . . . . ( . ) @ (.x * _.W '.:.X <.=.)./.).W b * x (.@ ) . ( . . . . . . . . . . . . . . . . . . . ",
". . . . . . . . . . . . . . . . . . . . . $ $ . ( - - * [.}.+.= = - - p } 1 & ) . $ $ . . . . . . . . . . . . . . . . . . . . . ",
". . . . . . . . . . . . . . . . . . $ . . ) ! + $ - = ^ _ +.+.- - - - - e ~ x + + ! ) . . $ . . . . . . . . . . . . . . . . . . ",
". . . . . . . . . . . . . . . . . ( . . . . . . . . $ } - - - . $ . ) $ ) $ # . . . . . . . ( . . . . . . . . . . . . . . . . . ",
". . . . . . . . . . . . . . . . . ) . # . . . . . . . - - = - $ + O . . ! . . $ . . . . # . ) . . . . . . . . . . . . . . . . . ",
". . . . . . . . . . . . . . . . . . . . . . . . . . . . . . . . . . . . . . . . . . . . . . . . . . . . . . . . . . . . . . . . ",
". . . . . . . . . . . . . . . . . . . . . . . . . . . . . . . . . . . . . . . . . . . . . . . . . . . . . . . . . . . . . . . . ",
". . . . . . . . . . . . . . . . . . . . . . . . . . . . . . . . . . . . . . . . . . . . . . . . . . . . . . . . . . . . . . . . ",
". . . . . . . . . . . . . . . . . . . . . . . . . . . . . . . . . . . . . . . . . . . . . . . . . . . . . . . . . . . . . . . . ",
". . . . . . . . . . . . . . . . . . . . . . . . . . . . . . . . . . . . . . . . . . . . . . . . . . . . . . . . . . . . . . . . ",
". . . . . . . . . . . . . . . . . . . . . . . . . . . . . . . . . . . . . . . . . . . . . . . . . . . . . . . . . . . . . . . . ",
". . . . . . . . . . . . . . . . . . . . . . . . . . . . . . . . . . . . . . . . . . . . . . . . . . . . . . . . . . . . . . . . ",
". . . . . . . . . . . . . . . . . . . . . . . . . . . . . . . . . . . . . . . . . . . . . . . . . . . . . . . . . . . . . . . . ",
". . . . . . . . . . . . . . . . . . . . . . . . . . . . . . . . . . . . . . . . . . . . . . . . . . . . . . . . . . . . . . . . ",
". . . . . . . . . . . . . . . . . . . . . . . . . . . . . . . . . . . . . . . . . . . . . . . . . . . . . . . . . . . . . . . . ",
". . . . . . . . . . . . . . . . . . . . . . . . . . . . . . . . . . . . . . . . . . . . . . . . . . . . . . . . . . . . . . . . ",
". . . . . . . . . . . . . . . . . . . . . . . . . . . . . . . . . . . . . . . . . . . . . . . . . . . . . . . . . . . . . . . . ",
". . . . . . . . . . . . . . . . . . . . . . . . . . . . . . . . . . . . . . . . . . . . . . . . . . . . . . . . . . . . . . . . ",
". . . . . . . . . . . . . . . . . . . . . . . . . . . . . . . . . . . . . . . . . . . . . . . . . . . . . . . . . . . . . . . . ",
". . . . . . . . . . . . . . . . . . . . . . . . . . . . . . . . . . . . . . . . . . . . . . . . . . . . . . . . . . . . . . . . ",
". . . . . . . . . . . . . . . . . . . . . . . . . . . . . . . . . . . . . . . . . . . . . . . . . . . . . . . . . . . . . . . . "};
