/* XPM */
static char * flareon_rx_xpm[] = {
"64 64 163 2",
"  	c None",
". 	c #70C8A0",
"+ 	c #70C8A2",
"@ 	c #71C7A0",
"# 	c #6FC79F",
"$ 	c #71C7A2",
"% 	c #71C9A1",
"& 	c #6EC9A0",
"* 	c #6DC89F",
"= 	c #483828",
"- 	c #483829",
"; 	c #483926",
"> 	c #493828",
", 	c #70C89E",
"' 	c #71C99F",
") 	c #493A27",
"! 	c #473727",
"~ 	c #493929",
"{ 	c #6EC8A2",
"] 	c #6FC7A1",
"^ 	c #483727",
"/ 	c #D8A748",
"( 	c #D9A84B",
"_ 	c #E8D696",
": 	c #EAD898",
"< 	c #E8D89A",
"[ 	c #E8D998",
"} 	c #70C69F",
"| 	c #6FCAA1",
"1 	c #463926",
"2 	c #D6A846",
"3 	c #D8A846",
"4 	c #E6D897",
"5 	c #E6D794",
"6 	c #E6D796",
"7 	c #493729",
"8 	c #473728",
"9 	c #E7D799",
"0 	c #E7D897",
"a 	c #E7D998",
"b 	c #D7A647",
"c 	c #D9A748",
"d 	c #463929",
"e 	c #E5D796",
"f 	c #E9D797",
"g 	c #E7D895",
"h 	c #E9D795",
"i 	c #6EC99E",
"j 	c #E6D995",
"k 	c #71C9A3",
"l 	c #E6D698",
"m 	c #E6D899",
"n 	c #E8D996",
"o 	c #D6A84A",
"p 	c #6DC89D",
"q 	c #473A2A",
"r 	c #49392A",
"s 	c #E9D799",
"t 	c #EAD697",
"u 	c #D7A649",
"v 	c #D8A549",
"w 	c #000000",
"x 	c #020100",
"y 	c #D8A74A",
"z 	c #010000",
"A 	c #010101",
"B 	c #D9A849",
"C 	c #D6A848",
"D 	c #D9A947",
"E 	c #D8A645",
"F 	c #000100",
"G 	c #FB7F49",
"H 	c #F98049",
"I 	c #987730",
"J 	c #987732",
"K 	c #F9804B",
"L 	c #463928",
"M 	c #000002",
"N 	c #DAA849",
"O 	c #97762F",
"P 	c #483628",
"Q 	c #D9581F",
"R 	c #984028",
"S 	c #974128",
"T 	c #F87F48",
"U 	c #D8571E",
"V 	c #DA571F",
"W 	c #994129",
"X 	c #DA5920",
"Y 	c #DB5820",
"Z 	c #973F27",
"` 	c #F87F46",
" .	c #000201",
"..	c #48362A",
"+.	c #D95821",
"@.	c #D9581E",
"#.	c #D6581D",
"$.	c #F98047",
"%.	c #9A4028",
"&.	c #DA581E",
"*.	c #F88149",
"=.	c #DA591F",
"-.	c #4A382A",
";.	c #473A29",
">.	c #D6581E",
",.	c #FA834B",
"'.	c #FA814A",
").	c #020001",
"!.	c #E7D893",
"~.	c #010103",
"{.	c #F9824A",
"].	c #D85A20",
"^.	c #504040",
"/.	c #514141",
"(.	c #D7591F",
"_.	c #473825",
":.	c #D9561E",
"<.	c #4F403D",
"[.	c #453828",
"}.	c #504041",
"|.	c #4F4140",
"1.	c #72C8A3",
"2.	c #514142",
"3.	c #D8A647",
"4.	c #E9DA99",
"5.	c #50413E",
"6.	c #D9A64A",
"7.	c #D85A1F",
"8.	c #D9A746",
"9.	c #D7591E",
"0.	c #6FC79D",
"a.	c #D95620",
"b.	c #010002",
"c.	c #493826",
"d.	c #D8C0C0",
"e.	c #D6C1C0",
"f.	c #D6C1BE",
"g.	c #98402A",
"h.	c #984126",
"i.	c #F77F4A",
"j.	c #4A3927",
"k.	c #D7A947",
"l.	c #D7A94B",
"m.	c #D75821",
"n.	c #D9A744",
"o.	c #F88147",
"p.	c #C14020",
"q.	c #C1411E",
"r.	c #D7A745",
"s.	c #010100",
"t.	c #E7DA96",
"u.	c #71C89E",
"v.	c #6EC69E",
"w.	c #C0401D",
"x.	c #C03F1F",
"y.	c #C24121",
"z.	c #020204",
"A.	c #72C8A1",
"B.	c #70C79D",
"C.	c #C04121",
"D.	c #C14021",
"E.	c #C2401E",
"F.	c #6FCA9F",
". . . . . . . . . . . . . . . . . . . . . . . . . . . . . . . . . . . . . . . . . . . . . . . . . . . . . . . . . . . . . . . . ",
". . . . . . . . . . . . . . . . . . . . . . . . . . . . . . . . . . . . . . . . . . . . . . . . . . . . . . . . . . . . . . . . ",
". . . . . . . . . . . . . . . . . . . . . . . . . . . . . . . . . . . . . . . . . . . . . . . . . . . . . . . . . . . . . . . . ",
". . . . . . . . . . . . . . . . . . . . . . . . . . . . . . . . . . . . . . . . . . . . . . . . . . . . . . . . . . . . . . . . ",
". . . . . . . . . . . . . . . . . . . . . . . . . . . . . . . . . . . . . . . . . . . . . . . . . . . . . . . . . . . . . . . . ",
". . . . . . . . . . . . . . . . . . . . . . . . . . . . . . . . . . . . . . . . . . . . . . . . . . . . . . . . . . . . . . . . ",
". . . . . . . . . . . . . . . . . . . . . . . . . . . . . . . . . . . . . . . . . . . . . . . . . . . . . . . . . . . . . . . . ",
". . . . . . . . . . . . . . . . . . . . . . . . . . . . . . . . . . . . . . . . . . . . . . . . . . . . . . . . . . . . . . . . ",
". . . . . . . . . . . . . . . . . . . . . . . . + . . . @ . . . . # . $ . % . & . & . # . . . . . . . . . . . . . . . . . . . . ",
". . . . . . . . . . . . . . . . . . . . . . . . . % . % # + * % . = - = = = ; = > . % . . . . . . . . . . . . . . . . . . . . . ",
". . . . . . . . . . . . . . . . . . . . . . . . . . . , ' , ' . . ) ! ~ = = = = - & . . # . . . . . . . . . . . . . . . . . . . ",
". . . . . . . . . . . . . . . . . . . . . . . . & . @ + + { ] ! ^ / ( _ : < [ = = . + , % . . . . . . . . . . . . . . . . . . . ",
". . . . . . . . . . . . . . . . . . . . . . . . # . } & | , ' = 1 2 3 [ 4 5 6 > = . . % # & . . . . . . . . . . . . . . . . . . ",
". . . . . . . . . . . . . . . . . . . . . . . . . . . 7 8 - = 6 9 0 a b c d = & & . & + . . . . . . . . . . . . . . . . . . . . ",
". . . . . . . . . . . . . . . . . . . . . . . . . # . ; = > = 0 e 0 f 3 c > = . , & . . . . . . . . . . . . . . . . . . . . . . ",
". . . . . . . . . . . . . . . . . . . . . . . . . = = 6 0 ! = [ 0 0 g f h 6 0 - ; . . . . . . & . . . . . . . . . . . . . . . . ",
". . . . . . . . . . . | . . . + % . . i $ . . . . ; = 9 0 = = 0 0 0 0 j f 0 0 = = @ ] . . . & . + . . . | . . . . . . . . . . . ",
". . . . . . . . . . . } . , + k . . @ k . & + - = 0 0 6 l 0 0 0 0 0 9 0 4 f m = > . + . + + . # k + , . } . . . . . . . . . . . ",
". . . . . . . . % . . . . . # . & , . . . , , = = l 0 0 n 0 f m 9 0 0 0 f 0 0 = = , # , # i . . . # . . . . . % . . . . . . . . ",
". . . . . . . . @ . # @ . @ . . . $ $ + . - = > ^ 0 : g m 9 6 0 h 0 0 n 9 / o > > . @ . k , $ . . . @ . @ . . @ . . . . . . . . ",
". . . . . . . . . . + . . . . . . p & ' * ; q r = 6 e s f 4 [ m 4 0 [ 9 t u v ~ = % * | } & , . % . . . . + . . . . . . . . . . ",
". . . . . . . . + . . . + @ . w x w w . % 7 = / b y 3 0 6 0 _ w z w A B C D B / c 7 = @ . A w w w . @ + . . . + . . . . . . . . ",
". . . . . . . . . . . . } . + w w w w . # - = / D E b f 0 4 4 w w w A b / / 3 / / = = . # w F A w + . } . . . . . . . . . . . . ",
". . . . . . . . . @ . + . . . = = G H - = w w I J 3 / = = w w 0 0 F w = = I I = - w w = = H H ~ = . . . + . @ . . . . . . . . . ",
". . . . . . . . . . . . . & . ; = K H = L w M I I b N = = w w 0 0 w w = = I O - = w F P = H H L ; . & . . . . . . . . . . . . . ",
". . . . . . . . . @ & @ , . # ~ > Q Q R S T H F w L = Q U / B 0 0 - ! V U = = w w T T S W X Q = ~ # . , @ & @ . . . . . . . . . ",
". . . . . . . . . , . . . . . - - Y X R Z H ` w  .^ ..+.@.B / 0 0 = ~ #.Q ! = w w G $.%.R V Q 8 - . . . . . , . . . . . . . . . ",
". . . . . . . . . . . @ . . . , , = L &.X T *.w F =.X L ~ 0 0 0 g f 9 -.r V Q A w T T =.Q ;.L % , . . . @ . . . . . . . . . . . ",
". . . . . . . . . . . . @ . . + * > = Q >.,.'.A ).U Q > = g !.< [ _ 0 = ; >.U ~.w H {.U ].^ = # + . . @ . . . . . . . . . . . . ",
". . . . . . . . & } & % . k . ' ' A w ^./.U (.$.H W W = _.4 0 0 0 4 0 [ 0 ~ = H H Q :./.<.M w ' ' . k . % & } & . . . . . . . . ",
". . . . . . . . . & . @ # . . * + w w ^.^.Q Q G H Z R ^ ;.0 4 g 0 0 n 4 5 [.= H H Q (.}.|.w w + * . . # @ . & . . . . . . . . . ",
". . . . . . . . . @ , 1.. . . + . w w ^.^.^.|.H H w w / / 0 0 0 [ 0 9 0 [ w w '.H ^.^.^.^.w M & + . . . 1., @ . . . . . . . . . ",
". . . . . . . . . . . . . . . . . ~.w ^.|.^.|.H H w w y / 4 0 0 0 0 9 g 4 w w $.H |.^.|.^.w ~.. . . . . . . . . . . . . . . . . ",
". . . . . . . . . . . . . . . . . % . w w 2./.Q @.w w B 3.4.0 0 6 4 4 b 2 w z Q Q /.2.w w . % . . . . . . . . . . . . . . . . . ",
". . . . . . . . . . . . . . . . % . . ).F 5.<.Q +.A A B C l 0 0 4 _ 6 B 6.M w Q Q <.5.F ).. . % . . . . . . . . . . . . . . . . ",
". . . . . . . . . . . . . . . . & . . d = A A 7.=.w w B b B 3 n 5 / 3 c 8.w w 9.7.A A = d . . & . . . . . . . . . . . . . . . . ",
". . . . . . . . . . . . . . . . . 0.% = L w w +.a.A b.B / ( B 0 f c y C o w F a.+.w w L = % 0.. . . . . . . . . . . . . . . . . ",
". . . . . . . . . . . . . . . . . ! P w w Q Q ) = > c.w w c b / 3 2 8.M w > ^ L ) Q Q w w P ! . . . . . . . . . . . . . . . . . ",
". . . . . . . . . . . . . . . . + > = w w Q Q 7 ! ; = w w B c / c / / A M L L = 7 Q Q w w = > + . . . . . . . . . . . . . . . . ",
". . . . . . . . . . . . . . . . . L ; I I Q Q w F d.e.%.S ~.w w w = ; R R d.d.w w Q Q I I ; L . . . . . . . . . . . . . . . . . ",
". . . . . . . . . . . . . . . . . = r I I Q U A A d.f.g.S w w w w = ; S h.d.d.w A U Q I I r = . . . . . . . . . . . . . . . . . ",
". . . . . . . . . . . . . . . . . ~ ; b / w A Q (.w w Q Q H H H *.G '.U Q w w X Q A w / b ; ~ . . . . . . . . . . . . . . . . . ",
". . . . . . . . . . . . . . . . . ! ! B / w w @.U w w &.9.H $.` H *.i.Q Y w w U @.w w / B ! ! . . . . . . . . . . . . . . . . . ",
". . . . . . . . . . . . . . . . . j.) / k.y l.M ~.Q Q >.m.Q +.H '.V &.+.U (.U M M l.y k./ ) j.. . . . . . . . . . . . . . . . . ",
". . . . . . . . . . . . . . . . , = 8 / c 3 n.w w Q Q Y Q Q 7.$.o.(.+.=.V V X w w n.3 c / 8 = , . . . . . . . . . . . . . . . . ",
". . . . . . . . . . . . . . . . . % i = d l m y / w w M M U U p.q.Q Q M w w w y y m l d = i % . . . . . . . . . . . . . . . . . ",
". . . . . . . . . . . . . . . . @ . . = = 0 0 3 r.w w s.w Q V p.q.Q Q A w w  ./ 3 0 0 = = . . @ . . . . . . . . . . . . . . . . ",
". . . . . . . . . . . . . . . . . # . = = / u 0 n 0 0 / / w w w w w w / / [ 0 t.0 u / = = . # . . . . . . . . . . . . . . . . . ",
". . . . . . . . . . . . . . . . . u.. = = u B 0 0 0 0 / / w M w w w A B B 0 f 0 [ / / ~ c.i . . . . . . . . . . . . . . . . . . ",
". . . . . . . . . . . . . . . . & . . . , - = I I n f 0 9 3 c / B l./ 4 _ 9 0 w w = = i . . & . . . . . . . . . . . . . . . . . ",
". . . . . . . . . . . . . . . . . , % . % = - O I 0 0 < 4 C / B 3.c / [ 4 0 0 w b.= 8 . # & + . . . . . . . . . . . . . . . . . ",
". . . . . . . . . . . . . . . . . . . . v.k & w w w.p.x.y.= = = = ~ = A z.w w ; 1 + . # , + . & . . . . . . . . . . . . . . . . ",
". . . . . . . . . . . . . . . . . . & + A.B.i w w C.D.E.p.8 > = - 8 = M w M ~.^ > , . % + . . . . . . . . . . . . . . . . . . . ",
". . . . . . . . . . . . . . . . . @ , , . % % . % w A ~.w & & . . . . ' . u., . . & . & u.. @ . . . . . . . . . . . . . . . . . ",
". . . . . . . . . . . . . . . . . . . + @ . . . . A w w A , . . . . & + . . . & @ # . . . . . . . . . . . . . . . . . . . . . . ",
". . . . . . . . . . . . . . . . & % . . . . . . . . . , @ . . . . . . F.& . . . . . . % . . . . . . . . . . . . . . . . . . . . ",
". . . . . . . . . . . . . . . . . . . . . . . . . . . . . . . . . . . . . . . . . . . . . . . . . . . . . . . . . . . . . . . . ",
". . . . . . . . . . . . . . . . . . . . . . . . . . . . . . . . . . . . . . . . . . . . . . . . . . . . . . . . . . . . . . . . ",
". . . . . . . . . . . . . . . . . . . . . . . . . . . . . . . . . . . . . . . . . . . . . . . . . . . . . . . . . . . . . . . . ",
". . . . . . . . . . . . . . . . . . . . . . . . . . . . . . . . . . . . . . . . . . . . . . . . . . . . . . . . . . . . . . . . ",
". . . . . . . . . . . . . . . . . . . . . . . . . . . . . . . . . . . . . . . . . . . . . . . . . . . . . . . . . . . . . . . . ",
". . . . . . . . . . . . . . . . . . . . . . . . . . . . . . . . . . . . . . . . . . . . . . . . . . . . . . . . . . . . . . . . ",
". . . . . . . . . . . . . . . . . . . . . . . . . . . . . . . . . . . . . . . . . . . . . . . . . . . . . . . . . . . . . . . . ",
". . . . . . . . . . . . . . . . . . . . . . . . . . . . . . . . . . . . . . . . . . . . . . . . . . . . . . . . . . . . . . . . "};
