/* XPM */
static char * flareon_sx_xpm[] = {
"64 64 163 2",
"  	c None",
". 	c #70C8A0",
"+ 	c #72C8A1",
"@ 	c #71C7A0",
"# 	c #70C8A2",
"$ 	c #6EC9A0",
"% 	c #6FC7A1",
"& 	c #71C9A1",
"* 	c #6FC79F",
"= 	c #70C89E",
"- 	c #463928",
"; 	c #483828",
"> 	c #453827",
", 	c #483926",
"' 	c #483829",
") 	c #6EC99E",
"! 	c #6FC79D",
"~ 	c #71C99F",
"{ 	c #473727",
"] 	c #493828",
"^ 	c #463929",
"/ 	c #6DC7A1",
"( 	c #71C7A2",
"_ 	c #49392A",
": 	c #D8A748",
"< 	c #E7D897",
"[ 	c #E9D797",
"} 	c #E8D89A",
"| 	c #493929",
"1 	c #6FCA9F",
"2 	c #D8A846",
"3 	c #D7A647",
"4 	c #E7D998",
"5 	c #E6D796",
"6 	c #483727",
"7 	c #453828",
"8 	c #6EC8A2",
"9 	c #E8D998",
"0 	c #E6D897",
"a 	c #E9D799",
"b 	c #E7D895",
"c 	c #6FCAA1",
"d 	c #E7D799",
"e 	c #70C69F",
"f 	c #71C9A3",
"g 	c #E6D899",
"h 	c #E6D698",
"i 	c #473728",
"j 	c #D8A647",
"k 	c #E5D796",
"l 	c #E8D996",
"m 	c #493826",
"n 	c #72C7A0",
"o 	c #D6A84A",
"p 	c #D6AA4B",
"q 	c #EBD798",
"r 	c #D8A74A",
"s 	c #71C89E",
"t 	c #6DC9A0",
"u 	c #000000",
"v 	c #010101",
"w 	c #000002",
"x 	c #D9A748",
"y 	c #D9A849",
"z 	c #D6A846",
"A 	c #D6A848",
"B 	c #D9A947",
"C 	c #000100",
"D 	c #FB8047",
"E 	c #F98049",
"F 	c #4A3929",
"G 	c #987730",
"H 	c #FB7F4B",
"I 	c #97762F",
"J 	c #483628",
"K 	c #D9581F",
"L 	c #984028",
"M 	c #994129",
"N 	c #F9804B",
"O 	c #010000",
"P 	c #D9581E",
"Q 	c #DA571F",
"R 	c #D8571E",
"S 	c #F87F48",
"T 	c #974128",
"U 	c #DA5920",
"V 	c #FB824B",
"W 	c #D6581D",
"X 	c #FB7F49",
"Y 	c #F98047",
"Z 	c #9A4028",
"` 	c #72C99F",
" .	c #DB5820",
"..	c #F67E49",
"+.	c #D85A20",
"@.	c #473A2A",
"#.	c #4A382A",
"$.	c #DA591F",
"%.	c #473A29",
"&.	c #D95821",
"*.	c #D6581E",
"=.	c #FA814A",
"-.	c #D85720",
";.	c #E8D696",
">.	c #010103",
",.	c #F9824A",
"'.	c #504040",
").	c #984229",
"!.	c #D9561E",
"~.	c #514141",
"{.	c #4F403D",
"].	c #6DC89F",
"^.	c #DB591F",
"/.	c #964027",
"(.	c #E6D794",
"_.	c #D7591F",
":.	c #504041",
"<.	c #4F4140",
"[.	c #72C8A3",
"}.	c #514142",
"|.	c #E9DA99",
"1.	c #020001",
"2.	c #50413E",
"3.	c #D9A64A",
"4.	c #D85A1F",
"5.	c #D9A746",
"6.	c #D7591E",
"7.	c #D95620",
"8.	c #010002",
"9.	c #D9A84B",
"0.	c #493A27",
"a.	c #493729",
"b.	c #D8C0C0",
"c.	c #D6C1C0",
"d.	c #D6C1BE",
"e.	c #98402A",
"f.	c #984126",
"g.	c #F88149",
"h.	c #DA581E",
"i.	c #F87F46",
"j.	c #F77F4A",
"k.	c #4A3927",
"l.	c #D7A947",
"m.	c #D7A94B",
"n.	c #D75821",
"o.	c #D9A744",
"p.	c #F88147",
"q.	c #C14020",
"r.	c #C1411E",
"s.	c #D7A745",
"t.	c #010100",
"u.	c #000201",
"v.	c #D7A649",
"w.	c #E7DA96",
"x.	c #463926",
"y.	c #020204",
"z.	c #C03F1F",
"A.	c #C0401D",
"B.	c #6EC69E",
"C.	c #C2401E",
"D.	c #C14021",
"E.	c #C04121",
"F.	c #70C79D",
". . . . . . . . . . . . . . . . . . . . . . . . . . . . . . . . . . . . . . . . . . . . . . . . . . . . . . . . . . . . . . . . ",
". . . . . . . . . . . . . . . . . . . . . . . . . . . . . . . . . . . . . . . . . . . . . . . . . . . . . . . . . . . . . . . . ",
". . . . . . . . . . . . . . . . . . . . . . . . . . . . . . . . . . . . . . . . . . . . . . . . . . . . . . . . . . . . . . . . ",
". . . . . . . . . . . . . . . . . . . . . . . . . . . . . . . . . . . . . . . . . . . . . . . . . . . . . . . . . . . . . . . . ",
". . . . . . . . . . . . . . . . . . . . . . . . . . . . . . . . . . . . . . . . . . . . . . . . . . . . . . . . . . . . . . . . ",
". . . . . . . . . . . . . . . . . . . . . . . . . . . . . . . . . . . . . . . . . . . . . . . . . . . . . . . . . . . . . . . . ",
". . . . . . . . . . . . . . . . . . . . . . . . . . . . . . . . . . . . . . . . . . . . . . . . . . . . . . . . . . . . . . . . ",
". . . . . . . . . . . . . . . . . . . . . . . . . . . . . . . . . . . . . . . . . . . . . . . . . . . . . . . . . . . . . . . . ",
". . . . . . . . . . . . . . . . . . . + @ . . . . . . # $ . . . . . . . % # $ . . . . . . . . . . . . . . . . . . . . . . . . . ",
". . . . . . . . . . . . . . . . . & $ . $ . . % . # * = . - ; > ; ; , ' ; $ . ) . . . . . . . . . . . . . . . . . . . . . . . . ",
". . . . . . . . . . . . . . . . . . . . . $ ! = ~ = ~ @ . , , - ; ; { ] ^ & & . . . . . . . . . . . . . . . . . . . . . . . . . ",
". . . . . . . . . . . . . . . . . & . & . # . # # / ( ' _ : : < [ < } - | . . @ . . . . . . . . . . . . . . . . . . . . . . . . ",
". . . . . . . . . . . . . . . . = @ & . . . = 1 = ~ ~ ; , 2 3 < 4 < 5 ] 6 @ = $ . . . . . . . . . . . . . . . . . . . . . . . . ",
". . . . . . . . . . . . . . . . . & . . . # @ ; { 7 { 5 < < < : : ^ , 8 ~ . . $ . . . . . . . . . . . . . . . . . . . . . . . . ",
". . . . . . . . . . . . . . . . . . = . @ . . ; ; ; ] 9 0 a b : : ; ; . . . ( . . . . . . . . . . . . . . . . . . . . . . . . . ",
". . . . . . . . . . . . . . . . . . . . = | - < < ; ] < < < < 5 a < < ; ; . . # . . . . . . . . . . . . . . . . . . . . . . . . ",
". . . . . . . . . . . c . . . # # . . . $ ; ; d 0 ; ; 9 5 < < < 9 < b ; ] @ . . @ . . = . . * . # . . . c . . . . . . . . . . . ",
". . . . . . . . . . . e . = # f & . # . $ ; , < < [ [ d 4 < < < < 5 d g < ; | # # . . # . . . c f # = . e . . . . . . . . . . . ",
". . . . . . . . & . . . . . * . * . = & ~ ' _ < < 0 b < < 9 h d d 9 < < < ; ; . & . . . . $ . @ . * . . . . . & . . . . . . . . ",
". . . . . . . . @ . * @ . @ . . = ( @ i ' j j 9 9 9 a < k [ b < l b < 2 2 { m # % . n # . . . . . . @ . @ . . @ . . . . . . . . ",
". . . . . . . . . . # . . . . . . $ ) ; , o p d 5 0 [ < q 0 d < d d < r 3 - ^ s & # . . . t = . & . . . . # . . . . . . . . . . ",
". . . . . . . . # . . . # @ . u v u w ' ' 2 x : y 9 < h < 2 : u u u u 2 y 3 x { i = . . # u v u u . @ # . . . # . . . . . . . . ",
". . . . . . . . . . . . e . # u u u u ; , 3 : : : 5 < < < z : u v u u A r y B ; ; & # $ = C u u u # . e . . . . . . . . . . . . ",
". . . . . . . . . @ . # . . . ; { D E F ; u u 3 : : : ; { u u < < u u ; , G G ; ; v u 6 ; H E { ; . . . # . @ . . . . . . . . . ",
". . . . . . . . . . . . . $ . , , E E ; ] u u : : y x ; ; u w < < u u ; ; G I ' ; u C J ; E E - , . $ . . . . . . . . . . . . . ",
". . . . . . . . . @ $ @ = . * | ; K K L M E N O u - , P K : x < < ' { Q R ; ; u u S S T M U K ; | * . = @ $ @ . . . . . . . . . ",
". . . . . . . . . = . . . . . ' > P Q L L V E u w ; { K K y : 9 < ; | W K { ; u u X Y Z L Q K i ' . . . . . = . . . . . . . . . ",
". . . . . . . . . . . @ . . . = ` - ; K  .S ..O u U +.; @.< 5 < b [ d #._ Q K v u S S $.K %.- & = . . . @ . . . . . . . . . . . ",
". . . . . . . . . . . . @ . . # % ] ; &.*.=.Y u u R -.; ; < [ g 9 ;.< ; , *.R >.u E ,.R +.6 ; * # . . @ . . . . . . . . . . . . ",
". . . . . . . . $ e $ & . f . ~ . v u '.'.Q R E N ).M - { < 9 b < 0 < 9 < | ; E E K !.~.{.w u ~ ~ . f . & $ e $ . . . . . . . . ",
". . . . . . . . . $ . @ * . . ].# u u '.{.^.K E S L /., ^ < 5 < < < l 0 (.7 ; E E K _.:.<.u u # ].. . * @ . $ . . . . . . . . . ",
". . . . . . . . . @ = [.. . . # . u u '.'.'.'.E E u u : x < < 5 9 < d < 9 u u =.E '.'.'.'.u w $ # . . . [.= @ . . . . . . . . . ",
". . . . . . . . . . . . . . . . . >.u '.<.'.<.E E u u r : 0 < < < < d b 0 u u Y E <.'.<.'.u >.. . . . . . . . . . . . . . . . . ",
". . . . . . . . . . . . . . . . . & . u u }.~.K P u u y j |.< < 5 0 0 3 z u O K K ~.}.u u . & . . . . . . . . . . . . . . . . . ",
". . . . . . . . . . . . . . . . & . . 1.C 2.{.K &.v v y A h < < 0 ;.5 y 3.w u K K {.2.C 1.. . & . . . . . . . . . . . . . . . . ",
". . . . . . . . . . . . . . . . $ . . ^ ; v v 4.$.u u y 3 y 2 l (.: 2 x 5.u u 6.4.v v ; ^ . . $ . . . . . . . . . . . . . . . . ",
". . . . . . . . . . . . . . . . . ! & ; - u u &.7.v 8.y : 9.y < [ x r A o u C 7.&.u u - ; & ! . . . . . . . . . . . . . . . . . ",
". . . . . . . . . . . . . . . . . { J u u K K 0.; ] m u u x 3 : 2 z 5.w u ] 6 - 0.K K u u J { . . . . . . . . . . . . . . . . . ",
". . . . . . . . . . . . . . . . # ] ; u u K K a.{ , ; u u y x : x : : v w - - ; a.K K u u ; ] # . . . . . . . . . . . . . . . . ",
". . . . . . . . . . . . . . . . . - , G G K K u C b.c.Z T >.u u u ; , L L b.b.u u K K G G , - . . . . . . . . . . . . . . . . . ",
". . . . . . . . . . . . . . . . . ; _ G G K R v v b.d.e.T u u u u ; , T f.b.b.u v R K G G _ ; . . . . . . . . . . . . . . . . . ",
". . . . . . . . . . . . . . . . . | , 3 : u v K _.u u K K E E E g.X =.R K u u U K v u : 3 , | . . . . . . . . . . . . . . . . . ",
". . . . . . . . . . . . . . . . . { { y : u u P R u u h.6.E Y i.E g.j.K  .u u R P u u : y { { . . . . . . . . . . . . . . . . . ",
". . . . . . . . . . . . . . . . . k.0.: l.r m.w >.K K *.n.K &.E =.Q h.&.R _.R w w m.r l.: 0.k.. . . . . . . . . . . . . . . . . ",
". . . . . . . . . . . . . . . . = ; i : x 2 o.u u K K  .K K 4.Y p._.&.$.Q Q U u u o.2 x : i ; = . . . . . . . . . . . . . . . . ",
". . . . . . . . . . . . . . . . . & ) ; ^ h g r : u u w w R R q.r.K K w u u u r r g h ^ ; ) & . . . . . . . . . . . . . . . . . ",
". . . . . . . . . . . . . . . . @ . . ; ; < < 2 s.u u t.u K Q q.r.K K v u u u.: 2 < < ; ; . . @ . . . . . . . . . . . . . . . . ",
". . . . . . . . . . . . . . . . . * . ; ; : v.< l < < : : u u u u u u : : 9 < w.< v.: ; ; . * . . . . . . . . . . . . . . . . . ",
". . . . . . . . . . . . . . . . . . ) m | : : 9 < [ < y y v u u u w u : : < < < < y v.; ; . s . . . . . . . . . . . . . . . . . ",
". . . . . . . . . . . . . . . . . $ . . ) ; ; u u < d ;.0 : m.y : x 2 d < [ l G G ; ' = . . . $ . . . . . . . . . . . . . . . . ",
". . . . . . . . . . . . . . . . . # $ * . i ; w u < < 0 9 : x j y : A 0 } < < G I ' ; & . & = . . . . . . . . . . . . . . . . . ",
". . . . . . . . . . . . . . . . $ . # = * . # x., u u y.v ; | ; ; ; ; q.z.q.A.u u $ f B.. . . . . . . . . . . . . . . . . . . . ",
". . . . . . . . . . . . . . . . . . . # & . = ] 6 >.w u w ; i ' ; ] i q.C.D.E.u u ) F.+ # $ . . . . . . . . . . . . . . . . . . ",
". . . . . . . . . . . . . . . . . @ . s $ . $ . . = s . ~ . . . . $ $ u >.v u & . & & . = = @ . . . . . . . . . . . . . . . . . ",
". . . . . . . . . . . . . . . . . . . . . . * . $ . . . # $ . . . . = v u u v . . . . @ # . . . . . . . . . . . . . . . . . . . ",
". . . . . . . . . . . . . . . . . . . . & . . . . . . $ 1 . . . . . . @ = . . . . . . . . . & $ . . . . . . . . . . . . . . . . ",
". . . . . . . . . . . . . . . . . . . . . . . . . . . . . . . . . . . . . . . . . . . . . . . . . . . . . . . . . . . . . . . . ",
". . . . . . . . . . . . . . . . . . . . . . . . . . . . . . . . . . . . . . . . . . . . . . . . . . . . . . . . . . . . . . . . ",
". . . . . . . . . . . . . . . . . . . . . . . . . . . . . . . . . . . . . . . . . . . . . . . . . . . . . . . . . . . . . . . . ",
". . . . . . . . . . . . . . . . . . . . . . . . . . . . . . . . . . . . . . . . . . . . . . . . . . . . . . . . . . . . . . . . ",
". . . . . . . . . . . . . . . . . . . . . . . . . . . . . . . . . . . . . . . . . . . . . . . . . . . . . . . . . . . . . . . . ",
". . . . . . . . . . . . . . . . . . . . . . . . . . . . . . . . . . . . . . . . . . . . . . . . . . . . . . . . . . . . . . . . ",
". . . . . . . . . . . . . . . . . . . . . . . . . . . . . . . . . . . . . . . . . . . . . . . . . . . . . . . . . . . . . . . . ",
". . . . . . . . . . . . . . . . . . . . . . . . . . . . . . . . . . . . . . . . . . . . . . . . . . . . . . . . . . . . . . . . "};
