/* XPM */
static char * glaceon_rx_xpm[] = {
"64 64 169 2",
"  	c None",
". 	c #70C8A0",
"+ 	c #6EC9A0",
"@ 	c #70C89E",
"# 	c #71C9A1",
"$ 	c #6FC79F",
"% 	c #71C9A3",
"& 	c #70C8A2",
"* 	c #71C7A0",
"= 	c #30404F",
"- 	c #304050",
"; 	c #6EC8A2",
"> 	c #6DC89F",
", 	c #2F4050",
"' 	c #2D404F",
") 	c #2F4052",
"! 	c #2E3F4F",
"~ 	c #2E3F51",
"{ 	c #000000",
"] 	c #226868",
"^ 	c #226866",
"/ 	c #000002",
"( 	c #6FC79D",
"_ 	c #6EC69E",
": 	c #206867",
"< 	c #1E6869",
"[ 	c #1E686B",
"} 	c #216968",
"| 	c #216966",
"1 	c #50B9D9",
"2 	c #010101",
"3 	c #206769",
"4 	c #4EB9D9",
"5 	c #4EB9DB",
"6 	c #4FB8D8",
"7 	c #51B8D9",
"8 	c #72C8A1",
"9 	c #71C7A2",
"0 	c #010000",
"a 	c #50B9D7",
"b 	c #50B7D8",
"c 	c #6EC99E",
"d 	c #303F52",
"e 	c #2897A8",
"f 	c #2899A9",
"g 	c #2897AA",
"h 	c #2798AA",
"i 	c #2798A8",
"j 	c #2F3F4E",
"k 	c #2998A9",
"l 	c #2898A6",
"m 	c #2997A8",
"n 	c #2A98A9",
"o 	c #51BADA",
"p 	c #71C99F",
"q 	c #323F50",
"r 	c #2F3F4F",
"s 	c #000201",
"t 	c #010100",
"u 	c #010002",
"v 	c #71C89E",
"w 	c #88E1E9",
"x 	c #89E0E9",
"y 	c #B0E8F7",
"z 	c #B0E8F5",
"A 	c #AEE8F6",
"B 	c #B1E9F6",
"C 	c #89E2EA",
"D 	c #87E2E7",
"E 	c #88E0EA",
"F 	c #AFE9F7",
"G 	c #020003",
"H 	c #88E2EA",
"I 	c #B2E7F5",
"J 	c #AFE7F6",
"K 	c #2F414F",
"L 	c #87DFE9",
"M 	c #87E0E8",
"N 	c #8AE1EB",
"O 	c #87E1EA",
"P 	c #70C99D",
"Q 	c #2F9087",
"R 	c #31908A",
"S 	c #2E8F86",
"T 	c #328F87",
"U 	c #010103",
"V 	c #175F6D",
"W 	c #87E1E9",
"X 	c #308F87",
"Y 	c #308F89",
"Z 	c #B1E9FA",
"` 	c #AFE9F4",
" .	c #18606F",
"..	c #72C99F",
"+.	c #020001",
"@.	c #165F6E",
"#.	c #185F71",
"$.	c #3099AF",
"%.	c #3098B1",
"&.	c #319088",
"*.	c #309085",
"=.	c #1A5E71",
"-.	c #18606E",
";.	c #3098B3",
">.	c #70C8E0",
",.	c #70C7E2",
"'.	c #3199B2",
").	c #3199B4",
"!.	c #6FC6E1",
"~.	c #323F52",
"{.	c #71C9E1",
"].	c #196170",
"^.	c #2F99B1",
"/.	c #2F98AE",
"(.	c #6EC8E0",
"_.	c #70C8DE",
":.	c #6FC7DF",
"<.	c #1A6271",
"[.	c #72C7A0",
"}.	c #1A5F6F",
"|.	c #166270",
"1.	c #6FCADF",
"2.	c #71C7DE",
"3.	c #1A5F6E",
"4.	c #175F6E",
"5.	c #020100",
"6.	c #3298AF",
"7.	c #3398B4",
"8.	c #195D70",
"9.	c #3499B5",
"0.	c #3298B1",
"a.	c #2F97B0",
"b.	c #1B6070",
"c.	c #2E96AF",
"d.	c #1E6867",
"e.	c #CFE0E8",
"f.	c #CFE0EA",
"g.	c #314151",
"h.	c #CEDFE7",
"i.	c #2F8E86",
"j.	c #B1E9F8",
"k.	c #89E1EB",
"l.	c #88E1E7",
"m.	c #B0E7FB",
"n.	c #AFE7F8",
"o.	c #313E4F",
"p.	c #86E0E8",
"q.	c #B1EBF7",
"r.	c #87E0E6",
"s.	c #2796A7",
"t.	c #2998AB",
"u.	c #88DFE9",
"v.	c #020202",
"w.	c #2796A9",
"x.	c #6DC89D",
"y.	c #303F54",
"z.	c #2999A7",
"A.	c #50B8DB",
"B.	c #2897AB",
"C.	c #216769",
"D.	c #6FCAA1",
"E.	c #2F3E51",
"F.	c #216767",
"G.	c #304151",
"H.	c #1F6968",
"I.	c #1F6A66",
"J.	c #314053",
"K.	c #6FC6A3",
"L.	c #010302",
". . . . . . . . . . . . . . . . . . . . . . . . . . . . . . . . . . . . . . . . . . . . . . . . . . . . . . . . . . . . . . . . ",
". . . . . . . . . . . . . . . . . . . . . . . . . . . . . . . . . . . . . . . . . . . . . . . . . . . . . . . . . . . . . . . . ",
". . . . . . . . . . . . . . . . . . . . . . . . . . . . . . . . . . . . . . . . . . . . . . . . . . . . . . . . . . . . . . . . ",
". . . . . . . . . . . . . . . . . . . . . . . . . . . . . . . . . . . . . . . . . . . . . . . . . . . . . . . . . . . . . . . . ",
". . . . . . . . . . . . . . . . . . . . . . . . . . . . . . . . . . . . . . . . . . . . . . . . . . . . . . . . . . . . . . . . ",
". . . . . . . . . . . . . . . . . . . . . . . . . . . . . . . . . . . . . . . . . . . . . . . . . . . . . . . . . . . . . . . . ",
". . . . . . . . . . . . . . . . . . . . . . . . . . . . . . . . . . . . . . . . . . . . . . . . . . . . . . . . . . . . . . . . ",
". . . . . . . . . . . . . . . . . . . . . . . . . . . . . . . . . . . . . . . . . . . . . . . . . . . . . . . . . . . . . . . . ",
". . . . . . . . . . . . . . . . . . . . . . . . . . + @ + . . # . . . + . # . . . . . . . . . . . . . . . . . . . . . . . . . . ",
". . . . . . . . . . . . . . . . . . . . . . . . . . . $ % . . . . & * . . # . . . . . . . . . . . . . . . . . . . . . . . . . . ",
". . . . . . . . . . . . . . . . . . . . . . . . . = - - = - - . ; > $ . . . $ . . . . . . . . . . . . . . . . . . . . . . . . . ",
". . . . . . . . . . . . . . . . . . . . . . . . . , - ' ) ! ~ * * % % @ . . . . . . . . . . . . . . . . . . . . . . . . . . . . ",
". . . . . . . . . . . . . . . . . . . . . . . . . { { ] ] ] ^ / { ( _ . . . . . . . . . . . . . . . . . . . . . . . . . . . . . ",
". . . . . . . . . . . . . . . . . . . . . . . . # / { : < : [ { { & # @ $ . . # . . . . . . . . . . . . . . . . . . . . . . . . ",
". . . . . . . . . . . . . . . . . . . . . . . . $ { { } : : | 1 1 { 2 $ . . . . . . . . . . . . . . . . . . . . . . . . . . . . ",
". . . . . . . . . . . . . . . . . . . . . . . . . { { : : } 3 1 4 { { . . $ . . . . . . . . . . . . . . . . . . . . . . . . . . ",
". . . . . . . . . . . . . . . . . . . . . . . . . . . { { 5 6 1 1 { / . . . . @ . . . . . . . . . . . . . . . . . . . . . . . . ",
". . . . . . . . . . . . . . . . . . . . . . . . . . + { { 1 1 1 7 { { $ . + . . . . . . . . . . . . . . . . . . . . . . . . . . ",
". . . . . . . . . . . . . . . . . . . . . . . . . . @ . % 2 { 1 4 { { 8 9 . . @ . . . . . . . . . . . . . . . . . . . . . . . . ",
". . . . . . . . . . . . . . . . . . . . . . . . . % % @ @ 0 { a b { 0 $ + . c . . . . . . . . . . . . . . . . . . . . . . . . . ",
". . . . . . . . . . . . . . . . . . . . . . . . & ( ( ) d e f g h h i - - # % . . . . . . . . . . . . . . . . . . . . . . . . . ",
". . . . . . . . . . . . . . . . . . . . . . . . . & & = j k l e m n l - - @ @ . . . . . . . . . . . . . . . . . . . . . . . . . ",
". . . . . . . . . . . . . . . . . . . . . . . . . { { e g 6 1 1 1 1 5 g e - - . . . . . . . . . . . . . . . . . . . . . . . . . ",
". . . . . . . . . . . . . . . . . . . . . . . . . { { e e 7 1 1 1 1 o i e - - # . . . . . . . . . . . . . . . . . . . . . . . . ",
". . . . . . . . . . . . . - - - - - - { 2 . . - d m g { { { { { { { { { { g m d - . . 2 { - - - - - - . . . . . . . . . . . . . ",
". . . . . . . . . . . . p - - - - - q 2 / 8 * r - i k s { / t { { t / { s k i - r * 8 u 2 - - - - - - p . . . . . . . . . . . . ",
". . . . . . . . @ . v # + { { w x y z A B { 2 - r { { w C D E w w E D C w { { r - 2 { B A z F x w { { + # v . @ . . . . . . . . ",
". . . . . . . . $ . # . . u G H w I J y J 2 2 K K { s L M N O w w O N M L s { K = 2 2 J y J I w H G u . . # . $ . . . . . . . . ",
". . . . . . . . . + P & . 2 2 C C Q R S T J y U { x M t 2 = q V V q = 2 t M x { U y J T S R Q C C 2 2 . & P + . . . . . . . . . ",
". . . . . . . . . . . * . U U W D X Y X X Z ` { / O W / { d ,  . ., d { / W O / { ` Z T X Y X D W U U . * . . . . . . . . . . . ",
". . . . . . . . . . ... . + @ 2 { 1 1 X X X X { +.{ { @.#.$.%.%.%.%.$.#.@.{ { +.{ X X X X 1 1 { 2 @ + . . ... . . . . . . . . . ",
". . . . . . . . . . . . . . . { { 1 7 &.Y *.X { { { { =.-.%.;.%.%.;.%.-.=.{ { { { X *.Y &.1 1 { { . . . . . . . . . . . . . . . ",
". . . . . . . . . . . . . . . . & U / - - 1 1 - - >.,.#. .%.%.'.).'.%. .#.!.>.- - 1 1 - - / U & . . . . . . . . . . . . . . . . ",
". . . . . . . . . . . . . . . . . { 2 - ~.a 1 q - {.,.].#.'.%.%.%.^.'.#.].,.>.- q 1 a ~.- 2 { . . . . . . . . . . . . . . . . . ",
". . . . . . . . . . . . . . . . . . . ; + / U  . .%./.#. .(._.,.,._.:. .#.$.%.<. .U / + ; . . . . . . . . . . . . . . . . . . . ",
". . . . . . . . . . . . . . . . . p v . [.{ { }. .^.%.|.-.1.2.>.>.2.1.3.|.%.^.4.}.{ { [.. v p . . . . . . . . . . . . . . . . . ",
". . . . . . . . . . . . . . . . . $ + - , %.;.{ { 5.{ 6.7.8. .^.^. .8.9.0.{ 0 { { ;.%., - + $ . . . . . . . . . . . . . . . . . ",
". . . . . . . . . . . . . . . . & # * r q a.%.{ { 2 { %.a. .}.'.'.b.].c.%.{ 2 { { %.a.q r * # & . . . . . . . . . . . . . . . . ",
". . . . . . . . . . . . . . . . . r , : d.%.%.- - e.f.{ { { / { { / 0 { 0 f.e.= - %.%.d.: , r . . . . . . . . . . . . . . . . . ",
". . . . . . . . . . . . . . . . . - g.: 3 a.%.- - e.h.{ { +.{ { { { { { { e.h.- - %.a.3 : g.- . . . . . . . . . . . . . . . . . ",
". . . . . . . . . . . . . . . . * { { X X - - C w { { 3 : y y y y y y d.: { 2 w C - - X X { { * . . . . . . . . . . . . . . . . ",
". . . . . . . . . . . . . . . . # { { i.X - - w w { 2 : : y y I y z j.< 3 { { w w - - Q i.{ { # . . . . . . . . . . . . . . . . ",
". . . . . . . . . . . . . . . . . { { { { , r / / k.l.z B m.y y y y n.z y W w { / r - { { { { . . . . . . . . . . . . . . . . . ",
". . . . . . . . . . . . . . . . . { { 2 2 ~.o.{ t E p.m.y z z z z z q.y n.r.l.2 { r ~.2 2 { { . . . . . . . . . . . . . . . . . ",
". . . . . . . . . . . . . . . . % . & * & = - s.s.{ 2 { { x L g t.E u.{ t v.{ w.s.- = & * & @ % . . . . . . . . . . . . . . . . ",
". . . . . . . . . . . . . . . . . . . * x.y.- e l { / U { W D e e l.C / / { { z.e - y.x.* . . . . . . . . . . . . . . . . . . . ",
". . . . . . . . . . . . . . . . . . . . & ( + r - 1 1 a 4 { / { / / 0 A.a B.t.- r + ( & . . . . . . . . . . . . . . . . . . . . ",
". . . . . . . . . . . . . . . . . . # . . . . d - 1 a 6 1 { { { { { { 1 1 s.e g.d . . . . # . . . . . . . . . . . . . . . . . . ",
". . . . . . . . . . . . . . . . . . . . . $ . - - s.e 1 1 e e - - - - C.: - - - - . $ . . . . . . . . . . . . . . . . . . . . . ",
". . . . . . . . . . . . . . . . . . . + D.. . - d g g A.o g g q - d E.: F.- q - - . . D.+ . . . . . . . . . . . . . . . . . . . ",
". . . . . . . . . . . . . . . . . . . ( . . . + v = = F.: = = . + @ . { / { { * + . . . ( . . . . . . . . . . . . . . . . . . . ",
". . . . . . . . . . . . . . . . @ . . $ . . . & # ! G.H.I.- J.& % & & 2 { { { & & . . . $ . . @ . . . . . . . . . . . . . . . . ",
". . . . . . . . . . . . . . . . . . $ 9 . . # c . { { 2 { > . @ . . c . K.@ & @ c # . . 9 $ . . . . . . . . . . . . . . . . . . ",
". . . . . . . . . . . . . . . . . . . . * . . . # / { L.t & . # % * . . @ . . . . . . * . . . . . . . . . . . . . . . . . . . . ",
". . . . . . . . . . . . . . . . . . . & . . . . $ @ . $ . $ . . @ . . # . + + + . . . . & . . . . . . . . . . . . . . . . . . . ",
". . . . . . . . . . . . . . . . + . . . . . . + . . . . . . @ . . . . . . . . . + . . . . . . + . . . . . . . . . . . . . . . . ",
". . . . . . . . . . . . . . . . . . . . . . . . . . . . . . . . . . . . . . . . . . . . . . . . . . . . . . . . . . . . . . . . ",
". . . . . . . . . . . . . . . . . . . . . . . . . . . . . . . . . . . . . . . . . . . . . . . . . . . . . . . . . . . . . . . . ",
". . . . . . . . . . . . . . . . . . . . . . . . . . . . . . . . . . . . . . . . . . . . . . . . . . . . . . . . . . . . . . . . ",
". . . . . . . . . . . . . . . . . . . . . . . . . . . . . . . . . . . . . . . . . . . . . . . . . . . . . . . . . . . . . . . . ",
". . . . . . . . . . . . . . . . . . . . . . . . . . . . . . . . . . . . . . . . . . . . . . . . . . . . . . . . . . . . . . . . ",
". . . . . . . . . . . . . . . . . . . . . . . . . . . . . . . . . . . . . . . . . . . . . . . . . . . . . . . . . . . . . . . . ",
". . . . . . . . . . . . . . . . . . . . . . . . . . . . . . . . . . . . . . . . . . . . . . . . . . . . . . . . . . . . . . . . ",
". . . . . . . . . . . . . . . . . . . . . . . . . . . . . . . . . . . . . . . . . . . . . . . . . . . . . . . . . . . . . . . . "};
