/* XPM */
static char * glaceon_sx_xpm[] = {
"64 64 168 2",
"  	c None",
". 	c #70C8A0",
"+ 	c #71C9A1",
"@ 	c #6EC9A0",
"# 	c #70C89E",
"$ 	c #71C7A0",
"% 	c #70C8A2",
"& 	c #71C9A3",
"* 	c #6FC79F",
"= 	c #6DC89F",
"- 	c #6EC8A2",
"; 	c #304050",
"> 	c #30404F",
", 	c #2E3F51",
"' 	c #2E3F4F",
") 	c #2F4052",
"! 	c #2D404F",
"~ 	c #2F4050",
"{ 	c #6EC69E",
"] 	c #6FC79D",
"^ 	c #000000",
"/ 	c #000002",
"( 	c #226866",
"_ 	c #226868",
": 	c #1E686B",
"< 	c #206867",
"[ 	c #1E6869",
"} 	c #70C69F",
"| 	c #010101",
"1 	c #50B9D9",
"2 	c #206865",
"3 	c #216968",
"4 	c #4DB8D8",
"5 	c #206769",
"6 	c #51B8D9",
"7 	c #000100",
"8 	c #72C7A0",
"9 	c #4FB8D8",
"0 	c #51BADA",
"a 	c #6EC99E",
"b 	c #51B8D7",
"c 	c #010000",
"d 	c #70C99D",
"e 	c #71C89E",
"f 	c #313E4F",
"g 	c #314151",
"h 	c #2798AA",
"i 	c #2798A8",
"j 	c #2897A8",
"k 	c #303F52",
"l 	c #71C7A2",
"m 	c #2898A6",
"n 	c #2997A8",
"o 	c #2896A7",
"p 	c #2F3F4E",
"q 	c #4EB9D9",
"r 	c #2897AA",
"s 	c #323F52",
"t 	c #71C99F",
"u 	c #323F50",
"v 	c #72C8A1",
"w 	c #2F3F4F",
"x 	c #2998A9",
"y 	c #000201",
"z 	c #010100",
"A 	c #010002",
"B 	c #88E1E9",
"C 	c #89E0E9",
"D 	c #B0E8F7",
"E 	c #B0E8F5",
"F 	c #AEE8F6",
"G 	c #B1E9F6",
"H 	c #89E2EA",
"I 	c #87E2E7",
"J 	c #88E0EA",
"K 	c #AFE9F7",
"L 	c #020003",
"M 	c #88E2EA",
"N 	c #B2E7F5",
"O 	c #AFE7F6",
"P 	c #2F414F",
"Q 	c #87DFE9",
"R 	c #87E0E8",
"S 	c #8AE1EB",
"T 	c #87E1EA",
"U 	c #2F9087",
"V 	c #31908A",
"W 	c #2E8F86",
"X 	c #328F87",
"Y 	c #010103",
"Z 	c #175F6D",
"` 	c #87E1E9",
" .	c #308F87",
"..	c #308F89",
"+.	c #B1E9FA",
"@.	c #AFE9F4",
"#.	c #18606F",
"$.	c #72C99F",
"%.	c #020001",
"&.	c #165F6E",
"*.	c #185F71",
"=.	c #3099AF",
"-.	c #3098B1",
";.	c #319088",
">.	c #309085",
",.	c #1A5E71",
"'.	c #18606E",
").	c #3098B3",
"!.	c #70C8E0",
"~.	c #70C7E2",
"{.	c #3199B2",
"].	c #3199B4",
"^.	c #6FC6E1",
"/.	c #50B9D7",
"(.	c #71C9E1",
"_.	c #196170",
":.	c #2F99B1",
"<.	c #2F98AE",
"[.	c #6EC8E0",
"}.	c #70C8DE",
"|.	c #6FC7DF",
"1.	c #1A6271",
"2.	c #1A5F6F",
"3.	c #166270",
"4.	c #6FCADF",
"5.	c #71C7DE",
"6.	c #1A5F6E",
"7.	c #175F6E",
"8.	c #020100",
"9.	c #3298AF",
"0.	c #3398B4",
"a.	c #195D70",
"b.	c #3499B5",
"c.	c #3298B1",
"d.	c #2F97B0",
"e.	c #1B6070",
"f.	c #2E96AF",
"g.	c #1E6867",
"h.	c #CFE0E8",
"i.	c #CFE0EA",
"j.	c #CEDFE7",
"k.	c #2F8E86",
"l.	c #B1E9F8",
"m.	c #AFE7F8",
"n.	c #B0E7FB",
"o.	c #88E1E7",
"p.	c #89E1EB",
"q.	c #87E0E6",
"r.	c #B1EBF7",
"s.	c #86E0E8",
"t.	c #2796A7",
"u.	c #2796A9",
"v.	c #020202",
"w.	c #88DFE9",
"x.	c #2998AB",
"y.	c #6DC89D",
"z.	c #303F54",
"A.	c #2999A7",
"B.	c #2897AB",
"C.	c #50B8DB",
"D.	c #216769",
"E.	c #6FCAA1",
"F.	c #216767",
"G.	c #2F3E51",
"H.	c #1F6A66",
"I.	c #1F6968",
"J.	c #6FC6A3",
"K.	c #010302",
". . . . . . . . . . . . . . . . . . . . . . . . . . . . . . . . . . . . . . . . . . . . . . . . . . . . . . . . . . . . . . . . ",
". . . . . . . . . . . . . . . . . . . . . . . . . . . . . . . . . . . . . . . . . . . . . . . . . . . . . . . . . . . . . . . . ",
". . . . . . . . . . . . . . . . . . . . . . . . . . . . . . . . . . . . . . . . . . . . . . . . . . . . . . . . . . . . . . . . ",
". . . . . . . . . . . . . . . . . . . . . . . . . . . . . . . . . . . . . . . . . . . . . . . . . . . . . . . . . . . . . . . . ",
". . . . . . . . . . . . . . . . . . . . . . . . . . . . . . . . . . . . . . . . . . . . . . . . . . . . . . . . . . . . . . . . ",
". . . . . . . . . . . . . . . . . . . . . . . . . . . . . . . . . . . . . . . . . . . . . . . . . . . . . . . . . . . . . . . . ",
". . . . . . . . . . . . . . . . . . . . . . . . . . . . . . . . . . . . . . . . . . . . . . . . . . . . . . . . . . . . . . . . ",
". . . . . . . . . . . . . . . . . . . . . . . . . . . . . . . . . . . . . . . . . . . . . . . . . . . . . . . . . . . . . . . . ",
". . . . . . . . . . . . . . . . . . . . . . . . . . + . . . . . + . . @ # @ . . . . . . . . . . . . . . . . . . . . . . . . . . ",
". . . . . . . . . . . . . . . . . . . . . . . . . . . @ . $ % . . . . & * . . . . . . . . . . . . . . . . . . . . . . . . . . . ",
". . . . . . . . . . . . . . . . . . . . . . . . . * . + . * = - . ; ; > ; ; > . . . . . . . . . . . . . . . . . . . . . . . . . ",
". . . . . . . . . . . . . . . . . . . . . . . . . . . . # & & . $ , ' ) ! ; ~ . . . . . . . . . . . . . . . . . . . . . . . . . ",
". . . . . . . . . . . . . . . . . . . . . . . . + . . . + { ] ^ / ( _ _ _ ^ ^ . . . . . . . . . . . . . . . . . . . . . . . . . ",
". . . . . . . . . . . . . . . . . . . . . . . . + . . . # + % ^ ^ : < [ < ^ / + . . . . . . . . . . . . . . . . . . . . . . . . ",
". . . . . . . . . . . . . . . . . . . . . . . . . . . . } | ^ 1 1 2 < < 3 ^ ^ * . . . . . . . . . . . . . . . . . . . . . . . . ",
". . . . . . . . . . . . . . . . . . . . . . . . . . * . . ^ ^ 4 1 5 3 < < ^ ^ . . . . . . . . . . . . . . . . . . . . . . . . . ",
". . . . . . . . . . . . . . . . . . . . . . . . . $ . . . ^ ^ 1 1 6 1 ^ 7 . * . . . . . . . . . . . . . . . . . . . . . . . . . ",
". . . . . . . . . . . . . . . . . . . . . . . . . + + @ 8 ^ ^ 1 6 9 1 ^ ^ = @ * . . . . . . . . . . . . . . . . . . . . . . . . ",
". . . . . . . . . . . . . . . . . . . . . . . . # * * . . / / 1 0 ^ ^ + % $ % # . . . . . . . . . . . . . . . . . . . . . . . . ",
". . . . . . . . . . . . . . . . . . . . . . . . % + + a { ^ ^ b 6 c c d # a @ . . . . . . . . . . . . . . . . . . . . . . . . . ",
". . . . . . . . . . . . . . . . . . . . . . . . . { e f g h i i j i i k k l l . . . . . . . . . . . . . . . . . . . . . . . . . ",
". . . . . . . . . . . . . . . . . . . . . . . . . + . ~ > m n o j j j > p # # . . . . . . . . . . . . . . . . . . . . . . . . . ",
". . . . . . . . . . . . . . . . . . . . . . . . . ^ ^ j j 9 q q 1 9 9 r r s ; . . . . . . . . . . . . . . . . . . . . . . . . . ",
". . . . . . . . . . . . . . . . . . . . . . . . . ^ ^ r i q 1 1 1 q q j m ; ; . . . . . . . . . . . . . . . . . . . . . . . . . ",
". . . . . . . . . . . . . ; ; ; ; ; ; ^ | . . ; k n r ^ ^ ^ ^ ^ ^ ^ ^ ^ ^ r n k ; . . | ^ ; ; ; ; ; ; . . . . . . . . . . . . . ",
". . . . . . . . . . . . t ; ; ; ; ; u | / v $ w ; i x y ^ / z ^ ^ z / ^ y x i ; w $ v A | ; ; ; ; ; ; t . . . . . . . . . . . . ",
". . . . . . . . # . e + @ ^ ^ B C D E F G ^ | ; w ^ ^ B H I J B B J I H B ^ ^ w ; | ^ G F E K C B ^ ^ @ + e . # . . . . . . . . ",
". . . . . . . . * . + . . A L M B N O D O | | P P ^ y Q R S T B B T S R Q y ^ P > | | O D O N B M L A . . + . * . . . . . . . . ",
". . . . . . . . . @ d % . | | H H U V W X O D Y ^ C R z | > u Z Z u > | z R C ^ Y D O X W V U H H | | . % d @ . . . . . . . . . ",
". . . . . . . . . . . $ . Y Y ` I  ... . .+.@.^ / T ` / ^ k ~ #.#.~ k ^ / ` T / ^ @.+.X  ... .I ` Y Y . $ . . . . . . . . . . . ",
". . . . . . . . . . $.. . @ # | ^ 1 1  . . . .^ %.^ ^ &.*.=.-.-.-.-.=.*.&.^ ^ %.^  . . . .1 1 ^ | # @ . . $.. . . . . . . . . . ",
". . . . . . . . . . . . . . . ^ ^ 1 6 ;...>. .^ ^ ^ ^ ,.'.-.).-.-.).-.'.,.^ ^ ^ ^  .>...;.1 1 ^ ^ . . . . . . . . . . . . . . . ",
". . . . . . . . . . . . . . . . % Y / ; ; 1 1 ; ; !.~.*.#.-.-.{.].{.-.#.*.^.!.; ; 1 1 ; ; / Y % . . . . . . . . . . . . . . . . ",
". . . . . . . . . . . . . . . . . ^ | ; s /.1 u ; (.~._.*.{.-.-.-.:.{.*._.~.!.; u 1 /.s ; | ^ . . . . . . . . . . . . . . . . . ",
". . . . . . . . . . . . . . . . . . . - @ / Y #.#.-.<.*.#.[.}.~.~.}.|.#.*.=.-.1.#.Y / @ - . . . . . . . . . . . . . . . . . . . ",
". . . . . . . . . . . . . . . . . t e . 8 ^ ^ 2.#.:.-.3.'.4.5.!.!.5.4.6.3.-.:.7.2.^ ^ 8 . e t . . . . . . . . . . . . . . . . . ",
". . . . . . . . . . . . . . . . . * @ ; ~ -.).^ ^ 8.^ 9.0.a.#.:.:.#.a.b.c.^ c ^ ^ ).-.~ ; @ * . . . . . . . . . . . . . . . . . ",
". . . . . . . . . . . . . . . . % + $ w u d.-.^ ^ | ^ -.d.#.2.{.{.e._.f.-.^ | ^ ^ -.d.u w $ + % . . . . . . . . . . . . . . . . ",
". . . . . . . . . . . . . . . . . w ~ < g.-.-.; ; h.i.^ ^ ^ / ^ ^ / c ^ c i.h.> ; -.-.g.< ~ w . . . . . . . . . . . . . . . . . ",
". . . . . . . . . . . . . . . . . ; g < 5 d.-.; ; h.j.^ ^ %.^ ^ ^ ^ ^ ^ ^ h.j.; ; -.d.5 < g ; . . . . . . . . . . . . . . . . . ",
". . . . . . . . . . . . . . . . $ ^ ^  . .; ; H B | ^ < g.D D D D D D < 5 ^ ^ B H ; ;  . .^ ^ $ . . . . . . . . . . . . . . . . ",
". . . . . . . . . . . . . . . . + ^ ^ k. .; ; B B ^ ^ 5 [ l.E D N D D < < | ^ C B ; ; U k.^ ^ + . . . . . . . . . . . . . . . . ",
". . . . . . . . . . . . . . . . . ^ ^ ^ ^ ~ w / ^ B ` D E m.D D K D n.G E o.p./ / w ; ^ ^ ^ ^ . . . . . . . . . . . . . . . . . ",
". . . . . . . . . . . . . . . . . ^ ^ | | s f ^ | o.q.m.D r.E E E E E D n.s.J z ^ w s | | ^ ^ . . . . . . . . . . . . . . . . . ",
". . . . . . . . . . . . . . . . & . % $ % > ; t.u.^ v.z ^ w.J x.r Q C ^ ^ | ^ t.t.; > % $ % # & . . . . . . . . . . . . . . . . ",
". . . . . . . . . . . . . . . . . . . $ y.z.; j A.^ ^ / / H o.j j I ` ^ Y / ^ m j ; z.y.$ . . . . . . . . . . . . . . . . . . . ",
". . . . . . . . . . . . . . . . . . . . % ] @ w ; x.B./.C.c / / ^ / ^ q /.1 1 ; w @ ] % . . . . . . . . . . . . . . . . . . . . ",
". . . . . . . . . . . . . . . . . . + . . . . k g j t.1 1 ^ ^ ^ ^ ^ ^ 1 9 /.1 ; k . . . . + . . . . . . . . . . . . . . . . . . ",
". . . . . . . . . . . . . . . . . . . . . * . ; ; ; ; < D.; ; ; ; j j 1 1 j j ; ; . * . . . . . . . . . . . . . . . . . . . . . ",
". . . . . . . . . . . . . . . . . . . @ E.. . ; ; u ; F.< G.k ; u r r 0 C.r r k ; . . E.@ . . . . . . . . . . . . . . . . . . . ",
". . . . . . . . . . . . . . . . . . . ] . . . @ $ ^ ^ / ^ . # @ . > > < F.> > e @ . . . ] . . . . . . . . . . . . . . . . . . . ",
". . . . . . . . . . . . . . . . # . . * . . . % % ^ ^ ^ | % % & % k ; H.I.~ ~ + % . . . * . . # . . . . . . . . . . . . . . . . ",
". . . . . . . . . . . . . . . . . . * l . . + a # % # J.. a . . # . = ^ | ^ ^ . a + . . l * . . . . . . . . . . . . . . . . . . ",
". . . . . . . . . . . . . . . . . . . . $ . . . . . . # . . $ & + . % z K.^ / + . . . $ . . . . . . . . . . . . . . . . . . . . ",
". . . . . . . . . . . . . . . . . . . % . . . . @ @ @ . + . . # . . * . * . # * . . . . % . . . . . . . . . . . . . . . . . . . ",
". . . . . . . . . . . . . . . . @ . . . . . . @ . . . . . . . . . # . . . . . . @ . . . . . . @ . . . . . . . . . . . . . . . . ",
". . . . . . . . . . . . . . . . . . . . . . . . . . . . . . . . . . . . . . . . . . . . . . . . . . . . . . . . . . . . . . . . ",
". . . . . . . . . . . . . . . . . . . . . . . . . . . . . . . . . . . . . . . . . . . . . . . . . . . . . . . . . . . . . . . . ",
". . . . . . . . . . . . . . . . . . . . . . . . . . . . . . . . . . . . . . . . . . . . . . . . . . . . . . . . . . . . . . . . ",
". . . . . . . . . . . . . . . . . . . . . . . . . . . . . . . . . . . . . . . . . . . . . . . . . . . . . . . . . . . . . . . . ",
". . . . . . . . . . . . . . . . . . . . . . . . . . . . . . . . . . . . . . . . . . . . . . . . . . . . . . . . . . . . . . . . ",
". . . . . . . . . . . . . . . . . . . . . . . . . . . . . . . . . . . . . . . . . . . . . . . . . . . . . . . . . . . . . . . . ",
". . . . . . . . . . . . . . . . . . . . . . . . . . . . . . . . . . . . . . . . . . . . . . . . . . . . . . . . . . . . . . . . ",
". . . . . . . . . . . . . . . . . . . . . . . . . . . . . . . . . . . . . . . . . . . . . . . . . . . . . . . . . . . . . . . . "};
