/* XPM */
static char * jolteon_sx_xpm[] = {
"64 64 161 2",
"  	c None",
". 	c #70C8A0",
"+ 	c #70C8A2",
"@ 	c #71C99F",
"# 	c #71C7A0",
"$ 	c #6FC79F",
"% 	c #71C9A1",
"& 	c #71C7A2",
"* 	c #70C89E",
"= 	c #72C8A1",
"- 	c #6EC99E",
"; 	c #6EC9A0",
"> 	c #6EC8A2",
", 	c #403A2A",
"' 	c #403929",
") 	c #3F3A27",
"! 	c #3F3828",
"~ 	c #6FCAA1",
"{ 	c #3F3929",
"] 	c #403A2C",
"^ 	c #6FC7A1",
"/ 	c #F7C816",
"( 	c #F7C818",
"_ 	c #413A2A",
": 	c #41392C",
"< 	c #F8C919",
"[ 	c #40382B",
"} 	c #A86820",
"| 	c #A7671F",
"1 	c #A76920",
"2 	c #A8681E",
"3 	c #41372B",
"4 	c #413829",
"5 	c #F6C918",
"6 	c #F6C717",
"7 	c #F7C81A",
"8 	c #6FCA9F",
"9 	c #F9C718",
"0 	c #A96921",
"a 	c #F6C719",
"b 	c #AA6720",
"c 	c #F7C71B",
"d 	c #F5C719",
"e 	c #3F3826",
"f 	c #010101",
"g 	c #000002",
"h 	c #E7A020",
"i 	c #F6C916",
"j 	c #E6A120",
"k 	c #F8C917",
"l 	c #000000",
"m 	c #000201",
"n 	c #E8A121",
"o 	c #F9C71A",
"p 	c #3E3926",
"q 	c #403726",
"r 	c #F9F850",
"s 	c #FBF94F",
"t 	c #E9A020",
"u 	c #F8C715",
"v 	c #F7C914",
"w 	c #F5C815",
"x 	c #E7A221",
"y 	c #F7CA19",
"z 	c #FAC81B",
"A 	c #F6C81A",
"B 	c #E7A022",
"C 	c #F8F74F",
"D 	c #FAF750",
"E 	c #403927",
"F 	c #F5C817",
"G 	c #010000",
"H 	c #010103",
"I 	c #413A28",
"J 	c #3F392B",
"K 	c #FAC819",
"L 	c #E7A11F",
"M 	c #493E4F",
"N 	c #474052",
"O 	c #F8F953",
"P 	c #FAC61A",
"Q 	c #F8F751",
"R 	c #F9F852",
"S 	c #F9F64F",
"T 	c #F9F74D",
"U 	c #F8C91B",
"V 	c #F7F852",
"W 	c #483F52",
"X 	c #473E4F",
"Y 	c #F8C617",
"Z 	c #FAF94F",
"` 	c #FAF951",
" .	c #FBF851",
"..	c #F8FA51",
"+.	c #48404F",
"@.	c #4B4051",
"#.	c #FAF752",
"$.	c #F6F84F",
"%.	c #F8F74D",
"&.	c #F9F84E",
"*.	c #4A3F50",
"=.	c #6DC89F",
"-.	c #483F50",
";.	c #E8A123",
">.	c #FAF84E",
",.	c #F7F950",
"'.	c #3F372A",
").	c #474050",
"!.	c #4A3F4F",
"~.	c #A86821",
"{.	c #494051",
"].	c #6FC79D",
"^.	c #F7F94E",
"/.	c #F9C816",
"(.	c #493D51",
"_.	c #A6681F",
":.	c #F6F84D",
"<.	c #FBF853",
"[.	c #A6681D",
"}.	c #AA6721",
"|.	c #FAF953",
"1.	c #42382C",
"2.	c #020003",
"3.	c #A86A21",
"4.	c #E9E8FA",
"5.	c #E69F1F",
"6.	c #E9E8F8",
"7.	c #E8E7F7",
"8.	c #EBE8F9",
"9.	c #A8A8C0",
"0.	c #A7A7BF",
"a.	c #A7A8BD",
"b.	c #3E3828",
"c.	c #000100",
"d.	c #A96922",
"e.	c #A7A9C2",
"f.	c #AAA8C0",
"g.	c #A8A9BE",
"h.	c #A9A9C3",
"i.	c #A8AAC1",
"j.	c #000004",
"k.	c #484151",
"l.	c #CFE0E8",
"m.	c #A7A9BE",
"n.	c #A7A9C0",
"o.	c #47414F",
"p.	c #A9A9C1",
"q.	c #D0E1E9",
"r.	c #D1DFE8",
"s.	c #CDE0E7",
"t.	c #473F4E",
"u.	c #71C9A3",
"v.	c #494053",
"w.	c #473E51",
"x.	c #EAA121",
"y.	c #E89F1F",
"z.	c #71C89E",
"A.	c #6FC9A3",
"B.	c #70C79D",
"C.	c #72CAA2",
"D.	c #70C69F",
". . . . . . . . . . . . . . . . . . . . . . . . . . . . . . . . . . . . . . . . . . . . . . . . . . . . . . . . . . . . . . . . ",
". . . . . . . . . . . . . . . . . . . . . . . . . . . . . . . . . . . . . . . . . . . . . . . . . . . . . . . . . . . . . . . . ",
". . . . . . . . . . . . . . . . . . . . . . . . . . . . . . . . . . . . . . . . . . . . . . . . . . . . . . . . . . . . . . . . ",
". . . . . . . . . . . . . . . . . . . . . . . . . . . . . . . . . . . . . . . . . . . . . . . . . . . . . . . . . . . . . . . . ",
". . . . . . . . . . . . . . . . . . . . . . . . . . . . . . . . . . . . . . . . . . . . . . . . . . . . . . . . . . . . . . . . ",
". . . . . . . . . . . . . . . . . . . . . . . . . . . . . . . . . . . . . . . . . . . . . . . . . . . . . . . . . . . . . . . . ",
". . . . . . . . . . . . . . . . . . . . . . . . . . . . . . . . . . . . . . . . . . . . . . . . . . . . . . . . . . . . . . . . ",
". . . . . . . . . . . . . . . . . . . . . . . . . . . . . . . . . . . . . . . . . . . . . . . . . . . . . . . . . . . . . . . . ",
". . . . . . . . . . . . . . . . + . @ . . . . . # . $ . % . . . . . . % . $ % # & + . * = . . . . . . . . . . . . . . . . . . . ",
". . . . . . . . . . . . . . . . . . - . . . ; * . . . . . $ . $ $ . $ . . . . . * . . . $ . . . . . . . . . . . . . . . . . . . ",
". . . . . . . . . . . . . . . . # . . . $ > . > + , ' ) ! % ; $ $ ~ % ! { ' , + + % . . . . ; % . . . . . . . . . . . . . . . . ",
". . . . . . . . . . . . . . . . # * ; # % # . . . ' ' ' ] ; . . . . ; , ' ' ' . # . . . . . # . . . . . . . . . . . . . . . . . ",
". . . . . . . . . . . . . . . . . . . ^ . > ; + ; ' ! / ( _ ' $ $ ' : ( ( ! ' ; ; . . . . . . . . . . . . . . . . . . . . . . . ",
". . . . . . . . . . . . . . . . . # - # * # * . # ' ' ( < [ _ ; ; _ [ < ( ' ' # . + . * # . # . . . . . . . . . . . . . . . . . ",
". . . . . . . . . . . . . . . . . * . $ % ! [ ' ' } | ( ( 1 2 ' ' 2 1 ( ( | } ' 3 ; . . . . . . . . . . . . . . . . . . . . . . ",
". . . . . . . . . . . . . . . . . . ; % . 4 ' ' ' } } 5 ( | } ' ' } | ( 5 } } ' ' . . . + % . $ . . . . . . . . . . . . . . . . ",
". . . . . . . . . . . . . . . . . . . $ ; ' ' ( ( } } 6 7 ( ( 1 1 ( ( 7 7 } } ( ( ' ' ; $ . . . . . . . . . . . . . . . . . . . ",
". . . . . . . . . . . . . . . . . # . # 8 [ ' ( 9 } 0 a ( ( < } b ( c ( d 2 } ( ( ' [ 8 # . # . . . . . . . . . . . . . . . . . ",
". . . . . . . . . . . . . . . . . ! e f g ' ' / / h h / ( / i j h ( k < / h h / / ' ' g f e ! . . . . . . . . . . . . . . . . . ",
". . . . . . . . . . . . . . . . . [ : l m ' { ( ( h h c ( ( ( n h ( o 9 7 n h ( ( { ' m l : [ . . . . . . . . . . . . . . . . . ",
". . . . . . . . . . . . . . . . + p q r s l l t h u ( v < ' ' ' ' i / / w ( 6 h t l l s r q p + . . . . . . . . . . . . . . . . ",
". . . . . . . . . . . . . . . . % [ : r r l g h x y < 7 ( ' ' [ ' ( 9 ( z A ( B h g l r r : [ % . . . . . . . . . . . . . . . . ",
". . . . . . . . . . . . . . . . . l l C D l l ' ' 6 9 ' ' 9 ( ! ' ' E ! ' ( F { ' l l D C l l . . . . . . . . . . . . . . . . . ",
". . . . . . . . . . . . . . . . . l G C D l H E ' ( ( ' ' ( ( ' ' ' ' { 4 ( ( I E H l D C G l . . . . . . . . . . . . . . . . . ",
". . . . . . . . . . # # . . * ' _ 4 { ( ( r r l l ' ' ' 4 ( ( ( ( ' 4 ( 6 { ' g l r r ( ( { 4 _ ' * . . # # . . . . . . . . . . ",
". . . . . . . . ; . $ % . . . ' ' ' _ 5 / r r l g [ E _ ' / ( / ( ' J / K ' ' f l r r / 5 _ ' ' ' . . . % $ . ; . . . . . . . . ",
". . . . . . . . . . . . % . ; l l L h M N r O l l < y 9 P Q C R Q S T / / ( U l l V r N M h L l l ; . % . . . . . . . . . . . . ",
". . . . . . . . . # . # . . . l f h t W X Q r f f 9 Y / 5 Z `  .r ....6 < ( 9 g f r Q X W t h f l . . . # . # . . . . . . . . . ",
". . . . . . . . . . # * + - + # # ' ! +.@.L j Z r : { D #.C C Q $.%.S D &.' ] r Z j L *.+.! ' # # + - + * # . . . . . . . . . . ",
". . . . . . . . . ; . $ . . . =.. ' ' -.-.;.B ` >.[ 4 &.,.` r D r r ` r D ' '.r ` B ;.-.-.' ' . =.. . . $ . ; . . . . . . . . . ",
". . . . . . . . . . . % . . . @ % l l ).!.+.-.&.r } } &.r r r r r &.C r %.~.0 r &.-.+.!.).l l % @ . . . % . . . . . . . . . . . ",
". . . . . . . . $ . . + . . . . . l l +.{.-.-.r r } 0 r r r r r R &.` r &.1 0 r r -.-.{.+.l l . . . . . + . . $ . . . . . . . . ",
". . . . . . . . . . . . . . . . . . ].f l -.W S r v ( C r ^.r r r r r D r 7 ( ( 7 -.-.l l $ # . . . . . . . . . . . . . . . . . ",
". . . . . . . . . . . . . . . . . . . f l *.*.r C ( /.r C r r r r r R &.V ( ( < ( (.@.l l . . . . . . . . . . . . . . . . . . . ",
". . . . . . . . . . . . . . . . % # ^ ' , } _.9 / r r :.<.D R r r C r ` &.C D 9 9 1 [.' [ + + . . . . . . . . . . . . . . . . . ",
". . . . . . . . . . . . . . . . . % % ' I }.} 7 7 r ` ,.r ,.r r r r r &.|.r r 5 ( } ~.1.I % 8 . . . . . . . . . . . . . . . . . ",
". . . . . . . . . . . . . . . . & . ^ l H L h ' ' } } %.S ( ( r r 7 ( D &.| } ' 4 h L l 2.; + * . . . . . . . . . . . . . . . . ",
". . . . . . . . . . . . . . . . . ~ . l f B B 3 ' } 3.R r ( ( r &.( ( r ` 0 | { ' h B l l @ . . . . . . . . . . . . . . . . . . ",
". . . . . . . . . . . . . . . . # X +.H l L h ' { 4.4.L B 5 7 r r 7 ( t 5.6.4.' ! L L l l -.-.$ . . . . . . . . . . . . . . . . ",
". . . . . . . . . . . . . . . . . X -.l l h h ' ' 7.8.h h / 7 r ` ( ( h h 6.6.' ' h h l l -.X . . . . . . . . . . . . . . . . . ",
". . . . . . . . . . . . . . . . ^ -.-.9.9.{ ' ( ( l l | 1 ` r r r r ` 1 | l l ( ( ' { 9.9.-.-.^ . . . . . . . . . . . . . . . . ",
". . . . . . . . . . . . . . . . . -.-.0.a.E b.( o l c.} d.r r &.&.r r d.} c.l o ( b.E a.0.-.-.. . . . . . . . . . . . . . . . . ",
". . . . . . . . . . . . . . . . . - = -.*.e.f.f l 5 ( C ,.R &.O O &.R ,.C ( 5 l f f.e.*.-.= - . . . . . . . . . . . . . . . . . ",
". . . . . . . . . . . . . . . . . $ =.-.X g.9.l l Y o r R r >.&.&.>.r R r o Y l l 9.g.X -.=.$ . . . . . . . . . . . . . . . . . ",
". . . . . . . . . . . . . . . . . % # W @.h.9.9.i.l l g f 7 7 0 0 7 7 f g l l i.9.9.h.@.W # % . . . . . . . . . . . . . . . . . ",
". . . . . . . . . . . . . . . . . ^ . -.).9.9.9.9.l l H j.6 Y } } Y 6 j.H l l 9.9.9.9.).-.. ^ . . . . . . . . . . . . . . . . . ",
". . . . . . . . . . . . . . . . . % $ ~ # k.W l.l.g.m.9.n.f m f f m f n.9.m.g.l.l.W k.# ~ $ % . . . . . . . . . . . . . . . . . ",
". . . . . . . . . . . . . . . . . * . . . o.-.l.l.9.9.p.9.l l l l l l 9.p.9.9.l.l.-.o.. . . * . . . . . . . . . . . . . . . . . ",
". . . . . . . . . . . . . . . . % . . . . -.X l G -.-.l.l.9.9.q.l.9.9.r.s.-.-.-.-.-.-.. $ * . . . . . . . . . . . . . . . . . . ",
". . . . . . . . . . . . . . . . . . . . $ -.).l l X -.l.l.f.g.l.l.9.9.r.r.t.-.X *.W -.@ ; # . . . . . . . . . . . . . . . . . . ",
". . . . . . . . . . . . . . . . . . ; % . % . u.+ G l g l -.v.-.-.-.w.h j n B H G . * ; * ; . ; . . . . . . . . . . . . . . . . ",
". . . . . . . . . . . . . . . . . . # ; . > + $ ].g l l l +.t.-.-.!.t.h x.y.h l f =.. z.A.# $ . . . . . . . . . . . . . . . . . ",
". . . . . . . . . . . . . . . . . + ].. B.C.@ u.u.; ; + . > u.. . + . l g f l . . . * > z.% . . . . . . . . . . . . . . . . . . ",
". . . . . . . . . . . . . . . . . ; z.].. . . ].D.u.. . # - $ * ; $ . l f G f # = . + . * # ; . . . . . . . . . . . . . . . . . ",
". . . . . . . . . . . . . . . . . . =.# . % ; . * ; . . =.+ . + % % % % . % ; . ; . . . * % . . . . . . . . . . . . . . . . . . ",
". . . . . . . . . . . . . . . . . . $ . $ + . $ . . # % . . . . . ; . . . . . . ; % . . . . . . . . . . . . . . . . . . . . . . ",
". . . . . . . . . . . . . . . . . . . . . . . . . . . . . . . . . . . . . . . . . . . . . . . . . . . . . . . . . . . . . . . . ",
". . . . . . . . . . . . . . . . . . . . . . . . . . . . . . . . . . . . . . . . . . . . . . . . . . . . . . . . . . . . . . . . ",
". . . . . . . . . . . . . . . . . . . . . . . . . . . . . . . . . . . . . . . . . . . . . . . . . . . . . . . . . . . . . . . . ",
". . . . . . . . . . . . . . . . . . . . . . . . . . . . . . . . . . . . . . . . . . . . . . . . . . . . . . . . . . . . . . . . ",
". . . . . . . . . . . . . . . . . . . . . . . . . . . . . . . . . . . . . . . . . . . . . . . . . . . . . . . . . . . . . . . . ",
". . . . . . . . . . . . . . . . . . . . . . . . . . . . . . . . . . . . . . . . . . . . . . . . . . . . . . . . . . . . . . . . ",
". . . . . . . . . . . . . . . . . . . . . . . . . . . . . . . . . . . . . . . . . . . . . . . . . . . . . . . . . . . . . . . . ",
". . . . . . . . . . . . . . . . . . . . . . . . . . . . . . . . . . . . . . . . . . . . . . . . . . . . . . . . . . . . . . . . "};
