/* XPM */
static char * leafeon_rx_xpm[] = {
"64 64 155 2",
"  	c None",
". 	c #70C8A0",
"+ 	c #71C99F",
"@ 	c #70C8A2",
"# 	c #71C9A1",
"$ 	c #503019",
"% 	c #513118",
"& 	c #71C7A0",
"* 	c #70C89E",
"= 	c #6FC79F",
"- 	c #6EC9A0",
"; 	c #4F2F1A",
"> 	c #4F2F18",
", 	c #5EA060",
"' 	c #60A161",
") 	c #489050",
"! 	c #478F4F",
"~ 	c #4F301B",
"{ 	c #4F3119",
"] 	c #62A061",
"^ 	c #5FA05E",
"/ 	c #6EC99E",
"( 	c #61A262",
"_ 	c #5DA261",
": 	c #61A165",
"< 	c #61A164",
"[ 	c #5FA161",
"} 	c #63A160",
"| 	c #60A15F",
"1 	c #532F19",
"2 	c #51311A",
"3 	c #5FA060",
"4 	c #60A063",
"5 	c #70C69F",
"6 	c #50301B",
"7 	c #63A162",
"8 	c #469150",
"9 	c #48904E",
"0 	c #72C8A1",
"a 	c #489051",
"b 	c #499151",
"c 	c #522F19",
"d 	c #71C89E",
"e 	c #6FCAA1",
"f 	c #4E3018",
"g 	c #9A6931",
"h 	c #9A6730",
"i 	c #478F4D",
"j 	c #6FC7A1",
"k 	c #71C7A2",
"l 	c #522F1B",
"m 	c #996830",
"n 	c #499152",
"o 	c #99682E",
"p 	c #010101",
"q 	c #000000",
"r 	c #996732",
"s 	c #6DC89F",
"t 	c #A88751",
"u 	c #A98852",
"v 	c #7FC160",
"w 	c #000002",
"x 	c #80C060",
"y 	c #82BF60",
"z 	c #7FBF5E",
"A 	c #80C05F",
"B 	c #AA8652",
"C 	c #80BF64",
"D 	c #503017",
"E 	c #81C161",
"F 	c #52321B",
"G 	c #AB8850",
"H 	c #A8884F",
"I 	c #80C062",
"J 	c #A78650",
"K 	c #7EBF61",
"L 	c #DAB95C",
"M 	c #010000",
"N 	c #D9B85B",
"O 	c #DAB759",
"P 	c #71C9A3",
"Q 	c #4F3117",
"R 	c #010103",
"S 	c #523017",
"T 	c #D7B957",
"U 	c #7FBF5F",
"V 	c #000100",
"W 	c #D8B756",
"X 	c #D7B959",
"Y 	c #63A064",
"Z 	c #629F63",
"` 	c #80BD5E",
" .	c #D9B859",
"..	c #51311C",
"+.	c #80C261",
"@.	c #61A260",
"#.	c #6EC69E",
"$.	c #5FA25F",
"%.	c #D9B857",
"&.	c #619F5E",
"*.	c #DAB95A",
"=.	c #704E1E",
"-.	c #6F5022",
";.	c #97692E",
">.	c #D9B65A",
",.	c #6FC79D",
"'.	c #704F22",
").	c #705021",
"!.	c #D8B758",
"~.	c #714F21",
"{.	c #F1D8A0",
"].	c #976830",
"^.	c #F1D89F",
"/.	c #F0D79E",
"(.	c #F2D7A0",
"_.	c #F1D8A2",
":.	c #F0D7A1",
"<.	c #F0D79F",
"[.	c #715122",
"}.	c #EFD99F",
"|.	c #D9B658",
"1.	c #F2D9A1",
"2.	c #DAB857",
"3.	c #AA8751",
"4.	c #AB8651",
"5.	c #DAB75B",
"6.	c #F0DAA1",
"7.	c #F0DAA0",
"8.	c #EFD9A0",
"9.	c #A78851",
"0.	c #010002",
"a.	c #DAB958",
"b.	c #F1D69F",
"c.	c #DBB85A",
"d.	c #F3D9A0",
"e.	c #CFE0E8",
"f.	c #F2D9A0",
"g.	c #6F4E21",
"h.	c #020100",
"i.	c #714F1F",
"j.	c #6EC8A2",
"k.	c #D8B75A",
"l.	c #EFD8A2",
"m.	c #F2D89F",
"n.	c #96672F",
"o.	c #9B6831",
"p.	c #A88752",
"q.	c #AA874F",
"r.	c #498F50",
"s.	c #479251",
"t.	c #986931",
"u.	c #98672F",
"v.	c #98672D",
"w.	c #000103",
"x.	c #503115",
". . . . . . . . . . . . . . . . . . . . . . . . . . . . . . . . . . . . . . . . . . . . . . . . . . . . . . . . . . . . . . . . ",
". . . . . . . . . . . . . . . . . . . . . . . . . . . . . . . . . . . . . . . . . . . . . . . . . . . . . . . . . . . . . . . . ",
". . . . . . . . . . . . . . . . . . . . . . . . . . . . . . . . . . . . . . . . . . . . . . . . . . . . . . . . . . . . . . . . ",
". . . . . . . . . . . . . . . . . . . . . . . . . . . . . . . . . . . . . . . . . . . . . . . . . . . . . . . . . . . . . . . . ",
". . . . . . . . . . . . . . . . . . . . . . . . . . . . . . . . . . . . . . . . . . . . . . . . . . . . . . . . . . . . . . . . ",
". . . . . . . . . . . . . . . . . . . . . . . . . . . . . . . . . . . . . . . . . . . . . . . . . . . . . . . . . . . . . . . . ",
". . . . . . . . . . . . . . . . . . . . . . . . . . . . . . . . . . . . . . . . . . . . . . . . . . . . . . . . . . . . . . . . ",
". . . . . . . . . . . . . . . . . . . . . . . . . . . . . . . . . . . . . . . . . . . . . . . . . . . . . . . . . . . . . . . . ",
". . . . . . . . . . . . . . . . . . . . + @ . . @ # . $ % $ $ $ $ . . & * . = . . . . . . . . . . . . . . . . . . . . . . . . . ",
". . . . . . . . . . . . . . . . . * . . . . . . . . - ; $ ; > $ $ . . . . . . # . . . . . . . . . . . . . . . . . . . . . . . . ",
". . . . . . . . . . . . . . . . . . . . . . . & @ $ $ , ' ) ! $ $ @ . # * * . . . . . . . . . . . . . . . . . . . . . . . . . . ",
". . . . . . . . . . . . . . . . & . . = . @ . . . ~ { ] ^ ) ) { $ . . - . . # . . . . . . . . . . . . . . . . . . . . . . . . . ",
". . . . . . . . . . . . . . . . . . . . / . . $ $ ] ( _ : > > . = . . # . . = . . . . . . . . . . . . . . . . . . . . . . . . . ",
". . . . . . . . . . . . . . . . . . . . . . . $ $ < [ } | 1 2 # . . . . - . . . . . . . . . . . . . . . . . . . . . . . . . . . ",
". . . . . . . . . . . . . . . . @ . . . . . . $ { ' ' 3 4 $ $ $ $ . . . . . . . . . . . . . . . . . . . . . . . . . . . . . . . ",
". . . . . . . . . . . . . . . . . . . . 5 = . $ > ' ' ' ] 6 $ $ 2 . . . . . . . . . . . . . . . . . . . . . . . . . . . . . . . ",
". . . . . . . . . . - * @ . . # # . . @ * - . . . $ $ ' 7 8 9 ) ) $ $ @ # . * . . . - * @ . . # # . . @ * - . . . . . . . . . . ",
". . . . . . . . . . . . @ 0 . # # . 0 . . . . . . $ $ 7 | a 8 b b c $ d . . e - . . . . @ 0 . # # . 0 . . . . . . . . . . . . . ",
". . . . . . . . . . # * - * e * * e * - * # . . . . = f > g h i ! $ { j . & . . . . # * - * e * * e * - * # . . . . . . . . . . ",
". . . . . . . . . . . k + . @ . . . . + k . . . . . . 2 l m m ) n c c # . . . . . . . k + . @ . . . . + k . . . . . . . . . . . ",
". . . . . . . . . . . . & * . - - . * & . . . . . * * f { $ $ o m p p q p & d . . . . . & * . - - . * & . . . . . . . . . . . . ",
". . . . . . . . . . * . . @ . . . . @ . . * . . . # . 2 $ $ ; m r q q p q . s # . . * . . @ . . . . @ . . * . . . . . . . . . . ",
". . . . . . . . @ . . . @ $ $ $ $ $ $ @ . . . @ = $ $ t u t t q q v v w q > $ @ @ . . . @ $ $ $ $ $ $ @ . . . @ . . . . . . . . ",
". . . . . . . . . & . # . $ > $ $ > $ . # . & . e $ $ t t t t q q x y q q $ 6 . . & . # . $ > $ $ > $ . # . & . . . . . . . . . ",
". . . . . . . . . @ . . . $ $ x x z A 6 $ @ . $ 6 t B $ > q q x C ' [ q q t t D $ . @ $ 6 A z x x $ $ . . . @ . . . . . . . . . ",
". . . . . . . . * . . . . $ $ v A E A F $ . . D $ G H c c q q x I 3 ' q q J t { D . . $ F A E A v $ $ . . . . . . . . . . . . . ",
". . . . . . . . . . * . * . k > $ ' ( K A q q $ $ > l L L $ $ E x p M N O 6 l $ $ q q A K ( ' $ > k . * . * . . . . . . . . . . ",
". . . . . . . . . * . . P * - Q D , [ E x p R 2 $ S D O T ; $ x U V q W X D D $ 2 R p x E [ , D { - * @ . . * . . . . . . . . . ",
". . . . . . . . . . = - # # & $ 6 Y Z | [ ` I q q  . ...$ +.x [ @.2 2 O O  .N q q I ` [ | Z Y 6 $ & # # - #.. . . . . . . . . . ",
". . . . . . . . . . . . . * . c $ $.3 ( | E x M q %.X D > x v ] &.$ $  .N *. .q M x E | ( 3 $.$ c . * # . . . . . . . . . . . . ",
". . . . . . . . . # . . . . . @ P q q =.-.U x 6 $  . .$ $ I U ' ' ;.m N >.X  .$ 6 x U -.=.q q P @ . . . . . # . . . . . . . . . ",
". . . . . . . . = = . . ,.. . @ . q q '.).x x $ $  . .$ ..x x ' ' m m  .!. . .$ $ x x ).'.q q . @ . . ,.. . = = . . . . . . . . ",
". . . . . . . . . . . . . . . . . q q ).~.' 3 {.{.].m $ D ' ' ' | N  .{.{.r m {.{.3 ' ~.).q q . . . . . . . . . . . . . . . . . ",
". . . . . . . . . . . . . . . . . p q ).).| ( {.^.o r $ $ ' ' ' '  . ./.(.m m {.{.( | ).).q p . . . . . . . . . . . . . . . . . ",
". . . . . . . . . . . . . . . . . . @ w q ).~.{._.X X :.<.m m ' [  .%.{.{. .X {.{.~.).q w @ . . . . . . . . . . . . . . . . . . ",
". . . . . . . . . . . . . . . . . - e q q ).[.}.{.|.|.1.1.h r 4 4 !.!.{.(.2.|.{.}.[.).q q e - . . . . . . . . . . . . . . . . . ",
". . . . . . . . . . . . . . . . . $ l 3.4.q q 5.N 6.1.<.<.7.^.m m 1.{.(.8.6.6. .5.q q 4.3.l $ . . . . . . . . . . . . . . . . . ",
". . . . . . . . . . . . . . . . * $ $ 9.u 0.w 2.a.<.b.{.{._.(.m m <.8.8.(.<.<.%.2.w 0.u 9.$ $ * . . . . . . . . . . . . . . . . ",
". . . . . . . . . . . . . . . . . . & $ $  .%.).'. . .8.{.{.{.{.{.{.{.{.{.c.*.).).%. .$ $ & . . . . . . . . . . . . . . . . . . ",
". . . . . . . . . . . . . . . . . * . $ $ *.N ).).*. .{.{.{.{.d.{.8._.{.(. . .).).N *.$ $ . * . . . . . . . . . . . . . . . . . ",
". . . . . . . . . . . . . . . . . @ . q q t t 6 $ e.e.m ].{.f.{.{.^.{.].m e.e.$ 6 t t q q . @ . . . . . . . . . . . . . . . . . ",
". . . . . . . . . . . . . . . . . - . q q t t 6 $ e.e.r o (.f.(.(.f.(.o r e.e.$ 6 t t q q . - . . . . . . . . . . . . . . . . . ",
". . . . . . . . . . . . . . . . # . . P # w q N  .q q ).g.%.X !.!.X %.'.).q q  .N q w # P . . # . . . . . . . . . . . . . . . . ",
". . . . . . . . . . . . . . . . . . # = * h.q L *.p p [.i.O *.O O *.O i.[.p p *.L q h.* = # . . . . . . . . . . . . . . . . . . ",
". . . . . . . . . . . . . . . . . # . + j.6 ~ q q  . .k.!.{.l.l.l.l.{.!.k. . .q q ~ 6 j.+ . # . . . . . . . . . . . . . . . . . ",
". . . . . . . . . . . . . . . . . # = @ ,.$ > p q  . .*. ._.1.m.m.1._. .*. .*.q p > $ ,.@ = # . . . . . . . . . . . . . . . . . ",
". . . . . . . . . . . . . . . . * . # @ # $ $ m o q q q q  .!.].].!. .q q q q o m $ $ # @ # . * . . . . . . . . . . . . . . . . ",
". . . . . . . . . . . . . . . . - . - . . $ $ r m q q q q  . .h h  . .q q q q m r $ $ . . - . - . . . . . . . . . . . . . . . . ",
". . . . . . . . . . . . . . . . . . . . 5 = . $ 2 t t t t q q q M q q n.o.) b $ $ . = 5 . . . . . . . . . . . . . . . . . . . . ",
". . . . . . . . . . . . . . . . @ . . . . . . $ $ p.t t q.q q q q w q m h ) r.$ $ . . . . . . @ . . . . . . . . . . . . . . . . ",
". . . . . . . . . . . . . . . . . . . . . . . $ { s.) t t h g $ 2 $ 2 r t.$ % $ $ . . . . . . . . . . . . . . . . . . . . . . . ",
". . . . . . . . . . . . . . . . . . . . / . . $ 6 ) ) u 3.].r $ $ $ > u.v.; $ $ c . . / . . . . . . . . . . . . . . . . . . . . ",
". . . . . . . . . . . . . . . . & . . = . @ . . . $ 2 ).'.2 > # . . . q w.q p . . . @ . = . . & . . . . . . . . . . . . . . . . ",
". . . . . . . . . . . . . . . . . . . . . . . & . S x.).).~ > . 5 - ,.q q p q . & . . . . . . . . . . . . . . . . . . . . . . . ",
". . . . . . . . . . . . . . . . . * . . . . . . . q q q w * & & . . # . . . j.. . . . . . . * . . . . . . . . . . . . . . . . . ",
". . . . . . . . . . . . . . . . . . . . + @ . . @ q q q q . . & . . = . . . . - . . @ + . . . . . . . . . . . . . . . . . . . . ",
". . . . . . . . . . . . . . . . . . . . . . . . . . . . . . . . . . . . . . . . . . . . . . . . . . . . . . . . . . . . . . . . ",
". . . . . . . . . . . . . . . . . . . . . . . . . . . . . . . . . . . . . . . . . . . . . . . . . . . . . . . . . . . . . . . . ",
". . . . . . . . . . . . . . . . . . . . . . . . . . . . . . . . . . . . . . . . . . . . . . . . . . . . . . . . . . . . . . . . ",
". . . . . . . . . . . . . . . . . . . . . . . . . . . . . . . . . . . . . . . . . . . . . . . . . . . . . . . . . . . . . . . . ",
". . . . . . . . . . . . . . . . . . . . . . . . . . . . . . . . . . . . . . . . . . . . . . . . . . . . . . . . . . . . . . . . ",
". . . . . . . . . . . . . . . . . . . . . . . . . . . . . . . . . . . . . . . . . . . . . . . . . . . . . . . . . . . . . . . . ",
". . . . . . . . . . . . . . . . . . . . . . . . . . . . . . . . . . . . . . . . . . . . . . . . . . . . . . . . . . . . . . . . ",
". . . . . . . . . . . . . . . . . . . . . . . . . . . . . . . . . . . . . . . . . . . . . . . . . . . . . . . . . . . . . . . . "};
