/* XPM */
static char * leafeon_sx_xpm[] = {
"64 64 169 2",
"  	c None",
". 	c #70C8A0",
"+ 	c #70C8A2",
"@ 	c #71C7A0",
"# 	c #6FC79F",
"$ 	c #70C89E",
"% 	c #71C9A1",
"& 	c #6EC8A2",
"* 	c #6EC9A0",
"= 	c #503019",
"- 	c #522F19",
"; 	c #71C7A2",
"> 	c #6EC99E",
", 	c #503017",
"' 	c #4F3119",
") 	c #4F2F18",
"! 	c #50321A",
"~ 	c #619F60",
"{ 	c #60A161",
"] 	c #498F50",
"^ 	c #488E4F",
"/ 	c #71C9A3",
"( 	c #72C8A1",
"_ 	c #512E18",
": 	c #4F2F16",
"< 	c #51311C",
"[ 	c #61A260",
"} 	c #469150",
"| 	c #51311A",
"1 	c #62A061",
"2 	c #498F51",
"3 	c #478F4F",
"4 	c #4F2F1A",
"5 	c #60A063",
"6 	c #60A15F",
"7 	c #489050",
"8 	c #50301B",
"9 	c #499151",
"0 	c #71C89E",
"a 	c #6FC79D",
"b 	c #996830",
"c 	c #6DC7A1",
"d 	c #72C99F",
"e 	c #6FCAA1",
"f 	c #976830",
"g 	c #478F4D",
"h 	c #70C6A1",
"i 	c #6DC89F",
"j 	c #522F1B",
"k 	c #98672F",
"l 	c #9A672E",
"m 	c #010101",
"n 	c #000000",
"o 	c #000002",
"p 	c #71C99F",
"q 	c #70C69F",
"r 	c #503218",
"s 	c #9A6931",
"t 	c #010000",
"u 	c #010100",
"v 	c #4F3117",
"w 	c #4E3018",
"x 	c #A88751",
"y 	c #AA8751",
"z 	c #80C060",
"A 	c #7FC160",
"B 	c #020200",
"C 	c #6FC7A1",
"D 	c #532F19",
"E 	c #A78852",
"F 	c #010103",
"G 	c #81BF5E",
"H 	c #82BF60",
"I 	c #61A262",
"J 	c #A68750",
"K 	c #81C161",
"L 	c #80C062",
"M 	c #80C05F",
"N 	c #5FA161",
"O 	c #D9B859",
"P 	c #D8B758",
"Q 	c #DAB759",
"R 	c #7FBF61",
"S 	c #D7B959",
"T 	c #81C160",
"U 	c #80C261",
"V 	c #DAB95C",
"W 	c #D9B857",
"X 	c #50311C",
"Y 	c #5FA05E",
"Z 	c #62A05F",
"` 	c #81C163",
" .	c #81BE5F",
"..	c #5FA060",
"+.	c #DAB75B",
"@.	c #D9B85B",
"#.	c #D8BA5A",
"$.	c #80C260",
"%.	c #61A164",
"&.	c #D6B856",
"*.	c #6F511F",
"=.	c #705021",
"-.	c #9B6831",
";.	c #6F4F20",
">.	c #D7B957",
",.	c #97692E",
"'.	c #DAB95A",
").	c #629F63",
"!.	c #F1D8A0",
"~.	c #F2D9A3",
"{.	c #F0D79F",
"].	c #99682E",
"^.	c #9A6730",
"/.	c #F2D7A0",
"(.	c #EFD9A0",
"_.	c #715122",
":.	c #F3D8A1",
"<.	c #9A6833",
"[.	c #F1D89F",
"}.	c #F2D89F",
"|.	c #6F5022",
"1.	c #705122",
"2.	c #96672F",
"3.	c #DAB958",
"4.	c #F1D69F",
"5.	c #A88950",
"6.	c #EFD99F",
"7.	c #F1D8A2",
"8.	c #966731",
"9.	c #A78651",
"0.	c #EED7A1",
"a.	c #6F5021",
"b.	c #F2D9A1",
"c.	c #F2D7A2",
"d.	c #CFE0E8",
"e.	c #CFE0EA",
"f.	c #A8884F",
"g.	c #996732",
"h.	c #70501F",
"i.	c #725022",
"j.	c #000100",
"k.	c #704F22",
"l.	c #4E2F1A",
"m.	c #DBB85A",
"n.	c #F0DAA1",
"o.	c #D9B756",
"p.	c #020003",
"q.	c #000201",
"r.	c #54301A",
"s.	c #D6BA59",
"t.	c #DBB85C",
"u.	c #D8B95C",
"v.	c #522E18",
"w.	c #4E321C",
"x.	c #986931",
"y.	c #99662F",
"z.	c #9B6630",
"A.	c #966930",
"B.	c #A78650",
"C.	c #A78851",
"D.	c #96682D",
"E.	c #98672D",
"F.	c #479251",
"G.	c #489051",
"H.	c #6D4E1F",
"I.	c #6F4E21",
"J.	c #000200",
"K.	c #725020",
"L.	c #72C8A3",
". . . . . . . . . . . . . . . . . . . . . . . . . . . . . . . . . . . . . . . . . . . . . . . . . . . . . . . . . . . . . . . . ",
". . . . . . . . . . . . . . . . . . . . . . . . . . . . . . . . . . . . . . . . . . . . . . . . . . . . . . . . . . . . . . . . ",
". . . . . . . . . . . . . . . . . . . . . . . . . . . . . . . . . . . . . . . . . . . . . . . . . . . . . . . . . . . . . . . . ",
". . . . . . . . . . . . . . . . . . . . . . . . . . . . . . . . . . . . . . . . . . . . . . . . . . . . . . . . . . . . . . . . ",
". . . . . . . . . . . . . . . . . . . . . . . . . . . . . . . . . . . . . . . . . . . . . . . . . . . . . . . . . . . . . . . . ",
". . . . . . . . . . . . . . . . . . . . . . . . . . . . . . . . . . . . . . . . . . . . . . . . . . . . . . . . . . . . . . . . ",
". . . . . . . . . . . . . . . . . . . . . . . . . . . . . . . . . . . . . . . . . . . . . . . . . . . . . . . . . . . . . . . . ",
". . . . . . . . . . . . . . . . . . . . . . . . . . . . . . . . . . . . . . . . . . . . . . . . . . . . . . . . . . . . . . . . ",
". . . . . . . . . . . . . . . . . . + . . . . @ . # . $ % $ . . . . . . . . # . . . . . . . . . . . . . . . . . . . . . . . . . ",
". . . . . . . . . . . . . . . . . + $ & . . . @ . * * @ $ = = = = = - # . . % . . . . . . . . . . . . . . . . . . . . . . . . . ",
". . . . . . . . . . . . . . . . * # . . . . . * . . ; > + , = , ' ) = . % . * . . . . . . . . . . . . . . . . . . . . . . . . . ",
". . . . . . . . . . . . . . . . . . . + + . . $ $ ' ! - , ~ { ] ^ = = # % * % . . . . . . . . . . . . . . . . . . . . . . . . . ",
". . . . . . . . . . . . . . . . . * . / ( . @ + + _ _ : < [ { } } = | . # . ; * . . . . . . . . . . . . . . . . . . . . . . . . ",
". . . . . . . . . . . . . . . . . . . # * . . , | { [ 1 { 2 3 = _ $ . . + * . $ . . . . . . . . . . . . . . . . . . . . . . . . ",
". . . . . . . . . . . . . . . . . . . % # . . = 4 5 6 6 { 7 7 8 4 . + % . . . . . . . . . . . . . . . . . . . . . . . . . . . . ",
". . . . . . . . . . . . . . . . . . . @ . $ % = ) { 6 7 3 7 } - ' . . . . # . > . . . . . . . . . . . . . . . . . . . . . . . . ",
". . . . . . . . . $ . . * . . . @ % . . % $ . = = { { 7 7 9 7 | = + . . . @ 0 . . . $ / . % # . . . . * . . $ . . . . . . . . . ",
". . . . . . . . * . . # @ # . . + . a @ + . . . % = = b b 9 7 = = + c d . . . . @ @ . . @ @ . . . . # . # . . * . . . . . . . . ",
". . . . . . . . . . # . # . $ . . . . e . . * + . < = f b 3 g = = 0 $ . . + . $ . . . e @ + . . . $ . # . # . * . . . . . . . . ",
". . . . . . . . . * % $ . $ > @ . . . h $ + % . . i . , ) 8 j k l m n o n $ p . @ + # @ . . # . @ > $ . $ % * . . . . . . . . . ",
". . . . . . . . . . . . @ + & . e . + $ . ( . . . q ( 4 ' : r k s n t u m c + % . . $ . . + + & . & + @ . . . . . . . . . . . . ",
". . . . . . . . . . % . % v = = ' 8 , . $ * . % . w = x y x y n n z A n B = = . * . + $ @ = = ) = = v % . % . . . . . . . . . . ",
". . . . . . . . . / . . . = = | = = 8 . C * % $ . D = x E x x F o G H n n = = e . + . . . = , ' | = = . . . / . . . . . . . . . ",
". . . . . . . . . . . # . ) - A z H A = , * . = = x x = | m n H z I { m n x J = = . . = = K z A z - ) . # . . . . . . . . . . . ",
". . . . . . . . @ . % @ . ) | z L z z = 8 . . = = x x _ , n t M z { { n n y x = = . . 8 = z z L z | ) . @ % . @ . . . . . . . . ",
". . . . . . . . . + . . @ * . = = { N M K n n = 8 = ' O O , 8 K z m n P Q ' | = = n n K M N { = = . * @ . . + . . . . . . . . . ",
". . . . . . . . . . . . . . . = = 1 I z R n n ' = - , O S = , T U n n V W 8 = ) ' n n R z I 1 = = . . . . . . . . . . . . . . . ",
". . . . . . . . . # . . + * . X = N N Y Z ` A n n S P = -  . ...~ ! = +.@.O #.n n A ` Z Y N N = X . * + . . # . . . . . . . . . ",
". . . . . . . . . . . e . @ # | = 1 { 5 5 z L n m P P ' v z $.N %.: , #.O &.Q n n L z 5 5 { 1 = | # @ . e . . . . . . . . . . . ",
". . . . . . . . + . + . . . . . . m m *.=.z K = = O O , = z L ..~ -.f +.O O W = = K z =.*.m m . . . . . . + . + . . . . . . . . ",
". . . . . . . . * . . . . . . # + m n =.;.A z , = >.O | = z M { I ,.b W '.W O = , z A ;.=.n m + # . . . . . . * . . . . . . . . ",
". . . . . . . . . . ; . % . . . . n t =.=.).{ !.!.b b = = { I { { '.P ~.{.].^./.!.{ ).=.=.t n . . . . % . ; . . . . . . . . . . ",
". . . . . . . . . . . . . . . . % n n =.=.{ ..!.!.b b = | 5 { 5 ..O S (.!.b b {.!...{ =.=.n n % . . . . . . . . . . . . . . . . ",
". . . . . . . . . . . . . . . . % + . u n _.;.!.:.O W !.!.<.b 1 { O O [.!.O O }.!.;._.n u . + % . . . . . . . . . . . . . . . . ",
". . . . . . . . . . . . . . . . @ a * o t |.1.!.!.'.W !.{.2.^.{ 5 3.'.!.4.O O !.!.1.|.t o * a @ . . . . . . . . . . . . . . . . ",
". . . . . . . . . . . . . . . . & < = 5.E n n S P /.6.7.[./.7.b 8.!.!.[.!.[.!.P S n n E 5.= < & . . . . . . . . . . . . . . . . ",
". . . . . . . . . . . . . . . . . 8 , 9.y o o @.+.!.7.!.{.[.7.b b /.:.0.7.!.!.+.@.o o y 9., 8 . . . . . . . . . . . . . . . . . ",
". . . . . . . . . . . . . . . . . . . = | W '.;.=.O O 7.!.[.(.{.!.{.(./.!.Q O a.;.'.W | = . . . . . . . . . . . . . . . . . . . ",
". . . . . . . . . . . . . . . . . . % = = O P _.=.O O !.!.(.!.!.b./.7.(.c.O O _._.P O = = % . . . . . . . . . . . . . . . . . . ",
". . . . . . . . . . . . . . . . . $ . n n y x - = d.d.s b !.[.!.!.7.!.b f e.d.8 - x y n n . $ . . . . . . . . . . . . . . . . . ",
". . . . . . . . . . . . . . . . . $ . o n f.x = = d.d.k g.!.!.!.!.!.!.g.].d.d.= = x f.n o % $ . . . . . . . . . . . . . . . . . ",
". . . . . . . . . . . . . . . . . . . * ; n n O O n n _.h.'.O O O W '.h.i.n n '.O n n ; * . . . . . . . . . . . . . . . . . . . ",
". . . . . . . . . . . . . . . . . # * . . n n P S j.n =.a.P Q P P Q P k.*.n m P P n n . . * # . . . . . . . . . . . . . . . . . ",
". . . . . . . . . . . . . . . . + . @ . . l.' j.m Q O m.&.b.!.(.b.n.7.O o.O O p.q.' l.. . @ . + . . . . . . . . . . . . . . . . ",
". . . . . . . . . . . . . . . . . . * . $ D r.n n O O s.t./.c.!./.4./.S u.Q '.n n r.v.$ . * . . . . . . . . . . . . . . . . . . ",
". . . . . . . . . . . . . . . . . . q # . w.8 x.b n n n m O O f b O S n n m n b x.8 w.. # q . . . . . . . . . . . . . . . . . . ",
". . . . . . . . . . . . . . . . . * * . $ = , ].g.n j.n n @.O g.b O Q n q.n n y.]., = $ % * * . . . . . . . . . . . . . . . . . ",
". . . . . . . . . . . . . . . . p . . . @ . . = = 7 7 z.A.F n n n n n x B.x x = = . . @ . . . p . . . . . . . . . . . . . . . . ",
". . . . . . . . . . . . . . . . . . . @ . $ % = , 7 7 b b n t m n n n C.x B.x = 8 % $ . @ . . . . . . . . . . . . . . . . . . . ",
". . . . . . . . . . . . . . . . . . . % # . . = = = = ].g.= = < = g.g.B.x 3 7 8 = . . # % . . . . . . . . . . . . . . . . . . . ",
". . . . . . . . . . . . . . . . . . . # * . . , = | = D.,.= = = = E.b x f.F.G., , . . * # . . . . . . . . . . . . . . . . . . . ",
". . . . . . . . . . . . . . . . . * . / ( . @ + / o o m o . C . ( | | H.I._ - + + @ . ( / . * . . . . . . . . . . . . . . . . . ",
". . . . . . . . . . . . . . . . . . . + + . . $ $ n J.n n > . p . ) _ i.K.= | $ $ . . + + . . . . . . . . . . . . . . . . . . . ",
". . . . . . . . . . . . . . . . * # . . . . . * & . . % / @ a 0 @ * e o j.n m . * . . . . . # * . . . . . . . . . . . . . . . . ",
". . . . . . . . . . . . . . . . . + $ & . . . @ . . % . $ + % . . L.. m n o n . @ . . . & $ . . . . . . . . . . . . . . . . . . ",
". . . . . . . . . . . . . . . . . . + . . . . @ . . . . . . . $ . # + * + . . . @ . . . . + . . . . . . . . . . . . . . . . . . ",
". . . . . . . . . . . . . . . . . . . . . . . . . . . . . . . . . . . . . . . . . . . . . . . . . . . . . . . . . . . . . . . . ",
". . . . . . . . . . . . . . . . . . . . . . . . . . . . . . . . . . . . . . . . . . . . . . . . . . . . . . . . . . . . . . . . ",
". . . . . . . . . . . . . . . . . . . . . . . . . . . . . . . . . . . . . . . . . . . . . . . . . . . . . . . . . . . . . . . . ",
". . . . . . . . . . . . . . . . . . . . . . . . . . . . . . . . . . . . . . . . . . . . . . . . . . . . . . . . . . . . . . . . ",
". . . . . . . . . . . . . . . . . . . . . . . . . . . . . . . . . . . . . . . . . . . . . . . . . . . . . . . . . . . . . . . . ",
". . . . . . . . . . . . . . . . . . . . . . . . . . . . . . . . . . . . . . . . . . . . . . . . . . . . . . . . . . . . . . . . ",
". . . . . . . . . . . . . . . . . . . . . . . . . . . . . . . . . . . . . . . . . . . . . . . . . . . . . . . . . . . . . . . . ",
". . . . . . . . . . . . . . . . . . . . . . . . . . . . . . . . . . . . . . . . . . . . . . . . . . . . . . . . . . . . . . . . "};
