/* XPM */
static char * sylveon_rx_xpm[] = {
"64 64 194 2",
"  	c None",
". 	c #70C8A0",
"+ 	c #71C7A0",
"@ 	c #70C89E",
"# 	c #7B4952",
"$ 	c #72C8A1",
"% 	c #6EC8A2",
"& 	c #6FC79F",
"* 	c #7A4851",
"= 	c #71C9A3",
"- 	c #70C8A2",
"; 	c #F78DA4",
"> 	c #6EC9A0",
", 	c #7B4A50",
"' 	c #7D4955",
") 	c #71C9A1",
"! 	c #7C4854",
"~ 	c #F58DA4",
"{ 	c #F78DA3",
"] 	c #7B4954",
"^ 	c #7C4952",
"/ 	c #F88CA4",
"( 	c #7B4851",
"_ 	c #000000",
": 	c #6FC7A1",
"< 	c #000002",
"[ 	c #010000",
"} 	c #6FC9A3",
"| 	c #F68CA3",
"1 	c #7C4A53",
"2 	c #010101",
"3 	c #6EC99E",
"4 	c #6FC79D",
"5 	c #F78CA6",
"6 	c #F68CA2",
"7 	c #F58DA6",
"8 	c #794A52",
"9 	c #7A494F",
"0 	c #7C4950",
"a 	c #F88CA3",
"b 	c #000201",
"c 	c #71C89E",
"d 	c #7A4854",
"e 	c #000004",
"f 	c #F88DA7",
"g 	c #F88CA6",
"h 	c #F48CA5",
"i 	c #010103",
"j 	c #70C69F",
"k 	c #010002",
"l 	c #010100",
"m 	c #F78BA3",
"n 	c #D66B73",
"o 	c #794A54",
"p 	c #D56A72",
"q 	c #404040",
"r 	c #D66B71",
"s 	c #F88EA5",
"t 	c #D76C74",
"u 	c #404042",
"v 	c #413F40",
"w 	c #D86A73",
"x 	c #687178",
"y 	c #FAE8E8",
"z 	c #FBE9E9",
"A 	c #3F3F3F",
"B 	c #5B7CB1",
"C 	c #7A4B53",
"D 	c #020003",
"E 	c #687176",
"F 	c #F68BA5",
"G 	c #000100",
"H 	c #68717A",
"I 	c #FBE7E8",
"J 	c #40403E",
"K 	c #72C99F",
"L 	c #70C7A4",
"M 	c #5CB7FE",
"N 	c #5EB6FE",
"O 	c #5FB7FF",
"P 	c #68727B",
"Q 	c #EAACAD",
"R 	c #E8ACAC",
"S 	c #F9E7E7",
"T 	c #D86B71",
"U 	c #67717A",
"V 	c #F48DA2",
"W 	c #60B6FF",
"X 	c #5BB6FF",
"Y 	c #E9ADAD",
"Z 	c #E9ADAF",
"` 	c #677278",
" .	c #F8E8E8",
"..	c #FAE7E9",
"+.	c #D66B75",
"@.	c #5B7CAF",
"#.	c #5C7CAF",
"$.	c #F48CA3",
"%.	c #70C79D",
"&.	c #6FCAA1",
"*.	c #3097FF",
"=.	c #5DB5FD",
"-.	c #6A7177",
";.	c #697277",
">.	c #5B7CB2",
",.	c #5C7DB2",
"'.	c #D56C71",
").	c #697078",
"!.	c #414143",
"~.	c #FEFEFC",
"{.	c #FFFFFD",
"].	c #667177",
"^.	c #3497FF",
"/.	c #3395FF",
"(.	c #5FB5FF",
"_.	c #677077",
":.	c #5A7BB0",
"<.	c #E8ACAE",
"[.	c #FAE8E6",
"}.	c #D56A74",
"|.	c #FFFFFF",
"1.	c #71C99F",
"2.	c #3095FF",
"3.	c #3198FF",
"4.	c #D56C73",
"5.	c #697279",
"6.	c #FBE8EA",
"7.	c #3196FF",
"8.	c #F9E7E5",
"9.	c #5EB6FF",
"0.	c #F8E8E9",
"a.	c #677075",
"b.	c #6DC89F",
"c.	c #697076",
"d.	c #5DB5FF",
"e.	c #72CAA2",
"f.	c #EAAEAE",
"g.	c #EAAEB0",
"h.	c #F58EA3",
"i.	c #F78BA5",
"j.	c #FCE8E9",
"k.	c #40423F",
"l.	c #404143",
"m.	c #666F76",
"n.	c #020001",
"o.	c #E8ACAB",
"p.	c #F88EA4",
"q.	c #3F3F3D",
"r.	c #3196FE",
"s.	c #2F95FF",
"t.	c #2F96FF",
"u.	c #667079",
"v.	c #D56A70",
"w.	c #F98DA5",
"x.	c #41403E",
"y.	c #FEFFFF",
"z.	c #5B7BAE",
"A.	c #3097FE",
"B.	c #686F77",
"C.	c #F98DA4",
"D.	c #404241",
"E.	c #FFFDFE",
"F.	c #FEFEFE",
"G.	c #597DB1",
"H.	c #3297FF",
"I.	c #E9ADAC",
"J.	c #E8AEAD",
"K.	c #FBE9E7",
"L.	c #D66D74",
"M.	c #E9E8F8",
"N.	c #FBE7E9",
"O.	c #FBE7E6",
"P.	c #5DB4FF",
"Q.	c #E9E8F6",
"R.	c #E8E7F9",
"S.	c #E9E6F7",
"T.	c #E8E7F7",
"U.	c #E8EAF7",
"V.	c #F9E9E9",
"W.	c #E7E9F8",
"X.	c #EAE9F9",
"Y.	c #70C6A1",
"Z.	c #72CAA4",
"`.	c #FCE8EA",
" +	c #F9E6E8",
".+	c #41413F",
"++	c #D76C72",
"@+	c #414141",
"#+	c #3F413E",
"$+	c #3C403F",
"%+	c #3F4140",
"&+	c #7A4853",
"*+	c #7C4B51",
"=+	c #71C7A2",
". . . . . . . . . . . . . . . . . . . . . . . . . . . . . . . . . . . . . . . . . . . . . . . . . . . . . . . . . . . . . . . . ",
". . . . . . . . . . . . . . . . . . . . . . . . . . . . . . . . . . . . . . . . . . . . . . . . . . . . . . . . . . . . . . . . ",
". . . . . . . . . . . . . . . . . . . . . . . . . . . . . . . . . . . . . . . . . . . . . . . . . . . . . . . . . . . . . . . . ",
". . . . . . . . . . . . . . . . . . . . . . . . . . . . . . . . . . . . . . . . . . . . . . . . . . . . . . . . . . . . . . . . ",
". . . . . . . . . . . . . . . . . . . . . . . . . . . . . . . . . . . . . . . . . . . . . . . . . . . . . . . . . . . . . . . . ",
". . . . . . . . . . . . . . . . . . . . . . . . . . . . . . . . . . . . . . . . . . . . . . . . . . . . . . . . . . . . . . . . ",
". . . . . . . . . . . . . . . . . . . . . . . . . . . . . . . . . . . . . . . . . . . . . . . . . . . . . . . . . . . . . . . . ",
". . . . . . . . . . . . . . . . . . . . . . . . . . . . . . . . . . . . . . . . . . . . . . . . . . . . . . . . . . . . . . . . ",
". . . . . . . . . . . . . . . . . . . . . . . . + @ . # # # # $ % . . . & . & . . . . . . . . . . . . . . . . . . . . . . . . . ",
". . . . . . . . . . . . . . . . . . . . . . . . @ + . # * # # = - - . & . . . . . . . . . . . . . . . . . . . . . . . . . . . . ",
". . . . . . . . . . . . . . . . . . . . . . . . . . . * # ; ; # # . . . > . & . . . . . . . . . . . . . . . . . . . . . . . . . ",
". . . . . . . . . . . . . . . . . . . . . . . . . . . , , ; ; # ' & @ > . . ) . . . . . . . . . . . . . . . . . . . . . . . . . ",
". . . . . . . . . . . . . . . . . . . . . . . . . . . ! # ; ; ~ { # ] + . . . . . . . . . . . . . . . . . . . . . . . . . . . . ",
". . . . . . . . . . . . . . . . . . . . . . . . . - . , ^ ~ { / ; # ( . . . . . . . . . . . . . . . . . . . . . . . . . . . . . ",
". . . . . . . . . . . . . . . . . . . . . . . . > + > ) . # # ; ; # # . . . . . . . . . . . . . . . . . . . . . . . . . . . . . ",
". . . . . . . . . . . . . . . . . . . . . . . . . . . . . # # ; ; # ^ . . . . . . . . . . . . . . . . . . . . . . . . . . . . . ",
". . . . . . . . ) . . . ) . . = . _ _ _ _ @ - . . - . . . # ^ ; ; # # # * : . < _ _ _ - . ) . . . . . . . . . . . . . . . . . . ",
". . . . . . . . ) . . . . . . ) + _ [ < _ } - . . . . @ . # # | ; # 1 ^ ] . . 2 _ _ _ 3 . @ . 4 . . . . . . . . . . . . . . . . ",
". . . . . . . . . . + . ) . . _ < ; 5 6 7 _ [ & . . . . + 8 9 ; ; ; | # 0 < _ { ; ~ ; _ _ . $ . . . . . . . . . . . . . . . . . ",
". . . . . . . . ) . . @ . . . _ _ ; ; 5 a b _ . . . . c . ^ ^ ; ; ; 5 # d _ e f / g | _ _ . . . . . . . . . . . . . . . . . . . ",
". . . . . . . . . . . @ . . . _ _ / 7 6 h ; ; _ _ : . ] ] ~ 6 ; ; , , i 2 5 ; 5 ~ ~ | 2 < . + . . . . . . . . . . . . . . . . . ",
". . . . . . . . j . > + . . . _ k ~ ; 5 / ; ; _ l . - 0 # ; 5 ; m 1 # _ i ; ; 5 5 ; ; 2 2 . . . . . . . . . . . . . . . . . . . ",
". . . . . . . . . > . . + . . , # n n { ~ ; ~ _ [ . + o ! p n ^ # q q q q { ; m ; r n # # . & . . . . . . . . . . . . . . . . . ",
". . . . . . . . . . > . . . . * # n n ; s { ; _ _ . j # 1 r t # # u q v q ; ; | ; w n # # . . . . . . . . . . . . . . . . . . . ",
". . . . . . . . . . . . + . ) # # _ _ _ _ x x ; ; _ 2 # ! , # x x y z y y A q B B C ] # # ) . . . + @ - . ) . & . . . . . . . . ",
". . . . . . . . . . > @ > . - ] # _ _ D _ x E ; F _ G # # # , x H y I y y q J B B ^ # # # . K $ . . . . L . . - . . . . . . . . ",
". . . . . . . . . . . 4 c . @ 2 _ M M N O x P / ; < _ Q R x x y S z y r T U x B B ; V 9 # ) @ . : + . - @ . ) > . . . . . . . . ",
". . . . . . . . . . > = } + . D D W W X X x x 5 5 < [ Y Z x ` y  ...y +.n x x @.#.a $.] ] . %.&.) . = @ % . - . . . . . . . . . ",
". . . . . . . . & + . 4 j 2 _ *.*.=.M -.;.>.,.5 ; b 2 Y Y x x y y '.n 6 a ).x H H !.q ~.{.].H @ & & 4 - . j @ ) . . . . . . . . ",
". . . . . . . . . . . = . b 2 ^./.(.O _.H :.B ; s _ < Y <._.x y [.}.n s ~ x x E E q q |.|.E ).1.@ . . ) . + & . . . . . . . . . ",
". . . . . . . . . . . _ _ ; / 2.3.N N X N x x B B n 4.# # 1 * ).x E 5.; F { ~ +.n 6.y J J M N x x _._.> ) > . @ . . . . . . . . ",
". . . . . . . . = . . _ < ; ; 7.7.N N N O _.x >.B n w # # 1 * x x x x ; 5 ; ; n n I 8.q A N 9.x x x x . . . . = . . . . . . . . ",
". . . . . . . . + . . 2 _ 0.y ; ; B B n n s ; ; / s | s { ; / ; ; n n x x 4.t z [.z y J u O N x ).N N a.x . - &.. . . . . . . . ",
". . . . . . . . > b.. _ _ I I ; | B B n n { ; ; / / 5 / 5 / ; 5 / '.n c.E t p y z y y q q d.d.` x O N x _.. . . . . . . . . . . ",
". . . . . . . . . . . e.- _ 2 f.g.G 2 ; ; | ; ; 5 ; ; f a h./ ; { i./ x c.y j.y [.k.l.7./.7./.O N =.9.m.x . . . . . . . . . . . ",
". . . . . . . . > . & & 4 n._ o.Y _ _ 6 ~ ; ; 6 { | ; ; ~ ; p.; ; ; ; ` H ..0.y ..q.q./.r.s.t.d.O 9.9.` u.. . . . . . . . . . . ",
". . . . . . . . ) . . ) = - > i < _ 2 < _ v.n f g 5 s 7 { ~ m ; ; | / ; w.v x.q q y.|.< 2 @.z.7.A.B.x > &.) . . . . . . . . . . ",
". . . . . . . . . . . 4 . . + G _ < _ _ _ n w / ; ; 5 C.5 a ; ; m s { 7 F D.D.q q E.F._ _ B G.H.7.5.5.. - ) & ) . . . . . . . . ",
". . . . . . . . . ) . = . - & _ _ I.Y ] 1 J.f.y y y K.g { ; ; { ; y ..y z Y R , ^ 2 _ S y ; ; T w _ G & ) . . . . . . . . . . . ",
". . . . . . . . . . > . = 4 ) _ _ Y Y # # Q Y y y y y ; ; ~ 7 ; / y y y y J.Z # # _ _ y y w.; L.n _ _ . . . @ . . . . . . . . . ",
". . . . . . . . . . . . . _ _ y y # # y y [.S N (.M.M. .y ; ; y y M.M.N N y y y y , # [... .S _ _ . . - . . . . . . . . . . . . ",
". . . . . . . . . + . > & _ _ y I # ^ y N.S O.=.P.Q.M.[...; ; y y Q.M.N N y S z I # # I I I y _ _ . . > c . . ) . . . . . . . . ",
". . . . . . . . . & . + &._ _ z y 8 # y y *.*.N N R.S...y I y y y M.T.(.O 7.7.S ..^ # 2 2 _ _ = . . . > . > . . . . . . . . . . ",
". . . . . . . . . . . @ - _ _ [.y # # y y 7.7.d.d.U.M.y I [.[.y V.W.X.P.O 2.7.y y 8 # _ _ l _ 4 4 . . . . . . . . . . . . . . . ",
". . . . . . . . . . . . . . . 2 _ ^ # Y Y y y 7.7.d.N y y N.N. .y N (.7.r.z ..Y Y ] # Y.% : - &.Z.. . @ . & . . . . . . . . . . ",
". . . . . . . . @ . . . . . ) _ _ # # Y Y  .y 7.2.O N y y y  . .`.M d.2.7.[.[.Y Y # ^ . . @ + . . & . + > + &.. . . . . . . . . ",
". . . . . . . . . . - . + + . . . + > [ _ Q Y y y [. .y y x ).y y y K. +y Y f._ _ . . 4 % > & . . . . . . . . . . . . . . . . . ",
". . . . . . . . . . . . @ @ . . . . - _ _ Z Y y I z y y y x x y y y y y y I.Y _ _ . - ) ) . . ) . @ - . @ . . 3 . . . . . . . . ",
". . . . . . . . . . . . . . . . - . . > . _ _ _ _ q q R R Y Y f.Y q q _ _ _ _ # # . . + - . - . . . . . . . . . . . . . . . . . ",
". . . . . . . . . . . . . . . . . . . ) - 2 _ < _ .+q Y Q Q Y Y Q q q _ _ G _ ^ 1 . . . . . . . . . . . . . . . . . . . . . . . ",
". . . . . . . . . . . . . . . . . . @ . @ u q j.y ~ ; w n ] # ++L.{ ; V.y @+J _ _ . . + ) . . . . . . . . . . . . . . . . . . . ",
". . . . . . . . . . . . . . . . . . . @ . #+q ..y { { 4.'.# ( 4.v.5 5 y y A $+_ _ . . : 4 . . . . . . . . . . . . . . . . . . . ",
". . . . . . . . . . . . . . . . ) ) . - 1.. . J %+&+8 ^ ^ b _ # # *+# %+J 1 ^ ) > . . . % - . + . . . . . . . . . . . . . . . . ",
". . . . . . . . . . . . . . . . . . & 4 - . . q u # 0 # 8 _ _ * ! 8 # q q * * . - . @ ) & . . & . . . . . . . . . . . . . . . . ",
". . . . . . . . . . . . . . . . . . . . ) - . ) . < 2 _ _ . . ) . . . . . - ) @ $ . ) . =+& . . . . . . . . . . . . . . . . . . ",
". . . . . . . . . . . . . . . . - . . . . . . . . _ _ < _ . . . . - . . . . . . - ) . @ . . . + . . . . . . . . . . . . . . . . ",
". . . . . . . . . . . . . . . . . . . . . . . . . . . . . . . . . . . . . . . . . . . . . . . . . . . . . . . . . . . . . . . . ",
". . . . . . . . . . . . . . . . . . . . . . . . . . . . . . . . . . . . . . . . . . . . . . . . . . . . . . . . . . . . . . . . ",
". . . . . . . . . . . . . . . . . . . . . . . . . . . . . . . . . . . . . . . . . . . . . . . . . . . . . . . . . . . . . . . . ",
". . . . . . . . . . . . . . . . . . . . . . . . . . . . . . . . . . . . . . . . . . . . . . . . . . . . . . . . . . . . . . . . ",
". . . . . . . . . . . . . . . . . . . . . . . . . . . . . . . . . . . . . . . . . . . . . . . . . . . . . . . . . . . . . . . . ",
". . . . . . . . . . . . . . . . . . . . . . . . . . . . . . . . . . . . . . . . . . . . . . . . . . . . . . . . . . . . . . . . ",
". . . . . . . . . . . . . . . . . . . . . . . . . . . . . . . . . . . . . . . . . . . . . . . . . . . . . . . . . . . . . . . . ",
". . . . . . . . . . . . . . . . . . . . . . . . . . . . . . . . . . . . . . . . . . . . . . . . . . . . . . . . . . . . . . . . "};
