/* XPM */
static char * sylveon_sx_xpm[] = {
"64 64 172 2",
"  	c None",
". 	c #70C8A0",
"+ 	c #7B4952",
"@ 	c #784951",
"# 	c #7A4851",
"$ 	c #7C4B51",
"% 	c #7C4854",
"& 	c #F68CA3",
"* 	c #F88EA4",
"= 	c #78494F",
"- 	c #7B4A50",
"; 	c #6EC9A0",
"> 	c #F78DA4",
", 	c #F88CA3",
"' 	c #7B4954",
") 	c #70C89E",
"! 	c #F68EA5",
"~ 	c #F78DA3",
"{ 	c #F58DA4",
"] 	c #784953",
"^ 	c #F78CA6",
"/ 	c #71C9A1",
"( 	c #6FC79F",
"_ 	c #000000",
": 	c #000002",
"< 	c #71C7A0",
"[ 	c #010101",
"} 	c #70C8A2",
"| 	c #7C4952",
"1 	c #000100",
"2 	c #F88CA4",
"3 	c #7C4A53",
"4 	c #F88EA5",
"5 	c #F58DA6",
"6 	c #F88CA6",
"7 	c #794A52",
"8 	c #794A54",
"9 	c #FEFEFC",
"0 	c #FFFFFF",
"a 	c #D56C73",
"b 	c #D76C74",
"c 	c #D66B73",
"d 	c #404040",
"e 	c #3F4140",
"f 	c #414141",
"g 	c #6FC7A1",
"h 	c #D56A72",
"i 	c #5B7CB1",
"j 	c #D66B75",
"k 	c #687176",
"l 	c #687178",
"m 	c #FAE8E8",
"n 	c #FAE7E9",
"o 	c #6FC79D",
"p 	c #71C99F",
"q 	c #597DB1",
"r 	c #5B7CAF",
"s 	c #D76C76",
"t 	c #D66B71",
"u 	c #F68EA7",
"v 	c #7C4A55",
"w 	c #FBE7E8",
"x 	c #FBE9E9",
"y 	c #72C8A1",
"z 	c #71C7A2",
"A 	c #71C89E",
"B 	c #020001",
"C 	c #667175",
"D 	c #677077",
"E 	c #E8AEAD",
"F 	c #E9ADAD",
"G 	c #686F77",
"H 	c #FBE7E6",
"I 	c #D86B71",
"J 	c #697279",
"K 	c #5A7BB0",
"L 	c #7B484F",
"M 	c #71C9A3",
"N 	c #69727B",
"O 	c #FBE7E9",
"P 	c #D56B75",
"Q 	c #68717A",
"R 	c #5C7CAF",
"S 	c #5FB7FF",
"T 	c #5EB6FE",
"U 	c #5BB6FD",
"V 	c #5DB5FD",
"W 	c #666F76",
"X 	c #E9ADAF",
"Y 	c #697076",
"Z 	c #414143",
"` 	c #67717A",
" .	c #677278",
"..	c #010000",
"+.	c #5CB7FE",
"@.	c #F48CA3",
"#.	c #6EC8A2",
"$.	c #6FCAA1",
"%.	c #3196FE",
"&.	c #3095FF",
"*.	c #5FB5FF",
"=.	c #F68CA2",
"-.	c #D86A73",
";.	c #FBE8EA",
">.	c #3196FF",
",.	c #5EB6FF",
"'.	c #D76972",
").	c #697078",
"!.	c #F9E6E8",
"~.	c #5DB4FF",
"{.	c #F9E7E7",
"].	c #413F40",
"^.	c #3398FF",
"/.	c #5FB5FE",
"(.	c #3F4042",
"_.	c #5B7CB2",
":.	c #F68BA5",
"<.	c #597CB2",
"[.	c #70C69F",
"}.	c #40403E",
"|.	c #42413F",
"1.	c #5D7BB1",
"2.	c #667177",
"3.	c #FAE8E6",
"4.	c #F8E8E8",
"5.	c #3F3F3D",
"6.	c #3F3F3F",
"7.	c #3297FF",
"8.	c #5BB6FF",
"9.	c #F88DA7",
"0.	c #F98DA5",
"a.	c #FEFFFF",
"b.	c #D56A70",
"c.	c #69707A",
"d.	c #6C707B",
"e.	c #6DC89F",
"f.	c #D66D74",
"g.	c #FEFEFE",
"h.	c #F7E7E7",
"i.	c #E9ABAC",
"j.	c #E9E8F8",
"k.	c #E8E7F9",
"l.	c #E7E8FA",
"m.	c #5DB5FF",
"n.	c #7A4853",
"o.	c #3198FF",
"p.	c #EAE7F8",
"q.	c #F8E8E9",
"r.	c #60B6FF",
"s.	c #000201",
"t.	c #72C8A3",
"u.	c #3097FE",
"v.	c #F8E9E6",
"w.	c #EAE9F9",
"x.	c #E9ADAC",
"y.	c #FAE6E7",
"z.	c #EAACAD",
"A.	c #F9E9EA",
"B.	c #E8ACAC",
"C.	c #6EC99E",
"D.	c #68707B",
"E.	c #3F3F41",
"F.	c #EAAEAE",
"G.	c #E9ACAB",
"H.	c #7A4B55",
"I.	c #D46B72",
"J.	c #3F413E",
"K.	c #7B4753",
"L.	c #7D4A53",
"M.	c #3E403F",
"N.	c #404042",
"O.	c #7A4B53",
". . . . . . . . . . . . . . . . . . . . . . . . . . . . . . . . . . . . . . . . . . . . . . . . . . . . . . . . . . . . . . . . ",
". . . . . . . . . . . . . . . . . . . . . . . . . . . . . . . . . . . . . . . . . . . . . . . . . . . . . . . . . . . . . . . . ",
". . . . . . . . . . . . . . . . . . . . . . . . . . . . . . . . . . . . . . . . . . . . . . . . . . . . . . . . . . . . . . . . ",
". . . . . . . . . . . . . . . . . . . . . . . . . . . . . . . . . . . . . . . . . . . . . . . . . . . . . . . . . . . . . . . . ",
". . . . . . . . . . . . . . . . . . . . . . . . . . . . . . . . . . . . . . . . . . . . . . . . . . . . . . . . . . . . . . . . ",
". . . . . . . . . . . . . . . . . . . . . . . . . . . . . . . . . . . . . . . . . . . . . . . . . . . . . . . . . . . . . . . . ",
". . . . . . . . . . . . . . . . . . . . . . . . . . . . . . . . . . . . . . . . . . . . . . . . . . . . . . . . . . . . . . . . ",
". . . . . . . . . . . . . . . . . . . . . . . . . . . . . . . . . . . . . . . . . . . . . . . . . . . . . . . . . . . . . . . . ",
". . . . . . . . . . . . . . . . . . . . . . . . + + + + . . . . . . . . . . . . . . . . . . . . . . . . . . . . . . . . . . . . ",
". . . . . . . . . . . . . . . . . . . . . . . . @ # $ % . . . . . . . . . . . . . . . . . . . . . . . . . . . . . . . . . . . . ",
". . . . . . . . . . . . . . . . . . . . . . . . + + & * = - ; . . . . . . . . . . . . . . . . . . . . . . . . . . . . . . . . . ",
". . . . . . . . . . . . . . . . . . . . . . . . + + > , ' % ) ) . . . . . . . . . . . . . . . . . . . . . . . . . . . . . . . . ",
". . . . . . . . . . . . . . . . . . . . . . . . + + > ! ~ { ] ' . . . . . . . . . . . . . . . . . . . . . . . . . . . . . . . . ",
". . . . . . . . . . . . . . . . . . . . . . . . + $ > ~ ^ > - - . . . . . . . . . . . . . . . . . . . . . . . . . . . . . . . . ",
". . . . . . . . . . . . . . . . . . . . . . . . . / + + > ~ - + . . . . . . . . . . . . . . . . . . . . . . . . . . . . . . . . ",
". . . . . . . . . . . . . . . . . . . . . . . . . . + + > > + + . . . . . . . . . . . . . . . . . . . . . . . . . . . . . . . . ",
". . . . . . . . ( . . ( . . / . _ _ _ _ . . . . . . + ' > > + + + + / / . ) : _ _ _ < . < . . . . . . . . . . . . . . . . . . . ",
". . . . . . . . . . . . . . . ( _ _ [ _ . } . } . . + + > > + | + + } . } . _ [ 1 _ . / < . ( . . . . . . . . . . . . . . . . . ",
". . . . . . . . . . . ; . . _ _ > > & 2 _ [ . . . . + 3 > 4 5 ^ - ' . } _ _ > & 4 > [ _ . < < . . . . . . . . . . . . . . . . . ",
". . . . . . . . . . ; . . < _ _ 2 6 4 ^ : : . . . . + + & > ~ ~ 3 + . < : : > ! > 2 _ _ . . } . . . . . . . . . . . . . . . . . ",
". . . . . . . . / . < ; . . _ _ { ! & { & > _ _ . . + 7 4 4 8 8 9 0 _ : > > > & { { [ : . } ( . . . . . . . . . . . . . . . . . ",
". . . . . . . . . ; . . . . : [ > > > 6 > & _ _ . . | # > { - - 0 0 _ _ ^ > ^ > > > _ _ . . . . . . . . . . . . . . . . . . . . ",
". . . . . . . . . . . . . } + + a b ~ ~ > > : _ / . 7 + c b + + d e f d ~ > > > b c + + . g . . . . . . . . . . . . . . . . . . ",
". . . . . . . . . . . . . } + + h c { > 4 > _ _ < . - - c c + + d e d d > > > > b c + + . . . . . . . . . . . . . . . . . . . . ",
". . . . . . . . . . . . . . + + + + i i c j > > _ _ - + + + k l m m m n d d i i + + + + . ( . o ; . ) . . . p . . . . . . . . . ",
". . . . . . . . . . / . ( . | + | + q r s t u > [ _ + # v ' l l m w x n d d i i + + 8 3 < y < . / . . ) } ( . . . . . . . . . . ",
". . . . . . . . z < ( ; A ) + + B _ _ _ C D 2 > _ _ E F G l w H m x I t l J K i > > + L . ( / M < . < } ) . . . . . . . . . . . ",
". . . . . . . . . } } M < . ' ' _ _ : [ N J > > _ _ F F l l m m O m P j l Q R r & & 7 8 M / < < y / M / . . . . . . . . . . . . ",
". . . . . . . . } . o ( _ _ _ _ S T U V W D > > [ _ F X l l m m t t ~ ~ Y l Q Q f Z . < . . `  .. ( o . . . . . . . . . . . . . ",
". . . . . . . . . . . / ..[ : _ +.T S T Q Q > 4 _ _ F F l k m m c h { @.l  .l l d e . #.. . l l } . . . } $.. . . . . . . . . . ",
". . . . . . . . . ; _ _ > > %.&.*.T l l > > K K c t v | + + l l l k > > =.> t -.;.m d d D l T +.D D D l . . . . . . . . . . . . ",
". . . . . . . . . . _ _ > > >.>.T ,.l l 4 & i i c '.+ + + + l l l ).> { > 2 c c m !.d d l J *.*.l l ).l . . } . . . . . . . . . ",
". . . . . . . . . . _ _ 4 2 >.>.T V ~.T l l > > > ~ & > > > > > c c l l c j m m {.m ].].l l T S l l T T l l . . . . . . . . . . ",
". . . . . . . . . . _ : > > ^.>.T T T ,.J l > > > ~ > > > > > ~ c b ).J c c {.m O {.d e l l T /.l l S T l l < . . . . . . . . . ",
". . . . . . . . . / M . [ _ e (._.q ~ > 2 > > > ^ > ^ > & 4 > :.> > l ).m m m m e Z _ _ <.K >.>.T T T *.l ).. . . . . . . . . . ",
". . . . . . . . . ( [./ [ _ }.|.i 1.^ 2 5 4 > 2 > ~ > > > & ^ > 4 > ` 2.3.m 4.m 5.6.[ : R i 7.7.S S +.8.l D / / . . . . . . . . ",
". . . . . . . . . . / . / . #.; : : _ _ t h 9.> > ^ & 4 & 4 > > > > 2 0.j c d d 0 a.[ _ > > b.c &.&.c.d.; / . . . . . . . . . . ",
". . . . . . . . . . e.. < . < . _ _ _ _ c c 4 { > > { { > > > > 0.2 5 :.f.-.f ].g.9 _ _ ~ , b b >.>.l Q } ( . . . . . . . . . . ",
". . . . . . . . . < / . . e._ 1 m h.7 # F E m m m x > > & > 2 > m n w m i.F + + _ _ m w m 3.c c : _ } } . . $.) . . . . . . . . ",
". . . . . . . . . . . ( ( ( _ _ m m + - X F w m ;.m > > > > > > m m m m F F # + _ _ m 3.m m c b _ _ . . } . . . . . . . . . . . ",
". . . . . . . . . . . . _ _ 4.m + ' m m m m ,.T j.j.m 3.4 ~ m w j.k.T T x m n m + + n m m m _ _ . . . . . . . . . . . . . . . . ",
". . . . . . . . . . / . _ _ m m ' + w 3.w m T *.j.j.3.m > ~ m n l.j.m.T n {.w m ' n.m m ;.m _ _ . . . . . . . . . . . . . . . . ",
". . . . . . . . . . _ _ m m m x | + m m o.7.S S p.j.w q.w n m m p.p.r.S >.%.4.3.+ + _ s._ s.t.. . . . . . . . . . . . . . . . . ",
". . . . . . . . . / _ _ m m m m ' v m 4.%.u.m.T j.j.m 3.q.v.m m w.j.8.T &.%.m m + + .._ _ ..o o . . . . . . . . . . . . . . . . ",
". . . . . . . . . . _ _ m m F F + + F x.m m 7.7.*.T m n w y.w m m.*.>.7.3.m F F + + . $.. g / #.. . . . . . . . . . . . . . . . ",
". . . . . . . . . . _ _ m m F F 3 3 z.E w 3.>.>.T ,.x 3.A.4.m m ,.,.u.o.m 3.F B.3 3 . . . < ) ( . . . . . . . . . . . . . . . . ",
". . . . . . . . . . . C._ _ 1 _ } / [ [ F X m x m m 4.n l ).3.m m m m w F F [ _ . . . . . ( / . . . . . . . . . . . . . . . . . ",
". . . . . . . . . . / . _ _ _ [ . . : _ F F m m m {.w 3.D.J 4.m m m m 3.X X _ _ . . . . . ; p . . . . . . . . . . . . . . . . . ",
". . . . . . . . . . . . . . . . . . + + _ _ _ _ d E.F F F F.F F d 6._ _ _ [ < . . . . . . . . . . . . . . . . . . . . . . . . . ",
". . . . . . . . . . . . . . . . . / | ' .._ _ _ d d F F z.G.F F d ]._ _ _ _ . . . . . . . . . . . . . . . . . . . . . . . . . . ",
". . . . . . . . . . . . . . . . . ( s._ e }.m x & 4 c b 7 H.t j ^ ^ x m d d . . . . . . . . . . . . . . . . . . . . . . . . . . ",
". . . . . . . . . . . . . . . . . / ..: 6.e y.w > :.h I.| + c c , , y.x 6.e . . . . . . . . . . . . . . . . . . . . . . . . . . ",
". . . . . . . . . . . . . . . . . . ; ) 3 | J.e + - 3 3 _ _ K.L.' ' f M./ o / . . . . . . . . . . . . . . . . . . . . . . . . . ",
". . . . . . . . . . . . . . . . } . } / # + N.6.+ ' + n._ _ O.7 7 + 6.f < y < . . . . . . . . . . . . . . . . . . . . . . . . . ",
". . . . . . . . . . . . . . . . . . ; . / t.. . < . . ; } ) _ _ _ _ . o . A . . . . . . . . . . . . . . . . . . . . . . . . . . ",
". . . . . . . . . . . . . . . . . ; / . . . z . . . #.} . . _ _ _ _ . ; . . . ; . . . . . . . . . . . . . . . . . . . . . . . . ",
". . . . . . . . . . . . . . . . . . . . . . . . . . . . . . . . . . . . . . . . . . . . . . . . . . . . . . . . . . . . . . . . ",
". . . . . . . . . . . . . . . . . . . . . . . . . . . . . . . . . . . . . . . . . . . . . . . . . . . . . . . . . . . . . . . . ",
". . . . . . . . . . . . . . . . . . . . . . . . . . . . . . . . . . . . . . . . . . . . . . . . . . . . . . . . . . . . . . . . ",
". . . . . . . . . . . . . . . . . . . . . . . . . . . . . . . . . . . . . . . . . . . . . . . . . . . . . . . . . . . . . . . . ",
". . . . . . . . . . . . . . . . . . . . . . . . . . . . . . . . . . . . . . . . . . . . . . . . . . . . . . . . . . . . . . . . ",
". . . . . . . . . . . . . . . . . . . . . . . . . . . . . . . . . . . . . . . . . . . . . . . . . . . . . . . . . . . . . . . . ",
". . . . . . . . . . . . . . . . . . . . . . . . . . . . . . . . . . . . . . . . . . . . . . . . . . . . . . . . . . . . . . . . ",
". . . . . . . . . . . . . . . . . . . . . . . . . . . . . . . . . . . . . . . . . . . . . . . . . . . . . . . . . . . . . . . . "};
