/* XPM */
static char * umbreon_rx_xpm[] = {
"64 64 127 2",
"  	c None",
". 	c #70C8A0",
"+ 	c #6FC79F",
"@ 	c #72C8A1",
"# 	c #6FC7A1",
"$ 	c #182838",
"% 	c #192939",
"& 	c #70C8A2",
"* 	c #71C7A0",
"= 	c #1A2738",
"- 	c #6EC9A0",
"; 	c #6FCAA1",
"> 	c #1A2737",
", 	c #182837",
"' 	c #687178",
") 	c #677079",
"! 	c #172838",
"~ 	c #71C9A1",
"{ 	c #697277",
"] 	c #687176",
"^ 	c #6FCA9F",
"/ 	c #6EC99E",
"( 	c #70C89E",
"_ 	c #71C9A3",
": 	c #697076",
"< 	c #68717A",
"[ 	c #162737",
"} 	c #71C7A2",
"| 	c #18273A",
"1 	c #E1AF28",
"2 	c #E0B028",
"3 	c #E1AF2A",
"4 	c #E0B229",
"5 	c #677077",
"6 	c #67717A",
"7 	c #E0B127",
"8 	c #697279",
"9 	c #6EC8A2",
"0 	c #B08011",
"a 	c #B0810F",
"b 	c #B08012",
"c 	c #19283B",
"d 	c #677075",
"e 	c #B18112",
"f 	c #AF7F10",
"g 	c #172737",
"h 	c #6DC89F",
"i 	c #6FC79D",
"j 	c #17283A",
"k 	c #172736",
"l 	c #677278",
"m 	c #697078",
"n 	c #71C99F",
"o 	c #6FC9A3",
"p 	c #000000",
"q 	c #000002",
"r 	c #6FC89C",
"s 	c #70C79D",
"t 	c #6A7179",
"u 	c #70C7A4",
"v 	c #010101",
"w 	c #192938",
"x 	c #404950",
"y 	c #414A53",
"z 	c #70C69F",
"A 	c #F7D859",
"B 	c #F7D957",
"C 	c #414A4F",
"D 	c #667175",
"E 	c #69727B",
"F 	c #FAD85C",
"G 	c #F9D759",
"H 	c #010103",
"I 	c #020001",
"J 	c #182A38",
"K 	c #3F4851",
"L 	c #40494E",
"M 	c #1B283B",
"N 	c #AF8111",
"O 	c #687379",
"P 	c #3F484F",
"Q 	c #404751",
"R 	c #162836",
"S 	c #B28011",
"T 	c #414A51",
"U 	c #72CAA4",
"V 	c #667079",
"W 	c #172639",
"X 	c #F8D95A",
"Y 	c #700807",
"Z 	c #71090A",
"` 	c #710908",
" .	c #1A273A",
"..	c #434A52",
"+.	c #D01818",
"@.	c #D0181A",
"#.	c #EBE8FB",
"$.	c #E9E8F8",
"%.	c #686F77",
"&.	c #B2800F",
"*.	c #CF181A",
"=.	c #42494F",
"-.	c #D11919",
";.	c #E8E7F9",
">.	c #EAE7FA",
",.	c #F7D85B",
"'.	c #D11917",
").	c #010100",
"!.	c #000100",
"~.	c #710707",
"{.	c #710805",
"].	c #6F0706",
"^.	c #700809",
"/.	c #667177",
"(.	c #293740",
"_.	c #273840",
":.	c #1B2839",
"<.	c #815808",
"[.	c #825909",
"}.	c #3F4A50",
"|.	c #805707",
"1.	c #815806",
"2.	c #414850",
"3.	c #020100",
"4.	c #6DC7A1",
"5.	c #71C89E",
"6.	c #010000",
". . . . . . . . . . . . . . . . . . . . . . . . . . . . . . . . . . . . . . . . . . . . . . . . . . . . . . . . . . . . . . . . ",
". . . . . . . . . . . . . . . . . . . . . . . . . . . . . . . . . . . . . . . . . . . . . . . . . . . . . . . . . . . . . . . . ",
". . . . . . . . . . . . . . . . . . . . . . . . . . . . . . . . . . . . . . . . . . . . . . . . . . . . . . . . . . . . . . . . ",
". . . . . . . . . . . . . . . . . . . . . . . . . . . . . . . . . . . . . . . . . . . . . . . . . . . . . . . . . . . . . . . . ",
". . . . . . . . . . . . . . . . . . . . . . . . . . . . . . . . . . . . . . . . . . . . . . . . . . . . . . . . . . . . . . . . ",
". . . . . . . . . . . . . . . . . . . . . . . . . . . . . . . . . . . . . . . . . . . . . . . . . . . . . . . . . . . . . . . . ",
". . . . . . . . . . . . . . . . . . . . . . . . . . . . . . . . . . . . . . . . . . . . . . . . . . . . . . . . . . . . . . . . ",
". . . . . . . . . . . . . . . . . . . . . . . . . . . . . . . . . . . . . . . . . . . . . . . . . . . . . . . . . . . . . . . . ",
". . . . . . . . . . . . . . . . . . . . . . . . . + @ # . . . . . $ $ $ % . . . . . . . . . . . . . . . . . . . . . . . . . . . ",
". . . . . . . . . . . . . . . . . . . . . . . . & . . . * . . . + $ = % = & . . . . . . . . . . . . . . . . . . . . . . . . . . ",
". . . . . . . . . . . . . . . . . . . . . . . . . . . - + . ; > , ' ) , ! . & . . . . . . . . . . . . . . . . . . . . . . . . . ",
". . . . . . . . . . . . . . . . . . . . . . . . . * . ~ + - - $ $ { ] % $ ^ / . . . . . . . . . . . . . . . . . . . . . . . . . ",
". . . . . . . . . . . . . . . . . . . . . . . . . . . ( _ $ $ ] : ) < , [ } # . . . . . . . . . . . . . . . . . . . . . . . . . ",
". . . . . . . . . . . . . . . . . . . . . . . . . . . * - | $ ' ' ] ' $ > - ( . . . . . . . . . . . . . . . . . . . . . . . . . ",
". . . . . . . . . . . . . . . . . . . . . . . . . . & . _ $ | 1 2 3 4 5 6 = $ . . . . . . . . . . . . . . . . . . . . . . . . . ",
". . . . . . . . . . . . . . . . . . . . . . . . . . . ( . $ $ 2 2 2 7 6 8 $ $ ( . . . . . . . . . . . . . . . . . . . . . . . . ",
". . . . . . . . & ( * + 9 . . . & . . . ~ . & . ~ . . $ $ 0 a ' ' ] ' b a $ ! . . & . ~ . . . & . . . 9 + * ( & . . . . . . . . ",
". . . . . . . . . . . ~ . . ~ ~ . . . ( _ . . . . . & $ c 0 0 ' 5 5 d e f | g * . . . _ ( . . . ~ ~ . . ~ . . . . . . . . . . . ",
". . . . . . . . & . . ( - . . * . # + h i ~ . . ~ . . j k < 5 ' l m < > ! ( n . . . ~ i h + # . * . . - ( . . & . . . . . . . . ",
". . . . . . . . . & . } ( . * . - ~ _ o _ ( . i & . . , = l ' ' ' < l % | & * . i . ( _ o _ ~ - . * . ( } . & . . . . . . . . . ",
". . . . . . . . * . . ( & p p p q r + i s . . . . . - & - $ $ ' ' t ' > $ / ( ~ . . . s i + r q p p p & ( . . * . . . . . . . . ",
". . . . . . . . . . . u - p v p q _ @ . . . ( . & . . . @ ! w 8 8 t d c = . . . . ( . . . @ _ q p v p - u . . . . . . . . . . . ",
". . . . . . . . . * ~ ( . v p ' < p p p p . . . . . . . . $ ! x x $ | ( . / . . . . . p p p p < ' p v . ( ~ * . . . . . . . . . ",
". . . . . . . . . . . . - q p ' ) q p p p . . . * . * 9 . $ $ y x , $ ( . . . . . . . p p p q ) ' p q - . . . . . . . . . . . . ",
". . . . . . . . . ( . . . p p ' ' 5 ' < ] p p . . . . $ | ! $ $ $ $ ! | $ . . . . p p ] < ' 5 ' ' p p . . . ( . . . . . . . . . ",
". . . . . . . . . . . . . p p ' ' ' ' 5 ] p p z ~ . ~ $ $ $ | % % | $ $ $ ~ . ~ z p p ] 5 ' ' ' ' p p . . . . . . . . . . . . . ",
". . . . . . . . . . . _ * p p < < d 5 A B A A p p ! g C x ] ' ] ] ' ] x C g ! p p A A B A 5 d < < p p * _ . . . . . . . . . . . ",
". . . . . . . . . . & ( * p p D ' E < A F G A H I w J K L 8 { { { { 8 L K J w I H A G F A < E ' D p p * ( & . . . . . . . . . . ",
". . . . . . . . . . ( & i & . c M A A N a O O p p P Q { < p q p p q p < { Q P p p O O a N A A M c . & i & ( . . . . . . . . . . ",
". . . . . . . . . . + ( . . _ R $ A A 0 S ] ' p p T C 5 ] p p v v p p ] 5 C T p p ' ] S 0 A A $ R _ . . ( + . . . . . . . . . . ",
". . . . . . . . . . . . . . . $ $ l ' ' ' ' ' ' ' p p $ $ ' l 5 5 l ' $ $ p p ' ' ' ' ' ' ' l $ $ . . . . . . . . . . . . . . . ",
". . . . . . . . . & . . . - * $ $ ' ' m ' ' < ' ' p p $ | : ) ' ' ) : | $ p p ' ' < ' ' m ' ' $ $ * - . . . & . . . . . . . . . ",
". . . . . . . . . . . . . . . . * p p ' ' ' ' ' ' | $ 6 ' ' ' ' ' ' ' ' 6 $ | ' ' ' ' ' ' p p * . . . . . . . . . . . . . . . . ",
". . . . . . . . . . . . . . . . . p p ] { ' ' 5 ' , , ] ' ' m ' ' m ' ' ] , , ' 5 ' ' { ] p p . . . . . . . . . . . . . . . . . ",
". . . . . . . . . . . . . . . . . U . p p V ' ' ' 8 ' ' ' ' D ] ] D ' ' ' ' 8 ' ' ' V p p . U . . . . . . . . . . . . . . . . . ",
". . . . . . . . . . . . . . . . . s . p v { ' ' ' ' ' ' ' ' m < < m ' ' ' ' ' ' ' ' { v p . s . . . . . . . . . . . . . . . . . ",
". . . . . . . . . . . . . . . . . o * _ * $ W ' l ' 5 8 ' b N X X N b ' 8 5 ' l ' W $ * _ * o . . . . . . . . . . . . . . . . . ",
". . . . . . . . . . . . . . . . . i . - . $ , 8 8 ' < ' ' a 0 A A 0 a ' ' < ' 8 8 , $ . - . i . . . . . . . . . . . . . . . . . ",
". . . . . . . . . . . . . . . . . ~ . $ | ' ' x x ' O ' ' A A 8 8 A A ' ' O ' x x ' ' | $ . ~ . . . . . . . . . . . . . . . . . ",
". . . . . . . . . . . . . . . . . . . | g ' 5 P T ' ' ' < A G ' ' G A < ' ' ' T P 5 ' g | . . . . . . . . . . . . . . . . . . . ",
". . . . . . . . . . . . . . . . . . ~ g $ ' ' Y Y Z Y ' ' A A ' ' A A ' ' Y Z Y ` ' ' % ! . . . . . . . . . . . . . . . . . . . ",
". . . . . . . . . . . . . . . . . i .  .$ 5 l Y Y Y Y l 5 A A ' ' A A 5 l Y Y Y Y ' l | | . * . . . . . . . . . . . . . . . . . ",
". . . . . . . . . . . . . . . . . . . p p C ..+.@.#.$.%.{ &.S A A S &.{ %.$.#.@.*.=.C W $ . . . . . . . . . . . . . . . . . . . ",
". . . . . . . . . . . . . . . . . . . H p x L -.+.;.>.l 6 N 0 ,.,.0 N 6 l >.;.+.'.x P , c . * - . . . . . . . . . . . . . . . . ",
". . . . . . . . . . . . . . . . . . . + ( q v ' < ).!.~.{.: : m m : : {.~.!.).< < p q . + . . . . . . . . . . . . . . . . . . . ",
". . . . . . . . . . . . . . . . . . ~ & . q p ' ' p q ].^.5 ' < < ' 5 ^.].q p ' l v q - & ( . & . . . . . . . . . . . . . . . . ",
". . . . . . . . . . . . . . . . ~ & . . . $ $ p p /.' E ' 8 ] (.(.] 8 ' E ' /.p p $ $ . . . - . . . . . . . . . . . . . . . . . ",
". . . . . . . . . . . . . . . . . . . . . $ $ p H ' ' ) 5 ' ' _._.' ' 5 ) ' ' H p $ $ . . . . ~ . . . . . . . . . . . . . . . . ",
". . . . . . . . . . . . . . . . . . # ~ * :.$ <.[.p p p v x x x }.x }.p p p p g c . . . . ~ . . . . . . . . . . . . . . . . . . ",
". . . . . . . . . . . . . . . . . + . - . $ = |.1.p q q p P x x x x x v p q p  .$ . . h . . . . . . . . . . . . . . . . . . . . ",
". . . . . . . . . . . . . . . . ~ . . ~ z * n $ [ T x 2.P p q p v p p x x }.x v p ( - * . . . . . . . . . . . . . . . . . . . . ",
". . . . . . . . . . . . . . . . ~ 9 . . _ . . $ $ x x P x p p 3.I 3.p 2.2.2.P q p . . + ( . . . . . . . . . . . . . . . . . . . ",
". . . . . . . . . . . . . . . . & + . . & / . ! j 2.x v p . 4.h - h + p p p v . n . . . - . . . . . . . . . . . . . . . . . . . ",
". . . . . . . . . . . . . . . . . . ( ~ . . & $ $ x x p v ( 5.~ n 5.@ p v p p . ; . . / ~ & . . . . . . . . . . . . . . . . . . ",
". . . . . . . . . . . . . . . . . . . ( . ~ ; . . 6.q v v . - + . . . . . ( . . ; . . . + . - . . . . . . . . . . . . . . . . . ",
". . . . . . . . . . . . . . . . . - . ( . . * . . p p p p ~ ( ( . . . ( ~ . . . n . . . ~ + + . . . . . . . . . . . . . . . . . ",
". . . . . . . . . . . . . . . . . . . . . . . . . . . . . . . . . . . . . . . . . . . . . . . . . . . . . . . . . . . . . . . . ",
". . . . . . . . . . . . . . . . . . . . . . . . . . . . . . . . . . . . . . . . . . . . . . . . . . . . . . . . . . . . . . . . ",
". . . . . . . . . . . . . . . . . . . . . . . . . . . . . . . . . . . . . . . . . . . . . . . . . . . . . . . . . . . . . . . . ",
". . . . . . . . . . . . . . . . . . . . . . . . . . . . . . . . . . . . . . . . . . . . . . . . . . . . . . . . . . . . . . . . ",
". . . . . . . . . . . . . . . . . . . . . . . . . . . . . . . . . . . . . . . . . . . . . . . . . . . . . . . . . . . . . . . . ",
". . . . . . . . . . . . . . . . . . . . . . . . . . . . . . . . . . . . . . . . . . . . . . . . . . . . . . . . . . . . . . . . ",
". . . . . . . . . . . . . . . . . . . . . . . . . . . . . . . . . . . . . . . . . . . . . . . . . . . . . . . . . . . . . . . . ",
". . . . . . . . . . . . . . . . . . . . . . . . . . . . . . . . . . . . . . . . . . . . . . . . . . . . . . . . . . . . . . . . "};
