/* XPM */
static char * umbreon_sx_xpm[] = {
"64 64 128 2",
"  	c None",
". 	c #70C8A0",
"+ 	c #192939",
"@ 	c #182838",
"# 	c #6FC7A1",
"$ 	c #72C8A1",
"% 	c #6FC79F",
"& 	c #70C8A2",
"* 	c #1A2738",
"= 	c #71C7A0",
"- 	c #172838",
"; 	c #182837",
"> 	c #677079",
", 	c #687178",
"' 	c #6FCAA1",
") 	c #70C69F",
"! 	c #6EC9A0",
"~ 	c #6EC99E",
"{ 	c #6FCA9F",
"] 	c #687176",
"^ 	c #697277",
"/ 	c #71C9A1",
"( 	c #71C7A2",
"_ 	c #162737",
": 	c #68717A",
"< 	c #697076",
"[ 	c #71C9A3",
"} 	c #70C89E",
"| 	c #1A2737",
"1 	c #1A273A",
"2 	c #67717A",
"3 	c #677077",
"4 	c #E0B229",
"5 	c #E1AF2A",
"6 	c #E0B028",
"7 	c #E1AF28",
"8 	c #18273A",
"9 	c #697279",
"0 	c #E0B127",
"a 	c #6EC8A2",
"b 	c #B0810F",
"c 	c #B08012",
"d 	c #B08011",
"e 	c #172737",
"f 	c #AF7F10",
"g 	c #B18112",
"h 	c #677075",
"i 	c #19283B",
"j 	c #6DC89F",
"k 	c #6FC79D",
"l 	c #71C99F",
"m 	c #697078",
"n 	c #172736",
"o 	c #17283A",
"p 	c #6FC9A3",
"q 	c #677278",
"r 	c #000000",
"s 	c #000002",
"t 	c #6FC89C",
"u 	c #70C79D",
"v 	c #6A7179",
"w 	c #70C7A4",
"x 	c #010101",
"y 	c #192938",
"z 	c #404950",
"A 	c #414A53",
"B 	c #F7D859",
"C 	c #F7D957",
"D 	c #414A4F",
"E 	c #667175",
"F 	c #69727B",
"G 	c #FAD85C",
"H 	c #F9D759",
"I 	c #010103",
"J 	c #020001",
"K 	c #182A38",
"L 	c #3F4851",
"M 	c #40494E",
"N 	c #1B283B",
"O 	c #AF8111",
"P 	c #687379",
"Q 	c #3F484F",
"R 	c #404751",
"S 	c #162836",
"T 	c #B28011",
"U 	c #414A51",
"V 	c #72CAA4",
"W 	c #667079",
"X 	c #172639",
"Y 	c #F8D95A",
"Z 	c #700807",
"` 	c #71090A",
" .	c #42494F",
"..	c #CF181A",
"+.	c #D0181A",
"@.	c #EBE8FB",
"#.	c #E9E8F8",
"$.	c #686F77",
"%.	c #B2800F",
"&.	c #D01818",
"*.	c #434A52",
"=.	c #404952",
"-.	c #D01816",
";.	c #E8E7F9",
">.	c #EAE7FA",
",.	c #F7D85B",
"'.	c #D11919",
").	c #010100",
"!.	c #000100",
"~.	c #710707",
"{.	c #710805",
"].	c #6F0706",
"^.	c #700809",
"/.	c #667177",
"(.	c #293740",
"_.	c #273840",
":.	c #3F4A50",
"<.	c #825909",
"[.	c #815808",
"}.	c #1B2839",
"|.	c #815806",
"1.	c #805707",
"2.	c #414850",
"3.	c #020100",
"4.	c #6DC7A1",
"5.	c #71C89E",
"6.	c #72C99F",
"7.	c #010000",
". . . . . . . . . . . . . . . . . . . . . . . . . . . . . . . . . . . . . . . . . . . . . . . . . . . . . . . . . . . . . . . . ",
". . . . . . . . . . . . . . . . . . . . . . . . . . . . . . . . . . . . . . . . . . . . . . . . . . . . . . . . . . . . . . . . ",
". . . . . . . . . . . . . . . . . . . . . . . . . . . . . . . . . . . . . . . . . . . . . . . . . . . . . . . . . . . . . . . . ",
". . . . . . . . . . . . . . . . . . . . . . . . . . . . . . . . . . . . . . . . . . . . . . . . . . . . . . . . . . . . . . . . ",
". . . . . . . . . . . . . . . . . . . . . . . . . . . . . . . . . . . . . . . . . . . . . . . . . . . . . . . . . . . . . . . . ",
". . . . . . . . . . . . . . . . . . . . . . . . . . . . . . . . . . . . . . . . . . . . . . . . . . . . . . . . . . . . . . . . ",
". . . . . . . . . . . . . . . . . . . . . . . . . . . . . . . . . . . . . . . . . . . . . . . . . . . . . . . . . . . . . . . . ",
". . . . . . . . . . . . . . . . . . . . . . . . . . . . . . . . . . . . . . . . . . . . . . . . . . . . . . . . . . . . . . . . ",
". . . . . . . . . . . . . . . . . . . . . . . . . . . + @ @ @ . . . . . # $ % . . . . . . . . . . . . . . . . . . . . . . . . . ",
". . . . . . . . . . . . . . . . . . . . . . . . . . & * + * @ % . . . = . . . & . . . . . . . . . . . . . . . . . . . . . . . . ",
". . . . . . . . . . . . . . . . . . . . . . . . . & . - ; > , ; ; ' . ) ! . . . . . . . . . . . . . . . . . . . . . . . . . . . ",
". . . . . . . . . . . . . . . . . . . . . . . . . ~ { @ + ] ^ @ @ ! ! % / . = . . . . . . . . . . . . . . . . . . . . . . . . . ",
". . . . . . . . . . . . . . . . . . . . . . . . . # ( _ ; : > < ] @ @ [ } . . . . . . . . . . . . . . . . . . . . . . . . . . . ",
". . . . . . . . . . . . . . . . . . . . . . . . . } ! | @ , ] , , @ 1 ! = . . . . . . . . . . . . . . . . . . . . . . . . . . . ",
". . . . . . . . . . . . . . . . . . . . . . . . . @ * 2 3 4 5 6 7 8 @ [ . & . . . . . . . . . . . . . . . . . . . . . . . . . . ",
". . . . . . . . . . . . . . . . . . . . . . . . } @ @ 9 2 0 6 6 6 @ @ . } . . . . . . . . . . . . . . . . . . . . . . . . . . . ",
". . . . . . . . & } = % a . . . & . . . / . & . . - @ b c , ] , , b d @ @ . . / . & . / . . . & . . . a % = } & . . . . . . . . ",
". . . . . . . . . . . / . . / / . . . } [ . . . . e 8 f g h 3 3 , d d i @ & . . . . . [ } . . . / / . . / . . . . . . . . . . . ",
". . . . . . . . & . . } ! . . = . # % j k / . . . l } - | : m , , 3 : n o . . / . . / k j % # . = . . ! } . . & . . . . . . . . ",
". . . . . . . . . & . ( } . = . ! / [ p [ } . k . = & 8 + q : , , , q * ; . . & k . } [ p [ / ! . = . } ( . & . . . . . . . . . ",
". . . . . . . . = . . } & r r r s t % k u . . . / } ~ @ | , v , , @ @ ! & ! . . . . . u k % t s r r r & } . . = . . . . . . . . ",
". . . . . . . . . . . w ! r x r s [ $ . . . } . . . . * i h v 9 9 y - $ . . . & . } . . . $ [ s r x r ! w . . . . . . . . . . . ",
". . . . . . . . . = / } . x r , : r r r r . . . . . ~ . } 8 @ z z - @ . . . . . . . . r r r r : , r x . } / = . . . . . . . . . ",
". . . . . . . . . . . . ! s r , > s r r r . . . . . . . } @ ; z A @ @ . a = . = . . . r r r s > , r s ! . . . . . . . . . . . . ",
". . . . . . . . . } . . . r r , , 3 , : ] r r . . . . @ 8 - @ @ @ @ - 8 @ . . . . r r ] : , 3 , , r r . . . } . . . . . . . . . ",
". . . . . . . . . . . . . r r , , , , 3 ] r r ) / . / @ @ @ 8 + + 8 @ @ @ / . / ) r r ] 3 , , , , r r . . . . . . . . . . . . . ",
". . . . . . . . . . . [ = r r : : h 3 B C B B r r - e D z ] , ] ] , ] z D e - r r B B C B 3 h : : r r = [ . . . . . . . . . . . ",
". . . . . . . . . . & } = r r E , F : B G H B I J y K L M 9 ^ ^ ^ ^ 9 M L K y J I B H G B : F , E r r = } & . . . . . . . . . . ",
". . . . . . . . . . } & k & . i N B B O b P P r r Q R ^ : r s r r s r : ^ R Q r r P P b O B B N i . & k & } . . . . . . . . . . ",
". . . . . . . . . . % } . . [ S @ B B d T ] , r r U D 3 ] r r x x r r ] 3 D U r r , ] T d B B @ S [ . . } % . . . . . . . . . . ",
". . . . . . . . . . . . . . . @ @ q , , , , , , , r r @ @ , q 3 3 q , @ @ r r , , , , , , , q @ @ . . . . . . . . . . . . . . . ",
". . . . . . . . . & . . . ! = @ @ , , m , , : , , r r @ 8 < > , , > < 8 @ r r , , : , , m , , @ @ = ! . . . & . . . . . . . . . ",
". . . . . . . . . . . . . . . . = r r , , , , , , 8 @ 2 , , , , , , , , 2 @ 8 , , , , , , r r = . . . . . . . . . . . . . . . . ",
". . . . . . . . . . . . . . . . . r r ] ^ , , 3 , ; ; ] , , m , , m , , ] ; ; , 3 , , ^ ] r r . . . . . . . . . . . . . . . . . ",
". . . . . . . . . . . . . . . . . V . r r W , , , 9 , , , , E ] ] E , , , , 9 , , , W r r . V . . . . . . . . . . . . . . . . . ",
". . . . . . . . . . . . . . . . . u . r x ^ , , , , , , , , m : : m , , , , , , , , ^ x r . u . . . . . . . . . . . . . . . . . ",
". . . . . . . . . . . . . . . . . p = [ = @ X , q , 3 9 , c O Y Y O c , 9 3 , q , X @ = [ = p . . . . . . . . . . . . . . . . . ",
". . . . . . . . . . . . . . . . . k . ! . @ ; 9 9 , : , , b d B B d b , , : , 9 9 ; @ . ! . k . . . . . . . . . . . . . . . . . ",
". . . . . . . . . . . . . . . . . / . @ 8 , , z z , P , , B B 9 9 B B , , P , z z , , 8 @ . / . . . . . . . . . . . . . . . . . ",
". . . . . . . . . . . . . . . . . . . 8 e , 3 Q U , , , : B H , , H B : , , , U Q 3 , e 8 . . . . . . . . . . . . . . . . . . . ",
". . . . . . . . . . . . . . . . . . . - + 3 , Z Z ` Z , , B B , , B B , , Z ` Z Z , , @ e / . . . . . . . . . . . . . . . . . . ",
". . . . . . . . . . . . . . . . . = . 8 @ , , Z Z Z Z q 3 B B , , B B 3 q Z Z Z Z q 3 @ 1 . k . . . . . . . . . . . . . . . . . ",
". . . . . . . . . . . . . . . . . . . @ X D  ...+.@.#.$.^ %.T B B T %.^ $.#.@.+.&.*.D r r . . . . . . . . . . . . . . . . . . . ",
". . . . . . . . . . . . . . . . . = } @ | Q =.-.&.;.>.q 2 O d ,.,.d O 2 q >.;.&.'.M z r I . . . . . . . . . . . . . . . . . . . ",
". . . . . . . . . . . . . . . . . . ! % . s r : : ).!.~.{.< < m m < < {.~.!.).: , x s } % . . . . . . . . . . . . . . . . . . . ",
". . . . . . . . . . . . . . . . . . . & . s x q , r s ].^.3 , : : , 3 ^.].s r , , r s . & / . . . . . . . . . . . . . . . . . . ",
". . . . . . . . . . . . . . . . . a ! . . @ @ r r /., F , 9 ] (.(.] 9 , F , /.r r @ @ . . . & / . . . . . . . . . . . . . . . . ",
". . . . . . . . . . . . . . . . / . . . [ * @ r I , , > 3 , , _._., , 3 > , , I r @ @ . . . . . . . . . . . . . . . . . . . . . ",
". . . . . . . . . . . . . . . . . . / . . . . i e r r r r :.z :.z z z x r r r <.[.@ }.= / # . . . . . . . . . . . . . . . . . . ",
". . . . . . . . . . . . . . . . . . . . j . . @ 1 r s r x z z z z z Q r s s !.|.1.* @ . ! . % . . . . . . . . . . . . . . . . . ",
". . . . . . . . . . . . . . . . . . . . = ! } r x z :.z z r r x r s r Q 2.z U _ @ l = ) / . . / . . . . . . . . . . . . . . . . ",
". . . . . . . . . . . . . . . . . . . } % . . r s Q 2.2.2.r 3.J 3.r r z Q z z @ * . . [ . . & / . . . . . . . . . . . . . . . . ",
". . . . . . . . . . . . . . . . . . . ! . . . l . x r r r % j ! j 4.. r x z 2.o - . ~ & . . % & . . . . . . . . . . . . . . . . ",
". . . . . . . . . . . . . . . . . . & / ~ . . ' . r r x r $ 5.6./ 5.} x r z z @ @ & . . / } . . . . . . . . . . . . . . . . . . ",
". . . . . . . . . . . . . . . . . ! . % . . . ' . . } . . . . . % ! . x x s 7.. . ' ' . } . . . . . . . . . . . . . . . . . . . ",
". . . . . . . . . . . . . . . . . % % / . . . l . . . / } . . . } } / r r r r . . . . . ~ . . . . . . . . . . . . . . . . . . . ",
". . . . . . . . . . . . . . . . . . . . . . . . . . . . . . . . . . . . . . . . . . . . . . . . . . . . . . . . . . . . . . . . ",
". . . . . . . . . . . . . . . . . . . . . . . . . . . . . . . . . . . . . . . . . . . . . . . . . . . . . . . . . . . . . . . . ",
". . . . . . . . . . . . . . . . . . . . . . . . . . . . . . . . . . . . . . . . . . . . . . . . . . . . . . . . . . . . . . . . ",
". . . . . . . . . . . . . . . . . . . . . . . . . . . . . . . . . . . . . . . . . . . . . . . . . . . . . . . . . . . . . . . . ",
". . . . . . . . . . . . . . . . . . . . . . . . . . . . . . . . . . . . . . . . . . . . . . . . . . . . . . . . . . . . . . . . ",
". . . . . . . . . . . . . . . . . . . . . . . . . . . . . . . . . . . . . . . . . . . . . . . . . . . . . . . . . . . . . . . . ",
". . . . . . . . . . . . . . . . . . . . . . . . . . . . . . . . . . . . . . . . . . . . . . . . . . . . . . . . . . . . . . . . ",
". . . . . . . . . . . . . . . . . . . . . . . . . . . . . . . . . . . . . . . . . . . . . . . . . . . . . . . . . . . . . . . . "};
