/* XPM */
static char * vaporeon_rx_xpm[] = {
"64 64 188 2",
"  	c None",
". 	c #70C8A0",
"+ 	c #70C89E",
"@ 	c #70C8A2",
"# 	c #6FC79F",
"$ 	c #6EC9A0",
"% 	c #71C7A0",
"& 	c #6EC99E",
"* 	c #6FCAA1",
"= 	c #71C9A1",
"- 	c #6EC8A2",
"; 	c #71C89E",
"> 	c #71C99F",
", 	c #72C8A1",
"' 	c #6FC7A1",
") 	c #6ECAA1",
"! 	c #70C79D",
"~ 	c #6FC79D",
"{ 	c #70C69F",
"] 	c #000000",
"^ 	c #000002",
"/ 	c #203769",
"( 	c #213768",
"_ 	c #1E3968",
": 	c #203868",
"< 	c #213769",
"[ 	c #000100",
"} 	c #1F3A67",
"| 	c #7FC8E8",
"1 	c #58B0E2",
"2 	c #58B0E0",
"3 	c #306987",
"4 	c #2E6987",
"5 	c #56B1E0",
"6 	c #57AFDF",
"7 	c #81C8E8",
"8 	c #7EC9E8",
"9 	c #59B1E1",
"0 	c #1E3869",
"a 	c #58AEDF",
"b 	c #59AFE0",
"c 	c #2F6886",
"d 	c #1F3767",
"e 	c #203866",
"f 	c #2F6A8A",
"g 	c #316A88",
"h 	c #010101",
"i 	c #4987B0",
"j 	c #59B1DF",
"k 	c #57B1E3",
"l 	c #4889B1",
"m 	c #58B0DE",
"n 	c #1F3A69",
"o 	c #4788B2",
"p 	c #0F7077",
"q 	c #116F77",
"r 	c #4788B0",
"s 	c #010000",
"t 	c #4887B0",
"u 	c #4888AE",
"v 	c #219089",
"w 	c #59AFDE",
"x 	c #1F9189",
"y 	c #208F88",
"z 	c #59B1E3",
"A 	c #223867",
"B 	c #0F7076",
"C 	c #71C7A2",
"D 	c #203667",
"E 	c #219087",
"F 	c #223869",
"G 	c #21386A",
"H 	c #1F3668",
"I 	c #1F3765",
"J 	c #228F8A",
"K 	c #22918A",
"L 	c #000004",
"M 	c #010100",
"N 	c #213969",
"O 	c #CFCFCF",
"P 	c #D1CFD0",
"Q 	c #D0D0D0",
"R 	c #1D3867",
"S 	c #1E3966",
"T 	c #CFD1CE",
"U 	c #1F908A",
"V 	c #CFD1D0",
"W 	c #CFCFCD",
"X 	c #6EC6A0",
"Y 	c #A0A0A0",
"Z 	c #D0D0CE",
"` 	c #083049",
" .	c #0A2F4A",
"..	c #08304A",
"+.	c #1D3768",
"@.	c #0A2F49",
"#.	c #72CAA0",
"$.	c #063048",
"%.	c #213766",
"&.	c #083147",
"*.	c #CFD0D2",
"=.	c #9FA1A0",
"-.	c #09314A",
";.	c #20918B",
">.	c #9FA0A2",
",.	c #71C9A3",
"'.	c #D0CFCD",
").	c #A19FA0",
"!.	c #A1A19F",
"~.	c #0F7278",
"{.	c #1E9088",
"].	c #229087",
"^.	c #063049",
"/.	c #073149",
"(.	c #0E6F76",
"_.	c #0E7177",
":.	c #21908A",
"<.	c #6DC89F",
"[.	c #07314A",
"}.	c #072F48",
"|.	c #23908A",
"1.	c #52483C",
"2.	c #504939",
"3.	c #0E7176",
"4.	c #107178",
"5.	c #229188",
"6.	c #116F79",
"7.	c #0F7079",
"8.	c #1E8F89",
"9.	c #228F89",
"0.	c #1F9187",
"a.	c #4F4939",
"b.	c #E0C866",
"c.	c #E2C869",
"d.	c #107177",
"e.	c #52493A",
"f.	c #DFC86A",
"g.	c #E0C868",
"h.	c #DFC868",
"i.	c #504937",
"j.	c #AF9737",
"k.	c #B09838",
"l.	c #4786AF",
"m.	c #4F4838",
"n.	c #50483B",
"o.	c #B19736",
"p.	c #4787AD",
"q.	c #4988B1",
"r.	c #4F4836",
"s.	c #504A3C",
"t.	c #4687AF",
"u.	c #E8E7F7",
"v.	c #E9E8F8",
"w.	c #7FCAE9",
"x.	c #7FCAEA",
"y.	c #51473B",
"z.	c #504738",
"A.	c #EAE7F8",
"B.	c #57B2E1",
"C.	c #7EC7E7",
"D.	c #7EC8E5",
"E.	c #213967",
"F.	c #7EC9E6",
"G.	c #7FC8E9",
"H.	c #55B0DF",
"I.	c #81C8E6",
"J.	c #80C9E9",
"K.	c #81CAEA",
"L.	c #A0A09E",
"M.	c #80C9EA",
"N.	c #D1D1D3",
"O.	c #9EA09F",
"P.	c #D1D0CE",
"Q.	c #D1D1D1",
"R.	c #4887B2",
"S.	c #D2D0D1",
"T.	c #020100",
"U.	c #D0D2D1",
"V.	c #A2A0A1",
"W.	c #9F9F9F",
"X.	c #CED0CF",
"Y.	c #70C7A4",
"Z.	c #D0CECF",
"`.	c #A0A2A1",
" +	c #D0D0D2",
".+	c #6EC99D",
"++	c #6EC69C",
"@+	c #6DC89D",
". . . . . . . . . . . . . . . . . + @ # . . $ + % . % . & . . . . . . % . . . + + $ . . # @ + . . . . . . . . . . . . . . . . . ",
". . . . . . . . . . . . . . . . . . . * = . . @ = . = = . . . . . . . . . . + . @ . . = * . . . . . . . . . . . . . . . . . . . ",
". . . . . . . . . . . . . . . . . # % - = . . # # . . ; # . @ . . # . * > . % $ # . . = - % # . . . . . . . . . . . . . . . . . ",
". . . . . . . . . . . . . . . . > , . . . . # . . . @ $ - . . + % + = ' ' $ ) + . # . . . . , > . . . . . . . . . . . . . . . . ",
". . . . . . . . . . . . . . . . $ # . - . * . * $ ; . ! % ~ @ . . @ + + + { ! $ * . * . - . # $ . . . . . . . . . . . . . . . . ",
". . . . . . . . . . . . . . . . > . $ . . . . ] ^ / ( _ : . . . . . $ < / : _ ] ] . . . . $ . > . . . . . . . . . . . . . . . . ",
". . . . . . . . . . . . . . . . . . . @ . . . [ ] : : : / . * = . + . _ } / : ] [ . . . @ . . . . . . . . . . . . . . . . . . . ",
". . . . . . . . . . . . . . . . . . . . # . . ] ] | | 1 2 3 4 . . 3 3 | | 5 6 ] ] . . # . . . . . . . . . . . . . . . . . . . . ",
". . . . . . . . . . . . . . . . . . @ { . . . ] ] | | 2 2 3 3 = . 3 3 7 8 2 9 ] ] . . . % @ . . . . . . . . . . . . . . . . . . ",
". . . . . . . . . . . . . . . . . . . & # . . 0 _ 2 2 a 5 b 2 c 3 2 9 2 2 b 2 / 0 . . # & . . . . . . . . . . . . . . . . . . . ",
". . . . . . . . . . . . . . . . . $ . # . % . d e b b b 1 b b f g b 2 b 6 2 2 d d . % . # . $ . . . . . . . . . . . . . . . . . ",
". . . . . . . . . . . . . . . . = % $ + * . # = = ] h b 2 9 2 i i 9 9 2 j d ( = = # . * + $ % = . . . . . . . . . . . . . . . . ",
". . . . . . . . . . . . . . . . . . # $ . . . + # ^ ] k 2 2 6 l l 5 m 6 2 n ( . + . . % * # . . . . . . . . . . . . . . . . . . ",
". . . . . . . . . . . . . . . . . . . . . . . . . @ . ] ] o o p q r r s s . . . . . . . # . . . . . . . . . . . . . . . . . . . ",
". . . . . . . . . . . . . . . . @ . . . . . . % . + ~ ^ ] t u p p u t ] ^ . = % . . . . . . . @ . . . . . . . . . . . . . . . . ",
". . . . . . . . . . . . . . . . . . . @ . . . + . . = , . : d v v _ : . . . . . + . . . @ . . . . . . . . . . . . . . . . . . . ",
". . . . . . . . . . . . . . . . . . . . . . . . # . . $ . : e v v e : . $ . . # . . . . . . . . . . . . . . . . . . . . . . . . ",
". . . . . . . . . . . . . . . . . . . . . . . . = . = d e b 2 q q 2 b e d = . = . . . . . . . . . . . . . . . . . . . . . . . . ",
". . . . . . . . . . . . . . . . . . . . . . . . $ + @ : : 5 6 p p 6 5 : : @ + $ . . . . . . . . . . . . . . . . . . . . . . . . ",
". . . . . . . . . . . . . . . . . . . . . . . . . @ . 0 / w 9 x x 9 w / 0 . @ . . . . . . . . . . . . . . . . . . . . . . . . . ",
". . . . . . . . . . . . . . . . . . . . . . . . % + . d : 6 6 y y 6 6 : d . + % . . . . . . . . . . . . . . . . . . . . . . . . ",
". . . . . . . . . . . . . . . . . . . . . . . . . @ % : 0 2 z p p z 2 0 : % @ . . . . . . . . . . . . . . . . . . . . . . . . . ",
". . . . . . . . . . . . . . . . . . . . . . . . % . . e A 2 2 B B 2 2 A e . . % . . . . . . . . . . . . . . . . . . . . . . . . ",
". . . . . . . . . . . . . . . . . . . . . . . . @ d : 1 2 2 2 ] ] 2 2 2 1 : d @ . . . . . . . . . . . . . . . . . . . . . . . . ",
". . . . . . . . . . @ + . $ . . . $ . . % . . . . / : 1 2 2 2 ] ] 2 1 1 2 / : . . . . % . . $ . . . $ . + @ . . . . . . . . . . ",
". . . . . . . . $ . . . . . . ' . . . @ . . + C . D d ( / ] ] v E ] ] F G d H , C + . . @ . . . ' . . . . . . $ . . . . . . . . ",
". . . . . . . . . . = . $ % = . % . . + . + + . . n : / I ] ] J K L M e : _ _ . . + + # + . . , . = % $ . = . . . . . . . . . . ",
". . . . . . . . . . # - ; $ . @ . . . @ @ # . N F : < O P ] ] v v ] ] P Q D D N N . # @ @ . . . @ . $ ; - # . . . . . . . . . . ",
". . . . . . . . . . . % . ; % . % ; % + . . $ R : / S Q T ] M U v h ] V W _ : : R $ . . + % ; % . % ; . % . . . . . . . . . . . ",
". . . . . . . . . . . @ ; # . . @ . . X . : : Y Y Z Q `  .` ..y v d +.@.` P Q Y Y : : . ' . . @ . . # ; @ . . . . . . . . . . . ",
". . . . . . . . . . . + ' + . . . #.# , . n N Y Y Q V ` $.@.` v K : %.` &.Q Q Y Y N n . , # #.. . . + ' + . . . . . . . . . . . ",
". . . . . . . . . # . @ . ` ` ` ` ` ` < : Q *.Y =.-.` p q : : ;.v : _ q p ` -.>.Y *.Q : < ` ` ` ` ` ` . @ . # . . . . . . . . . ",
". . . . . . . . . = . ,.. ` ` ` ` ` ` : / '.Q ).!.` ` p ~.: : E E : : ~.p ` ` !.).Q './ : ` ` ` ` ` ` . ,.. = . . . . . . . . . ",
". . . . . . . . . . . + . h ^ {.x v ].^.` /...` ` x x K y (._.:.:._.(.y K x x ` ` ../.` ^.].v x {.^ h . + . . . . . . . . . . . ",
". . . . . . . . . # % <.. ] h v E v v ` [.&.}.@.` y |.x E _.p :.:.p _.E x |.y ` @.}.` [.` v v E v h ] . <.% # . . . . . . . . . ",
". . . . . . . . . . . . @ = @ 1.2.3.4.].5.v K x 5.y y J v 6.7.v v 7.6.v J y y 5.x K v 5.].4.3.2.1.@ = @ . . . . . . . . . . . . ",
". . . . . . . . . . . # . # . 2.2.7.7.8.:.v v 9.v K K 0.v 3.4.9.9.4.3.v 0.K K v 9.v v :.8.7.7.2.2.. # . # . . . . . . . . . . . ",
". . . . . . . . . . . + . . % 2.a.b.c.p d.p p v v p (.:.K 9.:.B B :.9.K :.(.p v v p p d.p c.b.a.2.% . . + . . . . . . . . . . . ",
". . . . . . . . = . { ' . . . 2.e.f.g.4.p p p v v p 7.E v x x p p x x v E 7.p v v p p p 4.g.f.e.2.. . . ' { . = . . . . . . . . ",
". . . . . . . . @ . @ . = . . . = 2.2.g.g.p p p p 2 2 : / E K 4.4.K E / : 2 2 p p p p g.g.2.2.= . . . = . @ . @ . . . . . . . . ",
". . . . . . . . . . . . . . . . . 2.2.h.h.B (.7.p 2 5 : : v v p p v v : : 5 2 p 7.(.B h.h.2.2.. . . . . . . . . . . . . . . . . ",
". . . . . . . . . . . . . . . . . i.e.j.k.p p / : t l.| 7 N N q q N N 7 | l.t : / p p k.j.e.i.. . . . . . . . . . . . . . . . . ",
". . . . . . . . . . . . . . . . = m.n.k.o.p p _ R p.q.| 8 ( : 7.7.: ( 8 | q.p.R _ p p o.k.n.m.= . . . . . . . . . . . . . . . . ",
". . . . . . . . . . . . . . . . . 2.r.s.2.l.t.N ( u.v.m b w.x.: : x.w.b m v.u.( N t.l.2.s.r.2.. . . . . . . . . . . . . . . . . ",
". . . . . . . . . . . . . . . . . y.n.z.2.l q.d _ A.v.2 B.C.D.d d D.C.B.2 v.A._ d q.l 2.z.n.y.. . . . . . . . . . . . . . . . . ",
". . . . . . . . . . . . . . . . . : E.Q Q h h 1 z h h u t F.G.| | G.F.t u h h z 1 h h Q Q E.: . . . . . . . . . . . . . . . . . ",
". . . . . . . . . . . . . . . . . : _ O P ] ] H.2 ] s q.u G.I.C.C.I.G.u q.s ] 2 H.] ] P O _ : . . . . . . . . . . . . . . . . . ",
". . . . . . . . . . . . . . . . $ : N Y Y Q Q ] ^ 2 5 | J.| | K.K.| | J.| 5 2 ^ ] Q Q Y Y N : $ . . . . . . . . . . . . . . . . ",
". . . . . . . . . . . . . . . . . e : Y L.Q Q ] ] 2 2 G.J.| I.| | | | | M.2 b ] ] Q N.).O.: : . . . . . . . . . . . . . . . . . ",
". . . . . . . . . . . . . . . . . + % : _ P.Q.Y Y ] ] M s 2 b R.t 2 2 ^ ] s ] Y Y V P _ : + . . . . . . . . . . . . . . . . . . ",
". . . . . . . . . . . . . . . . . . @ : : V S.).).] h ] h 5 9 R.t m 2 h h T.] Y Y Z Q D : . . . . . . . . . . . . . . . . . . . ",
". . . . . . . . . . . . . . . . . + . % $ d _ *.U.*.Q.).V.] ] ] ] h ] =.W.X.Q S.Q _ d = # > . . . . . . . . . . . . . . . . . . ",
". . . . . . . . . . . . . . . . . Y.% ,.. : %.P P.Q Z.Y W.^ ] h ] ] ] Y `.Q Z Q Q ( : % . # @ . . . . . . . . . . . . . . . . . ",
". . . . . . . . . . . . . . . . . . $ + % % = G G : : N.Q.Q Q =.Y Q.Q Q Z : : ^ ^ * . = . - . . . . . . . . . . . . . . . . . . ",
". . . . . . . . . . . . . . . . . . . . . . % ( d ( : Q W  +Q `.L.T P V W : : ] ] . . . ,.. % . . . . . . . . . . . . . . . . . ",
". . . . . . . . . . . . . . . . @ . @ . @ . % # . ] ] 9 2 t t ( : : N ] ] ] ] .+. . % @ . = . # . . . . . . . . . . . . . . . . ",
". . . . . . . . . . . . . . . . . . . . . . . . # ] h 2 2 t r : : : : ] ^ ] ] . . . . . . . . . . . . . . . . . . . . . . . . . ",
". . . . . . . . . . . . . . . . . . . . . . . . . . . ] ] ] ] + % . . , . ,.- $ . . . . . . . . . . . . . . . . . . . . . . . . ",
". . . . . . . . . . . . . . . . . . . . . . . . . + . ] h h s . . . . <.> +++ . . . . . . . . . . . . . . . . . . . . . . . . . ",
". . . . . . . . . . . . . . . . . . . . . . . . . . . $ ! $ # . . $ $ ; <.= . { . . . . . . . . . . . . . . . . . . . . . . . . ",
". . . . . . . . . . . . . . . . . . . . . . . . . + # % $ = . C ' . @ @+> # ; . . . . . . . . . . . . . . . . . . . . . . . . . ",
". . . . . . . . . . . . . . . . . . . . . . . . = . . @ . @ . . . % . % ' . . . . . . . . . . . . . . . . . . . . . . . . . . . ",
". . . . . . . . . . . . . . . . . . . . . . . . % = . + . * . . . . . . > $ . . . . . . . . . . . . . . . . . . . . . . . . . . ",
". . . . . . . . . . . . . . . . . . . . . . . . # . . . % . = + . . . . . % = % . . . . . . . . . . . . . . . . . . . . . . . . "};
