/* XPM */
static char * vaporeon_sx_xpm[] = {
"64 64 183 2",
"  	c None",
". 	c #70C8A0",
"+ 	c #6EC99E",
"@ 	c #70C89E",
"# 	c #70C8A2",
"$ 	c #71C9A1",
"% 	c #6FCAA1",
"& 	c #71C7A2",
"* 	c #6FCA9F",
"= 	c #6EC9A0",
"- 	c #71C7A0",
"; 	c #6FC79F",
"> 	c #70C69F",
", 	c #72C8A1",
"' 	c #6DC89F",
") 	c #71C9A3",
"! 	c #72C99F",
"~ 	c #72CAA4",
"{ 	c #6FC79D",
"] 	c #71C99F",
"^ 	c #71C89E",
"/ 	c #000000",
"( 	c #203868",
"_ 	c #203769",
": 	c #1E3968",
"< 	c #1E3666",
"[ 	c #010101",
"} 	c #010000",
"| 	c #7FC8E8",
"1 	c #56B1E0",
"2 	c #58B0DE",
"3 	c #306987",
"4 	c #2E6987",
"5 	c #7FCAE9",
"6 	c #58B0E0",
"7 	c #80C9E9",
"8 	c #7FC9E6",
"9 	c #59AFE0",
"0 	c #306889",
"a 	c #5AB0E1",
"b 	c #1F3767",
"c 	c #58AEDF",
"d 	c #58B0E2",
"e 	c #316789",
"f 	c #5AB0E3",
"g 	c #57AFDF",
"h 	c #59B1E1",
"i 	c #4887B0",
"j 	c #4888AE",
"k 	c #55B0DF",
"l 	c #213969",
"m 	c #57AFDD",
"n 	c #4987B0",
"o 	c #59AFE2",
"p 	c #203665",
"q 	c #213768",
"r 	c #4786AF",
"s 	c #0F7077",
"t 	c #107178",
"u 	c #000100",
"v 	c #000002",
"w 	c #0F7079",
"x 	c #21908A",
"y 	c #203866",
"z 	c #1F3765",
"A 	c #208F88",
"B 	c #0F7278",
"C 	c #59AFDE",
"D 	c #1E3966",
"E 	c #219089",
"F 	c #56B1DE",
"G 	c #58AEE1",
"H 	c #1D3867",
"I 	c #1E3869",
"J 	c #6EC8A2",
"K 	c #213967",
"L 	c #D0D0CE",
"M 	c #D1CFD0",
"N 	c #1F9189",
"O 	c #CED0CF",
"P 	c #213766",
"Q 	c #20376B",
"R 	c #1F3668",
"S 	c #D1D0CE",
"T 	c #D0D0D0",
"U 	c #D2D0D1",
"V 	c #213769",
"W 	c #70C79D",
"X 	c #6FC7A1",
"Y 	c #9F9F9F",
"Z 	c #A0A0A0",
"` 	c #D1D1CF",
" .	c #073149",
"..	c #08304A",
"+.	c #1F908A",
"@.	c #083049",
"#.	c #063048",
"$.	c #9FA1A0",
"%.	c #D0D0D2",
"&.	c #219087",
"*.	c #072F49",
"=.	c #08324A",
"-.	c #072F48",
";.	c #9F9F9D",
">.	c #A2A0A1",
",.	c #073147",
"'.	c #0E6F76",
").	c #093248",
"!.	c #083147",
"~.	c #22918A",
"{.	c #0B304A",
"].	c #228F89",
"^.	c #0A2F49",
"/.	c #20928A",
"(.	c #72C8A3",
"_.	c #4F4939",
":.	c #514A38",
"<.	c #116F77",
"[.	c #22918B",
"}.	c #0E7177",
"|.	c #23908A",
"1.	c #50483B",
"2.	c #514A3A",
"3.	c #218E88",
"4.	c #208F86",
"5.	c #238E88",
"6.	c #504939",
"7.	c #4F4838",
"8.	c #E0C667",
"9.	c #E0C665",
"0.	c #0F7076",
"a.	c #0D7075",
"b.	c #0F7277",
"c.	c #229087",
"d.	c #E0C868",
"e.	c #E1C969",
"f.	c #127177",
"g.	c #E0C866",
"h.	c #10717A",
"i.	c #51473B",
"j.	c #57B2E1",
"k.	c #B09838",
"l.	c #4988B1",
"m.	c #B0973A",
"n.	c #504937",
"o.	c #B19738",
"p.	c #4887B2",
"q.	c #7EC7E7",
"r.	c #514839",
"s.	c #E7E9F8",
"t.	c #E9E8F6",
"u.	c #203667",
"v.	c #E9E8F8",
"w.	c #CFCFCF",
"x.	c #D0CECF",
"y.	c #4786B1",
"z.	c #7EC9E8",
"A.	c #1F3A67",
"B.	c #D1D1D1",
"C.	c #7EC7E8",
"D.	c #7FC8E9",
"E.	c #A1A1A1",
"F.	c #80C7E7",
"G.	c #80C6E8",
"H.	c #A0A09E",
"I.	c #9F9FA1",
"J.	c #21386A",
"K.	c #203668",
"L.	c #D1D1D3",
"M.	c #CFD1D0",
"N.	c #A19FA2",
"O.	c #A09E9F",
"P.	c #D0D2D1",
"Q.	c #D1D0D5",
"R.	c #6DC7A1",
"S.	c #A19FA0",
"T.	c #A0A29F",
"U.	c #A0A0A2",
"V.	c #000103",
"W.	c #D0CED1",
"X.	c #D0D1D3",
"Y.	c #4687AF",
"Z.	c #6FC9A3",
". . . . . . . . . . . . . . . . + . . @ . # @ . . # $ . . # $ @ @ $ # . . $ # . . @ # . @ . . + . . . . . . . . . . . . . . . . ",
". . . . . . . . . . . . . . . . . . . . . . . . . . . % & . . . . . . & * . . . . . . . . . . . . . . . . . . . . . . . . . . . ",
". . . . . . . . . . . . . . . . . = - = - . ; . > ; = , ' $ . . . . $ ' , = ; > . ; . - = - % . . . . . . . . . . . . . . . . . ",
". . . . . . . . . . . . . . . . . . ; . @ . . ) $ ! - @ , ; $ . . $ ; , @ - ! $ ~ . . @ . ; . . . . . . . . . . . . . . . . . . ",
". . . . . . . . . . . . . . . . . . . . . . . { ; ; ; . ' . . . . . . ' # ; ; { { . . . . . . . . . . . . . . . . . . . . . . . ",
". . . . . . . . . . . . . . . . . . . . = . . . ) ] - @ $ . . . . . . $ @ - ] ) . . . = . = . . . . . . . . . . . . . . . . . . ",
". . . . . . . . . . . . . . . . . . . ^ = . . / / ( _ : < ; = @ @ = ; < : _ ( / / . . = ^ . . $ . . . . . . . . . . . . . . . . ",
". . . . . . . . . . . . . . . . . . . . # . . / [ ( ( ( ( . . $ $ . . ( ( ( ( [ / . . # . . . . . . . . . . . . . . . . . . . . ",
". . . . . . . . . . . . . . . . # . @ . . . . } / | | 1 2 3 4 . . 3 3 | 5 6 6 / } . . . . @ . # . . . . . . . . . . . . . . . . ",
". . . . . . . . . . . . . . . . - # = $ ; , . / / 7 8 9 6 4 0 # ; 3 4 | | a 6 / / . , ; $ = # - . . . . . . . . . . . . . . . . ",
". . . . . . . . . . . . . . . . . . . . . . . _ _ 6 6 6 6 6 6 3 3 6 6 6 6 1 6 ( _ . . . . . . . . . . . . . . . . . . . . . . . ",
". . . . . . . . . . . . . . . . . @ . . = . . b ( 9 9 c c 6 d e e d 6 6 f g g ( b . . = . . @ . . . . . . . . . . . . . . . . . ",
". . . . . . . . . . . . . . . . . . $ # - . . # . / / h h 6 6 i j 9 6 6 k l l - # . . - # $ . . . . . . . . . . . . . . . . . . ",
". . . . . . . . . . . . . . . . # . . . . . ; . . / / 9 m a 6 i n d 6 6 o p q . . ; . . . . . # . . . . . . . . . . . . . . . . ",
". . . . . . . . . . . . . . . . . . . . . . # . . . . / [ r i s t i i / u . . . . # . . . . . . . . . . . . . . . . . . . . . . ",
". . . . . . . . . . . . . . . . $ . . $ . . . . . . . v / j i w s i i / / @ . . . . . . $ . . $ . . . . . . . . . . . . . . . . ",
". . . . . . . . . . . . . . . . . . . . . . . . . . . . . ( ( x x ( ( . . . . . . . . . . . . . . . . . . . . . . . . . . . . . ",
". . . . . . . . . . . . . . . . . . . . . . . . $ . . . = y z A A z y = . . . $ . . . . . . . . . . . . . . . . . . . . . . . . ",
". . . . . . . . . . . . . . . . . . . . . . . . . . . q l 6 h B B h 6 l q . . . . . . . . . . . . . . . . . . . . . . . . . . . ",
". . . . . . . . . . . . . . . . . . . . . . . . . , . ( _ C c s s c C _ ( . , . . . . . . . . . . . . . . . . . . . . . . . . . ",
". . . . . . . . . . . . . . . . . . . . . . . . - ; . ( D d 1 x x 1 d D ( . ; - . . . . . . . . . . . . . . . . . . . . . . . . ",
". . . . . . . . . . . . . . . . . . . . . . . . . ! $ ( ( 6 9 E E 9 6 ( ( $ ! . . . . . . . . . . . . . . . . . . . . . . . . . ",
". . . . . . . . . . . . . . . . . . . . . . . . . b : 6 1 6 F / / F 6 1 6 : b . . . . . . . . . . . . . . . . . . . . . . . . . ",
". . . . . . . . . . . . . . . . . . . . . . . . @ q ( G 6 6 g / / g 6 6 G ( q @ . . . . . . . . . . . . . . . . . . . . . . . . ",
". . . . . . . . . . = . . . = $ . . . ; . . . . . ( ( H ( [ / E E / / ( b l ( . . . . . ; . . . $ = . . . = . . . . . . . . . . ",
". . . . . . . . . . $ - . . . . . # . ) . # - $ $ _ _ ( ( / / x E v / I q I ( - $ - # . ) . # . . . . . - $ . . . . . . . . . . ",
". . . . . . . . . ' . $ . - ; - . . $ ^ J { . ( b K q L M / / E N / / M O P y b ( . { J ^ $ . . - ; - . $ . ' . . . . . . . . . ",
". . . . . . . . . . . - = ] $ $ ] $ @ $ ^ # - ( l Q R S T / v E E v / L U b V _ ( - # ^ $ @ $ ] $ $ ] = - . . . . . . . . . . . ",
". . . . . . . . . $ W # @ X . X # X # . . y ( Y Z L `  ...P ( +.N  .@.@.#.` L Z Y ( y . . # X # X . X @ # W $ . . . . . . . . . ",
". . . . . . . . X . - @ = @ % = . . @ $ ! _ ( Z $.T %. .@.( ( E &.@.@.*.=.%.%.$.Z ( _ ! $ @ . . = % @ = @ - . X . . . . . . . . ",
". . . . . . . . # $ . . @ @...@.-.@. .( : M T ;.>.@.,.s s _ b N E ( ( s '.).!.Z ;.T M : (  .@.-.@...@.@ . . $ # . . . . . . . . ",
". . . . . . . . $ . . ; + -...@.@.@.@.( ( %.T Z Z @.@.s s ( ( ~.E y ( '.s @. .Z Z T %.( ( @.@.@.@...-.+ ; . . $ . . . . . . . . ",
". . . . . . . . . = . . $ / v E E E ~.@. .@.@.{.@.~.E E E s s E E s s E E E ~.@.{.@.@. .@.~.E E E v / $ . . = . . . . . . . . . ",
". . . . . . . . = . # . . / / ].x E N @.@.^.@.@.-.E A E E s s /./.s s E E A E -.@.@.^.@.@.N E x ]./ / . . # . = . . . . . . . . ",
". . . . . . . . $ = . . J (.J _.:.s <.E E x E ~.E E ~.E [.}.}.E E }.}.[.E |.E E ~.E x E E <.s :._.J (.J . . = $ . . . . . . . . ",
". . . . . . . . . @ - . . ; ; 1.2.}.}.E |.3.A A E 3.E A 4.s s E E s <.4.A E 5.E A A 3.|.E }.}.2.1.; ; . . - @ . . . . . . . . . ",
". . . . . . . . . . . ; . ) # 6.7.8.9.0.a.t B ~.~.b.b.~.x &.E s s E c.x ~.b.b.~.~.B t a.0.9.8.7.6.# ) . ; . . . . . . . . . . . ",
". . . . . . . . . - . ^ . { . 6.6.d.e.}.f.}.0.~.A s '.A 4.].].s s ].].4.A '.s A ~.0.}.f.}.e.d.6.6.. { . ^ . - . . . . . . . . . ",
". . . . . . . . . @ . # . # $ # ; 2.7.d.g.h.s t w 6 6 ( l N E <.<.E N l ( 6 6 w t s h.g.d.7.2.; # $ # . # . @ . . . . . . . . . ",
". . . . . . . . . . . @ $ . = . . 6.i.d.d.s s }.<.6 h ( ( E E s s E E ( ( j.6 <.}.s s d.d.i.6.. . = . $ @ . . . . . . . . . . . ",
". . . . . . . . . . . . . . . . . 1.6.k.k.s s : ( l.i | 8 ( q s s q ( 8 | i l.( : s s k.m.6.1.. . . . . . . . . . . . . . . . . ",
". . . . . . . . . . . . . . . . . n.1.o.k.t 0.( b i p.| q.y l s s l y q.| p.i b ( 0.t k.o.6.n.. . . . . . . . . . . . . . . . . ",
". . . . . . . . . . . . . . . . . 1.r.7.r.p.i ( ( s.t.o 6 | | : : | | 6 o t.s.( ( i p.r.7.r.1.. . . . . . . . . . . . . . . . . ",
". . . . . . . . . . . . . . . . . n.6.6.2.j i u.( v.v.2 6 7 7 l l 7 7 6 2 v.v.( u.i j 2.6.6.n.. . . . . . . . . . . . . . . . . ",
". . . . . . . . . . . . . . . . # ( ( w.x.v v h d } [ y.r q.q.z.z.q.q.r y.[ } d h v v x.w.( ( # . . . . . . . . . . . . . . . . ",
". . . . . . . . . . . . . . . . . y A.O B./ / 6 6 [ / j i | 7 | | 7 | i j / [ 6 6 / / B.O A.y . . . . . . . . . . . . . . . . . ",
". . . . . . . . . . . . . . . . # ( _ Z Z w.T [ / 9 6 C.| | | D.D.| | | q.6 9 / [ T w.Z Z _ ( # . . . . . . . . . . . . . . . . ",
". . . . . . . . . . . . . . . . . ( ( Z E.T T / / 2 9 | | D.8 F.G.8 D.| | 9 2 / / T T E.Z ( ( . . . . . . . . . . . . . . . . . ",
". . . . . . . . . . . . . . . . . . . ( ( w.T Z H.} / [ / 6 6 i j 6 6 / / / / Z I.w.T : b . . . . . . . . . . . . . . . . . . . ",
". . . . . . . . . . . . . . . . . . . : b T T Z Z / / / [ g 1 r i 6 6 [ v / / Z Z T T H J.. . . . . . . . . . . . . . . . . . . ",
". . . . . . . . . . . . . . . . . . . . ] K.b L.T M.T Z N./ / / / / / I.O.P.B.Q.T ( q , @ $ @ . . . . . . . . . . . . . . . . . ",
". . . . . . . . . . . . . . . . = . . = R.y y T w.%.M.S.$./ / v v / v T.U.%.%.T T K l ' # + . . . . . . . . . . . . . . . . . . ",
". . . . . . . . . . . . . . . . $ $ . . ! . ; v V.( y M.T T M H.H.T M.W.T b ( : ( X . , ] - . = . . . . . . . . . . . . . . . . ",
". . . . . . . . . . . . . . . . . . . . ; . + / / _ ( S X.T B.Z $.T O T M.( ( ( ( = . ; J = . . . . . . . . . . . . . . . . . . ",
". . . . . . . . . . . . . . . . . ) . ; ) . . . . / / / / ( y ( ( Y.l.6 f / / . . - - # . $ . . . . . . . . . . . . . . . . . . ",
". . . . . . . . . . . . . . . . @ . . . = . = @ . / v / / ( ( : q i i 6 6 / / . . . . . . . @ . . . . . . . . . . . . . . . . . ",
". . . . . . . . . . . . . . . . . . . . . . . . . . . . . . . . $ / / / / . . . . . . . . . . . . . . . . . . . . . . . . . . . ",
". . . . . . . . . . . . . . . . . . . . . . . . . . . . . . . . - / / / / . . . . . . . . . . . . . . . . . . . . . . . . . . . ",
". . . . . . . . . . . . . . . . . . . . . . . . . . . . . . . . . $ $ ) . . . . . . . . . . . . . . . . . . . . . . . . . . . . ",
". . . . . . . . . . . . . . . . . . . . . . . . . . . . . . . . . W . { { - . . . . . . . . . . . . . . . . . . . . . . . . . . ",
". . . . . . . . . . . . . . . . . . . . . . . . . . . . . . . . . Z.$ $ . = . . . . . . . . . . . . . . . . . . . . . . . . . . ",
". . . . . . . . . . . . . . . . . . . . . . . . . . . . . . . . = ; ] ; . . . . . . . . . . . . . . . . . . . . . . . . . . . . ",
". . . . . . . . . . . . . . . . . . . . . . . . . . . . . . . . . . . $ $ # . . . . . . . . . . . . . . . . . . . . . . . . . . ",
". . . . . . . . . . . . . . . . . . . . . . . . . . . . . . . . # = . . $ . . . . . . . . . . . . . . . . . . . . . . . . . . . "};
