/* XPM */
static char * trm_sx_xpm[] = {
"64 64 155 2",
"  	c None",
". 	c #70C8A0",
"+ 	c #70C8A2",
"@ 	c #71C9A1",
"# 	c #70C89E",
"$ 	c #6DC89F",
"% 	c #6FC7A1",
"& 	c #71C7A0",
"* 	c #6FC79D",
"= 	c #6FC79F",
"- 	c #6EC9A0",
"; 	c #71C99F",
"> 	c #6FCA9F",
", 	c #6EC8A2",
"' 	c #2F2F37",
") 	c #303038",
"! 	c #30303A",
"~ 	c #2F2F39",
"{ 	c #2E3138",
"] 	c #72C8A3",
"^ 	c #484850",
"/ 	c #606068",
"( 	c #5F5F67",
"_ 	c #5E6168",
": 	c #616068",
"< 	c #48474F",
"[ 	c #6DC89D",
"} 	c #72CAA2",
"| 	c #313139",
"1 	c #47474F",
"2 	c #616169",
"3 	c #313038",
"4 	c #000000",
"5 	c #010101",
"6 	c #47484D",
"7 	c #5F5F69",
"8 	c #494951",
"9 	c #606166",
"0 	c #5F6065",
"a 	c #6FCAA1",
"b 	c #010103",
"c 	c #484852",
"d 	c #62606B",
"e 	c #60606A",
"f 	c #5F6269",
"g 	c #464950",
"h 	c #5E616A",
"i 	c #61616B",
"j 	c #000002",
"k 	c #71C9A3",
"l 	c #70C99D",
"m 	c #605F67",
"n 	c #313036",
"o 	c #010000",
"p 	c #303136",
"q 	c #000100",
"r 	c #2E3136",
"s 	c #31313B",
"t 	c #6EC99E",
"u 	c #302F37",
"v 	c #615F6A",
"w 	c #2F3035",
"x 	c #494850",
"y 	c #62626A",
"z 	c #71C89E",
"A 	c #312F3A",
"B 	c #313237",
"C 	c #5E6166",
"D 	c #48494E",
"E 	c #5C5F66",
"F 	c #474A53",
"G 	c #30303C",
"H 	c #32303B",
"I 	c #010100",
"J 	c #6FC9A3",
"K 	c #784041",
"L 	c #C0B8CF",
"M 	c #C0B8D0",
"N 	c #7A3F41",
"O 	c #C1B9D1",
"P 	c #784043",
"Q 	c #F8D0B7",
"R 	c #E9E8F8",
"S 	c #D89970",
"T 	c #D89872",
"U 	c #B14098",
"V 	c #D99A71",
"W 	c #D7986F",
"X 	c #B24098",
"Y 	c #B14197",
"Z 	c #B1409A",
"` 	c #7A403F",
" .	c #F9CFB7",
"..	c #E8E9FB",
"+.	c #D8996E",
"@.	c #D99973",
"#.	c #AF419A",
"$.	c #B24199",
"%.	c #F7D2B8",
"&.	c #F9D1B8",
"*.	c #F6D1B7",
"=.	c #F9CFB9",
"-.	c #D79970",
";.	c #D4996F",
">.	c #B24097",
",.	c #B03F97",
"'.	c #B13F97",
").	c #DA9A6E",
"!.	c #F8D0B6",
"~.	c #F7CFB6",
"{.	c #F6D0B9",
"].	c #F8D1B4",
"^.	c #D99870",
"/.	c #DB9A72",
"(.	c #B2419B",
"_.	c #70C69F",
":.	c #754143",
"<.	c #D6986F",
"[.	c #B04298",
"}.	c #71C7A2",
"|.	c #773F3E",
"1.	c #D8996D",
"2.	c #DA9971",
"3.	c #6EC8A4",
"4.	c #794142",
"5.	c #774141",
"6.	c #7B4042",
"7.	c #72C8A1",
"8.	c #78403F",
"9.	c #45484F",
"0.	c #D95910",
"a.	c #D8580F",
"b.	c #D85811",
"c.	c #020001",
"d.	c #302E39",
"e.	c #D9590E",
"f.	c #9189BA",
"g.	c #9088B9",
"h.	c #BEB9D0",
"i.	c #9189BC",
"j.	c #020204",
"k.	c #9088BB",
"l.	c #8F87B8",
"m.	c #9088B7",
"n.	c #494752",
"o.	c #000201",
"p.	c #464B4F",
"q.	c #000103",
"r.	c #494953",
"s.	c #000400",
"t.	c #494553",
"u.	c #4A4853",
"v.	c #C1B7D0",
"w.	c #8F88BB",
"x.	c #908ABA",
". . . . . . . . . . . . . . . . . . . . . . . . + + + . @ @ @ . . . # . # . . # . . . . . . . . . . . . . . . . . . . . . . . . ",
". . . . . . . . . . . . . . . . . . . . . . . . . . . . . . . . # . . $ . % . & . . . . . . . . . . . . . . . . . . . . . . . . ",
". . . . . . . . . . . . . . . . . . . . . . . . + . . . + . . . + . * . = . . . . . . . . . . . . . . . . . . . . . . . . . . . ",
". . . . . . . . . . . . . . . . . . . . . . . . # . & . # - . . @ ; ; # > * - . . . . . . . . . . . . . . . . . . . . . . . . . ",
". . . . . . . . . . . . . . . . . . . . . . . . . . + & , . . + . + + . + + & . . . . . . . . . . . . . . . . . . . . . . . . . ",
". . . . . . . . . . . . . . . . . . . . . . . . . . . . . . . . & & . & - . . . . . . . . . . . . . . . . . . . . . . . . . . . ",
". . . . . . . . . . . . . . . . . . . . . . . . . . . . . = . . - . + . . - . = . . . . . . . . . . . . . . . . . . . . . . . . ",
". . . . . . . . . . . . . . . . . . . . . . . . . . . . ' ) ) ) ) ! ) ! ) ~ @ + . . . . . . . . . . . . . . . . . . . . . . . . ",
". . . . . . . . . . . . . . . . . . - . . . = . . . = . ) ) ) ) ) ! ) ) { ) $ . . = @ . . . + . . . . . . . . . . . . . . . . . ",
". . . . . . . . . . . . . . . . . - . = ] . . - ) ) ^ ^ / ( / / _ / : ( : / ^ < ! ) . [ @ . @ . . . . . . . . . . . . . . . . . ",
". . . . . . . . . . . . . . . . . . # . # = @ } | ) 1 ^ / 2 2 / / 2 _ : _ / ^ ^ ) 3 . @ . . . . . . . . . . . . . . . . . . . . ",
". . . . . . . . . . . . . . . . . . + & % . 4 5 6 ^ / : _ ( / 7 ( ( ( / ^ 8 9 / 9 0 4 4 . . . . . . . . . . . . . . . . . . . . ",
". . . . . . . . . . . . . . . . . . . + a - b b 8 c d e 2 f / e / : 2 2 g ^ h e e i 4 j . k . . . . . . . . . . . . . . . . . . ",
". . . . . . . . . . . . . . . . . . . l 4 4 ) ) / / / 9 / ( / / / _ / / 1 ^ ( / _ 0 / m 5 4 # * . . . . . . . . . . . . . . . . ",
". . . . . . . . . . . . . . . . = . . + 4 4 ) ) 2 / / / / / / / / / / / 1 ^ / : / / / 2 4 4 + k . . . . . . . . . . . . . . . . ",
". . . . . . . . . . . . . . . . . . - . 4 4 ^ ^ / / / / / / / / : / / / ^ ^ / 9 / 2 / / n ) 4 4 . . . . . . . . . . . . . . . . ",
". . . . . . . . # @ . . . . . @ . - . . 4 o ^ ^ / / / / / / / / / / / / ^ ^ / / e / / / | p j q . @ + . . @ . . . . . . . . . . ",
". . . . . . . . . . - . . . . . $ . p ) ) ) / / / / / / / / / / / / / / ^ ^ / / / / / / ) ) ) ) . . @ * . . # . . . . . . . . . ",
". . . . . . . . . . . . . . # # . . ) ! ) p / / / / / / / / ( / / / / ( 8 ^ / / / / / / ) ) ) ) $ . . . & . . . . . . . . . . . ",
". . . . . . . . . + . , # . @ . { r ( 9 ! ! ^ 1 / / / / / / / / / / ^ ^ / / / / 9 / 2 / ) ) ! ! 4 4 . . . . . . . . . . . . . . ",
". . . . . . . . @ . . . . . ; . ) s 2 : r p ^ c / / ( / / / / / / / ^ ^ / / / / 9 2 / / ) | ' ) j 4 # . . . . t . . . . . . . . ",
". . . . . . . . . . . . = . u 3 / / / / ) ) p ) ^ ^ / / / / / / / / ^ 8 ( / / / e / 8 ^ ) ) ! ) 4 4 . . . - . + . . . . . . . . ",
". . . . . . . . . . , . . & ! ) v / : f ) p ) ) ^ ^ / / / / / / / / ^ ^ / / / / 9 / 1 ^ ) | w ) 4 4 . & . . . . . . . . . . . . ",
". . . . . . . . - . . . . . 5 j / / f / | ) ) { ) ) ^ ^ ^ ^ 2 / / / ^ ^ / / / / ^ 1 ) ) ) ) ) ) 4 4 . # - . . . . . . . . . . . ",
". . . . . . . . . . . . . # 4 4 / / _ / ! ) ) ) ) ) ^ ^ c ^ / / / / ^ 8 / / / / x ^ ) ) ) ! | ) 4 4 . # - . . . . . . . . . . . ",
". . . . . . . . = . . . . & 4 4 e / : y x ^ ) w 3 3 ) ) w ) ) ) | ) ) ) ) ' ) ) p ) ) ) ) p ' ) 4 4 . & . . . . . . . . . . . . ",
". . . . . . . . . z . . . k 4 4 / ( / 9 c ^ A A A ! B ) | ) ) ) ) ) ) ) ' ) ) ) ! { ! ' ) ) A ) 4 4 . . . - . + . . . . . . . . ",
". . . . . . . . . = . . . . @ . b b / 2 _ C ^ D ) ) ) ~ p ) p B r r ) | ) | r r p p w p p p r r j 4 # . . . . t . . . . . . . . ",
". . . . . . . . . . . . . . & . 5 4 ( E v 7 F ^ ) ) | B G ) ~ ' ! ! ) ) ' ) ! ! H ! ! A s A H A 4 4 . . . . . . . . . . . . . . ",
". . . . . . . . t . & @ % . * . + & 5 5 4 4 4 4 4 4 ' { ' ' { ) ) ) ) ) ) | | ) r { ) p u ) 4 I $ . . . & . . . . . . . . . . . ",
". . . . . . . . . . @ . . - . J - $ 4 4 j 4 b 5 j 5 ) B H 3 ) ' ) ) ) ) ) ) ) ) ! ) ! 3 ) 3 5 4 . . @ * . . # . . . . . . . . . ",
". . . . . . . . . . . . . . . . . . . . K K / 2 / : L M 4 j 4 4 4 5 ) ) ) ) 4 5 4 j 4 4 4 4 4 4 . @ + . . @ . . . . . . . . . . ",
". . . . . . . . . . . . . . . . @ . . = N K / 2 / / O M I 4 4 4 4 4 ) ) { ) 4 5 j b 4 4 4 4 4 4 . . . . . . . . . . . . . . . . ",
". . . . . . . . . . . . . . . . . . . & P N Q Q 4 4 R R S T U U S V W S U X Y X Y U Y Z 4 b . + . . . . . . . . . . . . . . . . ",
". . . . . . . . . . . . . . . . . + # $ ` K  .Q 4 j R ..+.+.X Y +.S S @.#.$.X U U U $.Y 4 4 # . . . . . . . . . . . . . . . . . ",
". . . . . . . . . . . . . . . . . . . = T T %.&.*.&. . .Q =.T @.S S -.;.>.,.U ,.'.U 4 4 - @ . . . . . . . . . . . . . . . . . . ",
". . . . . . . . . . . . . . . . . = @ - ).+.!.~.Q  .*.{.].*.S S S ^.^./.U (.U U U U 4 4 . z . _.. . . . . . . . . . . . . . . . ",
". . . . . . . . . . . . . . . . . . _.@ % - :.K Q =.Q Q V <.S S S S [.,.5 4 4 4 4 4 }.. z # . . . . . . . . . . . . . . . . . . ",
". . . . . . . . . . . . . . . . = . . = a . |.K Q &. .Q ^.-.+.1.S 2.U (.4 4 4 4 4 4 . . . . k . . . . . . . . . . . . . . . . . ",
". . . . . . . . . . . . . . . . - . - . 3.. @ . 4.K 5.6.K K S +.j j j 4 4 4 - - 7.. = . . . . . . . . . . . . . . . . . . . . . ",
". . . . . . . . . . . . . . . . . . . . . . . . K K 8.P K K ^.^.4 4 4 4 4 4 . & . . . . . . . . . . . . . . . . . . . . . . . . ",
". . . . . . . . . . . . . . . . . . . . . . . . + @ ) | ^ x / e ( / ^ c B ) . . . . . . . . . . . . . . . . . . . . . . . . . . ",
". . . . . . . . . . . . . . . . . . . . . . . . . & A ' ^ 9./ e 9 / c ^ ! ) . z . . . . . . . . . . . . . . . . . . . . . . . . ",
". . . . . . . . . . . . . . . . . . . . . . . . K K 0.a.D ^ 4 4 1 c w ) p | . z . . . . . . . . . . . . . . . . . . . . . . . . ",
". . . . . . . . . . . . . . . . . . . . . . . . K K b.a.x g c.4 8 ^ ) ) d.' . & . . . . . . . . . . . . . . . . . . . . . . . . ",
". . . . . . . . . . . . . . . . . . . . . . . . 4 4 e.0.r { 1 ^ c c ' ! 4 4 . . . . . . . . . . . . . . . . . . . . . . . . . . ",
". . . . . . . . . . . . . . . . . . . . . . . . 4 4 b.a.| ) ^ ^ D ^ ) p 4 4 . . . . . . . . . . . . . . . . . . . . . . . . . . ",
". . . . . . . . . . . . . . . . . . . . . . . . 4 4 f.g.) ) M M M h.4 4 4 4 = . . . . . . . . . . . . . . . . . . . . . . . . . ",
". . . . . . . . . . . . . . . . . . . . . . . . c.5 g.i.' ! M M M M 4 j.5 4 . # . . . . . . . . . . . . . . . . . . . . . . . . ",
". . . . . . . . . . . . . . . . . . . . . . . . . = { ) 4 4 k.k.f.g.4 4 D ^ . = . . . . . . . . . . . . . . . . . . . . . . . . ",
". . . . . . . . . . . . . . . . . . . . . . . . . k ) d.4 4 l.g.m.k.4 4 1 n.# . . . . . . . . . . . . . . . . . . . . . . . . . ",
". . . . . . . . . . . . . . . . . . . . . . . . o.4 g p.c 6 q.4 j 4 r.c o.s.= . . . . . . . . . . . . . . . . . . . . . . . . . ",
". . . . . . . . . . . . . . . . . . . . . . . . 4 4 x t.D u.4 4 4 4 ^ ^ 4 4 . . . . . . . . . . . . . . . . . . . . . . . . . . ",
". . . . . . . . . . . . . . . . . . . . . . . . = . 4 q O v.M M g.g.g.k.5 5 + . . . . . . . . . . . . . . . . . . . . . . . . . ",
". . . . . . . . . . . . . . . . . . . . . . . . . @ 4 4 M v.O M g.w.g.x.4 4 % . . . . . . . . . . . . . . . . . . . . . . . . . ",
". . . . . . . . . . . . . . . . . . . . . . . . + . . . 4 4 4 4 4 4 4 4 . . . . . . . . . . . . . . . . . . . . . . . . . . . . ",
". . . . . . . . . . . . . . . . . . . . . . . . . . . . 4 4 4 4 4 4 4 4 . . . . . . . . . . . . . . . . . . . . . . . . . . . . ",
". . . . . . . . . . . . . . . . . . . . . . . . . + . . . . . . . . . . . . + . . . . . . . . . . . . . . . . . . . . . . . . . ",
". . . . . . . . . . . . . . . . . . . . . . . . . . + . . # . . . . # . . + . . . . . . . . . . . . . . . . . . . . . . . . . . ",
". . . . . . . . . . . . . . . . . . . . . . . . + . 7.}.@ + }.& & }.+ @ }.7.. + . . . . . . . . . . . . . . . . . . . . . . . . ",
". . . . . . . . . . . . . . . . . . . . . . . . . . . + # . . . . . . # + . . . . . . . . . . . . . . . . . . . . . . . . . . . ",
". . . . . . . . . . . . . . . . . . . . . . . . . . . . . = . . . . = . . . . . . . . . . . . . . . . . . . . . . . . . . . . . ",
". . . . . . . . . . . . . . . . . . . . . . . . . . = . . . . . . . . . . = . . . . . . . . . . . . . . . . . . . . . . . . . . ",
". . . . . . . . . . . . . . . . . . . . . . . . @ . @ . . . . . . . . . . @ . @ . . . . . . . . . . . . . . . . . . . . . . . . "};
