/* XPM */
static char * trm_sx_rx_xpm[] = {
"64 64 150 2",
"  	c None",
". 	c #70C8A0",
"+ 	c #70C8A2",
"@ 	c #71C9A1",
"# 	c #71C7A0",
"$ 	c #6EC9A0",
"% 	c #70C89E",
"& 	c #6FC79F",
"* 	c #6EC99E",
"= 	c #313038",
"- 	c #2F2F39",
"; 	c #303038",
"> 	c #302F37",
", 	c #312F3A",
"' 	c #30303A",
") 	c #2F2F37",
"! 	c #47474F",
"~ 	c #484850",
"{ 	c #606068",
"] 	c #71C7A2",
"^ 	c #6FCAA1",
"/ 	c #2E3138",
"( 	c #6ECAA1",
"_ 	c #6EC8A2",
": 	c #000000",
"< 	c #000002",
"[ 	c #5F5F67",
"} 	c #616169",
"| 	c #70C69F",
"1 	c #010101",
"2 	c #494951",
"3 	c #5F6269",
"4 	c #000201",
"5 	c #000100",
"6 	c #6FCA9F",
"7 	c #71C9A3",
"8 	c #616068",
"9 	c #6FC79D",
"0 	c #303136",
"a 	c #2F3035",
"b 	c #606166",
"c 	c #010100",
"d 	c #494752",
"e 	c #62606B",
"f 	c #302E39",
"g 	c #60606A",
"h 	c #71C99F",
"i 	c #313139",
"j 	c #31313B",
"k 	c #464950",
"l 	c #010103",
"m 	c #323139",
"n 	c #616267",
"o 	c #5E6168",
"p 	c #2D3037",
"q 	c #72C8A1",
"r 	c #5E616A",
"s 	c #615F6A",
"t 	c #303135",
"u 	c #625F68",
"v 	c #605F67",
"w 	c #313036",
"x 	c #48494E",
"y 	c #2E3136",
"z 	c #010000",
"A 	c #2F323B",
"B 	c #7A403F",
"C 	c #784041",
"D 	c #9088B9",
"E 	c #773F3E",
"F 	c #F8D0B7",
"G 	c #E9E8F8",
"H 	c #D79970",
"I 	c #D89970",
"J 	c #7A3F41",
"K 	c #B14098",
"L 	c #B03F97",
"M 	c #B1409A",
"N 	c #784043",
"O 	c #773F40",
"P 	c #F7CFB6",
"Q 	c #EAE9F7",
"R 	c #E8EAF9",
"S 	c #78403F",
"T 	c #D7986F",
"U 	c #B24098",
"V 	c #AF4198",
"W 	c #6FC7A1",
"X 	c #71C89E",
"Y 	c #D99A71",
"Z 	c #F9D1B8",
"` 	c #F9CFB6",
" .	c #F8CFB9",
"..	c #D89872",
"+.	c #DA9971",
"@.	c #D99A6F",
"#.	c #B24199",
"$.	c #B13E99",
"%.	c #D59A70",
"&.	c #D79A6E",
"*.	c #F7CEB8",
"=.	c #D8996E",
"-.	c #D69871",
";.	c #B24097",
">.	c #6DC89D",
",.	c #72C8A3",
"'.	c #70C6A1",
").	c #774043",
"!.	c #F9D1B7",
"~.	c #D99870",
"{.	c #D6986F",
"].	c #AF419A",
"^.	c #6DC89F",
"/.	c #774141",
"(.	c #794142",
"_.	c #D8580F",
":.	c #D85811",
"<.	c #494850",
"[.	c #484852",
"}.	c #7A3F43",
"|.	c #D7590F",
"1.	c #D7570C",
"2.	c #2E313A",
"3.	c #494953",
"4.	c #46494E",
"5.	c #C0B8D0",
"6.	c #C1B7D0",
"7.	c #5F5F69",
"8.	c #BFB7CF",
"9.	c #9189BA",
"0.	c #8E88B8",
"a.	c #8F87B8",
"b.	c #48474D",
"c.	c #6EC69E",
"d.	c #928ABD",
"e.	c #020001",
"f.	c #48474F",
"g.	c #8F87B6",
"h.	c #9086B8",
"i.	c #9088B7",
"j.	c #474A51",
"k.	c #C0BBD2",
"l.	c #C2BAD1",
"m.	c #9189BC",
"n.	c #9089BC",
"o.	c #C0B7D2",
"p.	c #C1B9D1",
"q.	c #C0B8CF",
"r.	c #70C79D",
"s.	c #6FC9A3",
". . . . . . . . . . . . . . . . . . . . . . . . . . . . . . . . . . + @ . . . . . . . . . . . . . . . . . . . . . . . . . . . . ",
". . . . . . . . . . . . . . . . . . . . . . . . . . . . . # # . # . # . . . # . . . . . . . . . . . . . . . . . . . . . . . . . ",
". . . . . . . . . . . . . . . . . . . . . . . . . . . . . . + . $ . + . . . $ . . . . . . . . . . . . . . . . . . . . . . . . . ",
". . . . . . . . . . . . . . . . . . . . . . . . . . $ . . % $ % . . . & * % . . . . . . . . . . . . . . . . . . . . . . . . . . ",
". . . . . . . . . . . . . . . . . . . . . . . . . . # + + % # + . + # . + . . . . . . . . . . . . . . . . . . . . . . . . . . . ",
". . . . . . . . . . . . . . . . . . . . . . . . . # . . $ % $ * $ $ % . % * . . . . . . . . . . . . . . . . . . . . . . . . . . ",
". . . . . . . . . . . . . . . . . . . . . . . . . + @ . = - ; > , = ; ; ' , . . . . . . . . . . . . . . . . . . . . . . . . . . ",
". . . . . . . . . . . . . . . . . . . . . . . . @ . . % ; ; ; ) ; ; ; ; ; ; $ . . . . . . . . . . . . . . . . . . . . . . . . . ",
". . . . . . . . . . . . . . . . . . . # . . . . ; ; ! ~ { { { { { { { { { { ~ ~ ; ; . . ] . . . . . . . . . . . . . . . . . . . ",
". . . . . . . . . . . . . . . . . + . . ^ @ $ @ ; ; ~ ~ { { { { { { { { { { ~ ~ / ; ^ . ( . . $ . . . . . . . . . . . . . . . . ",
". . . . . . . . . . . . . . . . # . . _ . . : < ~ ~ [ } { { { { { { { [ ~ ~ { { { { : : | . & . . . . . . . . . . . . . . . . . ",
". . . . . . . . . . . . . . . . . . . . ^ . : 1 ~ ~ { [ { { { { { { } { 2 ~ { { } 3 4 5 ^ 6 + 7 . . . . . . . . . . . . . . . . ",
". . . . . . . . . . . . . . . . . . # @ : : ; ; { { { } { { { { { { [ [ ! ~ { } { [ 8 [ : : 9 & . . . . . . . . . . . . . . . . ",
". . . . . . . . . . . . . . . . . . . # : : 0 a { { { [ { { { { { { } { ~ ~ { { b { } 8 4 c @ 7 . . . . . . . . . . . . . . . . ",
". . . . . . . . . . . . . . . . . $ . @ : : d 2 { { { { { { { { [ { { { ~ ! } } { { e { f ) : : . . . . . . . . . . . . . . . . ",
". . . . . . . . . . . . . . . . . + . + : : ~ ~ { { { { { { { { { { { { ~ ~ { { { { { g ; 0 : : . . . . . . . . . . . . . . . . ",
". . . . . . . . . . @ % . . . $ . $ ; ; ; ; g { } { { { { { { { { { { { ~ ~ { { { } { { ; ; ; ; + . . . . . & % . . . . . . . . ",
". . . . . . . . . . . h + @ . . $ $ ' i ; / b [ { { { { { { { { { { } } ~ ~ { { } } { { ; ; ; ; . . . & . $ # . . . . . . . . . ",
". . . . . . . . . . . . % % . $ ' j { b ' i ~ k } { { { [ { { { { { ~ ~ { { { { { { { { ; ; ; ; : : . . . . . . . . . . . . . . ",
". . . . . . . . . . % . . . @ . ; 0 } } ; ) ~ ~ { { { { { } { { { { 2 2 { { { { } { { { ; i ; ; 1 l . & $ . . . . . . . . . . . ",
". . . . . . . . + . . . . . = ; { { [ { ; i ) ' ~ ~ { { [ [ { { { { ! ~ { } { { { { ~ ~ ; ) ; ; : : $ . . . . . . . . . . . . . ",
". . . . . . . . $ . . # . . m ' { { n { ; ' ; ; ~ ! { { { { { { { { ~ ~ { { { { { { ~ ~ ; ; ; ; l l . . . . . . . . . . . . . . ",
". . . . . . . . . . . . . . : : { { o { ) ; p ; ; ; ~ ~ ~ ~ { { { { ! ~ { } { { ~ ~ ; ; ; ; ; ; : : . + . . . + . . . . . . . . ",
". . . . . . . . . . . . . . 1 : { { { { ; ' ; ; ; ; ~ ~ ~ ~ { { { { ~ ~ { { { { ~ ~ ; ; ; ; ; ; : : + q . . @ $ . . . . . . . . ",
". . . . . . . . . . . . . . : : r } [ b k ~ ; = ; ; ; ; ; ; ; ; = ; ; ; ; ; ; = = ; ; = = ; ; ; : : . . . . . . . . . . . . . . ",
". . . . . . . . . . # . @ . 1 : s s { 8 ~ ~ ; ; ; ; ; ; ; ; ; 0 0 ; ; ; ; ; ; 0 p ) / / t ; 0 ; : : . . . . . . . . . . . . . . ",
". . . . . . . . . . . . . . 7 . 1 1 u o v { ~ ~ ; ; ; ; ' ; j j ' ; ; ; ; ; ; ' i ' ; ' ' ' w , : : . . . . + * . . . . . . . . ",
". . . . . . . . . . & + @ . % & : : [ v o [ ~ x ) ; ; ; ) ) ) ; ; a ; ; ; ; a ; a ) ) ) > ) y 0 : : . . . . . . . . . . . . . . ",
". . . . . . . . . . . . . # @ 7 $ $ : 5 z : 1 : : < ; ; A / j ' i j ; ; ; ; j i j ; j i j i < < . . . . . . . . . . . . . . . . ",
". . . . . . . . . . . . . + & 9 . # : : 1 1 : : : : = ; ) a 0 > ) ) ; ; ; ; ) ) ) = ) 0 = = : c . . . . . . % + . . . . . . . . ",
". . . . . . . . . # . + . . . . . $ % + B C 8 { { 8 D D 1 : : < : : ; ; ; ; : : 1 : 1 : 1 : : : . . . . % . . . . . . . . . . . ",
". . . . . . . . # & . . . . @ . . . . . C E { { { { D D : 5 : : : : ; ; ; ; : : : : : : : : : : . . . . . . . . . . . . . . . . ",
". . . . . . . . . . . . . . . . . . # h C C F F < : G G H I J C I I I I K L M M K K L K : : . . . . . . . . . . . . . . . . . . ",
". . . . . . . . . . . . . . . . . $ @ . N O F P : : Q R I I S C T I I H K K K K U U K V z z . W . . . . . . . . . . . . . . . . ",
". . . . . . . . . . . . . . . . . X . . I Y F Z F ` P  .F F ..I I Y +.@.#.K K $.K M : : + @ + @ . . . . . . . . . . . . . . . . ",
". . . . . . . . . . . . . . . . . . @ % %.&.P ` P F F Z *.P I =.H I -.-.L U ;.;.U U 1 1 >.& . ,.. . . . . . . . . . . . . . . . ",
". . . . . . . . . . . . . . . . . . . . | '.N ).F !.P F &.I I ..~.Y ;.;.1 : 1 < < : '.# 7 @ . . . . . . . . . . . . . . . . . . ",
". . . . . . . . . . . . . . . . . . . . _ . C J  . .F P I I @.=.{.T V ].: < 1 1 : : . % W % . . . . . . . . . . . . . . . . . . ",
". . . . . . . . . . . . . . . . . . % + % . $ $ C B C C E C {...: : : : : : ^.+ . + . . @ . . . . . . . . . . . . . . . . . . . ",
". . . . . . . . . . . . . . . . # . . . . . . . C C /.C (.C Y I z : z : 1 : . . . . . . . % . . . . . . . . . . . . . . . . . . ",
". . . . . . . . . . . . . . . . . . . . . . . . 7 . i ; ; ; { { { { ~ ~ ; ; . . . . . . . . . . . . . . . . . . . . . . . . . . ",
". . . . . . . . . . . . . . . . . . . . . . . . . . ) 0 ; ; o { b o ~ ~ ' ; % . . . . . . . . . . . . . . . . . . . . . . . . . ",
". . . . . . . . . . . . . . . . . . . . . . . . S C _.:.0 ; <.~ [.[.; i : : . . . . . . . . . . . . . . . . . . . . . . . . . . ",
". . . . . . . . . . . . . . . . . . . . . . . . (.}.|.1.2.) 2 ~ ~ ~ ; ) 1 : q . . . . . . . . . . . . . . . . . . . . . . . . . ",
". . . . . . . . . . . . . . . . . . . . . . . . : : J }.w = [ s 3.2 ; i a ; : : . . . . . . . . . . . . . . . . . . . . . . . . ",
". . . . . . . . . . . . . . . . . . . . . . . . < : N C ' ; } } 4.~ ; = i ; 1 : . . . . . . . . . . . . . . . . . . . . . . . . ",
". . . . . . . . . . . . . . . . . . . . . . . . : < ; ; 5.6.5.6.1 c { { { 7.: : . . . . . . . . . . . . . . . . . . . . . . . . ",
". . . . . . . . . . . . . . . . . . . . . . . . : 1 ; / 5.8.5.5.: : { { { { : : . . . . . . . . . . . . . . . . . . . . . . . . ",
". . . . . . . . . . . . . . . . . . . . . . . . . . ; ; D D D D : : ~ <.~ ~ ~ ~ : : # # . . $ . . . . . . . . . . . . . . . . . ",
". . . . . . . . . . . . . . . . . . . . . . . . . @ ; ; D D D 9.: : ~ k ! k ~ ~ : < . . . % & # . . . . . . . . . . . . . . . . ",
". . . . . . . . . . . . . . . . . . . . . . : : 0.a.~ b.< : : : ~ ~ ~ d k <.[.~ 4 1 # c.@ & . $ . . . . . . . . . . . . . . . . ",
". . . . . . . . . . . . . . . . . . . . . . : : 9.d.4.k : : : e.f.~ ~ 4.~ k ~ ~ l l . @ W $ . + . . . . . . . . . . . . . . . . ",
". . . . . . . . . . . . . . . . . . . . . . : : g.g.D h.D i.: 5 4 5 j.<.; ' ; i k.l.: : . . . ^ . . . . . . . . . . . . . . . . ",
". . . . . . . . . . . . . . . . . . . . . . : : 9.m.D n.h.D : : < : ~ x ; ' ; i o.5.: : . + . . . . . . . . . . . . . . . . . . ",
". . . . . . . . . . . . . . . . . . . . . . . . : : : : : : . + $ . 1 : p.5.5.5.~ ~ : : . . . . . . . . . . . . . . . . . . . . ",
". . . . . . . . . . . . . . . . . . . . . . . . : : : : : : . . . % 5 : q.5.5.5.~ ~ : : . . . # . . . . . . . . . . . . . . . . ",
". . . . . . . . . . . . . . . . . . . . . . . . . . . . . . . . . . . + : : : : : : . . . . . . . . . . . . . . . . . . . . . . ",
". . . . . . . . . . . . . . . . . . . . . . . . . . . . . . . . . % . . : : : : : 1 . @ . # . @ . . . . . . . . . . . . . . . . ",
". . . . . . . . . . . . . . . . . . . . . . . . . . . . . . . . % . . . 7 . @ @ . 7 . . . . . . . . . . . . . . . . . . . . . . ",
". . . . . . . . . . . . . . . . . . . . . . . . . . . . . . . . . . # . 9 & r.9 & % . @ + & . . . . . . . . . . . . . . . . . . ",
". . . . . . . . . . . . . . . . . . . . . . . . . . . . . . . . . . $ . 7 7 s.@ 7 @ # . . . . . . . . . . . . . . . . . . . . . ",
". . . . . . . . . . . . . . . . . . . . . . . . . . . . . . . . $ . . . . . . & 9 & + . . . . @ . . . . . . . . . . . . . . . . ",
". . . . . . . . . . . . . . . . . . . . . . . . . . . . . . . . . . . + . . . . . . . . + . # . . . . . . . . . . . . . . . . . ",
". . . . . . . . . . . . . . . . . . . . . . . . . . . . . . . . . . . . + . $ . . @ . . . . & # . . . . . . . . . . . . . . . . "};
