/* XPM */
static char * trm_sx_sx_xpm[] = {
"64 64 140 2",
"  	c None",
". 	c #70C8A0",
"+ 	c #70C8A2",
"@ 	c #71C9A1",
"# 	c #71C7A0",
"$ 	c #6EC9A0",
"% 	c #70C89E",
"& 	c #6FC79F",
"* 	c #6EC99E",
"= 	c #313038",
"- 	c #2F2F39",
"; 	c #303038",
"> 	c #302F37",
", 	c #312F3A",
"' 	c #30303A",
") 	c #2F2F37",
"! 	c #47474F",
"~ 	c #484850",
"{ 	c #606068",
"] 	c #71C7A2",
"^ 	c #6FCAA1",
"/ 	c #2E3138",
"( 	c #6ECAA1",
"_ 	c #6EC8A2",
": 	c #000000",
"< 	c #000002",
"[ 	c #5F5F67",
"} 	c #616169",
"| 	c #70C69F",
"1 	c #010101",
"2 	c #494951",
"3 	c #5F6269",
"4 	c #000201",
"5 	c #000100",
"6 	c #6FCA9F",
"7 	c #71C9A3",
"8 	c #616068",
"9 	c #6FC79D",
"0 	c #303136",
"a 	c #2F3035",
"b 	c #606166",
"c 	c #010100",
"d 	c #494752",
"e 	c #62606B",
"f 	c #302E39",
"g 	c #60606A",
"h 	c #71C99F",
"i 	c #313139",
"j 	c #31313B",
"k 	c #464950",
"l 	c #010103",
"m 	c #323139",
"n 	c #616267",
"o 	c #5E6168",
"p 	c #2D3037",
"q 	c #72C8A1",
"r 	c #5E616A",
"s 	c #615F6A",
"t 	c #303135",
"u 	c #625F68",
"v 	c #605F67",
"w 	c #313036",
"x 	c #48494E",
"y 	c #2E3136",
"z 	c #010000",
"A 	c #2F323B",
"B 	c #7A403F",
"C 	c #784041",
"D 	c #9088B9",
"E 	c #773F3E",
"F 	c #F8D0B7",
"G 	c #E9E8F8",
"H 	c #D89970",
"I 	c #D89872",
"J 	c #B14098",
"K 	c #B03F97",
"L 	c #B1409A",
"M 	c #784043",
"N 	c #773F40",
"O 	c #F7CFB6",
"P 	c #EAE9F7",
"Q 	c #D89A71",
"R 	c #D79970",
"S 	c #B24098",
"T 	c #D7986F",
"U 	c #AF4198",
"V 	c #6FC7A1",
"W 	c #71C89E",
"X 	c #D99A71",
"Y 	c #F9D1B8",
"Z 	c #F8D0B6",
"` 	c #F9CFB7",
" .	c #DA9971",
"..	c #D99A6F",
"+.	c #B24199",
"@.	c #B13E99",
"#.	c #D59A70",
"$.	c #D79A6E",
"%.	c #F9CFB6",
"&.	c #D8996E",
"*.	c #D69871",
"=.	c #B24097",
"-.	c #6DC89D",
";.	c #72C8A3",
">.	c #70C6A1",
",.	c #774043",
"'.	c #D99870",
").	c #7A3F41",
"!.	c #F8CFB9",
"~.	c #D6986F",
"{.	c #AF419A",
"].	c #78403F",
"^.	c #6DC89F",
"/.	c #484852",
"(.	c #D8580F",
"_.	c #474A53",
":.	c #2E2F34",
"<.	c #794142",
"[.	c #D8580D",
"}.	c #45484D",
"|.	c #000103",
"1.	c #D95910",
"2.	c #9187B9",
"3.	c #C0B8D0",
"4.	c #C1B7D0",
"5.	c #C1B9D1",
"6.	c #9088B7",
"7.	c #9189BA",
"8.	c #9189B8",
"9.	c #8F89B9",
"0.	c #494A4F",
"a.	c #494850",
"b.	c #49484E",
"c.	c #C0B7D2",
"d.	c #908ABA",
"e.	c #C0B8CF",
"f.	c #9088BB",
"g.	c #BEB9D0",
"h.	c #6EC69E",
"i.	c #6FC89C",
". . . . . . . . . . . . . . . . . . . . . . . . . . . . . . . . . . + @ . . . . . . . . . . . . . . . . . . . . . . . . . . . . ",
". . . . . . . . . . . . . . . . . . . . . . . . . . . . . # # . # . # . . . # . . . . . . . . . . . . . . . . . . . . . . . . . ",
". . . . . . . . . . . . . . . . . . . . . . . . . . . . . . + . $ . + . . . $ . . . . . . . . . . . . . . . . . . . . . . . . . ",
". . . . . . . . . . . . . . . . . . . . . . . . . . $ . . % $ % . . . & * % . . . . . . . . . . . . . . . . . . . . . . . . . . ",
". . . . . . . . . . . . . . . . . . . . . . . . . . # + + % # + . + # . + . . . . . . . . . . . . . . . . . . . . . . . . . . . ",
". . . . . . . . . . . . . . . . . . . . . . . . . # . . $ % $ * $ $ % . % * . . . . . . . . . . . . . . . . . . . . . . . . . . ",
". . . . . . . . . . . . . . . . . . . . . . . . . + @ . = - ; > , = ; ; ' , . . . . . . . . . . . . . . . . . . . . . . . . . . ",
". . . . . . . . . . . . . . . . . . . . . . . . @ . . % ; ; ; ) ; ; ; ; ; ; $ . . . . . . . . . . . . . . . . . . . . . . . . . ",
". . . . . . . . . . . . . . . . . . . # . . . . ; ; ! ~ { { { { { { { { { { ~ ~ ; ; . . ] . . . . . . . . . . . . . . . . . . . ",
". . . . . . . . . . . . . . . . . + . . ^ @ $ @ ; ; ~ ~ { { { { { { { { { { ~ ~ / ; ^ . ( . . $ . . . . . . . . . . . . . . . . ",
". . . . . . . . . . . . . . . . # . . _ . . : < ~ ~ [ } { { { { { { { [ ~ ~ { { { { : : | . & . . . . . . . . . . . . . . . . . ",
". . . . . . . . . . . . . . . . . . . . ^ . : 1 ~ ~ { [ { { { { { { } { 2 ~ { { } 3 4 5 ^ 6 + 7 . . . . . . . . . . . . . . . . ",
". . . . . . . . . . . . . . . . . . # @ : : ; ; { { { } { { { { { { [ [ ! ~ { } { [ 8 [ : : 9 & . . . . . . . . . . . . . . . . ",
". . . . . . . . . . . . . . . . . . . # : : 0 a { { { [ { { { { { { } { ~ ~ { { b { } 8 4 c @ 7 . . . . . . . . . . . . . . . . ",
". . . . . . . . . . . . . . . . . $ . @ : : d 2 { { { { { { { { [ { { { ~ ! } } { { e { f ) : : . . . . . . . . . . . . . . . . ",
". . . . . . . . . . . . . . . . . + . + : : ~ ~ { { { { { { { { { { { { ~ ~ { { { { { g ; 0 : : . . . . . . . . . . . . . . . . ",
". . . . . . . . . . @ % . . . $ . $ ; ; ; ; g { } { { { { { { { { { { { ~ ~ { { { } { { ; ; ; ; + . . . . . & % . . . . . . . . ",
". . . . . . . . . . . h + @ . . $ $ ' i ; / b [ { { { { { { { { { { } } ~ ~ { { } } { { ; ; ; ; . . . & . $ # . . . . . . . . . ",
". . . . . . . . . . . . % % . $ ' j { b ' i ~ k } { { { [ { { { { { ~ ~ { { { { { { { { ; ; ; ; : : . . . . . . . . . . . . . . ",
". . . . . . . . . . % . . . @ . ; 0 } } ; ) ~ ~ { { { { { } { { { { 2 2 { { { { } { { { ; i ; ; 1 l . & $ . . . . . . . . . . . ",
". . . . . . . . + . . . . . = ; { { [ { ; i ) ' ~ ~ { { [ [ { { { { ! ~ { } { { { { ~ ~ ; ) ; ; : : $ . . . . . . . . . . . . . ",
". . . . . . . . $ . . # . . m ' { { n { ; ' ; ; ~ ! { { { { { { { { ~ ~ { { { { { { ~ ~ ; ; ; ; l l . . . . . . . . . . . . . . ",
". . . . . . . . . . . . . . : : { { o { ) ; p ; ; ; ~ ~ ~ ~ { { { { ! ~ { } { { ~ ~ ; ; ; ; ; ; : : . + . . . + . . . . . . . . ",
". . . . . . . . . . . . . . 1 : { { { { ; ' ; ; ; ; ~ ~ ~ ~ { { { { ~ ~ { { { { ~ ~ ; ; ; ; ; ; : : + q . . @ $ . . . . . . . . ",
". . . . . . . . . . . . . . : : r } [ b k ~ ; = ; ; ; ; ; ; ; ; = ; ; ; ; ; ; = = ; ; = = ; ; ; : : . . . . . . . . . . . . . . ",
". . . . . . . . . . # . @ . 1 : s s { 8 ~ ~ ; ; ; ; ; ; ; ; ; 0 0 ; ; ; ; ; ; 0 p ) / / t ; 0 ; : : . . . . . . . . . . . . . . ",
". . . . . . . . . . . . . . 7 . 1 1 u o v { ~ ~ ; ; ; ; ' ; j j ' ; ; ; ; ; ; ' i ' ; ' ' ' w , : : . . . . + * . . . . . . . . ",
". . . . . . . . . . & + @ . % & : : [ v o [ ~ x ) ; ; ; ) ) ) ; ; a ; ; ; ; a ; a ) ) ) > ) y 0 : : . . . . . . . . . . . . . . ",
". . . . . . . . . . . . . # @ 7 $ $ : 5 z : 1 : : < ; ; A / j ' i j ; ; ; ; j i j ; j i j i < < . . . . . . . . . . . . . . . . ",
". . . . . . . . . . . . . + & 9 . # : : 1 1 : : : : = ; ) a 0 > ) ) ; ; ; ; ) ) ) = ) 0 = = : c . . . . . . % + . . . . . . . . ",
". . . . . . . . . # . + . . . . . $ % + B C 8 { { 8 D D 1 : : < : : ; ; ; ; : : 1 : 1 : 1 : : : . . . . % . . . . . . . . . . . ",
". . . . . . . . # & . . . . @ . . . . . C E { { { { D D : 5 : : : : ; ; ; ; : : : : : : : : : : . . . . . . . . . . . . . . . . ",
". . . . . . . . . . . . . . . . . . # h C C F F : : G G H I J J H H H H J K L L J J K J : : . . . . . . . . . . . . . . . . . . ",
". . . . . . . . . . . . . . . . . $ @ . M N F O : 5 P G Q R S J T H H R J J J J S S J U z z . V . . . . . . . . . . . . . . . . ",
". . . . . . . . . . . . . . . . . W . . H X F Y Z Y F F F ` I H H X  ...+.J J @.J L : : + @ + @ . . . . . . . . . . . . . . . . ",
". . . . . . . . . . . . . . . . . . @ % #.$.O %.F F Z F F F &.H R H *.*.K S =.=.S S 1 1 -.& . ;.. . . . . . . . . . . . . . . . ",
". . . . . . . . . . . . . . . . . . . . | >.M ,.F Y F F X H I H '.X =.=.1 : 1 < < : >.# 7 @ . . . . . . . . . . . . . . . . . . ",
". . . . . . . . . . . . . . . . . . . . _ . C ).!.!.O F H H &.H ~.T U {.: < 1 1 : : . % V % . . . . . . . . . . . . . . . . . . ",
". . . . . . . . . . . . . . . . . . % + % . $ $ C C C C C ].H H : : : : : : ^.+ . + . . @ . . . . . . . . . . . . . . . . . . . ",
". . . . . . . . . . . . . . . . # . . . . . . . C M C C C C '.H z : z : 1 : . . . . . . . % . . . . . . . . . . . . . . . . . . ",
". . . . . . . . . . . . . . . . . . . . . . . . @ . ; ; ' ; { { { { ~ ~ ; / . % . . . . . . . . . . . . . . . . . . . . . . . . ",
". . . . . . . . . . . . . . . . . . . . . . . . . ^ ; / ; ; { { [ 8 k /./ > + . . . . . . . . . . . . . . . . . . . . . . . . . ",
". . . . . . . . . . . . . . . . . . . . . . . . C C (.(.2 ~ : : ; ; ; ; ~ _.:.w . . . . . . . . . . . . . . . . . . . . . . . . ",
". . . . . . . . . . . . . . . . . . . . . . . . <.<.[.(.}.! 1 : ) > ; ; ! ! j j . . . . . . . . . . . . . . . . . . . . . . . . ",
". . . . . . . . . . . . . . . . . . . . . . . . ) ) (.(.2 k 1 : i i ; ' : |.) ) . . . . . . . . . . . . . . . . . . . . . . . . ",
". . . . . . . . . . . . . . . . . . . . . . . . ; ; [.1.x ~ : : ; ; ; ; : : j i . . . . . . . . . . . . . . . . . . . . . . . . ",
". . . . . . . . . . . . . . . . . . . . . . . . ; , D 2.~ 2 ~ ~ ) ) 3.4.5.3.< : . . . . . . . . . . . . . . . . . . . . . . . . ",
". . . . . . . . . . . . . . . . . . . . . . . . = ) D 6.~ ~ ~ ~ ; ; 3.3.3.3.1 : . . . . . . . . . . . . . . . . . . . . . . . . ",
". . . . . . . . . . . . . . . . + # . . . $ V . ; ; i ; D D D D ) ; 6.D 7.D 5 : ; ; % . . + . . . . . . . . . . . . . . . . . . ",
". . . . . . . . . . . . . . . . . . . % . . + ] ' ; ' ; D 8.D D ; ; D D 9.6.: : ; ; . . . + . . . . . . . . . . . . . . . . . . ",
". . . . . . . . . . . . . . . . . & @ + . . /.! i ; 2 ~ ; - i i ; ; : : : : ; ; D D : : . # . . . . . . . . . . . . . . . . . . ",
". . . . . . . . . . . . . . . . h . . . @ # 0.0.) > a.b.; 0 ; ; > ; < 1 : : ' ' D D l < # . . . . . . . . . . . . . . . . . . . ",
". . . . . . . . . . . . . . . . . . @ . : : c.c.7.d.1 < : : a.2 0.~ ; = ; i ; ; D D : : @ # . . . . . . . . . . . . . . . . . . ",
". . . . . . . . . . . . . . . . . . . # l : 5.5.2.D : : : : a.~ b.a.; ; ' ; ; / D D 1 4 # . . . . . . . . . . . . . . . . . . . ",
". . . . . . . . . . . . . . . . . @ . @ . . : : 5.3.5.e.f.9.: : 5 : . . : < D D ~ ! : z $ . . . . . . . . . . . . . . . . . . . ",
". . . . . . . . . . . . . . . . # . ] h . . : : 4.3.3.g.D D : : : : . . : : 9.D ~ ~ : : . . . . . . . . . . . . . . . . . . . . ",
". . . . . . . . . . . . . . . . . . . . . . . . : : : : : : . + . . . . . . : : : : . . . . . . . . . . . . . . . . . . . . . . ",
". . . . . . . . . . . . . . . . . . . . . . . . : : : : : : & . . . # . @ . 1 : : 1 . @ . # . @ . . . . . . . . . . . . . . . . ",
". . . . . . . . . . . . . . . . . . . . . . . . + 7 7 % @ 7 . . . . . . . . 7 . . 7 . . . . . . . . . . . . . . . . . . . . . . ",
". . . . . . . . . . . . . . . . . . . . . . . . . h.& i.& 9 & + . . & + @ . % & & % . @ + & . . . . . . . . . . . . . . . . . . ",
". . . . . . . . . . . . . . . . . . . . . . . . @ ^ 7 7 7 ^ + # . . . . . # @ 7 7 @ # . . . . . . . . . . . . . . . . . . . . . ",
". . . . . . . . . . . . . . . . . . . . . . . . % 9 & & . 9 . . . . . . . + & 9 9 & + . . . . @ . . . . . . . . . . . . . . . . ",
". . . . . . . . . . . . . . . . . . . . . . . . . . q % + . # . . # . + . . . . . . . . + . # . . . . . . . . . . . . . . . . . ",
". . . . . . . . . . . . . . . . . . . . . . . . . @ . # q . . . # & . . . . @ . . @ . . . . & # . . . . . . . . . . . . . . . . "};
