/* XPM */
static char * trm_rx_xpm[] = {
"64 64 154 2",
"  	c None",
". 	c #70C8A0",
"+ 	c #70C89E",
"@ 	c #71C9A1",
"# 	c #70C8A2",
"$ 	c #71C7A0",
"% 	c #6FC7A1",
"& 	c #6DC89F",
"* 	c #6FC79F",
"= 	c #6FC79D",
"- 	c #6EC9A0",
"; 	c #6FCA9F",
"> 	c #71C99F",
", 	c #6EC8A2",
"' 	c #2F2F39",
") 	c #303038",
"! 	c #30303A",
"~ 	c #2F2F37",
"{ 	c #2E3138",
"] 	c #6DC89D",
"^ 	c #48474F",
"/ 	c #484850",
"( 	c #606068",
"_ 	c #616068",
": 	c #5F5F67",
"< 	c #5E6168",
"[ 	c #72C8A3",
"} 	c #313038",
"| 	c #616169",
"1 	c #47474F",
"2 	c #313139",
"3 	c #72CAA2",
"4 	c #000000",
"5 	c #5F6065",
"6 	c #606166",
"7 	c #494951",
"8 	c #5F5F69",
"9 	c #47484D",
"0 	c #010101",
"a 	c #71C9A3",
"b 	c #000002",
"c 	c #61616B",
"d 	c #60606A",
"e 	c #5E616A",
"f 	c #464950",
"g 	c #5F6269",
"h 	c #62606B",
"i 	c #484852",
"j 	c #010103",
"k 	c #6FCAA1",
"l 	c #605F67",
"m 	c #70C99D",
"n 	c #313036",
"o 	c #000100",
"p 	c #303136",
"q 	c #2E3136",
"r 	c #6EC99E",
"s 	c #31313B",
"t 	c #302F37",
"u 	c #2F3035",
"v 	c #615F6A",
"w 	c #49484E",
"x 	c #62626A",
"y 	c #312F3A",
"z 	c #313237",
"A 	c #71C89E",
"B 	c #48494E",
"C 	c #5E6166",
"D 	c #32303B",
"E 	c #30303C",
"F 	c #474A53",
"G 	c #5C5F68",
"H 	c #010100",
"I 	c #6FC9A3",
"J 	c #C0B8D0",
"K 	c #C0B8CF",
"L 	c #784041",
"M 	c #010000",
"N 	c #C1B9D1",
"O 	c #7A3F41",
"P 	c #B1409A",
"Q 	c #B14197",
"R 	c #B14098",
"S 	c #B24098",
"T 	c #D89970",
"U 	c #D7986F",
"V 	c #D99A71",
"W 	c #D89872",
"X 	c #E9E8F8",
"Y 	c #F8D0B7",
"Z 	c #784043",
"` 	c #B24199",
" .	c #AF419A",
"..	c #D99973",
"+.	c #D8996E",
"@.	c #E8E9FB",
"#.	c #F9CFB7",
"$.	c #7A403F",
"%.	c #B13F97",
"&.	c #B03F97",
"*.	c #B24097",
"=.	c #D4996F",
"-.	c #D79970",
";.	c #F9CFB9",
">.	c #F9D1B8",
",.	c #F6D1B7",
"'.	c #F7D2B8",
").	c #70C69F",
"!.	c #B2419B",
"~.	c #DB9A72",
"{.	c #D99870",
"].	c #F8D1B4",
"^.	c #F5CFB8",
"/.	c #F7CFB6",
"(.	c #F8D0B6",
"_.	c #DA9A6E",
":.	c #71C7A2",
"<.	c #B04298",
"[.	c #D6986F",
"}.	c #754143",
"|.	c #DA9971",
"1.	c #D8976F",
"2.	c #773F3E",
"3.	c #72C8A1",
"4.	c #7B4042",
"5.	c #774141",
"6.	c #6EC8A4",
"7.	c #78403F",
"8.	c #494850",
"9.	c #45484F",
"0.	c #D8580F",
"a.	c #D95910",
"b.	c #302E39",
"c.	c #020001",
"d.	c #D85811",
"e.	c #D9590E",
"f.	c #BEB9D0",
"g.	c #9088B9",
"h.	c #9189BA",
"i.	c #020204",
"j.	c #9189BC",
"k.	c #9088BB",
"l.	c #9088B7",
"m.	c #8F87B8",
"n.	c #000400",
"o.	c #000201",
"p.	c #494953",
"q.	c #000103",
"r.	c #464B4F",
"s.	c #4A4853",
"t.	c #494553",
"u.	c #C1B7D0",
"v.	c #908ABA",
"w.	c #8F88BB",
". . . . . . . . . . . . . . . . . . . . . . . . + . . + . + . . . @ @ @ . # # # . . . . . . . . . . . . . . . . . . . . . . . . ",
". . . . . . . . . . . . . . . . . . . . . . . . $ . % . & . . + . . . . . . . . . . . . . . . . . . . . . . . . . . . . . . . . ",
". . . . . . . . . . . . . . . . . . . . . . . . . . . * . = . # . . . # . . . # . . . . . . . . . . . . . . . . . . . . . . . . ",
". . . . . . . . . . . . . . . . . . . . . . . . . - = ; + > > @ . . - + . $ . + . . . . . . . . . . . . . . . . . . . . . . . . ",
". . . . . . . . . . . . . . . . . . . . . . . . . $ # # . # # . # . . , $ # . . . . . . . . . . . . . . . . . . . . . . . . . . ",
". . . . . . . . . . . . . . . . . . . . . . . . . . . - $ . $ $ . . . . . . . . . . . . . . . . . . . . . . . . . . . . . . . . ",
". . . . . . . . . . . . . . . . . . . . . . . . * . - . . # . - . . * . . . . . . . . . . . . . . . . . . . . . . . . . . . . . ",
". . . . . . . . . . . . . . . . . . . . . . . . # @ ' ) ! ) ! ) ) ) ) ~ . . . . . . . . . . . . . . . . . . . . . . . . . . . . ",
". . . . . . . . . . . . . . . . . # . . . @ * . . & ) { ) ) ! ) ) ) ) ) . * . . . * . . . - . . . . . . . . . . . . . . . . . . ",
". . . . . . . . . . . . . . . . . @ . @ ] . ) ! ^ / ( _ : _ ( < ( ( : ( / / ) ) - . . [ * . - . . . . . . . . . . . . . . . . . ",
". . . . . . . . . . . . . . . . . . . . @ . } ) / / ( < _ < | ( ( | | ( / 1 ) 2 3 @ * + . + . . . . . . . . . . . . . . . . . . ",
". . . . . . . . . . . . . . . . . . . . 4 4 5 6 ( 6 7 / ( : : : 8 ( : < _ ( / 9 0 4 . % $ # . . . . . . . . . . . . . . . . . . ",
". . . . . . . . . . . . . . . . . . a . b 4 c d d e / f | | _ ( d ( g | d h i 7 j j - k # . . . . . . . . . . . . . . . . . . . ",
". . . . . . . . . . . . . . . . = + 4 0 l ( 5 < ( : / 1 ( ( < ( ( ( : ( 6 ( ( ( ) ) 4 4 m . . . . . . . . . . . . . . . . . . . ",
". . . . . . . . . . . . . . . . a # 4 4 | ( ( ( _ ( / 1 ( ( ( ( ( ( ( ( ( ( ( | ) ) 4 4 # . . * . . . . . . . . . . . . . . . . ",
". . . . . . . . . . . . . . . . 4 4 ) n ( ( | ( 6 ( / / ( ( ( _ ( ( ( ( ( ( ( ( / / 4 4 . - . . . . . . . . . . . . . . . . . . ",
". . . . . . . . . . @ . . # @ . o b p 2 ( ( ( d ( ( / / ( ( ( ( ( ( ( ( ( ( ( ( / / 4 4 . . - . @ . . . . . @ + . . . . . . . . ",
". . . . . . . . . + . . = @ . . ) ) ) ) ( ( ( ( ( ( / / ( ( ( ( ( ( ( ( ( ( ( ( ( ( ) ) ) p . & . . . . . - . . . . . . . . . . ",
". . . . . . . . . . . $ . . . & ) ) ) ) ( ( ( | ( ( / 7 : ( ( ( ( : ( ( ( ( ( ( ( ( p ) ! } . . + + . . . . . . . . . . . . . . ",
". . . . . . . . . . . . . . 4 4 ! ! ) ) ( | ( 6 ( ( ( ( / / ( ( ( ( ( ( ( ( ( ( 1 / ! ! 6 : q { @ . . + , . # . . . . . . . . . ",
". . . . . . . . r . . . . + 4 b ) ~ 2 ) ( ( | 6 ( ( ( ( / / ( ( ( ( ( ( ( : ( ( i / p q _ | s ) . > . . . . . @ . . . . . . . . ",
". . . . . . . . # . - . . . 4 4 ) s ) ) / / ( d ( ( ( : 7 / ( ( ( ( ( ( ( ( / / ) p ) ) ( ( ( ( } t . * . . . . . . . . . . . . ",
". . . . . . . . . . . . $ . 4 4 ) u 2 ) / 1 ( 6 ( ( ( ( / / ( ( ( ( ( ( ( ( / / ) ) p ) g _ ( v ) ! $ . . , . . . . . . . . . . ",
". . . . . . . . . . . - + . 4 4 ) ) ) ) ) ) 1 / ( ( ( ( / / ( ( ( | / / / / ) ) { ) ) 2 ( g ( ( b 4 . . . . . - . . . . . . . . ",
". . . . . . . . . . . - + . 4 4 ) 2 ! ) ) ) / / ( ( ( ( 7 / ( ( ( ( / i / / ) ) ) ) ) ! ( < ( ( 4 4 + . . . . . . . . . . . . . ",
". . . . . . . . . . . . $ . 4 4 ) ~ p ) ) ) ) p ) ) ~ ) ) ) ) 2 ) ) ) u ) ) } } u p / w x _ ( d 4 4 $ . . . . * . . . . . . . . ",
". . . . . . . . # . - . . . 4 4 ) y ) ) ~ ! { ! ) ) ) ~ ) ) ) ) ) ) ) 2 ) z ! y y y / i ( ( : ( 4 4 a . . . A . . . . . . . . . ",
". . . . . . . . r . . . . + 4 b q q p p p u n p q q 2 ) 2 ) q q z p ) p ' ) ) ) B / C < | ( j j . @ . . . . * . . . . . . . . . ",
". . . . . . . . . . . . . . 4 4 y D y s y ! ! D ! ! ) ~ ) ) ! ! ~ ' ) E z 2 ) ) / F 8 v G : 4 0 . $ . . . . . . . . . . . . . . ",
". . . . . . . . . . . $ . . . & H 4 ) t p ) { q ) 2 2 ) ) ) ) ) ) { ~ ~ { ~ 4 4 4 4 4 4 0 0 $ # . = . % @ $ . r . . . . . . . . ",
". . . . . . . . . + . . = @ . . 4 0 } ) ) ! ) ! ) ) ) ) ) ) ) ) ~ ) } D z ) 0 b 0 j 4 b 4 4 & - I . - . . @ . . . . . . . . . . ",
". . . . . . . . . . @ . . # @ . 4 4 4 4 4 4 b 4 0 4 ) ) ) ) 0 4 4 4 b 4 J K _ ( | ( L L . . . . . . . . . . . . . . . . . . . . ",
". . . . . . . . . . . . . . . . 4 4 4 M 4 4 j b 0 4 ) { ) ) 4 4 4 4 4 H J N ( ( | ( L O * . . @ . . . . . . . . . . . . . . . . ",
". . . . . . . . . . . . . . . . # . j 4 P Q R Q S Q S R T U V T R R W U X X 4 4 Y Y O Z $ . . . . . . . . . . . . . . . . . . . ",
". . . . . . . . . . . . . . . . . + 4 4 Q ` R R R S `  ...T T +.Q S +.+.@.X b 4 Y #.L $.& + # . . . . . . . . . . . . . . . . . ",
". . . . . . . . . . . . . . . . . . @ - 4 4 R %.&.R &.*.=.-.T T ..W ;.Y #.#.>.,.>.'.W W . . . - . . . . . . . . . . . . . . . . ",
". . . . . . . . . . . . . . . . ).. A . 4 4 R R R R !.R ~.{.{.T T T ,.].^.,.#.Y /.(.+._.- . * . . . . . . . . . . . . . . . . . ",
". . . . . . . . . . . . . . . . . . + = . :.4 4 4 4 4 0 &.<.T T T T [.V Y Y ;.Y L }.- % @ ).. . . . . . . . . . . . . . . . . . ",
". . . . . . . . . . . . . . . . - a . . . . 4 4 4 4 4 4 !.R |.T +.+.-.1.Y #.>.Y L 2.. k * . . . . . . . . . . . . . . . . . . . ",
". . . . . . . . . . . . . . . . . . . . . * . 3.- - 4 4 4 b b b T T L L 4.5.L L . . . 6.. - . - . . . . . . . . . . . . . . . . ",
". . . . . . . . . . . . . . . . . . . . . . . . $ . 4 4 4 4 4 4 {.{.L L Z 7.L L . . . . . . . . . . . . . . . . . . . . . . . . ",
". . . . . . . . . . . . . . . . . . . . . . . . . . ) 2 i / ( : d ( 8./ 2 ) @ # . . . . . . . . . . . . . . . . . . . . . . . . ",
". . . . . . . . . . . . . . . . . . . . . . . . $ . ) ! / i ( 6 d ( 9./ ~ y $ . . . . . . . . . . . . . . . . . . . . . . . . . ",
". . . . . . . . . . . . . . . . . . . . . . . . $ . 2 p ) u i 1 4 4 / B 0.a.L L . . . . . . . . . . . . . . . . . . . . . . . . ",
". . . . . . . . . . . . . . . . . . . . . . . . $ + ~ b.) ) / 7 4 c.f 8.0.d.L L . . . . . . . . . . . . . . . . . . . . . . . . ",
". . . . . . . . . . . . . . . . . . . . . . . . # . 4 4 ! ~ i i / 1 { q a.e.4 4 . . . . . . . . . . . . . . . . . . . . . . . . ",
". . . . . . . . . . . . . . . . . . . . . . . . . . 4 b p ) / B / / ) 2 0.d.4 4 . . . . . . . . . . . . . . . . . . . . . . . . ",
". . . . . . . . . . . . . . . . . . . . . . . . . * 4 4 4 4 f.J J J ) ) g.h.4 4 . . . . . . . . . . . . . . . . . . . . . . . . ",
". . . . . . . . . . . . . . . . . . . . . . . . . . 4 0 i.4 J J J J ! ~ j.g.0 c.. . . . . . . . . . . . . . . . . . . . . . . . ",
". . . . . . . . . . . . . . . . . . . . . . . . * . / B 4 4 g.h.k.k.4 4 ) { * . . . . . . . . . . . . . . . . . . . . . . . . . ",
". . . . . . . . . . . . . . . . . . . . . . . . . + 8.1 4 4 k.l.g.m.4 4 b.) a . . . . . . . . . . . . . . . . . . . . . . . . . ",
". . . . . . . . . . . . . . . . . . . . . . . . . * n.o.i p.4 b 4 q.9 i r.f 4 o.. . . . . . . . . . . . . . . . . . . . . . . . ",
". . . . . . . . . . . . . . . . . . . . . . . . . . 4 4 / / 4 4 4 4 s.B t.8.4 4 . . . . . . . . . . . . . . . . . . . . . . . . ",
". . . . . . . . . . . . . . . . . . . . . . . . . . 0 0 k.g.g.g.J J u.N o 4 . * . . . . . . . . . . . . . . . . . . . . . . . . ",
". . . . . . . . . . . . . . . . . . . . . . . . . % 4 4 v.k.w.g.J N u.J 4 4 @ . . . . . . . . . . . . . . . . . . . . . . . . . ",
". . . . . . . . . . . . . . . . . . . . . . . . . . . . 4 4 4 4 4 4 4 4 . . . # . . . . . . . . . . . . . . . . . . . . . . . . ",
". . . . . . . . . . . . . . . . . . . . . . . . . . . . 4 4 4 4 4 4 4 4 . . . . . . . . . . . . . . . . . . . . . . . . . . . . ",
". . . . . . . . . . . . . . . . . . . . . . . . . # . . . . . . . . . . . . # . . . . . . . . . . . . . . . . . . . . . . . . . ",
". . . . . . . . . . . . . . . . . . . . . . . . . . # . . + . . . . + . . # . . . . . . . . . . . . . . . . . . . . . . . . . . ",
". . . . . . . . . . . . . . . . . . . . . . . . # . 3.:.@ # :.$ $ :.# @ :.3.. # . . . . . . . . . . . . . . . . . . . . . . . . ",
". . . . . . . . . . . . . . . . . . . . . . . . . . . # + . . . . . . + # . . . . . . . . . . . . . . . . . . . . . . . . . . . ",
". . . . . . . . . . . . . . . . . . . . . . . . . . . . . * . . . . * . . . . . . . . . . . . . . . . . . . . . . . . . . . . . ",
". . . . . . . . . . . . . . . . . . . . . . . . . . * . . . . . . . . . . * . . . . . . . . . . . . . . . . . . . . . . . . . . ",
". . . . . . . . . . . . . . . . . . . . . . . . @ . @ . . . . . . . . . . @ . @ . . . . . . . . . . . . . . . . . . . . . . . . "};
