/* XPM */
static char * trm_rx_rx_xpm[] = {
"64 64 139 2",
"  	c None",
". 	c #70C8A0",
"+ 	c #71C9A1",
"@ 	c #70C8A2",
"# 	c #71C7A0",
"$ 	c #6EC9A0",
"% 	c #70C89E",
"& 	c #6EC99E",
"* 	c #6FC79F",
"= 	c #312F3A",
"- 	c #30303A",
"; 	c #303038",
"> 	c #313038",
", 	c #302F37",
"' 	c #2F2F39",
") 	c #2F2F37",
"! 	c #71C7A2",
"~ 	c #484850",
"{ 	c #606068",
"] 	c #47474F",
"^ 	c #6ECAA1",
"/ 	c #6FCAA1",
"( 	c #2E3138",
"_ 	c #70C69F",
": 	c #000000",
"< 	c #5F5F67",
"[ 	c #616169",
"} 	c #000002",
"| 	c #6EC8A2",
"1 	c #71C9A3",
"2 	c #6FCA9F",
"3 	c #000100",
"4 	c #000201",
"5 	c #5F6269",
"6 	c #494951",
"7 	c #010101",
"8 	c #6FC79D",
"9 	c #616068",
"0 	c #010100",
"a 	c #606166",
"b 	c #2F3035",
"c 	c #303136",
"d 	c #302E39",
"e 	c #62606B",
"f 	c #494752",
"g 	c #60606A",
"h 	c #313139",
"i 	c #71C99F",
"j 	c #464950",
"k 	c #31313B",
"l 	c #010103",
"m 	c #616267",
"n 	c #2D3037",
"o 	c #5E6168",
"p 	c #72C8A1",
"q 	c #5E616A",
"r 	c #303135",
"s 	c #615F6A",
"t 	c #313036",
"u 	c #605F67",
"v 	c #625F68",
"w 	c #2E3136",
"x 	c #48494E",
"y 	c #2F323B",
"z 	c #010000",
"A 	c #9088B9",
"B 	c #784041",
"C 	c #7A403F",
"D 	c #773F3E",
"E 	c #B14098",
"F 	c #B03F97",
"G 	c #B1409A",
"H 	c #D89970",
"I 	c #D89872",
"J 	c #E9E8F8",
"K 	c #F8D0B7",
"L 	c #AF4198",
"M 	c #B24098",
"N 	c #D79970",
"O 	c #D7986F",
"P 	c #D89A71",
"Q 	c #EAE9F7",
"R 	c #F7CFB6",
"S 	c #773F40",
"T 	c #784043",
"U 	c #B13E99",
"V 	c #B24199",
"W 	c #D99A6F",
"X 	c #DA9971",
"Y 	c #D99A71",
"Z 	c #F9CFB7",
"` 	c #F9D1B8",
" .	c #F8D0B6",
"..	c #71C89E",
"+.	c #72C8A3",
"@.	c #6DC89D",
"#.	c #B24097",
"$.	c #D69871",
"%.	c #D79771",
"&.	c #D8996E",
"*.	c #F9CFB6",
"=.	c #D79A6E",
"-.	c #D59A70",
";.	c #70C6A1",
">.	c #D99870",
",.	c #774043",
"'.	c #AF419A",
").	c #D6986F",
"!.	c #F8CFB9",
"~.	c #7A3F41",
"{.	c #6DC89F",
"].	c #78403F",
"^.	c #484852",
"/.	c #474A53",
"(.	c #D8580F",
"_.	c #45484D",
":.	c #D8580D",
"<.	c #794142",
"[.	c #000103",
"}.	c #D95910",
"|.	c #C0B8D0",
"1.	c #C1B7D0",
"2.	c #9187B9",
"3.	c #9088B7",
"4.	c #9189BA",
"5.	c #6FC7A1",
"6.	c #8F89B9",
"7.	c #9189B8",
"8.	c #49484E",
"9.	c #494850",
"0.	c #494A4F",
"a.	c #908ABA",
"b.	c #C0B7D2",
"c.	c #C1B9D1",
"d.	c #9088BB",
"e.	c #C0B8CF",
"f.	c #BEB9D0",
"g.	c #6FC89C",
"h.	c #6EC69E",
". . . . . . . . . . . . . . . . . . . . . . . . . . . . + @ . . . . . . . . . . . . . . . . . . . . . . . . . . . . . . . . . . ",
". . . . . . . . . . . . . . . . . . . . . . . . . # . . . # . # . # # . . . . . . . . . . . . . . . . . . . . . . . . . . . . . ",
". . . . . . . . . . . . . . . . . . . . . . . . . $ . . . @ . $ . @ . . . . . . . . . . . . . . . . . . . . . . . . . . . . . . ",
". . . . . . . . . . . . . . . . . . . . . . . . . . % & * . . . % $ % . . $ . . . . . . . . . . . . . . . . . . . . . . . . . . ",
". . . . . . . . . . . . . . . . . . . . . . . . . . . @ . # @ . @ # % @ @ # . . . . . . . . . . . . . . . . . . . . . . . . . . ",
". . . . . . . . . . . . . . . . . . . . . . . . . . & % . % $ $ & $ % $ . . # . . . . . . . . . . . . . . . . . . . . . . . . . ",
". . . . . . . . . . . . . . . . . . . . . . . . . . = - ; ; > = , ; ' > . + @ . . . . . . . . . . . . . . . . . . . . . . . . . ",
". . . . . . . . . . . . . . . . . . . . . . . . . $ ; ; ; ; ; ; ) ; ; ; % . . + . . . . . . . . . . . . . . . . . . . . . . . . ",
". . . . . . . . . . . . . . . . . . . ! . . ; ; ~ ~ { { { { { { { { { { ~ ] ; ; . . . . # . . . . . . . . . . . . . . . . . . . ",
". . . . . . . . . . . . . . . . $ . . ^ . / ; ( ~ ~ { { { { { { { { { { ~ ~ ; ; + $ + / . . @ . . . . . . . . . . . . . . . . . ",
". . . . . . . . . . . . . . . . . * . _ : : { { { { ~ ~ < { { { { { { { [ < ~ ~ } : . . | . . # . . . . . . . . . . . . . . . . ",
". . . . . . . . . . . . . . . . 1 @ 2 / 3 4 5 [ { { ~ 6 { [ { { { { { { < { ~ ~ 7 : . / . . . . . . . . . . . . . . . . . . . . ",
". . . . . . . . . . . . . . . . * 8 : : < 9 < { [ { ~ ] < < { { { { { { [ { { { ; ; : : + # . . . . . . . . . . . . . . . . . . ",
". . . . . . . . . . . . . . . . 1 + 0 4 9 [ { a { { ~ ~ { [ { { { { { { < { { { b c : : # . . . . . . . . . . . . . . . . . . . ",
". . . . . . . . . . . . . . . . : : ) d { e { { [ [ ] ~ { { { < { { { { { { { { 6 f : : + . $ . . . . . . . . . . . . . . . . . ",
". . . . . . . . . . . . . . . . : : c ; g { { { { { ~ ~ { { { { { { { { { { { { ~ ~ : : @ . @ . . . . . . . . . . . . . . . . . ",
". . . . . . . . % * . . . . . @ ; ; ; ; { { [ { { { ~ ~ { { { { { { { { { { { { { { ; ; ; ; $ . $ . . . % . . . . . . . . . . . ",
". . . . . . . . . # $ . * . . . ; ; ; ; { { [ [ { { ~ ~ [ [ { { { { { { { { { { < { ( ; h - $ $ . . . @ i . . . . . . . . . . . ",
". . . . . . . . . . . . . . : : ; ; ; ; { { { { { { { { ~ ~ { { { { { { { { { [ j ~ h - a { k - . . % % . . . . . . . . . . . . ",
". . . . . . . . . . . $ * . l 7 ; ; h ; { { { [ { { { { 6 6 { { { { [ { { { { { ~ ~ ) ; [ [ c ; . + . . . % . . . . . . . . . . ",
". . . . . . . . . . . . . $ : : ; ; ) ; ~ ~ { { { { [ { ~ ] { { { { < < { < ~ ~ - ) h ; { < { { ; ; . . . . . @ . . . . . . . . ",
". . . . . . . . . . . . . . l l ; ; ; ; ~ ~ { { { { { { ~ ~ { { { { { { { { ] ~ ; ; - ; { m { { - h . . # . . $ . . . . . . . . ",
". . . . . . . . @ . . . @ . : : ; ; ; ; ; ; ~ ~ { { [ { ~ ] { { { { ~ 6 ] ~ ; ; ; n ; ) { o { { : : . . . $ . . . . . . . . . . ",
". . . . . . . . $ + . . p @ : : ; ; ; ; ; ; ~ ~ { { { { ~ ~ { { { { ~ ~ ~ ~ ; ; ; ; - ; { { { { : 7 . . . * . . . . . . . . . . ",
". . . . . . . . . . . . . . : : ; ; ; > > ; ; > > ; ; ; ; ; ; > ; ; ; ; ; ; ; ; > ; ~ j a < [ q : : . . . . . . . . . . . . . . ",
". . . . . . . . . . . . . . : : ; c ; r ( ( ) n c ; ; ; ; ; ; c c ; ; ; ; ; ; ; ; ; ~ ~ 9 { s s : 7 . + . # . + . . . . . . . . ",
". . . . . . . . & @ . . . . : : = t - - - ; - h - ; ; ; ; ; ; - k k ; - ; ; ; ; ~ ~ { u o v 7 7 . 1 . . . . . . . . . . . . . . ",
". . . . . . . . . . . . . . : : c w ) , ) ) ) b ; b ; ; ; ; b ; ; ) ) ) ; ; ; ) x ~ < o u < : : * % . + @ * . . . . . . . . . . ",
". . . . . . . . . . . . . . . . } } h k h k ; k h k ; ; ; ; k h - k ( y ; ; } : : 7 : z 3 : $ $ 1 + # . . . . . . . . . . . . . ",
". . . . . . . . @ % . . . . . . 0 : > > c ) > ) ) ) ; ; ; ; ) ) , c b ) ; > : : : : 7 7 : : # . 8 * @ . . . . + . . . . . . . . ",
". . . . . . . . . . . % . . . . : : : 7 : 7 : 7 : : ; ; ; ; : : } : : 7 A A 9 { { 9 B C @ % $ . . . . . @ . # . . . . . . . . . ",
". . . . . . . . . . . . . . . . : : : : : : : : : : ; ; ; ; : : : : 3 : A A { { { { D B . . . . . + . . . . * # . . . . . . . . ",
". . . . . . . . . . . . . . . . . . : : E F E E G G F E H H H H E E I H J J : : K K B B % # . . . . . . . . . . . . . . . . . . ",
". . . . . . . . . . . . . . . . * . z z L E M M E E E E N H H O E M N P J Q 3 : R K S T . + $ . . . . . . . . . . . . . . . . . ",
". . . . . . . . . . . . . . . . + @ + @ : : G E U E E V W X Y H H I Z K K K `  .` K Y H . . ... . . . . . . . . . . . . . . . . ",
". . . . . . . . . . . . . . . . +.. * @.7 7 M M #.#.E F $.%.H N H &.K K K  .K K *.R =.-.% + . . . . . . . . . . . . . . . . . . ",
". . . . . . . . . . . . . . . . . . + 1 # ;.: } } 7 : 7 #.#.Y >.H I H Y K K ` K ,.T ;._ . . . . . . . . . . . . . . . . . . . . ",
". . . . . . . . . . . . . . . . . . % * % . : : 7 7 } : '.L O ).H &.H H K R !.!.~.B . | . . . . . . . . . . . . . . . . . . . . ",
". . . . . . . . . . . . . . . . . . . + . . @ . @ {.: z : : : : H H ].B B B B B $ $ . % @ % . . . . . . . . . . . . . . . . . . ",
". . . . . . . . . . . . . . . . . . . . . . . . . . : 7 : : : : H >.B B B B T B . . . . . . . # . . . . . . . . . . . . . . . . ",
". . . . . . . . . . . . . . . . . . . . . . . . % . ( ; ~ ~ { { { { ; - ; ; . + . . . . . . . . . . . . . . . . . . . . . . . . ",
". . . . . . . . . . . . . . . . . . . . . . . . . @ , ( ^.j 9 < { { ; ; ( ; / . . . . . . . . . . . . . . . . . . . . . . . . . ",
". . . . . . . . . . . . . . . . . . . . . . . . t b /.~ ; ; ; h : : ~ 6 (.(.B B . . . . . . . . . . . . . . . . . . . . . . . . ",
". . . . . . . . . . . . . . . . . . . . . . . . k k ] ~ ; ; , ) : 7 ] _.(.:.<.<.. . . . . . . . . . . . . . . . . . . . . . . . ",
". . . . . . . . . . . . . . . . . . . . . . . . ) ) [.: - ; h h : 7 j 6 (.(.) ) . . . . . . . . . . . . . . . . . . . . . . . . ",
". . . . . . . . . . . . . . . . . . . . . . . . h k : : ; ; ; ; : : ~ x }.:.; ; . . . . . . . . . . . . . . . . . . . . . . . . ",
". . . . . . . . . . . . . . . . . . . . . . . . : } |.|.1.|.) ) ~ ~ 6 ~ 2.A = ; . . . . . . . . . . . . . . . . . . . . . . . . ",
". . . . . . . . . . . . . . . . . . . . . . . . : : |.|.|.|.; ; ~ ~ ~ ~ 3.A ) > . . . . . . . . . . . . . . . . . . . . . . . . ",
". . . . . . . . . . . . . . . . . . @ . . % ; ; : 3 A 4.A 3.; ) A A A A ; h ; ; . @ $ . . . # 5.. . . . . . . . . . . . . . . . ",
". . . . . . . . . . . . . . . . . . @ . . . ; ; : : 3.6.A A ; ; A A 7.A ; - ; - ! @ . . % . . . . . . . . . . . . . . . . . . . ",
". . . . . . . . . . . . . . . . . . # . : : A A ) ; : : : : ; ; h h ' ; ~ 6 ; h ] ^.. . @ + * . . . . . . . . . . . . . . . . . ",
". . . . . . . . . . . . . . . . . . . # } l A A - - : : 7 } ) , ; ; c ; 8.9., ) 0.0.# + . . * % . . . . . . . . . . . . . . . . ",
". . . . . . . . . . . . . . . . . . # + : : A A ; h h ; > ; ~ 0.6 9.: : } 7 a.4.b.b.: : . + . . . . . . . . . . . . . . . . . . ",
". . . . . . . . . . . . . . . . . . . # 4 7 A A ( ; ; - ; ; 9.8.~ 9.: : : : A 2.c.c.: l # . . . . . . . . . . . . . . . . . . . ",
". . . . . . . . . . . . . . . . . . . $ z : ] ~ A A } : . . : 3 : : 6.d.e.c.|.c.: : . . + . + . . . . . . . . . . . . . . . . . ",
". . . . . . . . . . . . . . . . . . . . : : ~ ~ A 6.: : . . : : : : A A f.|.|.1.: : . . % ! . # . . . . . . . . . . . . . . . . ",
". . . . . . . . . . . . . . . . . . . . . . : : : : . . . . . . @ . : : : : : : . . . . . . . . . . . . . . . . . . . . . . . . ",
". . . . . . . . . . . . . . . . . . # . + . 7 : : 7 . + . # . + . * : : : : : : . . . . . . . . . . . . . . . . . . . . . . . . ",
". . . . . . . . . . . . . . . . . . . . . . 1 . . 1 . . . . . . . . 1 + % 1 1 @ . . . . . . . . . . . . . . . . . . . . . . . . ",
". . . . . . . . . . . . . . . . . . * @ + . % * * % . + @ * . . @ * 8 * g.* h.. . . . . . . . . . . . . . . . . . . . . . . . . ",
". . . . . . . . . . . . . . . . . . . . . # + 1 1 + # . . . . . # @ / 1 1 1 / + . . . . . . . . . . . . . . . . . . . . . . . . ",
". . . . . . . . . . . . . . . . . . . . . @ * 8 8 * @ . . . . + . . 8 . * * 8 % . . . . . . . . . . . . . . . . . . . . . . . . ",
". . . . . . . . . . . . . . . . . # . @ . . . . . . . . @ . # . . # . @ % p . . . . . . . . . . . . . . . . . . . . . . . . . . ",
". . . . . . . . . . . . . . . . # * . . . . + . . + . . . . * # . . . p # . + . . . . . . . . . . . . . . . . . . . . . . . . . "};
