/* XPM */
static char * trm_rx_sx_xpm[] = {
"64 64 150 2",
"  	c None",
". 	c #70C8A0",
"+ 	c #71C9A1",
"@ 	c #70C8A2",
"# 	c #71C7A0",
"$ 	c #6EC9A0",
"% 	c #70C89E",
"& 	c #6EC99E",
"* 	c #6FC79F",
"= 	c #312F3A",
"- 	c #30303A",
"; 	c #303038",
"> 	c #313038",
", 	c #302F37",
"' 	c #2F2F39",
") 	c #2F2F37",
"! 	c #71C7A2",
"~ 	c #484850",
"{ 	c #606068",
"] 	c #47474F",
"^ 	c #6ECAA1",
"/ 	c #6FCAA1",
"( 	c #2E3138",
"_ 	c #70C69F",
": 	c #000000",
"< 	c #5F5F67",
"[ 	c #616169",
"} 	c #000002",
"| 	c #6EC8A2",
"1 	c #71C9A3",
"2 	c #6FCA9F",
"3 	c #000100",
"4 	c #000201",
"5 	c #5F6269",
"6 	c #494951",
"7 	c #010101",
"8 	c #6FC79D",
"9 	c #616068",
"0 	c #010100",
"a 	c #606166",
"b 	c #2F3035",
"c 	c #303136",
"d 	c #302E39",
"e 	c #62606B",
"f 	c #494752",
"g 	c #60606A",
"h 	c #313139",
"i 	c #71C99F",
"j 	c #464950",
"k 	c #31313B",
"l 	c #010103",
"m 	c #616267",
"n 	c #2D3037",
"o 	c #5E6168",
"p 	c #72C8A1",
"q 	c #5E616A",
"r 	c #303135",
"s 	c #615F6A",
"t 	c #313036",
"u 	c #605F67",
"v 	c #625F68",
"w 	c #2E3136",
"x 	c #48494E",
"y 	c #2F323B",
"z 	c #010000",
"A 	c #9088B9",
"B 	c #784041",
"C 	c #7A403F",
"D 	c #773F3E",
"E 	c #B14098",
"F 	c #B03F97",
"G 	c #B1409A",
"H 	c #D89970",
"I 	c #7A3F41",
"J 	c #D79970",
"K 	c #E9E8F8",
"L 	c #F8D0B7",
"M 	c #AF4198",
"N 	c #B24098",
"O 	c #D7986F",
"P 	c #78403F",
"Q 	c #E8EAF9",
"R 	c #EAE9F7",
"S 	c #F7CFB6",
"T 	c #773F40",
"U 	c #784043",
"V 	c #B13E99",
"W 	c #B24199",
"X 	c #D99A6F",
"Y 	c #DA9971",
"Z 	c #D99A71",
"` 	c #D89872",
" .	c #F8CFB9",
"..	c #F9CFB7",
"+.	c #F9D1B8",
"@.	c #71C89E",
"#.	c #72C8A3",
"$.	c #6DC89D",
"%.	c #B24097",
"&.	c #D69871",
"*.	c #D79771",
"=.	c #D8996E",
"-.	c #F7CEB8",
";.	c #F9CFB6",
">.	c #D79A6E",
",.	c #D59A70",
"'.	c #70C6A1",
").	c #D99870",
"!.	c #F9D1B7",
"~.	c #774043",
"{.	c #AF419A",
"].	c #D6986F",
"^.	c #6DC89F",
"/.	c #794142",
"(.	c #774141",
"_.	c #484852",
":.	c #494850",
"<.	c #D85811",
"[.	c #D8580F",
"}.	c #2E313A",
"|.	c #D7570C",
"1.	c #D7590F",
"2.	c #494953",
"3.	c #7A3F43",
"4.	c #46494E",
"5.	c #5F5F69",
"6.	c #C1B7D0",
"7.	c #C0B8D0",
"8.	c #BFB7CF",
"9.	c #9189BA",
"0.	c #6EC69E",
"a.	c #48474D",
"b.	c #8F87B8",
"c.	c #8E88B8",
"d.	c #48474F",
"e.	c #020001",
"f.	c #928ABD",
"g.	c #C2BAD1",
"h.	c #C0BBD1",
"i.	c #474A51",
"j.	c #9088B7",
"k.	c #9086B8",
"l.	c #8F87B6",
"m.	c #C0B7D2",
"n.	c #9089BC",
"o.	c #9189BC",
"p.	c #C1B9D1",
"q.	c #C0B8CF",
"r.	c #70C79D",
"s.	c #6FC9A3",
". . . . . . . . . . . . . . . . . . . . . . . . . . . . + @ . . . . . . . . . . . . . . . . . . . . . . . . . . . . . . . . . . ",
". . . . . . . . . . . . . . . . . . . . . . . . . # . . . # . # . # # . . . . . . . . . . . . . . . . . . . . . . . . . . . . . ",
". . . . . . . . . . . . . . . . . . . . . . . . . $ . . . @ . $ . @ . . . . . . . . . . . . . . . . . . . . . . . . . . . . . . ",
". . . . . . . . . . . . . . . . . . . . . . . . . . % & * . . . % $ % . . $ . . . . . . . . . . . . . . . . . . . . . . . . . . ",
". . . . . . . . . . . . . . . . . . . . . . . . . . . @ . # @ . @ # % @ @ # . . . . . . . . . . . . . . . . . . . . . . . . . . ",
". . . . . . . . . . . . . . . . . . . . . . . . . . & % . % $ $ & $ % $ . . # . . . . . . . . . . . . . . . . . . . . . . . . . ",
". . . . . . . . . . . . . . . . . . . . . . . . . . = - ; ; > = , ; ' > . + @ . . . . . . . . . . . . . . . . . . . . . . . . . ",
". . . . . . . . . . . . . . . . . . . . . . . . . $ ; ; ; ; ; ; ) ; ; ; % . . + . . . . . . . . . . . . . . . . . . . . . . . . ",
". . . . . . . . . . . . . . . . . . . ! . . ; ; ~ ~ { { { { { { { { { { ~ ] ; ; . . . . # . . . . . . . . . . . . . . . . . . . ",
". . . . . . . . . . . . . . . . $ . . ^ . / ; ( ~ ~ { { { { { { { { { { ~ ~ ; ; + $ + / . . @ . . . . . . . . . . . . . . . . . ",
". . . . . . . . . . . . . . . . . * . _ : : { { { { ~ ~ < { { { { { { { [ < ~ ~ } : . . | . . # . . . . . . . . . . . . . . . . ",
". . . . . . . . . . . . . . . . 1 @ 2 / 3 4 5 [ { { ~ 6 { [ { { { { { { < { ~ ~ 7 : . / . . . . . . . . . . . . . . . . . . . . ",
". . . . . . . . . . . . . . . . * 8 : : < 9 < { [ { ~ ] < < { { { { { { [ { { { ; ; : : + # . . . . . . . . . . . . . . . . . . ",
". . . . . . . . . . . . . . . . 1 + 0 4 9 [ { a { { ~ ~ { [ { { { { { { < { { { b c : : # . . . . . . . . . . . . . . . . . . . ",
". . . . . . . . . . . . . . . . : : ) d { e { { [ [ ] ~ { { { < { { { { { { { { 6 f : : + . $ . . . . . . . . . . . . . . . . . ",
". . . . . . . . . . . . . . . . : : c ; g { { { { { ~ ~ { { { { { { { { { { { { ~ ~ : : @ . @ . . . . . . . . . . . . . . . . . ",
". . . . . . . . % * . . . . . @ ; ; ; ; { { [ { { { ~ ~ { { { { { { { { { { { { { { ; ; ; ; $ . $ . . . % . . . . . . . . . . . ",
". . . . . . . . . # $ . * . . . ; ; ; ; { { [ [ { { ~ ~ [ [ { { { { { { { { { { < { ( ; h - $ $ . . . @ i . . . . . . . . . . . ",
". . . . . . . . . . . . . . : : ; ; ; ; { { { { { { { { ~ ~ { { { { { { { { { [ j ~ h - a { k - . . % % . . . . . . . . . . . . ",
". . . . . . . . . . . $ * . l 7 ; ; h ; { { { [ { { { { 6 6 { { { { [ { { { { { ~ ~ ) ; [ [ c ; . + . . . % . . . . . . . . . . ",
". . . . . . . . . . . . . $ : : ; ; ) ; ~ ~ { { { { [ { ~ ] { { { { < < { < ~ ~ - ) h ; { < { { ; ; . . . . . @ . . . . . . . . ",
". . . . . . . . . . . . . . l l ; ; ; ; ~ ~ { { { { { { ~ ~ { { { { { { { { ] ~ ; ; - ; { m { { - h . . # . . $ . . . . . . . . ",
". . . . . . . . @ . . . @ . : : ; ; ; ; ; ; ~ ~ { { [ { ~ ] { { { { ~ 6 ] ~ ; ; ; n ; ) { o { { : : . . . $ . . . . . . . . . . ",
". . . . . . . . $ + . . p @ : : ; ; ; ; ; ; ~ ~ { { { { ~ ~ { { { { ~ ~ ~ ~ ; ; ; ; - ; { { { { : 7 . . . * . . . . . . . . . . ",
". . . . . . . . . . . . . . : : ; ; ; > > ; ; > > ; ; ; ; ; ; > ; ; ; ; ; ; ; ; > ; ~ j a < [ q : : . . . . . . . . . . . . . . ",
". . . . . . . . . . . . . . : : ; c ; r ( ( ) n c ; ; ; ; ; ; c c ; ; ; ; ; ; ; ; ; ~ ~ 9 { s s : 7 . + . # . + . . . . . . . . ",
". . . . . . . . & @ . . . . : : = t - - - ; - h - ; ; ; ; ; ; - k k ; - ; ; ; ; ~ ~ { u o v 7 7 . 1 . . . . . . . . . . . . . . ",
". . . . . . . . . . . . . . : : c w ) , ) ) ) b ; b ; ; ; ; b ; ; ) ) ) ; ; ; ) x ~ < o u < : : * % . + @ * . . . . . . . . . . ",
". . . . . . . . . . . . . . . . } } h k h k ; k h k ; ; ; ; k h - k ( y ; ; } : : 7 : z 3 : $ $ 1 + # . . . . . . . . . . . . . ",
". . . . . . . . @ % . . . . . . 0 : > > c ) > ) ) ) ; ; ; ; ) ) , c b ) ; > : : : : 7 7 : : # . 8 * @ . . . . + . . . . . . . . ",
". . . . . . . . . . . % . . . . : : : 7 : 7 : 7 : : ; ; ; ; : : } : : 7 A A 9 { { 9 B C @ % $ . . . . . @ . # . . . . . . . . . ",
". . . . . . . . . . . . . . . . : : : : : : : : : : ; ; ; ; : : : : 3 : A A { { { { D B . . . . . + . . . . * # . . . . . . . . ",
". . . . . . . . . . . . . . . . . . : : E F E E G G F E H H H H B I H J K K : : L L B B % # . . . . . . . . . . . . . . . . . . ",
". . . . . . . . . . . . . . . . * . z z M E N N E E E E J H H O B P H H Q R } : S L T U . + $ . . . . . . . . . . . . . . . . . ",
". . . . . . . . . . . . . . . . + @ + @ : : G E V E E W X Y Z H ` ` L L  .S ..L +.L Z H . . @.. . . . . . . . . . . . . . . . . ",
". . . . . . . . . . . . . . . . #.. * $.7 7 N N %.%.E F &.*.H J =.=.S -.+.L L S ;.S >.,.% + . . . . . . . . . . . . . . . . . . ",
". . . . . . . . . . . . . . . . . . + 1 # '.: } } 7 : 7 %.%.Z ).` H H >.L S !.L ~.U '._ . . . . . . . . . . . . . . . . . . . . ",
". . . . . . . . . . . . . . . . . . % * % . : : 7 7 } : {.M O ].H X H H S L  . .I B . | . . . . . . . . . . . . . . . . . . . . ",
". . . . . . . . . . . . . . . . . . . + . . @ . @ ^.: z : : : : ` ].B D B B C B $ $ . % @ % . . . . . . . . . . . . . . . . . . ",
". . . . . . . . . . . . . . . . . . . . . . . . . . : 7 : : : : H Z B /.B (.B B . . . . . . . # . . . . . . . . . . . . . . . . ",
". . . . . . . . . . . . . . . . . . . . . . . . . . ; ; ~ x { { { { ; ; ; h . 1 . . . . . . . . . . . . . . . . . . . . . . . . ",
". . . . . . . . . . . . . . . . . . . . . . . . . % - - ~ ~ o a { o ; ; c ) . . . . . . . . . . . . . . . . . . . . . . . . . . ",
". . . . . . . . . . . . . . . . . . . . . . . . . . : : h ; _._.~ :.; c <.[.B P . . . . . . . . . . . . . . . . . . . . . . . . ",
". . . . . . . . . . . . . . . . . . . . . . . . . p : 7 ) ; ~ ~ ~ 6 ) }.|.1.U /.. . . . . . . . . . . . . . . . . . . . . . . . ",
". . . . . . . . . . . . . . . . . . . . . . . . : : ; b h ; 6 2.s u > t 3.I : : . . . . . . . . . . . . . . . . . . . . . . . . ",
". . . . . . . . . . . . . . . . . . . . . . . . : 7 ; h > ; ~ 4.[ [ ; - B U : } . . . . . . . . . . . . . . . . . . . . . . . . ",
". . . . . . . . . . . . . . . . . . . . . . . . : : 5.{ { { 7 7 6.7.6.7.; ; } : . . . . . . . . . . . . . . . . . . . . . . . . ",
". . . . . . . . . . . . . . . . . . . . . . . . : : { { { { : : 7.7.8.7.( ; 4 : . . . . . . . . . . . . . . . . . . . . . . . . ",
". . . . . . . . . . . . . . . . . $ . . # # : : ~ ~ ~ ~ :.~ : : A A A A ; ; . . . . . . . . . . . . . . . . . . . . . . . . . . ",
". . . . . . . . . . . . . . . . # * % . . . } : ~ ~ j ] j ~ : : 9.A A A ; ; + . . . . . . . . . . . . . . . . . . . . . . . . . ",
". . . . . . . . . . . . . . . . $ . * + 0.# 7 4 ~ _.:.j f ~ ~ ~ : : : } a.~ b.c.: : . . . . . . . . . . . . . . . . . . . . . . ",
". . . . . . . . . . . . . . . . @ . $ * + . l l ~ ~ j ~ 4.~ ~ d.e.: : : j 4.f.9.: : . . . . . . . . . . . . . . . . . . . . . . ",
". . . . . . . . . . . . . . . . / . . . : 7 g.h.h ; - ; :.i.3 4 3 : j.A k.A l.l.: : . . . . . . . . . . . . . . . . . . . . . . ",
". . . . . . . . . . . . . . . . . . @ . 7 : 7.m.h ; - ; x ~ : } : : A k.n.A o.9.: : . . . . . . . . . . . . . . . . . . . . . . ",
". . . . . . . . . . . . . . . . . . . . : : ~ ~ 7.7.7.p.: 7 . $ @ . : : : : : : . . . . . . . . . . . . . . . . . . . . . . . . ",
". . . . . . . . . . . . . . . . # . . . : : ~ ~ 7.7.7.q.: 3 % . . . : : : : : : . . . . . . . . . . . . . . . . . . . . . . . . ",
". . . . . . . . . . . . . . . . . . . . . . : : : : : : @ . . . . . . . . . . . . . . . . . . . . . . . . . . . . . . . . . . . ",
". . . . . . . . . . . . . . . . . . # . + . 7 : : : : : . . % . . . . . . . . . . . . . . . . . . . . . . . . . . . . . . . . . ",
". . . . . . . . . . . . . . . . . . . . . . 1 . + + . 1 . . . % . . . . . . . . . . . . . . . . . . . . . . . . . . . . . . . . ",
". . . . . . . . . . . . . . . . . . * @ + . % * 8 r.* 8 . # . . . . . . . . . . . . . . . . . . . . . . . . . . . . . . . . . . ",
". . . . . . . . . . . . . . . . . . . . . # + 1 + s.1 1 . $ . . . . . . . . . . . . . . . . . . . . . . . . . . . . . . . . . . ",
". . . . . . . . . . . . . . . . . . . . . @ * 8 * . . . . . . $ . . . . . . . . . . . . . . . . . . . . . . . . . . . . . . . . ",
". . . . . . . . . . . . . . . . . # . @ . . . . . . . . @ . . . . . . . . . . . . . . . . . . . . . . . . . . . . . . . . . . . ",
". . . . . . . . . . . . . . . . # * . . . . + . . $ . @ . . . . . . . . . . . . . . . . . . . . . . . . . . . . . . . . . . . . "};
