/* XPM */
static char * trm_front_xpm[] = {
"64 64 138 2",
"  	c None",
". 	c #70C8A0",
"+ 	c #71C9A1",
"@ 	c #6FC79F",
"# 	c #6DC89F",
"$ 	c #70C89E",
"% 	c #70C8A2",
"& 	c #71C9A3",
"* 	c #6EC8A2",
"= 	c #6FC79D",
"- 	c #71C89E",
"; 	c #71C99F",
"> 	c #71C7A0",
", 	c #6EC9A0",
"' 	c #494752",
") 	c #484850",
"! 	c #303038",
"~ 	c #303136",
"{ 	c #30303A",
"] 	c #72C99F",
"^ 	c #606068",
"/ 	c #5F5F67",
"( 	c #6EC99E",
"_ 	c #313139",
": 	c #2E3138",
"< 	c #47474F",
"[ 	c #48494E",
"} 	c #5F6065",
"| 	c #71C7A2",
"1 	c #2F2F37",
"2 	c #2F3237",
"3 	c #606166",
"4 	c #616267",
"5 	c #616169",
"6 	c #31313B",
"7 	c #302F37",
"8 	c #60606A",
"9 	c #626169",
"0 	c #000000",
"a 	c #5E6168",
"b 	c #010101",
"c 	c #313038",
"d 	c #616068",
"e 	c #615F6A",
"f 	c #494951",
"g 	c #464952",
"h 	c #000100",
"i 	c #474A51",
"j 	c #2E313A",
"k 	c #72C8A1",
"l 	c #312F3A",
"m 	c #464950",
"n 	c #010103",
"o 	c #323139",
"p 	c #484854",
"q 	c #784041",
"r 	c #7A3F41",
"s 	c #010000",
"t 	c #313237",
"u 	c #D89970",
"v 	c #D69871",
"w 	c #000002",
"x 	c #2F3035",
"y 	c #D99870",
"z 	c #D8996E",
"A 	c #010100",
"B 	c #303135",
"C 	c #2F2F39",
"D 	c #793E40",
"E 	c #773F42",
"F 	c #794142",
"G 	c #2E3136",
"H 	c #9189B8",
"I 	c #9088BB",
"J 	c #9088B9",
"K 	c #8F87B8",
"L 	c #B03F97",
"M 	c #B14098",
"N 	c #EAE9F9",
"O 	c #EAE9FB",
"P 	c #000201",
"Q 	c #D7986F",
"R 	c #D79970",
"S 	c #B24199",
"T 	c #D89872",
"U 	c #EAE7F8",
"V 	c #E9E8F8",
"W 	c #F9CFB9",
"X 	c #F8D0B7",
"Y 	c #FBD1BB",
"Z 	c #FAD1BB",
"` 	c #F6D1B7",
" .	c #F9D0BA",
"..	c #020001",
"+.	c #F8D0B6",
"@.	c #F9CFB7",
"#.	c #F7CFB6",
"$.	c #F9D1B8",
"%.	c #D89A71",
"&.	c #F7D2B8",
"*.	c #D99A71",
"=.	c #494A4F",
"-.	c #6FC7A1",
";.	c #484852",
">.	c #494953",
",.	c #C1B9D1",
"'.	c #C0B8CF",
").	c #2F3239",
"!.	c #2F3336",
"~.	c #45484F",
"{.	c #D8580F",
"].	c #D85811",
"^.	c #494850",
"/.	c #D8580D",
"(.	c #C0B8D0",
"_.	c #302E39",
":.	c #322F3A",
"<.	c #D7590F",
"[.	c #9187B9",
"}.	c #9189BA",
"|.	c #8F89B9",
"1.	c #D95910",
"2.	c #D9590E",
"3.	c #8F89B7",
"4.	c #D7570E",
"5.	c #8F88BB",
"6.	c #302F35",
"7.	c #484B52",
"8.	c #010302",
"9.	c #474A4F",
"0.	c #46494E",
"a.	c #484651",
"b.	c #474550",
"c.	c #4A4951",
"d.	c #70C69F",
"e.	c #8F87B6",
"f.	c #6FCA9F",
"g.	c #6FC9A3",
". . . . . . . . . . . . . . . . . . . . . . . . + + @ . . . . . . . . . . @ + + . . . . . . . . . . . . . . . . . . . . . . . . ",
". . . . . . . . . . . . . . . . . . . . . . . . . # $ . . $ @ . . @ $ . . $ # . . . . . . . . . . . . . . . . . . . . . . . . . ",
". . . . . . . . . . . . . . . . . . . . . . . . . . % @ & @ + * * + @ & @ % . . . . . . . . . . . . . . . . . . . . . . . . . . ",
". . . . . . . . . . . . . . . . . . . . . . . . . $ = $ - . @ . . # . - $ = $ . . . . . . . . . . . . . . . . . . . . . . . . . ",
". . . . . . . . . . . . . . . . . . . . . . . . . & . . . % % % % % % . . . & . . . . . . . . . . . . . . . . . . . . . . . . . ",
". . . . . . . . . . . . . . . . . . . . . . . . . $ @ ; @ + > . . > + @ ; @ $ . . . . . . . . . . . . . . . . . . . . . . . . . ",
". . . . . . . . . . . . . . . . . . . . . . . . . + . . . . . . . . . . . . + . . . . . . . . . . . . . . . . . . . . . . . . . ",
". . . . . . . . . . . . . . . . . . . . . . . . , ' ) ! ! ~ { ! ! { ~ ! ! ) ' , . . . . . . . . . . . . . . . . . . . . . . . . ",
". . . . . . . . > @ . . . . + @ . . > . + > $ . , ) ) ! { ~ { ! ! { ~ { ! ) ) , . $ > + . > . . @ + . , . . @ > . . . . . . . . ",
". . . . . . . . @ . . . . , . . . . , . ] ! ! ! ! ) ) ^ / ^ ^ ^ ^ ^ ^ / ^ ) ) ! ! ! ! ; . . . . . . , . . . . @ . . . . . . . . ",
". . . . . . . . . . @ . . . + . . . . ( % _ : ! ! < [ } ^ ^ ^ ^ ^ ^ ^ ^ } [ < ! ! : _ % $ . . . . + . . . @ . . . . . . . . . . ",
". . . . . . . . . . . * + . . . . > | 1 2 1 ~ 3 ^ ^ 3 4 / 5 ^ ^ ^ ^ 5 / 4 3 ^ ^ 3 ~ 1 2 1 | > . . . . + % . . . . . . . . . . . ",
". . . . . . . . . . . + . . % . . , , 6 7 6 ! 8 ^ ^ ^ ^ 9 ^ ^ ^ ^ ^ ^ 9 ^ ^ ^ ^ 8 ! 6 7 6 . , . . % . . + . . , . . . . . . . . ",
". . . . . . . . . , . . . . . = $ 0 0 ~ : / a / 3 ^ ^ 5 ^ ^ 5 a a 5 ^ ^ 5 ^ ^ 3 / a / : ~ 0 0 $ = . . . . . , . . . . . . . . . ",
". . . . . . . . + . + . % . . & + b b { c 8 d e 8 ^ ^ ^ ^ ^ / ^ ^ / ^ ^ ^ ^ ^ 8 e d 8 c { b b + & . . % . + . + . . . . . . . . ",
". . . . . . . . @ . . . . @ + 0 0 0 0 { ~ ^ 3 ) f < ) ) ) f ) g g ) f ) ) ) < f ) 3 ^ ~ { 0 0 0 0 + @ . . . . @ . . . . . . . . ",
". . . . . . . . , % . . . . . 0 b 0 h ! ! ^ ^ i ) ) ) ) ) ) ) ) ) ) ) ) ) ) ) ) i ^ ^ ! ! h 0 b b @ . . . . % , . . . . . . . . ",
". . . . . . . . . . . . . . . 0 0 ! _ j ! ) ) / ^ ^ ^ ^ ^ ^ ^ ^ ^ ^ ^ ^ ^ ^ ^ ^ ^ ) ) ! j _ ! 0 0 . . . . . . . . . . . . . . . ",
". . . . . . . . . . k . . , . 0 0 l ! ! : < m ^ ^ ^ ^ ^ ^ ^ ^ ^ ^ ^ ^ ^ ^ ^ ^ ^ ^ m < : ! ! l 0 0 . , . . > . . . . . . . . . . ",
". . . . . . . . . . % - @ . . 0 0 1 ! : 1 _ ! ^ ^ ^ / ^ ^ ^ ^ ^ ^ ^ ^ ^ ^ / ^ ^ ^ ! _ 1 : ! 1 0 0 . . @ - % . . . . . . . . . . ",
". . . . . . . . . . . @ . . $ 0 b ! 6 : _ 1 ! ^ ^ ^ ^ ^ 5 ^ ^ ^ ^ ^ ^ 5 ^ ^ ^ ^ ^ ! 1 _ : { ! 0 0 $ . . @ . . . . . . . . . . . ",
". . . . . . . . . . . . . . + n n l ! ! ! ! ! ) ) 5 ^ 5 / ^ ^ ^ ^ ^ ^ / 5 ^ 5 ) ) ! ! ! ! ! l n n + . . . . . . . . . . . . . . ",
". . . . . . . . . . . . $ . % 0 0 _ ! : ! ! 1 ) ) ^ ^ ^ ^ / ^ ^ ^ ^ / ^ ^ ^ ^ ) ) 1 ! ! : ! _ 0 0 % + $ . . . . . . . . . . . . ",
". . . . . . . . + . . . + + . . . b 0 ! ! ! ! ! ! ) ) ) ) ) ) ) ) ) ) ) ) ) ) ! ! ! ! ! ! 0 b . . . + . . . . + . . . . . . . . ",
". . . . . . . . . . . . . . . , . 0 0 ! ! ! o 1 ! [ < [ p ) ) < < ) ) p [ < [ ! 1 o ! ! ! 0 0 . , . . . . . . . . . . . . . . . ",
". . . . . . . . . . . . . . @ q q 0 0 ! ! ! ! { ! ! ! ! ! ! ~ ! ! ~ ! ! ! ! ! ! { ! ! ! ! 0 0 q q @ . . . . . . . . . . . . . . ",
". . . . . . . . . . . . . . . r q s 0 ! ~ ! 1 t ! 1 { ! ~ ! { { { { ! ~ ! { 1 ! t 1 ! ~ ! 0 s q r . . . . . . . . . . . . . . . ",
". . . . . . . . . . . . % . . q q u v w w ^ ^ { 1 t ! ! _ x t ~ ~ t x _ ! ! t 1 { ^ ^ w w v u q q . . % . . . . . . . . . . . . ",
". . . . . . . . . . . . % . . q q y z 0 A ^ a { ! ! ! B ! ! C 1 1 C ! ! B ! ! ! { a ^ A 0 z y q q . . % . . . . . . . . . . . . ",
". . . . . . . . . . . . . . . r r u u D E ! ! ^ ^ ^ 5 ^ ^ 5 ^ ^ ^ ^ 5 ^ ^ 5 ^ ^ ^ ! ! E D u u r r . . . . . . . . . . . . . . . ",
". . . . . . . . . . . . . . @ q q u y q F ! ! ^ ^ ^ ^ ^ 8 ^ / ^ ^ / ^ 8 ^ ^ ^ ^ ^ ! ! F q y u q q @ . . . . . . . . . . . . . . ",
". . . . . . . . . . . . . . . , . 0 0 u u 1 G ! c H I d e 0 0 0 0 0 0 e d I H c ! G 1 u u 0 0 . , . . . . . . . . . . . . . . . ",
". . . . . . . . . . . . . . . . + 0 0 u u ~ ~ 1 { J J d d 0 h 0 0 h 0 d d J K { 1 ~ ~ u u 0 s + . . . . . . . . . . . . . . . . ",
". . . . . . . . . . . . . . . . $ | . 0 0 L M u u N O b P u Q R R Q u P b O N u u M L h 0 . | $ . . . . . . . . . . . . . . . . ",
". . . . . . . . . . . . . . . . . . $ 0 0 M S u T U V 0 0 R u Q Q u R 0 0 V U T u S M 0 0 $ . > . . . . . . . . . . . . . . . . ",
". . . . . . . . . . . . . . . . . k . > @ 0 0 z u W X Y Z ` X  . .X ` Z Y X W u z 0 0 @ . . k . . . . . . . . . . . . . . . . . ",
". . . . . . . . . . . . . . . . . . $ + . w ..u z X +.@.#.X X @.@.X X #.@.+.X z u ..w . + $ . . . . . . . . . . . . . . . . . . ",
". . . . . . . . . . . . . . . . . . . . # ~ ~ q q z u #.X X $.%.%.$.X X #.u z q q ~ ~ # . . . . . . . . . . . . . . . . . . . . ",
". . . . . . . . . . . . . . . . % . . . . { ! r q u u &.X @.X u u X @.X &.u u q r ! { . . . . % . . . . . . . . . . . . . . . . ",
". . . . . . . . . . . . . . . . + , . 0 w a 3 ^ ^ ! 6 1 _ z *.*.*.*.z _ 1 6 ! ^ ^ 3 a w 0 . . + . . . . . . . . . . . . . . . . ",
". . . . . . . . % . . . . . . @ . * . 0 b ^ / / ^ ! ! G ~ R *.u u u u ~ ! { ! ^ / / ^ b 0 . * . @ . . . . . . % . . . . . . . . ",
". . . . . . . . . . . . % . . , . b 0 C ~ ) ) 0 0 ) < [ [ ! ! ! _ ! ! ) =.) [ 0 0 ) ) ~ C 0 b . , . . % . . . . . . . . . . . . ",
". . . . . . . . . . % -.> + $ . , 0 0 c ! ' ) 0 0 ;.f >.f { ! ! 7 c { ;.f =.f 0 0 ) ' ! c 0 0 , . $ + > -.% . . . . . . . . . . ",
". . . . . . . . . @ $ ( > % + ! ! ,.'.j c ).!.0 0 ) ~.[ ) {.].^.^.{./.m ) ~.) 0 0 !.).c j '.,.! ! + % > ( $ @ . . . . . . . . . ",
". . . . . . . . % . . . . > . ).! (.(.~ c _.:.0 s < ) < ) {.<.m ;.{.{.' g [ ) 0 0 :._.c ~ (.(.! ).. > . . . . % . . . . . . . . ",
". . . . . . . . . . . , . . . l c [.}.|.|.0 A c ! J J ) ) 1.2./.<.) ) ;.) K J ! c A 0 |.|.}.[.c l . . . , . . . . . . . . . . . ",
". . . . . . . . . . . . . . . ! j |.J }.3...0 c ! [.}.< ) 4.{.{.{.) ) [ ) J |.c c 0 ..3.}.J |.j ! . . . . . . . . . . . . . . . ",
". . . . . . . . . % . . . . $ + . 1 ! ! c 0 0 0 0 ! ! J J }.}.J }.1.{.J }.! 1 ..0 0 0 c ! ! 1 . + $ . . . . % . . . . . . . . . ",
". . . . . . . . . . . . . . . . > ! ! _ { 0 0 0 0 c ! J |.J 5.J J ].{.J |.6 ! 0 0 0 0 { _ ! ! > . . . . . . . . . . . . . . . . ",
". . . . . . . . . . . . . . . . -.. . . . w 0 ) ) x ! ! : ! ! : 1 ! ! 1 ! 1 ~ ) ) 0 w . . . . -.. . . . . . . . . . . . . . . . ",
". . . . . . . . . . . . . . . . + . $ . . 0 0 f ) _ ! ! c ! 7 1 6.1 1 c c o c f f 0 0 . . . . + . . . . . . . . . . . . . . . . ",
". . . . . . . . . . . . . . . . . . @ & % b 0 0 0 ~.m m 7.A 8.b 0 0 b ~.9.0.0.0 0 0 n . & @ . . . . . . . . . . . . . . . . . . ",
". . . . . . . . . . . . . . . . . = . $ . 0 0 0 0 ' ^.' a.0 w w w w h a.b.' c.0 0 0 0 . $ . @ . . . . . . . . . . . . . . . . . ",
". . . . . . . . . . . . . . . . $ & | + d.n 0 K J e.|.0 s f.; ; ( . g.0 w J J K K 0 n d.+ | & $ . . . . . . . . . . . . . . . . ",
". . . . . . . . . . . . . . . . , . $ % ( s 0 J }.[.J 0 0 , @ . . $ . 0 b J J K J 0 s ( . $ $ , . . . . . . . . . . . . . . . . ",
". . . . . . . . . . . . . . . . $ . > . & . . 0 w 0 0 . % $ + + . . . . . 0 0 b 0 . . & . > . $ . . . . . . . . . . . . . . . . ",
". . . . . . . . . . . . . . . . @ . . . . @ + 0 w P 0 , . -.% . . % -.. , 0 P w 0 + @ . . . . @ . . . . . . . . . . . . . . . . ",
". . . . . . . . . . . . . . . . + . + . % . . & % + % . . . * . . * . . . % + % & . . % . + . + . . . . . . . . . . . . . . . . ",
". . . . . . . . . . . . . . . . . , . . . . . = . -.$ % . . . . . . . . % $ -.. = . . . . . , . . . . . . . . . . . . . . . . . ",
". . . . . . . . . . . . . . . . . . . + . . % . . & . + > . . . . . . > + . & . . % . . + . . , . . . . . . . . . . . . . . . . ",
". . . . . . . . . . . . . . . . . . . * + . . . @ . , $ . . g.. . g.. . $ , . @ . . . + % . . . . . . . . . . . . . . . . . . . ",
". . . . . . . . . . . . . . . . . . @ . . . + . . . @ , . . . . . . . . , @ . . . + . . . @ . . . . . . . . . . . . . . . . . . ",
". . . . . . . . . . . . . . . . @ . . . . , . . . . . > + . . . . . . + > . . . . . , . . . . @ . . . . . . . . . . . . . . . . ",
". . . . . . . . . . . . . . . . > @ . . . . + @ @ . . * ; % . . . . % ; * . . @ @ + . , . . @ > . . . . . . . . . . . . . . . . "};
