/* XPM */
static char * trm_front_rx_xpm[] = {
"64 64 163 2",
"  	c None",
". 	c #70C8A0",
"+ 	c #6EC99E",
"@ 	c #70C8A2",
"# 	c #6FC79F",
"$ 	c #71C9A1",
"% 	c #70C89E",
"& 	c #6EC9A0",
"* 	c #71C7A0",
"= 	c #6FC79D",
"- 	c #6FC7A1",
"; 	c #6FC9A3",
"> 	c #70C7A4",
", 	c #6DC89D",
"' 	c #71C9A3",
") 	c #71C7A2",
"! 	c #71C99F",
"~ 	c #484850",
"{ 	c #303038",
"] 	c #30303A",
"^ 	c #313038",
"/ 	c #484852",
"( 	c #2F2F37",
"_ 	c #303136",
": 	c #606068",
"< 	c #71C89E",
"[ 	c #2E3138",
"} 	c #47474F",
"| 	c #6FCAA1",
"1 	c #5F5F67",
"2 	c #6EC8A2",
"3 	c #2E3136",
"4 	c #30303C",
"5 	c #616169",
"6 	c #72C8A1",
"7 	c #000000",
"8 	c #010101",
"9 	c #616068",
"0 	c #000002",
"a 	c #313036",
"b 	c #312F3C",
"c 	c #494951",
"d 	c #000100",
"e 	c #2E313A",
"f 	c #60606A",
"g 	c #5F5F69",
"h 	c #494850",
"i 	c #6DC7A1",
"j 	c #2F2F39",
"k 	c #313139",
"l 	c #2F3237",
"m 	c #312F3A",
"n 	c #6DC9A0",
"o 	c #784041",
"p 	c #773F40",
"q 	c #70C69F",
"r 	c #784043",
"s 	c #D6986F",
"t 	c #D7986F",
"u 	c #5E6168",
"v 	c #302F35",
"w 	c #794142",
"x 	c #D89970",
"y 	c #D99A71",
"z 	c #5F6065",
"A 	c #606166",
"B 	c #31313B",
"C 	c #2F323B",
"D 	c #D79970",
"E 	c #77413F",
"F 	c #313237",
"G 	c #5F626B",
"H 	c #78403F",
"I 	c #D8996E",
"J 	c #D99870",
"K 	c #7A3E40",
"L 	c #2F3035",
"M 	c #61616B",
"N 	c #7A403F",
"O 	c #6DC89F",
"P 	c #010103",
"Q 	c #D79A6E",
"R 	c #8F87B8",
"S 	c #9088B9",
"T 	c #010000",
"U 	c #D89872",
"V 	c #DA9971",
"W 	c #9189BA",
"X 	c #616267",
"Y 	c #B14098",
"Z 	c #E9E8FA",
"` 	c #E9E8F8",
" .	c #F8D0B7",
"..	c #F8D0B6",
"+.	c #F8CFB9",
"@.	c #F9D1B7",
"#.	c #F9D1B8",
"$.	c #F7CFB6",
"%.	c #F9CFB6",
"&.	c #F8CEB6",
"*.	c #F7CEBA",
"=.	c #F7D2B8",
"-.	c #F6D1B7",
";.	c #F7CEB8",
">.	c #F8CFBB",
",.	c #7A3F43",
"'.	c #FAD0B7",
").	c #F6D1B6",
"!.	c #F9CFB7",
"~.	c #F7D2B7",
"{.	c #7B4044",
"].	c #7A3F41",
"^.	c #9187B9",
"/.	c #D89A71",
"(.	c #474751",
"_.	c #8F89B9",
":.	c #5F6269",
"<.	c #9187BB",
"[.	c #464950",
"}.	c #323139",
"|.	c #626169",
"1.	c #D8580F",
"2.	c #D7570E",
"3.	c #47484D",
"4.	c #302F37",
"5.	c #2F2E36",
"6.	c #D7590F",
"7.	c #48474F",
"8.	c #DA570F",
"9.	c #9088B7",
"0.	c #010100",
"a.	c #BEB9D0",
"b.	c #BDB8CF",
"c.	c #C0B8D0",
"d.	c #C1B8D3",
"e.	c #70C6A1",
"f.	c #8F88BB",
"g.	c #D7570C",
"h.	c #D8580D",
"i.	c #BFB7CF",
"j.	c #70C99D",
"k.	c #8F87BA",
"l.	c #9288BC",
"m.	c #9088BB",
"n.	c #4A4951",
"o.	c #72C99F",
"p.	c #474A4F",
"q.	c #45484F",
"r.	c #494752",
"s.	c #494953",
"t.	c #494955",
"u.	c #48494D",
"v.	c #46494E",
"w.	c #71C7A4",
"x.	c #4A4752",
"y.	c #70C79D",
"z.	c #8E86B7",
"A.	c #020202",
"B.	c #6DCA9E",
"C.	c #72C7A0",
"D.	c #C0B7D2",
"E.	c #C1B9D1",
"F.	c #020003",
". . . . . . . . . . . . . . . . . + . . @ . . # # . . . . $ . . . . $ . . . . # # . . @ . . + . . . . . . . . . . . . . . . . . ",
". . . . . . . . . . . . . . . . . % . & * % . . * % . % & = + . . + = & % . % * . . % * & . % . . . . . . . . . . . . . . . . . ",
". . . . . . . . . . . . . . . . . . . @ & . @ . - ; > $ . . . @ @ . . . $ > ; - . @ . & @ . . . . . . . . . . . . . . . . . . . ",
". . . . . . . . . . . . . . . . * & # & . . * % % = + = & . = , , = . & = + = % % * . . & # & * . . . . . . . . . . . . . . . . ",
". . . . . . . . . . . . . . . . . # @ # @ ' . . @ @ ) ' * $ @ ) ) @ $ * ' ) @ @ . . ' @ # @ # . . . . . . . . . . . . . . . . . ",
". . . . . . . . . . . . . . . . . ' @ . . $ & $ ! ~ ~ { ] { { ^ ^ { { ] { ~ ~ ! $ & $ . . @ ' . . . . . . . . . . . . . . . . . ",
". . . . . . . . . . . . . . . . . . % . . @ . . . / ~ ( { ( { { { { ( { ( ~ / . . . @ . . % . . . . . . . . . . . . . . . . . . ",
". . . . . . . . . . . . . . . . . . . % @ ^ _ { { ~ ~ : : : : : : : : : : ~ ~ { { _ ^ @ % . . . . . . . . . . . . . . . . . . . ",
". . . . . . . . . % @ # . . & % @ . < . % [ { ( { } ~ : : : : : : : : : : ~ } { ( { [ % . < . @ % & . . # @ % . . . . . . . . . ",
". . . . . . . . . . . | $ . . @ @ ; $ { { { ^ : : 1 : : : : : : : : : : : : 1 : : ^ { { { $ ; ' @ . . $ | . . . . . . . . . . . ",
". . . . . . . . . # * 2 $ . . # . @ - 3 4 [ ^ : : : : 5 1 : : : : : : 1 5 : : : : ^ [ 4 3 - @ . # . . $ 2 * # . . . . . . . . . ",
". . . . . . . . ! 6 . . . . # . . 7 8 [ _ 9 : : : : : : : : : 1 1 : : : : : : : : : 9 _ [ 8 7 . . # . . . . 6 ! . . . . . . . . ",
". . . . . . . . & # . 2 . | . | ! 7 0 a b : 1 5 : : : 5 : 5 : : : : 5 : 5 : : : 5 : : b a 0 7 ! | . | . 2 . # & . . . . . . . . ",
". . . . . . . . ! . & . . . . 7 8 8 7 { _ : : ~ ~ ~ ~ } c ~ ~ ~ ~ ~ ~ c } ~ ~ ~ ~ 1 : _ { 7 8 8 7 . . . . & . ! . . . . . . . . ",
". . . . . . . . . . . @ . . . d 0 7 7 { e f g ~ ~ ~ ~ ~ ~ ~ ~ ~ ~ ~ ~ ~ ~ ~ ~ ~ } g f e { 7 7 0 d . . . @ . . . . . . . . . . . ",
". . . . . . . . . . . . # . . 7 7 { { { { h ~ : : : : : : : : : : : : : : : : : : ~ h { { { { 7 7 . . # . . . . . . . . . . . . ",
". . . . . . . . . . % . # . . 7 7 { _ ] { ~ ~ : : : : : 1 : : : : : : 1 : : : : : ~ ~ { ] _ { 7 7 . . # . % . . . . . . . . . . ",
". . . . . . . . # . . i # # . 0 7 { 3 j [ ^ k : : : : : : : : : : : : : : : : : : k ^ [ j 3 { 7 0 . # # i . . # . . . . . . . . ",
". . . . . . . . . . # . . . & 7 7 e { { { k { 5 : 1 : : : : : : : : : : : : 1 : 5 { k { { { e 7 7 & . . . # . . . . . . . . . . ",
". . . . . . . . . . & @ & . . 7 7 l 3 ( k [ m c ~ : : : : : : 5 5 : : : : : : ~ c m [ k ( 3 l 7 7 . . & @ & . . . . . . . . . . ",
". . . . . . . . & . . , . . & 7 7 m ] ^ { ^ ( ~ ~ 1 : : 1 : : 1 1 : : 1 : : 1 ~ ~ ( ^ { ^ ] m 7 7 & . . , . . & . . . . . . . . ",
". . . . . . . . n . . ' . . @ . # 7 8 { m ] { { ( ~ ~ ~ ~ ~ ~ ~ ~ ~ ~ ~ ~ ~ ~ ( { { ] m { 8 7 # . @ . . ' . . n . . . . . . . . ",
". . . . . . . . . . . . . . . . . 7 7 ] { { { { { ~ ~ ~ ~ ~ } ~ ~ } ~ ~ ~ ~ ~ { { { { { ] 7 7 . . . . . . . . . . . . . . . . . ",
". . . . . . . . . * & @ . . & o o 7 0 { _ { { { { { { { { { { { { { { { { { { { { { { _ { 0 7 o o & . . @ & * . . . . . . . . . ",
". . . . . . . . . . * . # . & o p 7 7 { { [ ^ { ] ^ { { { { { { { { { { { { ^ ] { ^ [ { { 7 7 p o & . # . * . . . . . . . . . . ",
". . . . . . . . q . . . . . . r r s t 7 7 5 u ] { { a e v k ^ ^ ^ ^ k v e a { { ] u 5 7 7 t s r r . . . . . . # . . . . . . . . ",
". . . . . . . . . . . . . . . w o x y 7 7 z A { { B k _ C ( { { { { ( C _ k B { { A z 7 7 y x o w . . . . . . . . . . . . . . . ",
". . . . . . . . . . . . $ . . r r x D E E k F : 5 G : : 1 5 5 : : : 5 1 : : G 5 : F k E E D x r r . . $ . . . . . . . . . . . . ",
". . . . . . . . . . . & . @ . H H I J o K _ L : : A A : M z 1 : : 1 z M : A A : : L _ K o J I H N . @ . & . . . . . . . . . . . ",
". . . . . . . . & . . . . . . O @ P 8 x Q { { ^ ] R S : u 7 7 7 7 7 7 u : S R ] ^ { { Q x 8 P @ O . . . . . . & . . . . . . . . ",
". . . . . . . . . . * . . % & . . T 7 U V [ { [ { W W 9 X 8 7 7 7 7 8 X 9 W W { [ { [ V U 7 T . . & % . . . . . . . . . . . . . ",
". . . . . . . . @ . . * @ . . @ ' . . 7 7 Y Y x x Z ` 7 7 x Q x x Q x 7 7 ` Z x x Y Y 7 7 . . ' @ . . @ * . . @ . . . . . . . . ",
". . . . . . . . # . . * . . . * = . . 7 7 Y Y y x ` ` 7 d U x x x x U d 7 ` ` x y Y Y 7 7 . . 6 . . . . . . . . . . . . . . . . ",
". . . . . . . . . . . + . @ . & % . . [ ] 7 7 x x  ...+. . .+.@...+. . .+.@. .t t 8 7 . O . . . . . . . . . . . . . . . . . . . ",
". . . . . . . . . . . & . . . . @ . & ^ { d 7 x x #.$.%. . .&.$. .&.#. .%. .#.x J 7 7 & < $ # ! . . . . . . . . . . . . . . . . ",
". . . . . . . . $ . . . & @ . + . ] j / ~ m B o H x x *.+.=.@.D D ..-.;.>.x y H o k [ ' . . * . . . . . . . . . . . . . . . . . ",
". . . . . . . . . . . 2 6 . * @ @ l _ ~ } [ ( ,.,.x x '.).!.&.x x !.!.~.'.x x {.].] ( # . = * . . . . . . . . . . . . . . . . . ",
". . . . . . . . . @ * * @ $ . m ] ^.S 1 : 9 9 c ~ ~ / / ~ /.t t x x D ~ (.(.} : A 7 7 . # * % . . . . . . . . . . . . . . . . . ",
". . . . . . . . . * @ . . . . ^ { _.S u : :.: } ~ / ~ ~ c x x J J x x c ~ ~ / : : 0 7 % . . . . . . . . . . . . . . . . . . . . ",
". . . . . . . . # . . . & . # { { R S <.S ~ [.~ ~ u : : : { { }.^ { { : : : u ~ ~ ~ c 7 7 . . . . . . . . . . . . . . . . . . . ",
". . . . . . . . # % @ % . . . ^ ] S _.S _.~ } ~ ~ 9 : |.: ^ ( { ( _ { 5 1 : : ~ [.~ ~ 8 7 . & . . . . . . . . . . . . . . . . . ",
". . . . . . . . . . . . . # . . . k ] _ { & & 7 0 c ~ : : 1.1.~ ~ 1.2.: A ~ ~ ~ h 3.~ 7 8 . . . . . . . . . . . . . . . . . . . ",
". . . . . . . . . . . . @ @ # . . ] 4.4.5.# . 8 7 ~ ~ : M 6.1.~ ~ 1.1.9 5 / ~ 7.c h / 7 7 . . . . . . . . . . . . . . . . . . . ",
". . . . . . . . $ # $ $ @ @ . . . ! ! ! $ . O 7 7 S S ~ [.1.1.8.1.~ ~ [.~ 9.W 0.0.a.b.c.d.} / . . . . . . . . . . . . . . . . . ",
". . . . . . . . $ . . & . . . . . e.q - @ . $ 7 7 f.S ~ ~ g.h.8.1.~ ~ c ~ R f.0 0 i.c.c.c.~ [.. . . . . . . . . . . . . . . . . ",
". . . . . . . . * # . . . . . @ | . ! j.% 0 7 ~ ~ { { S k._._.S _.1.1.R S d 7 7 7 S 9.S l.(.7.. . . . . . . . . . . . . . . . . ",
". . . . . . . . . . # . . . . = % - . . @ 7 7 7.} { k S _.S S S S 1.8._.S 7 7 7 T ^.m.<.S ~ [.. . . . . . . . . . . . . . . . . ",
". . . . . . . . < . . $ . . . . . . . % $ 7 0 ~ n.~ ~ { { ] ^ { { { ] { { { k { { 7 7 7 7 . . . . . . . . . . . . . . . . . . . ",
". . . . . . . . . . . . . . . . . . # . . 7 7 c ~ ~ c [ { _ { { { { [ { { { { _ { 7 7 7 7 . o.% . . . . . . . . . . . . . . . . ",
". . . . . . . . . . . . . . . . q & & . . 0 8 ~ p.c ~ ~ q.} ~ ~ / { { { { 7 7 T 7 @ @ . @ . . # . . . . . . . . . . . . . . . . ",
". . . . . . . . . . . . . . . . . $ @ . ) 7 7 r.7.~ c s.~ t.h ~ ~ { }.{ _ 7 8 7 7 = . . < . * . . . . . . . . . . . . . . . . . ",
". . . . . . . . . . . . . . . . & % . * % . | 8 8 (.~ } s.u.v.7 8 P 7 8 7 ) . w.. . . $ 2 . & * . . . . . . . . . . . . . . . . ",
". . . . . . . . . . . . . . . . $ $ . . 6 - $ P P c 7.[.h x.h 8 8 8 7 7 8 & . . y.q . . . . . * . . . . . . . . . . . . . . . . ",
". . . . . . . . . . . . . . . . . $ | . # % ' 8 8 R k.z.m.A.8 B.! & . . @ . * . % . # @ * . . . . . . . . . . . . . . . . . . . ",
". . . . . . . . . . . . . . . . . . . & % | . 0 7 W S _.S d 7 # % + % # + # | . & . ' % . q . . . . . . . . . . . . . . . . . . ",
". . . . . . . . . . . . . . . . . # . . . . < 7 0 i.c.c.c.7 7 @ $ . . . C.. . # . . @ . . . & . . . . . . . . . . . . . . . . . ",
". . . . . . . . . . . . . . . . # . . . . # $ 7 7 D.c.E.c.7 7 . . . . . . . . . . . . . . . . . . . . . . . . . . . . . . . . . ",
". . . . . . . . . . . . . . . . $ . $ . @ . . ' . 7 7 7 7 * ' . . . . . . . . . . . . . . . . . . . . . . . . . . . . . . . . . ",
". . . . . . . . . . . . . . . . . & . . . . . = % T 8 7 F.+ # . . . . . . . . . . . . . . . . . . . . . . . . . . . . . . . . . ",
". . . . . . . . . . . . . . . . . . . $ . . @ . . . = . q 6 . . . . . . . . . . . . . . . . . . . . . . . . . . . . . . . . . . ",
". . . . . . . . . . . . . . . . . . . 2 $ . . . # ; . | . . . @ . . . . . . . . . . . . . . . . . . . . . . . . . . . . . . . . ",
". . . . . . . . . . . . . . . . . . # . . . $ . . * # . . . . . . . . . . . . . . . . . . . . . . . . . . . . . . . . . . . . . ",
". . . . . . . . . . . . . . . . # . . . . & . . . . . 2 % . & . . . . . . . . . . . . . . . . . . . . . . . . . . . . . . . . . ",
". . . . . . . . . . . . . . . . * # . . . . $ # . . . . . . = . . . . . . . . . . . . . . . . . . . . . . . . . . . . . . . . . "};
