/* XPM */
static char * trm_front_sx_xpm[] = {
"64 64 168 2",
"  	c None",
". 	c #70C8A0",
"+ 	c #6EC99E",
"@ 	c #70C8A2",
"# 	c #6FC79F",
"$ 	c #71C9A1",
"% 	c #70C89E",
"& 	c #6EC9A0",
"* 	c #71C7A0",
"= 	c #6FC79D",
"- 	c #6FC7A1",
"; 	c #6FC9A3",
"> 	c #70C7A4",
", 	c #6DC89D",
"' 	c #71C9A3",
") 	c #71C7A2",
"! 	c #71C99F",
"~ 	c #484850",
"{ 	c #303038",
"] 	c #30303A",
"^ 	c #313038",
"/ 	c #484852",
"( 	c #2F2F37",
"_ 	c #303136",
": 	c #606068",
"< 	c #71C89E",
"[ 	c #2E3138",
"} 	c #47474F",
"| 	c #6FCAA1",
"1 	c #5F5F67",
"2 	c #6EC8A2",
"3 	c #2E3136",
"4 	c #30303C",
"5 	c #616169",
"6 	c #72C8A1",
"7 	c #000000",
"8 	c #010101",
"9 	c #616068",
"0 	c #000002",
"a 	c #313036",
"b 	c #312F3C",
"c 	c #494951",
"d 	c #000100",
"e 	c #2E313A",
"f 	c #60606A",
"g 	c #5F5F69",
"h 	c #494850",
"i 	c #6DC7A1",
"j 	c #2F2F39",
"k 	c #313139",
"l 	c #2F3237",
"m 	c #312F3A",
"n 	c #6DC9A0",
"o 	c #784041",
"p 	c #773F40",
"q 	c #70C69F",
"r 	c #784043",
"s 	c #D6986F",
"t 	c #D7986F",
"u 	c #5E6168",
"v 	c #302F35",
"w 	c #794142",
"x 	c #D89970",
"y 	c #D99A71",
"z 	c #5F6065",
"A 	c #606166",
"B 	c #31313B",
"C 	c #2F323B",
"D 	c #D79970",
"E 	c #77413F",
"F 	c #313237",
"G 	c #5F626B",
"H 	c #78403F",
"I 	c #D8996E",
"J 	c #D99870",
"K 	c #7A3E40",
"L 	c #2F3035",
"M 	c #61616B",
"N 	c #7A403F",
"O 	c #6DC89F",
"P 	c #010103",
"Q 	c #D79A6E",
"R 	c #8F87B8",
"S 	c #9088B9",
"T 	c #010000",
"U 	c #D89872",
"V 	c #DA9971",
"W 	c #9189BA",
"X 	c #616267",
"Y 	c #B14098",
"Z 	c #E9E8FA",
"` 	c #E9E8F8",
" .	c #73C9A2",
"..	c #F8D0B7",
"+.	c #F9D1B7",
"@.	c #F8CFB9",
"#.	c #F8D0B6",
"$.	c #F9D1B8",
"%.	c #F9CFB6",
"&.	c #F8CEB6",
"*.	c #F7CFB6",
"=.	c #F8CFBB",
"-.	c #F7CEB8",
";.	c #F6D1B7",
">.	c #F7D2B8",
",.	c #F7CEBA",
"'.	c #7A3F41",
").	c #7B4044",
"!.	c #FAD0B7",
"~.	c #F7D2B7",
"{.	c #F9CFB7",
"].	c #F6D1B6",
"^.	c #7A3F43",
"/.	c #474751",
"(.	c #D89A71",
"_.	c #9187B9",
":.	c #000103",
"<.	c #5F6269",
"[.	c #8F89B9",
"}.	c #323139",
"|.	c #464950",
"1.	c #9187BB",
"2.	c #302F37",
"3.	c #47484D",
"4.	c #D7570E",
"5.	c #D8580F",
"6.	c #D8580D",
"7.	c #474A51",
"8.	c #626169",
"9.	c #45484F",
"0.	c #2F2E36",
"a.	c #C1B8D3",
"b.	c #C0B8D0",
"c.	c #BDB8CF",
"d.	c #BEB9D0",
"e.	c #010100",
"f.	c #9088B7",
"g.	c #D95912",
"h.	c #DA5711",
"i.	c #494953",
"j.	c #4A4A52",
"k.	c #72CAA0",
"l.	c #BFB7CF",
"m.	c #D7590D",
"n.	c #DB5810",
"o.	c #020001",
"p.	c #70C6A1",
"q.	c #48474F",
"r.	c #9288BC",
"s.	c #908ABA",
"t.	c #70C99D",
"u.	c #9088BB",
"v.	c #72C99F",
"w.	c #474A4F",
"x.	c #494955",
"y.	c #494752",
"z.	c #71C7A4",
"A.	c #46494E",
"B.	c #48494D",
"C.	c #70C79D",
"D.	c #4A4752",
"E.	c #6DCA9E",
"F.	c #020202",
"G.	c #8E86B9",
"H.	c #8F87BA",
"I.	c #72C7A0",
"J.	c #C1B9D1",
"K.	c #C0B7D2",
". . . . . . . . . . . . . . . . . + . . @ . . # # . . . . $ . . . . $ . . . . # # . . @ . . + . . . . . . . . . . . . . . . . . ",
". . . . . . . . . . . . . . . . . % . & * % . . * % . % & = + . . + = & % . % * . . % * & . % . . . . . . . . . . . . . . . . . ",
". . . . . . . . . . . . . . . . . . . @ & . @ . - ; > $ . . . @ @ . . . $ > ; - . @ . & @ . . . . . . . . . . . . . . . . . . . ",
". . . . . . . . . . . . . . . . * & # & . . * % % = + = & . = , , = . & = + = % % * . . & # & * . . . . . . . . . . . . . . . . ",
". . . . . . . . . . . . . . . . . # @ # @ ' . . @ @ ) ' * $ @ ) ) @ $ * ' ) @ @ . . ' @ # @ # . . . . . . . . . . . . . . . . . ",
". . . . . . . . . . . . . . . . . ' @ . . $ & $ ! ~ ~ { ] { { ^ ^ { { ] { ~ ~ ! $ & $ . . @ ' . . . . . . . . . . . . . . . . . ",
". . . . . . . . . . . . . . . . . . % . . @ . . . / ~ ( { ( { { { { ( { ( ~ / . . . @ . . % . . . . . . . . . . . . . . . . . . ",
". . . . . . . . . . . . . . . . . . . % @ ^ _ { { ~ ~ : : : : : : : : : : ~ ~ { { _ ^ @ % . . . . . . . . . . . . . . . . . . . ",
". . . . . . . . . % @ # . . & % @ . < . % [ { ( { } ~ : : : : : : : : : : ~ } { ( { [ % . < . @ % & . . # @ % . . . . . . . . . ",
". . . . . . . . . . . | $ . . @ @ ; $ { { { ^ : : 1 : : : : : : : : : : : : 1 : : ^ { { { $ ; ' @ . . $ | . . . . . . . . . . . ",
". . . . . . . . . # * 2 $ . . # . @ - 3 4 [ ^ : : : : 5 1 : : : : : : 1 5 : : : : ^ [ 4 3 - @ . # . . $ 2 * # . . . . . . . . . ",
". . . . . . . . ! 6 . . . . # . . 7 8 [ _ 9 : : : : : : : : : 1 1 : : : : : : : : : 9 _ [ 8 7 . . # . . . . 6 ! . . . . . . . . ",
". . . . . . . . & # . 2 . | . | ! 7 0 a b : 1 5 : : : 5 : 5 : : : : 5 : 5 : : : 5 : : b a 0 7 ! | . | . 2 . # & . . . . . . . . ",
". . . . . . . . ! . & . . . . 7 8 8 7 { _ : : ~ ~ ~ ~ } c ~ ~ ~ ~ ~ ~ c } ~ ~ ~ ~ 1 : _ { 7 8 8 7 . . . . & . ! . . . . . . . . ",
". . . . . . . . . . . @ . . . d 0 7 7 { e f g ~ ~ ~ ~ ~ ~ ~ ~ ~ ~ ~ ~ ~ ~ ~ ~ ~ } g f e { 7 7 0 d . . . @ . . . . . . . . . . . ",
". . . . . . . . . . . . # . . 7 7 { { { { h ~ : : : : : : : : : : : : : : : : : : ~ h { { { { 7 7 . . # . . . . . . . . . . . . ",
". . . . . . . . . . % . # . . 7 7 { _ ] { ~ ~ : : : : : 1 : : : : : : 1 : : : : : ~ ~ { ] _ { 7 7 . . # . % . . . . . . . . . . ",
". . . . . . . . # . . i # # . 0 7 { 3 j [ ^ k : : : : : : : : : : : : : : : : : : k ^ [ j 3 { 7 0 . # # i . . # . . . . . . . . ",
". . . . . . . . . . # . . . & 7 7 e { { { k { 5 : 1 : : : : : : : : : : : : 1 : 5 { k { { { e 7 7 & . . . # . . . . . . . . . . ",
". . . . . . . . . . & @ & . . 7 7 l 3 ( k [ m c ~ : : : : : : 5 5 : : : : : : ~ c m [ k ( 3 l 7 7 . . & @ & . . . . . . . . . . ",
". . . . . . . . & . . , . . & 7 7 m ] ^ { ^ ( ~ ~ 1 : : 1 : : 1 1 : : 1 : : 1 ~ ~ ( ^ { ^ ] m 7 7 & . . , . . & . . . . . . . . ",
". . . . . . . . n . . ' . . @ . # 7 8 { m ] { { ( ~ ~ ~ ~ ~ ~ ~ ~ ~ ~ ~ ~ ~ ~ ( { { ] m { 8 7 # . @ . . ' . . n . . . . . . . . ",
". . . . . . . . . . . . . . . . . 7 7 ] { { { { { ~ ~ ~ ~ ~ } ~ ~ } ~ ~ ~ ~ ~ { { { { { ] 7 7 . . . . . . . . . . . . . . . . . ",
". . . . . . . . . * & @ . . & o o 7 0 { _ { { { { { { { { { { { { { { { { { { { { { { _ { 0 7 o o & . . @ & * . . . . . . . . . ",
". . . . . . . . . . * . # . & o p 7 7 { { [ ^ { ] ^ { { { { { { { { { { { { ^ ] { ^ [ { { 7 7 p o & . # . * . . . . . . . . . . ",
". . . . . . . . q . . . . . . r r s t 7 7 5 u ] { { a e v k ^ ^ ^ ^ k v e a { { ] u 5 7 7 t s r r . . . . . . # . . . . . . . . ",
". . . . . . . . . . . . . . . w o x y 7 7 z A { { B k _ C ( { { { { ( C _ k B { { A z 7 7 y x o w . . . . . . . . . . . . . . . ",
". . . . . . . . . . . . $ . . r r x D E E k F : 5 G : : 1 5 5 : : : 5 1 : : G 5 : F k E E D x r r . . $ . . . . . . . . . . . . ",
". . . . . . . . . . . & . @ . H H I J o K _ L : : A A : M z 1 : : 1 z M : A A : : L _ K o J I H N . @ . & . . . . . . . . . . . ",
". . . . . . . . & . . . . . . O @ P 8 x Q { { ^ ] R S : u 7 7 7 7 7 7 u : S R ] ^ { { Q x 8 P @ O . . . . . . & . . . . . . . . ",
". . . . . . . . . . * . . % & . . T 7 U V [ { [ { W W 9 X 8 7 7 7 7 8 X 9 W W { [ { [ V U 7 T . . & % . . . . . . . . . . . . . ",
". . . . . . . . @ . . * @ . . @ ' . . 7 7 Y Y x x Z ` 7 7 x Q x x Q x 7 7 ` Z x x Y Y 7 7 . . ' @ . . @ * . . @ . . . . . . . . ",
". . . . . . . . . . . . . . . .  .. & 7 7 Y Y x x ` ` 7 d U x x x x U d 7 ` ` x y Y Y 7 7 . . = * . . . * . . # . . . . . . . . ",
". . . . . . . . . . . . . . . . . # . O . 7 8 t t ..+.@.....@.#.+.@.....@.#...x x 7 7 ] [ . . % & . @ . + . . . . . . . . . . . ",
". . . . . . . . . . . . . . . . ! # $ < & 7 7 J x $...%...$.&...*.&.....%.*.$.x x 7 d { ^ & . @ . . . . & . . . . . . . . . . . ",
". . . . . . . . . . . . . . . . . * . & ' [ k o H y x =.-.;.#.D D +.>.@.,.x x H o B m ~ / j ] . + . @ & . . . $ . . . . . . . . ",
". . . . . . . . . . . . . . . . . * = . # ( ] '.).x x !.~.{.{.x x &.{.].!.x x ^.^.( [ } ~ _ l @ @ * . 6 2 . . . . . . . . . . . ",
". . . . . . . . . . . . . . . . . % * # . 7 7 A : } /./.~ D x x t t (.~ / / ~ ~ c 9 9 : 1 S _.] m . $ @ * * @ . . . . . . . . . ",
". . . . . . . . . . . . . . . . # . . . % 7 :.: : / ~ ~ c x x J J x x c ~ ~ / ~ } : <.: u S [.{ ^ . . . . @ * . . . . . . . . . ",
". . . . . . . . . . . . . . . . . . . 7 7 c ~ ~ ~ u : : : { { ^ }.{ { : : : u ~ ~ |.~ S 1.S R { { # . & . . . # . . . . . . . . ",
". . . . . . . . . . . . . . . . . & . 7 8 ~ ~ |.~ 9 : : 5 { { _ 2.{ ( 5 f 5 : |.~ } ~ [.S [.S { ^ . . . % @ % # . . . . . . . . ",
". . . . . . . . . . . . . . . . . . . 8 7 ~ 3.h ~ ~ ~ : : 4.5.} h 5.5.A A ~ ~ 8 7 2 & { _ ] k . . . # . . . . . . . . . . . . . ",
". . . . . . . . . . . . . . . . . . . 7 7 / h c } ~ / 5 5 5.6.7.~ 5.5.8.5 9.} 7 8 . # 0.2.2.] . . # @ @ . . . . . . . . . . . . ",
". . . . . . . . . . . . . . . . . / } a.b.c.d.e.7 W f.|.~ 5.g.h.5.~ i./ j.f.W 7 7 O . $ ! k.! . . . @ @ $ $ # $ . . . . . . . . ",
". . . . . . . . . . . . . . . . . |.~ b.b.b.l.0 7 S R ~ ~ 6.m.n.5.} ~ c ~ R S o.7 $ . @ - q p.% . . . . & . . $ . . . . . . . . ",
". . . . . . . . . . . . . . . . . q./.r.S f.S 7 7 7 7 S R s.[.S R 5.5.R S { { ~ ~ 7 0 % t.! $ | @ . . . . . # * . . . . . . . . ",
". . . . . . . . . . . . . . . . . |.~ S 1.u._.T 0 7 8 u.W _.S u.S 5.5.s.S k ] 9.h 7 7 . . . - . = . . . . # . . . . . . . . . . ",
". . . . . . . . . . . . . . . . . . . 7 7 7 7 { ^ { { { { { { k k { { { ( |.h h ~ 7 7 . % . . . . . . . $ . . < . . . . . . . . ",
". . . . . . . . . . . . . . . . % v.. 7 7 7 7 { _ { { { { [ { { { { _ { [ c ~ ~ c 7 7 . . # . . . . . . . . . . . . . . . . . . ",
". . . . . . . . . . . . . . . . # . . @ . @ @ 7 T 7 7 { { { { / ~ ~ } 9.~ ~ c w.~ 8 0 . . & & q . . . . . . . . . . . . . . . . ",
". . . . . . . . . . . . . . . . . * . < . . = 7 7 8 7 _ { }.{ ~ ~ h x.~ i.c ~ q.y.7 7 ) . @ $ . . . . . . . . . . . . . . . . . ",
". . . . . . . . . . . . . . . . * & . 2 $ . . . z.. ) 7 8 7 P 8 7 A.B.i.} ~ /.8 8 | . % * . % & . . . . . . . . . . . . . . . . ",
". . . . . . . . . . . . . . . . * . . . . . q C.. . & 8 7 7 8 8 8 h D.h |.q.c P P $ - 6 . . $ $ . . . . . . . . . . . . . . . . ",
". . . . . . . . . . . . . . . . . . . * @ # . % . * . @ . . & ! E.8 F.u.G.H.R 8 8 ' % # . | $ . . . . . . . . . . . . . . . . . ",
". . . . . . . . . . . . . . . . . . q . % ' . & . | # + # % + % # 7 d S [.S W 7 0 . | % & . . . . . . . . . . . . . . . . . . . ",
". . . . . . . . . . . . . . . . . & . . . @ . . # . . I.. . . $ @ 7 7 b.b.b.l.0 7 < . . . . # . . . . . . . . . . . . . . . . . ",
". . . . . . . . . . . . . . . . . . . . . . . . . . . . . . . . . 7 7 b.J.b.K.7 7 $ # . . . . # . . . . . . . . . . . . . . . . ",
". . . . . . . . . . . . . . . . . . . . . . . . . . . . . . . . . ' * 7 7 7 7 . ' . . @ . $ . $ . . . . . . . . . . . . . . . . ",
". . . . . . . . . . . . . . . . . . . . . . . . . . . . . . . . & # + P 7 8 T % = . . . . . & . . . . . . . . . . . . . . . . . ",
". . . . . . . . . . . . . . . . . . . . . . . . . . . . . . . . . . 6 q . = . . . @ . . $ . . & . . . . . . . . . . . . . . . . ",
". . . . . . . . . . . . . . . . . . . . . . . . . . . . . . . . @ . . . | . ; # . . . $ @ . . . . . . . . . . . . . . . . . . . ",
". . . . . . . . . . . . . . . . . . . . . . . . . . . . . . . . . . . . . # * . . $ . . . # . . . . . . . . . . . . . . . . . . ",
". . . . . . . . . . . . . . . . . . . . . . . . . . . . . . . . . . . % 2 . . . . . & . . . . # . . . . . . . . . . . . . . . . ",
". . . . . . . . . . . . . . . . . . . . . . . . . . . . . . . . . = . . . . . . # $ . & . . # * . . . . . . . . . . . . . . . . "};
