/* XPM */
static char * trm_back_xpm[] = {
"64 64 114 2",
"  	c None",
". 	c #70C8A0",
"+ 	c #71C9A1",
"@ 	c #6FC79F",
"# 	c #6DC89F",
"$ 	c #70C89E",
"% 	c #70C8A2",
"& 	c #71C9A3",
"* 	c #6EC8A2",
"= 	c #6FC79D",
"- 	c #71C89E",
"; 	c #71C99F",
"> 	c #71C7A0",
", 	c #6EC9A0",
"' 	c #494752",
") 	c #484850",
"! 	c #303038",
"~ 	c #303136",
"{ 	c #30303A",
"] 	c #312F3A",
"^ 	c #313139",
"/ 	c #606068",
"( 	c #2F2F37",
"_ 	c #48494E",
": 	c #5F6065",
"< 	c #5F5F67",
"[ 	c #70C69F",
"} 	c #010101",
"| 	c #000000",
"1 	c #2E3136",
"2 	c #606166",
"3 	c #000002",
"4 	c #615F6A",
"5 	c #626169",
"6 	c #313036",
"7 	c #494951",
"8 	c #464950",
"9 	c #60606C",
"0 	c #484852",
"a 	c #47474F",
"b 	c #72C8A1",
"c 	c #494850",
"d 	c #45484F",
"e 	c #616169",
"f 	c #5E616A",
"g 	c #302F35",
"h 	c #31313B",
"i 	c #2E313A",
"j 	c #010103",
"k 	c #000100",
"l 	c #2E3138",
"m 	c #474A51",
"n 	c #2F3035",
"o 	c #302F37",
"p 	c #313038",
"q 	c #494953",
"r 	c #72C8A3",
"s 	c #773F40",
"t 	c #7A3F43",
"u 	c #DA9971",
"v 	c #D99A71",
"w 	c #784041",
"x 	c #D89872",
"y 	c #D89970",
"z 	c #313237",
"A 	c #78403F",
"B 	c #D79970",
"C 	c #D7986F",
"D 	c #B1409A",
"E 	c #B24098",
"F 	c #010000",
"G 	c #010100",
"H 	c #B14197",
"I 	c #B13F97",
"J 	c #000004",
"K 	c #B14098",
"L 	c #B2419B",
"M 	c #B24199",
"N 	c #AF4197",
"O 	c #6EC99E",
"P 	c #6FCAA1",
"Q 	c #000200",
"R 	c #010002",
"S 	c #AE4097",
"T 	c #B03F97",
"U 	c #000201",
"V 	c #474751",
"W 	c #48474F",
"X 	c #616068",
"Y 	c #6FC7A1",
"Z 	c #C0B8D0",
"` 	c #464952",
" .	c #2D3236",
"..	c #616267",
"+.	c #2F3239",
"@.	c #302E39",
"#.	c #60606A",
"$.	c #9288BA",
"%.	c #9088B9",
"&.	c #8F89B9",
"*.	c #8F87BA",
"=.	c #9088BB",
"-.	c #8F88BB",
";.	c #9088B7",
">.	c #8F87B8",
",.	c #9187B9",
"'.	c #484B52",
").	c #010302",
"!.	c #484651",
"~.	c #71C7A2",
"{.	c #8F87B6",
"].	c #6FCA9F",
"^.	c #9189BA",
"/.	c #6FC9A3",
". . . . . . . . . . . . . . . . . . . . . . . . + + @ . . . . . . . . . . @ + + . . . . . . . . . . . . . . . . . . . . . . . . ",
". . . . . . . . . . . . . . . . . . . . . . . . . # $ . . $ @ . . @ $ . . $ # . . . . . . . . . . . . . . . . . . . . . . . . . ",
". . . . . . . . . . . . . . . . . . . . . . . . . . % @ & @ + * * + @ & @ % . . . . . . . . . . . . . . . . . . . . . . . . . . ",
". . . . . . . . . . . . . . . . . . . . . . . . . $ = $ - . @ . . # . - $ = $ . . . . . . . . . . . . . . . . . . . . . . . . . ",
". . . . . . . . . . . . . . . . . . . . . . . . . & . . . % % % % % % . . . & . . . . . . . . . . . . . . . . . . . . . . . . . ",
". . . . . . . . . . . . . . . . . . . . . . . . . $ @ ; @ + > . . > + @ ; @ $ . . . . . . . . . . . . . . . . . . . . . . . . . ",
". . . . . . . . . . . . . . . . . . . . . . . . . + . . . . . . . . . . . . + . . . . . . . . . . . . . . . . . . . . . . . . . ",
". . . . . . . . . . . . . . . . . . . . . . . . , ' ) ! ! ~ { ! ! { ~ ! ! ) ' , . . . . . . . . . . . . . . . . . . . . . . . . ",
". . . . . . . . . . . . . . . . . . . . , . . . , ) ) ! { ~ { ! ! { ~ { ! ) ) , . . . , . . . . . . . . . . . . . . . . . . . . ",
". . . . . . . . . . . . . . . . , . $ . . ! ] ^ ! ) ) / / / / / / / / / / ) ) ! ^ ] ! . . $ . , . . . . . . . . . . . . . . . . ",
". . . . . . . . . . . . . . . . . = . . & ! ! ( ! ) _ : / < / / / / < / : _ ) ! ( ! ! & . . = . . . . . . . . . . . . . . . . . ",
". . . . . . . . . . . . . . . . . [ . } | ~ 1 2 / / 2 2 < / / / / / / < 2 2 / / 2 1 ~ | } . [ . . . . . . . . . . . . . . . . . ",
". . . . . . . . . . . . . . . . , , . 3 3 { ! 4 / < / / 5 / / / / / / 5 / / < / 4 ! { 3 3 . , , . . . . . . . . . . . . . . . . ",
". . . . . . . . . . . . . . . . + | | 6 { / 2 ) _ ) ) 7 ) ) ) 8 8 ) ) ) 7 ) ) _ ) 2 / { 6 | | + . . . . . . . . . . . . . . . . ",
". . . . . . . . . . . . . . . . . | | ! ! / 9 ) 0 ) ) ) 7 ) a ) ) a ) 7 ) ) ) 0 ) 9 / ! ! | | . . . . . . . . . . . . . . . . . ",
". . . . . . . . . . . . . . . . b | } ! ! c d / e < / < / / / f f / / / < / < e / d c ! ! } | b . . . . . . . . . . . . . . . . ",
". . . . . . . . + . . . + + . . . | | g ! ) ) e / / / / / / / / / / / / / / / / e ) ) ! g | | . . . + . . . . + . . . . . . . . ",
". . . . . . . . . . . . $ . % | | h ! i ~ < / / / e / / / / < / / < / / / / e / / / < ~ i ! h | | % + $ . . . . . . . . . . . . ",
". . . . . . . . . . . . . . + j k ! ( ^ ! / / / / / < e / / < / / < / / e < / / / / / ! ^ ( ! k j + . . . . . . . . . . . . . . ",
". . . . . . . . . . . @ . . $ | | ^ { ( l ) m 2 / / e / / < / / / / < / / e / / 2 m ) l ( { ^ | | $ . . @ . . . . . . . . . . . ",
". . . . . . . . . . % - @ . . | | ~ n ! ( ) _ / / < / / / / / / / / / / / / < / / _ ) ( ! n ~ | | . . @ - % . . . . . . . . . . ",
". . . . . . . . . . b . . , . | | ! { ! ( 6 ! d ) e e / < < / / / / < < / e e ) d ! 6 ( ! { ! | | . , . . > . . . . . . . . . . ",
". . . . . . . . . . . . . . . | | ! o ( ! ! ! 7 ) / / / / / / / / / / / / / / ) 7 ! ! ! ( o ! | | . . . . . . . . . . . . . . . ",
". . . . . . . . , % . . . . . | | ! ! ~ ! ! ] l ! ! ! ) ) 7 a ) ) a 7 ) ) ! ! ! l ] ! ! ~ ! ! | } @ . . . . % , . . . . . . . . ",
". . . . . . . . @ . . . . @ + | | l ! { p p ! ! ( ! ! q ) ) ) 7 7 ) ) ) q ! ! ( ! ! p p { ! l | | + @ . . . . @ . . . . . . . . ",
". . . . . . . . + . + . % . . & % ! ! ! ! ~ ! ! ( ! ! ! ! ( ! ! ! ! ( ! ! ! ! ( ~ ! ~ ! ! ! ! % & . . % . + . + . . . . . . . . ",
". . . . . . . . . , . . . . . = @ ^ ~ ! p i l ! ! ! ! ! ! ! ! ! ! ! ! ! ! ! ! ! ! l i p ! ~ ^ @ = . . . . . , . . . . . . . . . ",
". . . . . . . . . . . + . . % . r | | { ^ ~ ~ 1 ~ ! ! ! { ! ! { { ! ! { ! ! ! ~ 1 ~ ~ ^ { | | r . % . . + . . , . . . . . . . . ",
". . . . . . . . . . . * + . . . . } k ^ n ! h ^ { ( ! { ! ^ ! ^ ^ ! ^ ! { ! ( { ^ h { n ^ k } . . . . + % . . . . . . . . . . . ",
". . . . . . . . . . @ . . . + . . s t u v ! ! ~ { ! ! ! ! ! ! ! ! ! ! ! ! ! ! { ~ ! ! v u t s . . + . . . @ . . . . . . . . . . ",
". . . . . . . . @ . . . . , . . + w w x y ^ l ! ~ ! ! ! z ! ! ! ! ! ! z ! ! ! ~ ! l ^ y x w w + . . , . . . . @ . . . . . . . . ",
". . . . . . . . > @ . . . . + @ . w A B y | } | k ~ h ! ! ! ! ! ! ! ! ! ! h ~ k | } | y B A w . @ + . , . . @ > . . . . . . . . ",
". . . . . . . . . . . . . . . . @ w w C C | | | | ! ! ( ~ ! ! ! ! ! ! ~ ( ! ! | | | | C C w w @ . . . . . . . . . . . . . . . . ",
". . . . . . . . . . . . . . . . % % . } | | 3 D E | } j | } | F F | } | j } | E D 3 | | } . % % . . . . . . . . . . . . . . . . ",
". . . . . . . . . . . . . . . . . . . | | | G H I | | | 3 3 | | | | 3 3 | | | I H G | | | . . . . . . . . . . . . . . . . . . . ",
". . . . . . . . . . . . . . . . [ % r $ & F J | | E K L H M K H H K M N L K E | | J F & $ r % [ . . . . . . . . . . . . . . . . ",
". . . . . . . . . . . . . . . . . @ O % P } Q | R K S K K D T T T T D K E S K 3 | Q } P % O @ . . . . . . . . . . . . . . . . . ",
". . . . . . . . . . . . . . . . . P b $ @ ) ' _ ) | | | | D K E E K D | | | | ) _ ' ) @ $ b P . . . . . . . . . . . . . . . . . ",
". . . . . . . . . . . . . . . . . , . + . ) ) ) 8 | | | U K D K K D K U | | | 8 ) ) ) . + . , . . . . . . . . . . . . . . . . . ",
". . . . . . . . . . . . . . . . . @ . k k ) ) ) ) ) ) _ _ ! ! ! ! ! ! _ _ ) ) ) ) ) ) k k . @ . . . . . . . . . . . . . . . . . ",
". . . . . . . . % . . . . . . @ . , . | j ) V ) ) ) ' c ) ! ^ p p ^ ! ) c ' ) ) ) V ) j | . , . @ . . . . . . % . . . . . . . . ",
". . . . . . . . . . . . % . . , . | | a a _ ) l ~ 7 W / / / < X X < / / / W 7 ~ l ) _ a a | | . , . . % . . . . . . . . . . . . ",
". . . . . . . . . . % Y > + $ . $ | | c 7 0 ) ! ! _ ) / f / / / / / / f / ) _ ! ! ) 0 7 c | | $ . $ + > Y % . . . . . . . . . . ",
". . . . . . . . . @ $ O > % + ! ! Z Z ` 0  .1 | | q 7 / ../ / e e / / ../ 7 q | | 1  .0 ` Z Z ! ! + % > O $ @ . . . . . . . . . ",
". . . . . . . . % . . . . > . +.l Z Z c _ @.o 3 | W ' 2 #./ / / / / / #.2 ' W | 3 o @._ c Z Z l +.. > . . . . % . . . . . . . . ",
". . . . . . . . . . . , . . . ] p $.%.&.*.| } ! n %.=.0 8 e 2 / / 2 e 8 0 =.%.n ! } | *.&.%.$.p ] . . . , . . . . . . . . . . . ",
". . . . . . . . . . . . . . . ! ! -.%.*.;.3 | ^ ! &.%._ ) / / / / / / ) _ %.&.! ^ | 3 ;.*.%.-.! ! . . . . . . . . . . . . . . . ",
". . . . . . . . . % . . . . $ + . { ! ! ^ | | | | ! ! >.,.%.&.%.%.&.%.,.>.! ! | | | | ^ ! ! { . + $ . . . . % . . . . . . . . . ",
". . . . . . . . . . . . . . . . > ! ! ^ { | | | | p ! %.&.%.-.%.%.-.%.&.%.! p | | | | { ^ ! ! > . . . . . . . . . . . . . . . . ",
". . . . . . . . . . . . . . . . Y . . . . 3 | ) ) n ! ! l ! ! l l ! ! l ! ! n ) ) | 3 . . . . Y . . . . . . . . . . . . . . . . ",
". . . . . . . . . . . . . . . . + . $ . . | | 7 ) ^ ! ! p ! o ( ( o ! p ! ! ^ ) 7 | | . . . . + . . . . . . . . . . . . . . . . ",
". . . . . . . . . . . . . . . . . . @ & % } | | | d 8 8 '.G ).} } ).G '.8 8 d | | | j . & @ . . . . . . . . . . . . . . . . . . ",
". . . . . . . . . . . . . . . . . = . $ . | | | | ' c ' !.| 3 3 3 3 | !.' c ' | | | | . $ . @ . . . . . . . . . . . . . . . . . ",
". . . . . . . . . . . . . . . . $ & ~.+ [ j | >.%.{.&.| F ].; ; ; ; ].F | &.{.%.>.| j [ + ~.& $ . . . . . . . . . . . . . . . . ",
". . . . . . . . . . . . . . . . , . $ % O F | %.^.,.%.| | , @ . . @ , | | %.,.^.%.| F O . $ $ , . . . . . . . . . . . . . . . . ",
". . . . . . . . . . . . . . . . $ . > . & . . | 3 | | . % $ + + + + $ % . | | 3 | . . & . > . $ . . . . . . . . . . . . . . . . ",
". . . . . . . . . . . . . . . . @ . . . . @ + | 3 U | , . Y % . . % Y . , | U 3 | + @ . . . . @ . . . . . . . . . . . . . . . . ",
". . . . . . . . . . . . . . . . + . + . % . . & % + % . . . * . . * . . . % + % & . . % . + . + . . . . . . . . . . . . . . . . ",
". . . . . . . . . . . . . . . . . , . . . . . = . Y $ % . . . . . . . . % $ Y . = . . . . . , . . . . . . . . . . . . . . . . . ",
". . . . . . . . . . . . . . . . . . . + . . % . . & . + > . . . . . . > + . & . . % . . + . . , . . . . . . . . . . . . . . . . ",
". . . . . . . . . . . . . . . . . . . * + . . . @ . , $ . . /.. . /.. . $ , . @ . . . + % . . . . . . . . . . . . . . . . . . . ",
". . . . . . . . . . . . . . . . . . @ . . . + . . . @ , . . . . . . . . , @ . . . + . . . @ . . . . . . . . . . . . . . . . . . ",
". . . . . . . . . . . . . . . . @ . . . . , . . . . . > + . . . . . . + > . . . . . , . . . . @ . . . . . . . . . . . . . . . . ",
". . . . . . . . . . . . . . . . > @ . . . . + @ @ . . * ; % . . . . % ; * . . @ @ + . , . . @ > . . . . . . . . . . . . . . . . "};
