/* XPM */
static char * trm_back_rx_xpm[] = {
"64 64 137 2",
"  	c None",
". 	c #70C8A0",
"+ 	c #6EC99E",
"@ 	c #70C8A2",
"# 	c #6FC79F",
"$ 	c #71C9A1",
"% 	c #70C89E",
"& 	c #6EC9A0",
"* 	c #71C7A0",
"= 	c #6FC79D",
"- 	c #6FC7A1",
"; 	c #6FC9A3",
"> 	c #70C7A4",
", 	c #6DC89D",
"' 	c #71C9A3",
") 	c #71C7A2",
"! 	c #71C99F",
"~ 	c #484850",
"{ 	c #303038",
"] 	c #30303A",
"^ 	c #313038",
"/ 	c #484852",
"( 	c #2F2F37",
"_ 	c #303136",
": 	c #606068",
"< 	c #000000",
"[ 	c #2E3138",
"} 	c #5E6168",
"| 	c #6EC8A2",
"1 	c #60606A",
"2 	c #47484D",
"3 	c #494951",
"4 	c #47474F",
"5 	c #616068",
"6 	c #5F5F67",
"7 	c #31313B",
"8 	c #616169",
"9 	c #302F37",
"0 	c #606166",
"a 	c #010101",
"b 	c #72C8A1",
"c 	c #313139",
"d 	c #71C89E",
"e 	c #494850",
"f 	c #010103",
"g 	c #000002",
"h 	c #2F3035",
"i 	c #312F3A",
"j 	c #30303C",
"k 	c #793E40",
"l 	c #7A3F43",
"m 	c #D89970",
"n 	c #2E3136",
"o 	c #2F323B",
"p 	c #2F3239",
"q 	c #2D3037",
"r 	c #78403F",
"s 	c #774141",
"t 	c #312F3C",
"u 	c #784041",
"v 	c #D99A71",
"w 	c #000100",
"x 	c #794142",
"y 	c #D89872",
"z 	c #020003",
"A 	c #000201",
"B 	c #B14098",
"C 	c #010100",
"D 	c #B24199",
"E 	c #B24098",
"F 	c #010000",
"G 	c #70C69F",
"H 	c #B24097",
"I 	c #B03F97",
"J 	c #B2419B",
"K 	c #B1409A",
"L 	c #B04096",
"M 	c #B14197",
"N 	c #020001",
"O 	c #4A4951",
"P 	c #494752",
"Q 	c #2F3237",
"R 	c #2E313A",
"S 	c #B03F99",
"T 	c #B24298",
"U 	c #AF419A",
"V 	c #464950",
"W 	c #48494E",
"X 	c #6EC8A4",
"Y 	c #9088BB",
"Z 	c #454851",
"` 	c #9088B9",
" .	c #9189BA",
"..	c #474A51",
"+.	c #46474C",
"@.	c #616267",
"#.	c #2F2F39",
"$.	c #FEFFFF",
"%.	c #FFFFFF",
"&.	c #5D6067",
"*.	c #FEFEFE",
"=.	c #5F6269",
"-.	c #626169",
";.	c #72C8A3",
">.	c #46494E",
",.	c #BEB9D0",
"'.	c #BEB9CF",
").	c #C1B8D3",
"!.	c #C0B7D2",
"~.	c #6DC89F",
"{.	c #8F89B9",
"].	c #C1B7D2",
"^.	c #C1B7D0",
"/.	c #6FCAA1",
"(.	c #32303B",
"_.	c #8E88B8",
":.	c #8F87B8",
"<.	c #9086B8",
"[.	c #8F87B6",
"}.	c #9187BB",
"|.	c #9187B9",
"1.	c #474A4F",
"2.	c #45484F",
"3.	c #48474F",
"4.	c #494953",
"5.	c #494955",
"6.	c #030102",
"7.	c #474751",
"8.	c #48494D",
"9.	c #4A4752",
"0.	c #8F87BA",
"a.	c #8E86B7",
"b.	c #020202",
"c.	c #6DCA9E",
"d.	c #BFB7CF",
"e.	c #C0B8D0",
"f.	c #C1B9D1",
". . . . . . . . . . . . . . . . . + . . @ . . # # . . . . $ . . . . $ . . . . # # . . @ . . + . . . . . . . . . . . . . . . . . ",
". . . . . . . . . . . . . . . . . % . & * % . . * % . % & = + . . + = & % . % * . . % * & . % . . . . . . . . . . . . . . . . . ",
". . . . . . . . . . . . . . . . . . . @ & . @ . - ; > $ . . . @ @ . . . $ > ; - . @ . & @ . . . . . . . . . . . . . . . . . . . ",
". . . . . . . . . . . . . . . . * & # & . . * % % = + = & . = , , = . & = + = % % * . . & # & * . . . . . . . . . . . . . . . . ",
". . . . . . . . . . . . . . . . . # @ # @ ' . . @ @ ) ' * $ @ ) ) @ $ * ' ) @ @ . . ' @ # @ # . . . . . . . . . . . . . . . . . ",
". . . . . . . . . . . . . . . . . ' @ . . $ & $ ! ~ ~ { ] { { ^ ^ { { ] { ~ ~ ! $ & $ . . @ ' . . . . . . . . . . . . . . . . . ",
". . . . . . . . . . . . . . . . . . % . . @ . . . / ~ ( { ( { { { { ( { ( ~ / . . . @ . . % . . . . . . . . . . . . . . . . . . ",
". . . . . . . . . . . . . . . . . . . % @ ^ _ { { ~ ~ : : : : : : : : : : ~ ~ { { _ ^ @ % . . . . . . . . . . . . . . . . . . . ",
". . . . . . . . * # . . . . $ # # . . . & { { { { ~ ~ : : : : : : : : : : ~ ~ { { { { & . . . # # $ . & . . # * . . . . . . . . ",
". . . . . . . . # . . . . & . . . . . < < [ ^ } : : : : : : : : : : : : : : : : } ^ [ < < . . . . . & . . . . # . . . . . . . . ",
". . . . . . . . . . # . . . $ . . . . < < ] { : : : : : : : : : : : : : : : : : : { ] < < . . . . $ . . . # . . . . . . . . . . ",
". . . . . . . . . . . | $ . . . # < < ^ ^ : 1 2 ~ ~ ~ 3 4 ~ 4 ~ ~ 4 ~ 4 3 ~ ~ ~ 2 1 : ^ ^ < < # . . . $ @ . . . . . . . . . . . ",
". . . . . . . . . . . $ . . @ . . < < { { : : ~ 3 ~ ~ ~ ~ 3 ~ ~ ~ ~ 3 ~ ~ ~ ~ 3 ~ : : { { < < . . @ . . $ . . & . . . . . . . . ",
". . . . . . . . . & . . . . . = . < < ] _ 3 ~ 5 : : 6 : : : : : : : : : : 6 : : 5 ~ 3 _ ] < < . = . . . . . & . . . . . . . . . ",
". . . . . . . . $ . $ . @ . . ' @ < < 7 ] ~ ~ : : : : : : 6 8 : : 8 6 : : : : : : ~ ~ ] 7 < < @ ' . . @ . $ . $ . . . . . . . . ",
". . . . . . . . # . . . . # $ < < { ( ] 9 : } : : : : : : : : : : : : : : : : : : } : 9 ] ( { < < $ # . . . . # . . . . . . . . ",
". . . . . . . . & @ . . . . . < < { { ( { : : 0 : : : : : : : : : : : : : : : : 0 : : { ( { { < a # . . . . @ & . . . . . . . . ",
". . . . . . . . . . . . . . . < < { ^ { { ~ ~ 5 : 8 : : : : : : : : : : : : 8 : 5 ~ ~ { { ^ { < < . . . . . . . . . . . . . . . ",
". . . . . . . . . . b . . & . < < { { { ] ~ ~ : 8 : : : : : : : : : : : : : : 8 : ~ ~ 7 { { c < < . & . . * . . . . . . . . . . ",
". . . . . . . . . . @ d # . . < < ( ( c ( c { ~ ~ : : 6 : 8 : : : : 8 : 6 : : ~ ~ { c ( c ( { < < . . # d @ . . . . . . . . . . ",
". . . . . . . . . . . # . . % < < { { ( { { { e ~ : : : 6 : 6 6 6 6 : 6 : : : ~ e { { { ( { { < < % . . # . . . . . . . . . . . ",
". . . . . . . . . . . . . . $ f g { ( c ( { ^ { ( ( { ~ ~ ~ ~ ~ ~ ~ ~ ~ ~ { ( ( { ^ { ( c ( { g f $ . . . . . . . . . . . . . . ",
". . . . . . . . . . . . % . @ < < ] { _ { { { c { { { ~ ~ ~ ~ ~ ~ ~ ~ ~ ~ { { { c { { { _ { ] < < @ $ % . . . . . . . . . . . . ",
". . . . . . . . $ . . . $ $ . . . ( { _ { { { { { { { { { { ( { { ( { { { { { { { { { { _ { { . . . $ . . . . $ . . . . . . . . ",
". . . . . . . . . . . . . . . . . { c ] { [ { { { ] { [ ] { ( _ _ ( { ] [ { ] { { { [ { ] c { . . . . . . . . . . . . . . . . . ",
". . . . . . . . . . . . . . . . . < a { ^ { { ] { { { _ h ( { ( ( { ( h _ { { { ] { { ^ { a < . . . . . . . . . . . . . . . . . ",
". . . . . . . . . . . . . . . . . a a { { i j { ^ { ^ c ( { ] ] ] ] { ( c ^ { ^ { j i { { a a . . . . . . . . . . . . . . . . . ",
". . . . . . . . . . . . . . . . . k l m m n n o p _ h q _ _ _ _ _ _ _ _ q h _ p o n n m m l k . . . . . . . . . . . . . . . . . ",
". . . . . . . . . . . . . . . . . r s m m i t 9 9 7 ] c i ] ] c c ] ] i c ] 7 9 9 t i m m s r . . . . . . . . . . . . . . . . . ",
". . . . . . . . . . . . . . . . . u u v v < a a < _ c _ { ^ { q q { ^ { _ c _ < a a w v v u u . . . . . . . . . . . . . . . . . ",
". . . . . . . . . . . . . . . . . x r m y < z < A { ( { { { ] { { ] { { { ( { A < z < y m r x . . . . . . . . . . . . . . . . . ",
". . . . . . . . . . . . . . . . % . . < < < < B B < < < < < < C C < < < < < < B B < < < < . . % . . . . . . . . . . . . . . . . ",
". . . . . . . . # . . * . . . * . . & a < < < B D < < < a < g < < < < < < < < B E < < F < . . . . . . . . . . . . . . . . . . . ",
". . . . . . . . . . . + . @ . & % . G { ] < < < < B H D B B B B B B E I J B K < < < g $ . $ . . . . . . . . . . . . . . . . . . ",
". . . . . . . . . . . & . . . . . * % c h < < F < B K L E B B B I B K K I B M < g < a . . @ . . . . . . . . . . . . . . . . . . ",
". . . . . . . . $ . . . & @ . + . i ] i { ^ i { { < < N < K D E E B E F N < < O / P P ! # . * & . . . . . . . . . . . . . . . . ",
". . . . . . . . . . . | b . * @ - n n n _ n Q R 7 < a < < B B D S T U g < a F 4 V V W X . . * . . . . . . . . . . . . . . . . . ",
". . . . . . . . . @ * * @ $ . i _ Y Y ~ Z i ] q { ~ ~ 3 W [ ^ { { ^ { 4 ~ ~ ~ 5 5 ~ P < a . % & . . . . . . . . . . . . . . . . ",
". . . . . . . . . * @ . . . . ^ ^ `  .~ ~ ( h ] ^ 3 ..~ e { { { { n { 3 ~ 3 W 1 } +.4 < < . . . . . . . . . . . . . . . . . . . ",
". . . . . . . . # . . . & . # { ] ` ` ~ ~ { { < < ~ ~ : : : : : 6 : : 6 @.~ ~ 8 : : : < g & $ . . . . . . . . . . . . . . . . . ",
". . . . . . . . # % @ % . . . ^ {  .` ~ e ] { < < ~ ~ : : 1 : 6 0 8 : 5 6 ~ ~ 5 : : : < < % . # . . . . . . . . . . . . . . . . ",
". . . . . . . . . . . . . # . . . ] _ #.c $.%.< < ~ ~ : : } : : : : 6 0 : < < : &.} 6 < < . . ' . . . . . . . . . . . . . . . . ",
". . . . . . . . . . . . @ @ # . . ^ ] [ 9 $.*.a w 3 4 } 5 : 8 : : : =.=.: a < 6 1 5 -.< < . . . . . . . . . . . . . . . . . . . ",
". . . . . . . . $ # $ $ @ @ . . . ! % ;.' N < i 7 ` ` ~ V : : 1 0 : 0 ~ ~ g g >.>.,.'.).!.c { . . . . . . . . . . . . . . . . . ",
". . . . . . . . $ . . & . . . . ~.- # # = g f n n {. .~ 3 : : : 6 : : 2 ~ < < P P ].^.^.'.{ ] @ . . . . . . . . . . . . . . . . ",
". . . . . . . . * # . . . . . @ . % $ /.. < F ] (.{ { ` _.` :.:.` ` :.<.[.] { a a :.:.}.` ^ ( . . . . . . . . . . . . . . . . . ",
". . . . . . . . . . # . . . . = . @ # # & < a h { { { `  .Y ` ` [.` ` {.` ( { < < ` |.` ` { { . . . . . . . . . . . . . . . . . ",
". . . . . . . . d . . $ . . . . & . $ @ * < < ~ ~ ~ / { _ { { { ( { { { ^ ( { g < a < < F . . ;.. . . . . . . . . . . . . . . . ",
". . . . . . . . . . . . . . . . . . # . . < < 3 ~ ~ 3 [ { _ { { { { R #.c { { w < < < f < ! . . . . . . . . . . . . . . . . . . ",
". . . . . . . . . . . . . . . . G & & . . g a ~ 1.3 ~ ~ 2.4 ~ ~ ~ { ( { _ < < < < . . . @ . . % . . . . . . . . . . . . . . . . ",
". . . . . . . . . . . . . . . . . $ @ . ) < < P 3.~ 3 4.~ 5.e ~ 4 { { { { F 6.a < & # . % . * % . . . . . . . . . . . . . . . . ",
". . . . . . . . . . . . . . . . & % . * % . /.a a 7.~ 4 4.8.>.< f g g z < * . . /.* @ . ; d . * . . . . . . . . . . . . . . . . ",
". . . . . . . . . . . . . . . . $ $ . . b - $ f f 3 3.V e 9.e a < < a A < . ! . * % . . % # & . . . . . . . . . . . . . . . . . ",
". . . . . . . . . . . . . . . . . $ /.. # % ' a a :.0.a.Y b.a c.$ & . . | . . + . # . . * . . . . . . . . . . . . . . . . . . . ",
". . . . . . . . . . . . . . . . . . . & % /.. g <  .` {.` w < # . % & /.+ . & $ . . . $ . d # . . . . . . . . . . . . . . . . . ",
". . . . . . . . . . . . . . . . . # . . . . d < g d.e.e.e.< < @ . . . . . @ % @ . . + . . . . . . . . . . . . . . . . . . . . . ",
". . . . . . . . . . . . . . . . # . . . . # $ < < !.e.f.e.< < . . . . . . . . . . . . . . . . . . . . . . . . . . . . . . . . . ",
". . . . . . . . . . . . . . . . $ . $ . @ . . ' . < < < < * ' . . . . . . . . . . . . . . . . . . . . . . . . . . . . . . . . . ",
". . . . . . . . . . . . . . . . . & . . . . . = % F a < z + # . . . . . . . . . . . . . . . . . . . . . . . . . . . . . . . . . ",
". . . . . . . . . . . . . . . . . . . $ . . @ . . . = . G b . . . . . . . . . . . . . . . . . . . . . . . . . . . . . . . . . . ",
". . . . . . . . . . . . . . . . . . . | $ . . . # ; . /.. . . @ . . . . . . . . . . . . . . . . . . . . . . . . . . . . . . . . ",
". . . . . . . . . . . . . . . . . . # . . . $ . . * # . . . . . . . . . . . . . . . . . . . . . . . . . . . . . . . . . . . . . ",
". . . . . . . . . . . . . . . . # . . . . & . . . . . | % . & . . . . . . . . . . . . . . . . . . . . . . . . . . . . . . . . . ",
". . . . . . . . . . . . . . . . * # . . . . $ # . . . . . . = . . . . . . . . . . . . . . . . . . . . . . . . . . . . . . . . . "};
