/* XPM */
static char * trm_back_sx_xpm[] = {
"64 64 139 2",
"  	c None",
". 	c #70C8A0",
"+ 	c #6EC99E",
"@ 	c #70C8A2",
"# 	c #6FC79F",
"$ 	c #71C9A1",
"% 	c #70C89E",
"& 	c #6EC9A0",
"* 	c #71C7A0",
"= 	c #6FC79D",
"- 	c #6FC7A1",
"; 	c #6FC9A3",
"> 	c #70C7A4",
", 	c #6DC89D",
"' 	c #71C9A3",
") 	c #71C7A2",
"! 	c #71C99F",
"~ 	c #484850",
"{ 	c #303038",
"] 	c #30303A",
"^ 	c #313038",
"/ 	c #484852",
"( 	c #2F2F37",
"_ 	c #303136",
": 	c #606068",
"< 	c #000000",
"[ 	c #2E3138",
"} 	c #5E6168",
"| 	c #6EC8A2",
"1 	c #60606A",
"2 	c #47484D",
"3 	c #494951",
"4 	c #47474F",
"5 	c #616068",
"6 	c #5F5F67",
"7 	c #31313B",
"8 	c #616169",
"9 	c #302F37",
"0 	c #606166",
"a 	c #010101",
"b 	c #72C8A1",
"c 	c #313139",
"d 	c #71C89E",
"e 	c #494850",
"f 	c #010103",
"g 	c #000002",
"h 	c #2F3035",
"i 	c #312F3A",
"j 	c #30303C",
"k 	c #793E40",
"l 	c #7A3F43",
"m 	c #D89970",
"n 	c #2E3136",
"o 	c #2F323B",
"p 	c #2F3239",
"q 	c #2D3037",
"r 	c #78403F",
"s 	c #774141",
"t 	c #312F3C",
"u 	c #784041",
"v 	c #D99A71",
"w 	c #000100",
"x 	c #794142",
"y 	c #D89872",
"z 	c #020003",
"A 	c #000201",
"B 	c #B14098",
"C 	c #010100",
"D 	c #010000",
"E 	c #B24098",
"F 	c #B24199",
"G 	c #B1409A",
"H 	c #B2419B",
"I 	c #B03F97",
"J 	c #B24097",
"K 	c #70C69F",
"L 	c #B14197",
"M 	c #B04096",
"N 	c #494752",
"O 	c #4A4951",
"P 	c #020001",
"Q 	c #6EC8A4",
"R 	c #48494E",
"S 	c #46494E",
"T 	c #464950",
"U 	c #AF419A",
"V 	c #B24298",
"W 	c #B03F99",
"X 	c #2E313A",
"Y 	c #2F3237",
"Z 	c #2D3035",
"` 	c #494754",
" .	c #32303B",
"..	c #454851",
"+.	c #9088BB",
"@.	c #46474C",
"#.	c #474A51",
"$.	c #9189BA",
"%.	c #9088B9",
"&.	c #616267",
"*.	c #5D6067",
"=.	c #FFFFFF",
"-.	c #FEFFFF",
";.	c #2F2F39",
">.	c #626169",
",.	c #5F6269",
"'.	c #FEFEFE",
").	c #C0B7D2",
"!.	c #C1B8D3",
"~.	c #BEB9CF",
"{.	c #BEB9D0",
"].	c #72C8A3",
"^.	c #C1B7D0",
"/.	c #C1B7D2",
"(.	c #8F89B9",
"_.	c #6DC89F",
":.	c #9187BB",
"<.	c #8F87B8",
"[.	c #8F87B6",
"}.	c #9086B8",
"|.	c #8E88B8",
"1.	c #6FCAA1",
"2.	c #9187B9",
"3.	c #45484F",
"4.	c #474A4F",
"5.	c #030102",
"6.	c #494955",
"7.	c #494953",
"8.	c #48474F",
"9.	c #48494D",
"0.	c #474751",
"a.	c #4A4752",
"b.	c #6DCA9E",
"c.	c #020202",
"d.	c #8E86B9",
"e.	c #8F87BA",
"f.	c #C0B8D0",
"g.	c #BFB7CF",
"h.	c #C1B9D1",
". . . . . . . . . . . . . . . . . + . . @ . . # # . . . . $ . . . . $ . . . . # # . . @ . . + . . . . . . . . . . . . . . . . . ",
". . . . . . . . . . . . . . . . . % . & * % . . * % . % & = + . . + = & % . % * . . % * & . % . . . . . . . . . . . . . . . . . ",
". . . . . . . . . . . . . . . . . . . @ & . @ . - ; > $ . . . @ @ . . . $ > ; - . @ . & @ . . . . . . . . . . . . . . . . . . . ",
". . . . . . . . . . . . . . . . * & # & . . * % % = + = & . = , , = . & = + = % % * . . & # & * . . . . . . . . . . . . . . . . ",
". . . . . . . . . . . . . . . . . # @ # @ ' . . @ @ ) ' * $ @ ) ) @ $ * ' ) @ @ . . ' @ # @ # . . . . . . . . . . . . . . . . . ",
". . . . . . . . . . . . . . . . . ' @ . . $ & $ ! ~ ~ { ] { { ^ ^ { { ] { ~ ~ ! $ & $ . . @ ' . . . . . . . . . . . . . . . . . ",
". . . . . . . . . . . . . . . . . . % . . @ . . . / ~ ( { ( { { { { ( { ( ~ / . . . @ . . % . . . . . . . . . . . . . . . . . . ",
". . . . . . . . . . . . . . . . . . . % @ ^ _ { { ~ ~ : : : : : : : : : : ~ ~ { { _ ^ @ % . . . . . . . . . . . . . . . . . . . ",
". . . . . . . . * # . . . . $ # # . . . & { { { { ~ ~ : : : : : : : : : : ~ ~ { { { { & . . . # # $ . & . . # * . . . . . . . . ",
". . . . . . . . # . . . . & . . . . . < < [ ^ } : : : : : : : : : : : : : : : : } ^ [ < < . . . . . & . . . . # . . . . . . . . ",
". . . . . . . . . . # . . . $ . . . . < < ] { : : : : : : : : : : : : : : : : : : { ] < < . . . . $ . . . # . . . . . . . . . . ",
". . . . . . . . . . . | $ . . . # < < ^ ^ : 1 2 ~ ~ ~ 3 4 ~ 4 ~ ~ 4 ~ 4 3 ~ ~ ~ 2 1 : ^ ^ < < # . . . $ @ . . . . . . . . . . . ",
". . . . . . . . . . . $ . . @ . . < < { { : : ~ 3 ~ ~ ~ ~ 3 ~ ~ ~ ~ 3 ~ ~ ~ ~ 3 ~ : : { { < < . . @ . . $ . . & . . . . . . . . ",
". . . . . . . . . & . . . . . = . < < ] _ 3 ~ 5 : : 6 : : : : : : : : : : 6 : : 5 ~ 3 _ ] < < . = . . . . . & . . . . . . . . . ",
". . . . . . . . $ . $ . @ . . ' @ < < 7 ] ~ ~ : : : : : : 6 8 : : 8 6 : : : : : : ~ ~ ] 7 < < @ ' . . @ . $ . $ . . . . . . . . ",
". . . . . . . . # . . . . # $ < < { ( ] 9 : } : : : : : : : : : : : : : : : : : : } : 9 ] ( { < < $ # . . . . # . . . . . . . . ",
". . . . . . . . & @ . . . . . < < { { ( { : : 0 : : : : : : : : : : : : : : : : 0 : : { ( { { < a # . . . . @ & . . . . . . . . ",
". . . . . . . . . . . . . . . < < { ^ { { ~ ~ 5 : 8 : : : : : : : : : : : : 8 : 5 ~ ~ { { ^ { < < . . . . . . . . . . . . . . . ",
". . . . . . . . . . b . . & . < < { { { ] ~ ~ : 8 : : : : : : : : : : : : : : 8 : ~ ~ 7 { { c < < . & . . * . . . . . . . . . . ",
". . . . . . . . . . @ d # . . < < ( ( c ( c { ~ ~ : : 6 : 8 : : : : 8 : 6 : : ~ ~ { c ( c ( { < < . . # d @ . . . . . . . . . . ",
". . . . . . . . . . . # . . % < < { { ( { { { e ~ : : : 6 : 6 6 6 6 : 6 : : : ~ e { { { ( { { < < % . . # . . . . . . . . . . . ",
". . . . . . . . . . . . . . $ f g { ( c ( { ^ { ( ( { ~ ~ ~ ~ ~ ~ ~ ~ ~ ~ { ( ( { ^ { ( c ( { g f $ . . . . . . . . . . . . . . ",
". . . . . . . . . . . . % . @ < < ] { _ { { { c { { { ~ ~ ~ ~ ~ ~ ~ ~ ~ ~ { { { c { { { _ { ] < < @ $ % . . . . . . . . . . . . ",
". . . . . . . . $ . . . $ $ . . . ( { _ { { { { { { { { { { ( { { ( { { { { { { { { { { _ { { . . . $ . . . . $ . . . . . . . . ",
". . . . . . . . . . . . . . . . . { c ] { [ { { { ] { [ ] { ( _ _ ( { ] [ { ] { { { [ { ] c { . . . . . . . . . . . . . . . . . ",
". . . . . . . . . . . . . . . . . < a { ^ { { ] { { { _ h ( { ( ( { ( h _ { { { ] { { ^ { a < . . . . . . . . . . . . . . . . . ",
". . . . . . . . . . . . . . . . . a a { { i j { ^ { ^ c ( { ] ] ] ] { ( c ^ { ^ { j i { { a a . . . . . . . . . . . . . . . . . ",
". . . . . . . . . . . . . . . . . k l m m n n o p _ h q _ _ _ _ _ _ _ _ q h _ p o n n m m l k . . . . . . . . . . . . . . . . . ",
". . . . . . . . . . . . . . . . . r s m m i t 9 9 7 ] c i ] ] c c ] ] i c ] 7 9 9 t i m m s r . . . . . . . . . . . . . . . . . ",
". . . . . . . . . . . . . . . . . u u v v < a a < _ c _ { ^ { q q { ^ { _ c _ < a a w v v u u . . . . . . . . . . . . . . . . . ",
". . . . . . . . . . . . . . . . . x r m y < z < A { ( { { { ] { { ] { { { ( { A < z < y m r x . . . . . . . . . . . . . . . . . ",
". . . . . . . . . . . . . . . . % . . < < < < B B < < < < < < C C < < < < < < B B < < < < . . % . . . . . . . . . . . . . . . . ",
". . . . . . . . . . . . . . . . . . . < D < < E B < < < < < < < < g < a < < < F B < < < a & . . * . . . * . . # . . . . . . . . ",
". . . . . . . . . . . . . . . . . . $ . $ g < < < G B H I E B B B B B B F J B < < < < ] { K . % & . @ . + . . . . . . . . . . . ",
". . . . . . . . . . . . . . . . . . . . . a < < < L B I G G B I B B B E M G B < D < < h { % * . . . . . & . . . . . . . . . . . ",
". . . . . . . . . . . . . . . . & * . # ! N N ~ O < < P D E B E E F G < P < < { { i ^ { i ] i . + . @ & . . . $ . . . . . . . . ",
". . . . . . . . . . . . . . . . . * . . Q R S T 4 D a < g U V W F B B < < a < 7 X Y n _ n Z n - @ * . b | . . . . . . . . . . . ",
". . . . . . . . . . . . . . . . & % % a < ` ~ 5 5 ~ ~ ~ 4 { ^ { { ^ [ R 3 ~ ~ { [ ]  ...~ +.+._ i . $ @ * * @ . . . . . . . . . ",
". . . . . . . . . . . . . . . . . . . < < 4 @.} 1 R 3 ~ 3 { n { { { { e ~ #.3 ^ ] h { ~ ~ $.%.9 ^ . . . . @ * . . . . . . . . . ",
". . . . . . . . . . . . . . . . . $ & g < : 1 : 8 ~ ~ &.6 : : 6 : : : : : ~ ~ < < { { ~ ~ %.%.] { # . & . . . # . . . . . . . . ",
". . . . . . . . . . . . . . . . # . % < < : : : 5 ~ ~ 6 5 : 8 0 6 : 1 : : ~ ~ < < { ] e ~ %.$.{ ^ . . . % @ % # . . . . . . . . ",
". . . . . . . . . . . . . . . . ' . . < < 6 } *.: < < : 0 6 : : : : } : : ~ ~ < < =.-.c ;._ ] . . . # . . . . . . . . . . . . . ",
". . . . . . . . . . . . . . . . . . . < < >.5 1 6 < a : ,.,.: : : 8 : 5 } 4 3 w a '.-.9 [ ] ^ . . # @ @ . . . . . . . . . . . . ",
". . . . . . . . . . . . . . . . . { c ).!.~.{.S S g g ~ ~ 0 : 0 1 : : T ~ %.%.7 i < P ' ].% ! . . . @ @ $ $ # $ . . . . . . . . ",
". . . . . . . . . . . . . . . . @ ] { ~.^.^./.N N < < ~ 2 : : 6 : : : 3 ~ $.(.n n f g = # # - _.. . . . & . . $ . . . . . . . . ",
". . . . . . . . . . . . . . . . . ( ^ %.:.<.<.a a { ] [.}.<.%.%.<.<.%.|.%.{ {  .] D < . 1.$ % . @ . . . . . # * . . . . . . . . ",
". . . . . . . . . . . . . . . . . { { %.%.2.%.< < { ( %.(.%.%.[.%.%.+.$.%.{ { { h a < & # # @ . = . . . . # . . . . . . . . . . ",
". . . . . . . . . . . . . . . . ].. . D < < a < g { ( ^ { { { ( { { { _ { / ~ ~ ~ < < * @ $ . & . . . . $ . . d . . . . . . . . ",
". . . . . . . . . . . . . . . . . . ! < f < < < < { { c ;.X { { { { _ { [ 3 ~ ~ 3 < < . . # . . . . . . . . . . . . . . . . . . ",
". . . . . . . . . . . . . . . . % . . @ . . . < < < < _ { ( { ~ ~ ~ 4 3.~ ~ 3 4.~ a g . . & & K . . . . . . . . . . . . . . . . ",
". . . . . . . . . . . . . . . . % * . % . # & < a 5.< { { { { 4 ~ e 6.~ 7.3 ~ 8.N < < ) . @ $ . . . . . . . . . . . . . . . . . ",
". . . . . . . . . . . . . . . . * . d ; . @ * 1.. . * < z g g f < S 9.7.4 ~ 0.a a 1.. % * . % & . . . . . . . . . . . . . . . . ",
". . . . . . . . . . . . . . . . . & # % . . % * . ! . < A a < < a e a.e T 8.3 f f $ - b . . $ $ . . . . . . . . . . . . . . . . ",
". . . . . . . . . . . . . . . . . . . * . . # . + . . | . . & $ b.a c.+.d.e.<.a a ' % # . 1.$ . . . . . . . . . . . . . . . . . ",
". . . . . . . . . . . . . . . . . # d . $ . . . $ & . + $ & % . # < w %.(.%.$.< g . 1.% & . . . . . . . . . . . . . . . . . . . ",
". . . . . . . . . . . . . . . . . . . . . + . . @ % @ . . . . . @ < < f.f.f.g.g < d . . . . # . . . . . . . . . . . . . . . . . ",
". . . . . . . . . . . . . . . . . . . . . . . . . . . . . . . . . < < f.h.f.).< < $ # . . . . # . . . . . . . . . . . . . . . . ",
". . . . . . . . . . . . . . . . . . . . . . . . . . . . . . . . . ' * < < < < . ' . . @ . $ . $ . . . . . . . . . . . . . . . . ",
". . . . . . . . . . . . . . . . . . . . . . . . . . . . . . . . & # + f < a D % = . . . . . & . . . . . . . . . . . . . . . . . ",
". . . . . . . . . . . . . . . . . . . . . . . . . . . . . . . . . . b K . = . . . @ . . $ . . & . . . . . . . . . . . . . . . . ",
". . . . . . . . . . . . . . . . . . . . . . . . . . . . . . . . @ . . . 1.. ; # . . . $ @ . . . . . . . . . . . . . . . . . . . ",
". . . . . . . . . . . . . . . . . . . . . . . . . . . . . . . . . . . . . # * . . $ . . . # . . . . . . . . . . . . . . . . . . ",
". . . . . . . . . . . . . . . . . . . . . . . . . . . . . . . . . . . % | . . . . . & . . . . # . . . . . . . . . . . . . . . . ",
". . . . . . . . . . . . . . . . . . . . . . . . . . . . . . . . . = . . . . . . # $ . & . . # * . . . . . . . . . . . . . . . . "};
